M48
METRIC,LZ,000.000
;FILE_FORMAT=3:3
;TYPE=PLATED
;Layer: PTH_Through
;EasyEDA v6.5.34, 2023-09-01 23:34:49
;d2f9a346f3944a8da2a00f25f54837ea,5a6b42c53f6a479593ecc07194224c93,10
;Gerber Generator version 0.2
;Holesize 1 = 0.305 mm
T01C0.305
;Holesize 2 = 0.813 mm
T02C0.813
;Holesize 3 = 0.901 mm
T03C0.901
;Holesize 4 = 0.915 mm
T04C0.915
;Holesize 5 = 1.101 mm
T05C1.101
;Holesize 6 = 1.301 mm
T06C1.301
;Holesize 7 = 3.000 mm
T07C3.000
%
G05
G90
T01
X120241Y018415
X120241Y007620
X125321Y007620
X120241Y054610
X057785Y057150
X040005Y017780
X042545Y017780
X045085Y017780
X047625Y017780
X050165Y017780
X052705Y017780
X055245Y017780
X057785Y017780
X099441Y019685
X099441Y015875
X099441Y048768
X099441Y044958
X093091Y015875
X093091Y010795
X091821Y014605
X091821Y008255
X092456Y015240
X092456Y009525
X075438Y031369
X075438Y012065
X077978Y030099
X077978Y015875
X070358Y032766
X070358Y014605
X073025Y033909
X073025Y015240
X091821Y026289
X091821Y020955
X092456Y028829
X092456Y019685
X091186Y027559
X091186Y018415
X093091Y025146
X093091Y022225
X082931Y018796
X082931Y051308
X083566Y020066
X083566Y048768
X084201Y021336
X084201Y046228
X084836Y021971
X084836Y036068
X085471Y022606
X085471Y041148
X086106Y023749
X086106Y038608
X089916Y030988
X089916Y020701
X090551Y019431
X090551Y030353
X096647Y030353
X096647Y047498
X060071Y044069
X063119Y044069
X060706Y043434
X064135Y043434
X071656Y009525
X060579Y009525
X065405Y042799
X066675Y042164
X063246Y042164
X062611Y042799
X059944Y010640
X063119Y008128
X062484Y008763
X074196Y008763
X076736Y008128
X079248Y007493
X081788Y006858
X084328Y006223
X086868Y005588
X065024Y007493
X065786Y040894
X065151Y041529
X067310Y040894
X067310Y045339
X067945Y041529
X065659Y006858
X070231Y051308
X074295Y042164
X074295Y048768
X073660Y042799
X073660Y046228
X062611Y053848
X080518Y053848
X080518Y044939
X080518Y037319
X080518Y035179
X059309Y035179
X067310Y006223
X067945Y005588
X067437Y040005
X070739Y040005
X070104Y040640
X068199Y039751
X060071Y054610
X059055Y053848
X034972Y053848
X034290Y054610
X034972Y044939
X034290Y037320
X051435Y037781
X057785Y037781
X049784Y042799
X050419Y043434
X053975Y042799
X056261Y043434
X055626Y044704
X054991Y045339
X051054Y045339
X050419Y044704
X044450Y051181
X055245Y051181
X045085Y051816
X056515Y051816
X100965Y057150
X101092Y028067
X120241Y025527
X069088Y017907
X071628Y017907
X074168Y017907
X076708Y017907
X079248Y017907
X081788Y017907
X084328Y017907
X086868Y017907
X056642Y029591
X059055Y029591
X051435Y041489
X056642Y041529
X053975Y041529
X061595Y029591
X064135Y029591
X066675Y029591
X053975Y029591
X051435Y029591
X098171Y003175
X098171Y032258
X098171Y043688
X092456Y030988
X092456Y039878
X093091Y026035
X093091Y055118
X093091Y037319
X087757Y054610
X087757Y034779
X123063Y018415
T02
X048895Y023749
X051435Y023749
X053975Y023749
X056515Y023749
X059055Y023749
X061595Y023749
X064135Y023749
X066675Y023749
X069215Y023749
X046355Y026289
X046355Y028829
X046355Y031369
X046355Y033909
X046355Y036449
X046355Y038989
X046355Y041529
X046355Y044069
X046355Y046609
X048895Y049149
X051435Y049149
X053975Y049149
X056515Y049149
X059055Y049149
X061595Y049149
X064135Y049149
X066675Y049149
X069215Y049149
X071755Y046609
X071755Y044069
X071755Y041529
X071755Y038989
X071755Y036449
X071755Y033909
X071755Y031369
X071755Y028829
X071755Y026289
X048895Y046609
X051435Y046609
X053975Y046609
X056515Y046609
X059055Y046609
X061595Y046609
X064135Y046609
X066675Y046609
X069215Y046609
X048895Y044069
X048895Y041529
X048895Y038989
X048895Y036449
X048895Y033909
X048895Y031369
X048895Y028829
X048895Y026289
X051435Y026289
X053975Y026289
X056515Y026289
X059055Y026289
X061595Y026289
X064135Y026289
X066675Y026289
X069215Y026289
X069215Y028829
X069215Y031369
X069215Y033909
X069215Y036449
X069215Y038989
X069215Y041529
X069215Y044069
T03
X094742Y034798
X094742Y037338
X094742Y039878
X094742Y042418
X094742Y044958
X094742Y047498
X094742Y050038
X094742Y052578
X094742Y055118
X094742Y032258
X102362Y032258
X102362Y034798
X102362Y037338
X102362Y039878
X102362Y042418
X102362Y044958
X102362Y047498
X102362Y050038
X102362Y052578
X102362Y055118
X094742Y005715
X094742Y008255
X094742Y010795
X094742Y013335
X094742Y015875
X094742Y018415
X094742Y020955
X094742Y023495
X094742Y026035
X094742Y003175
X102362Y003175
X102362Y005715
X102362Y008255
X102362Y010795
X102362Y013335
X102362Y015875
X102362Y018415
X102362Y020955
X102362Y023495
X102362Y026035
T04
X020447Y052559
X020447Y044939
X017907Y044911
X020447Y047479
X017907Y047451
X017907Y034751
X020447Y034779
X020447Y039859
X017907Y039831
X020447Y042399
X017907Y042371
X017907Y049991
X020447Y050019
X017907Y037291
X020447Y037319
X017879Y052559
X017879Y023476
X020447Y008236
X017907Y008208
X020447Y020936
X017907Y020908
X017907Y013288
X020447Y013316
X017907Y010748
X020447Y010776
X020447Y005696
X017907Y005668
X017907Y018368
X020447Y018396
X017907Y015828
X020447Y015856
X020447Y023476
X107414Y023476
X109982Y023476
X109982Y020936
X107414Y020936
X107414Y018396
X109982Y018396
X109982Y015856
X107414Y015856
X109982Y013316
X107414Y013316
X109982Y010776
X107414Y010776
X109982Y008236
X107414Y008236
X109982Y005696
X107414Y005696
X107414Y034779
X109982Y034779
X107414Y037319
X109982Y037319
X107414Y039859
X109982Y039859
X107414Y042399
X109982Y042399
X107414Y044939
X109982Y044939
X109982Y047479
X107414Y047479
X107414Y050019
X109982Y050019
X109982Y052559
X107414Y052559
X069088Y013208
X076708Y013208
X076736Y010668
X074168Y013208
X074196Y010668
X086896Y010668
X086868Y013208
X081788Y013208
X081816Y010668
X079248Y013208
X079276Y010668
X071656Y010668
X071628Y013208
X084356Y010668
X084328Y013208
X069088Y010640
X040005Y010640
X055245Y013208
X055273Y010668
X042545Y013208
X042573Y010668
X050193Y010668
X050165Y013208
X052733Y010668
X052705Y013208
X057785Y013208
X057813Y010668
X045113Y010668
X045085Y013208
X047653Y010668
X047625Y013208
X040005Y013208
X036392Y052559
X038961Y037319
X036421Y037291
X038961Y050019
X036421Y049991
X036421Y042371
X038961Y042399
X036421Y039831
X038961Y039859
X036421Y047451
X038961Y047479
X036421Y044911
X038961Y044939
X038961Y052559
X079127Y037319
X081695Y037319
X079127Y039859
X081695Y039859
X079127Y042399
X081695Y042399
X079127Y044939
X081695Y044939
X081695Y047479
X079127Y047479
X079127Y050019
X081695Y050019
X081695Y052559
X079127Y052559
T05
X125321Y010160
X122781Y010160
X122781Y012700
X125321Y012700
T06
X009561Y034779
X009561Y037319
X009561Y039859
X009561Y042399
X009561Y044939
X009561Y047479
X009561Y050019
X009561Y052559
X009561Y023476
X009561Y020936
X009561Y018396
X009561Y015856
X009561Y013316
X009561Y010776
X009561Y008236
X009561Y005696
X118300Y052559
X118300Y050019
X118300Y047479
X118300Y044939
X118300Y042399
X118300Y039859
X118300Y037319
X118300Y034779
X118300Y005696
X118300Y008236
X118300Y010776
X118300Y013316
X118300Y015856
X118300Y018396
X118300Y020936
X118300Y023476
X086868Y002322
X084328Y002322
X081788Y002322
X079248Y002322
X076708Y002322
X074168Y002322
X071628Y002322
X069088Y002322
X040005Y002322
X042545Y002322
X045085Y002322
X047625Y002322
X050165Y002322
X052705Y002322
X055245Y002322
X057785Y002322
X028075Y052559
X028075Y050019
X028075Y047479
X028075Y044939
X028075Y042399
X028075Y039859
X028075Y037319
X028075Y034779
X090013Y052559
X090013Y050019
X090013Y047479
X090013Y044939
X090013Y042399
X090013Y039859
X090013Y037319
X090013Y034779
T07
X003810Y054610
X124051Y054610
X124051Y003810
X003810Y003810
M30
