G04 Layer: TopSilkscreenLayer*
G04 Panelize: , Column: 2, Row: 2, Board Size: 127.89mm x 58.42mm, Panelized Board Size: 257.78mm x 118.84mm*
G04 EasyEDA v6.5.34, 2023-09-01 23:34:49*
G04 d2f9a346f3944a8da2a00f25f54837ea,5a6b42c53f6a479593ecc07194224c93,10*
G04 Gerber Generator version 0.2*
G04 Scale: 100 percent, Rotated: No, Reflected: No *
G04 Dimensions in millimeters *
G04 leading zeros omitted , absolute positions ,4 integer and 5 decimal *
%FSLAX45Y45*%
%MOMM*%

%ADD10C,0.1524*%
%ADD11C,0.1778*%
%ADD12C,0.2540*%
%ADD13C,0.2030*%
%ADD14C,0.2500*%
%ADD15C,0.0121*%

%LPD*%
G36*
X2484882Y3557778D02*
G01*
X2484882Y3470656D01*
X2432304Y3470656D01*
X2432304Y3462528D01*
X2546096Y3462528D01*
X2546096Y3470656D01*
X2493518Y3470656D01*
X2493518Y3557778D01*
G37*
G36*
X2451862Y3449065D02*
G01*
X2451862Y3440937D01*
X2526538Y3440937D01*
X2526538Y3449065D01*
G37*
G36*
X2469642Y3427222D02*
G01*
X2469642Y3419601D01*
X2508758Y3419601D01*
X2508758Y3427222D01*
G37*
D10*
X2158994Y629132D02*
G01*
X2158994Y514578D01*
X2158994Y629132D02*
G01*
X2197094Y629132D01*
X2213604Y623544D01*
X2224526Y612622D01*
X2229860Y601700D01*
X2235448Y585444D01*
X2235448Y558266D01*
X2229860Y541756D01*
X2224526Y530834D01*
X2213604Y519912D01*
X2197094Y514578D01*
X2158994Y514578D01*
X2271262Y607288D02*
G01*
X2282184Y612622D01*
X2298694Y629132D01*
X2298694Y514578D01*
X2400040Y629132D02*
G01*
X2345430Y629132D01*
X2340096Y580110D01*
X2345430Y585444D01*
X2361940Y591032D01*
X2378196Y591032D01*
X2394706Y585444D01*
X2405628Y574522D01*
X2410962Y558266D01*
X2410962Y547344D01*
X2405628Y530834D01*
X2394706Y519912D01*
X2378196Y514578D01*
X2361940Y514578D01*
X2345430Y519912D01*
X2340096Y525500D01*
X2334508Y536422D01*
X2158994Y1137130D02*
G01*
X2158994Y1022576D01*
X2158994Y1137130D02*
G01*
X2197094Y1137130D01*
X2213604Y1131542D01*
X2224526Y1120620D01*
X2229860Y1109698D01*
X2235448Y1093442D01*
X2235448Y1066264D01*
X2229860Y1049754D01*
X2224526Y1038832D01*
X2213604Y1027910D01*
X2197094Y1022576D01*
X2158994Y1022576D01*
X2271262Y1115286D02*
G01*
X2282184Y1120620D01*
X2298694Y1137130D01*
X2298694Y1022576D01*
X2345430Y1137130D02*
G01*
X2405628Y1137130D01*
X2372862Y1093442D01*
X2389118Y1093442D01*
X2400040Y1088108D01*
X2405628Y1082520D01*
X2410962Y1066264D01*
X2410962Y1055342D01*
X2405628Y1038832D01*
X2394706Y1027910D01*
X2378196Y1022576D01*
X2361940Y1022576D01*
X2345430Y1027910D01*
X2340096Y1033498D01*
X2334508Y1044420D01*
X2158994Y2407127D02*
G01*
X2158994Y2292573D01*
X2158994Y2407127D02*
G01*
X2197094Y2407127D01*
X2213604Y2401539D01*
X2224526Y2390617D01*
X2229860Y2379695D01*
X2235448Y2363439D01*
X2235448Y2336261D01*
X2229860Y2319751D01*
X2224526Y2308829D01*
X2213604Y2297907D01*
X2197094Y2292573D01*
X2158994Y2292573D01*
X2298694Y2407127D02*
G01*
X2282184Y2401539D01*
X2276850Y2390617D01*
X2276850Y2379695D01*
X2282184Y2369027D01*
X2293106Y2363439D01*
X2314950Y2358105D01*
X2331460Y2352517D01*
X2342382Y2341595D01*
X2347716Y2330673D01*
X2347716Y2314417D01*
X2342382Y2303495D01*
X2336794Y2297907D01*
X2320538Y2292573D01*
X2298694Y2292573D01*
X2282184Y2297907D01*
X2276850Y2303495D01*
X2271262Y2314417D01*
X2271262Y2330673D01*
X2276850Y2341595D01*
X2287772Y2352517D01*
X2304028Y2358105D01*
X2325872Y2363439D01*
X2336794Y2369027D01*
X2342382Y2379695D01*
X2342382Y2390617D01*
X2336794Y2401539D01*
X2320538Y2407127D01*
X2298694Y2407127D01*
X2158994Y1391130D02*
G01*
X2158994Y1276576D01*
X2158994Y1391130D02*
G01*
X2197094Y1391130D01*
X2213604Y1385542D01*
X2224526Y1374620D01*
X2229860Y1363698D01*
X2235448Y1347442D01*
X2235448Y1320264D01*
X2229860Y1303754D01*
X2224526Y1292832D01*
X2213604Y1281910D01*
X2197094Y1276576D01*
X2158994Y1276576D01*
X2271262Y1369286D02*
G01*
X2282184Y1374620D01*
X2298694Y1391130D01*
X2298694Y1276576D01*
X2340096Y1363698D02*
G01*
X2340096Y1369286D01*
X2345430Y1380208D01*
X2351018Y1385542D01*
X2361940Y1391130D01*
X2383784Y1391130D01*
X2394706Y1385542D01*
X2400040Y1380208D01*
X2405628Y1369286D01*
X2405628Y1358364D01*
X2400040Y1347442D01*
X2389118Y1331186D01*
X2334508Y1276576D01*
X2410962Y1276576D01*
X2158994Y1645130D02*
G01*
X2158994Y1530576D01*
X2158994Y1645130D02*
G01*
X2197094Y1645130D01*
X2213604Y1639542D01*
X2224526Y1628620D01*
X2229860Y1617698D01*
X2235448Y1601442D01*
X2235448Y1574264D01*
X2229860Y1557754D01*
X2224526Y1546832D01*
X2213604Y1535910D01*
X2197094Y1530576D01*
X2158994Y1530576D01*
X2271262Y1623286D02*
G01*
X2282184Y1628620D01*
X2298694Y1645130D01*
X2298694Y1530576D01*
X2334508Y1623286D02*
G01*
X2345430Y1628620D01*
X2361940Y1645130D01*
X2361940Y1530576D01*
X2158994Y1899130D02*
G01*
X2158994Y1784576D01*
X2158994Y1899130D02*
G01*
X2197094Y1899130D01*
X2213604Y1893542D01*
X2224526Y1882620D01*
X2229860Y1871698D01*
X2235448Y1855442D01*
X2235448Y1828264D01*
X2229860Y1811754D01*
X2224526Y1800832D01*
X2213604Y1789910D01*
X2197094Y1784576D01*
X2158994Y1784576D01*
X2271262Y1877286D02*
G01*
X2282184Y1882620D01*
X2298694Y1899130D01*
X2298694Y1784576D01*
X2367274Y1899130D02*
G01*
X2351018Y1893542D01*
X2340096Y1877286D01*
X2334508Y1850108D01*
X2334508Y1833598D01*
X2340096Y1806420D01*
X2351018Y1789910D01*
X2367274Y1784576D01*
X2378196Y1784576D01*
X2394706Y1789910D01*
X2405628Y1806420D01*
X2410962Y1833598D01*
X2410962Y1850108D01*
X2405628Y1877286D01*
X2394706Y1893542D01*
X2378196Y1899130D01*
X2367274Y1899130D01*
X2158994Y2153127D02*
G01*
X2158994Y2038573D01*
X2158994Y2153127D02*
G01*
X2197094Y2153127D01*
X2213604Y2147539D01*
X2224526Y2136617D01*
X2229860Y2125695D01*
X2235448Y2109439D01*
X2235448Y2082261D01*
X2229860Y2065751D01*
X2224526Y2054829D01*
X2213604Y2043907D01*
X2197094Y2038573D01*
X2158994Y2038573D01*
X2342382Y2115027D02*
G01*
X2336794Y2098517D01*
X2325872Y2087595D01*
X2309616Y2082261D01*
X2304028Y2082261D01*
X2287772Y2087595D01*
X2276850Y2098517D01*
X2271262Y2115027D01*
X2271262Y2120361D01*
X2276850Y2136617D01*
X2287772Y2147539D01*
X2304028Y2153127D01*
X2309616Y2153127D01*
X2325872Y2147539D01*
X2336794Y2136617D01*
X2342382Y2115027D01*
X2342382Y2087595D01*
X2336794Y2060417D01*
X2325872Y2043907D01*
X2309616Y2038573D01*
X2298694Y2038573D01*
X2282184Y2043907D01*
X2276850Y2054829D01*
X2158994Y883130D02*
G01*
X2158994Y768576D01*
X2158994Y883130D02*
G01*
X2197094Y883130D01*
X2213604Y877542D01*
X2224526Y866620D01*
X2229860Y855698D01*
X2235448Y839442D01*
X2235448Y812264D01*
X2229860Y795754D01*
X2224526Y784832D01*
X2213604Y773910D01*
X2197094Y768576D01*
X2158994Y768576D01*
X2271262Y861286D02*
G01*
X2282184Y866620D01*
X2298694Y883130D01*
X2298694Y768576D01*
X2389118Y883130D02*
G01*
X2334508Y806676D01*
X2416550Y806676D01*
X2389118Y883130D02*
G01*
X2389118Y768576D01*
X2158994Y3791424D02*
G01*
X2158994Y3676870D01*
X2158994Y3791424D02*
G01*
X2197094Y3791424D01*
X2213604Y3785836D01*
X2224526Y3774914D01*
X2229860Y3763992D01*
X2235448Y3747736D01*
X2235448Y3720558D01*
X2229860Y3704048D01*
X2224526Y3693126D01*
X2213604Y3682204D01*
X2197094Y3676870D01*
X2158994Y3676870D01*
X2336794Y3774914D02*
G01*
X2331460Y3785836D01*
X2314950Y3791424D01*
X2304028Y3791424D01*
X2287772Y3785836D01*
X2276850Y3769580D01*
X2271262Y3742402D01*
X2271262Y3714970D01*
X2276850Y3693126D01*
X2287772Y3682204D01*
X2304028Y3676870D01*
X2309616Y3676870D01*
X2325872Y3682204D01*
X2336794Y3693126D01*
X2342382Y3709636D01*
X2342382Y3714970D01*
X2336794Y3731480D01*
X2325872Y3742402D01*
X2309616Y3747736D01*
X2304028Y3747736D01*
X2287772Y3742402D01*
X2276850Y3731480D01*
X2271262Y3714970D01*
X2158994Y5061422D02*
G01*
X2158994Y4946868D01*
X2158994Y5061422D02*
G01*
X2197094Y5061422D01*
X2213604Y5055834D01*
X2224526Y5044912D01*
X2229860Y5033990D01*
X2235448Y5017734D01*
X2235448Y4990556D01*
X2229860Y4974046D01*
X2224526Y4963124D01*
X2213604Y4952202D01*
X2197094Y4946868D01*
X2158994Y4946868D01*
X2271262Y5039578D02*
G01*
X2282184Y5044912D01*
X2298694Y5061422D01*
X2298694Y4946868D01*
X2158994Y4807422D02*
G01*
X2158994Y4692868D01*
X2158994Y4807422D02*
G01*
X2197094Y4807422D01*
X2213604Y4801834D01*
X2224526Y4790912D01*
X2229860Y4779990D01*
X2235448Y4763734D01*
X2235448Y4736556D01*
X2229860Y4720046D01*
X2224526Y4709124D01*
X2213604Y4698202D01*
X2197094Y4692868D01*
X2158994Y4692868D01*
X2276850Y4779990D02*
G01*
X2276850Y4785578D01*
X2282184Y4796500D01*
X2287772Y4801834D01*
X2298694Y4807422D01*
X2320538Y4807422D01*
X2331460Y4801834D01*
X2336794Y4796500D01*
X2342382Y4785578D01*
X2342382Y4774656D01*
X2336794Y4763734D01*
X2325872Y4747478D01*
X2271262Y4692868D01*
X2347716Y4692868D01*
X2158994Y4553424D02*
G01*
X2158994Y4438870D01*
X2158994Y4553424D02*
G01*
X2197094Y4553424D01*
X2213604Y4547836D01*
X2224526Y4536914D01*
X2229860Y4525992D01*
X2235448Y4509736D01*
X2235448Y4482558D01*
X2229860Y4466048D01*
X2224526Y4455126D01*
X2213604Y4444204D01*
X2197094Y4438870D01*
X2158994Y4438870D01*
X2282184Y4553424D02*
G01*
X2342382Y4553424D01*
X2309616Y4509736D01*
X2325872Y4509736D01*
X2336794Y4504402D01*
X2342382Y4498814D01*
X2347716Y4482558D01*
X2347716Y4471636D01*
X2342382Y4455126D01*
X2331460Y4444204D01*
X2314950Y4438870D01*
X2298694Y4438870D01*
X2282184Y4444204D01*
X2276850Y4449792D01*
X2271262Y4460714D01*
X2158994Y4299424D02*
G01*
X2158994Y4184870D01*
X2158994Y4299424D02*
G01*
X2197094Y4299424D01*
X2213604Y4293836D01*
X2224526Y4282914D01*
X2229860Y4271992D01*
X2235448Y4255736D01*
X2235448Y4228558D01*
X2229860Y4212048D01*
X2224526Y4201126D01*
X2213604Y4190204D01*
X2197094Y4184870D01*
X2158994Y4184870D01*
X2325872Y4299424D02*
G01*
X2271262Y4222970D01*
X2353050Y4222970D01*
X2325872Y4299424D02*
G01*
X2325872Y4184870D01*
X2158994Y5315422D02*
G01*
X2158994Y5200868D01*
X2158994Y5315422D02*
G01*
X2197094Y5315422D01*
X2213604Y5309834D01*
X2224526Y5298912D01*
X2229860Y5287990D01*
X2235448Y5271734D01*
X2235448Y5244556D01*
X2229860Y5228046D01*
X2224526Y5217124D01*
X2213604Y5206202D01*
X2197094Y5200868D01*
X2158994Y5200868D01*
X2304028Y5315422D02*
G01*
X2287772Y5309834D01*
X2276850Y5293578D01*
X2271262Y5266400D01*
X2271262Y5249890D01*
X2276850Y5222712D01*
X2287772Y5206202D01*
X2304028Y5200868D01*
X2314950Y5200868D01*
X2331460Y5206202D01*
X2342382Y5222712D01*
X2347716Y5249890D01*
X2347716Y5266400D01*
X2342382Y5293578D01*
X2331460Y5309834D01*
X2314950Y5315422D01*
X2304028Y5315422D01*
X2158994Y4045424D02*
G01*
X2158994Y3930870D01*
X2158994Y4045424D02*
G01*
X2197094Y4045424D01*
X2213604Y4039836D01*
X2224526Y4028914D01*
X2229860Y4017992D01*
X2235448Y4001736D01*
X2235448Y3974558D01*
X2229860Y3958048D01*
X2224526Y3947126D01*
X2213604Y3936204D01*
X2197094Y3930870D01*
X2158994Y3930870D01*
X2336794Y4045424D02*
G01*
X2282184Y4045424D01*
X2276850Y3996402D01*
X2282184Y4001736D01*
X2298694Y4007324D01*
X2314950Y4007324D01*
X2331460Y4001736D01*
X2342382Y3990814D01*
X2347716Y3974558D01*
X2347716Y3963636D01*
X2342382Y3947126D01*
X2331460Y3936204D01*
X2314950Y3930870D01*
X2298694Y3930870D01*
X2282184Y3936204D01*
X2276850Y3941792D01*
X2271262Y3952714D01*
X2158994Y3537424D02*
G01*
X2158994Y3422870D01*
X2158994Y3537424D02*
G01*
X2197094Y3537424D01*
X2213604Y3531836D01*
X2224526Y3520914D01*
X2229860Y3509992D01*
X2235448Y3493736D01*
X2235448Y3466558D01*
X2229860Y3450048D01*
X2224526Y3439126D01*
X2213604Y3428204D01*
X2197094Y3422870D01*
X2158994Y3422870D01*
X2347716Y3537424D02*
G01*
X2293106Y3422870D01*
X2271262Y3537424D02*
G01*
X2347716Y3537424D01*
X1803430Y5498457D02*
G01*
X1803430Y5402953D01*
X1803430Y5498457D02*
G01*
X1835180Y5498457D01*
X1848896Y5493885D01*
X1858037Y5484741D01*
X1862612Y5475597D01*
X1866930Y5462135D01*
X1866930Y5439275D01*
X1862612Y5425559D01*
X1858037Y5416669D01*
X1848896Y5407525D01*
X1835180Y5402953D01*
X1803430Y5402953D01*
X1960653Y5484741D02*
G01*
X1951512Y5493885D01*
X1938047Y5498457D01*
X1919762Y5498457D01*
X1906046Y5493885D01*
X1897153Y5484741D01*
X1897153Y5475597D01*
X1901471Y5466707D01*
X1906046Y5462135D01*
X1915187Y5457563D01*
X1942622Y5448419D01*
X1951512Y5443847D01*
X1956081Y5439275D01*
X1960653Y5430131D01*
X1960653Y5416669D01*
X1951512Y5407525D01*
X1938047Y5402953D01*
X1919762Y5402953D01*
X1906046Y5407525D01*
X1897153Y5416669D01*
X1990628Y5480169D02*
G01*
X1999772Y5484741D01*
X2013488Y5498457D01*
X2013488Y5402953D01*
X1790705Y2590147D02*
G01*
X1790705Y2494643D01*
X1790705Y2590147D02*
G01*
X1822455Y2590147D01*
X1836171Y2585575D01*
X1845312Y2576431D01*
X1849887Y2567287D01*
X1854456Y2553825D01*
X1854456Y2530965D01*
X1849887Y2517249D01*
X1845312Y2508359D01*
X1836171Y2499215D01*
X1822455Y2494643D01*
X1790705Y2494643D01*
X1947928Y2576431D02*
G01*
X1938787Y2585575D01*
X1925322Y2590147D01*
X1907037Y2590147D01*
X1893321Y2585575D01*
X1884428Y2576431D01*
X1884428Y2567287D01*
X1889003Y2558397D01*
X1893321Y2553825D01*
X1902462Y2549253D01*
X1929897Y2540109D01*
X1938787Y2535537D01*
X1943356Y2530965D01*
X1947928Y2521821D01*
X1947928Y2508359D01*
X1938787Y2499215D01*
X1925322Y2494643D01*
X1907037Y2494643D01*
X1893321Y2499215D01*
X1884428Y2508359D01*
X1982472Y2567287D02*
G01*
X1982472Y2571859D01*
X1987047Y2581003D01*
X1991619Y2585575D01*
X2000763Y2590147D01*
X2018797Y2590147D01*
X2027938Y2585575D01*
X2032513Y2581003D01*
X2037085Y2571859D01*
X2037085Y2562715D01*
X2032513Y2553825D01*
X2023369Y2540109D01*
X1977903Y2494643D01*
X2041654Y2494643D01*
X613158Y531119D02*
G01*
X685805Y572013D01*
X613158Y613161D01*
X583189Y531119D02*
G01*
X510291Y572013D01*
X583189Y613161D01*
X1721873Y2856750D02*
G01*
X1721873Y2784106D01*
X1717299Y2770390D01*
X1712729Y2765818D01*
X1703583Y2761246D01*
X1694695Y2761246D01*
X1685549Y2765818D01*
X1680979Y2770390D01*
X1676407Y2784106D01*
X1676407Y2793250D01*
X1760989Y2856750D02*
G01*
X1811025Y2856750D01*
X1783595Y2820428D01*
X1797309Y2820428D01*
X1806455Y2815856D01*
X1811025Y2811284D01*
X1815599Y2797822D01*
X1815599Y2788678D01*
X1811025Y2774962D01*
X1801881Y2765818D01*
X1788165Y2761246D01*
X1774705Y2761246D01*
X1760989Y2765818D01*
X1756415Y2770390D01*
X1751845Y2779534D01*
X1721873Y5752350D02*
G01*
X1721873Y5679706D01*
X1717299Y5665990D01*
X1712729Y5661418D01*
X1703583Y5656846D01*
X1694695Y5656846D01*
X1685549Y5661418D01*
X1680979Y5665990D01*
X1676407Y5679706D01*
X1676407Y5688850D01*
X1756415Y5729744D02*
G01*
X1756415Y5734316D01*
X1760989Y5743206D01*
X1765559Y5747778D01*
X1774705Y5752350D01*
X1792739Y5752350D01*
X1801881Y5747778D01*
X1806455Y5743206D01*
X1811025Y5734316D01*
X1811025Y5725172D01*
X1806455Y5716028D01*
X1797309Y5702312D01*
X1751845Y5656846D01*
X1815599Y5656846D01*
X613158Y785119D02*
G01*
X685805Y826013D01*
X613158Y867161D01*
X583189Y785119D02*
G01*
X510291Y826013D01*
X583189Y867161D01*
X613158Y1039119D02*
G01*
X685805Y1080013D01*
X613158Y1121161D01*
X583189Y1039119D02*
G01*
X510291Y1080013D01*
X583189Y1121161D01*
X613158Y1293119D02*
G01*
X685805Y1334013D01*
X613158Y1375161D01*
X583189Y1293119D02*
G01*
X510291Y1334013D01*
X583189Y1375161D01*
X613158Y1547119D02*
G01*
X685805Y1588013D01*
X613158Y1629161D01*
X583189Y1547119D02*
G01*
X510291Y1588013D01*
X583189Y1629161D01*
X613158Y1801119D02*
G01*
X685805Y1842013D01*
X613158Y1883161D01*
X583189Y1801119D02*
G01*
X510291Y1842013D01*
X583189Y1883161D01*
X613158Y2055119D02*
G01*
X685805Y2096013D01*
X613158Y2137161D01*
X583189Y2055119D02*
G01*
X510291Y2096013D01*
X583189Y2137161D01*
X613158Y2309119D02*
G01*
X685805Y2350013D01*
X613158Y2391161D01*
X583189Y2309119D02*
G01*
X510291Y2350013D01*
X583189Y2391161D01*
X613135Y3439419D02*
G01*
X685777Y3480313D01*
X613135Y3521461D01*
X583161Y3439419D02*
G01*
X510263Y3480313D01*
X583161Y3521461D01*
X613135Y3693419D02*
G01*
X685777Y3734313D01*
X613135Y3775461D01*
X583161Y3693419D02*
G01*
X510263Y3734313D01*
X583161Y3775461D01*
X613135Y3947419D02*
G01*
X685777Y3988313D01*
X613135Y4029461D01*
X583161Y3947419D02*
G01*
X510263Y3988313D01*
X583161Y4029461D01*
X613135Y4201419D02*
G01*
X685777Y4242313D01*
X613135Y4283461D01*
X583161Y4201419D02*
G01*
X510263Y4242313D01*
X583161Y4283461D01*
X613135Y4455419D02*
G01*
X685777Y4496313D01*
X613135Y4537461D01*
X583161Y4455419D02*
G01*
X510263Y4496313D01*
X583161Y4537461D01*
X613135Y4709419D02*
G01*
X685777Y4750313D01*
X613135Y4791461D01*
X583161Y4709419D02*
G01*
X510263Y4750313D01*
X583161Y4791461D01*
X613135Y4963419D02*
G01*
X685777Y5004313D01*
X613135Y5045461D01*
X583161Y4963419D02*
G01*
X510263Y5004313D01*
X583161Y5045461D01*
X613135Y5217419D02*
G01*
X685777Y5258313D01*
X613135Y5299461D01*
X583161Y5217419D02*
G01*
X510263Y5258313D01*
X583161Y5299461D01*
X10470393Y2407025D02*
G01*
X10426705Y2292471D01*
X10470393Y2407025D02*
G01*
X10513827Y2292471D01*
X10442961Y2330825D02*
G01*
X10497571Y2330825D01*
X10577327Y2407025D02*
G01*
X10560817Y2401691D01*
X10555483Y2390769D01*
X10555483Y2379847D01*
X10560817Y2368925D01*
X10571739Y2363337D01*
X10593583Y2358003D01*
X10609839Y2352415D01*
X10620761Y2341747D01*
X10626349Y2330825D01*
X10626349Y2314315D01*
X10620761Y2303393D01*
X10615427Y2298059D01*
X10598917Y2292471D01*
X10577327Y2292471D01*
X10560817Y2298059D01*
X10555483Y2303393D01*
X10549895Y2314315D01*
X10549895Y2330825D01*
X10555483Y2341747D01*
X10566405Y2352415D01*
X10582661Y2358003D01*
X10604505Y2363337D01*
X10615427Y2368925D01*
X10620761Y2379847D01*
X10620761Y2390769D01*
X10615427Y2401691D01*
X10598917Y2407025D01*
X10577327Y2407025D01*
X10470393Y2153025D02*
G01*
X10426705Y2038471D01*
X10470393Y2153025D02*
G01*
X10513827Y2038471D01*
X10442961Y2076825D02*
G01*
X10497571Y2076825D01*
X10620761Y2114925D02*
G01*
X10615427Y2098415D01*
X10604505Y2087747D01*
X10588249Y2082159D01*
X10582661Y2082159D01*
X10566405Y2087747D01*
X10555483Y2098415D01*
X10549895Y2114925D01*
X10549895Y2120259D01*
X10555483Y2136769D01*
X10566405Y2147691D01*
X10582661Y2153025D01*
X10588249Y2153025D01*
X10604505Y2147691D01*
X10615427Y2136769D01*
X10620761Y2114925D01*
X10620761Y2087747D01*
X10615427Y2060315D01*
X10604505Y2044059D01*
X10588249Y2038471D01*
X10577327Y2038471D01*
X10560817Y2044059D01*
X10555483Y2054981D01*
X10406893Y1899028D02*
G01*
X10363205Y1784474D01*
X10406893Y1899028D02*
G01*
X10450327Y1784474D01*
X10379461Y1822828D02*
G01*
X10434071Y1822828D01*
X10486395Y1877184D02*
G01*
X10497317Y1882772D01*
X10513827Y1899028D01*
X10513827Y1784474D01*
X10582407Y1899028D02*
G01*
X10566151Y1893694D01*
X10555229Y1877184D01*
X10549641Y1850006D01*
X10549641Y1833750D01*
X10555229Y1806318D01*
X10566151Y1790062D01*
X10582407Y1784474D01*
X10593329Y1784474D01*
X10609839Y1790062D01*
X10620507Y1806318D01*
X10626095Y1833750D01*
X10626095Y1850006D01*
X10620507Y1877184D01*
X10609839Y1893694D01*
X10593329Y1899028D01*
X10582407Y1899028D01*
X10406893Y1645028D02*
G01*
X10363205Y1530474D01*
X10406893Y1645028D02*
G01*
X10450327Y1530474D01*
X10379461Y1568828D02*
G01*
X10434071Y1568828D01*
X10486395Y1623184D02*
G01*
X10497317Y1628772D01*
X10513827Y1645028D01*
X10513827Y1530474D01*
X10549641Y1623184D02*
G01*
X10560563Y1628772D01*
X10577073Y1645028D01*
X10577073Y1530474D01*
X10406893Y1391028D02*
G01*
X10363205Y1276474D01*
X10406893Y1391028D02*
G01*
X10450327Y1276474D01*
X10379461Y1314828D02*
G01*
X10434071Y1314828D01*
X10486395Y1369184D02*
G01*
X10497317Y1374772D01*
X10513827Y1391028D01*
X10513827Y1276474D01*
X10555229Y1363850D02*
G01*
X10555229Y1369184D01*
X10560563Y1380106D01*
X10566151Y1385694D01*
X10577073Y1391028D01*
X10598917Y1391028D01*
X10609839Y1385694D01*
X10615173Y1380106D01*
X10620507Y1369184D01*
X10620507Y1358262D01*
X10615173Y1347340D01*
X10604251Y1331084D01*
X10549641Y1276474D01*
X10626095Y1276474D01*
X10406893Y1137028D02*
G01*
X10363205Y1022474D01*
X10406893Y1137028D02*
G01*
X10450327Y1022474D01*
X10379461Y1060828D02*
G01*
X10434071Y1060828D01*
X10486395Y1115184D02*
G01*
X10497317Y1120772D01*
X10513827Y1137028D01*
X10513827Y1022474D01*
X10560563Y1137028D02*
G01*
X10620507Y1137028D01*
X10587995Y1093340D01*
X10604251Y1093340D01*
X10615173Y1088006D01*
X10620507Y1082418D01*
X10626095Y1066162D01*
X10626095Y1055240D01*
X10620507Y1038984D01*
X10609839Y1028062D01*
X10593329Y1022474D01*
X10577073Y1022474D01*
X10560563Y1028062D01*
X10555229Y1033396D01*
X10549641Y1044318D01*
X10406893Y883028D02*
G01*
X10363205Y768474D01*
X10406893Y883028D02*
G01*
X10450327Y768474D01*
X10379461Y806828D02*
G01*
X10434071Y806828D01*
X10486395Y861184D02*
G01*
X10497317Y866772D01*
X10513827Y883028D01*
X10513827Y768474D01*
X10604251Y883028D02*
G01*
X10549641Y806828D01*
X10631429Y806828D01*
X10604251Y883028D02*
G01*
X10604251Y768474D01*
X10406893Y629030D02*
G01*
X10363205Y514477D01*
X10406893Y629030D02*
G01*
X10450327Y514477D01*
X10379461Y552830D02*
G01*
X10434071Y552830D01*
X10486395Y607187D02*
G01*
X10497317Y612775D01*
X10513827Y629030D01*
X10513827Y514477D01*
X10615173Y629030D02*
G01*
X10560563Y629030D01*
X10555229Y580009D01*
X10560563Y585343D01*
X10577073Y590930D01*
X10593329Y590930D01*
X10609839Y585343D01*
X10620507Y574420D01*
X10626095Y558164D01*
X10626095Y547243D01*
X10620507Y530987D01*
X10609839Y520064D01*
X10593329Y514477D01*
X10577073Y514477D01*
X10560563Y520064D01*
X10555229Y525398D01*
X10549641Y536320D01*
X10470393Y3537323D02*
G01*
X10426705Y3422769D01*
X10470393Y3537323D02*
G01*
X10513827Y3422769D01*
X10442961Y3461123D02*
G01*
X10497571Y3461123D01*
X10626349Y3537323D02*
G01*
X10571739Y3422769D01*
X10549895Y3537323D02*
G01*
X10626349Y3537323D01*
X10470393Y3791323D02*
G01*
X10426705Y3676769D01*
X10470393Y3791323D02*
G01*
X10513827Y3676769D01*
X10442961Y3715123D02*
G01*
X10497571Y3715123D01*
X10615427Y3775067D02*
G01*
X10609839Y3785989D01*
X10593583Y3791323D01*
X10582661Y3791323D01*
X10566405Y3785989D01*
X10555483Y3769479D01*
X10549895Y3742301D01*
X10549895Y3715123D01*
X10555483Y3693279D01*
X10566405Y3682357D01*
X10582661Y3676769D01*
X10588249Y3676769D01*
X10604505Y3682357D01*
X10615427Y3693279D01*
X10620761Y3709535D01*
X10620761Y3715123D01*
X10615427Y3731379D01*
X10604505Y3742301D01*
X10588249Y3747635D01*
X10582661Y3747635D01*
X10566405Y3742301D01*
X10555483Y3731379D01*
X10549895Y3715123D01*
X10470393Y4045323D02*
G01*
X10426705Y3930769D01*
X10470393Y4045323D02*
G01*
X10513827Y3930769D01*
X10442961Y3969123D02*
G01*
X10497571Y3969123D01*
X10615427Y4045323D02*
G01*
X10560817Y4045323D01*
X10555483Y3996301D01*
X10560817Y4001635D01*
X10577327Y4007223D01*
X10593583Y4007223D01*
X10609839Y4001635D01*
X10620761Y3990713D01*
X10626349Y3974457D01*
X10626349Y3963535D01*
X10620761Y3947279D01*
X10609839Y3936357D01*
X10593583Y3930769D01*
X10577327Y3930769D01*
X10560817Y3936357D01*
X10555483Y3941691D01*
X10549895Y3952613D01*
X10470393Y4299323D02*
G01*
X10426705Y4184769D01*
X10470393Y4299323D02*
G01*
X10513827Y4184769D01*
X10442961Y4223123D02*
G01*
X10497571Y4223123D01*
X10604505Y4299323D02*
G01*
X10549895Y4223123D01*
X10631683Y4223123D01*
X10604505Y4299323D02*
G01*
X10604505Y4184769D01*
X10470393Y4553323D02*
G01*
X10426705Y4438769D01*
X10470393Y4553323D02*
G01*
X10513827Y4438769D01*
X10442961Y4477123D02*
G01*
X10497571Y4477123D01*
X10560817Y4553323D02*
G01*
X10620761Y4553323D01*
X10588249Y4509635D01*
X10604505Y4509635D01*
X10615427Y4504301D01*
X10620761Y4498713D01*
X10626349Y4482457D01*
X10626349Y4471535D01*
X10620761Y4455279D01*
X10609839Y4444357D01*
X10593583Y4438769D01*
X10577327Y4438769D01*
X10560817Y4444357D01*
X10555483Y4449691D01*
X10549895Y4460613D01*
X10470393Y4807320D02*
G01*
X10426705Y4692766D01*
X10470393Y4807320D02*
G01*
X10513827Y4692766D01*
X10442961Y4731120D02*
G01*
X10497571Y4731120D01*
X10555483Y4780142D02*
G01*
X10555483Y4785476D01*
X10560817Y4796398D01*
X10566405Y4801986D01*
X10577327Y4807320D01*
X10598917Y4807320D01*
X10609839Y4801986D01*
X10615427Y4796398D01*
X10620761Y4785476D01*
X10620761Y4774554D01*
X10615427Y4763632D01*
X10604505Y4747376D01*
X10549895Y4692766D01*
X10626349Y4692766D01*
X10470393Y5061320D02*
G01*
X10426705Y4946766D01*
X10470393Y5061320D02*
G01*
X10513827Y4946766D01*
X10442961Y4985120D02*
G01*
X10497571Y4985120D01*
X10549895Y5039476D02*
G01*
X10560817Y5045064D01*
X10577327Y5061320D01*
X10577327Y4946766D01*
X10470393Y5315346D02*
G01*
X10426705Y5200792D01*
X10470393Y5315346D02*
G01*
X10513827Y5200792D01*
X10442961Y5238892D02*
G01*
X10497571Y5238892D01*
X10582661Y5315346D02*
G01*
X10566405Y5310012D01*
X10555483Y5293502D01*
X10549895Y5266324D01*
X10549895Y5249814D01*
X10555483Y5222636D01*
X10566405Y5206380D01*
X10582661Y5200792D01*
X10593583Y5200792D01*
X10609839Y5206380D01*
X10620761Y5222636D01*
X10626349Y5249814D01*
X10626349Y5266324D01*
X10620761Y5293502D01*
X10609839Y5310012D01*
X10593583Y5315346D01*
X10582661Y5315346D01*
X11002772Y2856737D02*
G01*
X11002772Y2784094D01*
X10998200Y2770378D01*
X10993627Y2765805D01*
X10984484Y2761234D01*
X10975593Y2761234D01*
X10966450Y2765805D01*
X10961877Y2770378D01*
X10957306Y2784094D01*
X10957306Y2793237D01*
X11096497Y2856737D02*
G01*
X11051031Y2761234D01*
X11032743Y2856737D02*
G01*
X11096497Y2856737D01*
X11028172Y5752337D02*
G01*
X11028172Y5679694D01*
X11023600Y5665978D01*
X11019027Y5661405D01*
X11009884Y5656834D01*
X11000993Y5656834D01*
X10991850Y5661405D01*
X10987277Y5665978D01*
X10982706Y5679694D01*
X10982706Y5688837D01*
X11112754Y5738876D02*
G01*
X11108181Y5747765D01*
X11094465Y5752337D01*
X11085322Y5752337D01*
X11071859Y5747765D01*
X11062715Y5734304D01*
X11058143Y5711444D01*
X11058143Y5688837D01*
X11062715Y5670550D01*
X11071859Y5661405D01*
X11085322Y5656834D01*
X11089893Y5656834D01*
X11103609Y5661405D01*
X11112754Y5670550D01*
X11117325Y5684265D01*
X11117325Y5688837D01*
X11112754Y5702300D01*
X11103609Y5711444D01*
X11089893Y5716015D01*
X11085322Y5716015D01*
X11071859Y5711444D01*
X11062715Y5702300D01*
X11058143Y5688837D01*
X12100306Y5294376D02*
G01*
X12172950Y5253481D01*
X12100306Y5212334D01*
X12580340Y837435D02*
G01*
X12580340Y764791D01*
X12575768Y751075D01*
X12571196Y746503D01*
X12562052Y741931D01*
X12553162Y741931D01*
X12544018Y746503D01*
X12539446Y751075D01*
X12534874Y764791D01*
X12534874Y773935D01*
X12610312Y819401D02*
G01*
X12619456Y823973D01*
X12633172Y837435D01*
X12633172Y741931D01*
X10744205Y5498327D02*
G01*
X10744205Y5402823D01*
X10744205Y5498327D02*
G01*
X10775955Y5498327D01*
X10789671Y5493755D01*
X10798815Y5484865D01*
X10803387Y5475721D01*
X10807705Y5462005D01*
X10807705Y5439399D01*
X10803387Y5425683D01*
X10798815Y5416539D01*
X10789671Y5407395D01*
X10775955Y5402823D01*
X10744205Y5402823D01*
X10901431Y5484865D02*
G01*
X10892287Y5493755D01*
X10878825Y5498327D01*
X10860537Y5498327D01*
X10846821Y5493755D01*
X10837931Y5484865D01*
X10837931Y5475721D01*
X10842249Y5466577D01*
X10846821Y5462005D01*
X10855965Y5457433D01*
X10883397Y5448289D01*
X10892287Y5443971D01*
X10896859Y5439399D01*
X10901431Y5430255D01*
X10901431Y5416539D01*
X10892287Y5407395D01*
X10878825Y5402823D01*
X10860537Y5402823D01*
X10846821Y5407395D01*
X10837931Y5416539D01*
X10986013Y5498327D02*
G01*
X10940547Y5498327D01*
X10935975Y5457433D01*
X10940547Y5462005D01*
X10954263Y5466577D01*
X10967725Y5466577D01*
X10981441Y5462005D01*
X10990585Y5452861D01*
X10995157Y5439399D01*
X10995157Y5430255D01*
X10990585Y5416539D01*
X10981441Y5407395D01*
X10967725Y5402823D01*
X10954263Y5402823D01*
X10940547Y5407395D01*
X10935975Y5411967D01*
X10931403Y5421111D01*
X10744205Y2590032D02*
G01*
X10744205Y2494528D01*
X10744205Y2590032D02*
G01*
X10775955Y2590032D01*
X10789671Y2585460D01*
X10798815Y2576570D01*
X10803387Y2567426D01*
X10807705Y2553710D01*
X10807705Y2531104D01*
X10803387Y2517388D01*
X10798815Y2508244D01*
X10789671Y2499100D01*
X10775955Y2494528D01*
X10744205Y2494528D01*
X10901431Y2576570D02*
G01*
X10892287Y2585460D01*
X10878825Y2590032D01*
X10860537Y2590032D01*
X10846821Y2585460D01*
X10837931Y2576570D01*
X10837931Y2567426D01*
X10842249Y2558282D01*
X10846821Y2553710D01*
X10855965Y2549138D01*
X10883397Y2539994D01*
X10892287Y2535676D01*
X10896859Y2531104D01*
X10901431Y2521960D01*
X10901431Y2508244D01*
X10892287Y2499100D01*
X10878825Y2494528D01*
X10860537Y2494528D01*
X10846821Y2499100D01*
X10837931Y2508244D01*
X10986013Y2576570D02*
G01*
X10981441Y2585460D01*
X10967725Y2590032D01*
X10958835Y2590032D01*
X10945119Y2585460D01*
X10935975Y2571998D01*
X10931403Y2549138D01*
X10931403Y2526532D01*
X10935975Y2508244D01*
X10945119Y2499100D01*
X10958835Y2494528D01*
X10963153Y2494528D01*
X10976869Y2499100D01*
X10986013Y2508244D01*
X10990585Y2521960D01*
X10990585Y2526532D01*
X10986013Y2539994D01*
X10976869Y2549138D01*
X10963153Y2553710D01*
X10958835Y2553710D01*
X10945119Y2549138D01*
X10935975Y2539994D01*
X10931403Y2526532D01*
X4913111Y5627105D02*
G01*
X4913111Y5518139D01*
X4876789Y5627105D02*
G01*
X4949433Y5627105D01*
X5020299Y5627105D02*
G01*
X5020299Y5518139D01*
X4983723Y5627105D02*
G01*
X5056621Y5627105D01*
X5132313Y5627105D02*
G01*
X5090911Y5518139D01*
X5132313Y5627105D02*
G01*
X5173969Y5518139D01*
X5106405Y5554461D02*
G01*
X5158475Y5554461D01*
X5208259Y5627105D02*
G01*
X5208259Y5518139D01*
X5208259Y5627105D02*
G01*
X5249915Y5518139D01*
X5291317Y5627105D02*
G01*
X5249915Y5518139D01*
X5291317Y5627105D02*
G01*
X5291317Y5518139D01*
X5405617Y5627105D02*
G01*
X5405617Y5518139D01*
X5405617Y5627105D02*
G01*
X5452353Y5627105D01*
X5468101Y5622025D01*
X5473181Y5616691D01*
X5478515Y5606277D01*
X5478515Y5590783D01*
X5473181Y5580369D01*
X5468101Y5575289D01*
X5452353Y5569955D01*
X5405617Y5569955D01*
X5512805Y5627105D02*
G01*
X5512805Y5518139D01*
X5512805Y5627105D02*
G01*
X5559541Y5627105D01*
X5575035Y5622025D01*
X5580369Y5616691D01*
X5585449Y5606277D01*
X5585449Y5595863D01*
X5580369Y5585449D01*
X5575035Y5580369D01*
X5559541Y5575289D01*
X5512805Y5575289D01*
X5549127Y5575289D02*
G01*
X5585449Y5518139D01*
X5650981Y5627105D02*
G01*
X5640567Y5622025D01*
X5630153Y5611611D01*
X5624819Y5601197D01*
X5619739Y5585449D01*
X5619739Y5559541D01*
X5624819Y5544047D01*
X5630153Y5533633D01*
X5640567Y5523219D01*
X5650981Y5518139D01*
X5671809Y5518139D01*
X5681969Y5523219D01*
X5692383Y5533633D01*
X5697717Y5544047D01*
X5702797Y5559541D01*
X5702797Y5585449D01*
X5697717Y5601197D01*
X5692383Y5611611D01*
X5681969Y5622025D01*
X5671809Y5627105D01*
X5650981Y5627105D01*
X5815065Y5601197D02*
G01*
X5809985Y5611611D01*
X5799571Y5622025D01*
X5789157Y5627105D01*
X5768329Y5627105D01*
X5757915Y5622025D01*
X5747501Y5611611D01*
X5742421Y5601197D01*
X5737087Y5585449D01*
X5737087Y5559541D01*
X5742421Y5544047D01*
X5747501Y5533633D01*
X5757915Y5523219D01*
X5768329Y5518139D01*
X5789157Y5518139D01*
X5799571Y5523219D01*
X5809985Y5533633D01*
X5815065Y5544047D01*
X5815065Y5559541D01*
X5789157Y5559541D02*
G01*
X5815065Y5559541D01*
X5849355Y5627105D02*
G01*
X5849355Y5518139D01*
X5849355Y5627105D02*
G01*
X5896091Y5627105D01*
X5911839Y5622025D01*
X5916919Y5616691D01*
X5921999Y5606277D01*
X5921999Y5595863D01*
X5916919Y5585449D01*
X5911839Y5580369D01*
X5896091Y5575289D01*
X5849355Y5575289D01*
X5885677Y5575289D02*
G01*
X5921999Y5518139D01*
X5997945Y5627105D02*
G01*
X5956289Y5518139D01*
X5997945Y5627105D02*
G01*
X6039601Y5518139D01*
X5972037Y5554461D02*
G01*
X6023853Y5554461D01*
X6073891Y5627105D02*
G01*
X6073891Y5518139D01*
X6073891Y5627105D02*
G01*
X6115293Y5518139D01*
X6156949Y5627105D02*
G01*
X6115293Y5518139D01*
X6156949Y5627105D02*
G01*
X6156949Y5518139D01*
X6271249Y5627105D02*
G01*
X6271249Y5518139D01*
X6271249Y5627105D02*
G01*
X6312905Y5518139D01*
X6354307Y5627105D02*
G01*
X6312905Y5518139D01*
X6354307Y5627105D02*
G01*
X6354307Y5518139D01*
X6388597Y5627105D02*
G01*
X6388597Y5518139D01*
X6388597Y5627105D02*
G01*
X6456161Y5627105D01*
X6388597Y5575289D02*
G01*
X6430253Y5575289D01*
X6388597Y5518139D02*
G01*
X6456161Y5518139D01*
X6490451Y5627105D02*
G01*
X6490451Y5518139D01*
X6490451Y5627105D02*
G01*
X6532107Y5518139D01*
X6573509Y5627105D02*
G01*
X6532107Y5518139D01*
X6573509Y5627105D02*
G01*
X6573509Y5518139D01*
X6639041Y5627105D02*
G01*
X6628627Y5622025D01*
X6618213Y5611611D01*
X6613133Y5601197D01*
X6607799Y5585449D01*
X6607799Y5559541D01*
X6613133Y5544047D01*
X6618213Y5533633D01*
X6628627Y5523219D01*
X6639041Y5518139D01*
X6659869Y5518139D01*
X6670283Y5523219D01*
X6680697Y5533633D01*
X6685777Y5544047D01*
X6691111Y5559541D01*
X6691111Y5585449D01*
X6685777Y5601197D01*
X6680697Y5611611D01*
X6670283Y5622025D01*
X6659869Y5627105D01*
X6639041Y5627105D01*
X6725401Y5627105D02*
G01*
X6725401Y5518139D01*
X6725401Y5627105D02*
G01*
X6772137Y5627105D01*
X6787631Y5622025D01*
X6792965Y5616691D01*
X6798045Y5606277D01*
X6798045Y5595863D01*
X6792965Y5585449D01*
X6787631Y5580369D01*
X6772137Y5575289D01*
X6725401Y5575289D01*
X6761723Y5575289D02*
G01*
X6798045Y5518139D01*
X6832335Y5627105D02*
G01*
X6873991Y5575289D01*
X6873991Y5518139D01*
X6915393Y5627105D02*
G01*
X6873991Y5575289D01*
X4673589Y5449305D02*
G01*
X4673589Y5340339D01*
X4673589Y5449305D02*
G01*
X4720325Y5449305D01*
X4735819Y5444225D01*
X4741153Y5438891D01*
X4746233Y5428477D01*
X4746233Y5412983D01*
X4741153Y5402569D01*
X4735819Y5397489D01*
X4720325Y5392155D01*
X4673589Y5392155D01*
X4822179Y5449305D02*
G01*
X4780523Y5340339D01*
X4822179Y5449305D02*
G01*
X4863835Y5340339D01*
X4796271Y5376661D02*
G01*
X4848087Y5376661D01*
X4898125Y5449305D02*
G01*
X4898125Y5340339D01*
X4898125Y5449305D02*
G01*
X4944861Y5449305D01*
X4960355Y5444225D01*
X4965689Y5438891D01*
X4970769Y5428477D01*
X4970769Y5418063D01*
X4965689Y5407649D01*
X4960355Y5402569D01*
X4944861Y5397489D01*
X4898125Y5397489D01*
X4934447Y5397489D02*
G01*
X4970769Y5340339D01*
X5041381Y5449305D02*
G01*
X5041381Y5340339D01*
X5005059Y5449305D02*
G01*
X5077703Y5449305D01*
X5192003Y5449305D02*
G01*
X5192003Y5340339D01*
X5192003Y5449305D02*
G01*
X5264901Y5340339D01*
X5264901Y5449305D02*
G01*
X5264901Y5340339D01*
X5299191Y5449305D02*
G01*
X5299191Y5371327D01*
X5304271Y5355833D01*
X5314685Y5345419D01*
X5330179Y5340339D01*
X5340593Y5340339D01*
X5356341Y5345419D01*
X5366755Y5355833D01*
X5371835Y5371327D01*
X5371835Y5449305D01*
X5406125Y5449305D02*
G01*
X5406125Y5340339D01*
X5406125Y5449305D02*
G01*
X5447781Y5340339D01*
X5489183Y5449305D02*
G01*
X5447781Y5340339D01*
X5489183Y5449305D02*
G01*
X5489183Y5340339D01*
X5523473Y5449305D02*
G01*
X5523473Y5340339D01*
X5523473Y5449305D02*
G01*
X5570209Y5449305D01*
X5585957Y5444225D01*
X5591037Y5438891D01*
X5596371Y5428477D01*
X5596371Y5418063D01*
X5591037Y5407649D01*
X5585957Y5402569D01*
X5570209Y5397489D01*
X5523473Y5397489D02*
G01*
X5570209Y5397489D01*
X5585957Y5392155D01*
X5591037Y5387075D01*
X5596371Y5376661D01*
X5596371Y5360913D01*
X5591037Y5350499D01*
X5585957Y5345419D01*
X5570209Y5340339D01*
X5523473Y5340339D01*
X5630661Y5449305D02*
G01*
X5630661Y5340339D01*
X5630661Y5449305D02*
G01*
X5698225Y5449305D01*
X5630661Y5397489D02*
G01*
X5672063Y5397489D01*
X5630661Y5340339D02*
G01*
X5698225Y5340339D01*
X5732515Y5449305D02*
G01*
X5732515Y5340339D01*
X5732515Y5449305D02*
G01*
X5779251Y5449305D01*
X5794745Y5444225D01*
X5800079Y5438891D01*
X5805159Y5428477D01*
X5805159Y5418063D01*
X5800079Y5407649D01*
X5794745Y5402569D01*
X5779251Y5397489D01*
X5732515Y5397489D01*
X5768837Y5397489D02*
G01*
X5805159Y5340339D01*
X5919459Y5428477D02*
G01*
X5929873Y5433811D01*
X5945367Y5449305D01*
X5945367Y5340339D01*
X6010899Y5449305D02*
G01*
X5995405Y5444225D01*
X5984991Y5428477D01*
X5979657Y5402569D01*
X5979657Y5387075D01*
X5984991Y5360913D01*
X5995405Y5345419D01*
X6010899Y5340339D01*
X6021313Y5340339D01*
X6036807Y5345419D01*
X6047221Y5360913D01*
X6052555Y5387075D01*
X6052555Y5402569D01*
X6047221Y5428477D01*
X6036807Y5444225D01*
X6021313Y5449305D01*
X6010899Y5449305D01*
X6159489Y5449305D02*
G01*
X6107419Y5340339D01*
X6086845Y5449305D02*
G01*
X6159489Y5449305D01*
X6193779Y5428477D02*
G01*
X6204193Y5433811D01*
X6219687Y5449305D01*
X6219687Y5340339D01*
X6253977Y5387075D02*
G01*
X6347449Y5387075D01*
X6412981Y5449305D02*
G01*
X6397487Y5444225D01*
X6387073Y5428477D01*
X6381739Y5402569D01*
X6381739Y5387075D01*
X6387073Y5360913D01*
X6397487Y5345419D01*
X6412981Y5340339D01*
X6423395Y5340339D01*
X6438889Y5345419D01*
X6449303Y5360913D01*
X6454637Y5387075D01*
X6454637Y5402569D01*
X6449303Y5428477D01*
X6438889Y5444225D01*
X6423395Y5449305D01*
X6412981Y5449305D01*
X6488927Y5428477D02*
G01*
X6499341Y5433811D01*
X6514835Y5449305D01*
X6514835Y5340339D01*
X6580367Y5449305D02*
G01*
X6564619Y5444225D01*
X6554459Y5428477D01*
X6549125Y5402569D01*
X6549125Y5387075D01*
X6554459Y5360913D01*
X6564619Y5345419D01*
X6580367Y5340339D01*
X6590781Y5340339D01*
X6606275Y5345419D01*
X6616689Y5360913D01*
X6621769Y5387075D01*
X6621769Y5402569D01*
X6616689Y5428477D01*
X6606275Y5444225D01*
X6590781Y5449305D01*
X6580367Y5449305D01*
X6656059Y5428477D02*
G01*
X6666473Y5433811D01*
X6682221Y5449305D01*
X6682221Y5340339D01*
X6796521Y5449305D02*
G01*
X6837923Y5340339D01*
X6879579Y5449305D02*
G01*
X6837923Y5340339D01*
X6945111Y5449305D02*
G01*
X6929363Y5444225D01*
X6918949Y5428477D01*
X6913869Y5402569D01*
X6913869Y5387075D01*
X6918949Y5360913D01*
X6929363Y5345419D01*
X6945111Y5340339D01*
X6955525Y5340339D01*
X6971019Y5345419D01*
X6981433Y5360913D01*
X6986513Y5387075D01*
X6986513Y5402569D01*
X6981433Y5428477D01*
X6971019Y5444225D01*
X6955525Y5449305D01*
X6945111Y5449305D01*
X7026137Y5366247D02*
G01*
X7020803Y5360913D01*
X7026137Y5355833D01*
X7031217Y5360913D01*
X7026137Y5366247D01*
X7075921Y5449305D02*
G01*
X7133071Y5449305D01*
X7101829Y5407649D01*
X7117577Y5407649D01*
X7127991Y5402569D01*
X7133071Y5397489D01*
X7138405Y5381741D01*
X7138405Y5371327D01*
X7133071Y5355833D01*
X7122657Y5345419D01*
X7107163Y5340339D01*
X7091669Y5340339D01*
X7075921Y5345419D01*
X7070841Y5350499D01*
X7065507Y5360913D01*
X6179487Y1029840D02*
G01*
X6179487Y957196D01*
X6174915Y943480D01*
X6170343Y938908D01*
X6161199Y934336D01*
X6152309Y934336D01*
X6143165Y938908D01*
X6138593Y943480D01*
X6134021Y957196D01*
X6134021Y966340D01*
X6232319Y1029840D02*
G01*
X6218603Y1025268D01*
X6214031Y1016378D01*
X6214031Y1007234D01*
X6218603Y998090D01*
X6227747Y993518D01*
X6245781Y988946D01*
X6259497Y984374D01*
X6268641Y975484D01*
X6273213Y966340D01*
X6273213Y952624D01*
X6268641Y943480D01*
X6264069Y938908D01*
X6250353Y934336D01*
X6232319Y934336D01*
X6218603Y938908D01*
X6214031Y943480D01*
X6209459Y952624D01*
X6209459Y966340D01*
X6214031Y975484D01*
X6223175Y984374D01*
X6236637Y988946D01*
X6254925Y993518D01*
X6264069Y998090D01*
X6268641Y1007234D01*
X6268641Y1016378D01*
X6264069Y1025268D01*
X6250353Y1029840D01*
X6232319Y1029840D01*
X9087794Y1029840D02*
G01*
X9087794Y957196D01*
X9083222Y943480D01*
X9078650Y938908D01*
X9069506Y934336D01*
X9060616Y934336D01*
X9051472Y938908D01*
X9046900Y943480D01*
X9042328Y957196D01*
X9042328Y966340D01*
X9176948Y998090D02*
G01*
X9172376Y984374D01*
X9163232Y975484D01*
X9149516Y970912D01*
X9144944Y970912D01*
X9131482Y975484D01*
X9122338Y984374D01*
X9117766Y998090D01*
X9117766Y1002662D01*
X9122338Y1016378D01*
X9131482Y1025268D01*
X9144944Y1029840D01*
X9149516Y1029840D01*
X9163232Y1025268D01*
X9172376Y1016378D01*
X9176948Y998090D01*
X9176948Y975484D01*
X9172376Y952624D01*
X9163232Y938908D01*
X9149516Y934336D01*
X9140372Y934336D01*
X9126910Y938908D01*
X9122338Y948052D01*
X8826500Y1243837D02*
G01*
X8826500Y1148334D01*
X8826500Y1243837D02*
G01*
X8858250Y1243837D01*
X8871965Y1239265D01*
X8881109Y1230376D01*
X8885681Y1221231D01*
X8890000Y1207515D01*
X8890000Y1184910D01*
X8885681Y1171194D01*
X8881109Y1162050D01*
X8871965Y1152905D01*
X8858250Y1148334D01*
X8826500Y1148334D01*
X8983725Y1230376D02*
G01*
X8974581Y1239265D01*
X8961120Y1243837D01*
X8942831Y1243837D01*
X8929115Y1239265D01*
X8920225Y1230376D01*
X8920225Y1221231D01*
X8924543Y1212087D01*
X8929115Y1207515D01*
X8938259Y1202944D01*
X8965691Y1193800D01*
X8974581Y1189481D01*
X8979154Y1184910D01*
X8983725Y1175765D01*
X8983725Y1162050D01*
X8974581Y1152905D01*
X8961120Y1148334D01*
X8942831Y1148334D01*
X8929115Y1152905D01*
X8920225Y1162050D01*
X9036558Y1243837D02*
G01*
X9022841Y1239265D01*
X9018270Y1230376D01*
X9018270Y1221231D01*
X9022841Y1212087D01*
X9031986Y1207515D01*
X9050020Y1202944D01*
X9063736Y1198371D01*
X9072879Y1189481D01*
X9077452Y1180337D01*
X9077452Y1166621D01*
X9072879Y1157478D01*
X9068308Y1152905D01*
X9054591Y1148334D01*
X9036558Y1148334D01*
X9022841Y1152905D01*
X9018270Y1157478D01*
X9013697Y1166621D01*
X9013697Y1180337D01*
X9018270Y1189481D01*
X9027413Y1198371D01*
X9041129Y1202944D01*
X9059163Y1207515D01*
X9068308Y1212087D01*
X9072879Y1221231D01*
X9072879Y1230376D01*
X9068308Y1239265D01*
X9054591Y1243837D01*
X9036558Y1243837D01*
X3619500Y1243837D02*
G01*
X3619500Y1148334D01*
X3619500Y1243837D02*
G01*
X3651250Y1243837D01*
X3664965Y1239265D01*
X3674109Y1230376D01*
X3678681Y1221231D01*
X3683254Y1207515D01*
X3683254Y1184910D01*
X3678681Y1171194D01*
X3674109Y1162050D01*
X3664965Y1152905D01*
X3651250Y1148334D01*
X3619500Y1148334D01*
X3776725Y1230376D02*
G01*
X3767581Y1239265D01*
X3754120Y1243837D01*
X3735831Y1243837D01*
X3722115Y1239265D01*
X3713225Y1230376D01*
X3713225Y1221231D01*
X3717797Y1212087D01*
X3722115Y1207515D01*
X3731259Y1202944D01*
X3758691Y1193800D01*
X3767581Y1189481D01*
X3772154Y1184910D01*
X3776725Y1175765D01*
X3776725Y1162050D01*
X3767581Y1152905D01*
X3754120Y1148334D01*
X3735831Y1148334D01*
X3722115Y1152905D01*
X3713225Y1162050D01*
X3870452Y1243837D02*
G01*
X3824986Y1148334D01*
X3806697Y1243837D02*
G01*
X3870452Y1243837D01*
X5731662Y1460652D02*
G01*
X5846216Y1460652D01*
X5731662Y1460652D02*
G01*
X5731662Y1509674D01*
X5737250Y1525930D01*
X5742584Y1531518D01*
X5753506Y1536852D01*
X5764428Y1536852D01*
X5775350Y1531518D01*
X5780684Y1525930D01*
X5786272Y1509674D01*
X5786272Y1460652D02*
G01*
X5786272Y1509674D01*
X5791606Y1525930D01*
X5797194Y1531518D01*
X5808116Y1536852D01*
X5824372Y1536852D01*
X5835294Y1531518D01*
X5840882Y1525930D01*
X5846216Y1509674D01*
X5846216Y1460652D01*
X5759094Y1578254D02*
G01*
X5753506Y1578254D01*
X5742584Y1583842D01*
X5737250Y1589176D01*
X5731662Y1600098D01*
X5731662Y1621942D01*
X5737250Y1632864D01*
X5742584Y1638452D01*
X5753506Y1643786D01*
X5764428Y1643786D01*
X5775350Y1638452D01*
X5791606Y1627530D01*
X5846216Y1572920D01*
X5846216Y1649374D01*
X5223662Y1460652D02*
G01*
X5338216Y1460652D01*
X5223662Y1460652D02*
G01*
X5223662Y1509674D01*
X5229250Y1525930D01*
X5234584Y1531518D01*
X5245506Y1536852D01*
X5256428Y1536852D01*
X5267350Y1531518D01*
X5272684Y1525930D01*
X5278272Y1509674D01*
X5278272Y1460652D02*
G01*
X5278272Y1509674D01*
X5283606Y1525930D01*
X5289194Y1531518D01*
X5300116Y1536852D01*
X5316372Y1536852D01*
X5327294Y1531518D01*
X5332882Y1525930D01*
X5338216Y1509674D01*
X5338216Y1460652D01*
X5223662Y1605686D02*
G01*
X5229250Y1589176D01*
X5245506Y1578254D01*
X5272684Y1572920D01*
X5289194Y1572920D01*
X5316372Y1578254D01*
X5332882Y1589176D01*
X5338216Y1605686D01*
X5338216Y1616608D01*
X5332882Y1632864D01*
X5316372Y1643786D01*
X5289194Y1649374D01*
X5272684Y1649374D01*
X5245506Y1643786D01*
X5229250Y1632864D01*
X5223662Y1616608D01*
X5223662Y1605686D01*
X3955541Y1491487D02*
G01*
X4070095Y1447800D01*
X3955541Y1491487D02*
G01*
X4070095Y1535176D01*
X4031995Y1464055D02*
G01*
X4031995Y1518665D01*
X3955541Y1603755D02*
G01*
X3961129Y1587500D01*
X3977386Y1576578D01*
X4004818Y1570989D01*
X4021074Y1570989D01*
X4048252Y1576578D01*
X4064761Y1587500D01*
X4070095Y1603755D01*
X4070095Y1614678D01*
X4064761Y1631187D01*
X4048252Y1641855D01*
X4021074Y1647444D01*
X4004818Y1647444D01*
X3977386Y1641855D01*
X3961129Y1631187D01*
X3955541Y1614678D01*
X3955541Y1603755D01*
X4969662Y1504086D02*
G01*
X5084216Y1460652D01*
X4969662Y1504086D02*
G01*
X5084216Y1547774D01*
X5046116Y1476908D02*
G01*
X5046116Y1531518D01*
X4969662Y1638452D02*
G01*
X5046116Y1583842D01*
X5046116Y1665630D01*
X4969662Y1638452D02*
G01*
X5084216Y1638452D01*
X4715662Y1504086D02*
G01*
X4830216Y1460652D01*
X4715662Y1504086D02*
G01*
X4830216Y1547774D01*
X4792116Y1476908D02*
G01*
X4792116Y1531518D01*
X4715662Y1594764D02*
G01*
X4715662Y1654708D01*
X4759350Y1621942D01*
X4759350Y1638452D01*
X4764684Y1649374D01*
X4770272Y1654708D01*
X4786528Y1660042D01*
X4797450Y1660042D01*
X4813960Y1654708D01*
X4824882Y1643786D01*
X4830216Y1627530D01*
X4830216Y1611020D01*
X4824882Y1594764D01*
X4819294Y1589176D01*
X4808372Y1583842D01*
X4461662Y1504086D02*
G01*
X4576216Y1460652D01*
X4461662Y1504086D02*
G01*
X4576216Y1547774D01*
X4538116Y1476908D02*
G01*
X4538116Y1531518D01*
X4489094Y1589176D02*
G01*
X4483506Y1589176D01*
X4472584Y1594764D01*
X4467250Y1600098D01*
X4461662Y1611020D01*
X4461662Y1632864D01*
X4467250Y1643786D01*
X4472584Y1649374D01*
X4483506Y1654708D01*
X4494428Y1654708D01*
X4505350Y1649374D01*
X4521606Y1638452D01*
X4576216Y1583842D01*
X4576216Y1660042D01*
X4207662Y1504086D02*
G01*
X4322216Y1460652D01*
X4207662Y1504086D02*
G01*
X4322216Y1547774D01*
X4284116Y1476908D02*
G01*
X4284116Y1531518D01*
X4229506Y1583842D02*
G01*
X4224172Y1594764D01*
X4207662Y1611020D01*
X4322216Y1611020D01*
X5477662Y1460652D02*
G01*
X5592216Y1460652D01*
X5477662Y1460652D02*
G01*
X5477662Y1509674D01*
X5483250Y1525930D01*
X5488584Y1531518D01*
X5499506Y1536852D01*
X5510428Y1536852D01*
X5521350Y1531518D01*
X5526684Y1525930D01*
X5532272Y1509674D01*
X5532272Y1460652D02*
G01*
X5532272Y1509674D01*
X5537606Y1525930D01*
X5543194Y1531518D01*
X5554116Y1536852D01*
X5570372Y1536852D01*
X5581294Y1531518D01*
X5586882Y1525930D01*
X5592216Y1509674D01*
X5592216Y1460652D01*
X5499506Y1572920D02*
G01*
X5494172Y1583842D01*
X5477662Y1600098D01*
X5592216Y1600098D01*
X8373262Y1460652D02*
G01*
X8487816Y1460652D01*
X8373262Y1460652D02*
G01*
X8373262Y1509674D01*
X8378850Y1525930D01*
X8384184Y1531518D01*
X8395106Y1536852D01*
X8411362Y1536852D01*
X8422284Y1531518D01*
X8427872Y1525930D01*
X8433206Y1509674D01*
X8433206Y1460652D01*
X8400694Y1654708D02*
G01*
X8389772Y1649374D01*
X8378850Y1638452D01*
X8373262Y1627530D01*
X8373262Y1605686D01*
X8378850Y1594764D01*
X8389772Y1583842D01*
X8400694Y1578254D01*
X8416950Y1572920D01*
X8444128Y1572920D01*
X8460638Y1578254D01*
X8471560Y1583842D01*
X8482482Y1594764D01*
X8487816Y1605686D01*
X8487816Y1627530D01*
X8482482Y1638452D01*
X8471560Y1649374D01*
X8460638Y1654708D01*
X8389772Y1756054D02*
G01*
X8378850Y1750720D01*
X8373262Y1734464D01*
X8373262Y1723542D01*
X8378850Y1707032D01*
X8395106Y1696110D01*
X8422284Y1690776D01*
X8449716Y1690776D01*
X8471560Y1696110D01*
X8482482Y1707032D01*
X8487816Y1723542D01*
X8487816Y1728876D01*
X8482482Y1745132D01*
X8471560Y1756054D01*
X8455050Y1761642D01*
X8449716Y1761642D01*
X8433206Y1756054D01*
X8422284Y1745132D01*
X8416950Y1728876D01*
X8416950Y1723542D01*
X8422284Y1707032D01*
X8433206Y1696110D01*
X8449716Y1690776D01*
X7103262Y1460652D02*
G01*
X7217816Y1460652D01*
X7103262Y1460652D02*
G01*
X7103262Y1509674D01*
X7108850Y1525930D01*
X7114184Y1531518D01*
X7125106Y1536852D01*
X7141362Y1536852D01*
X7152284Y1531518D01*
X7157872Y1525930D01*
X7163206Y1509674D01*
X7163206Y1460652D01*
X7130694Y1654708D02*
G01*
X7119772Y1649374D01*
X7108850Y1638452D01*
X7103262Y1627530D01*
X7103262Y1605686D01*
X7108850Y1594764D01*
X7119772Y1583842D01*
X7130694Y1578254D01*
X7146950Y1572920D01*
X7174128Y1572920D01*
X7190638Y1578254D01*
X7201560Y1583842D01*
X7212482Y1594764D01*
X7217816Y1605686D01*
X7217816Y1627530D01*
X7212482Y1638452D01*
X7201560Y1649374D01*
X7190638Y1654708D01*
X7125106Y1690776D02*
G01*
X7119772Y1701698D01*
X7103262Y1717954D01*
X7217816Y1717954D01*
X7357262Y1460652D02*
G01*
X7471816Y1460652D01*
X7357262Y1460652D02*
G01*
X7357262Y1509674D01*
X7362850Y1525930D01*
X7368184Y1531518D01*
X7379106Y1536852D01*
X7395362Y1536852D01*
X7406284Y1531518D01*
X7411872Y1525930D01*
X7417206Y1509674D01*
X7417206Y1460652D01*
X7384694Y1654708D02*
G01*
X7373772Y1649374D01*
X7362850Y1638452D01*
X7357262Y1627530D01*
X7357262Y1605686D01*
X7362850Y1594764D01*
X7373772Y1583842D01*
X7384694Y1578254D01*
X7400950Y1572920D01*
X7428128Y1572920D01*
X7444638Y1578254D01*
X7455560Y1583842D01*
X7466482Y1594764D01*
X7471816Y1605686D01*
X7471816Y1627530D01*
X7466482Y1638452D01*
X7455560Y1649374D01*
X7444638Y1654708D01*
X7384694Y1696110D02*
G01*
X7379106Y1696110D01*
X7368184Y1701698D01*
X7362850Y1707032D01*
X7357262Y1717954D01*
X7357262Y1739798D01*
X7362850Y1750720D01*
X7368184Y1756054D01*
X7379106Y1761642D01*
X7390028Y1761642D01*
X7400950Y1756054D01*
X7417206Y1745132D01*
X7471816Y1690776D01*
X7471816Y1766976D01*
X7611262Y1460652D02*
G01*
X7725816Y1460652D01*
X7611262Y1460652D02*
G01*
X7611262Y1509674D01*
X7616850Y1525930D01*
X7622184Y1531518D01*
X7633106Y1536852D01*
X7649362Y1536852D01*
X7660284Y1531518D01*
X7665872Y1525930D01*
X7671206Y1509674D01*
X7671206Y1460652D01*
X7638694Y1654708D02*
G01*
X7627772Y1649374D01*
X7616850Y1638452D01*
X7611262Y1627530D01*
X7611262Y1605686D01*
X7616850Y1594764D01*
X7627772Y1583842D01*
X7638694Y1578254D01*
X7654950Y1572920D01*
X7682128Y1572920D01*
X7698638Y1578254D01*
X7709560Y1583842D01*
X7720482Y1594764D01*
X7725816Y1605686D01*
X7725816Y1627530D01*
X7720482Y1638452D01*
X7709560Y1649374D01*
X7698638Y1654708D01*
X7611262Y1701698D02*
G01*
X7611262Y1761642D01*
X7654950Y1728876D01*
X7654950Y1745132D01*
X7660284Y1756054D01*
X7665872Y1761642D01*
X7682128Y1766976D01*
X7693050Y1766976D01*
X7709560Y1761642D01*
X7720482Y1750720D01*
X7725816Y1734464D01*
X7725816Y1717954D01*
X7720482Y1701698D01*
X7714894Y1696110D01*
X7703972Y1690776D01*
X7865262Y1460652D02*
G01*
X7979816Y1460652D01*
X7865262Y1460652D02*
G01*
X7865262Y1509674D01*
X7870850Y1525930D01*
X7876184Y1531518D01*
X7887106Y1536852D01*
X7903362Y1536852D01*
X7914284Y1531518D01*
X7919872Y1525930D01*
X7925206Y1509674D01*
X7925206Y1460652D01*
X7892694Y1654708D02*
G01*
X7881772Y1649374D01*
X7870850Y1638452D01*
X7865262Y1627530D01*
X7865262Y1605686D01*
X7870850Y1594764D01*
X7881772Y1583842D01*
X7892694Y1578254D01*
X7908950Y1572920D01*
X7936128Y1572920D01*
X7952638Y1578254D01*
X7963560Y1583842D01*
X7974482Y1594764D01*
X7979816Y1605686D01*
X7979816Y1627530D01*
X7974482Y1638452D01*
X7963560Y1649374D01*
X7952638Y1654708D01*
X7865262Y1745132D02*
G01*
X7941716Y1690776D01*
X7941716Y1772564D01*
X7865262Y1745132D02*
G01*
X7979816Y1745132D01*
X6849262Y1460652D02*
G01*
X6963816Y1460652D01*
X6849262Y1460652D02*
G01*
X6849262Y1509674D01*
X6854850Y1525930D01*
X6860184Y1531518D01*
X6871106Y1536852D01*
X6887362Y1536852D01*
X6898284Y1531518D01*
X6903872Y1525930D01*
X6909206Y1509674D01*
X6909206Y1460652D01*
X6876694Y1654708D02*
G01*
X6865772Y1649374D01*
X6854850Y1638452D01*
X6849262Y1627530D01*
X6849262Y1605686D01*
X6854850Y1594764D01*
X6865772Y1583842D01*
X6876694Y1578254D01*
X6892950Y1572920D01*
X6920128Y1572920D01*
X6936638Y1578254D01*
X6947560Y1583842D01*
X6958482Y1594764D01*
X6963816Y1605686D01*
X6963816Y1627530D01*
X6958482Y1638452D01*
X6947560Y1649374D01*
X6936638Y1654708D01*
X6849262Y1723542D02*
G01*
X6854850Y1707032D01*
X6871106Y1696110D01*
X6898284Y1690776D01*
X6914794Y1690776D01*
X6941972Y1696110D01*
X6958482Y1707032D01*
X6963816Y1723542D01*
X6963816Y1734464D01*
X6958482Y1750720D01*
X6941972Y1761642D01*
X6914794Y1766976D01*
X6898284Y1766976D01*
X6871106Y1761642D01*
X6854850Y1750720D01*
X6849262Y1734464D01*
X6849262Y1723542D01*
X8119262Y1460652D02*
G01*
X8233816Y1460652D01*
X8119262Y1460652D02*
G01*
X8119262Y1509674D01*
X8124850Y1525930D01*
X8130184Y1531518D01*
X8141106Y1536852D01*
X8157362Y1536852D01*
X8168284Y1531518D01*
X8173872Y1525930D01*
X8179206Y1509674D01*
X8179206Y1460652D01*
X8146694Y1654708D02*
G01*
X8135772Y1649374D01*
X8124850Y1638452D01*
X8119262Y1627530D01*
X8119262Y1605686D01*
X8124850Y1594764D01*
X8135772Y1583842D01*
X8146694Y1578254D01*
X8162950Y1572920D01*
X8190128Y1572920D01*
X8206638Y1578254D01*
X8217560Y1583842D01*
X8228482Y1594764D01*
X8233816Y1605686D01*
X8233816Y1627530D01*
X8228482Y1638452D01*
X8217560Y1649374D01*
X8206638Y1654708D01*
X8119262Y1756054D02*
G01*
X8119262Y1701698D01*
X8168284Y1696110D01*
X8162950Y1701698D01*
X8157362Y1717954D01*
X8157362Y1734464D01*
X8162950Y1750720D01*
X8173872Y1761642D01*
X8190128Y1766976D01*
X8201050Y1766976D01*
X8217560Y1761642D01*
X8228482Y1750720D01*
X8233816Y1734464D01*
X8233816Y1717954D01*
X8228482Y1701698D01*
X8222894Y1696110D01*
X8211972Y1690776D01*
X8627262Y1460652D02*
G01*
X8741816Y1460652D01*
X8627262Y1460652D02*
G01*
X8627262Y1509674D01*
X8632850Y1525930D01*
X8638184Y1531518D01*
X8649106Y1536852D01*
X8665362Y1536852D01*
X8676284Y1531518D01*
X8681872Y1525930D01*
X8687206Y1509674D01*
X8687206Y1460652D01*
X8654694Y1654708D02*
G01*
X8643772Y1649374D01*
X8632850Y1638452D01*
X8627262Y1627530D01*
X8627262Y1605686D01*
X8632850Y1594764D01*
X8643772Y1583842D01*
X8654694Y1578254D01*
X8670950Y1572920D01*
X8698128Y1572920D01*
X8714638Y1578254D01*
X8725560Y1583842D01*
X8736482Y1594764D01*
X8741816Y1605686D01*
X8741816Y1627530D01*
X8736482Y1638452D01*
X8725560Y1649374D01*
X8714638Y1654708D01*
X8627262Y1766976D02*
G01*
X8741816Y1712620D01*
X8627262Y1690776D02*
G01*
X8627262Y1766976D01*
X2464501Y5217429D02*
G01*
X2537145Y5258323D01*
X2464501Y5299471D01*
X4117583Y3751341D02*
G01*
X4112249Y3762263D01*
X4101327Y3773185D01*
X4090405Y3778773D01*
X4068561Y3778773D01*
X4057639Y3773185D01*
X4046717Y3762263D01*
X4041129Y3751341D01*
X4035795Y3735085D01*
X4035795Y3707907D01*
X4041129Y3691397D01*
X4046717Y3680475D01*
X4057639Y3669553D01*
X4068561Y3664219D01*
X4090405Y3664219D01*
X4101327Y3669553D01*
X4112249Y3680475D01*
X4117583Y3691397D01*
X4153651Y3778773D02*
G01*
X4153651Y3664219D01*
X4153651Y3778773D02*
G01*
X4224517Y3778773D01*
X4153651Y3724163D02*
G01*
X4197339Y3724163D01*
X4153651Y3664219D02*
G01*
X4224517Y3664219D01*
X4035795Y5048773D02*
G01*
X4035795Y4934219D01*
X4035795Y5048773D02*
G01*
X4084817Y5048773D01*
X4101327Y5043185D01*
X4106661Y5037851D01*
X4112249Y5026929D01*
X4112249Y5016007D01*
X4106661Y5005085D01*
X4101327Y4999497D01*
X4084817Y4994163D01*
X4035795Y4994163D02*
G01*
X4084817Y4994163D01*
X4101327Y4988829D01*
X4106661Y4983241D01*
X4112249Y4972319D01*
X4112249Y4956063D01*
X4106661Y4945141D01*
X4101327Y4939553D01*
X4084817Y4934219D01*
X4035795Y4934219D01*
X4202673Y5048773D02*
G01*
X4148063Y4972319D01*
X4229851Y4972319D01*
X4202673Y5048773D02*
G01*
X4202673Y4934219D01*
X4035795Y4794773D02*
G01*
X4035795Y4680219D01*
X4035795Y4794773D02*
G01*
X4084817Y4794773D01*
X4101327Y4789185D01*
X4106661Y4783851D01*
X4112249Y4772929D01*
X4112249Y4762007D01*
X4106661Y4751085D01*
X4101327Y4745497D01*
X4084817Y4740163D01*
X4035795Y4740163D02*
G01*
X4084817Y4740163D01*
X4101327Y4734829D01*
X4106661Y4729241D01*
X4112249Y4718319D01*
X4112249Y4702063D01*
X4106661Y4691141D01*
X4101327Y4685553D01*
X4084817Y4680219D01*
X4035795Y4680219D01*
X4213595Y4778263D02*
G01*
X4208261Y4789185D01*
X4191751Y4794773D01*
X4180829Y4794773D01*
X4164573Y4789185D01*
X4153651Y4772929D01*
X4148063Y4745497D01*
X4148063Y4718319D01*
X4153651Y4696475D01*
X4164573Y4685553D01*
X4180829Y4680219D01*
X4186417Y4680219D01*
X4202673Y4685553D01*
X4213595Y4696475D01*
X4219183Y4712985D01*
X4219183Y4718319D01*
X4213595Y4734829D01*
X4202673Y4745497D01*
X4186417Y4751085D01*
X4180829Y4751085D01*
X4164573Y4745497D01*
X4153651Y4734829D01*
X4148063Y4718319D01*
X4035795Y4540773D02*
G01*
X4035795Y4426219D01*
X4035795Y4540773D02*
G01*
X4084817Y4540773D01*
X4101327Y4535185D01*
X4106661Y4529851D01*
X4112249Y4518929D01*
X4112249Y4508007D01*
X4106661Y4497085D01*
X4101327Y4491497D01*
X4084817Y4486163D01*
X4035795Y4486163D02*
G01*
X4084817Y4486163D01*
X4101327Y4480829D01*
X4106661Y4475241D01*
X4112249Y4464319D01*
X4112249Y4448063D01*
X4106661Y4437141D01*
X4101327Y4431553D01*
X4084817Y4426219D01*
X4035795Y4426219D01*
X4148063Y4540773D02*
G01*
X4148063Y4458985D01*
X4153651Y4442475D01*
X4164573Y4431553D01*
X4180829Y4426219D01*
X4191751Y4426219D01*
X4208261Y4431553D01*
X4219183Y4442475D01*
X4224517Y4458985D01*
X4224517Y4540773D01*
X4336785Y4524263D02*
G01*
X4325863Y4535185D01*
X4309607Y4540773D01*
X4287763Y4540773D01*
X4271507Y4535185D01*
X4260585Y4524263D01*
X4260585Y4513341D01*
X4265919Y4502419D01*
X4271507Y4497085D01*
X4282429Y4491497D01*
X4314941Y4480829D01*
X4325863Y4475241D01*
X4331451Y4469907D01*
X4336785Y4458985D01*
X4336785Y4442475D01*
X4325863Y4431553D01*
X4309607Y4426219D01*
X4287763Y4426219D01*
X4271507Y4431553D01*
X4260585Y4442475D01*
X4372853Y4540773D02*
G01*
X4416541Y4486163D01*
X4416541Y4426219D01*
X4460229Y4540773D02*
G01*
X4416541Y4486163D01*
X4068561Y4286773D02*
G01*
X4057639Y4281185D01*
X4046717Y4270263D01*
X4041129Y4259341D01*
X4035795Y4243085D01*
X4035795Y4215907D01*
X4041129Y4199397D01*
X4046717Y4188475D01*
X4057639Y4177553D01*
X4068561Y4172219D01*
X4090405Y4172219D01*
X4101327Y4177553D01*
X4112249Y4188475D01*
X4117583Y4199397D01*
X4123171Y4215907D01*
X4123171Y4243085D01*
X4117583Y4259341D01*
X4112249Y4270263D01*
X4101327Y4281185D01*
X4090405Y4286773D01*
X4068561Y4286773D01*
X4158985Y4286773D02*
G01*
X4158985Y4172219D01*
X4158985Y4286773D02*
G01*
X4229851Y4286773D01*
X4158985Y4232163D02*
G01*
X4202673Y4232163D01*
X4158985Y4172219D02*
G01*
X4229851Y4172219D01*
X4035795Y5302773D02*
G01*
X4035795Y5188219D01*
X4035795Y5302773D02*
G01*
X4084817Y5302773D01*
X4101327Y5297185D01*
X4106661Y5291851D01*
X4112249Y5280929D01*
X4112249Y5270007D01*
X4106661Y5259085D01*
X4101327Y5253497D01*
X4084817Y5248163D01*
X4035795Y5248163D02*
G01*
X4084817Y5248163D01*
X4101327Y5242829D01*
X4106661Y5237241D01*
X4112249Y5226319D01*
X4112249Y5210063D01*
X4106661Y5199141D01*
X4101327Y5193553D01*
X4084817Y5188219D01*
X4035795Y5188219D01*
X4158985Y5302773D02*
G01*
X4219183Y5302773D01*
X4186417Y5259085D01*
X4202673Y5259085D01*
X4213595Y5253497D01*
X4219183Y5248163D01*
X4224517Y5231907D01*
X4224517Y5220985D01*
X4219183Y5204475D01*
X4208261Y5193553D01*
X4191751Y5188219D01*
X4175495Y5188219D01*
X4158985Y5193553D01*
X4153651Y5199141D01*
X4148063Y5210063D01*
X4035795Y4032773D02*
G01*
X4035795Y3918219D01*
X4035795Y4032773D02*
G01*
X4084817Y4032773D01*
X4101327Y4027185D01*
X4106661Y4021851D01*
X4112249Y4010929D01*
X4112249Y4000007D01*
X4106661Y3989085D01*
X4101327Y3983497D01*
X4084817Y3978163D01*
X4035795Y3978163D01*
X4073895Y3978163D02*
G01*
X4112249Y3918219D01*
X4246361Y4054617D02*
G01*
X4148063Y3879865D01*
X4282429Y4032773D02*
G01*
X4309607Y3918219D01*
X4336785Y4032773D02*
G01*
X4309607Y3918219D01*
X4336785Y4032773D02*
G01*
X4364217Y3918219D01*
X4391395Y4032773D02*
G01*
X4364217Y3918219D01*
X4117583Y3497341D02*
G01*
X4112249Y3508263D01*
X4101327Y3519185D01*
X4090405Y3524773D01*
X4068561Y3524773D01*
X4057639Y3519185D01*
X4046717Y3508263D01*
X4041129Y3497341D01*
X4035795Y3481085D01*
X4035795Y3453907D01*
X4041129Y3437397D01*
X4046717Y3426475D01*
X4057639Y3415553D01*
X4068561Y3410219D01*
X4090405Y3410219D01*
X4101327Y3415553D01*
X4112249Y3426475D01*
X4117583Y3437397D01*
X4117583Y3453907D01*
X4090405Y3453907D02*
G01*
X4117583Y3453907D01*
X4153651Y3524773D02*
G01*
X4153651Y3410219D01*
X4153651Y3524773D02*
G01*
X4229851Y3410219D01*
X4229851Y3524773D02*
G01*
X4229851Y3410219D01*
X4265919Y3524773D02*
G01*
X4265919Y3410219D01*
X4265919Y3524773D02*
G01*
X4304273Y3524773D01*
X4320529Y3519185D01*
X4331451Y3508263D01*
X4336785Y3497341D01*
X4342373Y3481085D01*
X4342373Y3453907D01*
X4336785Y3437397D01*
X4331451Y3426475D01*
X4320529Y3415553D01*
X4304273Y3410219D01*
X4265919Y3410219D01*
X3657600Y5498485D02*
G01*
X3657600Y5402981D01*
X3657600Y5498485D02*
G01*
X3689350Y5498485D01*
X3703065Y5493913D01*
X3712209Y5484769D01*
X3716781Y5475625D01*
X3721100Y5462163D01*
X3721100Y5439303D01*
X3716781Y5425587D01*
X3712209Y5416697D01*
X3703065Y5407553D01*
X3689350Y5402981D01*
X3657600Y5402981D01*
X3814825Y5484769D02*
G01*
X3805681Y5493913D01*
X3792220Y5498485D01*
X3773931Y5498485D01*
X3760215Y5493913D01*
X3751325Y5484769D01*
X3751325Y5475625D01*
X3755643Y5466481D01*
X3760215Y5462163D01*
X3769359Y5457591D01*
X3796538Y5448447D01*
X3805681Y5443875D01*
X3810254Y5439303D01*
X3814825Y5430159D01*
X3814825Y5416697D01*
X3805681Y5407553D01*
X3792220Y5402981D01*
X3773931Y5402981D01*
X3760215Y5407553D01*
X3751325Y5416697D01*
X3853941Y5498485D02*
G01*
X3903979Y5498485D01*
X3876547Y5462163D01*
X3890263Y5462163D01*
X3899408Y5457591D01*
X3903979Y5453019D01*
X3908552Y5439303D01*
X3908552Y5430159D01*
X3903979Y5416697D01*
X3894836Y5407553D01*
X3881120Y5402981D01*
X3867658Y5402981D01*
X3853941Y5407553D01*
X3849370Y5412125D01*
X3844797Y5421015D01*
X2537145Y4455429D02*
G01*
X2464501Y4496323D01*
X2537145Y4537471D01*
X2464480Y4201429D02*
G01*
X2537124Y4242323D01*
X2464480Y4283471D01*
X2464480Y3947429D02*
G01*
X2537124Y3988323D01*
X2464480Y4029471D01*
X2464480Y3693429D02*
G01*
X2537124Y3734323D01*
X2464480Y3775471D01*
X3573261Y5752353D02*
G01*
X3573261Y5679709D01*
X3568689Y5665993D01*
X3564117Y5661421D01*
X3554973Y5656849D01*
X3546083Y5656849D01*
X3536939Y5661421D01*
X3532367Y5665993D01*
X3527795Y5679709D01*
X3527795Y5688853D01*
X3648699Y5752353D02*
G01*
X3603233Y5688853D01*
X3671305Y5688853D01*
X3648699Y5752353D02*
G01*
X3648699Y5656849D01*
X7912722Y5498330D02*
G01*
X7912722Y5402826D01*
X7912722Y5498330D02*
G01*
X7944472Y5498330D01*
X7958188Y5493758D01*
X7967332Y5484868D01*
X7971904Y5475724D01*
X7976222Y5462008D01*
X7976222Y5439402D01*
X7971904Y5425686D01*
X7967332Y5416542D01*
X7958188Y5407398D01*
X7944472Y5402826D01*
X7912722Y5402826D01*
X8069948Y5484868D02*
G01*
X8060804Y5493758D01*
X8047342Y5498330D01*
X8029054Y5498330D01*
X8015338Y5493758D01*
X8006448Y5484868D01*
X8006448Y5475724D01*
X8010766Y5466580D01*
X8015338Y5462008D01*
X8024482Y5457436D01*
X8051914Y5448292D01*
X8060804Y5443974D01*
X8065376Y5439402D01*
X8069948Y5430258D01*
X8069948Y5416542D01*
X8060804Y5407398D01*
X8047342Y5402826D01*
X8029054Y5402826D01*
X8015338Y5407398D01*
X8006448Y5416542D01*
X8145386Y5498330D02*
G01*
X8099920Y5434830D01*
X8168246Y5434830D01*
X8145386Y5498330D02*
G01*
X8145386Y5402826D01*
X9344238Y3770368D02*
G01*
X9271594Y3729474D01*
X9344238Y3688326D01*
X9344238Y4024368D02*
G01*
X9271594Y3983474D01*
X9344238Y3942326D01*
X9344238Y4278368D02*
G01*
X9271594Y4237474D01*
X9344238Y4196326D01*
X9271508Y4532376D02*
G01*
X9344406Y4491481D01*
X9271508Y4450334D01*
X9344238Y4786368D02*
G01*
X9271594Y4745474D01*
X9344238Y4704326D01*
X9344238Y5040368D02*
G01*
X9271594Y4999474D01*
X9344238Y4958326D01*
X8199480Y5752340D02*
G01*
X8199480Y5679696D01*
X8194908Y5665980D01*
X8190336Y5661408D01*
X8181192Y5656836D01*
X8172302Y5656836D01*
X8163158Y5661408D01*
X8158586Y5665980D01*
X8154014Y5679696D01*
X8154014Y5688840D01*
X8284062Y5752340D02*
G01*
X8238596Y5752340D01*
X8234024Y5711446D01*
X8238596Y5716018D01*
X8252058Y5720590D01*
X8265774Y5720590D01*
X8279490Y5716018D01*
X8288634Y5706874D01*
X8293206Y5693412D01*
X8293206Y5684268D01*
X8288634Y5670552D01*
X8279490Y5661408D01*
X8265774Y5656836D01*
X8252058Y5656836D01*
X8238596Y5661408D01*
X8234024Y5665980D01*
X8229452Y5675124D01*
X9344238Y5294368D02*
G01*
X9271594Y5253474D01*
X9344238Y5212326D01*
X7384288Y4312157D02*
G01*
X7340600Y4197604D01*
X7384288Y4312157D02*
G01*
X7427722Y4197604D01*
X7356856Y4235704D02*
G01*
X7411465Y4235704D01*
X7545577Y4284726D02*
G01*
X7540243Y4295647D01*
X7529322Y4306570D01*
X7518400Y4312157D01*
X7496556Y4312157D01*
X7485634Y4306570D01*
X7474711Y4295647D01*
X7469377Y4284726D01*
X7463790Y4268470D01*
X7463790Y4241292D01*
X7469377Y4224781D01*
X7474711Y4213860D01*
X7485634Y4202937D01*
X7496556Y4197604D01*
X7518400Y4197604D01*
X7529322Y4202937D01*
X7540243Y4213860D01*
X7545577Y4224781D01*
X7581645Y4312157D02*
G01*
X7581645Y4197604D01*
X7581645Y4197604D02*
G01*
X7647177Y4197604D01*
X7683245Y4312157D02*
G01*
X7683245Y4197604D01*
X7759445Y4312157D02*
G01*
X7683245Y4235704D01*
X7710424Y4262881D02*
G01*
X7759445Y4197604D01*
X7353899Y4566175D02*
G01*
X7353899Y4451621D01*
X7353899Y4566175D02*
G01*
X7402921Y4566175D01*
X7419431Y4560587D01*
X7424765Y4555253D01*
X7430353Y4544331D01*
X7430353Y4533409D01*
X7424765Y4522487D01*
X7419431Y4516899D01*
X7402921Y4511565D01*
X7353899Y4511565D02*
G01*
X7402921Y4511565D01*
X7419431Y4505977D01*
X7424765Y4500643D01*
X7430353Y4489721D01*
X7430353Y4473465D01*
X7424765Y4462543D01*
X7419431Y4456955D01*
X7402921Y4451621D01*
X7353899Y4451621D01*
X7466167Y4566175D02*
G01*
X7466167Y4484387D01*
X7471755Y4467877D01*
X7482677Y4456955D01*
X7498933Y4451621D01*
X7509855Y4451621D01*
X7526365Y4456955D01*
X7537287Y4467877D01*
X7542621Y4484387D01*
X7542621Y4566175D01*
X7654889Y4549665D02*
G01*
X7643967Y4560587D01*
X7627711Y4566175D01*
X7605867Y4566175D01*
X7589611Y4560587D01*
X7578689Y4549665D01*
X7578689Y4538743D01*
X7584023Y4527821D01*
X7589611Y4522487D01*
X7600533Y4516899D01*
X7633045Y4505977D01*
X7643967Y4500643D01*
X7649555Y4495055D01*
X7654889Y4484387D01*
X7654889Y4467877D01*
X7643967Y4456955D01*
X7627711Y4451621D01*
X7605867Y4451621D01*
X7589611Y4456955D01*
X7578689Y4467877D01*
X7690957Y4566175D02*
G01*
X7734645Y4511565D01*
X7734645Y4451621D01*
X7778333Y4566175D02*
G01*
X7734645Y4511565D01*
X7417399Y4058178D02*
G01*
X7417399Y3943624D01*
X7417399Y4058178D02*
G01*
X7466421Y4058178D01*
X7482931Y4052590D01*
X7488265Y4047256D01*
X7493853Y4036334D01*
X7493853Y4025412D01*
X7488265Y4014490D01*
X7482931Y4008902D01*
X7466421Y4003568D01*
X7417399Y4003568D01*
X7455499Y4003568D02*
G01*
X7493853Y3943624D01*
X7627965Y4080022D02*
G01*
X7529667Y3905270D01*
X7664033Y4058178D02*
G01*
X7691211Y3943624D01*
X7718389Y4058178D02*
G01*
X7691211Y3943624D01*
X7718389Y4058178D02*
G01*
X7745821Y3943624D01*
X7772999Y4058178D02*
G01*
X7745821Y3943624D01*
X7664284Y3776746D02*
G01*
X7658950Y3787668D01*
X7648028Y3798590D01*
X7637106Y3804178D01*
X7615262Y3804178D01*
X7604340Y3798590D01*
X7593418Y3787668D01*
X7587830Y3776746D01*
X7582496Y3760490D01*
X7582496Y3733058D01*
X7587830Y3716802D01*
X7593418Y3705880D01*
X7604340Y3694958D01*
X7615262Y3689624D01*
X7637106Y3689624D01*
X7648028Y3694958D01*
X7658950Y3705880D01*
X7664284Y3716802D01*
X7700352Y3804178D02*
G01*
X7700352Y3689624D01*
X7700352Y3804178D02*
G01*
X7771218Y3804178D01*
X7700352Y3749568D02*
G01*
X7744040Y3749568D01*
X7700352Y3689624D02*
G01*
X7771218Y3689624D01*
X7634742Y3537450D02*
G01*
X7580132Y3537450D01*
X7574544Y3488174D01*
X7580132Y3493762D01*
X7596388Y3499096D01*
X7612898Y3499096D01*
X7629154Y3493762D01*
X7640076Y3482840D01*
X7645664Y3466584D01*
X7645664Y3455662D01*
X7640076Y3439152D01*
X7629154Y3428230D01*
X7612898Y3422896D01*
X7596388Y3422896D01*
X7580132Y3428230D01*
X7574544Y3433818D01*
X7569210Y3444740D01*
X7681478Y3537450D02*
G01*
X7725166Y3422896D01*
X7768854Y3537450D02*
G01*
X7725166Y3422896D01*
X7404714Y4820160D02*
G01*
X7404714Y4705606D01*
X7404714Y4820160D02*
G01*
X7453736Y4820160D01*
X7470246Y4814572D01*
X7475580Y4809238D01*
X7481168Y4798316D01*
X7481168Y4781806D01*
X7475580Y4770884D01*
X7470246Y4765550D01*
X7453736Y4760216D01*
X7404714Y4760216D01*
X7598770Y4792728D02*
G01*
X7593436Y4803650D01*
X7582514Y4814572D01*
X7571592Y4820160D01*
X7549748Y4820160D01*
X7538826Y4814572D01*
X7527904Y4803650D01*
X7522570Y4792728D01*
X7516982Y4776472D01*
X7516982Y4749294D01*
X7522570Y4732784D01*
X7527904Y4721862D01*
X7538826Y4710940D01*
X7549748Y4705606D01*
X7571592Y4705606D01*
X7582514Y4710940D01*
X7593436Y4721862D01*
X7598770Y4732784D01*
X7634838Y4798316D02*
G01*
X7645760Y4803650D01*
X7662016Y4820160D01*
X7662016Y4705606D01*
X7730850Y4820160D02*
G01*
X7714594Y4814572D01*
X7703672Y4798316D01*
X7698084Y4770884D01*
X7698084Y4754628D01*
X7703672Y4727450D01*
X7714594Y4710940D01*
X7730850Y4705606D01*
X7741772Y4705606D01*
X7758028Y4710940D01*
X7768950Y4727450D01*
X7774538Y4754628D01*
X7774538Y4770884D01*
X7768950Y4798316D01*
X7758028Y4814572D01*
X7741772Y4820160D01*
X7730850Y4820160D01*
X7471008Y5070350D02*
G01*
X7471008Y4955796D01*
X7471008Y5070350D02*
G01*
X7520030Y5070350D01*
X7536540Y5064762D01*
X7541874Y5059428D01*
X7547462Y5048506D01*
X7547462Y5031996D01*
X7541874Y5021074D01*
X7536540Y5015740D01*
X7520030Y5010152D01*
X7471008Y5010152D01*
X7665064Y5042918D02*
G01*
X7659730Y5053840D01*
X7648808Y5064762D01*
X7637886Y5070350D01*
X7616042Y5070350D01*
X7605120Y5064762D01*
X7594198Y5053840D01*
X7588864Y5042918D01*
X7583276Y5026662D01*
X7583276Y4999230D01*
X7588864Y4982974D01*
X7594198Y4972052D01*
X7605120Y4961130D01*
X7616042Y4955796D01*
X7637886Y4955796D01*
X7648808Y4961130D01*
X7659730Y4972052D01*
X7665064Y4982974D01*
X7771998Y5031996D02*
G01*
X7766664Y5015740D01*
X7755742Y5004818D01*
X7739486Y4999230D01*
X7733898Y4999230D01*
X7717642Y5004818D01*
X7706720Y5015740D01*
X7701132Y5031996D01*
X7701132Y5037584D01*
X7706720Y5053840D01*
X7717642Y5064762D01*
X7733898Y5070350D01*
X7739486Y5070350D01*
X7755742Y5064762D01*
X7766664Y5053840D01*
X7771998Y5031996D01*
X7771998Y5004818D01*
X7766664Y4977640D01*
X7755742Y4961130D01*
X7739486Y4955796D01*
X7728564Y4955796D01*
X7712054Y4961130D01*
X7706720Y4972052D01*
X7471008Y5324350D02*
G01*
X7471008Y5209796D01*
X7471008Y5324350D02*
G01*
X7520030Y5324350D01*
X7536540Y5318762D01*
X7541874Y5313428D01*
X7547462Y5302506D01*
X7547462Y5285996D01*
X7541874Y5275074D01*
X7536540Y5269740D01*
X7520030Y5264152D01*
X7471008Y5264152D01*
X7665064Y5296918D02*
G01*
X7659730Y5307840D01*
X7648808Y5318762D01*
X7637886Y5324350D01*
X7616042Y5324350D01*
X7605120Y5318762D01*
X7594198Y5307840D01*
X7588864Y5296918D01*
X7583276Y5280662D01*
X7583276Y5253230D01*
X7588864Y5236974D01*
X7594198Y5226052D01*
X7605120Y5215130D01*
X7616042Y5209796D01*
X7637886Y5209796D01*
X7648808Y5215130D01*
X7659730Y5226052D01*
X7665064Y5236974D01*
X7728564Y5324350D02*
G01*
X7712054Y5318762D01*
X7706720Y5307840D01*
X7706720Y5296918D01*
X7712054Y5285996D01*
X7722976Y5280662D01*
X7744820Y5275074D01*
X7761076Y5269740D01*
X7771998Y5258818D01*
X7777586Y5247896D01*
X7777586Y5231640D01*
X7771998Y5220718D01*
X7766664Y5215130D01*
X7750154Y5209796D01*
X7728564Y5209796D01*
X7712054Y5215130D01*
X7706720Y5220718D01*
X7701132Y5231640D01*
X7701132Y5247896D01*
X7706720Y5258818D01*
X7717642Y5269740D01*
X7733898Y5275074D01*
X7755742Y5280662D01*
X7766664Y5285996D01*
X7771998Y5296918D01*
X7771998Y5307840D01*
X7766664Y5318762D01*
X7750154Y5324350D01*
X7728564Y5324350D01*
X331978Y-367792D02*
G01*
X326644Y-357378D01*
X316229Y-346963D01*
X306070Y-341884D01*
X285242Y-341884D01*
X274828Y-346963D01*
X264413Y-357378D01*
X259079Y-367792D01*
X254000Y-383539D01*
X254000Y-409447D01*
X259079Y-424942D01*
X264413Y-435355D01*
X274828Y-445770D01*
X285242Y-450850D01*
X306070Y-450850D01*
X316229Y-445770D01*
X326644Y-435355D01*
X331978Y-424942D01*
X366268Y-341884D02*
G01*
X366268Y-450850D01*
X438912Y-341884D02*
G01*
X438912Y-450850D01*
X366268Y-393700D02*
G01*
X438912Y-393700D01*
X514857Y-341884D02*
G01*
X473202Y-450850D01*
X514857Y-341884D02*
G01*
X556260Y-450850D01*
X488950Y-414528D02*
G01*
X540765Y-414528D01*
X590550Y-341884D02*
G01*
X590550Y-450850D01*
X590550Y-341884D02*
G01*
X663447Y-450850D01*
X663447Y-341884D02*
G01*
X663447Y-450850D01*
X775715Y-367792D02*
G01*
X770381Y-357378D01*
X759968Y-346963D01*
X749554Y-341884D01*
X728979Y-341884D01*
X718565Y-346963D01*
X708152Y-357378D01*
X702818Y-367792D01*
X697737Y-383539D01*
X697737Y-409447D01*
X702818Y-424942D01*
X708152Y-435355D01*
X718565Y-445770D01*
X728979Y-450850D01*
X749554Y-450850D01*
X759968Y-445770D01*
X770381Y-435355D01*
X775715Y-424942D01*
X775715Y-409447D01*
X749554Y-409447D02*
G01*
X775715Y-409447D01*
X810005Y-341884D02*
G01*
X810005Y-450850D01*
X810005Y-341884D02*
G01*
X877570Y-341884D01*
X810005Y-393700D02*
G01*
X851407Y-393700D01*
X810005Y-450850D02*
G01*
X877570Y-450850D01*
X984504Y-357378D02*
G01*
X974089Y-346963D01*
X958595Y-341884D01*
X937768Y-341884D01*
X922020Y-346963D01*
X911860Y-357378D01*
X911860Y-367792D01*
X916939Y-378205D01*
X922020Y-383539D01*
X932434Y-388620D01*
X963676Y-399034D01*
X974089Y-404113D01*
X979170Y-409447D01*
X984504Y-419862D01*
X984504Y-435355D01*
X974089Y-445770D01*
X958595Y-450850D01*
X937768Y-450850D01*
X922020Y-445770D01*
X911860Y-435355D01*
X1098804Y-341884D02*
G01*
X1140460Y-450850D01*
X1181862Y-341884D02*
G01*
X1140460Y-450850D01*
X1247394Y-341884D02*
G01*
X1231900Y-346963D01*
X1221486Y-362712D01*
X1216152Y-388620D01*
X1216152Y-404113D01*
X1221486Y-430276D01*
X1231900Y-445770D01*
X1247394Y-450850D01*
X1257807Y-450850D01*
X1273302Y-445770D01*
X1283715Y-430276D01*
X1289050Y-404113D01*
X1289050Y-388620D01*
X1283715Y-362712D01*
X1273302Y-346963D01*
X1257807Y-341884D01*
X1247394Y-341884D01*
X1328420Y-424942D02*
G01*
X1323339Y-430276D01*
X1328420Y-435355D01*
X1333500Y-430276D01*
X1328420Y-424942D01*
X1367789Y-362712D02*
G01*
X1378204Y-357378D01*
X1393952Y-341884D01*
X1393952Y-450850D01*
X1508252Y-404113D02*
G01*
X1601723Y-404113D01*
X1636013Y-357378D02*
G01*
X1719071Y-404113D01*
X1636013Y-450850D01*
X1833371Y-341884D02*
G01*
X1875028Y-450850D01*
X1916429Y-341884D02*
G01*
X1875028Y-450850D01*
X1981961Y-341884D02*
G01*
X1966468Y-346963D01*
X1956054Y-362712D01*
X1950720Y-388620D01*
X1950720Y-404113D01*
X1956054Y-430276D01*
X1966468Y-445770D01*
X1981961Y-450850D01*
X1992375Y-450850D01*
X2007870Y-445770D01*
X2018284Y-430276D01*
X2023618Y-404113D01*
X2023618Y-388620D01*
X2018284Y-362712D01*
X2007870Y-346963D01*
X1992375Y-341884D01*
X1981961Y-341884D01*
X2062988Y-424942D02*
G01*
X2057908Y-430276D01*
X2062988Y-435355D01*
X2068322Y-430276D01*
X2062988Y-424942D01*
X2107691Y-367792D02*
G01*
X2107691Y-362712D01*
X2113025Y-352297D01*
X2118106Y-346963D01*
X2128520Y-341884D01*
X2149347Y-341884D01*
X2159761Y-346963D01*
X2164841Y-352297D01*
X2170175Y-362712D01*
X2170175Y-373126D01*
X2164841Y-383539D01*
X2154427Y-399034D01*
X2102611Y-450850D01*
X2175256Y-450850D01*
X520700Y-519684D02*
G01*
X520700Y-628650D01*
X520700Y-519684D02*
G01*
X557021Y-519684D01*
X572770Y-524763D01*
X582929Y-535178D01*
X588263Y-545592D01*
X593344Y-561339D01*
X593344Y-587247D01*
X588263Y-602742D01*
X582929Y-613155D01*
X572770Y-623570D01*
X557021Y-628650D01*
X520700Y-628650D01*
X658876Y-519684D02*
G01*
X648462Y-524763D01*
X638047Y-535178D01*
X632968Y-545592D01*
X627634Y-561339D01*
X627634Y-587247D01*
X632968Y-602742D01*
X638047Y-613155D01*
X648462Y-623570D01*
X658876Y-628650D01*
X679704Y-628650D01*
X690118Y-623570D01*
X700531Y-613155D01*
X705612Y-602742D01*
X710945Y-587247D01*
X710945Y-561339D01*
X705612Y-545592D01*
X700531Y-535178D01*
X690118Y-524763D01*
X679704Y-519684D01*
X658876Y-519684D01*
X745236Y-519684D02*
G01*
X745236Y-628650D01*
X745236Y-519684D02*
G01*
X817879Y-628650D01*
X817879Y-519684D02*
G01*
X817879Y-628650D01*
X852170Y-519684D02*
G01*
X852170Y-628650D01*
X852170Y-519684D02*
G01*
X919734Y-519684D01*
X852170Y-571500D02*
G01*
X893826Y-571500D01*
X852170Y-628650D02*
G01*
X919734Y-628650D01*
X1034034Y-581913D02*
G01*
X1127505Y-581913D01*
X1241805Y-519684D02*
G01*
X1241805Y-628650D01*
X1241805Y-519684D02*
G01*
X1309370Y-519684D01*
X1241805Y-571500D02*
G01*
X1283462Y-571500D01*
X1343660Y-519684D02*
G01*
X1343660Y-628650D01*
X1377950Y-519684D02*
G01*
X1450594Y-628650D01*
X1450594Y-519684D02*
G01*
X1377950Y-628650D01*
X1616963Y-519684D02*
G01*
X1616963Y-602742D01*
X1611629Y-618489D01*
X1606550Y-623570D01*
X1596136Y-628650D01*
X1585721Y-628650D01*
X1575307Y-623570D01*
X1570228Y-618489D01*
X1564894Y-602742D01*
X1564894Y-592328D01*
X1703070Y-519684D02*
G01*
X1651254Y-592328D01*
X1729231Y-592328D01*
X1703070Y-519684D02*
G01*
X1703070Y-628650D01*
X1856994Y-498855D02*
G01*
X1763521Y-665226D01*
X1943100Y-519684D02*
G01*
X1943100Y-602742D01*
X1938020Y-618489D01*
X1932940Y-623570D01*
X1922526Y-628650D01*
X1912112Y-628650D01*
X1901697Y-623570D01*
X1896363Y-618489D01*
X1891284Y-602742D01*
X1891284Y-592328D01*
X2039874Y-519684D02*
G01*
X1987804Y-519684D01*
X1982724Y-566420D01*
X1987804Y-561339D01*
X2003552Y-556005D01*
X2019045Y-556005D01*
X2034540Y-561339D01*
X2044954Y-571500D01*
X2050288Y-587247D01*
X2050288Y-597662D01*
X2044954Y-613155D01*
X2034540Y-623570D01*
X2019045Y-628650D01*
X2003552Y-628650D01*
X1987804Y-623570D01*
X1982724Y-618489D01*
X1977390Y-608076D01*
X2164588Y-519684D02*
G01*
X2164588Y-628650D01*
X2164588Y-519684D02*
G01*
X2200909Y-519684D01*
X2216404Y-524763D01*
X2226818Y-535178D01*
X2232152Y-545592D01*
X2237231Y-561339D01*
X2237231Y-587247D01*
X2232152Y-602742D01*
X2226818Y-613155D01*
X2216404Y-623570D01*
X2200909Y-628650D01*
X2164588Y-628650D01*
X2271522Y-519684D02*
G01*
X2271522Y-628650D01*
X2305811Y-519684D02*
G01*
X2305811Y-628650D01*
X2305811Y-519684D02*
G01*
X2352547Y-519684D01*
X2368295Y-524763D01*
X2373375Y-530097D01*
X2378709Y-540512D01*
X2378709Y-550926D01*
X2373375Y-561339D01*
X2368295Y-566420D01*
X2352547Y-571500D01*
X2305811Y-571500D01*
X2342134Y-571500D02*
G01*
X2378709Y-628650D01*
X2413000Y-519684D02*
G01*
X2413000Y-628650D01*
X2413000Y-519684D02*
G01*
X2480309Y-519684D01*
X2413000Y-571500D02*
G01*
X2454402Y-571500D01*
X2413000Y-628650D02*
G01*
X2480309Y-628650D01*
X2592577Y-545592D02*
G01*
X2587497Y-535178D01*
X2577084Y-524763D01*
X2566670Y-519684D01*
X2545841Y-519684D01*
X2535427Y-524763D01*
X2525013Y-535178D01*
X2519934Y-545592D01*
X2514600Y-561339D01*
X2514600Y-587247D01*
X2519934Y-602742D01*
X2525013Y-613155D01*
X2535427Y-623570D01*
X2545841Y-628650D01*
X2566670Y-628650D01*
X2577084Y-623570D01*
X2587497Y-613155D01*
X2592577Y-602742D01*
X2663190Y-519684D02*
G01*
X2663190Y-628650D01*
X2626868Y-519684D02*
G01*
X2699765Y-519684D01*
X2734056Y-519684D02*
G01*
X2734056Y-628650D01*
X2799334Y-519684D02*
G01*
X2788920Y-524763D01*
X2778759Y-535178D01*
X2773425Y-545592D01*
X2768345Y-561339D01*
X2768345Y-587247D01*
X2773425Y-602742D01*
X2778759Y-613155D01*
X2788920Y-623570D01*
X2799334Y-628650D01*
X2820161Y-628650D01*
X2830575Y-623570D01*
X2840990Y-613155D01*
X2846070Y-602742D01*
X2851404Y-587247D01*
X2851404Y-561339D01*
X2846070Y-545592D01*
X2840990Y-535178D01*
X2830575Y-524763D01*
X2820161Y-519684D01*
X2799334Y-519684D01*
X2885693Y-519684D02*
G01*
X2885693Y-628650D01*
X2885693Y-519684D02*
G01*
X2958338Y-628650D01*
X2958338Y-519684D02*
G01*
X2958338Y-628650D01*
X3072638Y-519684D02*
G01*
X3072638Y-628650D01*
X3072638Y-628650D02*
G01*
X3135122Y-628650D01*
X3210813Y-519684D02*
G01*
X3169411Y-628650D01*
X3210813Y-519684D02*
G01*
X3252470Y-628650D01*
X3184906Y-592328D02*
G01*
X3236975Y-592328D01*
X3286759Y-519684D02*
G01*
X3286759Y-628650D01*
X3286759Y-519684D02*
G01*
X3333495Y-519684D01*
X3348990Y-524763D01*
X3354324Y-530097D01*
X3359404Y-540512D01*
X3359404Y-550926D01*
X3354324Y-561339D01*
X3348990Y-566420D01*
X3333495Y-571500D01*
X3286759Y-571500D02*
G01*
X3333495Y-571500D01*
X3348990Y-576834D01*
X3354324Y-581913D01*
X3359404Y-592328D01*
X3359404Y-608076D01*
X3354324Y-618489D01*
X3348990Y-623570D01*
X3333495Y-628650D01*
X3286759Y-628650D01*
X3393693Y-519684D02*
G01*
X3393693Y-628650D01*
X3393693Y-628650D02*
G01*
X3456177Y-628650D01*
X3490468Y-519684D02*
G01*
X3490468Y-628650D01*
X3490468Y-519684D02*
G01*
X3558031Y-519684D01*
X3490468Y-571500D02*
G01*
X3531870Y-571500D01*
X3490468Y-628650D02*
G01*
X3558031Y-628650D01*
X3664965Y-535178D02*
G01*
X3654552Y-524763D01*
X3639058Y-519684D01*
X3618229Y-519684D01*
X3602736Y-524763D01*
X3592322Y-535178D01*
X3592322Y-545592D01*
X3597402Y-556005D01*
X3602736Y-561339D01*
X3613150Y-566420D01*
X3644138Y-576834D01*
X3654552Y-581913D01*
X3659886Y-587247D01*
X3664965Y-597662D01*
X3664965Y-613155D01*
X3654552Y-623570D01*
X3639058Y-628650D01*
X3618229Y-628650D01*
X3602736Y-623570D01*
X3592322Y-613155D01*
X508000Y-710184D02*
G01*
X508000Y-819150D01*
X508000Y-710184D02*
G01*
X544321Y-710184D01*
X560070Y-715263D01*
X570229Y-725678D01*
X575563Y-736092D01*
X580644Y-751839D01*
X580644Y-777747D01*
X575563Y-793242D01*
X570229Y-803655D01*
X560070Y-814070D01*
X544321Y-819150D01*
X508000Y-819150D01*
X646176Y-710184D02*
G01*
X635762Y-715263D01*
X625347Y-725678D01*
X620268Y-736092D01*
X614934Y-751839D01*
X614934Y-777747D01*
X620268Y-793242D01*
X625347Y-803655D01*
X635762Y-814070D01*
X646176Y-819150D01*
X667004Y-819150D01*
X677418Y-814070D01*
X687831Y-803655D01*
X692912Y-793242D01*
X698245Y-777747D01*
X698245Y-751839D01*
X692912Y-736092D01*
X687831Y-725678D01*
X677418Y-715263D01*
X667004Y-710184D01*
X646176Y-710184D01*
X732536Y-710184D02*
G01*
X732536Y-819150D01*
X732536Y-710184D02*
G01*
X805179Y-819150D01*
X805179Y-710184D02*
G01*
X805179Y-819150D01*
X839470Y-710184D02*
G01*
X839470Y-819150D01*
X839470Y-710184D02*
G01*
X907034Y-710184D01*
X839470Y-762000D02*
G01*
X881126Y-762000D01*
X839470Y-819150D02*
G01*
X907034Y-819150D01*
X1021334Y-772413D02*
G01*
X1114805Y-772413D01*
X1270762Y-710184D02*
G01*
X1229105Y-819150D01*
X1270762Y-710184D02*
G01*
X1312163Y-819150D01*
X1244600Y-782828D02*
G01*
X1296670Y-782828D01*
X1346454Y-710184D02*
G01*
X1346454Y-819150D01*
X1346454Y-710184D02*
G01*
X1383029Y-710184D01*
X1398523Y-715263D01*
X1408937Y-725678D01*
X1414018Y-736092D01*
X1419352Y-751839D01*
X1419352Y-777747D01*
X1414018Y-793242D01*
X1408937Y-803655D01*
X1398523Y-814070D01*
X1383029Y-819150D01*
X1346454Y-819150D01*
X1453642Y-710184D02*
G01*
X1453642Y-819150D01*
X1453642Y-710184D02*
G01*
X1489963Y-710184D01*
X1505457Y-715263D01*
X1515871Y-725678D01*
X1521205Y-736092D01*
X1526286Y-751839D01*
X1526286Y-777747D01*
X1521205Y-793242D01*
X1515871Y-803655D01*
X1505457Y-814070D01*
X1489963Y-819150D01*
X1453642Y-819150D01*
X1640586Y-710184D02*
G01*
X1640586Y-819150D01*
X1640586Y-710184D02*
G01*
X1687321Y-710184D01*
X1703070Y-715263D01*
X1708150Y-720597D01*
X1713229Y-731012D01*
X1713229Y-741426D01*
X1708150Y-751839D01*
X1703070Y-756920D01*
X1687321Y-762000D01*
X1640586Y-762000D01*
X1676907Y-762000D02*
G01*
X1713229Y-819150D01*
X1747520Y-710184D02*
G01*
X1747520Y-819150D01*
X1747520Y-710184D02*
G01*
X1815084Y-710184D01*
X1747520Y-762000D02*
G01*
X1789176Y-762000D01*
X1747520Y-819150D02*
G01*
X1815084Y-819150D01*
X1927352Y-736092D02*
G01*
X1922271Y-725678D01*
X1911857Y-715263D01*
X1901444Y-710184D01*
X1880615Y-710184D01*
X1870202Y-715263D01*
X1859787Y-725678D01*
X1854707Y-736092D01*
X1849373Y-751839D01*
X1849373Y-777747D01*
X1854707Y-793242D01*
X1859787Y-803655D01*
X1870202Y-814070D01*
X1880615Y-819150D01*
X1901444Y-819150D01*
X1911857Y-814070D01*
X1922271Y-803655D01*
X1927352Y-793242D01*
X1927352Y-777747D01*
X1901444Y-777747D02*
G01*
X1927352Y-777747D01*
X1961641Y-710184D02*
G01*
X1961641Y-819150D01*
X2068829Y-725678D02*
G01*
X2058415Y-715263D01*
X2042668Y-710184D01*
X2021840Y-710184D01*
X2006345Y-715263D01*
X1995931Y-725678D01*
X1995931Y-736092D01*
X2001265Y-746505D01*
X2006345Y-751839D01*
X2016759Y-756920D01*
X2048002Y-767334D01*
X2058415Y-772413D01*
X2063495Y-777747D01*
X2068829Y-788162D01*
X2068829Y-803655D01*
X2058415Y-814070D01*
X2042668Y-819150D01*
X2021840Y-819150D01*
X2006345Y-814070D01*
X1995931Y-803655D01*
X2139441Y-710184D02*
G01*
X2139441Y-819150D01*
X2103120Y-710184D02*
G01*
X2175763Y-710184D01*
X2210054Y-710184D02*
G01*
X2210054Y-819150D01*
X2210054Y-710184D02*
G01*
X2277618Y-710184D01*
X2210054Y-762000D02*
G01*
X2251709Y-762000D01*
X2210054Y-819150D02*
G01*
X2277618Y-819150D01*
X2311908Y-710184D02*
G01*
X2311908Y-819150D01*
X2311908Y-710184D02*
G01*
X2358643Y-710184D01*
X2374138Y-715263D01*
X2379472Y-720597D01*
X2384552Y-731012D01*
X2384552Y-741426D01*
X2379472Y-751839D01*
X2374138Y-756920D01*
X2358643Y-762000D01*
X2311908Y-762000D01*
X2348229Y-762000D02*
G01*
X2384552Y-819150D01*
X2498852Y-710184D02*
G01*
X2498852Y-819150D01*
X2498852Y-710184D02*
G01*
X2566415Y-710184D01*
X2498852Y-762000D02*
G01*
X2540508Y-762000D01*
X2631947Y-710184D02*
G01*
X2621534Y-715263D01*
X2611120Y-725678D01*
X2606040Y-736092D01*
X2600706Y-751839D01*
X2600706Y-777747D01*
X2606040Y-793242D01*
X2611120Y-803655D01*
X2621534Y-814070D01*
X2631947Y-819150D01*
X2652775Y-819150D01*
X2663190Y-814070D01*
X2673350Y-803655D01*
X2678684Y-793242D01*
X2683763Y-777747D01*
X2683763Y-751839D01*
X2678684Y-736092D01*
X2673350Y-725678D01*
X2663190Y-715263D01*
X2652775Y-710184D01*
X2631947Y-710184D01*
X2718054Y-710184D02*
G01*
X2718054Y-819150D01*
X2718054Y-710184D02*
G01*
X2764790Y-710184D01*
X2780538Y-715263D01*
X2785618Y-720597D01*
X2790952Y-731012D01*
X2790952Y-741426D01*
X2785618Y-751839D01*
X2780538Y-756920D01*
X2764790Y-762000D01*
X2718054Y-762000D01*
X2754629Y-762000D02*
G01*
X2790952Y-819150D01*
X2946654Y-710184D02*
G01*
X2905252Y-819150D01*
X2946654Y-710184D02*
G01*
X2988309Y-819150D01*
X2920745Y-782828D02*
G01*
X2972815Y-782828D01*
X3022600Y-710184D02*
G01*
X3022600Y-819150D01*
X3022600Y-710184D02*
G01*
X3058922Y-710184D01*
X3074670Y-715263D01*
X3084829Y-725678D01*
X3090163Y-736092D01*
X3095243Y-751839D01*
X3095243Y-777747D01*
X3090163Y-793242D01*
X3084829Y-803655D01*
X3074670Y-814070D01*
X3058922Y-819150D01*
X3022600Y-819150D01*
X3129534Y-710184D02*
G01*
X3129534Y-819150D01*
X3129534Y-710184D02*
G01*
X3166109Y-710184D01*
X3181604Y-715263D01*
X3192018Y-725678D01*
X3197097Y-736092D01*
X3202431Y-751839D01*
X3202431Y-777747D01*
X3197097Y-793242D01*
X3192018Y-803655D01*
X3181604Y-814070D01*
X3166109Y-819150D01*
X3129534Y-819150D01*
X3236722Y-710184D02*
G01*
X3236722Y-819150D01*
X3236722Y-710184D02*
G01*
X3283458Y-710184D01*
X3298952Y-715263D01*
X3304286Y-720597D01*
X3309365Y-731012D01*
X3309365Y-741426D01*
X3304286Y-751839D01*
X3298952Y-756920D01*
X3283458Y-762000D01*
X3236722Y-762000D01*
X3273043Y-762000D02*
G01*
X3309365Y-819150D01*
X3343656Y-710184D02*
G01*
X3343656Y-819150D01*
X3343656Y-710184D02*
G01*
X3411220Y-710184D01*
X3343656Y-762000D02*
G01*
X3385311Y-762000D01*
X3343656Y-819150D02*
G01*
X3411220Y-819150D01*
X3518154Y-725678D02*
G01*
X3507740Y-715263D01*
X3492245Y-710184D01*
X3471418Y-710184D01*
X3455924Y-715263D01*
X3445509Y-725678D01*
X3445509Y-736092D01*
X3450590Y-746505D01*
X3455924Y-751839D01*
X3466338Y-756920D01*
X3497579Y-767334D01*
X3507740Y-772413D01*
X3513074Y-777747D01*
X3518154Y-788162D01*
X3518154Y-803655D01*
X3507740Y-814070D01*
X3492245Y-819150D01*
X3471418Y-819150D01*
X3455924Y-814070D01*
X3445509Y-803655D01*
X3625341Y-725678D02*
G01*
X3614927Y-715263D01*
X3599179Y-710184D01*
X3578606Y-710184D01*
X3562858Y-715263D01*
X3552443Y-725678D01*
X3552443Y-736092D01*
X3557777Y-746505D01*
X3562858Y-751839D01*
X3573272Y-756920D01*
X3604513Y-767334D01*
X3614927Y-772413D01*
X3620008Y-777747D01*
X3625341Y-788162D01*
X3625341Y-803655D01*
X3614927Y-814070D01*
X3599179Y-819150D01*
X3578606Y-819150D01*
X3562858Y-814070D01*
X3552443Y-803655D01*
X3770629Y-710184D02*
G01*
X3760470Y-715263D01*
X3750056Y-725678D01*
X3744722Y-736092D01*
X3739641Y-751839D01*
X3739641Y-777747D01*
X3744722Y-793242D01*
X3750056Y-803655D01*
X3760470Y-814070D01*
X3770629Y-819150D01*
X3791458Y-819150D01*
X3801872Y-814070D01*
X3812286Y-803655D01*
X3817620Y-793242D01*
X3822700Y-777747D01*
X3822700Y-751839D01*
X3817620Y-736092D01*
X3812286Y-725678D01*
X3801872Y-715263D01*
X3791458Y-710184D01*
X3770629Y-710184D01*
X3856990Y-710184D02*
G01*
X3856990Y-788162D01*
X3862070Y-803655D01*
X3872484Y-814070D01*
X3888231Y-819150D01*
X3898645Y-819150D01*
X3914140Y-814070D01*
X3924554Y-803655D01*
X3929634Y-788162D01*
X3929634Y-710184D01*
X4000500Y-710184D02*
G01*
X4000500Y-819150D01*
X3963924Y-710184D02*
G01*
X4036822Y-710184D01*
X4071111Y-710184D02*
G01*
X4071111Y-819150D01*
X4071111Y-710184D02*
G01*
X4117847Y-710184D01*
X4133341Y-715263D01*
X4138675Y-720597D01*
X4143756Y-731012D01*
X4143756Y-746505D01*
X4138675Y-756920D01*
X4133341Y-762000D01*
X4117847Y-767334D01*
X4071111Y-767334D01*
X4178045Y-710184D02*
G01*
X4178045Y-788162D01*
X4183379Y-803655D01*
X4193540Y-814070D01*
X4209288Y-819150D01*
X4219702Y-819150D01*
X4235195Y-814070D01*
X4245609Y-803655D01*
X4250690Y-788162D01*
X4250690Y-710184D01*
X4321556Y-710184D02*
G01*
X4321556Y-819150D01*
X4284979Y-710184D02*
G01*
X4357877Y-710184D01*
X520700Y-900684D02*
G01*
X520700Y-1009650D01*
X520700Y-900684D02*
G01*
X557021Y-900684D01*
X572770Y-905763D01*
X582929Y-916178D01*
X588263Y-926592D01*
X593344Y-942339D01*
X593344Y-968247D01*
X588263Y-983742D01*
X582929Y-994155D01*
X572770Y-1004570D01*
X557021Y-1009650D01*
X520700Y-1009650D01*
X658876Y-900684D02*
G01*
X648462Y-905763D01*
X638047Y-916178D01*
X632968Y-926592D01*
X627634Y-942339D01*
X627634Y-968247D01*
X632968Y-983742D01*
X638047Y-994155D01*
X648462Y-1004570D01*
X658876Y-1009650D01*
X679704Y-1009650D01*
X690118Y-1004570D01*
X700531Y-994155D01*
X705612Y-983742D01*
X710945Y-968247D01*
X710945Y-942339D01*
X705612Y-926592D01*
X700531Y-916178D01*
X690118Y-905763D01*
X679704Y-900684D01*
X658876Y-900684D01*
X745236Y-900684D02*
G01*
X745236Y-1009650D01*
X745236Y-900684D02*
G01*
X817879Y-1009650D01*
X817879Y-900684D02*
G01*
X817879Y-1009650D01*
X852170Y-900684D02*
G01*
X852170Y-1009650D01*
X852170Y-900684D02*
G01*
X919734Y-900684D01*
X852170Y-952500D02*
G01*
X893826Y-952500D01*
X852170Y-1009650D02*
G01*
X919734Y-1009650D01*
X1034034Y-962913D02*
G01*
X1127505Y-962913D01*
X1241805Y-900684D02*
G01*
X1241805Y-978662D01*
X1247139Y-994155D01*
X1257300Y-1004570D01*
X1273047Y-1009650D01*
X1283462Y-1009650D01*
X1298955Y-1004570D01*
X1309370Y-994155D01*
X1314450Y-978662D01*
X1314450Y-900684D01*
X1348739Y-900684D02*
G01*
X1348739Y-1009650D01*
X1348739Y-900684D02*
G01*
X1395729Y-900684D01*
X1411223Y-905763D01*
X1416304Y-911097D01*
X1421637Y-921512D01*
X1421637Y-937005D01*
X1416304Y-947420D01*
X1411223Y-952500D01*
X1395729Y-957834D01*
X1348739Y-957834D01*
X1455928Y-900684D02*
G01*
X1455928Y-1009650D01*
X1455928Y-900684D02*
G01*
X1492250Y-900684D01*
X1507744Y-905763D01*
X1518157Y-916178D01*
X1523492Y-926592D01*
X1528571Y-942339D01*
X1528571Y-968247D01*
X1523492Y-983742D01*
X1518157Y-994155D01*
X1507744Y-1004570D01*
X1492250Y-1009650D01*
X1455928Y-1009650D01*
X1604518Y-900684D02*
G01*
X1562862Y-1009650D01*
X1604518Y-900684D02*
G01*
X1645920Y-1009650D01*
X1578610Y-973328D02*
G01*
X1630426Y-973328D01*
X1716786Y-900684D02*
G01*
X1716786Y-1009650D01*
X1680210Y-900684D02*
G01*
X1753107Y-900684D01*
X1787397Y-900684D02*
G01*
X1787397Y-1009650D01*
X1787397Y-900684D02*
G01*
X1854962Y-900684D01*
X1787397Y-952500D02*
G01*
X1828800Y-952500D01*
X1787397Y-1009650D02*
G01*
X1854962Y-1009650D01*
X1969261Y-900684D02*
G01*
X1969261Y-1009650D01*
X1969261Y-1009650D02*
G01*
X2031491Y-1009650D01*
X2107438Y-900684D02*
G01*
X2065781Y-1009650D01*
X2107438Y-900684D02*
G01*
X2148840Y-1009650D01*
X2081529Y-973328D02*
G01*
X2133345Y-973328D01*
X2183129Y-900684D02*
G01*
X2183129Y-1009650D01*
X2183129Y-900684D02*
G01*
X2230120Y-900684D01*
X2245613Y-905763D01*
X2250693Y-911097D01*
X2256027Y-921512D01*
X2256027Y-931926D01*
X2250693Y-942339D01*
X2245613Y-947420D01*
X2230120Y-952500D01*
X2183129Y-952500D02*
G01*
X2230120Y-952500D01*
X2245613Y-957834D01*
X2250693Y-962913D01*
X2256027Y-973328D01*
X2256027Y-989076D01*
X2250693Y-999489D01*
X2245613Y-1004570D01*
X2230120Y-1009650D01*
X2183129Y-1009650D01*
X2290318Y-900684D02*
G01*
X2290318Y-1009650D01*
X2290318Y-900684D02*
G01*
X2357881Y-900684D01*
X2290318Y-952500D02*
G01*
X2331720Y-952500D01*
X2290318Y-1009650D02*
G01*
X2357881Y-1009650D01*
X2392172Y-900684D02*
G01*
X2392172Y-1009650D01*
X2392172Y-1009650D02*
G01*
X2454402Y-1009650D01*
X2561590Y-916178D02*
G01*
X2551175Y-905763D01*
X2535427Y-900684D01*
X2514600Y-900684D01*
X2499106Y-905763D01*
X2488691Y-916178D01*
X2488691Y-926592D01*
X2494025Y-937005D01*
X2499106Y-942339D01*
X2509520Y-947420D01*
X2540761Y-957834D01*
X2551175Y-962913D01*
X2556256Y-968247D01*
X2561590Y-978662D01*
X2561590Y-994155D01*
X2551175Y-1004570D01*
X2535427Y-1009650D01*
X2514600Y-1009650D01*
X2499106Y-1004570D01*
X2488691Y-994155D01*
X2712211Y-900684D02*
G01*
X2712211Y-1009650D01*
X2675890Y-900684D02*
G01*
X2748534Y-900684D01*
X2814065Y-900684D02*
G01*
X2803652Y-905763D01*
X2793238Y-916178D01*
X2787904Y-926592D01*
X2782824Y-942339D01*
X2782824Y-968247D01*
X2787904Y-983742D01*
X2793238Y-994155D01*
X2803652Y-1004570D01*
X2814065Y-1009650D01*
X2834640Y-1009650D01*
X2845054Y-1004570D01*
X2855468Y-994155D01*
X2860802Y-983742D01*
X2865881Y-968247D01*
X2865881Y-942339D01*
X2860802Y-926592D01*
X2855468Y-916178D01*
X2845054Y-905763D01*
X2834640Y-900684D01*
X2814065Y-900684D01*
X2980181Y-900684D02*
G01*
X2980181Y-1009650D01*
X2980181Y-900684D02*
G01*
X3026918Y-900684D01*
X3042665Y-905763D01*
X3047745Y-911097D01*
X3053079Y-921512D01*
X3053079Y-931926D01*
X3047745Y-942339D01*
X3042665Y-947420D01*
X3026918Y-952500D01*
X2980181Y-952500D01*
X3016504Y-952500D02*
G01*
X3053079Y-1009650D01*
X3087370Y-900684D02*
G01*
X3087370Y-1009650D01*
X3087370Y-900684D02*
G01*
X3154679Y-900684D01*
X3087370Y-952500D02*
G01*
X3128772Y-952500D01*
X3087370Y-1009650D02*
G01*
X3154679Y-1009650D01*
X3188970Y-900684D02*
G01*
X3188970Y-1009650D01*
X3188970Y-900684D02*
G01*
X3256534Y-900684D01*
X3188970Y-952500D02*
G01*
X3230625Y-952500D01*
X3290824Y-900684D02*
G01*
X3290824Y-1009650D01*
X3290824Y-1009650D02*
G01*
X3353308Y-1009650D01*
X3387597Y-900684D02*
G01*
X3387597Y-1009650D01*
X3387597Y-900684D02*
G01*
X3455161Y-900684D01*
X3387597Y-952500D02*
G01*
X3429000Y-952500D01*
X3387597Y-1009650D02*
G01*
X3455161Y-1009650D01*
X3567429Y-926592D02*
G01*
X3562095Y-916178D01*
X3551681Y-905763D01*
X3541268Y-900684D01*
X3520440Y-900684D01*
X3510279Y-905763D01*
X3499865Y-916178D01*
X3494531Y-926592D01*
X3489452Y-942339D01*
X3489452Y-968247D01*
X3494531Y-983742D01*
X3499865Y-994155D01*
X3510279Y-1004570D01*
X3520440Y-1009650D01*
X3541268Y-1009650D01*
X3551681Y-1004570D01*
X3562095Y-994155D01*
X3567429Y-983742D01*
X3638041Y-900684D02*
G01*
X3638041Y-1009650D01*
X3601720Y-900684D02*
G01*
X3674363Y-900684D01*
X3824986Y-900684D02*
G01*
X3824986Y-1009650D01*
X3788663Y-900684D02*
G01*
X3861308Y-900684D01*
X3931920Y-900684D02*
G01*
X3931920Y-1009650D01*
X3895597Y-900684D02*
G01*
X3968495Y-900684D01*
X4044188Y-900684D02*
G01*
X4002786Y-1009650D01*
X4044188Y-900684D02*
G01*
X4085843Y-1009650D01*
X4018279Y-973328D02*
G01*
X4070350Y-973328D01*
X4120134Y-900684D02*
G01*
X4120134Y-1009650D01*
X4120134Y-900684D02*
G01*
X4161790Y-1009650D01*
X4203191Y-900684D02*
G01*
X4161790Y-1009650D01*
X4203191Y-900684D02*
G01*
X4203191Y-1009650D01*
X4317491Y-900684D02*
G01*
X4317491Y-978662D01*
X4322825Y-994155D01*
X4333240Y-1004570D01*
X4348734Y-1009650D01*
X4359147Y-1009650D01*
X4374641Y-1004570D01*
X4385056Y-994155D01*
X4390390Y-978662D01*
X4390390Y-900684D01*
X4497324Y-916178D02*
G01*
X4486909Y-905763D01*
X4471415Y-900684D01*
X4450588Y-900684D01*
X4434840Y-905763D01*
X4424679Y-916178D01*
X4424679Y-926592D01*
X4429759Y-937005D01*
X4434840Y-942339D01*
X4445254Y-947420D01*
X4476495Y-957834D01*
X4486909Y-962913D01*
X4491990Y-968247D01*
X4497324Y-978662D01*
X4497324Y-994155D01*
X4486909Y-1004570D01*
X4471415Y-1009650D01*
X4450588Y-1009650D01*
X4434840Y-1004570D01*
X4424679Y-994155D01*
X4531613Y-900684D02*
G01*
X4531613Y-1009650D01*
X4531613Y-900684D02*
G01*
X4599177Y-900684D01*
X4531613Y-952500D02*
G01*
X4573270Y-952500D01*
X4531613Y-1009650D02*
G01*
X4599177Y-1009650D01*
X4791456Y-926592D02*
G01*
X4786122Y-916178D01*
X4775708Y-905763D01*
X4765293Y-900684D01*
X4744720Y-900684D01*
X4734306Y-905763D01*
X4723891Y-916178D01*
X4718558Y-926592D01*
X4713477Y-942339D01*
X4713477Y-968247D01*
X4718558Y-983742D01*
X4723891Y-994155D01*
X4734306Y-1004570D01*
X4744720Y-1009650D01*
X4765293Y-1009650D01*
X4775708Y-1004570D01*
X4786122Y-994155D01*
X4791456Y-983742D01*
X4867147Y-900684D02*
G01*
X4825745Y-1009650D01*
X4867147Y-900684D02*
G01*
X4908804Y-1009650D01*
X4841240Y-973328D02*
G01*
X4893309Y-973328D01*
X5015738Y-916178D02*
G01*
X5005324Y-905763D01*
X4989829Y-900684D01*
X4969002Y-900684D01*
X4953508Y-905763D01*
X4943093Y-916178D01*
X4943093Y-926592D01*
X4948174Y-937005D01*
X4953508Y-942339D01*
X4963922Y-947420D01*
X4994909Y-957834D01*
X5005324Y-962913D01*
X5010658Y-968247D01*
X5015738Y-978662D01*
X5015738Y-994155D01*
X5005324Y-1004570D01*
X4989829Y-1009650D01*
X4969002Y-1009650D01*
X4953508Y-1004570D01*
X4943093Y-994155D01*
X5050027Y-900684D02*
G01*
X5050027Y-1009650D01*
X5050027Y-900684D02*
G01*
X5117591Y-900684D01*
X5050027Y-952500D02*
G01*
X5091684Y-952500D01*
X5050027Y-1009650D02*
G01*
X5117591Y-1009650D01*
X12100306Y5040376D02*
G01*
X12172950Y4999481D01*
X12100306Y4958334D01*
X12100306Y4786376D02*
G01*
X12172950Y4745481D01*
X12100306Y4704334D01*
X12100306Y4532376D02*
G01*
X12172950Y4491481D01*
X12100306Y4450334D01*
X12100306Y4278376D02*
G01*
X12172950Y4237481D01*
X12100306Y4196334D01*
X12100306Y4024376D02*
G01*
X12172950Y3983481D01*
X12100306Y3942334D01*
X12100306Y3770376D02*
G01*
X12172950Y3729481D01*
X12100306Y3688334D01*
X12100306Y3516376D02*
G01*
X12172950Y3475481D01*
X12100306Y3434334D01*
X12100331Y2386076D02*
G01*
X12172975Y2345181D01*
X12100331Y2304034D01*
X12100331Y2132076D02*
G01*
X12172975Y2091181D01*
X12100331Y2050034D01*
X12100331Y1878076D02*
G01*
X12172975Y1837181D01*
X12100331Y1796034D01*
X12100331Y1624076D02*
G01*
X12172975Y1583181D01*
X12100331Y1542034D01*
X12100331Y1370076D02*
G01*
X12172975Y1329181D01*
X12100331Y1288034D01*
X12100331Y1116076D02*
G01*
X12172975Y1075181D01*
X12100331Y1034034D01*
X12100331Y862076D02*
G01*
X12172975Y821181D01*
X12100331Y780034D01*
X12100331Y608076D02*
G01*
X12172975Y567181D01*
X12100331Y526034D01*
X2464501Y4963429D02*
G01*
X2537145Y5004323D01*
X2464501Y5045471D01*
X2464501Y4709429D02*
G01*
X2537145Y4750323D01*
X2464501Y4791471D01*
X331978Y-1129792D02*
G01*
X326644Y-1119378D01*
X316229Y-1108963D01*
X306070Y-1103884D01*
X285242Y-1103884D01*
X274828Y-1108963D01*
X264413Y-1119378D01*
X259079Y-1129792D01*
X254000Y-1145539D01*
X254000Y-1171447D01*
X259079Y-1186942D01*
X264413Y-1197355D01*
X274828Y-1207770D01*
X285242Y-1212850D01*
X306070Y-1212850D01*
X316229Y-1207770D01*
X326644Y-1197355D01*
X331978Y-1186942D01*
X366268Y-1103884D02*
G01*
X366268Y-1212850D01*
X438912Y-1103884D02*
G01*
X438912Y-1212850D01*
X366268Y-1155700D02*
G01*
X438912Y-1155700D01*
X514857Y-1103884D02*
G01*
X473202Y-1212850D01*
X514857Y-1103884D02*
G01*
X556260Y-1212850D01*
X488950Y-1176528D02*
G01*
X540765Y-1176528D01*
X590550Y-1103884D02*
G01*
X590550Y-1212850D01*
X590550Y-1103884D02*
G01*
X663447Y-1212850D01*
X663447Y-1103884D02*
G01*
X663447Y-1212850D01*
X775715Y-1129792D02*
G01*
X770381Y-1119378D01*
X759968Y-1108963D01*
X749554Y-1103884D01*
X728979Y-1103884D01*
X718565Y-1108963D01*
X708152Y-1119378D01*
X702818Y-1129792D01*
X697737Y-1145539D01*
X697737Y-1171447D01*
X702818Y-1186942D01*
X708152Y-1197355D01*
X718565Y-1207770D01*
X728979Y-1212850D01*
X749554Y-1212850D01*
X759968Y-1207770D01*
X770381Y-1197355D01*
X775715Y-1186942D01*
X775715Y-1171447D01*
X749554Y-1171447D02*
G01*
X775715Y-1171447D01*
X810005Y-1103884D02*
G01*
X810005Y-1212850D01*
X810005Y-1103884D02*
G01*
X877570Y-1103884D01*
X810005Y-1155700D02*
G01*
X851407Y-1155700D01*
X810005Y-1212850D02*
G01*
X877570Y-1212850D01*
X984504Y-1119378D02*
G01*
X974089Y-1108963D01*
X958595Y-1103884D01*
X937768Y-1103884D01*
X922020Y-1108963D01*
X911860Y-1119378D01*
X911860Y-1129792D01*
X916939Y-1140205D01*
X922020Y-1145539D01*
X932434Y-1150620D01*
X963676Y-1161034D01*
X974089Y-1166113D01*
X979170Y-1171447D01*
X984504Y-1181862D01*
X984504Y-1197355D01*
X974089Y-1207770D01*
X958595Y-1212850D01*
X937768Y-1212850D01*
X922020Y-1207770D01*
X911860Y-1197355D01*
X1098804Y-1103884D02*
G01*
X1140460Y-1212850D01*
X1181862Y-1103884D02*
G01*
X1140460Y-1212850D01*
X1247394Y-1103884D02*
G01*
X1231900Y-1108963D01*
X1221486Y-1124712D01*
X1216152Y-1150620D01*
X1216152Y-1166113D01*
X1221486Y-1192276D01*
X1231900Y-1207770D01*
X1247394Y-1212850D01*
X1257807Y-1212850D01*
X1273302Y-1207770D01*
X1283715Y-1192276D01*
X1289050Y-1166113D01*
X1289050Y-1150620D01*
X1283715Y-1124712D01*
X1273302Y-1108963D01*
X1257807Y-1103884D01*
X1247394Y-1103884D01*
X1328420Y-1186942D02*
G01*
X1323339Y-1192276D01*
X1328420Y-1197355D01*
X1333500Y-1192276D01*
X1328420Y-1186942D01*
X1373123Y-1129792D02*
G01*
X1373123Y-1124712D01*
X1378204Y-1114297D01*
X1383537Y-1108963D01*
X1393952Y-1103884D01*
X1414779Y-1103884D01*
X1424939Y-1108963D01*
X1430273Y-1114297D01*
X1435354Y-1124712D01*
X1435354Y-1135126D01*
X1430273Y-1145539D01*
X1419860Y-1161034D01*
X1367789Y-1212850D01*
X1440687Y-1212850D01*
X1554987Y-1166113D02*
G01*
X1648460Y-1166113D01*
X1682750Y-1119378D02*
G01*
X1765807Y-1166113D01*
X1682750Y-1212850D01*
X1880107Y-1103884D02*
G01*
X1921763Y-1212850D01*
X1963420Y-1103884D02*
G01*
X1921763Y-1212850D01*
X2028697Y-1103884D02*
G01*
X2013204Y-1108963D01*
X2002790Y-1124712D01*
X1997709Y-1150620D01*
X1997709Y-1166113D01*
X2002790Y-1192276D01*
X2013204Y-1207770D01*
X2028697Y-1212850D01*
X2039111Y-1212850D01*
X2054859Y-1207770D01*
X2065020Y-1192276D01*
X2070354Y-1166113D01*
X2070354Y-1150620D01*
X2065020Y-1124712D01*
X2054859Y-1108963D01*
X2039111Y-1103884D01*
X2028697Y-1103884D01*
X2109724Y-1186942D02*
G01*
X2104643Y-1192276D01*
X2109724Y-1197355D01*
X2115058Y-1192276D01*
X2109724Y-1186942D01*
X2159761Y-1103884D02*
G01*
X2216911Y-1103884D01*
X2185670Y-1145539D01*
X2201163Y-1145539D01*
X2211577Y-1150620D01*
X2216911Y-1155700D01*
X2221991Y-1171447D01*
X2221991Y-1181862D01*
X2216911Y-1197355D01*
X2206497Y-1207770D01*
X2190750Y-1212850D01*
X2175256Y-1212850D01*
X2159761Y-1207770D01*
X2154427Y-1202689D01*
X2149347Y-1192276D01*
X508000Y-1332484D02*
G01*
X508000Y-1441450D01*
X508000Y-1332484D02*
G01*
X544321Y-1332484D01*
X560070Y-1337563D01*
X570229Y-1347978D01*
X575563Y-1358392D01*
X580644Y-1374139D01*
X580644Y-1400047D01*
X575563Y-1415542D01*
X570229Y-1425955D01*
X560070Y-1436370D01*
X544321Y-1441450D01*
X508000Y-1441450D01*
X646176Y-1332484D02*
G01*
X635762Y-1337563D01*
X625347Y-1347978D01*
X620268Y-1358392D01*
X614934Y-1374139D01*
X614934Y-1400047D01*
X620268Y-1415542D01*
X625347Y-1425955D01*
X635762Y-1436370D01*
X646176Y-1441450D01*
X667004Y-1441450D01*
X677418Y-1436370D01*
X687831Y-1425955D01*
X692912Y-1415542D01*
X698245Y-1400047D01*
X698245Y-1374139D01*
X692912Y-1358392D01*
X687831Y-1347978D01*
X677418Y-1337563D01*
X667004Y-1332484D01*
X646176Y-1332484D01*
X732536Y-1332484D02*
G01*
X732536Y-1441450D01*
X732536Y-1332484D02*
G01*
X805179Y-1441450D01*
X805179Y-1332484D02*
G01*
X805179Y-1441450D01*
X839470Y-1332484D02*
G01*
X839470Y-1441450D01*
X839470Y-1332484D02*
G01*
X907034Y-1332484D01*
X839470Y-1384300D02*
G01*
X881126Y-1384300D01*
X839470Y-1441450D02*
G01*
X907034Y-1441450D01*
X1021334Y-1394713D02*
G01*
X1114805Y-1394713D01*
X1229105Y-1332484D02*
G01*
X1229105Y-1441450D01*
X1229105Y-1332484D02*
G01*
X1296670Y-1332484D01*
X1229105Y-1384300D02*
G01*
X1270762Y-1384300D01*
X1229105Y-1441450D02*
G01*
X1296670Y-1441450D01*
X1330960Y-1332484D02*
G01*
X1403604Y-1441450D01*
X1403604Y-1332484D02*
G01*
X1330960Y-1441450D01*
X1437894Y-1332484D02*
G01*
X1437894Y-1441450D01*
X1437894Y-1332484D02*
G01*
X1484629Y-1332484D01*
X1500378Y-1337563D01*
X1505457Y-1342897D01*
X1510792Y-1353312D01*
X1510792Y-1368805D01*
X1505457Y-1379220D01*
X1500378Y-1384300D01*
X1484629Y-1389634D01*
X1437894Y-1389634D01*
X1576070Y-1332484D02*
G01*
X1565910Y-1337563D01*
X1555495Y-1347978D01*
X1550162Y-1358392D01*
X1545081Y-1374139D01*
X1545081Y-1400047D01*
X1550162Y-1415542D01*
X1555495Y-1425955D01*
X1565910Y-1436370D01*
X1576070Y-1441450D01*
X1596897Y-1441450D01*
X1607312Y-1436370D01*
X1617726Y-1425955D01*
X1623060Y-1415542D01*
X1628139Y-1400047D01*
X1628139Y-1374139D01*
X1623060Y-1358392D01*
X1617726Y-1347978D01*
X1607312Y-1337563D01*
X1596897Y-1332484D01*
X1576070Y-1332484D01*
X1735073Y-1347978D02*
G01*
X1724660Y-1337563D01*
X1709165Y-1332484D01*
X1688337Y-1332484D01*
X1672844Y-1337563D01*
X1662429Y-1347978D01*
X1662429Y-1358392D01*
X1667510Y-1368805D01*
X1672844Y-1374139D01*
X1683257Y-1379220D01*
X1714500Y-1389634D01*
X1724660Y-1394713D01*
X1729994Y-1400047D01*
X1735073Y-1410462D01*
X1735073Y-1425955D01*
X1724660Y-1436370D01*
X1709165Y-1441450D01*
X1688337Y-1441450D01*
X1672844Y-1436370D01*
X1662429Y-1425955D01*
X1769363Y-1332484D02*
G01*
X1769363Y-1441450D01*
X1769363Y-1332484D02*
G01*
X1836928Y-1332484D01*
X1769363Y-1384300D02*
G01*
X1811020Y-1384300D01*
X1769363Y-1441450D02*
G01*
X1836928Y-1441450D01*
X1951227Y-1332484D02*
G01*
X1951227Y-1441450D01*
X1951227Y-1332484D02*
G01*
X1997963Y-1332484D01*
X2013711Y-1337563D01*
X2018791Y-1342897D01*
X2024125Y-1353312D01*
X2024125Y-1363726D01*
X2018791Y-1374139D01*
X2013711Y-1379220D01*
X1997963Y-1384300D01*
X1951227Y-1384300D01*
X1987550Y-1384300D02*
G01*
X2024125Y-1441450D01*
X2058415Y-1332484D02*
G01*
X2058415Y-1441450D01*
X2058415Y-1332484D02*
G01*
X2125979Y-1332484D01*
X2058415Y-1384300D02*
G01*
X2099818Y-1384300D01*
X2058415Y-1441450D02*
G01*
X2125979Y-1441450D01*
X2237993Y-1358392D02*
G01*
X2232913Y-1347978D01*
X2222500Y-1337563D01*
X2212086Y-1332484D01*
X2191258Y-1332484D01*
X2180843Y-1337563D01*
X2170429Y-1347978D01*
X2165350Y-1358392D01*
X2160270Y-1374139D01*
X2160270Y-1400047D01*
X2165350Y-1415542D01*
X2170429Y-1425955D01*
X2180843Y-1436370D01*
X2191258Y-1441450D01*
X2212086Y-1441450D01*
X2222500Y-1436370D01*
X2232913Y-1425955D01*
X2237993Y-1415542D01*
X2237993Y-1400047D01*
X2212086Y-1400047D02*
G01*
X2237993Y-1400047D01*
X2272284Y-1332484D02*
G01*
X2272284Y-1441450D01*
X2379472Y-1347978D02*
G01*
X2369058Y-1337563D01*
X2353309Y-1332484D01*
X2332736Y-1332484D01*
X2316988Y-1337563D01*
X2306574Y-1347978D01*
X2306574Y-1358392D01*
X2311908Y-1368805D01*
X2316988Y-1374139D01*
X2327402Y-1379220D01*
X2358643Y-1389634D01*
X2369058Y-1394713D01*
X2374138Y-1400047D01*
X2379472Y-1410462D01*
X2379472Y-1425955D01*
X2369058Y-1436370D01*
X2353309Y-1441450D01*
X2332736Y-1441450D01*
X2316988Y-1436370D01*
X2306574Y-1425955D01*
X2450084Y-1332484D02*
G01*
X2450084Y-1441450D01*
X2413761Y-1332484D02*
G01*
X2486406Y-1332484D01*
X2520695Y-1332484D02*
G01*
X2520695Y-1441450D01*
X2520695Y-1332484D02*
G01*
X2588259Y-1332484D01*
X2520695Y-1384300D02*
G01*
X2562352Y-1384300D01*
X2520695Y-1441450D02*
G01*
X2588259Y-1441450D01*
X2622550Y-1332484D02*
G01*
X2622550Y-1441450D01*
X2622550Y-1332484D02*
G01*
X2669286Y-1332484D01*
X2684779Y-1337563D01*
X2690113Y-1342897D01*
X2695193Y-1353312D01*
X2695193Y-1363726D01*
X2690113Y-1374139D01*
X2684779Y-1379220D01*
X2669286Y-1384300D01*
X2622550Y-1384300D01*
X2658872Y-1384300D02*
G01*
X2695193Y-1441450D01*
X2840736Y-1332484D02*
G01*
X2830322Y-1337563D01*
X2819908Y-1347978D01*
X2814827Y-1358392D01*
X2809493Y-1374139D01*
X2809493Y-1400047D01*
X2814827Y-1415542D01*
X2819908Y-1425955D01*
X2830322Y-1436370D01*
X2840736Y-1441450D01*
X2861563Y-1441450D01*
X2871977Y-1436370D01*
X2882391Y-1425955D01*
X2887472Y-1415542D01*
X2892806Y-1400047D01*
X2892806Y-1374139D01*
X2887472Y-1358392D01*
X2882391Y-1347978D01*
X2871977Y-1337563D01*
X2861563Y-1332484D01*
X2840736Y-1332484D01*
X2927095Y-1332484D02*
G01*
X2927095Y-1441450D01*
X2927095Y-1332484D02*
G01*
X2994659Y-1332484D01*
X2927095Y-1384300D02*
G01*
X2968497Y-1384300D01*
X2927095Y-1441450D02*
G01*
X2994659Y-1441450D01*
X9312402Y3516376D02*
G01*
X9312402Y3434334D01*
X9271508Y3475481D02*
G01*
X9353295Y3475481D01*
X12356058Y2378450D02*
G01*
X12465024Y2336794D01*
X12356058Y2378450D02*
G01*
X12465024Y2419852D01*
X12428702Y2352288D02*
G01*
X12428702Y2404358D01*
X12356058Y2454142D02*
G01*
X12465024Y2454142D01*
X12356058Y2454142D02*
G01*
X12356058Y2490464D01*
X12361138Y2506212D01*
X12371552Y2516626D01*
X12381961Y2521706D01*
X12397712Y2527040D01*
X12423622Y2527040D01*
X12439111Y2521706D01*
X12449528Y2516626D01*
X12459944Y2506212D01*
X12465024Y2490464D01*
X12465024Y2454142D01*
X12356058Y2561330D02*
G01*
X12465024Y2561330D01*
X12356058Y2561330D02*
G01*
X12356058Y2597652D01*
X12361138Y2613146D01*
X12371552Y2623560D01*
X12381961Y2628894D01*
X12397712Y2633974D01*
X12423622Y2633974D01*
X12439111Y2628894D01*
X12449528Y2623560D01*
X12459944Y2613146D01*
X12465024Y2597652D01*
X12465024Y2561330D01*
X12356058Y2668264D02*
G01*
X12465024Y2668264D01*
X12356058Y2668264D02*
G01*
X12356058Y2715000D01*
X12361138Y2730494D01*
X12366472Y2735828D01*
X12376886Y2740908D01*
X12387295Y2740908D01*
X12397712Y2735828D01*
X12402794Y2730494D01*
X12407874Y2715000D01*
X12407874Y2668264D01*
X12407874Y2704586D02*
G01*
X12465024Y2740908D01*
X12356058Y2775198D02*
G01*
X12465024Y2775198D01*
X12356058Y2775198D02*
G01*
X12356058Y2842762D01*
X12407874Y2775198D02*
G01*
X12407874Y2816854D01*
X12465024Y2775198D02*
G01*
X12465024Y2842762D01*
X12371552Y2949950D02*
G01*
X12361138Y2939536D01*
X12356058Y2923788D01*
X12356058Y2903214D01*
X12361138Y2887466D01*
X12371552Y2877052D01*
X12381961Y2877052D01*
X12392378Y2882386D01*
X12397712Y2887466D01*
X12402794Y2897880D01*
X12413208Y2929122D01*
X12418288Y2939536D01*
X12423622Y2944616D01*
X12434036Y2949950D01*
X12449528Y2949950D01*
X12459944Y2939536D01*
X12465024Y2923788D01*
X12465024Y2903214D01*
X12459944Y2887466D01*
X12449528Y2877052D01*
X12371552Y3056884D02*
G01*
X12361138Y3046470D01*
X12356058Y3030976D01*
X12356058Y3010148D01*
X12361138Y2994654D01*
X12371552Y2984240D01*
X12381961Y2984240D01*
X12392378Y2989320D01*
X12397712Y2994654D01*
X12402794Y3004814D01*
X12413208Y3036056D01*
X12418288Y3046470D01*
X12423622Y3051804D01*
X12434036Y3056884D01*
X12449528Y3056884D01*
X12459944Y3046470D01*
X12465024Y3030976D01*
X12465024Y3010148D01*
X12459944Y2994654D01*
X12449528Y2984240D01*
X12356058Y3171184D02*
G01*
X12465024Y3171184D01*
X12356058Y3171184D02*
G01*
X12356058Y3217920D01*
X12361138Y3233414D01*
X12366472Y3238748D01*
X12376886Y3243828D01*
X12387295Y3243828D01*
X12397712Y3238748D01*
X12402794Y3233414D01*
X12407874Y3217920D01*
X12407874Y3171184D02*
G01*
X12407874Y3217920D01*
X12413208Y3233414D01*
X12418288Y3238748D01*
X12428702Y3243828D01*
X12444445Y3243828D01*
X12454862Y3238748D01*
X12459944Y3233414D01*
X12465024Y3217920D01*
X12465024Y3171184D01*
X12356058Y3278118D02*
G01*
X12434036Y3278118D01*
X12449528Y3283452D01*
X12459944Y3293866D01*
X12465024Y3309360D01*
X12465024Y3319774D01*
X12459944Y3335268D01*
X12449528Y3345682D01*
X12434036Y3351016D01*
X12356058Y3351016D01*
X12371552Y3457950D02*
G01*
X12361138Y3447536D01*
X12356058Y3432042D01*
X12356058Y3411214D01*
X12361138Y3395720D01*
X12371552Y3385306D01*
X12381961Y3385306D01*
X12392378Y3390386D01*
X12397712Y3395720D01*
X12402794Y3406134D01*
X12413208Y3437122D01*
X12418288Y3447536D01*
X12423622Y3452870D01*
X12434036Y3457950D01*
X12449528Y3457950D01*
X12459944Y3447536D01*
X12465024Y3432042D01*
X12465024Y3411214D01*
X12459944Y3395720D01*
X12449528Y3385306D01*
X329196Y2514594D02*
G01*
X438162Y2514594D01*
X329196Y2514594D02*
G01*
X329196Y2550916D01*
X334276Y2566664D01*
X344690Y2576824D01*
X355104Y2582158D01*
X370852Y2587238D01*
X396760Y2587238D01*
X412254Y2582158D01*
X422668Y2576824D01*
X433082Y2566664D01*
X438162Y2550916D01*
X438162Y2514594D01*
X329196Y2663184D02*
G01*
X438162Y2621528D01*
X329196Y2663184D02*
G01*
X438162Y2704840D01*
X401840Y2637276D02*
G01*
X401840Y2689092D01*
X329196Y2775452D02*
G01*
X438162Y2775452D01*
X329196Y2739130D02*
G01*
X329196Y2811774D01*
X329196Y2887720D02*
G01*
X438162Y2846064D01*
X329196Y2887720D02*
G01*
X438162Y2929122D01*
X401840Y2861558D02*
G01*
X401840Y2913628D01*
X329196Y3043422D02*
G01*
X438162Y3043422D01*
X329196Y3043422D02*
G01*
X329196Y3090158D01*
X334276Y3105906D01*
X339610Y3110986D01*
X350024Y3116320D01*
X360438Y3116320D01*
X370852Y3110986D01*
X375932Y3105906D01*
X381012Y3090158D01*
X381012Y3043422D02*
G01*
X381012Y3090158D01*
X386346Y3105906D01*
X391426Y3110986D01*
X401840Y3116320D01*
X417588Y3116320D01*
X428002Y3110986D01*
X433082Y3105906D01*
X438162Y3090158D01*
X438162Y3043422D01*
X329196Y3150610D02*
G01*
X407174Y3150610D01*
X422668Y3155690D01*
X433082Y3166104D01*
X438162Y3181598D01*
X438162Y3192012D01*
X433082Y3207760D01*
X422668Y3218174D01*
X407174Y3223254D01*
X329196Y3223254D01*
X344690Y3330188D02*
G01*
X334276Y3319774D01*
X329196Y3304280D01*
X329196Y3283452D01*
X334276Y3267958D01*
X344690Y3257544D01*
X355104Y3257544D01*
X365518Y3262624D01*
X370852Y3267958D01*
X375932Y3278372D01*
X386346Y3309614D01*
X391426Y3319774D01*
X396760Y3325108D01*
X407174Y3330188D01*
X422668Y3330188D01*
X433082Y3319774D01*
X438162Y3304280D01*
X438162Y3283452D01*
X433082Y3267958D01*
X422668Y3257544D01*
X12734533Y1647207D02*
G01*
X12734533Y1692673D01*
X12693639Y1697245D01*
X12698211Y1692673D01*
X12702783Y1679211D01*
X12702783Y1665495D01*
X12698211Y1651779D01*
X12689067Y1642635D01*
X12675605Y1638063D01*
X12666461Y1638063D01*
X12652745Y1642635D01*
X12643601Y1651779D01*
X12639029Y1665495D01*
X12639029Y1679211D01*
X12643601Y1692673D01*
X12648173Y1697245D01*
X12657317Y1701817D01*
X12734533Y1608091D02*
G01*
X12639029Y1571769D01*
X12734533Y1535447D02*
G01*
X12639029Y1571769D01*
X508000Y-1535684D02*
G01*
X508000Y-1644650D01*
X508000Y-1535684D02*
G01*
X544321Y-1535684D01*
X560070Y-1540763D01*
X570229Y-1551178D01*
X575563Y-1561592D01*
X580644Y-1577339D01*
X580644Y-1603247D01*
X575563Y-1618742D01*
X570229Y-1629155D01*
X560070Y-1639570D01*
X544321Y-1644650D01*
X508000Y-1644650D01*
X646176Y-1535684D02*
G01*
X635762Y-1540763D01*
X625347Y-1551178D01*
X620268Y-1561592D01*
X614934Y-1577339D01*
X614934Y-1603247D01*
X620268Y-1618742D01*
X625347Y-1629155D01*
X635762Y-1639570D01*
X646176Y-1644650D01*
X667004Y-1644650D01*
X677418Y-1639570D01*
X687831Y-1629155D01*
X692912Y-1618742D01*
X698245Y-1603247D01*
X698245Y-1577339D01*
X692912Y-1561592D01*
X687831Y-1551178D01*
X677418Y-1540763D01*
X667004Y-1535684D01*
X646176Y-1535684D01*
X732536Y-1535684D02*
G01*
X732536Y-1644650D01*
X732536Y-1535684D02*
G01*
X805179Y-1644650D01*
X805179Y-1535684D02*
G01*
X805179Y-1644650D01*
X839470Y-1535684D02*
G01*
X839470Y-1644650D01*
X839470Y-1535684D02*
G01*
X907034Y-1535684D01*
X839470Y-1587500D02*
G01*
X881126Y-1587500D01*
X839470Y-1644650D02*
G01*
X907034Y-1644650D01*
X1021334Y-1597913D02*
G01*
X1114805Y-1597913D01*
X1291589Y-1535684D02*
G01*
X1239520Y-1535684D01*
X1234439Y-1582420D01*
X1239520Y-1577339D01*
X1255013Y-1572005D01*
X1270762Y-1572005D01*
X1286255Y-1577339D01*
X1296670Y-1587500D01*
X1301750Y-1603247D01*
X1301750Y-1613662D01*
X1296670Y-1629155D01*
X1286255Y-1639570D01*
X1270762Y-1644650D01*
X1255013Y-1644650D01*
X1239520Y-1639570D01*
X1234439Y-1634489D01*
X1229105Y-1624076D01*
X1336039Y-1535684D02*
G01*
X1377695Y-1644650D01*
X1419352Y-1535684D02*
G01*
X1377695Y-1644650D01*
X1533652Y-1535684D02*
G01*
X1533652Y-1644650D01*
X1533652Y-1535684D02*
G01*
X1601215Y-1535684D01*
X1533652Y-1587500D02*
G01*
X1575054Y-1587500D01*
X1666494Y-1535684D02*
G01*
X1656079Y-1540763D01*
X1645920Y-1551178D01*
X1640586Y-1561592D01*
X1635505Y-1577339D01*
X1635505Y-1603247D01*
X1640586Y-1618742D01*
X1645920Y-1629155D01*
X1656079Y-1639570D01*
X1666494Y-1644650D01*
X1687321Y-1644650D01*
X1697736Y-1639570D01*
X1708150Y-1629155D01*
X1713229Y-1618742D01*
X1718563Y-1603247D01*
X1718563Y-1577339D01*
X1713229Y-1561592D01*
X1708150Y-1551178D01*
X1697736Y-1540763D01*
X1687321Y-1535684D01*
X1666494Y-1535684D01*
X1752854Y-1535684D02*
G01*
X1752854Y-1644650D01*
X1752854Y-1535684D02*
G01*
X1799589Y-1535684D01*
X1815084Y-1540763D01*
X1820418Y-1546097D01*
X1825497Y-1556512D01*
X1825497Y-1566926D01*
X1820418Y-1577339D01*
X1815084Y-1582420D01*
X1799589Y-1587500D01*
X1752854Y-1587500D01*
X1789176Y-1587500D02*
G01*
X1825497Y-1644650D01*
X1939797Y-1535684D02*
G01*
X1939797Y-1644650D01*
X1939797Y-1535684D02*
G01*
X1986534Y-1535684D01*
X2002281Y-1540763D01*
X2007361Y-1546097D01*
X2012695Y-1556512D01*
X2012695Y-1566926D01*
X2007361Y-1577339D01*
X2002281Y-1582420D01*
X1986534Y-1587500D01*
X1939797Y-1587500D01*
X1976120Y-1587500D02*
G01*
X2012695Y-1644650D01*
X2140458Y-1514855D02*
G01*
X2046986Y-1681226D01*
X2174747Y-1535684D02*
G01*
X2200656Y-1644650D01*
X2226563Y-1535684D02*
G01*
X2200656Y-1644650D01*
X2226563Y-1535684D02*
G01*
X2252725Y-1644650D01*
X2278634Y-1535684D02*
G01*
X2252725Y-1644650D01*
X508000Y-1726184D02*
G01*
X508000Y-1835150D01*
X508000Y-1726184D02*
G01*
X544321Y-1726184D01*
X560070Y-1731263D01*
X570229Y-1741678D01*
X575563Y-1752092D01*
X580644Y-1767839D01*
X580644Y-1793747D01*
X575563Y-1809242D01*
X570229Y-1819655D01*
X560070Y-1830070D01*
X544321Y-1835150D01*
X508000Y-1835150D01*
X646176Y-1726184D02*
G01*
X635762Y-1731263D01*
X625347Y-1741678D01*
X620268Y-1752092D01*
X614934Y-1767839D01*
X614934Y-1793747D01*
X620268Y-1809242D01*
X625347Y-1819655D01*
X635762Y-1830070D01*
X646176Y-1835150D01*
X667004Y-1835150D01*
X677418Y-1830070D01*
X687831Y-1819655D01*
X692912Y-1809242D01*
X698245Y-1793747D01*
X698245Y-1767839D01*
X692912Y-1752092D01*
X687831Y-1741678D01*
X677418Y-1731263D01*
X667004Y-1726184D01*
X646176Y-1726184D01*
X732536Y-1726184D02*
G01*
X732536Y-1835150D01*
X732536Y-1726184D02*
G01*
X805179Y-1835150D01*
X805179Y-1726184D02*
G01*
X805179Y-1835150D01*
X839470Y-1726184D02*
G01*
X839470Y-1835150D01*
X839470Y-1726184D02*
G01*
X907034Y-1726184D01*
X839470Y-1778000D02*
G01*
X881126Y-1778000D01*
X839470Y-1835150D02*
G01*
X907034Y-1835150D01*
X1021334Y-1788413D02*
G01*
X1114805Y-1788413D01*
X1229105Y-1726184D02*
G01*
X1229105Y-1835150D01*
X1229105Y-1726184D02*
G01*
X1275842Y-1726184D01*
X1291589Y-1731263D01*
X1296670Y-1736597D01*
X1301750Y-1747012D01*
X1301750Y-1762505D01*
X1296670Y-1772920D01*
X1291589Y-1778000D01*
X1275842Y-1783334D01*
X1229105Y-1783334D01*
X1336039Y-1726184D02*
G01*
X1336039Y-1835150D01*
X1336039Y-1726184D02*
G01*
X1383029Y-1726184D01*
X1398523Y-1731263D01*
X1403604Y-1736597D01*
X1408937Y-1747012D01*
X1408937Y-1757426D01*
X1403604Y-1767839D01*
X1398523Y-1772920D01*
X1383029Y-1778000D01*
X1336039Y-1778000D01*
X1372615Y-1778000D02*
G01*
X1408937Y-1835150D01*
X1443228Y-1726184D02*
G01*
X1443228Y-1835150D01*
X1443228Y-1726184D02*
G01*
X1510792Y-1726184D01*
X1443228Y-1778000D02*
G01*
X1484629Y-1778000D01*
X1443228Y-1835150D02*
G01*
X1510792Y-1835150D01*
X1545081Y-1726184D02*
G01*
X1545081Y-1835150D01*
X1545081Y-1726184D02*
G01*
X1591818Y-1726184D01*
X1607312Y-1731263D01*
X1612645Y-1736597D01*
X1617726Y-1747012D01*
X1617726Y-1762505D01*
X1612645Y-1772920D01*
X1607312Y-1778000D01*
X1591818Y-1783334D01*
X1545081Y-1783334D01*
X1693671Y-1726184D02*
G01*
X1652015Y-1835150D01*
X1693671Y-1726184D02*
G01*
X1735073Y-1835150D01*
X1667510Y-1798828D02*
G01*
X1719579Y-1798828D01*
X1769363Y-1726184D02*
G01*
X1769363Y-1835150D01*
X1769363Y-1726184D02*
G01*
X1816100Y-1726184D01*
X1831847Y-1731263D01*
X1836928Y-1736597D01*
X1842262Y-1747012D01*
X1842262Y-1757426D01*
X1836928Y-1767839D01*
X1831847Y-1772920D01*
X1816100Y-1778000D01*
X1769363Y-1778000D01*
X1805939Y-1778000D02*
G01*
X1842262Y-1835150D01*
X1876552Y-1726184D02*
G01*
X1876552Y-1835150D01*
X1876552Y-1726184D02*
G01*
X1944115Y-1726184D01*
X1876552Y-1778000D02*
G01*
X1917954Y-1778000D01*
X1876552Y-1835150D02*
G01*
X1944115Y-1835150D01*
X2058415Y-1726184D02*
G01*
X2058415Y-1835150D01*
X2058415Y-1726184D02*
G01*
X2105152Y-1726184D01*
X2120645Y-1731263D01*
X2125979Y-1736597D01*
X2131059Y-1747012D01*
X2131059Y-1757426D01*
X2125979Y-1767839D01*
X2120645Y-1772920D01*
X2105152Y-1778000D01*
X2058415Y-1778000D02*
G01*
X2105152Y-1778000D01*
X2120645Y-1783334D01*
X2125979Y-1788413D01*
X2131059Y-1798828D01*
X2131059Y-1814576D01*
X2125979Y-1824989D01*
X2120645Y-1830070D01*
X2105152Y-1835150D01*
X2058415Y-1835150D01*
X2196591Y-1726184D02*
G01*
X2186177Y-1731263D01*
X2175763Y-1741678D01*
X2170429Y-1752092D01*
X2165350Y-1767839D01*
X2165350Y-1793747D01*
X2170429Y-1809242D01*
X2175763Y-1819655D01*
X2186177Y-1830070D01*
X2196591Y-1835150D01*
X2217420Y-1835150D01*
X2227579Y-1830070D01*
X2237993Y-1819655D01*
X2243327Y-1809242D01*
X2248408Y-1793747D01*
X2248408Y-1767839D01*
X2243327Y-1752092D01*
X2237993Y-1741678D01*
X2227579Y-1731263D01*
X2217420Y-1726184D01*
X2196591Y-1726184D01*
X2282697Y-1726184D02*
G01*
X2282697Y-1835150D01*
X2282697Y-1726184D02*
G01*
X2324354Y-1835150D01*
X2366009Y-1726184D02*
G01*
X2324354Y-1835150D01*
X2366009Y-1726184D02*
G01*
X2366009Y-1835150D01*
X2480309Y-1726184D02*
G01*
X2480309Y-1835150D01*
X2480309Y-1726184D02*
G01*
X2547620Y-1726184D01*
X2480309Y-1778000D02*
G01*
X2521711Y-1778000D01*
X2613152Y-1726184D02*
G01*
X2602738Y-1731263D01*
X2592324Y-1741678D01*
X2587243Y-1752092D01*
X2581909Y-1767839D01*
X2581909Y-1793747D01*
X2587243Y-1809242D01*
X2592324Y-1819655D01*
X2602738Y-1830070D01*
X2613152Y-1835150D01*
X2633979Y-1835150D01*
X2644393Y-1830070D01*
X2654808Y-1819655D01*
X2659888Y-1809242D01*
X2665222Y-1793747D01*
X2665222Y-1767839D01*
X2659888Y-1752092D01*
X2654808Y-1741678D01*
X2644393Y-1731263D01*
X2633979Y-1726184D01*
X2613152Y-1726184D01*
X2699511Y-1726184D02*
G01*
X2699511Y-1835150D01*
X2699511Y-1726184D02*
G01*
X2746247Y-1726184D01*
X2761741Y-1731263D01*
X2767075Y-1736597D01*
X2772156Y-1747012D01*
X2772156Y-1757426D01*
X2767075Y-1767839D01*
X2761741Y-1772920D01*
X2746247Y-1778000D01*
X2699511Y-1778000D01*
X2735834Y-1778000D02*
G01*
X2772156Y-1835150D01*
X2928111Y-1726184D02*
G01*
X2886456Y-1835150D01*
X2928111Y-1726184D02*
G01*
X2969513Y-1835150D01*
X2901950Y-1798828D02*
G01*
X2954020Y-1798828D01*
X3076702Y-1741678D02*
G01*
X3066288Y-1731263D01*
X3050540Y-1726184D01*
X3029965Y-1726184D01*
X3014218Y-1731263D01*
X3003804Y-1741678D01*
X3003804Y-1752092D01*
X3009138Y-1762505D01*
X3014218Y-1767839D01*
X3024631Y-1772920D01*
X3055874Y-1783334D01*
X3066288Y-1788413D01*
X3071368Y-1793747D01*
X3076702Y-1804162D01*
X3076702Y-1819655D01*
X3066288Y-1830070D01*
X3050540Y-1835150D01*
X3029965Y-1835150D01*
X3014218Y-1830070D01*
X3003804Y-1819655D01*
X3183636Y-1741678D02*
G01*
X3173222Y-1731263D01*
X3157727Y-1726184D01*
X3136900Y-1726184D01*
X3121406Y-1731263D01*
X3110991Y-1741678D01*
X3110991Y-1752092D01*
X3116072Y-1762505D01*
X3121406Y-1767839D01*
X3131820Y-1772920D01*
X3162808Y-1783334D01*
X3173222Y-1788413D01*
X3178556Y-1793747D01*
X3183636Y-1804162D01*
X3183636Y-1819655D01*
X3173222Y-1830070D01*
X3157727Y-1835150D01*
X3136900Y-1835150D01*
X3121406Y-1830070D01*
X3110991Y-1819655D01*
X3217925Y-1726184D02*
G01*
X3217925Y-1835150D01*
X3217925Y-1726184D02*
G01*
X3285490Y-1726184D01*
X3217925Y-1778000D02*
G01*
X3259581Y-1778000D01*
X3217925Y-1835150D02*
G01*
X3285490Y-1835150D01*
X3319779Y-1726184D02*
G01*
X3319779Y-1835150D01*
X3319779Y-1726184D02*
G01*
X3361436Y-1835150D01*
X3402838Y-1726184D02*
G01*
X3361436Y-1835150D01*
X3402838Y-1726184D02*
G01*
X3402838Y-1835150D01*
X3437127Y-1726184D02*
G01*
X3437127Y-1835150D01*
X3437127Y-1726184D02*
G01*
X3483863Y-1726184D01*
X3499611Y-1731263D01*
X3504691Y-1736597D01*
X3510025Y-1747012D01*
X3510025Y-1757426D01*
X3504691Y-1767839D01*
X3499611Y-1772920D01*
X3483863Y-1778000D01*
X3437127Y-1778000D02*
G01*
X3483863Y-1778000D01*
X3499611Y-1783334D01*
X3504691Y-1788413D01*
X3510025Y-1798828D01*
X3510025Y-1814576D01*
X3504691Y-1824989D01*
X3499611Y-1830070D01*
X3483863Y-1835150D01*
X3437127Y-1835150D01*
X3544315Y-1726184D02*
G01*
X3544315Y-1835150D01*
X3544315Y-1835150D02*
G01*
X3606545Y-1835150D01*
X3640836Y-1726184D02*
G01*
X3682491Y-1778000D01*
X3682491Y-1835150D01*
X3723893Y-1726184D02*
G01*
X3682491Y-1778000D01*
X5435600Y2147315D02*
G01*
X5435600Y2038350D01*
X5469890Y2147315D02*
G01*
X5469890Y2038350D01*
X5469890Y2147315D02*
G01*
X5506211Y2147315D01*
X5521959Y2142236D01*
X5532120Y2131821D01*
X5537454Y2121407D01*
X5542534Y2105660D01*
X5542534Y2079752D01*
X5537454Y2064257D01*
X5532120Y2053844D01*
X5521959Y2043429D01*
X5506211Y2038350D01*
X5469890Y2038350D01*
X5613400Y2147315D02*
G01*
X5613400Y2038350D01*
X5576824Y2147315D02*
G01*
X5649722Y2147315D01*
X5836665Y2147315D02*
G01*
X5784850Y2038350D01*
X5764022Y2147315D02*
G01*
X5836665Y2147315D01*
X5870956Y2126487D02*
G01*
X5881370Y2131821D01*
X5896863Y2147315D01*
X5896863Y2038350D01*
X5941568Y2147315D02*
G01*
X5998718Y2147315D01*
X5967729Y2105660D01*
X5983224Y2105660D01*
X5993638Y2100579D01*
X5998718Y2095500D01*
X6004052Y2079752D01*
X6004052Y2069337D01*
X5998718Y2053844D01*
X5988304Y2043429D01*
X5972809Y2038350D01*
X5957315Y2038350D01*
X5941568Y2043429D01*
X5936488Y2048510D01*
X5931154Y2058923D01*
X6048756Y2147315D02*
G01*
X6105906Y2147315D01*
X6074663Y2105660D01*
X6090158Y2105660D01*
X6100572Y2100579D01*
X6105906Y2095500D01*
X6110986Y2079752D01*
X6110986Y2069337D01*
X6105906Y2053844D01*
X6095491Y2043429D01*
X6079743Y2038350D01*
X6064250Y2038350D01*
X6048756Y2043429D01*
X6043422Y2048510D01*
X6038341Y2058923D01*
X12242802Y1942337D02*
G01*
X12242802Y1846834D01*
X12242802Y1942337D02*
G01*
X12283696Y1942337D01*
X12297412Y1937765D01*
X12301984Y1933194D01*
X12306302Y1924304D01*
X12306302Y1915160D01*
X12301984Y1906015D01*
X12297412Y1901444D01*
X12283696Y1896871D01*
X12242802Y1896871D01*
X12274552Y1896871D02*
G01*
X12306302Y1846834D01*
X12336528Y1924304D02*
G01*
X12345418Y1928876D01*
X12359134Y1942337D01*
X12359134Y1846834D01*
X12446000Y1942337D02*
G01*
X12446000Y1846834D01*
X12446000Y1942337D02*
G01*
X12477750Y1942337D01*
X12491465Y1937765D01*
X12500609Y1928876D01*
X12505181Y1919731D01*
X12509500Y1906015D01*
X12509500Y1883410D01*
X12505181Y1869694D01*
X12500609Y1860550D01*
X12491465Y1851405D01*
X12477750Y1846834D01*
X12446000Y1846834D01*
X12539725Y1924304D02*
G01*
X12548615Y1928876D01*
X12562331Y1942337D01*
X12562331Y1846834D01*
X10261605Y5765053D02*
G01*
X10261605Y5696981D01*
X10266177Y5683265D01*
X10275321Y5674121D01*
X10288783Y5669549D01*
X10297927Y5669549D01*
X10311643Y5674121D01*
X10320787Y5683265D01*
X10325105Y5696981D01*
X10325105Y5765053D01*
X10359649Y5742447D02*
G01*
X10359649Y5747019D01*
X10364221Y5755909D01*
X10368793Y5760481D01*
X10377937Y5765053D01*
X10396225Y5765053D01*
X10405115Y5760481D01*
X10409687Y5755909D01*
X10414259Y5747019D01*
X10414259Y5737875D01*
X10409687Y5728731D01*
X10400543Y5715015D01*
X10355331Y5669549D01*
X10418831Y5669549D01*
X10261605Y2856732D02*
G01*
X10261605Y2788660D01*
X10266177Y2774944D01*
X10275321Y2765800D01*
X10288783Y2761228D01*
X10297927Y2761228D01*
X10311643Y2765800D01*
X10320787Y2774944D01*
X10325105Y2788660D01*
X10325105Y2856732D01*
X10364221Y2856732D02*
G01*
X10414259Y2856732D01*
X10387081Y2820410D01*
X10400797Y2820410D01*
X10409687Y2815838D01*
X10414259Y2811266D01*
X10418831Y2797804D01*
X10418831Y2788660D01*
X10414259Y2774944D01*
X10405115Y2765800D01*
X10391653Y2761228D01*
X10377937Y2761228D01*
X10364221Y2765800D01*
X10359649Y2770372D01*
X10355331Y2779516D01*
D11*
X4279900Y5284215D02*
G01*
X4279900Y5206237D01*
X4284979Y5190744D01*
X4295393Y5180329D01*
X4311141Y5175250D01*
X4321556Y5175250D01*
X4337050Y5180329D01*
X4347463Y5190744D01*
X4352543Y5206237D01*
X4352543Y5284215D01*
X4386834Y5263387D02*
G01*
X4397247Y5268721D01*
X4412995Y5284215D01*
X4412995Y5175250D01*
D10*
X4637775Y5220456D02*
G01*
X4610089Y5147558D01*
X4637775Y5220456D02*
G01*
X4665461Y5147558D01*
X4620503Y5171942D02*
G01*
X4655047Y5171942D01*
X4864089Y5220456D02*
G01*
X4864089Y5147558D01*
X4864089Y5220456D02*
G01*
X4895331Y5220456D01*
X4905745Y5216900D01*
X4909047Y5213344D01*
X4912603Y5206486D01*
X4912603Y5199628D01*
X4909047Y5192770D01*
X4905745Y5189214D01*
X4895331Y5185658D01*
X4864089Y5185658D02*
G01*
X4895331Y5185658D01*
X4905745Y5182356D01*
X4909047Y5178800D01*
X4912603Y5171942D01*
X4912603Y5161528D01*
X4909047Y5154670D01*
X4905745Y5151114D01*
X4895331Y5147558D01*
X4864089Y5147558D01*
X5170159Y5203184D02*
G01*
X5166603Y5210042D01*
X5159745Y5216900D01*
X5152633Y5220456D01*
X5138917Y5220456D01*
X5132059Y5216900D01*
X5124947Y5210042D01*
X5121645Y5203184D01*
X5118089Y5192770D01*
X5118089Y5175244D01*
X5121645Y5165084D01*
X5124947Y5157972D01*
X5132059Y5151114D01*
X5138917Y5147558D01*
X5152633Y5147558D01*
X5159745Y5151114D01*
X5166603Y5157972D01*
X5170159Y5165084D01*
X5372087Y5220456D02*
G01*
X5372087Y5147558D01*
X5372087Y5220456D02*
G01*
X5396217Y5220456D01*
X5406631Y5216900D01*
X5413743Y5210042D01*
X5417045Y5203184D01*
X5420601Y5192770D01*
X5420601Y5175244D01*
X5417045Y5165084D01*
X5413743Y5157972D01*
X5406631Y5151114D01*
X5396217Y5147558D01*
X5372087Y5147558D01*
X5626087Y5220456D02*
G01*
X5626087Y5147558D01*
X5626087Y5220456D02*
G01*
X5671045Y5220456D01*
X5626087Y5185658D02*
G01*
X5653773Y5185658D01*
X5626087Y5147558D02*
G01*
X5671045Y5147558D01*
X5880087Y5220456D02*
G01*
X5880087Y5147558D01*
X5880087Y5220456D02*
G01*
X5925045Y5220456D01*
X5880087Y5185658D02*
G01*
X5907773Y5185658D01*
X6186157Y5203184D02*
G01*
X6182601Y5210042D01*
X6175743Y5216900D01*
X6168631Y5220456D01*
X6154915Y5220456D01*
X6148057Y5216900D01*
X6140945Y5210042D01*
X6137643Y5203184D01*
X6134087Y5192770D01*
X6134087Y5175244D01*
X6137643Y5165084D01*
X6140945Y5157972D01*
X6148057Y5151114D01*
X6154915Y5147558D01*
X6168631Y5147558D01*
X6175743Y5151114D01*
X6182601Y5157972D01*
X6186157Y5165084D01*
X6186157Y5175244D01*
X6168631Y5175244D02*
G01*
X6186157Y5175244D01*
X6388087Y5220456D02*
G01*
X6388087Y5147558D01*
X6436601Y5220456D02*
G01*
X6436601Y5147558D01*
X6388087Y5185658D02*
G01*
X6436601Y5185658D01*
X6930628Y5220456D02*
G01*
X6930628Y5165084D01*
X6927326Y5154670D01*
X6923770Y5151114D01*
X6916912Y5147558D01*
X6910054Y5147558D01*
X6902942Y5151114D01*
X6899640Y5154670D01*
X6896084Y5165084D01*
X6896084Y5171942D01*
X7150084Y5220456D02*
G01*
X7150084Y5147558D01*
X7198598Y5220456D02*
G01*
X7150084Y5171942D01*
X7167356Y5189214D02*
G01*
X7198598Y5147558D01*
X4343389Y4952486D02*
G01*
X4350247Y4956042D01*
X4360661Y4966456D01*
X4360661Y4893558D01*
X4383521Y4952486D02*
G01*
X4390379Y4956042D01*
X4400793Y4966456D01*
X4400793Y4893558D01*
X4330689Y4698486D02*
G01*
X4337547Y4702042D01*
X4347961Y4712456D01*
X4347961Y4639558D01*
X4391649Y4712456D02*
G01*
X4381235Y4708900D01*
X4374377Y4698486D01*
X4370821Y4681214D01*
X4370821Y4670800D01*
X4374377Y4653528D01*
X4381235Y4643114D01*
X4391649Y4639558D01*
X4398507Y4639558D01*
X4408921Y4643114D01*
X4415779Y4653528D01*
X4419335Y4670800D01*
X4419335Y4681214D01*
X4415779Y4698486D01*
X4408921Y4708900D01*
X4398507Y4712456D01*
X4391649Y4712456D01*
X4401047Y4434075D02*
G01*
X4397745Y4423661D01*
X4390633Y4416803D01*
X4380219Y4413247D01*
X4376917Y4413247D01*
X4366503Y4416803D01*
X4359645Y4423661D01*
X4356089Y4434075D01*
X4356089Y4437631D01*
X4359645Y4448045D01*
X4366503Y4454903D01*
X4376917Y4458459D01*
X4380219Y4458459D01*
X4390633Y4454903D01*
X4397745Y4448045D01*
X4401047Y4434075D01*
X4401047Y4416803D01*
X4397745Y4399531D01*
X4390633Y4389117D01*
X4380219Y4385561D01*
X4373361Y4385561D01*
X4362947Y4389117D01*
X4359645Y4395975D01*
X4373361Y4204459D02*
G01*
X4362947Y4200903D01*
X4359645Y4194045D01*
X4359645Y4187187D01*
X4362947Y4180075D01*
X4370059Y4176773D01*
X4383775Y4173217D01*
X4394189Y4169661D01*
X4401047Y4162803D01*
X4404603Y4155945D01*
X4404603Y4145531D01*
X4401047Y4138673D01*
X4397745Y4135117D01*
X4387331Y4131561D01*
X4373361Y4131561D01*
X4362947Y4135117D01*
X4359645Y4138673D01*
X4356089Y4145531D01*
X4356089Y4155945D01*
X4359645Y4162803D01*
X4366503Y4169661D01*
X4376917Y4173217D01*
X4390633Y4176773D01*
X4397745Y4180075D01*
X4401047Y4187187D01*
X4401047Y4194045D01*
X4397745Y4200903D01*
X4387331Y4204459D01*
X4373361Y4204459D01*
X4404603Y3950459D02*
G01*
X4370059Y3877561D01*
X4356089Y3950459D02*
G01*
X4404603Y3950459D01*
X4397672Y3675250D02*
G01*
X4394116Y3682108D01*
X4383702Y3685664D01*
X4376844Y3685664D01*
X4366430Y3682108D01*
X4359572Y3671694D01*
X4356016Y3654422D01*
X4356016Y3637150D01*
X4359572Y3623180D01*
X4366430Y3616322D01*
X4376844Y3612766D01*
X4380146Y3612766D01*
X4390560Y3616322D01*
X4397672Y3623180D01*
X4400974Y3633594D01*
X4400974Y3637150D01*
X4397672Y3647564D01*
X4390560Y3654422D01*
X4380146Y3657978D01*
X4376844Y3657978D01*
X4366430Y3654422D01*
X4359572Y3647564D01*
X4356016Y3637150D01*
X4397672Y3431664D02*
G01*
X4362874Y3431664D01*
X4359572Y3400422D01*
X4362874Y3403978D01*
X4373288Y3407280D01*
X4383702Y3407280D01*
X4394116Y3403978D01*
X4400974Y3396866D01*
X4404530Y3386452D01*
X4404530Y3379594D01*
X4400974Y3369180D01*
X4394116Y3362322D01*
X4383702Y3358766D01*
X4373288Y3358766D01*
X4362874Y3362322D01*
X4359572Y3365878D01*
X4356016Y3372736D01*
X4390560Y3177667D02*
G01*
X4356016Y3129153D01*
X4408086Y3129153D01*
X4390560Y3177667D02*
G01*
X4390560Y3104769D01*
X4362947Y2934462D02*
G01*
X4401047Y2934462D01*
X4380219Y2906776D01*
X4390633Y2906776D01*
X4397745Y2903220D01*
X4401047Y2899663D01*
X4404603Y2889250D01*
X4404603Y2882392D01*
X4401047Y2871978D01*
X4394189Y2865120D01*
X4383775Y2861563D01*
X4373361Y2861563D01*
X4362947Y2865120D01*
X4359645Y2868676D01*
X4356089Y2875534D01*
X4359645Y2663189D02*
G01*
X4359645Y2666492D01*
X4362947Y2673350D01*
X4366503Y2676905D01*
X4373361Y2680462D01*
X4387331Y2680462D01*
X4394189Y2676905D01*
X4397745Y2673350D01*
X4401047Y2666492D01*
X4401047Y2659634D01*
X4397745Y2652776D01*
X4390633Y2642362D01*
X4356089Y2607563D01*
X4404603Y2607563D01*
X4368782Y2399786D02*
G01*
X4375640Y2403342D01*
X4386054Y2413756D01*
X4386054Y2340858D01*
X6667484Y5220456D02*
G01*
X6667484Y5147558D01*
G36*
X0Y5842000D02*
G01*
X0Y5588000D01*
X254000Y5842000D01*
G37*
G36*
X12786106Y254000D02*
G01*
X12532106Y0D01*
X12786106Y0D01*
G37*
D12*
X7340584Y4356092D02*
G01*
X7785671Y4356105D01*
X4508489Y2387594D02*
G01*
X4508489Y2385004D01*
X4638324Y2255169D01*
X4273539Y4076702D02*
G01*
X4413227Y4076702D01*
X4025877Y4330710D02*
G01*
X4241777Y4330710D01*
X4025877Y3822710D02*
G01*
X4229077Y3822710D01*
X4013177Y4584702D02*
G01*
X4470377Y4584702D01*
X7341207Y4610087D02*
G01*
X7785707Y4610087D01*
X7557107Y3848100D02*
G01*
X7785707Y3848100D01*
X7658707Y4102100D02*
G01*
X7773007Y4102100D01*
D10*
X12372334Y1655518D02*
G01*
X12372334Y1751406D01*
X12240214Y1751406D01*
X12240214Y1655518D01*
X12372334Y1570276D02*
G01*
X12372334Y1474388D01*
X12240214Y1474388D01*
X12240214Y1570276D01*
D12*
X12423114Y1436367D02*
G01*
X12595834Y1436367D01*
X12595834Y1436367D02*
G01*
X12595834Y1583687D01*
X12423114Y1436367D02*
G01*
X12423114Y1583687D01*
X12595834Y1642107D02*
G01*
X12595834Y1758947D01*
X12423114Y1644647D02*
G01*
X12423114Y1758947D01*
X12423114Y1758947D02*
G01*
X12458674Y1794507D01*
X12560274Y1794507D01*
X12595834Y1758947D01*
D13*
X12468834Y1605277D02*
G01*
X12547574Y1605277D01*
X12508679Y1605277D02*
G01*
X12508679Y1622813D01*
D12*
X9535180Y5708792D02*
G01*
X9795179Y5708792D01*
X9915179Y5708792D02*
G01*
X10175179Y5708792D01*
X10175179Y3028792D02*
G01*
X9535180Y3028792D01*
X9535180Y5708792D02*
G01*
X9535180Y5609907D01*
X9535180Y5413677D02*
G01*
X9535180Y5349044D01*
X9535180Y5166540D02*
G01*
X9535180Y5095044D01*
X9535180Y4912540D02*
G01*
X9535180Y4841044D01*
X9535180Y4658540D02*
G01*
X9535180Y4587044D01*
X9535180Y4404540D02*
G01*
X9535180Y4333044D01*
X9535180Y4150540D02*
G01*
X9535180Y4079044D01*
X9535180Y3896540D02*
G01*
X9535180Y3825044D01*
X9535180Y3642540D02*
G01*
X9535180Y3571044D01*
X9535180Y3388540D02*
G01*
X9535180Y3317854D01*
X9535180Y3133730D02*
G01*
X9535180Y3028792D01*
X10175179Y5708792D02*
G01*
X10175179Y5603854D01*
X10175179Y5419730D02*
G01*
X10175179Y5349854D01*
X10175179Y5165730D02*
G01*
X10175179Y5095854D01*
X10175179Y4911730D02*
G01*
X10175179Y4841854D01*
X10175179Y4657730D02*
G01*
X10175179Y4587854D01*
X10175179Y4403730D02*
G01*
X10175179Y4333854D01*
X10175179Y4149730D02*
G01*
X10175179Y4079854D01*
X10175179Y3895730D02*
G01*
X10175179Y3825854D01*
X10175179Y3641730D02*
G01*
X10175179Y3571854D01*
X10175179Y3387730D02*
G01*
X10175179Y3317854D01*
X10175179Y3133730D02*
G01*
X10175179Y3028792D01*
X9535180Y2800497D02*
G01*
X9795179Y2800497D01*
X9915179Y2800497D02*
G01*
X10175179Y2800497D01*
X10175179Y120497D02*
G01*
X9535180Y120497D01*
X9535180Y2800497D02*
G01*
X9535180Y2701612D01*
X9535180Y2505382D02*
G01*
X9535180Y2440749D01*
X9535180Y2258245D02*
G01*
X9535180Y2186749D01*
X9535180Y2004245D02*
G01*
X9535180Y1932749D01*
X9535180Y1750245D02*
G01*
X9535180Y1678749D01*
X9535180Y1496245D02*
G01*
X9535180Y1424749D01*
X9535180Y1242245D02*
G01*
X9535180Y1170749D01*
X9535180Y988245D02*
G01*
X9535180Y916749D01*
X9535180Y734245D02*
G01*
X9535180Y662749D01*
X9535180Y480245D02*
G01*
X9535180Y409559D01*
X9535180Y225435D02*
G01*
X9535180Y120497D01*
X10175179Y2800497D02*
G01*
X10175179Y2695559D01*
X10175179Y2511435D02*
G01*
X10175179Y2441559D01*
X10175179Y2257435D02*
G01*
X10175179Y2187559D01*
X10175179Y2003435D02*
G01*
X10175179Y1933559D01*
X10175179Y1749435D02*
G01*
X10175179Y1679559D01*
X10175179Y1495435D02*
G01*
X10175179Y1425559D01*
X10175179Y1241435D02*
G01*
X10175179Y1171559D01*
X10175179Y987435D02*
G01*
X10175179Y917559D01*
X10175179Y733435D02*
G01*
X10175179Y663559D01*
X10175179Y479435D02*
G01*
X10175179Y409559D01*
X10175179Y225435D02*
G01*
X10175179Y120497D01*
X4508487Y5041892D02*
G01*
X7302487Y5041892D01*
X7302487Y2247892D01*
X4508487Y2247892D01*
X4508487Y5041892D01*
X5143487Y4406892D02*
G01*
X6667487Y4406892D01*
X6667487Y2882892D01*
X5143487Y2882892D01*
X5143487Y4406892D01*
D14*
G75*
G01*
X9474180Y5654286D02*
G03*
X9474434Y5654286I127J-12498D01*
D12*
G75*
G01*
X9915152Y5704650D02*
G02*
X9795208Y5704545I-59976J4634D01*
D14*
G75*
G01*
X9474180Y2745991D02*
G03*
X9474434Y2745991I127J-12498D01*
D12*
G75*
G01*
X9915152Y2796355D02*
G02*
X9795208Y2796250I-59976J4634D01*
G75*
G01
X4486097Y2171700D02*
G03X4486097Y2171700I-28397J0D01*
X756081Y5789320D02*
G01*
X1606092Y5789320D01*
X1606092Y2939313D01*
X756081Y2939313D01*
X756081Y5789320D01*
X756107Y2881020D02*
G01*
X1606118Y2881020D01*
X1606118Y31013D01*
X756107Y31013D01*
X756107Y2881020D01*
X11179987Y5794502D02*
G01*
X12029998Y5794502D01*
X12029998Y2944495D01*
X11179987Y2944495D01*
X11179987Y5794502D01*
X11180013Y2886202D02*
G01*
X12030024Y2886202D01*
X12030024Y36195D01*
X11180013Y36195D01*
X11180013Y2886202D01*
X12151106Y1397000D02*
G01*
X12659106Y1397000D01*
X12659106Y889000D01*
X12151106Y889000D01*
X12151106Y1397000D01*
X6375400Y882243D02*
G01*
X9225406Y882243D01*
X9225406Y32232D01*
X6375400Y32232D01*
X6375400Y882243D01*
X3467100Y882218D02*
G01*
X6317106Y882218D01*
X6317106Y32207D01*
X3467100Y32207D01*
X3467100Y882218D01*
X2607487Y5789320D02*
G01*
X3457498Y5789320D01*
X3457498Y2939313D01*
X2607487Y2939313D01*
X2607487Y5789320D01*
X8351265Y5794502D02*
G01*
X9201277Y5794502D01*
X9201277Y2944495D01*
X8351265Y2944495D01*
X8351265Y5794502D01*
M02*
