G04 Layer: TopLayer*
G04 Panelize: , Column: 2, Row: 2, Board Size: 58.42mm x 58.42mm, Panelized Board Size: 118.84mm x 118.84mm*
G04 EasyEDA v6.5.34, 2023-09-05 23:37:52*
G04 71e8e7d8462e44579d9289b60e05a131,5a6b42c53f6a479593ecc07194224c93,10*
G04 Gerber Generator version 0.2*
G04 Scale: 100 percent, Rotated: No, Reflected: No *
G04 Dimensions in millimeters *
G04 leading zeros omitted , absolute positions ,4 integer and 5 decimal *
%FSLAX45Y45*%
%MOMM*%

%ADD10C,0.2540*%
%ADD11C,0.5000*%
%ADD12R,0.8999X1.0000*%
%ADD13R,1.1000X1.0000*%
%ADD14R,1.0000X0.8999*%
%ADD15O,2.3880064X0.5739892*%
%ADD16R,1.0000X1.1000*%
%ADD17C,5.0000*%
%ADD18C,1.5240*%
%ADD19C,1.9000*%
%ADD20C,2.0000*%
%ADD21C,1.8000*%
%ADD22C,0.6096*%
%ADD23C,0.0140*%

%LPD*%
G36*
X36068Y25908D02*
G01*
X32156Y26670D01*
X28905Y28905D01*
X26670Y32156D01*
X25908Y36068D01*
X25908Y5805932D01*
X26670Y5809792D01*
X28905Y5813094D01*
X32156Y5815330D01*
X36068Y5816092D01*
X5805932Y5815584D01*
X5809843Y5814822D01*
X5813094Y5812637D01*
X5815330Y5809335D01*
X5816092Y5805424D01*
X5816092Y36068D01*
X5815330Y32156D01*
X5813094Y28905D01*
X5809843Y26670D01*
X5805932Y25908D01*
G37*

%LPC*%
G36*
X1181100Y5521655D02*
G01*
X1194917Y5522518D01*
X1208481Y5525262D01*
X1221638Y5529681D01*
X1234033Y5535828D01*
X1245565Y5543499D01*
X1255979Y5552643D01*
X1265123Y5563057D01*
X1272794Y5574588D01*
X1278940Y5586984D01*
X1283360Y5600141D01*
X1286103Y5613704D01*
X1286967Y5627522D01*
X1286103Y5641340D01*
X1283360Y5654903D01*
X1278940Y5668060D01*
X1272794Y5680456D01*
X1265123Y5691987D01*
X1255979Y5702401D01*
X1245565Y5711545D01*
X1234033Y5719216D01*
X1221638Y5725363D01*
X1208481Y5729782D01*
X1194917Y5732526D01*
X1181100Y5733389D01*
X1167282Y5732526D01*
X1153718Y5729782D01*
X1140561Y5725363D01*
X1128166Y5719216D01*
X1116634Y5711545D01*
X1106220Y5702401D01*
X1097076Y5691987D01*
X1089406Y5680456D01*
X1083259Y5668060D01*
X1078839Y5654903D01*
X1076096Y5641340D01*
X1075232Y5627522D01*
X1076096Y5613704D01*
X1078839Y5600141D01*
X1083259Y5586984D01*
X1089406Y5574588D01*
X1097076Y5563057D01*
X1106220Y5552643D01*
X1116634Y5543499D01*
X1128166Y5535828D01*
X1140561Y5529681D01*
X1153718Y5525262D01*
X1167282Y5522518D01*
G37*
G36*
X393700Y5473700D02*
G01*
X656590Y5473700D01*
X654710Y5495594D01*
X650849Y5518353D01*
X645109Y5540756D01*
X637540Y5562549D01*
X628142Y5583682D01*
X617016Y5603900D01*
X604215Y5623153D01*
X589838Y5641289D01*
X574040Y5658104D01*
X556869Y5673598D01*
X538480Y5687568D01*
X518972Y5699912D01*
X498500Y5710631D01*
X477164Y5719572D01*
X455218Y5726734D01*
X432714Y5732018D01*
X409854Y5735370D01*
X393700Y5736386D01*
G37*
G36*
X3540861Y58775D02*
G01*
X3639718Y58775D01*
X3646068Y59486D01*
X3651504Y61417D01*
X3656431Y64516D01*
X3660495Y68580D01*
X3661714Y70459D01*
X3664508Y73406D01*
X3668268Y75031D01*
X3672332Y75031D01*
X3676091Y73406D01*
X3678885Y70459D01*
X3680104Y68580D01*
X3684168Y64516D01*
X3689096Y61417D01*
X3694531Y59486D01*
X3700881Y58775D01*
X3799738Y58775D01*
X3806037Y59486D01*
X3811524Y61417D01*
X3816400Y64516D01*
X3820515Y68580D01*
X3823563Y73507D01*
X3825494Y78943D01*
X3826205Y85293D01*
X3826205Y194106D01*
X3825494Y200456D01*
X3823563Y205892D01*
X3820515Y210820D01*
X3816400Y214884D01*
X3811524Y217982D01*
X3806037Y219913D01*
X3799738Y220624D01*
X3787343Y220624D01*
X3782974Y221589D01*
X3779469Y224332D01*
X3777234Y227025D01*
X3697935Y306324D01*
X3691737Y311454D01*
X3685032Y315010D01*
X3677818Y317195D01*
X3669792Y318008D01*
X3283508Y318008D01*
X3279597Y318770D01*
X3276295Y321005D01*
X3274720Y322580D01*
X3266694Y328218D01*
X3257753Y332333D01*
X3248304Y334873D01*
X3238500Y335737D01*
X3228695Y334873D01*
X3219246Y332333D01*
X3210306Y328218D01*
X3202279Y322580D01*
X3195320Y315620D01*
X3189681Y307594D01*
X3185566Y298653D01*
X3183026Y289204D01*
X3182162Y279400D01*
X3183026Y269595D01*
X3185566Y260146D01*
X3189681Y251206D01*
X3195320Y243179D01*
X3202279Y236220D01*
X3205327Y234086D01*
X3208223Y230987D01*
X3209594Y226923D01*
X3209188Y222707D01*
X3207105Y218998D01*
X3203702Y216509D01*
X3199536Y215595D01*
X3191662Y214884D01*
X3186176Y213004D01*
X3181299Y209905D01*
X3177184Y205790D01*
X3174085Y200914D01*
X3172206Y195427D01*
X3171494Y189128D01*
X3171494Y152400D01*
X3229711Y152400D01*
X3229711Y212953D01*
X3230372Y216662D01*
X3232353Y219811D01*
X3235350Y222097D01*
X3238957Y223113D01*
X3244037Y223520D01*
X3248202Y223012D01*
X3251809Y220929D01*
X3254248Y217525D01*
X3255111Y213410D01*
X3255111Y152400D01*
X3313277Y152400D01*
X3313277Y189128D01*
X3312566Y195427D01*
X3310686Y200914D01*
X3307587Y205790D01*
X3303473Y209905D01*
X3298596Y213004D01*
X3293110Y214884D01*
X3286810Y215595D01*
X3277463Y215595D01*
X3273298Y216509D01*
X3269894Y218998D01*
X3267811Y222707D01*
X3267405Y226923D01*
X3268776Y230987D01*
X3271672Y234086D01*
X3274720Y236220D01*
X3276295Y237794D01*
X3279597Y240029D01*
X3283508Y240792D01*
X3539083Y240792D01*
X3543350Y239877D01*
X3546856Y237236D01*
X3548887Y233375D01*
X3549142Y229006D01*
X3547516Y224942D01*
X3544366Y221945D01*
X3540251Y220522D01*
X3534562Y219913D01*
X3529076Y217982D01*
X3524199Y214884D01*
X3520084Y210820D01*
X3517036Y205892D01*
X3515106Y200456D01*
X3514394Y194106D01*
X3514394Y188468D01*
X3513632Y184556D01*
X3511397Y181305D01*
X3508146Y179070D01*
X3504234Y178308D01*
X3493465Y178308D01*
X3489807Y178968D01*
X3486607Y180949D01*
X3484372Y183896D01*
X3483356Y187502D01*
X3482543Y195529D01*
X3480663Y200914D01*
X3477564Y205790D01*
X3473500Y209905D01*
X3468573Y213004D01*
X3463137Y214884D01*
X3456787Y215595D01*
X3367938Y215595D01*
X3361639Y214884D01*
X3356152Y213004D01*
X3351276Y209905D01*
X3347161Y205790D01*
X3344113Y200914D01*
X3342182Y195427D01*
X3341471Y189128D01*
X3341471Y90271D01*
X3342182Y83921D01*
X3344113Y78486D01*
X3347161Y73558D01*
X3351276Y69494D01*
X3356152Y66395D01*
X3361639Y64516D01*
X3367938Y63804D01*
X3456787Y63804D01*
X3463137Y64516D01*
X3468573Y66395D01*
X3473500Y69494D01*
X3477564Y73558D01*
X3480663Y78486D01*
X3482543Y83870D01*
X3483356Y91897D01*
X3484372Y95504D01*
X3486607Y98450D01*
X3489807Y100431D01*
X3493465Y101092D01*
X3504234Y101092D01*
X3508146Y100330D01*
X3511397Y98094D01*
X3513632Y94843D01*
X3514394Y90932D01*
X3514394Y85293D01*
X3515106Y78943D01*
X3517036Y73507D01*
X3520084Y68580D01*
X3524199Y64516D01*
X3529076Y61417D01*
X3534562Y59486D01*
G37*
G36*
X5473700Y5473700D02*
G01*
X5736590Y5473700D01*
X5734710Y5495594D01*
X5730849Y5518353D01*
X5725109Y5540756D01*
X5717540Y5562549D01*
X5708142Y5583682D01*
X5697016Y5603900D01*
X5684215Y5623153D01*
X5669838Y5641289D01*
X5654040Y5658104D01*
X5636869Y5673598D01*
X5618480Y5687568D01*
X5598972Y5699912D01*
X5578500Y5710631D01*
X5557164Y5719572D01*
X5535218Y5726734D01*
X5512714Y5732018D01*
X5489854Y5735370D01*
X5473700Y5736386D01*
G37*
G36*
X3255111Y63804D02*
G01*
X3286810Y63804D01*
X3293110Y64516D01*
X3298596Y66395D01*
X3303473Y69494D01*
X3307587Y73558D01*
X3310686Y78486D01*
X3312566Y83921D01*
X3313277Y90271D01*
X3313277Y127000D01*
X3255111Y127000D01*
G37*
G36*
X3197961Y63804D02*
G01*
X3229711Y63804D01*
X3229711Y127000D01*
X3171494Y127000D01*
X3171494Y90271D01*
X3172206Y83921D01*
X3174085Y78486D01*
X3177184Y73558D01*
X3181299Y69494D01*
X3186176Y66395D01*
X3191662Y64516D01*
G37*
G36*
X2555189Y63804D02*
G01*
X2586888Y63804D01*
X2586888Y127000D01*
X2528722Y127000D01*
X2528722Y90271D01*
X2529433Y83972D01*
X2531313Y78486D01*
X2534412Y73609D01*
X2538526Y69494D01*
X2543403Y66395D01*
X2548890Y64516D01*
G37*
G36*
X2612288Y63804D02*
G01*
X2644038Y63804D01*
X2650337Y64516D01*
X2655824Y66395D01*
X2660700Y69494D01*
X2664815Y73609D01*
X2667914Y78486D01*
X2669794Y83972D01*
X2670505Y90271D01*
X2670505Y127000D01*
X2612288Y127000D01*
G37*
G36*
X105664Y5473700D02*
G01*
X368300Y5473700D01*
X368300Y5736437D01*
X363677Y5736336D01*
X340715Y5733948D01*
X318008Y5729630D01*
X295757Y5723382D01*
X274066Y5715355D01*
X253187Y5705500D01*
X233171Y5693968D01*
X214172Y5680760D01*
X196392Y5666028D01*
X179882Y5649874D01*
X164795Y5632348D01*
X151180Y5613704D01*
X139242Y5593892D01*
X128981Y5573217D01*
X120446Y5551728D01*
X113792Y5529630D01*
X108966Y5507024D01*
X106070Y5484063D01*
G37*
G36*
X5185664Y5473700D02*
G01*
X5448300Y5473700D01*
X5448300Y5736437D01*
X5443677Y5736336D01*
X5420715Y5733948D01*
X5398008Y5729630D01*
X5375757Y5723382D01*
X5354066Y5715355D01*
X5333187Y5705500D01*
X5313172Y5693968D01*
X5294172Y5680760D01*
X5276392Y5666028D01*
X5259882Y5649874D01*
X5244795Y5632348D01*
X5231180Y5613704D01*
X5219242Y5593892D01*
X5208981Y5573217D01*
X5200446Y5551728D01*
X5193792Y5529630D01*
X5188966Y5507024D01*
X5186070Y5484063D01*
G37*
G36*
X3124200Y5404662D02*
G01*
X3134004Y5405526D01*
X3143453Y5408066D01*
X3145790Y5409133D01*
X3150108Y5410098D01*
X5054092Y5410098D01*
X5058359Y5409133D01*
X5060696Y5408066D01*
X5070195Y5405526D01*
X5080000Y5404662D01*
X5089753Y5405526D01*
X5099253Y5408066D01*
X5108143Y5412181D01*
X5116220Y5417820D01*
X5123129Y5424779D01*
X5128768Y5432806D01*
X5132933Y5441746D01*
X5135473Y5451195D01*
X5136337Y5461000D01*
X5135473Y5470804D01*
X5132933Y5480253D01*
X5128768Y5489194D01*
X5123129Y5497220D01*
X5116220Y5504180D01*
X5108143Y5509818D01*
X5099253Y5513933D01*
X5089753Y5516473D01*
X5080000Y5517337D01*
X5070195Y5516473D01*
X5060696Y5513933D01*
X5058359Y5512866D01*
X5054092Y5511901D01*
X4708956Y5511901D01*
X4704537Y5512917D01*
X4701032Y5515711D01*
X4699050Y5519775D01*
X4699050Y5524246D01*
X4700981Y5528360D01*
X4704435Y5531154D01*
X4713833Y5535777D01*
X4725314Y5543499D01*
X4735728Y5552643D01*
X4744872Y5563057D01*
X4752594Y5574538D01*
X4758690Y5586984D01*
X4763160Y5600090D01*
X4765852Y5613654D01*
X4766767Y5627471D01*
X4765852Y5641340D01*
X4763160Y5654903D01*
X4758690Y5668010D01*
X4752594Y5680456D01*
X4744872Y5691936D01*
X4735728Y5702350D01*
X4725314Y5711494D01*
X4713833Y5719216D01*
X4701387Y5725312D01*
X4688281Y5729782D01*
X4674717Y5732475D01*
X4660900Y5733389D01*
X4647031Y5732475D01*
X4633468Y5729782D01*
X4620361Y5725312D01*
X4607915Y5719216D01*
X4596434Y5711494D01*
X4586020Y5702350D01*
X4576876Y5691936D01*
X4569155Y5680456D01*
X4563059Y5668010D01*
X4558588Y5654903D01*
X4555896Y5641340D01*
X4554982Y5627471D01*
X4555896Y5613654D01*
X4558588Y5600090D01*
X4563059Y5586984D01*
X4569155Y5574538D01*
X4576876Y5563057D01*
X4586020Y5552643D01*
X4596434Y5543499D01*
X4607915Y5535777D01*
X4617313Y5531154D01*
X4620768Y5528360D01*
X4622698Y5524246D01*
X4622698Y5519775D01*
X4620717Y5515711D01*
X4617212Y5512917D01*
X4612792Y5511901D01*
X3150108Y5511901D01*
X3145790Y5512866D01*
X3143453Y5513933D01*
X3134004Y5516473D01*
X3124200Y5517337D01*
X3114395Y5516473D01*
X3104946Y5513933D01*
X3096006Y5509818D01*
X3087979Y5504180D01*
X3081020Y5497220D01*
X3075381Y5489194D01*
X3071266Y5480253D01*
X3068726Y5470804D01*
X3067862Y5461000D01*
X3068726Y5451195D01*
X3071266Y5441746D01*
X3075381Y5432806D01*
X3081020Y5424779D01*
X3087979Y5417820D01*
X3096006Y5412181D01*
X3104946Y5408066D01*
X3114395Y5405526D01*
G37*
G36*
X4660900Y92100D02*
G01*
X4674717Y93014D01*
X4688281Y95707D01*
X4701438Y100177D01*
X4713833Y106273D01*
X4725365Y113995D01*
X4735779Y123139D01*
X4744923Y133553D01*
X4752594Y145034D01*
X4758740Y157480D01*
X4763160Y170586D01*
X4765903Y184150D01*
X4766767Y197967D01*
X4765903Y211836D01*
X4763160Y225399D01*
X4758740Y238506D01*
X4752594Y250952D01*
X4744923Y262432D01*
X4735779Y272846D01*
X4725365Y281990D01*
X4713833Y289712D01*
X4701438Y295808D01*
X4688281Y300278D01*
X4674717Y302971D01*
X4660900Y303885D01*
X4647082Y302971D01*
X4633518Y300278D01*
X4620361Y295808D01*
X4607966Y289712D01*
X4596434Y281990D01*
X4586020Y272846D01*
X4576876Y262432D01*
X4569206Y250952D01*
X4563059Y238506D01*
X4558639Y225399D01*
X4555896Y211836D01*
X4555032Y197967D01*
X4555896Y184150D01*
X4558639Y170586D01*
X4563059Y157480D01*
X4569206Y145034D01*
X4576876Y133553D01*
X4586020Y123139D01*
X4596434Y113995D01*
X4607966Y106273D01*
X4620361Y100177D01*
X4633518Y95707D01*
X4647082Y93014D01*
G37*
G36*
X1181100Y92151D02*
G01*
X1194917Y93014D01*
X1208481Y95758D01*
X1221638Y100177D01*
X1234033Y106324D01*
X1245565Y113995D01*
X1255979Y123139D01*
X1265123Y133553D01*
X1272794Y145084D01*
X1278940Y157480D01*
X1283360Y170637D01*
X1286103Y184200D01*
X1286967Y198018D01*
X1286103Y211836D01*
X1283360Y225399D01*
X1278940Y238556D01*
X1272794Y250952D01*
X1265123Y262483D01*
X1255979Y272897D01*
X1245565Y282041D01*
X1234033Y289712D01*
X1221638Y295859D01*
X1208481Y300278D01*
X1194917Y303022D01*
X1181100Y303885D01*
X1167282Y303022D01*
X1153718Y300278D01*
X1140561Y295859D01*
X1128166Y289712D01*
X1116634Y282041D01*
X1106220Y272897D01*
X1097076Y262483D01*
X1089406Y250952D01*
X1083259Y238556D01*
X1078839Y225399D01*
X1076096Y211836D01*
X1075232Y198018D01*
X1076096Y184200D01*
X1078839Y170637D01*
X1083259Y157480D01*
X1089406Y145084D01*
X1097076Y133553D01*
X1106220Y123139D01*
X1116634Y113995D01*
X1128166Y106324D01*
X1140561Y100177D01*
X1153718Y95758D01*
X1167282Y93014D01*
G37*
G36*
X368300Y105562D02*
G01*
X368300Y368300D01*
X105664Y368300D01*
X106070Y357936D01*
X108966Y334975D01*
X113792Y312369D01*
X120446Y290271D01*
X128981Y268782D01*
X139242Y248107D01*
X151180Y228295D01*
X164795Y209600D01*
X179882Y192125D01*
X196392Y175971D01*
X214172Y161239D01*
X233171Y148031D01*
X253187Y136499D01*
X274066Y126644D01*
X295757Y118618D01*
X318008Y112369D01*
X340715Y108051D01*
X363677Y105664D01*
G37*
G36*
X5448300Y105562D02*
G01*
X5448300Y368300D01*
X5185664Y368300D01*
X5186070Y357936D01*
X5188966Y334975D01*
X5193792Y312369D01*
X5200446Y290271D01*
X5208981Y268782D01*
X5219242Y248107D01*
X5231180Y228295D01*
X5244795Y209600D01*
X5259882Y192125D01*
X5276392Y175971D01*
X5294172Y161239D01*
X5313172Y148031D01*
X5333187Y136499D01*
X5354066Y126644D01*
X5375757Y118618D01*
X5398008Y112369D01*
X5420715Y108051D01*
X5443677Y105664D01*
G37*
G36*
X5473700Y105613D02*
G01*
X5489854Y106629D01*
X5512714Y109982D01*
X5535218Y115265D01*
X5557164Y122428D01*
X5578500Y131368D01*
X5598972Y142087D01*
X5618480Y154432D01*
X5636869Y168402D01*
X5654040Y183896D01*
X5669838Y200710D01*
X5684215Y218846D01*
X5697016Y238099D01*
X5708142Y258317D01*
X5717540Y279450D01*
X5725109Y301244D01*
X5730849Y323646D01*
X5734710Y346405D01*
X5736590Y368300D01*
X5473700Y368300D01*
G37*
G36*
X393700Y105613D02*
G01*
X409854Y106629D01*
X432714Y109982D01*
X455218Y115265D01*
X477164Y122428D01*
X498500Y131368D01*
X518972Y142087D01*
X538480Y154432D01*
X556869Y168402D01*
X574040Y183896D01*
X589838Y200710D01*
X604215Y218846D01*
X617016Y238099D01*
X628142Y258317D01*
X637540Y279450D01*
X645109Y301244D01*
X650849Y323646D01*
X654710Y346405D01*
X656590Y368300D01*
X393700Y368300D01*
G37*
G36*
X2528722Y152400D02*
G01*
X2586888Y152400D01*
X2586888Y215595D01*
X2555189Y215595D01*
X2548890Y214884D01*
X2543403Y213004D01*
X2538526Y209905D01*
X2534412Y205841D01*
X2531313Y200914D01*
X2529433Y195478D01*
X2528722Y189128D01*
G37*
G36*
X2612288Y152400D02*
G01*
X2670505Y152400D01*
X2670505Y189128D01*
X2669794Y195478D01*
X2667914Y200914D01*
X2664815Y205841D01*
X2660700Y209905D01*
X2655824Y213004D01*
X2650337Y214884D01*
X2644038Y215595D01*
X2612288Y215595D01*
G37*
G36*
X1917700Y5404662D02*
G01*
X1927504Y5405526D01*
X1936953Y5408066D01*
X1945893Y5412181D01*
X1953920Y5417820D01*
X1955495Y5419394D01*
X1958797Y5421630D01*
X1962708Y5422392D01*
X2647391Y5422392D01*
X2651302Y5421630D01*
X2654604Y5419394D01*
X2656179Y5417820D01*
X2664206Y5412181D01*
X2673146Y5408066D01*
X2682595Y5405526D01*
X2692400Y5404662D01*
X2702204Y5405526D01*
X2711653Y5408066D01*
X2720594Y5412181D01*
X2728620Y5417820D01*
X2735580Y5424779D01*
X2741218Y5432806D01*
X2745333Y5441746D01*
X2747873Y5451195D01*
X2748737Y5461000D01*
X2747873Y5470804D01*
X2745333Y5480253D01*
X2741218Y5489194D01*
X2735580Y5497220D01*
X2728620Y5504180D01*
X2720594Y5509818D01*
X2711653Y5513933D01*
X2702204Y5516473D01*
X2692400Y5517337D01*
X2682595Y5516473D01*
X2673146Y5513933D01*
X2664206Y5509818D01*
X2656179Y5504180D01*
X2654604Y5502605D01*
X2651302Y5500370D01*
X2647391Y5499608D01*
X1962708Y5499608D01*
X1958797Y5500370D01*
X1955495Y5502605D01*
X1953920Y5504180D01*
X1945893Y5509818D01*
X1936953Y5513933D01*
X1927504Y5516473D01*
X1917700Y5517337D01*
X1907895Y5516473D01*
X1898446Y5513933D01*
X1889506Y5509818D01*
X1881479Y5504180D01*
X1874520Y5497220D01*
X1868881Y5489194D01*
X1864766Y5480253D01*
X1862226Y5470804D01*
X1861362Y5461000D01*
X1862226Y5451195D01*
X1864766Y5441746D01*
X1868881Y5432806D01*
X1874520Y5424779D01*
X1881479Y5417820D01*
X1889506Y5412181D01*
X1898446Y5408066D01*
X1907895Y5405526D01*
G37*
G36*
X393700Y5185613D02*
G01*
X409854Y5186629D01*
X432714Y5189982D01*
X455218Y5195265D01*
X477164Y5202428D01*
X498500Y5211368D01*
X518972Y5222087D01*
X538480Y5234432D01*
X556869Y5248402D01*
X574040Y5263896D01*
X589838Y5280710D01*
X604215Y5298846D01*
X617016Y5318099D01*
X628142Y5338318D01*
X637540Y5359450D01*
X645109Y5381244D01*
X650849Y5403646D01*
X654710Y5426405D01*
X656590Y5448300D01*
X393700Y5448300D01*
G37*
G36*
X5473700Y5185613D02*
G01*
X5489854Y5186629D01*
X5512714Y5189982D01*
X5535218Y5195265D01*
X5557164Y5202428D01*
X5578500Y5211368D01*
X5598972Y5222087D01*
X5618480Y5234432D01*
X5636869Y5248402D01*
X5654040Y5263896D01*
X5669838Y5280710D01*
X5684215Y5298846D01*
X5697016Y5318099D01*
X5708142Y5338318D01*
X5717540Y5359450D01*
X5725109Y5381244D01*
X5730849Y5403646D01*
X5734710Y5426405D01*
X5736590Y5448300D01*
X5473700Y5448300D01*
G37*
G36*
X5448300Y5185562D02*
G01*
X5448300Y5448300D01*
X5185664Y5448300D01*
X5186070Y5437936D01*
X5188966Y5414975D01*
X5193792Y5392369D01*
X5200446Y5370271D01*
X5208981Y5348782D01*
X5219242Y5328107D01*
X5231180Y5308295D01*
X5244795Y5289600D01*
X5259882Y5272125D01*
X5276392Y5255971D01*
X5294172Y5241239D01*
X5313172Y5228031D01*
X5333187Y5216499D01*
X5354066Y5206644D01*
X5375757Y5198618D01*
X5398008Y5192369D01*
X5420715Y5188051D01*
X5443677Y5185664D01*
G37*
G36*
X368300Y5185562D02*
G01*
X368300Y5448300D01*
X105664Y5448300D01*
X106070Y5437936D01*
X108966Y5414975D01*
X113792Y5392369D01*
X120446Y5370271D01*
X128981Y5348782D01*
X139242Y5328107D01*
X151180Y5308295D01*
X164795Y5289600D01*
X179882Y5272125D01*
X196392Y5255971D01*
X214172Y5241239D01*
X233171Y5228031D01*
X253187Y5216499D01*
X274066Y5206644D01*
X295757Y5198618D01*
X318008Y5192369D01*
X340715Y5188051D01*
X363677Y5185664D01*
G37*
G36*
X2501900Y3296462D02*
G01*
X2511704Y3297326D01*
X2521153Y3299866D01*
X2530094Y3303981D01*
X2538120Y3309620D01*
X2545080Y3316579D01*
X2550718Y3324606D01*
X2554833Y3333546D01*
X2557373Y3342995D01*
X2558237Y3352800D01*
X2557373Y3362604D01*
X2554833Y3372053D01*
X2550718Y3380994D01*
X2545080Y3389020D01*
X2538120Y3395979D01*
X2530094Y3401618D01*
X2521153Y3405733D01*
X2511704Y3408273D01*
X2501900Y3409137D01*
X2492095Y3408273D01*
X2482646Y3405733D01*
X2473706Y3401618D01*
X2465679Y3395979D01*
X2464104Y3394405D01*
X2460802Y3392170D01*
X2456891Y3391408D01*
X2126691Y3391408D01*
X2122881Y3392170D01*
X2119579Y3394252D01*
X2117394Y3397453D01*
X2116531Y3401212D01*
X2117140Y3405073D01*
X2119122Y3408375D01*
X2124811Y3414623D01*
X2132533Y3425901D01*
X2138680Y3438042D01*
X2143150Y3450945D01*
X2145842Y3464306D01*
X2146757Y3477920D01*
X2145842Y3491534D01*
X2143150Y3504895D01*
X2138680Y3517747D01*
X2132533Y3529939D01*
X2124811Y3541166D01*
X2115718Y3551224D01*
X2113686Y3554526D01*
X2113076Y3558387D01*
X2113940Y3562146D01*
X2116175Y3565347D01*
X2119426Y3567429D01*
X2123236Y3568192D01*
X2583891Y3568192D01*
X2587802Y3567429D01*
X2591104Y3565194D01*
X2592679Y3563620D01*
X2600706Y3557981D01*
X2609646Y3553866D01*
X2619095Y3551326D01*
X2628900Y3550462D01*
X2638704Y3551326D01*
X2648153Y3553866D01*
X2657094Y3557981D01*
X2665120Y3563620D01*
X2672080Y3570579D01*
X2677718Y3578606D01*
X2681833Y3587546D01*
X2684373Y3596995D01*
X2685237Y3606800D01*
X2684373Y3616604D01*
X2681833Y3626053D01*
X2677718Y3634994D01*
X2672080Y3643020D01*
X2665120Y3649979D01*
X2657094Y3655618D01*
X2648153Y3659733D01*
X2638704Y3662273D01*
X2628900Y3663137D01*
X2619095Y3662273D01*
X2609646Y3659733D01*
X2606090Y3658108D01*
X2601976Y3657142D01*
X2599690Y3657600D01*
X2459278Y3657600D01*
X2459278Y3655568D01*
X2458516Y3651656D01*
X2456332Y3648405D01*
X2453030Y3646170D01*
X2449118Y3645408D01*
X2444038Y3645408D01*
X2440178Y3646170D01*
X2436876Y3648405D01*
X2434691Y3651656D01*
X2433878Y3655568D01*
X2433878Y3657600D01*
X2302916Y3657600D01*
X2303170Y3654501D01*
X2302103Y3650945D01*
X2299868Y3647998D01*
X2296668Y3646068D01*
X2293061Y3645408D01*
X2126691Y3645408D01*
X2122881Y3646170D01*
X2119579Y3648252D01*
X2117394Y3651453D01*
X2116531Y3655212D01*
X2117140Y3659073D01*
X2119122Y3662375D01*
X2124811Y3668623D01*
X2132533Y3679901D01*
X2138680Y3692042D01*
X2143150Y3704945D01*
X2145842Y3718306D01*
X2146757Y3731920D01*
X2145842Y3745534D01*
X2143150Y3758895D01*
X2138680Y3771747D01*
X2132533Y3783939D01*
X2124811Y3795166D01*
X2115718Y3805224D01*
X2113686Y3808526D01*
X2113076Y3812387D01*
X2113940Y3816146D01*
X2116175Y3819347D01*
X2119426Y3821429D01*
X2123236Y3822192D01*
X2293061Y3822192D01*
X2296668Y3821531D01*
X2299868Y3819601D01*
X2302103Y3816654D01*
X2303170Y3813098D01*
X2302865Y3809390D01*
X2302154Y3806799D01*
X2301341Y3797300D01*
X2302154Y3787800D01*
X2304643Y3778656D01*
X2308656Y3770020D01*
X2314092Y3762248D01*
X2320798Y3755491D01*
X2328621Y3750056D01*
X2337257Y3746042D01*
X2346198Y3743604D01*
X2350109Y3741572D01*
X2352802Y3738118D01*
X2353767Y3733800D01*
X2352802Y3729482D01*
X2350109Y3726027D01*
X2346198Y3723995D01*
X2337257Y3721557D01*
X2328621Y3717544D01*
X2320798Y3712108D01*
X2314092Y3705351D01*
X2308656Y3697579D01*
X2304643Y3688943D01*
X2303018Y3683000D01*
X2433878Y3683000D01*
X2433878Y3732529D01*
X2434691Y3736441D01*
X2436876Y3739692D01*
X2440178Y3741928D01*
X2444038Y3742690D01*
X2449118Y3742690D01*
X2453030Y3741928D01*
X2456332Y3739692D01*
X2458516Y3736441D01*
X2459278Y3732529D01*
X2459278Y3683000D01*
X2590190Y3683000D01*
X2588564Y3688943D01*
X2584551Y3697579D01*
X2579116Y3705351D01*
X2572359Y3712108D01*
X2564587Y3717544D01*
X2555951Y3721557D01*
X2546959Y3723995D01*
X2543098Y3726027D01*
X2540406Y3729482D01*
X2539441Y3733800D01*
X2540406Y3738118D01*
X2543098Y3741572D01*
X2546959Y3743604D01*
X2555951Y3746042D01*
X2564587Y3750056D01*
X2575915Y3757929D01*
X2579776Y3758692D01*
X2634691Y3758692D01*
X2638602Y3757929D01*
X2641904Y3755694D01*
X2643479Y3754120D01*
X2651506Y3748481D01*
X2660446Y3744366D01*
X2669895Y3741826D01*
X2679700Y3740962D01*
X2689504Y3741826D01*
X2698953Y3744366D01*
X2707894Y3748481D01*
X2715920Y3754120D01*
X2722880Y3761079D01*
X2728518Y3769106D01*
X2730754Y3773982D01*
X2733040Y3777081D01*
X2736342Y3779164D01*
X2740152Y3779824D01*
X2743911Y3779012D01*
X2747162Y3776827D01*
X2861868Y3662121D01*
X2863900Y3659225D01*
X2864815Y3655822D01*
X2865526Y3647795D01*
X2868066Y3638346D01*
X2872181Y3629406D01*
X2877820Y3621379D01*
X2884779Y3614420D01*
X2892806Y3608781D01*
X2901746Y3604666D01*
X2911195Y3602126D01*
X2921000Y3601262D01*
X2930804Y3602126D01*
X2940253Y3604666D01*
X2949194Y3608781D01*
X2957220Y3614420D01*
X2964180Y3621379D01*
X2968498Y3627526D01*
X2971749Y3630523D01*
X2975914Y3631844D01*
X2980283Y3631285D01*
X2983992Y3628898D01*
X3287064Y3325876D01*
X3293262Y3320745D01*
X3299968Y3317189D01*
X3307181Y3315004D01*
X3315208Y3314192D01*
X3923792Y3314192D01*
X3931818Y3315004D01*
X3939032Y3317189D01*
X3945737Y3320745D01*
X3951935Y3325876D01*
X4006494Y3380384D01*
X4009491Y3382467D01*
X4013047Y3383330D01*
X4016654Y3382873D01*
X4030472Y3378606D01*
X4043883Y3376320D01*
X4057548Y3375863D01*
X4071112Y3377234D01*
X4084370Y3380384D01*
X4097070Y3385312D01*
X4109059Y3391865D01*
X4120032Y3399942D01*
X4129836Y3409442D01*
X4138269Y3420110D01*
X4147972Y3436365D01*
X4151223Y3438499D01*
X4155084Y3439261D01*
X4764481Y3439261D01*
X4768443Y3438499D01*
X4771796Y3436213D01*
X4773980Y3432810D01*
X4776063Y3427374D01*
X4783124Y3414268D01*
X4791710Y3402126D01*
X4801717Y3391103D01*
X4813046Y3381400D01*
X4825441Y3373221D01*
X4838750Y3366566D01*
X4852822Y3361639D01*
X4867351Y3358438D01*
X4882184Y3357067D01*
X4897069Y3357524D01*
X4911750Y3359810D01*
X4926076Y3363874D01*
X4939792Y3369665D01*
X4952644Y3377133D01*
X4964531Y3386074D01*
X4975250Y3396437D01*
X4984546Y3408070D01*
X4992420Y3420719D01*
X4998618Y3434232D01*
X5003139Y3448405D01*
X5005882Y3463036D01*
X5006797Y3477869D01*
X5005882Y3492754D01*
X5003139Y3507384D01*
X4998618Y3521557D01*
X4992420Y3535070D01*
X4984546Y3547719D01*
X4975250Y3559352D01*
X4964531Y3569715D01*
X4952644Y3578656D01*
X4939792Y3586124D01*
X4926076Y3591915D01*
X4914798Y3595115D01*
X4910937Y3597198D01*
X4908346Y3600653D01*
X4907381Y3604869D01*
X4908346Y3609136D01*
X4910937Y3612591D01*
X4914798Y3614674D01*
X4926076Y3617874D01*
X4939792Y3623665D01*
X4952644Y3631133D01*
X4964531Y3640074D01*
X4975250Y3650437D01*
X4984546Y3662070D01*
X4992420Y3674719D01*
X4998618Y3688232D01*
X5003139Y3702405D01*
X5005882Y3717036D01*
X5006797Y3731869D01*
X5005882Y3746754D01*
X5003139Y3761384D01*
X4998618Y3775557D01*
X4992420Y3789070D01*
X4984546Y3801719D01*
X4975250Y3813352D01*
X4964531Y3823715D01*
X4952644Y3832656D01*
X4939792Y3840124D01*
X4926076Y3845915D01*
X4914798Y3849115D01*
X4910937Y3851198D01*
X4908346Y3854653D01*
X4907381Y3858869D01*
X4908346Y3863136D01*
X4910937Y3866591D01*
X4914798Y3868674D01*
X4926076Y3871874D01*
X4939792Y3877665D01*
X4952644Y3885133D01*
X4964531Y3894074D01*
X4975250Y3904437D01*
X4984546Y3916070D01*
X4992420Y3928719D01*
X4998618Y3942232D01*
X5003139Y3956405D01*
X5005882Y3971036D01*
X5006797Y3985869D01*
X5005882Y4000754D01*
X5003139Y4015384D01*
X4998618Y4029557D01*
X4992420Y4043070D01*
X4984546Y4055719D01*
X4975250Y4067352D01*
X4964531Y4077715D01*
X4952644Y4086656D01*
X4939792Y4094124D01*
X4926076Y4099915D01*
X4914798Y4103115D01*
X4910937Y4105198D01*
X4908346Y4108653D01*
X4907381Y4112869D01*
X4908346Y4117136D01*
X4910937Y4120591D01*
X4914798Y4122674D01*
X4926076Y4125874D01*
X4939792Y4131665D01*
X4952644Y4139133D01*
X4964531Y4148074D01*
X4975250Y4158437D01*
X4984546Y4170070D01*
X4992420Y4182719D01*
X4998618Y4196232D01*
X5003139Y4210405D01*
X5005882Y4225036D01*
X5006797Y4239869D01*
X5005882Y4254754D01*
X5003139Y4269384D01*
X4998618Y4283557D01*
X4992420Y4297070D01*
X4984546Y4309719D01*
X4975250Y4321352D01*
X4964531Y4331716D01*
X4952644Y4340656D01*
X4939792Y4348124D01*
X4926076Y4353915D01*
X4914798Y4357116D01*
X4910937Y4359198D01*
X4908346Y4362653D01*
X4907381Y4366869D01*
X4908346Y4371136D01*
X4910937Y4374591D01*
X4914798Y4376674D01*
X4926076Y4379874D01*
X4939792Y4385665D01*
X4952644Y4393133D01*
X4964531Y4402074D01*
X4975250Y4412437D01*
X4984546Y4424070D01*
X4992420Y4436719D01*
X4998618Y4450232D01*
X5003139Y4464405D01*
X5005882Y4479036D01*
X5006797Y4493869D01*
X5005882Y4508754D01*
X5003139Y4523384D01*
X4998618Y4537557D01*
X4992420Y4551070D01*
X4984546Y4563719D01*
X4975250Y4575352D01*
X4964531Y4585716D01*
X4952644Y4594656D01*
X4939792Y4602124D01*
X4926076Y4607915D01*
X4914798Y4611116D01*
X4910937Y4613198D01*
X4908346Y4616653D01*
X4907381Y4620869D01*
X4908346Y4625136D01*
X4910937Y4628591D01*
X4914798Y4630674D01*
X4926076Y4633874D01*
X4939792Y4639665D01*
X4952644Y4647133D01*
X4964531Y4656074D01*
X4975250Y4666437D01*
X4984546Y4678070D01*
X4992420Y4690719D01*
X4998618Y4704232D01*
X5003139Y4718405D01*
X5005882Y4733036D01*
X5006797Y4747869D01*
X5005882Y4762754D01*
X5003139Y4777384D01*
X4998618Y4791557D01*
X4992420Y4805070D01*
X4984546Y4817719D01*
X4975250Y4829352D01*
X4964531Y4839716D01*
X4952644Y4848656D01*
X4939792Y4856124D01*
X4926076Y4861915D01*
X4914798Y4865116D01*
X4910937Y4867198D01*
X4908346Y4870653D01*
X4907381Y4874869D01*
X4908346Y4879136D01*
X4910937Y4882591D01*
X4914798Y4884674D01*
X4926076Y4887874D01*
X4939792Y4893665D01*
X4952644Y4901133D01*
X4964531Y4910074D01*
X4975250Y4920437D01*
X4984546Y4932070D01*
X4992420Y4944719D01*
X4998618Y4958232D01*
X5003139Y4972405D01*
X5005882Y4987036D01*
X5006797Y5001869D01*
X5005882Y5016754D01*
X5003139Y5031384D01*
X4998618Y5045557D01*
X4992420Y5059070D01*
X4984546Y5071719D01*
X4975250Y5083352D01*
X4964531Y5093716D01*
X4952644Y5102656D01*
X4939792Y5110124D01*
X4926076Y5115915D01*
X4914798Y5119116D01*
X4910937Y5121198D01*
X4908346Y5124653D01*
X4907381Y5128869D01*
X4908346Y5133136D01*
X4910937Y5136591D01*
X4914798Y5138674D01*
X4926076Y5141874D01*
X4939792Y5147665D01*
X4952644Y5155133D01*
X4964531Y5164074D01*
X4975250Y5174437D01*
X4984546Y5186070D01*
X4992420Y5198719D01*
X4998618Y5212232D01*
X5003139Y5226405D01*
X5005882Y5241036D01*
X5006797Y5255869D01*
X5005882Y5270754D01*
X5003139Y5285384D01*
X4998618Y5299557D01*
X4992420Y5313070D01*
X4984546Y5325719D01*
X4975250Y5337352D01*
X4964531Y5347716D01*
X4952644Y5356656D01*
X4939792Y5364124D01*
X4926076Y5369915D01*
X4911750Y5373979D01*
X4897069Y5376265D01*
X4882184Y5376722D01*
X4867351Y5375351D01*
X4852822Y5372150D01*
X4838750Y5367223D01*
X4825441Y5360568D01*
X4813046Y5352389D01*
X4801717Y5342686D01*
X4791710Y5331663D01*
X4783124Y5319522D01*
X4776063Y5306415D01*
X4773980Y5300980D01*
X4771796Y5297576D01*
X4768443Y5295290D01*
X4764481Y5294477D01*
X4155084Y5294477D01*
X4151223Y5295290D01*
X4147972Y5297424D01*
X4138269Y5313680D01*
X4129836Y5324398D01*
X4120032Y5333847D01*
X4109059Y5341924D01*
X4097070Y5348478D01*
X4084370Y5353405D01*
X4071112Y5356555D01*
X4057548Y5357926D01*
X4043883Y5357469D01*
X4030472Y5355183D01*
X4017416Y5351170D01*
X4005072Y5345430D01*
X3993540Y5338064D01*
X3983126Y5329275D01*
X3973982Y5319166D01*
X3966260Y5307939D01*
X3960114Y5295747D01*
X3955643Y5282895D01*
X3952951Y5269484D01*
X3952036Y5255920D01*
X3952951Y5242306D01*
X3955643Y5228945D01*
X3956659Y5225999D01*
X3957218Y5222290D01*
X3956405Y5218582D01*
X3954272Y5215483D01*
X3911244Y5172405D01*
X3907942Y5170170D01*
X3904081Y5169408D01*
X3879494Y5169408D01*
X3875582Y5170170D01*
X3872280Y5172405D01*
X3870096Y5175758D01*
X3869334Y5179669D01*
X3870198Y5183581D01*
X3872992Y5187442D01*
X3881475Y5198110D01*
X3888435Y5209844D01*
X3893718Y5222392D01*
X3897325Y5235549D01*
X3899154Y5249062D01*
X3899154Y5262727D01*
X3897325Y5276240D01*
X3893718Y5289397D01*
X3888435Y5301945D01*
X3881475Y5313680D01*
X3872992Y5324398D01*
X3863238Y5333847D01*
X3852214Y5341924D01*
X3840276Y5348478D01*
X3827526Y5353405D01*
X3814267Y5356555D01*
X3800703Y5357926D01*
X3787089Y5357469D01*
X3773627Y5355183D01*
X3760622Y5351170D01*
X3748227Y5345430D01*
X3736746Y5338064D01*
X3726332Y5329275D01*
X3717188Y5319166D01*
X3709466Y5307939D01*
X3703320Y5295747D01*
X3698849Y5282844D01*
X3696106Y5269484D01*
X3695242Y5255920D01*
X3696106Y5242306D01*
X3698849Y5228945D01*
X3703320Y5216042D01*
X3709466Y5203850D01*
X3717188Y5192623D01*
X3722827Y5186375D01*
X3724859Y5183073D01*
X3725468Y5179212D01*
X3724605Y5175453D01*
X3722370Y5172252D01*
X3719118Y5170170D01*
X3715308Y5169408D01*
X3023108Y5169408D01*
X3015081Y5168595D01*
X3007868Y5166410D01*
X3001162Y5162854D01*
X2994964Y5157724D01*
X2819095Y4981905D01*
X2815793Y4979670D01*
X2811881Y4978908D01*
X2579776Y4978908D01*
X2575915Y4979670D01*
X2564587Y4987544D01*
X2555951Y4991557D01*
X2546959Y4993995D01*
X2543098Y4996027D01*
X2540406Y4999482D01*
X2539441Y5003800D01*
X2540406Y5008118D01*
X2543098Y5011572D01*
X2546959Y5013604D01*
X2555951Y5016042D01*
X2564587Y5020056D01*
X2575915Y5027930D01*
X2579776Y5028692D01*
X2647391Y5028692D01*
X2651302Y5027930D01*
X2654604Y5025694D01*
X2656179Y5024120D01*
X2664206Y5018481D01*
X2673146Y5014366D01*
X2682595Y5011826D01*
X2692400Y5010962D01*
X2702204Y5011826D01*
X2711653Y5014366D01*
X2720594Y5018481D01*
X2728620Y5024120D01*
X2735580Y5031079D01*
X2741218Y5039106D01*
X2745333Y5048046D01*
X2747873Y5057495D01*
X2748737Y5067300D01*
X2748178Y5074005D01*
X2748534Y5077815D01*
X2750312Y5081168D01*
X2753207Y5083657D01*
X2756814Y5084927D01*
X2760624Y5084775D01*
X2764129Y5083200D01*
X2765806Y5081981D01*
X2774746Y5077866D01*
X2784195Y5075326D01*
X2794000Y5074462D01*
X2803804Y5075326D01*
X2813253Y5077866D01*
X2822194Y5081981D01*
X2830220Y5087620D01*
X2837180Y5094579D01*
X2842818Y5102606D01*
X2846933Y5111546D01*
X2849473Y5120995D01*
X2850337Y5130800D01*
X2849473Y5140604D01*
X2846933Y5150053D01*
X2842818Y5158994D01*
X2837180Y5167020D01*
X2830220Y5173980D01*
X2822194Y5179618D01*
X2813253Y5183733D01*
X2803804Y5186273D01*
X2794000Y5187137D01*
X2784195Y5186273D01*
X2774746Y5183733D01*
X2765806Y5179618D01*
X2757779Y5173980D01*
X2756204Y5172405D01*
X2752902Y5170170D01*
X2748991Y5169408D01*
X2126691Y5169408D01*
X2122881Y5170170D01*
X2119579Y5172252D01*
X2117394Y5175453D01*
X2116531Y5179212D01*
X2117140Y5183073D01*
X2119122Y5186375D01*
X2124811Y5192623D01*
X2132533Y5203901D01*
X2138680Y5216042D01*
X2143150Y5228945D01*
X2145842Y5242306D01*
X2146757Y5255920D01*
X2145842Y5269534D01*
X2143150Y5282895D01*
X2138680Y5295747D01*
X2132533Y5307939D01*
X2124811Y5319166D01*
X2115667Y5329275D01*
X2105253Y5338114D01*
X2093722Y5345430D01*
X2081377Y5351170D01*
X2068322Y5355234D01*
X2054910Y5357469D01*
X2041245Y5357926D01*
X2027682Y5356555D01*
X2014423Y5353405D01*
X2001723Y5348528D01*
X1989734Y5341975D01*
X1978761Y5333847D01*
X1968957Y5324398D01*
X1960524Y5313680D01*
X1953564Y5301945D01*
X1948230Y5289397D01*
X1944624Y5276240D01*
X1942795Y5262727D01*
X1942795Y5249113D01*
X1944624Y5235549D01*
X1948230Y5222443D01*
X1953564Y5209844D01*
X1960524Y5198110D01*
X1971802Y5183581D01*
X1972614Y5179669D01*
X1971903Y5175758D01*
X1969719Y5172405D01*
X1966417Y5170170D01*
X1962454Y5169408D01*
X1937918Y5169408D01*
X1934006Y5170170D01*
X1930704Y5172405D01*
X1887677Y5215432D01*
X1885543Y5218531D01*
X1884730Y5222189D01*
X1885289Y5225948D01*
X1886305Y5228945D01*
X1889048Y5242306D01*
X1889963Y5255920D01*
X1889048Y5269534D01*
X1886305Y5282895D01*
X1881835Y5295747D01*
X1875688Y5307939D01*
X1867966Y5319166D01*
X1858822Y5329275D01*
X1848408Y5338114D01*
X1836928Y5345430D01*
X1824532Y5351170D01*
X1811528Y5355234D01*
X1798066Y5357469D01*
X1784451Y5357926D01*
X1770888Y5356555D01*
X1757629Y5353405D01*
X1744878Y5348528D01*
X1732940Y5341975D01*
X1721967Y5333847D01*
X1712163Y5324398D01*
X1703679Y5313680D01*
X1694027Y5297474D01*
X1690725Y5295290D01*
X1686864Y5294528D01*
X1077468Y5294528D01*
X1073505Y5295341D01*
X1070203Y5297627D01*
X1068019Y5300980D01*
X1065936Y5306415D01*
X1058875Y5319522D01*
X1050290Y5331663D01*
X1040231Y5342686D01*
X1028953Y5352338D01*
X1016558Y5360568D01*
X1003198Y5367223D01*
X989177Y5372150D01*
X974648Y5375351D01*
X959815Y5376722D01*
X944930Y5376265D01*
X930249Y5373979D01*
X915924Y5369915D01*
X902208Y5364124D01*
X889304Y5356656D01*
X877417Y5347716D01*
X866749Y5337352D01*
X857402Y5325719D01*
X849579Y5313070D01*
X843381Y5299557D01*
X838860Y5285384D01*
X836117Y5270754D01*
X835202Y5255869D01*
X836117Y5241036D01*
X838860Y5226405D01*
X843381Y5212232D01*
X849579Y5198719D01*
X857402Y5186070D01*
X866749Y5174437D01*
X877417Y5164074D01*
X889304Y5155133D01*
X902208Y5147665D01*
X915924Y5141874D01*
X927201Y5138674D01*
X931011Y5136591D01*
X933653Y5133136D01*
X934567Y5128869D01*
X933653Y5124653D01*
X931011Y5121198D01*
X927201Y5119116D01*
X915924Y5115915D01*
X902208Y5110124D01*
X889304Y5102656D01*
X877417Y5093716D01*
X866749Y5083352D01*
X857402Y5071719D01*
X849579Y5059070D01*
X843381Y5045557D01*
X838860Y5031384D01*
X836117Y5016754D01*
X835202Y5001869D01*
X836117Y4987036D01*
X838860Y4972405D01*
X843381Y4958232D01*
X849579Y4944719D01*
X857402Y4932070D01*
X866749Y4920437D01*
X877417Y4910074D01*
X889304Y4901133D01*
X902208Y4893665D01*
X915924Y4887874D01*
X927201Y4884674D01*
X931011Y4882591D01*
X933653Y4879136D01*
X934567Y4874869D01*
X933653Y4870653D01*
X931011Y4867198D01*
X927201Y4865116D01*
X915924Y4861915D01*
X902208Y4856124D01*
X889304Y4848656D01*
X877417Y4839716D01*
X866749Y4829352D01*
X857402Y4817719D01*
X849579Y4805070D01*
X843381Y4791557D01*
X838860Y4777384D01*
X836117Y4762754D01*
X835202Y4747869D01*
X836117Y4733036D01*
X838860Y4718405D01*
X843381Y4704232D01*
X849579Y4690719D01*
X857402Y4678070D01*
X866749Y4666437D01*
X877417Y4656074D01*
X889304Y4647133D01*
X902208Y4639665D01*
X915924Y4633874D01*
X927201Y4630674D01*
X931011Y4628591D01*
X933653Y4625136D01*
X934567Y4620869D01*
X933653Y4616653D01*
X931011Y4613198D01*
X927201Y4611116D01*
X915924Y4607915D01*
X902208Y4602124D01*
X889304Y4594656D01*
X877417Y4585716D01*
X866749Y4575352D01*
X857402Y4563719D01*
X849579Y4551070D01*
X843381Y4537557D01*
X838860Y4523384D01*
X836117Y4508754D01*
X835202Y4493869D01*
X836117Y4479036D01*
X838860Y4464405D01*
X843381Y4450232D01*
X849579Y4436719D01*
X857402Y4424070D01*
X866749Y4412437D01*
X877417Y4402074D01*
X889304Y4393133D01*
X902208Y4385665D01*
X915924Y4379874D01*
X927201Y4376674D01*
X931011Y4374591D01*
X933653Y4371136D01*
X934567Y4366869D01*
X933653Y4362653D01*
X931011Y4359198D01*
X927201Y4357116D01*
X915924Y4353915D01*
X902208Y4348124D01*
X889304Y4340656D01*
X877417Y4331716D01*
X866749Y4321352D01*
X857402Y4309719D01*
X849579Y4297070D01*
X843381Y4283557D01*
X838860Y4269384D01*
X836117Y4254754D01*
X835202Y4239869D01*
X836117Y4225036D01*
X838860Y4210405D01*
X843381Y4196232D01*
X849579Y4182719D01*
X857402Y4170070D01*
X866749Y4158437D01*
X877417Y4148074D01*
X889304Y4139133D01*
X902208Y4131665D01*
X915924Y4125874D01*
X927201Y4122674D01*
X931011Y4120591D01*
X933653Y4117136D01*
X934567Y4112869D01*
X933653Y4108653D01*
X931011Y4105198D01*
X927201Y4103115D01*
X915924Y4099915D01*
X902208Y4094124D01*
X889304Y4086656D01*
X877417Y4077715D01*
X866749Y4067352D01*
X857402Y4055719D01*
X849579Y4043070D01*
X843381Y4029557D01*
X838860Y4015384D01*
X836117Y4000754D01*
X835202Y3985869D01*
X836117Y3971036D01*
X838860Y3956405D01*
X843381Y3942232D01*
X849579Y3928719D01*
X857402Y3916070D01*
X866749Y3904437D01*
X877417Y3894074D01*
X889304Y3885133D01*
X902208Y3877665D01*
X915924Y3871874D01*
X927201Y3868674D01*
X931011Y3866591D01*
X933653Y3863136D01*
X934567Y3858869D01*
X933653Y3854653D01*
X931011Y3851198D01*
X927201Y3849115D01*
X915924Y3845915D01*
X902208Y3840124D01*
X889304Y3832656D01*
X877417Y3823715D01*
X866749Y3813352D01*
X857402Y3801719D01*
X849579Y3789070D01*
X843381Y3775557D01*
X838860Y3761384D01*
X836117Y3746754D01*
X835202Y3731869D01*
X836117Y3717036D01*
X838860Y3702405D01*
X843381Y3688232D01*
X849579Y3674719D01*
X857402Y3662070D01*
X866749Y3650437D01*
X877417Y3640074D01*
X889304Y3631133D01*
X902208Y3623665D01*
X915924Y3617874D01*
X927201Y3614674D01*
X931011Y3612591D01*
X933653Y3609136D01*
X934567Y3604869D01*
X933653Y3600653D01*
X931011Y3597198D01*
X927201Y3595115D01*
X915924Y3591915D01*
X902208Y3586124D01*
X889304Y3578656D01*
X877417Y3569715D01*
X866749Y3559352D01*
X857402Y3547719D01*
X849579Y3535070D01*
X843381Y3521557D01*
X838860Y3507384D01*
X836117Y3492754D01*
X835202Y3477869D01*
X836117Y3463036D01*
X838860Y3448405D01*
X843381Y3434232D01*
X849579Y3420719D01*
X857402Y3408070D01*
X866749Y3396437D01*
X877417Y3386074D01*
X889304Y3377133D01*
X902208Y3369665D01*
X915924Y3363874D01*
X930249Y3359810D01*
X944930Y3357524D01*
X959815Y3357067D01*
X974648Y3358438D01*
X989177Y3361639D01*
X1003198Y3366566D01*
X1016558Y3373221D01*
X1028953Y3381400D01*
X1040231Y3391103D01*
X1050290Y3402126D01*
X1058875Y3414268D01*
X1065936Y3427374D01*
X1068019Y3432810D01*
X1070203Y3436213D01*
X1073556Y3438499D01*
X1077518Y3439312D01*
X1688490Y3439312D01*
X1692351Y3438550D01*
X1695653Y3436365D01*
X1697837Y3433114D01*
X1699564Y3429050D01*
X1706524Y3417315D01*
X1714957Y3406648D01*
X1724761Y3397148D01*
X1735734Y3389071D01*
X1747723Y3382518D01*
X1760423Y3377590D01*
X1773682Y3374440D01*
X1787245Y3373069D01*
X1800910Y3373526D01*
X1814322Y3375812D01*
X1828139Y3380079D01*
X1831746Y3380536D01*
X1835302Y3379673D01*
X1838299Y3377590D01*
X1890064Y3325876D01*
X1896262Y3320745D01*
X1902968Y3317189D01*
X1910181Y3315004D01*
X1918207Y3314192D01*
X2456891Y3314192D01*
X2460802Y3313429D01*
X2464104Y3311194D01*
X2465679Y3309620D01*
X2473706Y3303981D01*
X2482646Y3299866D01*
X2492095Y3297326D01*
G37*
G36*
X2501950Y388162D02*
G01*
X2511704Y389026D01*
X2521204Y391566D01*
X2530094Y395681D01*
X2538171Y401320D01*
X2545080Y408279D01*
X2550718Y416306D01*
X2554884Y425246D01*
X2557424Y434695D01*
X2558288Y444500D01*
X2557424Y454304D01*
X2554884Y463753D01*
X2550718Y472693D01*
X2545080Y480720D01*
X2538171Y487680D01*
X2530094Y493318D01*
X2521204Y497433D01*
X2511704Y499973D01*
X2501950Y500837D01*
X2492146Y499973D01*
X2482646Y497433D01*
X2473756Y493318D01*
X2465679Y487680D01*
X2464104Y486105D01*
X2460802Y483870D01*
X2456942Y483108D01*
X2126691Y483108D01*
X2122881Y483870D01*
X2119630Y485952D01*
X2117394Y489153D01*
X2116531Y492912D01*
X2117140Y496773D01*
X2119172Y500075D01*
X2124811Y506323D01*
X2132533Y517601D01*
X2138680Y529742D01*
X2143150Y542645D01*
X2145893Y556006D01*
X2146808Y569620D01*
X2145893Y583234D01*
X2143150Y596595D01*
X2138680Y609447D01*
X2132533Y621639D01*
X2124811Y632866D01*
X2115718Y642924D01*
X2113737Y646226D01*
X2113127Y650087D01*
X2113991Y653846D01*
X2116226Y657047D01*
X2119477Y659130D01*
X2123287Y659892D01*
X2583942Y659892D01*
X2587802Y659130D01*
X2591104Y656894D01*
X2592679Y655320D01*
X2600756Y649681D01*
X2609646Y645566D01*
X2619146Y643026D01*
X2628950Y642162D01*
X2638704Y643026D01*
X2648204Y645566D01*
X2657094Y649681D01*
X2665171Y655320D01*
X2672080Y662279D01*
X2677718Y670306D01*
X2681884Y679246D01*
X2684424Y688695D01*
X2685288Y698500D01*
X2684424Y708304D01*
X2681884Y717753D01*
X2677718Y726694D01*
X2672080Y734720D01*
X2665171Y741680D01*
X2657094Y747318D01*
X2648204Y751433D01*
X2638704Y753973D01*
X2628950Y754837D01*
X2619146Y753973D01*
X2609646Y751433D01*
X2606141Y749808D01*
X2602026Y748842D01*
X2599740Y749300D01*
X2459329Y749300D01*
X2459329Y747268D01*
X2458567Y743356D01*
X2456332Y740105D01*
X2453030Y737870D01*
X2449169Y737108D01*
X2444089Y737108D01*
X2440178Y737870D01*
X2436876Y740105D01*
X2434691Y743356D01*
X2433929Y747268D01*
X2433929Y749300D01*
X2302916Y749300D01*
X2303170Y746201D01*
X2302103Y742645D01*
X2299868Y739698D01*
X2296718Y737768D01*
X2293061Y737108D01*
X2126691Y737108D01*
X2122881Y737870D01*
X2119630Y739952D01*
X2117394Y743153D01*
X2116531Y746912D01*
X2117140Y750773D01*
X2119172Y754075D01*
X2124811Y760323D01*
X2132533Y771601D01*
X2138680Y783742D01*
X2143150Y796645D01*
X2145893Y810006D01*
X2146808Y823620D01*
X2145893Y837234D01*
X2143150Y850595D01*
X2138680Y863447D01*
X2132533Y875639D01*
X2124811Y886866D01*
X2115718Y896924D01*
X2113737Y900226D01*
X2113127Y904087D01*
X2113991Y907846D01*
X2116226Y911047D01*
X2119477Y913130D01*
X2123287Y913892D01*
X2293061Y913892D01*
X2296718Y913231D01*
X2299868Y911301D01*
X2302103Y908354D01*
X2303170Y904798D01*
X2302865Y901090D01*
X2302205Y898499D01*
X2301341Y889000D01*
X2302205Y879500D01*
X2304643Y870356D01*
X2308656Y861720D01*
X2314143Y853948D01*
X2320848Y847191D01*
X2328621Y841756D01*
X2337257Y837742D01*
X2346248Y835304D01*
X2350160Y833272D01*
X2352802Y829818D01*
X2353767Y825500D01*
X2352802Y821182D01*
X2350160Y817727D01*
X2346248Y815695D01*
X2337257Y813257D01*
X2328621Y809244D01*
X2320848Y803808D01*
X2314143Y797052D01*
X2308656Y789279D01*
X2304643Y780643D01*
X2303068Y774700D01*
X2433929Y774700D01*
X2433929Y824230D01*
X2434691Y828141D01*
X2436876Y831392D01*
X2440178Y833628D01*
X2444089Y834390D01*
X2449169Y834390D01*
X2453030Y833628D01*
X2456332Y831392D01*
X2458567Y828141D01*
X2459329Y824230D01*
X2459329Y774700D01*
X2590190Y774700D01*
X2588615Y780643D01*
X2584602Y789279D01*
X2579116Y797052D01*
X2572410Y803808D01*
X2564587Y809244D01*
X2556002Y813257D01*
X2547010Y815695D01*
X2543098Y817727D01*
X2540406Y821182D01*
X2539492Y825500D01*
X2540406Y829818D01*
X2543098Y833272D01*
X2547010Y835304D01*
X2556002Y837742D01*
X2564587Y841756D01*
X2575915Y849630D01*
X2579827Y850392D01*
X2634742Y850392D01*
X2638602Y849630D01*
X2641904Y847394D01*
X2643479Y845819D01*
X2651556Y840181D01*
X2660446Y836066D01*
X2669946Y833526D01*
X2679750Y832662D01*
X2689504Y833526D01*
X2699004Y836066D01*
X2707894Y840181D01*
X2715971Y845819D01*
X2722880Y852779D01*
X2728518Y860806D01*
X2730754Y865632D01*
X2733040Y868781D01*
X2736342Y870813D01*
X2740152Y871524D01*
X2743962Y870712D01*
X2747162Y868527D01*
X2861868Y753821D01*
X2863900Y750925D01*
X2864815Y747522D01*
X2865526Y739495D01*
X2868066Y730046D01*
X2872181Y721106D01*
X2877820Y713079D01*
X2884779Y706120D01*
X2892806Y700481D01*
X2901746Y696366D01*
X2911195Y693826D01*
X2921000Y692962D01*
X2930804Y693826D01*
X2940253Y696366D01*
X2949194Y700481D01*
X2957220Y706120D01*
X2964180Y713079D01*
X2968498Y719277D01*
X2971749Y722223D01*
X2975914Y723544D01*
X2980283Y722985D01*
X2983992Y720598D01*
X3287064Y417576D01*
X3293313Y412445D01*
X3299968Y408889D01*
X3307181Y406704D01*
X3315208Y405892D01*
X3923842Y405892D01*
X3931869Y406704D01*
X3939082Y408889D01*
X3945737Y412445D01*
X3951986Y417576D01*
X4006494Y472084D01*
X4009491Y474167D01*
X4013047Y475030D01*
X4016705Y474573D01*
X4030472Y470306D01*
X4043934Y468020D01*
X4057548Y467563D01*
X4071112Y468934D01*
X4084370Y472084D01*
X4097121Y477012D01*
X4109059Y483565D01*
X4120032Y491642D01*
X4129836Y501142D01*
X4138320Y511809D01*
X4147972Y528066D01*
X4151274Y530199D01*
X4155135Y530961D01*
X4764532Y530961D01*
X4768494Y530199D01*
X4771796Y527913D01*
X4773980Y524510D01*
X4776063Y519074D01*
X4783124Y505968D01*
X4791710Y493826D01*
X4801768Y482803D01*
X4813046Y473151D01*
X4825441Y464921D01*
X4838801Y458266D01*
X4852822Y453339D01*
X4867351Y450138D01*
X4882184Y448767D01*
X4897069Y449224D01*
X4911750Y451510D01*
X4926076Y455574D01*
X4939792Y461365D01*
X4952695Y468833D01*
X4964582Y477774D01*
X4975250Y488137D01*
X4984597Y499770D01*
X4992420Y512419D01*
X4998618Y525932D01*
X5003139Y540105D01*
X5005882Y554736D01*
X5006797Y569620D01*
X5005882Y584454D01*
X5003139Y599084D01*
X4998618Y613257D01*
X4992420Y626770D01*
X4984597Y639470D01*
X4975250Y651052D01*
X4964582Y661416D01*
X4952695Y670356D01*
X4939792Y677824D01*
X4926076Y683615D01*
X4914798Y686816D01*
X4910988Y688898D01*
X4908346Y692353D01*
X4907432Y696620D01*
X4908346Y700836D01*
X4910988Y704342D01*
X4914798Y706374D01*
X4926076Y709574D01*
X4939792Y715365D01*
X4952695Y722833D01*
X4964582Y731774D01*
X4975250Y742137D01*
X4984597Y753770D01*
X4992420Y766419D01*
X4998618Y779932D01*
X5003139Y794105D01*
X5005882Y808736D01*
X5006797Y823620D01*
X5005882Y838453D01*
X5003139Y853084D01*
X4998618Y867257D01*
X4992420Y880770D01*
X4984597Y893470D01*
X4975250Y905052D01*
X4964582Y915416D01*
X4952695Y924356D01*
X4939792Y931824D01*
X4926076Y937615D01*
X4914798Y940816D01*
X4910988Y942898D01*
X4908346Y946353D01*
X4907432Y950620D01*
X4908346Y954836D01*
X4910988Y958342D01*
X4914798Y960374D01*
X4926076Y963574D01*
X4939792Y969365D01*
X4952695Y976833D01*
X4964582Y985774D01*
X4975250Y996137D01*
X4984597Y1007770D01*
X4992420Y1020419D01*
X4998618Y1033932D01*
X5003139Y1048105D01*
X5005882Y1062736D01*
X5006797Y1077620D01*
X5005882Y1092454D01*
X5003139Y1107084D01*
X4998618Y1121257D01*
X4992420Y1134770D01*
X4984597Y1147470D01*
X4975250Y1159052D01*
X4964582Y1169416D01*
X4952695Y1178356D01*
X4939792Y1185824D01*
X4926076Y1191615D01*
X4914798Y1194816D01*
X4910988Y1196898D01*
X4908346Y1200353D01*
X4907432Y1204620D01*
X4908346Y1208836D01*
X4910988Y1212342D01*
X4914798Y1214374D01*
X4926076Y1217574D01*
X4939792Y1223365D01*
X4952695Y1230833D01*
X4964582Y1239774D01*
X4975250Y1250137D01*
X4984597Y1261770D01*
X4992420Y1274419D01*
X4998618Y1287932D01*
X5003139Y1302105D01*
X5005882Y1316736D01*
X5006797Y1331620D01*
X5005882Y1346454D01*
X5003139Y1361084D01*
X4998618Y1375257D01*
X4992420Y1388770D01*
X4984597Y1401470D01*
X4975250Y1413052D01*
X4964582Y1423416D01*
X4952695Y1432356D01*
X4939792Y1439824D01*
X4926076Y1445615D01*
X4914798Y1448816D01*
X4910988Y1450898D01*
X4908346Y1454353D01*
X4907432Y1458620D01*
X4908346Y1462836D01*
X4910988Y1466342D01*
X4914798Y1468374D01*
X4926076Y1471574D01*
X4939792Y1477365D01*
X4952695Y1484833D01*
X4964582Y1493774D01*
X4975250Y1504137D01*
X4984597Y1515770D01*
X4992420Y1528419D01*
X4998618Y1541932D01*
X5003139Y1556105D01*
X5005882Y1570736D01*
X5006797Y1585620D01*
X5005882Y1600454D01*
X5003139Y1615084D01*
X4998618Y1629257D01*
X4992420Y1642770D01*
X4984597Y1655470D01*
X4975250Y1667052D01*
X4964582Y1677416D01*
X4952695Y1686356D01*
X4939792Y1693824D01*
X4926076Y1699615D01*
X4914798Y1702816D01*
X4910988Y1704898D01*
X4908346Y1708353D01*
X4907432Y1712620D01*
X4908346Y1716836D01*
X4910988Y1720342D01*
X4914798Y1722374D01*
X4926076Y1725574D01*
X4939792Y1731365D01*
X4952695Y1738833D01*
X4964582Y1747774D01*
X4975250Y1758137D01*
X4984597Y1769770D01*
X4992420Y1782419D01*
X4998618Y1795932D01*
X5003139Y1810105D01*
X5006035Y1825853D01*
X5007457Y1829511D01*
X5010099Y1832305D01*
X5013655Y1833930D01*
X5017566Y1834083D01*
X5021224Y1832762D01*
X5024120Y1830171D01*
X5025847Y1826666D01*
X5027015Y1822246D01*
X5031181Y1813306D01*
X5036820Y1805279D01*
X5043728Y1798320D01*
X5051806Y1792681D01*
X5060696Y1788566D01*
X5070195Y1786026D01*
X5080000Y1785162D01*
X5089753Y1786026D01*
X5099253Y1788566D01*
X5101590Y1789633D01*
X5105908Y1790598D01*
X5323332Y1790598D01*
X5327243Y1789836D01*
X5330494Y1787601D01*
X5332730Y1784350D01*
X5333492Y1778965D01*
X5332730Y1775104D01*
X5330494Y1771802D01*
X5327243Y1769567D01*
X5323332Y1768805D01*
X5317693Y1768805D01*
X5311343Y1768093D01*
X5305907Y1766163D01*
X5300980Y1763115D01*
X5296916Y1759000D01*
X5293817Y1754124D01*
X5291886Y1748637D01*
X5291175Y1742338D01*
X5291175Y1643481D01*
X5291886Y1637131D01*
X5293817Y1631696D01*
X5296916Y1626768D01*
X5300980Y1622704D01*
X5302859Y1621485D01*
X5305806Y1618691D01*
X5307431Y1614932D01*
X5307431Y1610868D01*
X5305806Y1607108D01*
X5302859Y1604314D01*
X5300980Y1603095D01*
X5296916Y1599031D01*
X5293817Y1594104D01*
X5291886Y1588668D01*
X5291175Y1582318D01*
X5291175Y1483461D01*
X5291886Y1477162D01*
X5293817Y1471676D01*
X5296916Y1466799D01*
X5300980Y1462684D01*
X5305907Y1459636D01*
X5311343Y1457706D01*
X5317693Y1456994D01*
X5426506Y1456994D01*
X5432856Y1457706D01*
X5438292Y1459636D01*
X5443220Y1462684D01*
X5447284Y1466799D01*
X5450382Y1471676D01*
X5452262Y1477111D01*
X5453075Y1485138D01*
X5454091Y1488694D01*
X5456326Y1491691D01*
X5459526Y1493621D01*
X5463184Y1494332D01*
X5489244Y1494332D01*
X5492902Y1493621D01*
X5496052Y1491691D01*
X5498287Y1488694D01*
X5499354Y1485138D01*
X5500116Y1477111D01*
X5501995Y1471726D01*
X5505094Y1466799D01*
X5509158Y1462735D01*
X5514086Y1459636D01*
X5519521Y1457706D01*
X5525871Y1456994D01*
X5624728Y1456994D01*
X5631027Y1457706D01*
X5636514Y1459636D01*
X5641390Y1462735D01*
X5645505Y1466799D01*
X5648604Y1471726D01*
X5650484Y1477162D01*
X5651195Y1483512D01*
X5651195Y1572361D01*
X5650484Y1578660D01*
X5648604Y1584147D01*
X5645505Y1589024D01*
X5641390Y1593138D01*
X5636514Y1596186D01*
X5631027Y1598117D01*
X5624728Y1598828D01*
X5525871Y1598828D01*
X5519521Y1598117D01*
X5514086Y1596186D01*
X5509158Y1593138D01*
X5505094Y1589024D01*
X5501995Y1584147D01*
X5499963Y1578356D01*
X5497830Y1574800D01*
X5494477Y1572361D01*
X5490413Y1571548D01*
X5463184Y1571548D01*
X5459526Y1572209D01*
X5456326Y1574190D01*
X5454091Y1577136D01*
X5453075Y1580692D01*
X5452262Y1588719D01*
X5450382Y1594104D01*
X5447284Y1599031D01*
X5443220Y1603095D01*
X5441340Y1604314D01*
X5438394Y1607108D01*
X5436768Y1610868D01*
X5436768Y1614932D01*
X5438394Y1618691D01*
X5441340Y1621485D01*
X5443220Y1622704D01*
X5447284Y1626768D01*
X5450382Y1631696D01*
X5452313Y1637131D01*
X5453024Y1643481D01*
X5453024Y1742338D01*
X5452313Y1748637D01*
X5450382Y1754124D01*
X5447284Y1759000D01*
X5443220Y1763115D01*
X5438292Y1766163D01*
X5432856Y1768093D01*
X5426506Y1768805D01*
X5420868Y1768805D01*
X5417007Y1769567D01*
X5413705Y1771802D01*
X5411470Y1775104D01*
X5410708Y1778965D01*
X5410708Y1796491D01*
X5411470Y1800402D01*
X5413705Y1803704D01*
X5415280Y1805279D01*
X5420918Y1813306D01*
X5425033Y1822246D01*
X5427573Y1831695D01*
X5428437Y1841500D01*
X5427573Y1851304D01*
X5425033Y1860753D01*
X5420918Y1869693D01*
X5415280Y1877720D01*
X5408320Y1884680D01*
X5400294Y1890318D01*
X5391353Y1894433D01*
X5381904Y1896973D01*
X5372100Y1897837D01*
X5362295Y1896973D01*
X5352846Y1894433D01*
X5350510Y1893366D01*
X5346192Y1892401D01*
X5105857Y1892401D01*
X5101590Y1893366D01*
X5099253Y1894433D01*
X5089753Y1896973D01*
X5080000Y1897837D01*
X5070195Y1896973D01*
X5060696Y1894433D01*
X5051806Y1890318D01*
X5043728Y1884680D01*
X5036820Y1877720D01*
X5031181Y1869693D01*
X5027015Y1860753D01*
X5025440Y1854911D01*
X5023764Y1851406D01*
X5020868Y1848815D01*
X5017211Y1847494D01*
X5013299Y1847646D01*
X5009794Y1849272D01*
X5007102Y1852066D01*
X5005628Y1855673D01*
X5003139Y1869084D01*
X4998618Y1883257D01*
X4992420Y1896770D01*
X4984597Y1909470D01*
X4975250Y1921052D01*
X4964582Y1931416D01*
X4952695Y1940356D01*
X4939792Y1947824D01*
X4926076Y1953615D01*
X4914798Y1956816D01*
X4910988Y1958898D01*
X4908346Y1962353D01*
X4907432Y1966620D01*
X4908346Y1970836D01*
X4910988Y1974342D01*
X4914798Y1976374D01*
X4926076Y1979574D01*
X4939792Y1985365D01*
X4952695Y1992833D01*
X4964582Y2001774D01*
X4975250Y2012137D01*
X4984597Y2023770D01*
X4992420Y2036419D01*
X4998618Y2049932D01*
X5003139Y2064105D01*
X5005882Y2078736D01*
X5006797Y2093620D01*
X5005882Y2108454D01*
X5003139Y2123084D01*
X4998618Y2137257D01*
X4992420Y2150770D01*
X4984597Y2163470D01*
X4975250Y2175052D01*
X4964582Y2185416D01*
X4952695Y2194356D01*
X4939792Y2201824D01*
X4926076Y2207615D01*
X4914798Y2210816D01*
X4910988Y2212898D01*
X4908346Y2216353D01*
X4907432Y2220620D01*
X4908346Y2224836D01*
X4910988Y2228342D01*
X4914798Y2230374D01*
X4926076Y2233574D01*
X4939792Y2239365D01*
X4952695Y2246833D01*
X4964582Y2255774D01*
X4975250Y2266137D01*
X4984597Y2277770D01*
X4992420Y2290419D01*
X4998618Y2303932D01*
X5003139Y2318105D01*
X5005882Y2332736D01*
X5006797Y2347620D01*
X5005882Y2362454D01*
X5003139Y2377084D01*
X4998618Y2391257D01*
X4992420Y2404770D01*
X4984597Y2417470D01*
X4975250Y2429052D01*
X4964582Y2439416D01*
X4952695Y2448356D01*
X4939792Y2455824D01*
X4926076Y2461615D01*
X4911750Y2465679D01*
X4897069Y2467965D01*
X4882184Y2468422D01*
X4867351Y2467051D01*
X4852822Y2463850D01*
X4838801Y2458923D01*
X4825441Y2452319D01*
X4813046Y2444089D01*
X4801768Y2434386D01*
X4791710Y2423414D01*
X4783124Y2411222D01*
X4776063Y2398115D01*
X4773980Y2392680D01*
X4771796Y2389276D01*
X4768443Y2386990D01*
X4764481Y2386177D01*
X4155135Y2386177D01*
X4151274Y2386990D01*
X4147972Y2389124D01*
X4138320Y2405380D01*
X4129836Y2416098D01*
X4120032Y2425547D01*
X4109059Y2433624D01*
X4097121Y2440178D01*
X4084370Y2445105D01*
X4071112Y2448255D01*
X4057548Y2449626D01*
X4043934Y2449169D01*
X4030472Y2446883D01*
X4017467Y2442870D01*
X4005072Y2437130D01*
X3993591Y2429764D01*
X3983177Y2420975D01*
X3974033Y2410866D01*
X3966311Y2399639D01*
X3960164Y2387447D01*
X3955694Y2374595D01*
X3952951Y2361184D01*
X3952036Y2347620D01*
X3952951Y2334006D01*
X3955694Y2320645D01*
X3956710Y2317699D01*
X3957269Y2313990D01*
X3956405Y2310282D01*
X3954272Y2307183D01*
X3911295Y2264105D01*
X3907993Y2261870D01*
X3904081Y2261108D01*
X3879545Y2261108D01*
X3875633Y2261870D01*
X3872331Y2264105D01*
X3870096Y2267458D01*
X3869385Y2271369D01*
X3870198Y2275281D01*
X3881475Y2289810D01*
X3888435Y2301544D01*
X3893769Y2314092D01*
X3897376Y2327249D01*
X3899204Y2340762D01*
X3899204Y2354427D01*
X3897376Y2367940D01*
X3893769Y2381097D01*
X3888435Y2393645D01*
X3881475Y2405380D01*
X3873042Y2416098D01*
X3863238Y2425547D01*
X3852265Y2433624D01*
X3840276Y2440178D01*
X3827576Y2445105D01*
X3814318Y2448255D01*
X3800754Y2449626D01*
X3787089Y2449169D01*
X3773678Y2446883D01*
X3760622Y2442870D01*
X3748278Y2437130D01*
X3736797Y2429764D01*
X3726383Y2420975D01*
X3717239Y2410866D01*
X3709517Y2399639D01*
X3703370Y2387447D01*
X3698849Y2374544D01*
X3696157Y2361184D01*
X3695242Y2347620D01*
X3696157Y2334006D01*
X3698849Y2320645D01*
X3703370Y2307742D01*
X3709517Y2295550D01*
X3717239Y2284323D01*
X3722878Y2278075D01*
X3724859Y2274773D01*
X3725468Y2270912D01*
X3724605Y2267153D01*
X3722370Y2263952D01*
X3719118Y2261870D01*
X3715308Y2261108D01*
X3023108Y2261108D01*
X3015081Y2260295D01*
X3007868Y2258110D01*
X3001213Y2254554D01*
X2994964Y2249424D01*
X2819095Y2073605D01*
X2815793Y2071370D01*
X2811932Y2070607D01*
X2579827Y2070607D01*
X2575915Y2071370D01*
X2564587Y2079243D01*
X2556002Y2083257D01*
X2547010Y2085695D01*
X2543098Y2087727D01*
X2540406Y2091182D01*
X2539492Y2095500D01*
X2540406Y2099818D01*
X2543098Y2103272D01*
X2547010Y2105304D01*
X2556002Y2107742D01*
X2564587Y2111756D01*
X2575915Y2119630D01*
X2579827Y2120392D01*
X2647442Y2120392D01*
X2651302Y2119630D01*
X2654604Y2117394D01*
X2656179Y2115820D01*
X2664256Y2110181D01*
X2673146Y2106066D01*
X2682646Y2103526D01*
X2692450Y2102662D01*
X2702204Y2103526D01*
X2711704Y2106066D01*
X2720594Y2110181D01*
X2728671Y2115820D01*
X2735580Y2122779D01*
X2741218Y2130806D01*
X2745384Y2139746D01*
X2747924Y2149195D01*
X2748788Y2159000D01*
X2748178Y2165705D01*
X2748584Y2169515D01*
X2750362Y2172868D01*
X2753207Y2175357D01*
X2756814Y2176627D01*
X2760675Y2176475D01*
X2764129Y2174900D01*
X2765856Y2173681D01*
X2774746Y2169566D01*
X2784246Y2167026D01*
X2794050Y2166162D01*
X2803804Y2167026D01*
X2813304Y2169566D01*
X2822194Y2173681D01*
X2830271Y2179320D01*
X2837180Y2186279D01*
X2842818Y2194306D01*
X2846984Y2203246D01*
X2849524Y2212695D01*
X2850388Y2222500D01*
X2849524Y2232304D01*
X2846984Y2241753D01*
X2842818Y2250694D01*
X2837180Y2258720D01*
X2830271Y2265680D01*
X2822194Y2271318D01*
X2813304Y2275433D01*
X2803804Y2277973D01*
X2794050Y2278837D01*
X2784246Y2277973D01*
X2774746Y2275433D01*
X2765856Y2271318D01*
X2757779Y2265680D01*
X2756204Y2264105D01*
X2752902Y2261870D01*
X2749042Y2261108D01*
X2126691Y2261108D01*
X2122881Y2261870D01*
X2119630Y2263952D01*
X2117394Y2267153D01*
X2116531Y2270912D01*
X2117140Y2274773D01*
X2119172Y2278075D01*
X2124811Y2284323D01*
X2132533Y2295601D01*
X2138680Y2307742D01*
X2143150Y2320645D01*
X2145893Y2334006D01*
X2146808Y2347620D01*
X2145893Y2361234D01*
X2143150Y2374595D01*
X2138680Y2387447D01*
X2132533Y2399639D01*
X2124811Y2410866D01*
X2115667Y2420975D01*
X2105253Y2429814D01*
X2093772Y2437130D01*
X2081377Y2442870D01*
X2068372Y2446934D01*
X2054910Y2449169D01*
X2041296Y2449626D01*
X2027732Y2448255D01*
X2014474Y2445105D01*
X2001723Y2440228D01*
X1989785Y2433675D01*
X1978812Y2425547D01*
X1969007Y2416098D01*
X1960524Y2405380D01*
X1953564Y2393645D01*
X1948281Y2381097D01*
X1944674Y2367940D01*
X1942846Y2354427D01*
X1942846Y2340813D01*
X1944674Y2327249D01*
X1948281Y2314143D01*
X1953564Y2301544D01*
X1960524Y2289810D01*
X1969007Y2279142D01*
X1971852Y2275281D01*
X1972665Y2271369D01*
X1971903Y2267458D01*
X1969719Y2264105D01*
X1966417Y2261870D01*
X1962505Y2261108D01*
X1937918Y2261108D01*
X1934057Y2261870D01*
X1930755Y2264105D01*
X1887728Y2307132D01*
X1885594Y2310231D01*
X1884730Y2313889D01*
X1885289Y2317648D01*
X1886356Y2320645D01*
X1889048Y2334006D01*
X1889963Y2347620D01*
X1889048Y2361234D01*
X1886356Y2374595D01*
X1881886Y2387447D01*
X1875739Y2399639D01*
X1868017Y2410866D01*
X1858873Y2420975D01*
X1848459Y2429814D01*
X1836928Y2437130D01*
X1824583Y2442870D01*
X1811578Y2446934D01*
X1798116Y2449169D01*
X1784502Y2449626D01*
X1770888Y2448255D01*
X1757629Y2445105D01*
X1744929Y2440228D01*
X1732940Y2433675D01*
X1721967Y2425547D01*
X1712163Y2416098D01*
X1703730Y2405380D01*
X1694027Y2389174D01*
X1690776Y2386990D01*
X1686915Y2386228D01*
X1077518Y2386228D01*
X1073556Y2387041D01*
X1070203Y2389327D01*
X1068019Y2392680D01*
X1065936Y2398115D01*
X1058875Y2411222D01*
X1050290Y2423363D01*
X1040282Y2434386D01*
X1028953Y2444089D01*
X1016558Y2452268D01*
X1003249Y2458923D01*
X989177Y2463850D01*
X974648Y2467051D01*
X959815Y2468422D01*
X944930Y2467965D01*
X930249Y2465679D01*
X915924Y2461615D01*
X902208Y2455824D01*
X889355Y2448356D01*
X877468Y2439416D01*
X866749Y2429052D01*
X857453Y2417470D01*
X849630Y2404770D01*
X843381Y2391257D01*
X838860Y2377084D01*
X836117Y2362454D01*
X835202Y2347620D01*
X836117Y2332736D01*
X838860Y2318105D01*
X843381Y2303932D01*
X849630Y2290419D01*
X857453Y2277770D01*
X866749Y2266137D01*
X877468Y2255774D01*
X889355Y2246833D01*
X902208Y2239365D01*
X915924Y2233574D01*
X927201Y2230374D01*
X931062Y2228291D01*
X933653Y2224836D01*
X934618Y2220620D01*
X933653Y2216353D01*
X931062Y2212898D01*
X927201Y2210816D01*
X915924Y2207615D01*
X902208Y2201824D01*
X889355Y2194356D01*
X877468Y2185416D01*
X866749Y2175052D01*
X857453Y2163470D01*
X849630Y2150770D01*
X843381Y2137257D01*
X838860Y2123084D01*
X836117Y2108454D01*
X835202Y2093620D01*
X836117Y2078736D01*
X838860Y2064105D01*
X843381Y2049932D01*
X849630Y2036419D01*
X857453Y2023770D01*
X866749Y2012137D01*
X877468Y2001774D01*
X889355Y1992833D01*
X902208Y1985365D01*
X915924Y1979574D01*
X927201Y1976374D01*
X931062Y1974291D01*
X933653Y1970836D01*
X934618Y1966620D01*
X933653Y1962353D01*
X931062Y1958898D01*
X927201Y1956816D01*
X915924Y1953615D01*
X902208Y1947824D01*
X889355Y1940356D01*
X877468Y1931416D01*
X866749Y1921052D01*
X857453Y1909470D01*
X849630Y1896770D01*
X843381Y1883257D01*
X838860Y1869084D01*
X836117Y1854454D01*
X835202Y1839620D01*
X836117Y1824736D01*
X838860Y1810105D01*
X843381Y1795932D01*
X849630Y1782419D01*
X857453Y1769770D01*
X866749Y1758137D01*
X877468Y1747774D01*
X889355Y1738833D01*
X902208Y1731365D01*
X915924Y1725574D01*
X927201Y1722374D01*
X931062Y1720291D01*
X933653Y1716836D01*
X934618Y1712620D01*
X933653Y1708353D01*
X931062Y1704898D01*
X927201Y1702816D01*
X915924Y1699615D01*
X902208Y1693824D01*
X889355Y1686356D01*
X877468Y1677416D01*
X866749Y1667052D01*
X857453Y1655470D01*
X849630Y1642770D01*
X843381Y1629257D01*
X838860Y1615084D01*
X836117Y1600454D01*
X835202Y1585620D01*
X836117Y1570736D01*
X838860Y1556105D01*
X843381Y1541932D01*
X849630Y1528419D01*
X857453Y1515770D01*
X866749Y1504137D01*
X877468Y1493774D01*
X889355Y1484833D01*
X902208Y1477365D01*
X915924Y1471574D01*
X927201Y1468374D01*
X931062Y1466291D01*
X933653Y1462836D01*
X934618Y1458620D01*
X933653Y1454353D01*
X931062Y1450898D01*
X927201Y1448816D01*
X915924Y1445615D01*
X902208Y1439824D01*
X889355Y1432356D01*
X877468Y1423416D01*
X866749Y1413052D01*
X857453Y1401470D01*
X849630Y1388770D01*
X843381Y1375257D01*
X838860Y1361084D01*
X836117Y1346454D01*
X835202Y1331620D01*
X836117Y1316736D01*
X838860Y1302105D01*
X843381Y1287932D01*
X849630Y1274419D01*
X857453Y1261770D01*
X866749Y1250137D01*
X877468Y1239774D01*
X889355Y1230833D01*
X902208Y1223365D01*
X915924Y1217574D01*
X927201Y1214374D01*
X931062Y1212291D01*
X933653Y1208836D01*
X934618Y1204620D01*
X933653Y1200353D01*
X931062Y1196898D01*
X927201Y1194816D01*
X915924Y1191615D01*
X902208Y1185824D01*
X889355Y1178356D01*
X877468Y1169416D01*
X866749Y1159052D01*
X857453Y1147470D01*
X849630Y1134770D01*
X843381Y1121257D01*
X838860Y1107084D01*
X836117Y1092454D01*
X835202Y1077620D01*
X836117Y1062736D01*
X838860Y1048105D01*
X843381Y1033932D01*
X849630Y1020419D01*
X857453Y1007770D01*
X866749Y996137D01*
X877468Y985774D01*
X889355Y976833D01*
X902208Y969365D01*
X915924Y963574D01*
X927201Y960374D01*
X931062Y958291D01*
X933653Y954836D01*
X934618Y950620D01*
X933653Y946353D01*
X931062Y942898D01*
X927201Y940816D01*
X915924Y937615D01*
X902208Y931824D01*
X889355Y924356D01*
X877468Y915416D01*
X866749Y905052D01*
X857453Y893470D01*
X849630Y880770D01*
X843381Y867257D01*
X838860Y853084D01*
X836117Y838453D01*
X835202Y823620D01*
X836117Y808736D01*
X838860Y794105D01*
X843381Y779932D01*
X849630Y766419D01*
X857453Y753770D01*
X866749Y742137D01*
X877468Y731774D01*
X889355Y722833D01*
X902208Y715365D01*
X915924Y709574D01*
X927201Y706374D01*
X931062Y704291D01*
X933653Y700836D01*
X934618Y696620D01*
X933653Y692353D01*
X931062Y688898D01*
X927201Y686816D01*
X915924Y683615D01*
X902208Y677824D01*
X889355Y670356D01*
X877468Y661416D01*
X866749Y651052D01*
X857453Y639470D01*
X849630Y626770D01*
X843381Y613257D01*
X838860Y599084D01*
X836117Y584454D01*
X835202Y569620D01*
X836117Y554736D01*
X838860Y540105D01*
X843381Y525932D01*
X849630Y512419D01*
X857453Y499770D01*
X866749Y488137D01*
X877468Y477774D01*
X889355Y468833D01*
X902208Y461365D01*
X915924Y455574D01*
X930249Y451510D01*
X944930Y449224D01*
X959815Y448767D01*
X974648Y450138D01*
X989177Y453339D01*
X1003249Y458266D01*
X1016558Y464921D01*
X1028953Y473151D01*
X1040282Y482803D01*
X1050290Y493826D01*
X1058875Y505968D01*
X1065936Y519074D01*
X1068019Y524510D01*
X1070203Y527913D01*
X1073556Y530199D01*
X1077518Y531012D01*
X1688541Y531012D01*
X1692402Y530250D01*
X1695653Y528066D01*
X1697888Y524814D01*
X1699564Y520750D01*
X1706524Y509016D01*
X1715007Y498348D01*
X1724812Y488848D01*
X1735785Y480771D01*
X1747723Y474218D01*
X1760474Y469290D01*
X1773732Y466140D01*
X1787296Y464769D01*
X1800910Y465226D01*
X1814372Y467512D01*
X1828139Y471779D01*
X1831797Y472236D01*
X1835353Y471373D01*
X1838350Y469290D01*
X1890064Y417576D01*
X1896313Y412445D01*
X1902968Y408889D01*
X1910181Y406704D01*
X1918207Y405892D01*
X2456942Y405892D01*
X2460802Y405130D01*
X2464104Y402894D01*
X2465679Y401320D01*
X2473756Y395681D01*
X2482646Y391566D01*
X2492146Y389026D01*
G37*
G36*
X5185664Y393700D02*
G01*
X5448300Y393700D01*
X5448300Y656437D01*
X5443677Y656336D01*
X5420715Y653948D01*
X5398008Y649630D01*
X5375757Y643382D01*
X5354066Y635355D01*
X5333187Y625500D01*
X5313172Y613968D01*
X5294172Y600760D01*
X5276392Y586028D01*
X5259882Y569874D01*
X5244795Y552348D01*
X5231180Y533704D01*
X5219242Y513892D01*
X5208981Y493217D01*
X5200446Y471728D01*
X5193792Y449630D01*
X5188966Y427024D01*
X5186070Y404063D01*
G37*
G36*
X105664Y393700D02*
G01*
X368300Y393700D01*
X368300Y656437D01*
X363677Y656336D01*
X340715Y653948D01*
X318008Y649630D01*
X295757Y643382D01*
X274066Y635355D01*
X253187Y625500D01*
X233171Y613968D01*
X214172Y600760D01*
X196392Y586028D01*
X179882Y569874D01*
X164795Y552348D01*
X151180Y533704D01*
X139242Y513892D01*
X128981Y493217D01*
X120446Y471728D01*
X113792Y449630D01*
X108966Y427024D01*
X106070Y404063D01*
G37*
G36*
X5473700Y393700D02*
G01*
X5736590Y393700D01*
X5734710Y415594D01*
X5730849Y438353D01*
X5725109Y460756D01*
X5717540Y482549D01*
X5708142Y503682D01*
X5697016Y523900D01*
X5684215Y543153D01*
X5669838Y561289D01*
X5654040Y578104D01*
X5636869Y593598D01*
X5618480Y607568D01*
X5598972Y619912D01*
X5578500Y630631D01*
X5557164Y639572D01*
X5535218Y646734D01*
X5512714Y652018D01*
X5489854Y655370D01*
X5473700Y656386D01*
G37*
G36*
X393700Y393700D02*
G01*
X656590Y393700D01*
X654710Y415594D01*
X650849Y438353D01*
X645109Y460756D01*
X637540Y482549D01*
X628142Y503682D01*
X617016Y523900D01*
X604215Y543153D01*
X589838Y561289D01*
X574040Y578104D01*
X556869Y593598D01*
X538480Y607568D01*
X518972Y619912D01*
X498500Y630631D01*
X477164Y639572D01*
X455218Y646734D01*
X432714Y652018D01*
X409854Y655370D01*
X393700Y656386D01*
G37*
G36*
X2794000Y3149600D02*
G01*
X3022600Y3149600D01*
X3022600Y3262020D01*
X3020110Y3261867D01*
X3005175Y3259124D01*
X2990646Y3254603D01*
X2976829Y3248355D01*
X2963773Y3240481D01*
X2951835Y3231134D01*
X2941066Y3220364D01*
X2931718Y3208426D01*
X2923844Y3195370D01*
X2917596Y3181451D01*
X2915361Y3178302D01*
X2912110Y3176219D01*
X2908300Y3175457D01*
X2904490Y3176219D01*
X2901289Y3178302D01*
X2899054Y3181451D01*
X2892755Y3195370D01*
X2884932Y3208426D01*
X2875534Y3220364D01*
X2864764Y3231134D01*
X2852826Y3240481D01*
X2839821Y3248355D01*
X2825953Y3254603D01*
X2811424Y3259124D01*
X2796489Y3261867D01*
X2794000Y3262020D01*
G37*
G36*
X2794000Y3011779D02*
G01*
X2796489Y3011932D01*
X2811424Y3014675D01*
X2825953Y3019196D01*
X2839821Y3025444D01*
X2852826Y3033268D01*
X2864764Y3042666D01*
X2875534Y3053384D01*
X2884932Y3065373D01*
X2892755Y3078378D01*
X2899054Y3092297D01*
X2901289Y3095447D01*
X2904490Y3097580D01*
X2908300Y3098292D01*
X2912110Y3097580D01*
X2915361Y3095447D01*
X2917596Y3092297D01*
X2923844Y3078378D01*
X2931718Y3065373D01*
X2941066Y3053384D01*
X2951835Y3042666D01*
X2963773Y3033268D01*
X2976829Y3025444D01*
X2990646Y3019196D01*
X3005175Y3014675D01*
X3020110Y3011932D01*
X3022600Y3011779D01*
X3022600Y3124200D01*
X2794000Y3124200D01*
G37*
G36*
X2527300Y3011017D02*
G01*
X2542489Y3011932D01*
X2557424Y3014675D01*
X2571953Y3019196D01*
X2585821Y3025444D01*
X2598826Y3033268D01*
X2610764Y3042666D01*
X2621534Y3053384D01*
X2630932Y3065373D01*
X2638755Y3078378D01*
X2645054Y3092297D01*
X2647289Y3095447D01*
X2650490Y3097580D01*
X2654300Y3098292D01*
X2658110Y3097580D01*
X2661361Y3095447D01*
X2663596Y3092297D01*
X2669844Y3078378D01*
X2677718Y3065373D01*
X2687066Y3053384D01*
X2697835Y3042666D01*
X2709773Y3033268D01*
X2722829Y3025444D01*
X2736646Y3019196D01*
X2751175Y3014675D01*
X2766110Y3011932D01*
X2768600Y3011779D01*
X2768600Y3124200D01*
X2663240Y3124200D01*
X2659329Y3124962D01*
X2656027Y3127146D01*
X2653842Y3130448D01*
X2653080Y3134360D01*
X2653080Y3139440D01*
X2653842Y3143300D01*
X2656027Y3146602D01*
X2659329Y3148838D01*
X2663240Y3149600D01*
X2768600Y3149600D01*
X2768600Y3262020D01*
X2766110Y3261867D01*
X2751175Y3259124D01*
X2736646Y3254603D01*
X2722829Y3248355D01*
X2709773Y3240481D01*
X2697835Y3231134D01*
X2687066Y3220364D01*
X2677718Y3208426D01*
X2669844Y3195370D01*
X2663596Y3181451D01*
X2661361Y3178302D01*
X2658110Y3176219D01*
X2654300Y3175457D01*
X2650490Y3176219D01*
X2647289Y3178302D01*
X2645054Y3181451D01*
X2638755Y3195370D01*
X2630932Y3208426D01*
X2621534Y3220364D01*
X2610764Y3231134D01*
X2598826Y3240481D01*
X2585821Y3248355D01*
X2571953Y3254603D01*
X2557424Y3259124D01*
X2542489Y3261867D01*
X2527300Y3262782D01*
X2512110Y3261867D01*
X2497175Y3259124D01*
X2482646Y3254603D01*
X2468829Y3248355D01*
X2455773Y3240481D01*
X2443835Y3231134D01*
X2433066Y3220364D01*
X2423718Y3208426D01*
X2415844Y3195370D01*
X2409596Y3181502D01*
X2407361Y3178352D01*
X2404110Y3176219D01*
X2400300Y3175508D01*
X1962708Y3175508D01*
X1958797Y3176270D01*
X1955495Y3178505D01*
X1953920Y3180080D01*
X1945893Y3185718D01*
X1936953Y3189833D01*
X1927504Y3192373D01*
X1917700Y3193237D01*
X1907895Y3192373D01*
X1898446Y3189833D01*
X1889506Y3185718D01*
X1881479Y3180080D01*
X1874520Y3173120D01*
X1868881Y3165094D01*
X1864766Y3156153D01*
X1862226Y3146704D01*
X1861362Y3136900D01*
X1862226Y3127095D01*
X1864766Y3117646D01*
X1868881Y3108706D01*
X1874520Y3100679D01*
X1881479Y3093720D01*
X1889506Y3088081D01*
X1898446Y3083966D01*
X1907895Y3081426D01*
X1917700Y3080562D01*
X1927504Y3081426D01*
X1936953Y3083966D01*
X1945893Y3088081D01*
X1953920Y3093720D01*
X1955495Y3095294D01*
X1958797Y3097530D01*
X1962708Y3098292D01*
X2400300Y3098292D01*
X2404110Y3097580D01*
X2407361Y3095447D01*
X2409596Y3092297D01*
X2415844Y3078378D01*
X2423718Y3065373D01*
X2433066Y3053384D01*
X2443835Y3042666D01*
X2455773Y3033268D01*
X2468829Y3025444D01*
X2482646Y3019196D01*
X2497175Y3014675D01*
X2512110Y3011932D01*
G37*
G36*
X3289300Y3011017D02*
G01*
X3304489Y3011932D01*
X3319424Y3014675D01*
X3333953Y3019196D01*
X3347821Y3025444D01*
X3360826Y3033268D01*
X3372764Y3042666D01*
X3383534Y3053384D01*
X3392932Y3065373D01*
X3400755Y3078378D01*
X3407003Y3092246D01*
X3411524Y3106775D01*
X3414268Y3121710D01*
X3415182Y3136900D01*
X3414268Y3152089D01*
X3411524Y3167024D01*
X3407003Y3181553D01*
X3400755Y3195370D01*
X3392932Y3208426D01*
X3383534Y3220364D01*
X3372764Y3231134D01*
X3360826Y3240481D01*
X3347821Y3248355D01*
X3333953Y3254603D01*
X3319424Y3259124D01*
X3304489Y3261867D01*
X3289300Y3262782D01*
X3274110Y3261867D01*
X3259175Y3259124D01*
X3244646Y3254603D01*
X3230829Y3248355D01*
X3217773Y3240481D01*
X3205835Y3231134D01*
X3195066Y3220364D01*
X3185718Y3208426D01*
X3177844Y3195370D01*
X3171596Y3181451D01*
X3169361Y3178302D01*
X3166110Y3176219D01*
X3162300Y3175457D01*
X3158490Y3176219D01*
X3155289Y3178302D01*
X3153054Y3181451D01*
X3146755Y3195370D01*
X3138932Y3208426D01*
X3129534Y3220364D01*
X3118764Y3231134D01*
X3106826Y3240481D01*
X3093821Y3248355D01*
X3079953Y3254603D01*
X3065424Y3259124D01*
X3050489Y3261867D01*
X3048000Y3262020D01*
X3048000Y3149600D01*
X3153410Y3149600D01*
X3157270Y3148838D01*
X3160572Y3146602D01*
X3162757Y3143300D01*
X3163570Y3139440D01*
X3163570Y3134360D01*
X3162757Y3130448D01*
X3160572Y3127146D01*
X3157270Y3124962D01*
X3153410Y3124200D01*
X3048000Y3124200D01*
X3048000Y3011779D01*
X3050489Y3011932D01*
X3065424Y3014675D01*
X3079953Y3019196D01*
X3093821Y3025444D01*
X3106826Y3033268D01*
X3118764Y3042666D01*
X3129534Y3053384D01*
X3138932Y3065373D01*
X3146755Y3078378D01*
X3153054Y3092297D01*
X3155289Y3095447D01*
X3158490Y3097580D01*
X3162300Y3098292D01*
X3166110Y3097580D01*
X3169361Y3095447D01*
X3171596Y3092297D01*
X3177844Y3078378D01*
X3185718Y3065373D01*
X3195066Y3053384D01*
X3205835Y3042666D01*
X3217773Y3033268D01*
X3230829Y3025444D01*
X3244646Y3019196D01*
X3259175Y3014675D01*
X3274110Y3011932D01*
G37*
G36*
X1181100Y3000451D02*
G01*
X1194917Y3001314D01*
X1208481Y3004058D01*
X1221638Y3008477D01*
X1234033Y3014624D01*
X1245565Y3022295D01*
X1255979Y3031439D01*
X1265123Y3041853D01*
X1272794Y3053384D01*
X1278940Y3065780D01*
X1283360Y3078937D01*
X1286103Y3092500D01*
X1286967Y3106318D01*
X1286103Y3120136D01*
X1283360Y3133699D01*
X1278940Y3146856D01*
X1272794Y3159252D01*
X1265123Y3170783D01*
X1255979Y3181197D01*
X1245565Y3190341D01*
X1234033Y3198012D01*
X1221638Y3204159D01*
X1208481Y3208578D01*
X1194917Y3211322D01*
X1181100Y3212185D01*
X1167282Y3211322D01*
X1153718Y3208578D01*
X1140561Y3204159D01*
X1128166Y3198012D01*
X1116634Y3190341D01*
X1106220Y3181197D01*
X1097076Y3170783D01*
X1089406Y3159252D01*
X1083259Y3146856D01*
X1078839Y3133699D01*
X1076096Y3120136D01*
X1075232Y3106318D01*
X1076096Y3092500D01*
X1078839Y3078937D01*
X1083259Y3065780D01*
X1089406Y3053384D01*
X1097076Y3041853D01*
X1106220Y3031439D01*
X1116634Y3022295D01*
X1128166Y3014624D01*
X1140561Y3008477D01*
X1153718Y3004058D01*
X1167282Y3001314D01*
G37*
G36*
X4660900Y3000400D02*
G01*
X4674717Y3001314D01*
X4688281Y3004007D01*
X4701438Y3008477D01*
X4713833Y3014573D01*
X4725365Y3022295D01*
X4735779Y3031439D01*
X4744923Y3041853D01*
X4752594Y3053334D01*
X4758740Y3065780D01*
X4763160Y3078886D01*
X4765903Y3092450D01*
X4766767Y3106267D01*
X4765903Y3120136D01*
X4763160Y3133699D01*
X4758740Y3146806D01*
X4752594Y3159252D01*
X4744923Y3170732D01*
X4735779Y3181146D01*
X4725365Y3190290D01*
X4713833Y3198012D01*
X4701438Y3204108D01*
X4688281Y3208578D01*
X4674717Y3211271D01*
X4660900Y3212185D01*
X4647082Y3211271D01*
X4633518Y3208578D01*
X4620361Y3204108D01*
X4607966Y3198012D01*
X4596434Y3190290D01*
X4586020Y3181146D01*
X4576876Y3170732D01*
X4569206Y3159252D01*
X4563059Y3146806D01*
X4558639Y3133699D01*
X4555896Y3120136D01*
X4555032Y3106267D01*
X4555896Y3092450D01*
X4558639Y3078886D01*
X4563059Y3065780D01*
X4569206Y3053334D01*
X4576876Y3041853D01*
X4586020Y3031439D01*
X4596434Y3022295D01*
X4607966Y3014573D01*
X4620361Y3008477D01*
X4633518Y3004007D01*
X4647082Y3001314D01*
G37*
G36*
X3676243Y2808528D02*
G01*
X3690061Y2809036D01*
X3703675Y2811322D01*
X3716883Y2815386D01*
X3729431Y2821228D01*
X3741064Y2828645D01*
X3751579Y2837586D01*
X3760876Y2847797D01*
X3768699Y2859176D01*
X3774897Y2871520D01*
X3779418Y2884576D01*
X3782161Y2898089D01*
X3783126Y2911856D01*
X3782161Y2925673D01*
X3779418Y2939186D01*
X3774897Y2952242D01*
X3768699Y2964586D01*
X3760876Y2975965D01*
X3751579Y2986176D01*
X3741064Y2995117D01*
X3729431Y3002534D01*
X3716883Y3008376D01*
X3703675Y3012440D01*
X3690061Y3014726D01*
X3676243Y3015234D01*
X3662527Y3013811D01*
X3649116Y3010611D01*
X3636213Y3005683D01*
X3624072Y2999028D01*
X3612997Y2990850D01*
X3603040Y2981248D01*
X3594506Y2970377D01*
X3587445Y2958490D01*
X3582060Y2945790D01*
X3578402Y2932480D01*
X3576574Y2918764D01*
X3576574Y2904998D01*
X3578402Y2891282D01*
X3582060Y2877972D01*
X3587445Y2865272D01*
X3594506Y2853385D01*
X3603040Y2842514D01*
X3612997Y2832912D01*
X3624072Y2824734D01*
X3636213Y2818079D01*
X3649116Y2813151D01*
X3662527Y2809951D01*
G37*
G36*
X2161286Y2808528D02*
G01*
X2175103Y2809036D01*
X2188718Y2811322D01*
X2201875Y2815386D01*
X2214422Y2821228D01*
X2226056Y2828645D01*
X2236622Y2837586D01*
X2245868Y2847797D01*
X2253691Y2859176D01*
X2259939Y2871520D01*
X2264460Y2884576D01*
X2267204Y2898089D01*
X2268118Y2911856D01*
X2267204Y2925673D01*
X2264460Y2939186D01*
X2259939Y2952242D01*
X2253691Y2964586D01*
X2245868Y2975965D01*
X2236622Y2986176D01*
X2226056Y2995117D01*
X2214422Y3002534D01*
X2201875Y3008376D01*
X2188718Y3012440D01*
X2175103Y3014726D01*
X2161286Y3015234D01*
X2147519Y3013811D01*
X2134108Y3010611D01*
X2121204Y3005683D01*
X2109114Y2999028D01*
X2097989Y2990850D01*
X2088083Y2981248D01*
X2079498Y2970377D01*
X2072487Y2958490D01*
X2067052Y2945790D01*
X2063445Y2932480D01*
X2061565Y2918764D01*
X2061565Y2904998D01*
X2063445Y2891282D01*
X2067052Y2877972D01*
X2072487Y2865272D01*
X2079498Y2853385D01*
X2088083Y2842514D01*
X2097989Y2832912D01*
X2109114Y2824734D01*
X2121204Y2818079D01*
X2134108Y2813151D01*
X2147519Y2809951D01*
G37*
G36*
X5080000Y705662D02*
G01*
X5089753Y706526D01*
X5099253Y709066D01*
X5101640Y710133D01*
X5105908Y711098D01*
X5562041Y711098D01*
X5566359Y710133D01*
X5568746Y709066D01*
X5578195Y706526D01*
X5588000Y705662D01*
X5597804Y706526D01*
X5607253Y709066D01*
X5616194Y713181D01*
X5624220Y718820D01*
X5631180Y725779D01*
X5636818Y733806D01*
X5640933Y742746D01*
X5643473Y752195D01*
X5644337Y762000D01*
X5643473Y771804D01*
X5640933Y781253D01*
X5636818Y790194D01*
X5631180Y798220D01*
X5624220Y805180D01*
X5616194Y810818D01*
X5607253Y814933D01*
X5597804Y817473D01*
X5588000Y818337D01*
X5578195Y817473D01*
X5568746Y814933D01*
X5566410Y813866D01*
X5562142Y812901D01*
X5105857Y812901D01*
X5101539Y813866D01*
X5099253Y814933D01*
X5089753Y817473D01*
X5080000Y818337D01*
X5070195Y817473D01*
X5060696Y814933D01*
X5051806Y810818D01*
X5043728Y805180D01*
X5036820Y798220D01*
X5031181Y790194D01*
X5027015Y781253D01*
X5024475Y771804D01*
X5023612Y762000D01*
X5024475Y752195D01*
X5027015Y742746D01*
X5031181Y733806D01*
X5036820Y725779D01*
X5043728Y718820D01*
X5051806Y713181D01*
X5060696Y709066D01*
X5070195Y706526D01*
G37*
G36*
X1181100Y2613355D02*
G01*
X1194917Y2614218D01*
X1208481Y2616962D01*
X1221638Y2621381D01*
X1234033Y2627528D01*
X1245565Y2635199D01*
X1255979Y2644343D01*
X1265123Y2654757D01*
X1272794Y2666288D01*
X1278940Y2678684D01*
X1283360Y2691841D01*
X1286103Y2705404D01*
X1286967Y2719222D01*
X1286103Y2733040D01*
X1283360Y2746603D01*
X1278940Y2759760D01*
X1272794Y2772156D01*
X1265123Y2783687D01*
X1255979Y2794101D01*
X1245565Y2803245D01*
X1234033Y2810916D01*
X1221638Y2817063D01*
X1208481Y2821482D01*
X1194917Y2824226D01*
X1181100Y2825089D01*
X1167282Y2824226D01*
X1153718Y2821482D01*
X1140561Y2817063D01*
X1128166Y2810916D01*
X1116634Y2803245D01*
X1106220Y2794101D01*
X1097076Y2783687D01*
X1089406Y2772156D01*
X1083259Y2759760D01*
X1078839Y2746603D01*
X1076096Y2733040D01*
X1075232Y2719222D01*
X1076096Y2705404D01*
X1078839Y2691841D01*
X1083259Y2678684D01*
X1089406Y2666288D01*
X1097076Y2654757D01*
X1106220Y2644343D01*
X1116634Y2635199D01*
X1128166Y2627528D01*
X1140561Y2621381D01*
X1153718Y2616962D01*
X1167282Y2614218D01*
G37*
G36*
X4660900Y2613304D02*
G01*
X4674717Y2614218D01*
X4688281Y2616911D01*
X4701438Y2621381D01*
X4713833Y2627477D01*
X4725365Y2635199D01*
X4735779Y2644343D01*
X4744923Y2654757D01*
X4752594Y2666238D01*
X4758740Y2678684D01*
X4763160Y2691790D01*
X4765903Y2705354D01*
X4766767Y2719171D01*
X4765903Y2733040D01*
X4763160Y2746603D01*
X4758740Y2759710D01*
X4752594Y2772156D01*
X4744923Y2783636D01*
X4735779Y2794050D01*
X4725365Y2803194D01*
X4713833Y2810916D01*
X4701438Y2817012D01*
X4688281Y2821482D01*
X4674717Y2824175D01*
X4660900Y2825089D01*
X4647082Y2824175D01*
X4633518Y2821482D01*
X4620361Y2817012D01*
X4607966Y2810916D01*
X4596434Y2803194D01*
X4586020Y2794050D01*
X4576876Y2783636D01*
X4569206Y2772156D01*
X4563059Y2759710D01*
X4558639Y2746603D01*
X4555896Y2733040D01*
X4555032Y2719171D01*
X4555896Y2705354D01*
X4558639Y2691790D01*
X4563059Y2678684D01*
X4569206Y2666238D01*
X4576876Y2654757D01*
X4586020Y2644343D01*
X4596434Y2635199D01*
X4607966Y2627477D01*
X4620361Y2621381D01*
X4633518Y2616911D01*
X4647082Y2614218D01*
G37*
G36*
X3124200Y2483662D02*
G01*
X3134004Y2484526D01*
X3143453Y2487066D01*
X3145790Y2488133D01*
X3150108Y2489098D01*
X5054092Y2489098D01*
X5058359Y2488133D01*
X5060696Y2487066D01*
X5070195Y2484526D01*
X5080000Y2483662D01*
X5089753Y2484526D01*
X5099253Y2487066D01*
X5108143Y2491181D01*
X5116220Y2496820D01*
X5123129Y2503779D01*
X5128768Y2511806D01*
X5132933Y2520746D01*
X5135473Y2530195D01*
X5136337Y2540000D01*
X5135473Y2549804D01*
X5132933Y2559253D01*
X5128768Y2568194D01*
X5123129Y2576220D01*
X5116220Y2583180D01*
X5108143Y2588818D01*
X5099253Y2592933D01*
X5089753Y2595473D01*
X5080000Y2596337D01*
X5070195Y2595473D01*
X5060696Y2592933D01*
X5058359Y2591866D01*
X5054092Y2590901D01*
X3150108Y2590901D01*
X3145790Y2591866D01*
X3143453Y2592933D01*
X3134004Y2595473D01*
X3124200Y2596337D01*
X3114395Y2595473D01*
X3104946Y2592933D01*
X3096006Y2588818D01*
X3087979Y2583180D01*
X3081020Y2576220D01*
X3075381Y2568194D01*
X3071266Y2559253D01*
X3068726Y2549804D01*
X3067862Y2540000D01*
X3068726Y2530195D01*
X3071266Y2520746D01*
X3075381Y2511806D01*
X3081020Y2503779D01*
X3087979Y2496820D01*
X3096006Y2491181D01*
X3104946Y2487066D01*
X3114395Y2484526D01*
G37*
G36*
X2042261Y58775D02*
G01*
X2141118Y58775D01*
X2147468Y59486D01*
X2152904Y61417D01*
X2157831Y64516D01*
X2161895Y68580D01*
X2163114Y70459D01*
X2165908Y73406D01*
X2169668Y75031D01*
X2173732Y75031D01*
X2177491Y73406D01*
X2180285Y70459D01*
X2181504Y68580D01*
X2185568Y64516D01*
X2190496Y61417D01*
X2195931Y59486D01*
X2202281Y58775D01*
X2301138Y58775D01*
X2307437Y59486D01*
X2312924Y61417D01*
X2317800Y64516D01*
X2321915Y68580D01*
X2324963Y73507D01*
X2326894Y78943D01*
X2327605Y85293D01*
X2327605Y90932D01*
X2328367Y94843D01*
X2330602Y98094D01*
X2333853Y100330D01*
X2337765Y101092D01*
X2348534Y101092D01*
X2352192Y100431D01*
X2355392Y98450D01*
X2357628Y95504D01*
X2358644Y91897D01*
X2359456Y83870D01*
X2361336Y78486D01*
X2364435Y73609D01*
X2368499Y69494D01*
X2373426Y66395D01*
X2378862Y64516D01*
X2385212Y63804D01*
X2474061Y63804D01*
X2480360Y64516D01*
X2485847Y66395D01*
X2490724Y69494D01*
X2494838Y73609D01*
X2497886Y78486D01*
X2499817Y83972D01*
X2500528Y90271D01*
X2500528Y189128D01*
X2499817Y195478D01*
X2497886Y200914D01*
X2494838Y205841D01*
X2490724Y209905D01*
X2485847Y213004D01*
X2480360Y214884D01*
X2474061Y215595D01*
X2385212Y215595D01*
X2378862Y214884D01*
X2373426Y213004D01*
X2368499Y209905D01*
X2364435Y205841D01*
X2361336Y200914D01*
X2359456Y195529D01*
X2358644Y187502D01*
X2357628Y183896D01*
X2355392Y180949D01*
X2352192Y178968D01*
X2348534Y178308D01*
X2337765Y178308D01*
X2333853Y179070D01*
X2330602Y181305D01*
X2328367Y184556D01*
X2327605Y188468D01*
X2327605Y194106D01*
X2326894Y200456D01*
X2324963Y205892D01*
X2321915Y210820D01*
X2317800Y214884D01*
X2312924Y217982D01*
X2307437Y219913D01*
X2301138Y220624D01*
X2202281Y220624D01*
X2195931Y219913D01*
X2190496Y217982D01*
X2185568Y214884D01*
X2181504Y210820D01*
X2180285Y208940D01*
X2177491Y205994D01*
X2173732Y204368D01*
X2169668Y204368D01*
X2165908Y205994D01*
X2163114Y208940D01*
X2161895Y210820D01*
X2157831Y214884D01*
X2152904Y217982D01*
X2147468Y219913D01*
X2141118Y220624D01*
X2042261Y220624D01*
X2035962Y219913D01*
X2030475Y217982D01*
X2025599Y214884D01*
X2021484Y210820D01*
X2018436Y205892D01*
X2016506Y200456D01*
X2015794Y194106D01*
X2015794Y188468D01*
X2015032Y184556D01*
X2012848Y181305D01*
X2009546Y179070D01*
X2005634Y178308D01*
X1962708Y178308D01*
X1958797Y179070D01*
X1955495Y181305D01*
X1953920Y182880D01*
X1945893Y188518D01*
X1936953Y192633D01*
X1927504Y195173D01*
X1917700Y196037D01*
X1907895Y195173D01*
X1898446Y192633D01*
X1889506Y188518D01*
X1881479Y182880D01*
X1874520Y175920D01*
X1868881Y167894D01*
X1864766Y158953D01*
X1862226Y149504D01*
X1861362Y139700D01*
X1862226Y129895D01*
X1864766Y120446D01*
X1868881Y111506D01*
X1874520Y103479D01*
X1881479Y96520D01*
X1889506Y90881D01*
X1898446Y86766D01*
X1907895Y84226D01*
X1917700Y83362D01*
X1927504Y84226D01*
X1936953Y86766D01*
X1945893Y90881D01*
X1953920Y96520D01*
X1955495Y98094D01*
X1958797Y100330D01*
X1962708Y101092D01*
X2005634Y101092D01*
X2009546Y100330D01*
X2012848Y98094D01*
X2015032Y94843D01*
X2015794Y90932D01*
X2015794Y85293D01*
X2016506Y78943D01*
X2018436Y73507D01*
X2021484Y68580D01*
X2025599Y64516D01*
X2030475Y61417D01*
X2035962Y59486D01*
G37*
G36*
X5588000Y1710588D02*
G01*
X5651195Y1710588D01*
X5651195Y1742338D01*
X5650484Y1748637D01*
X5648604Y1754124D01*
X5645505Y1759000D01*
X5641390Y1763115D01*
X5636514Y1766214D01*
X5631027Y1768093D01*
X5624728Y1768805D01*
X5588000Y1768805D01*
G37*
G36*
X5499404Y1710588D02*
G01*
X5562600Y1710588D01*
X5562600Y1768805D01*
X5525871Y1768805D01*
X5519521Y1768093D01*
X5514086Y1766214D01*
X5509158Y1763115D01*
X5505094Y1759000D01*
X5501995Y1754124D01*
X5500116Y1748637D01*
X5499404Y1742338D01*
G37*
G36*
X5588000Y1627022D02*
G01*
X5624728Y1627022D01*
X5631027Y1627733D01*
X5636514Y1629613D01*
X5641390Y1632712D01*
X5645505Y1636826D01*
X5648604Y1641703D01*
X5650484Y1647189D01*
X5651195Y1653489D01*
X5651195Y1685188D01*
X5588000Y1685188D01*
G37*
G36*
X5525871Y1627022D02*
G01*
X5562600Y1627022D01*
X5562600Y1685188D01*
X5499404Y1685188D01*
X5499404Y1653489D01*
X5500116Y1647189D01*
X5501995Y1641703D01*
X5505094Y1636826D01*
X5509158Y1632712D01*
X5514086Y1629613D01*
X5519521Y1627733D01*
G37*
G36*
X5219039Y1282700D02*
G01*
X5321300Y1282700D01*
X5321300Y1385112D01*
X5319471Y1384960D01*
X5305196Y1382268D01*
X5291328Y1377746D01*
X5278170Y1371549D01*
X5265877Y1363776D01*
X5254650Y1354480D01*
X5244693Y1343863D01*
X5236159Y1332077D01*
X5229148Y1319326D01*
X5223764Y1305814D01*
X5220157Y1291742D01*
G37*
G36*
X5473039Y1282700D02*
G01*
X5575300Y1282700D01*
X5575300Y1385112D01*
X5573471Y1384960D01*
X5559196Y1382268D01*
X5545328Y1377746D01*
X5532170Y1371549D01*
X5519877Y1363776D01*
X5508650Y1354480D01*
X5498693Y1343863D01*
X5490159Y1332077D01*
X5483148Y1319326D01*
X5477764Y1305814D01*
X5474157Y1291742D01*
G37*
G36*
X5600700Y1282700D02*
G01*
X5702960Y1282700D01*
X5701842Y1291742D01*
X5698236Y1305814D01*
X5692851Y1319326D01*
X5685840Y1332077D01*
X5677306Y1343863D01*
X5667349Y1354480D01*
X5656122Y1363776D01*
X5643829Y1371549D01*
X5630672Y1377746D01*
X5616803Y1382268D01*
X5602528Y1384960D01*
X5600700Y1385112D01*
G37*
G36*
X5334000Y900125D02*
G01*
X5348528Y901039D01*
X5362803Y903782D01*
X5376672Y908253D01*
X5389829Y914450D01*
X5402122Y922274D01*
X5413349Y931519D01*
X5423306Y942136D01*
X5431840Y953922D01*
X5438851Y966673D01*
X5444236Y980186D01*
X5447842Y994308D01*
X5449671Y1008735D01*
X5449671Y1023264D01*
X5447842Y1037742D01*
X5444236Y1051814D01*
X5438851Y1065326D01*
X5431840Y1078077D01*
X5423306Y1089863D01*
X5413349Y1100480D01*
X5402122Y1109776D01*
X5389829Y1117549D01*
X5376672Y1123746D01*
X5362803Y1128268D01*
X5348528Y1130960D01*
X5334000Y1131874D01*
X5319471Y1130960D01*
X5305196Y1128268D01*
X5291328Y1123746D01*
X5278170Y1117549D01*
X5265877Y1109776D01*
X5254650Y1100480D01*
X5244693Y1089863D01*
X5236159Y1078077D01*
X5229148Y1065326D01*
X5223764Y1051814D01*
X5220157Y1037742D01*
X5218328Y1023264D01*
X5218328Y1008735D01*
X5220157Y994308D01*
X5223764Y980186D01*
X5229148Y966673D01*
X5236159Y953922D01*
X5244693Y942136D01*
X5254650Y931519D01*
X5265877Y922274D01*
X5278170Y914450D01*
X5291328Y908253D01*
X5305196Y903782D01*
X5319471Y901039D01*
G37*
G36*
X5588000Y900125D02*
G01*
X5602528Y901039D01*
X5616803Y903782D01*
X5630672Y908253D01*
X5643829Y914450D01*
X5656122Y922274D01*
X5667349Y931519D01*
X5677306Y942136D01*
X5685840Y953922D01*
X5692851Y966673D01*
X5698236Y980186D01*
X5701842Y994308D01*
X5703671Y1008735D01*
X5703671Y1023264D01*
X5701842Y1037742D01*
X5698236Y1051814D01*
X5692851Y1065326D01*
X5685840Y1078077D01*
X5677306Y1089863D01*
X5667349Y1100480D01*
X5656122Y1109776D01*
X5643829Y1117549D01*
X5630672Y1123746D01*
X5616803Y1128268D01*
X5602528Y1130960D01*
X5588000Y1131874D01*
X5573471Y1130960D01*
X5559196Y1128268D01*
X5545328Y1123746D01*
X5532170Y1117549D01*
X5519877Y1109776D01*
X5508650Y1100480D01*
X5498693Y1089863D01*
X5490159Y1078077D01*
X5483148Y1065326D01*
X5477764Y1051814D01*
X5474157Y1037742D01*
X5472328Y1023264D01*
X5472328Y1008735D01*
X5474157Y994308D01*
X5477764Y980186D01*
X5483148Y966673D01*
X5490159Y953922D01*
X5498693Y942136D01*
X5508650Y931519D01*
X5519877Y922274D01*
X5532170Y914450D01*
X5545328Y908253D01*
X5559196Y903782D01*
X5573471Y901039D01*
G37*
G36*
X5346700Y1282700D02*
G01*
X5448960Y1282700D01*
X5447842Y1291742D01*
X5444236Y1305814D01*
X5438851Y1319326D01*
X5431840Y1332077D01*
X5423306Y1343863D01*
X5413349Y1354480D01*
X5402122Y1363776D01*
X5389829Y1371549D01*
X5376672Y1377746D01*
X5362803Y1382268D01*
X5348528Y1384960D01*
X5346700Y1385112D01*
G37*
G36*
X5321300Y1154938D02*
G01*
X5321300Y1257300D01*
X5219039Y1257300D01*
X5220157Y1248308D01*
X5223764Y1234186D01*
X5229148Y1220673D01*
X5236159Y1207922D01*
X5244693Y1196136D01*
X5254650Y1185519D01*
X5265877Y1176274D01*
X5278170Y1168450D01*
X5291328Y1162253D01*
X5305196Y1157782D01*
X5319471Y1155039D01*
G37*
G36*
X5346700Y1154938D02*
G01*
X5348528Y1155039D01*
X5362803Y1157782D01*
X5376672Y1162253D01*
X5389829Y1168450D01*
X5402122Y1176274D01*
X5413349Y1185519D01*
X5423306Y1196136D01*
X5431840Y1207922D01*
X5438851Y1220673D01*
X5444236Y1234186D01*
X5447842Y1248308D01*
X5448960Y1257300D01*
X5346700Y1257300D01*
G37*
G36*
X5600700Y1154938D02*
G01*
X5602528Y1155039D01*
X5616803Y1157782D01*
X5630672Y1162253D01*
X5643829Y1168450D01*
X5656122Y1176274D01*
X5667349Y1185519D01*
X5677306Y1196136D01*
X5685840Y1207922D01*
X5692851Y1220673D01*
X5698236Y1234186D01*
X5701842Y1248308D01*
X5702960Y1257300D01*
X5600700Y1257300D01*
G37*
G36*
X5575300Y1154938D02*
G01*
X5575300Y1257300D01*
X5473039Y1257300D01*
X5474157Y1248308D01*
X5477764Y1234186D01*
X5483148Y1220673D01*
X5490159Y1207922D01*
X5498693Y1196136D01*
X5508650Y1185519D01*
X5519877Y1176274D01*
X5532170Y1168450D01*
X5545328Y1162253D01*
X5559196Y1157782D01*
X5573471Y1155039D01*
G37*

%LPD*%
G36*
X3548938Y3645408D02*
G01*
X3545332Y3646068D01*
X3542131Y3647998D01*
X3539896Y3650945D01*
X3538829Y3654501D01*
X3539134Y3658209D01*
X3539845Y3660800D01*
X3540658Y3670300D01*
X3539845Y3679799D01*
X3537356Y3688943D01*
X3533343Y3697579D01*
X3527907Y3705351D01*
X3521201Y3712108D01*
X3513378Y3717544D01*
X3504742Y3721557D01*
X3495801Y3723995D01*
X3491890Y3726027D01*
X3489198Y3729482D01*
X3488232Y3733800D01*
X3489198Y3738118D01*
X3491890Y3741572D01*
X3495801Y3743604D01*
X3504742Y3746042D01*
X3513378Y3750056D01*
X3521201Y3755491D01*
X3527907Y3762248D01*
X3533343Y3770020D01*
X3537356Y3778656D01*
X3538982Y3784600D01*
X3408121Y3784600D01*
X3408121Y3735070D01*
X3407308Y3731158D01*
X3405124Y3727907D01*
X3401822Y3725672D01*
X3397961Y3724910D01*
X3392881Y3724910D01*
X3388969Y3725672D01*
X3385667Y3727907D01*
X3383483Y3731158D01*
X3382721Y3735070D01*
X3382721Y3784600D01*
X3251809Y3784600D01*
X3254349Y3774846D01*
X3253841Y3771036D01*
X3251860Y3767683D01*
X3248812Y3765296D01*
X3245104Y3764229D01*
X3241395Y3763873D01*
X3231946Y3761333D01*
X3223006Y3757218D01*
X3214979Y3751579D01*
X3208020Y3744620D01*
X3203702Y3738473D01*
X3200450Y3735476D01*
X3196285Y3734155D01*
X3191916Y3734714D01*
X3188208Y3737101D01*
X2720035Y4205224D01*
X2713837Y4210354D01*
X2707132Y4213910D01*
X2699918Y4216095D01*
X2691892Y4216908D01*
X2579776Y4216908D01*
X2575915Y4217670D01*
X2564587Y4225544D01*
X2555951Y4229557D01*
X2546959Y4231995D01*
X2543098Y4234027D01*
X2540406Y4237482D01*
X2539441Y4241800D01*
X2540406Y4246118D01*
X2543098Y4249572D01*
X2546959Y4251604D01*
X2555951Y4254042D01*
X2564587Y4258056D01*
X2575915Y4265930D01*
X2579776Y4266692D01*
X2710281Y4266692D01*
X2714193Y4265930D01*
X2717495Y4263694D01*
X3147364Y3833876D01*
X3153562Y3828745D01*
X3160268Y3825189D01*
X3167481Y3823004D01*
X3175508Y3822192D01*
X3241852Y3822192D01*
X3245510Y3821531D01*
X3248660Y3819601D01*
X3250895Y3816654D01*
X3251962Y3813098D01*
X3251708Y3810000D01*
X3382721Y3810000D01*
X3382721Y3812032D01*
X3383483Y3815943D01*
X3385667Y3819194D01*
X3388969Y3821429D01*
X3392881Y3822192D01*
X3397961Y3822192D01*
X3401822Y3821429D01*
X3405124Y3819194D01*
X3407308Y3815943D01*
X3408121Y3812032D01*
X3408121Y3810000D01*
X3539083Y3810000D01*
X3538829Y3813098D01*
X3539896Y3816654D01*
X3542131Y3819601D01*
X3545332Y3821531D01*
X3548938Y3822192D01*
X3718763Y3822192D01*
X3722573Y3821429D01*
X3725824Y3819347D01*
X3728008Y3816146D01*
X3728923Y3812387D01*
X3728262Y3808526D01*
X3726281Y3805224D01*
X3717188Y3795166D01*
X3709466Y3783939D01*
X3703320Y3771747D01*
X3698849Y3758844D01*
X3696106Y3745484D01*
X3695242Y3731920D01*
X3696106Y3718306D01*
X3698849Y3704945D01*
X3703320Y3692042D01*
X3709466Y3679850D01*
X3717188Y3668623D01*
X3722827Y3662375D01*
X3724859Y3659073D01*
X3725468Y3655212D01*
X3724605Y3651453D01*
X3722370Y3648252D01*
X3719118Y3646170D01*
X3715308Y3645408D01*
G37*

%LPD*%
G36*
X3548989Y737108D02*
G01*
X3545332Y737768D01*
X3542182Y739698D01*
X3539947Y742645D01*
X3538880Y746201D01*
X3539185Y749909D01*
X3539845Y752500D01*
X3540709Y762000D01*
X3539845Y771499D01*
X3537407Y780643D01*
X3533394Y789279D01*
X3527907Y797052D01*
X3521201Y803808D01*
X3513429Y809244D01*
X3504793Y813257D01*
X3495801Y815695D01*
X3491890Y817727D01*
X3489248Y821182D01*
X3488283Y825500D01*
X3489248Y829818D01*
X3491890Y833272D01*
X3495801Y835304D01*
X3504793Y837742D01*
X3513429Y841756D01*
X3521201Y847191D01*
X3527907Y853948D01*
X3533394Y861720D01*
X3537407Y870356D01*
X3538982Y876300D01*
X3408121Y876300D01*
X3408121Y826769D01*
X3407359Y822858D01*
X3405174Y819607D01*
X3401872Y817372D01*
X3397961Y816610D01*
X3392881Y816610D01*
X3389020Y817372D01*
X3385718Y819607D01*
X3383483Y822858D01*
X3382721Y826769D01*
X3382721Y876300D01*
X3250590Y876300D01*
X3249066Y873201D01*
X3246577Y870762D01*
X3243376Y869340D01*
X3238500Y869137D01*
X3228695Y868273D01*
X3219246Y865733D01*
X3210306Y861618D01*
X3202279Y855980D01*
X3195320Y849020D01*
X3191002Y842873D01*
X3187801Y839876D01*
X3183585Y838555D01*
X3179216Y839165D01*
X3175508Y841502D01*
X2720086Y1296924D01*
X2713837Y1302054D01*
X2707182Y1305610D01*
X2699969Y1307795D01*
X2691942Y1308608D01*
X2579827Y1308608D01*
X2575915Y1309370D01*
X2564587Y1317244D01*
X2556002Y1321257D01*
X2547010Y1323695D01*
X2543098Y1325727D01*
X2540406Y1329182D01*
X2539492Y1333500D01*
X2540406Y1337818D01*
X2543098Y1341272D01*
X2547010Y1343304D01*
X2556002Y1345742D01*
X2564587Y1349756D01*
X2575915Y1357630D01*
X2579827Y1358392D01*
X2710332Y1358392D01*
X2714193Y1357630D01*
X2717495Y1355394D01*
X3147364Y925576D01*
X3153613Y920445D01*
X3160268Y916889D01*
X3167481Y914704D01*
X3175508Y913892D01*
X3241852Y913892D01*
X3245510Y913231D01*
X3248660Y911301D01*
X3250946Y908354D01*
X3251962Y904798D01*
X3251758Y901700D01*
X3382721Y901700D01*
X3382721Y903732D01*
X3383483Y907643D01*
X3385718Y910894D01*
X3389020Y913130D01*
X3392881Y913892D01*
X3397961Y913892D01*
X3401872Y913130D01*
X3405174Y910894D01*
X3407359Y907643D01*
X3408121Y903732D01*
X3408121Y901700D01*
X3539134Y901700D01*
X3538880Y904798D01*
X3539947Y908354D01*
X3542182Y911301D01*
X3545332Y913231D01*
X3548989Y913892D01*
X3718763Y913892D01*
X3722573Y913130D01*
X3725824Y911047D01*
X3728059Y907846D01*
X3728923Y904087D01*
X3728313Y900226D01*
X3726281Y896924D01*
X3717239Y886866D01*
X3709517Y875639D01*
X3703370Y863447D01*
X3698849Y850544D01*
X3696157Y837184D01*
X3695242Y823620D01*
X3696157Y810006D01*
X3698849Y796645D01*
X3703370Y783742D01*
X3709517Y771550D01*
X3717239Y760323D01*
X3722878Y754075D01*
X3724859Y750773D01*
X3725468Y746912D01*
X3724605Y743153D01*
X3722370Y739952D01*
X3719118Y737870D01*
X3715308Y737108D01*
G37*

%LPD*%
D10*
X3395395Y3797300D02*
G01*
X3174974Y3797300D01*
X3395426Y889000D02*
G01*
X3175000Y889000D01*
X2091690Y139700D02*
G01*
X1917700Y139700D01*
X2251707Y139700D02*
G01*
X2429611Y139700D01*
X3412388Y139700D02*
G01*
X3590284Y139700D01*
X3238500Y279400D02*
G01*
X3670300Y279400D01*
X3750307Y199392D01*
X3750307Y139700D01*
X2446629Y1016000D02*
G01*
X2654300Y1016000D01*
X2921000Y749300D01*
X2446604Y3924300D02*
G01*
X2654300Y3924300D01*
X2921000Y3657600D01*
D11*
X5079974Y5461000D02*
G01*
X3124200Y5461000D01*
D10*
X2446634Y889000D02*
G01*
X2679725Y889000D01*
X2446609Y3797300D02*
G01*
X2679700Y3797300D01*
D11*
X3124200Y2540000D02*
G01*
X5080000Y2540000D01*
D10*
X5575302Y1527911D02*
G01*
X5570293Y1532923D01*
X5372102Y1532923D01*
X5372102Y1692912D02*
G01*
X5372102Y1841505D01*
D11*
X5588002Y762017D02*
G01*
X5079989Y762017D01*
X5372102Y1841505D02*
G01*
X5079989Y1841505D01*
D10*
X2446629Y2159000D02*
G01*
X2692425Y2159000D01*
X3395426Y762000D02*
G01*
X3289300Y762000D01*
X3238500Y812800D01*
X3200425Y1143000D02*
G01*
X3395421Y1143000D01*
X3200425Y1270000D02*
G01*
X3395421Y1270000D01*
X3200400Y4178300D02*
G01*
X3395395Y4178300D01*
X3048025Y1397000D02*
G01*
X3395416Y1397000D01*
X3048025Y1524000D02*
G01*
X3395416Y1524000D01*
X3048025Y1651000D02*
G01*
X3395416Y1651000D01*
X3048025Y1778000D02*
G01*
X3395416Y1778000D01*
X3048000Y4559300D02*
G01*
X3395390Y4559300D01*
X3048000Y4686300D02*
G01*
X3395390Y4686300D01*
X3048025Y1905000D02*
G01*
X3395416Y1905000D01*
X3048000Y4813300D02*
G01*
X3395390Y4813300D01*
X3048025Y2032000D02*
G01*
X3395502Y2032000D01*
X3048000Y4940300D02*
G01*
X3395477Y4940300D01*
X3124225Y2159000D02*
G01*
X3395416Y2159000D01*
X3124200Y5067300D02*
G01*
X3395390Y5067300D01*
X1787928Y2347719D02*
G01*
X1792505Y2347719D01*
X1917725Y2222500D01*
X2794025Y2222500D01*
X1790700Y2090823D02*
G01*
X1795401Y2090823D01*
X1917725Y1968500D01*
X2794025Y1968500D01*
X1790674Y4999123D02*
G01*
X1795376Y4999123D01*
X1917700Y4876800D01*
X2794000Y4876800D01*
X1790700Y1836823D02*
G01*
X1795401Y1836823D01*
X1917725Y1714500D01*
X2794025Y1714500D01*
X1790674Y4745123D02*
G01*
X1795376Y4745123D01*
X1917700Y4622800D01*
X2794000Y4622800D01*
X1790700Y1582823D02*
G01*
X1795401Y1582823D01*
X1917725Y1460500D01*
X2794025Y1460500D01*
X1790674Y4491123D02*
G01*
X1795376Y4491123D01*
X1917700Y4368800D01*
X2794000Y4368800D01*
X1790700Y1328823D02*
G01*
X1795401Y1328823D01*
X1917725Y1206500D01*
X2641625Y1206500D01*
X1790674Y4237123D02*
G01*
X1795376Y4237123D01*
X1917700Y4114800D01*
X2641600Y4114800D01*
X1790700Y1074826D02*
G01*
X1795398Y1074826D01*
X1917725Y952500D01*
X2603525Y952500D01*
X1790674Y3983126D02*
G01*
X1795373Y3983126D01*
X1917700Y3860800D01*
X2603500Y3860800D01*
X1790700Y820826D02*
G01*
X1795398Y820826D01*
X1917725Y698500D01*
X2628925Y698500D01*
X1790674Y3729126D02*
G01*
X1795373Y3729126D01*
X1917700Y3606800D01*
X2628900Y3606800D01*
X1790700Y566823D02*
G01*
X1795401Y566823D01*
X1917725Y444500D01*
X2501925Y444500D01*
X1790674Y3475123D02*
G01*
X1795376Y3475123D01*
X1917700Y3352800D01*
X2501900Y3352800D01*
X1787903Y5256019D02*
G01*
X1792480Y5256019D01*
X1917700Y5130800D01*
X2794000Y5130800D01*
X4054144Y569595D02*
G01*
X4049420Y569595D01*
X3924325Y444500D01*
X3314725Y444500D01*
X2616225Y1143000D01*
X2446629Y1143000D01*
X4054119Y3477895D02*
G01*
X4049395Y3477895D01*
X3924300Y3352800D01*
X3314700Y3352800D01*
X2616200Y4051300D01*
X2446604Y4051300D01*
X4054144Y823595D02*
G01*
X4049420Y823595D01*
X3924325Y698500D01*
X3263925Y698500D01*
X2692425Y1270000D01*
X2446629Y1270000D01*
X4054119Y3731895D02*
G01*
X4049395Y3731895D01*
X3924300Y3606800D01*
X3263900Y3606800D01*
X2692400Y4178300D01*
X2446604Y4178300D01*
X4054144Y1077595D02*
G01*
X4049420Y1077595D01*
X3924325Y952500D01*
X3175025Y952500D01*
X2730525Y1397000D01*
X2446629Y1397000D01*
X4054119Y3985895D02*
G01*
X4049395Y3985895D01*
X3924300Y3860800D01*
X3175000Y3860800D01*
X2730500Y4305300D01*
X2446604Y4305300D01*
X4054144Y1331595D02*
G01*
X4049420Y1331595D01*
X3924325Y1206500D01*
X3136925Y1206500D01*
X2819425Y1524000D01*
X2446629Y1524000D01*
X4054119Y4239895D02*
G01*
X4049395Y4239895D01*
X3924300Y4114800D01*
X3136900Y4114800D01*
X2819400Y4432300D01*
X2446604Y4432300D01*
X4054119Y1585721D02*
G01*
X4049293Y1585721D01*
X3924325Y1460500D01*
X2984525Y1460500D01*
X2794025Y1651000D01*
X2446553Y1651000D01*
X4054093Y4494021D02*
G01*
X4049268Y4494021D01*
X3924300Y4368800D01*
X2984500Y4368800D01*
X2794000Y4559300D01*
X2446527Y4559300D01*
X4054119Y1839721D02*
G01*
X4049293Y1839721D01*
X3924325Y1714500D01*
X2959125Y1714500D01*
X2895625Y1778000D01*
X2446553Y1778000D01*
X4054093Y4748021D02*
G01*
X4049268Y4748021D01*
X3924300Y4622800D01*
X2959100Y4622800D01*
X2895600Y4686300D01*
X2446527Y4686300D01*
X4054119Y2093721D02*
G01*
X4049293Y2093721D01*
X3924325Y1968500D01*
X2959125Y1968500D01*
X2895625Y1905000D01*
X2446553Y1905000D01*
X4054093Y5002021D02*
G01*
X4049268Y5002021D01*
X3924300Y4876800D01*
X2959100Y4876800D01*
X2895600Y4813300D01*
X2446527Y4813300D01*
X2446553Y2032000D02*
G01*
X2832125Y2032000D01*
X3022625Y2222500D01*
X3924325Y2222500D01*
X4049293Y2347721D01*
X4054119Y2347721D01*
X2446527Y4940300D02*
G01*
X2832100Y4940300D01*
X3022600Y5130800D01*
X3924300Y5130800D01*
X4049268Y5256021D01*
X4054093Y5256021D01*
X2527300Y3136900D02*
G01*
X1917700Y3136900D01*
X1917700Y5461000D02*
G01*
X2692400Y5461000D01*
X3395390Y3670300D02*
G01*
X3289300Y3670300D01*
X3251200Y3708400D01*
X2446604Y5067300D02*
G01*
X2692400Y5067300D01*
X3200400Y4051300D02*
G01*
X3395390Y4051300D01*
X3048000Y4305300D02*
G01*
X3395395Y4305300D01*
X3048000Y4432300D02*
G01*
X3395390Y4432300D01*
X4885893Y5255895D02*
G01*
X4054106Y5255895D01*
X4054106Y5001889D02*
G01*
X4885893Y5001889D01*
X4885893Y4747895D02*
G01*
X4054106Y4747895D01*
X4054106Y4493889D02*
G01*
X4885893Y4493889D01*
X4885893Y4239895D02*
G01*
X4054106Y4239895D01*
X4054106Y3985889D02*
G01*
X4885893Y3985889D01*
X4885893Y3731895D02*
G01*
X4054106Y3731895D01*
X4054106Y3477889D02*
G01*
X4885893Y3477889D01*
X4885918Y2347595D02*
G01*
X4054132Y2347595D01*
X4054132Y2093589D02*
G01*
X4885918Y2093589D01*
X4885918Y1839595D02*
G01*
X4054132Y1839595D01*
X4054132Y1585589D02*
G01*
X4885918Y1585589D01*
X4885918Y1331595D02*
G01*
X4054132Y1331595D01*
X4054132Y1077589D02*
G01*
X4885918Y1077589D01*
X4885918Y823595D02*
G01*
X4054132Y823595D01*
X4054132Y569589D02*
G01*
X4885918Y569589D01*
X956109Y823607D02*
G01*
X1787908Y823607D01*
X956109Y2347607D02*
G01*
X1787908Y2347607D01*
X956109Y1077607D02*
G01*
X1787908Y1077607D01*
X956109Y569607D02*
G01*
X1787908Y569607D01*
X956109Y2093607D02*
G01*
X1787908Y2093607D01*
X956109Y1839607D02*
G01*
X1787908Y1839607D01*
X956109Y1585607D02*
G01*
X1787908Y1585607D01*
X956109Y1331607D02*
G01*
X1787908Y1331607D01*
X956096Y5255907D02*
G01*
X1787872Y5255907D01*
X956096Y4747907D02*
G01*
X1787885Y4747907D01*
X1790687Y4745118D01*
X956096Y4493907D02*
G01*
X1787885Y4493907D01*
X1790687Y4491118D01*
X956096Y4239907D02*
G01*
X1787885Y4239907D01*
X1790687Y4237118D01*
X956096Y3985907D02*
G01*
X1787885Y3985907D01*
X1790687Y3983118D01*
X956096Y3731907D02*
G01*
X1787885Y3731907D01*
X1790687Y3729118D01*
X956096Y3477907D02*
G01*
X1787885Y3477907D01*
X1790687Y3475118D01*
X956096Y5001907D02*
G01*
X1787885Y5001907D01*
X1790687Y4999118D01*
D12*
G01*
X2599613Y139700D03*
G01*
X2429611Y139700D03*
G01*
X3242386Y139700D03*
G01*
X3412388Y139700D03*
D13*
G01*
X5372100Y1692910D03*
G01*
X5372100Y1532915D03*
D14*
G01*
X5575300Y1697913D03*
G01*
X5575300Y1527911D03*
D15*
G01*
X2446629Y2159000D03*
G01*
X2446629Y2032000D03*
G01*
X2446629Y1905000D03*
G01*
X2446629Y1778000D03*
G01*
X2446629Y1651000D03*
G01*
X2446629Y1524000D03*
G01*
X2446629Y1397000D03*
G01*
X2446629Y1270000D03*
G01*
X2446629Y1143000D03*
G01*
X2446629Y1016000D03*
G01*
X2446629Y889000D03*
G01*
X2446629Y762000D03*
G01*
X3395421Y2159000D03*
G01*
X3395421Y2032000D03*
G01*
X3395421Y1905000D03*
G01*
X3395421Y1778000D03*
G01*
X3395421Y1651000D03*
G01*
X3395421Y1524000D03*
G01*
X3395421Y1397000D03*
G01*
X3395421Y1270000D03*
G01*
X3395421Y1143000D03*
G01*
X3395421Y1016000D03*
G01*
X3395421Y889000D03*
G01*
X3395421Y762000D03*
G01*
X2446604Y5067300D03*
G01*
X2446604Y4940300D03*
G01*
X2446604Y4813300D03*
G01*
X2446604Y4686300D03*
G01*
X2446604Y4559300D03*
G01*
X2446604Y4432300D03*
G01*
X2446604Y4305300D03*
G01*
X2446604Y4178300D03*
G01*
X2446604Y4051300D03*
G01*
X2446604Y3924300D03*
G01*
X2446604Y3797300D03*
G01*
X2446604Y3670300D03*
G01*
X3395395Y5067300D03*
G01*
X3395395Y4940300D03*
G01*
X3395395Y4813300D03*
G01*
X3395395Y4686300D03*
G01*
X3395395Y4559300D03*
G01*
X3395395Y4432300D03*
G01*
X3395395Y4305300D03*
G01*
X3395395Y4178300D03*
G01*
X3395395Y4051300D03*
G01*
X3395395Y3924300D03*
G01*
X3395395Y3797300D03*
G01*
X3395395Y3670300D03*
D16*
G01*
X2251709Y139700D03*
G01*
X2091715Y139700D03*
G01*
X3590290Y139700D03*
G01*
X3750284Y139700D03*
D17*
G01*
X5461000Y381000D03*
G01*
X381000Y381000D03*
G01*
X381000Y5461000D03*
G01*
X5461000Y5461000D03*
D18*
G01*
X2044674Y5255920D03*
G01*
X2044674Y4493920D03*
G01*
X1790674Y4491126D03*
G01*
X2044674Y4747920D03*
G01*
X1790674Y4745126D03*
G01*
X1790674Y3475126D03*
G01*
X2044674Y3477920D03*
G01*
X2044674Y3985920D03*
G01*
X1790674Y3983126D03*
G01*
X2044674Y4239920D03*
G01*
X1790674Y4237126D03*
G01*
X1790674Y4999126D03*
G01*
X2044674Y5001920D03*
G01*
X1790674Y3729126D03*
G01*
X2044674Y3731920D03*
G01*
X1787880Y5255920D03*
G01*
X1787905Y2347620D03*
G01*
X2044700Y823620D03*
G01*
X1790700Y820826D03*
G01*
X2044700Y2093620D03*
G01*
X1790700Y2090826D03*
G01*
X1790700Y1328826D03*
G01*
X2044700Y1331620D03*
G01*
X1790700Y1074826D03*
G01*
X2044700Y1077620D03*
G01*
X2044700Y569620D03*
G01*
X1790700Y566826D03*
G01*
X1790700Y1836826D03*
G01*
X2044700Y1839620D03*
G01*
X1790700Y1582826D03*
G01*
X2044700Y1585620D03*
G01*
X2044700Y2347620D03*
D19*
G01*
X956081Y3477920D03*
G01*
X956081Y3731920D03*
G01*
X956081Y3985920D03*
G01*
X956081Y4239920D03*
G01*
X956081Y4493920D03*
G01*
X956081Y4747920D03*
G01*
X956081Y5001920D03*
G01*
X956081Y5255920D03*
G01*
X956106Y2347620D03*
G01*
X956106Y2093620D03*
G01*
X956106Y1839620D03*
G01*
X956106Y1585620D03*
G01*
X956106Y1331620D03*
G01*
X956106Y1077620D03*
G01*
X956106Y823620D03*
G01*
X956106Y569620D03*
G01*
X4885918Y2347595D03*
G01*
X4885918Y2093595D03*
G01*
X4885918Y1839595D03*
G01*
X4885918Y1585595D03*
G01*
X4885918Y1331595D03*
G01*
X4885918Y1077595D03*
G01*
X4885918Y823595D03*
G01*
X4885918Y569595D03*
G01*
X4885893Y3477895D03*
G01*
X4885893Y3731895D03*
G01*
X4885893Y3985895D03*
G01*
X4885893Y4239895D03*
G01*
X4885893Y4493895D03*
G01*
X4885893Y4747895D03*
G01*
X4885893Y5001895D03*
G01*
X4885893Y5255895D03*
D18*
G01*
X3797300Y5255895D03*
G01*
X4054119Y5255895D03*
G01*
X4054119Y5001895D03*
G01*
X3797300Y5001895D03*
G01*
X3797300Y4747895D03*
G01*
X4054119Y4747895D03*
G01*
X4054119Y4493895D03*
G01*
X3797300Y4493895D03*
G01*
X4054119Y4239895D03*
G01*
X3797300Y4239895D03*
G01*
X4054119Y3985895D03*
G01*
X3797300Y3985895D03*
G01*
X4054119Y3731895D03*
G01*
X3797300Y3731895D03*
G01*
X4054119Y3477895D03*
G01*
X3797300Y3477895D03*
G01*
X3797325Y569595D03*
G01*
X4054144Y569595D03*
G01*
X3797325Y823595D03*
G01*
X4054144Y823595D03*
G01*
X3797325Y1077595D03*
G01*
X4054144Y1077595D03*
G01*
X3797325Y1331595D03*
G01*
X4054144Y1331595D03*
G01*
X3797325Y1585595D03*
G01*
X4054144Y1585595D03*
G01*
X4054144Y1839595D03*
G01*
X3797325Y1839595D03*
G01*
X3797325Y2093595D03*
G01*
X4054144Y2093595D03*
G01*
X4054144Y2347595D03*
G01*
X3797325Y2347595D03*
D20*
G01*
X3289300Y3136900D03*
G01*
X2527300Y3136900D03*
G01*
X2781300Y3136900D03*
G01*
X3035300Y3136900D03*
D21*
G01*
X5588000Y1016000D03*
G01*
X5334000Y1016000D03*
G01*
X5334000Y1270000D03*
G01*
X5588000Y1270000D03*
D22*
G01*
X2794000Y5130800D03*
G01*
X3048000Y4940300D03*
G01*
X2794000Y4876800D03*
G01*
X3048000Y4813300D03*
G01*
X2794000Y4622800D03*
G01*
X3048000Y4686300D03*
G01*
X2794000Y4368800D03*
G01*
X3048000Y4559300D03*
G01*
X2641600Y4114800D03*
G01*
X3048000Y4432300D03*
G01*
X2603500Y3860800D03*
G01*
X3048000Y4305300D03*
G01*
X2628900Y3606800D03*
G01*
X3200400Y4178300D03*
G01*
X2501900Y3352800D03*
G01*
X3200400Y4051300D03*
G01*
X3124200Y5067300D03*
G01*
X2679700Y3797300D03*
G01*
X2692400Y5067300D03*
G01*
X3251200Y3708400D03*
G01*
X1917700Y5461000D03*
G01*
X2692400Y5461000D03*
G01*
X1917700Y3136900D03*
G01*
X2794025Y2222500D03*
G01*
X2794025Y1968500D03*
G01*
X2794025Y1714500D03*
G01*
X2794025Y1460500D03*
G01*
X2641625Y1206500D03*
G01*
X2603525Y952500D03*
G01*
X2628925Y698500D03*
G01*
X2501925Y444500D03*
G01*
X3124225Y2159000D03*
G01*
X3048025Y2032000D03*
G01*
X3048025Y1905000D03*
G01*
X3048025Y1778000D03*
G01*
X3048025Y1651000D03*
G01*
X3048025Y1524000D03*
G01*
X3048025Y1397000D03*
G01*
X3200425Y1270000D03*
G01*
X3200425Y1143000D03*
G01*
X3238500Y812800D03*
G01*
X2692425Y2159000D03*
G01*
X5079974Y1841500D03*
G01*
X5079974Y762000D03*
G01*
X5588000Y762000D03*
G01*
X5372100Y1841500D03*
G01*
X5079974Y2540000D03*
G01*
X3124200Y2540000D03*
G01*
X2679725Y889000D03*
G01*
X5079974Y5461000D03*
G01*
X3124200Y5461000D03*
G01*
X2921000Y3657600D03*
G01*
X2921000Y749300D03*
G01*
X3238500Y279400D03*
G01*
X1917700Y139700D03*
G01*
X3175000Y889000D03*
G01*
X3174974Y3797300D03*
M02*
