G04 Layer: TopPasteMaskLayer*
G04 Panelize: , Column: 2, Row: 2, Board Size: 58.42mm x 58.42mm, Panelized Board Size: 118.84mm x 118.84mm*
G04 EasyEDA v6.5.34, 2023-09-05 23:37:52*
G04 71e8e7d8462e44579d9289b60e05a131,5a6b42c53f6a479593ecc07194224c93,10*
G04 Gerber Generator version 0.2*
G04 Scale: 100 percent, Rotated: No, Reflected: No *
G04 Dimensions in millimeters *
G04 leading zeros omitted , absolute positions ,4 integer and 5 decimal *
%FSLAX45Y45*%
%MOMM*%

%ADD10R,0.8999X1.0000*%
%ADD11R,1.1000X1.0000*%
%ADD12R,1.0000X0.8999*%
%ADD13O,2.3880064X0.5739892*%
%ADD14R,1.0000X1.1000*%

%LPD*%
D10*
G01*
X2599613Y139700D03*
G01*
X2429611Y139700D03*
G01*
X3242386Y139700D03*
G01*
X3412388Y139700D03*
D11*
G01*
X5372100Y1692910D03*
G01*
X5372100Y1532915D03*
D12*
G01*
X5575300Y1697913D03*
G01*
X5575300Y1527911D03*
D13*
G01*
X2446629Y2159000D03*
G01*
X2446629Y2032000D03*
G01*
X2446629Y1905000D03*
G01*
X2446629Y1778000D03*
G01*
X2446629Y1651000D03*
G01*
X2446629Y1524000D03*
G01*
X2446629Y1397000D03*
G01*
X2446629Y1270000D03*
G01*
X2446629Y1143000D03*
G01*
X2446629Y1016000D03*
G01*
X2446629Y889000D03*
G01*
X2446629Y762000D03*
G01*
X3395421Y2159000D03*
G01*
X3395421Y2032000D03*
G01*
X3395421Y1905000D03*
G01*
X3395421Y1778000D03*
G01*
X3395421Y1651000D03*
G01*
X3395421Y1524000D03*
G01*
X3395421Y1397000D03*
G01*
X3395421Y1270000D03*
G01*
X3395421Y1143000D03*
G01*
X3395421Y1016000D03*
G01*
X3395421Y889000D03*
G01*
X3395421Y762000D03*
G01*
X2446604Y5067300D03*
G01*
X2446604Y4940300D03*
G01*
X2446604Y4813300D03*
G01*
X2446604Y4686300D03*
G01*
X2446604Y4559300D03*
G01*
X2446604Y4432300D03*
G01*
X2446604Y4305300D03*
G01*
X2446604Y4178300D03*
G01*
X2446604Y4051300D03*
G01*
X2446604Y3924300D03*
G01*
X2446604Y3797300D03*
G01*
X2446604Y3670300D03*
G01*
X3395395Y5067300D03*
G01*
X3395395Y4940300D03*
G01*
X3395395Y4813300D03*
G01*
X3395395Y4686300D03*
G01*
X3395395Y4559300D03*
G01*
X3395395Y4432300D03*
G01*
X3395395Y4305300D03*
G01*
X3395395Y4178300D03*
G01*
X3395395Y4051300D03*
G01*
X3395395Y3924300D03*
G01*
X3395395Y3797300D03*
G01*
X3395395Y3670300D03*
D14*
G01*
X2251709Y139700D03*
G01*
X2091715Y139700D03*
G01*
X3590290Y139700D03*
G01*
X3750284Y139700D03*
M02*
