G04 Layer: BottomSilkscreenLayer*
G04 Panelize: , Column: 2, Row: 2, Board Size: 58.42mm x 58.42mm, Panelized Board Size: 118.84mm x 118.84mm*
G04 EasyEDA v6.5.34, 2023-09-05 23:37:52*
G04 71e8e7d8462e44579d9289b60e05a131,5a6b42c53f6a479593ecc07194224c93,10*
G04 Gerber Generator version 0.2*
G04 Scale: 100 percent, Rotated: No, Reflected: No *
G04 Dimensions in millimeters *
G04 leading zeros omitted , absolute positions ,4 integer and 5 decimal *
%FSLAX45Y45*%
%MOMM*%

%ADD10C,0.1524*%
%ADD11C,0.1520*%
%ADD12C,0.2540*%

%LPD*%
D10*
X3884467Y5753562D02*
G01*
X3889664Y5763953D01*
X3900055Y5774344D01*
X3910444Y5779538D01*
X3931226Y5779538D01*
X3941617Y5774344D01*
X3952008Y5763953D01*
X3957205Y5753562D01*
X3962400Y5737974D01*
X3962400Y5711997D01*
X3957205Y5696412D01*
X3952008Y5686021D01*
X3941617Y5675629D01*
X3931226Y5670435D01*
X3910444Y5670435D01*
X3900055Y5675629D01*
X3889664Y5686021D01*
X3884467Y5696412D01*
X3819004Y5779538D02*
G01*
X3829395Y5774344D01*
X3839786Y5763953D01*
X3844983Y5753562D01*
X3850177Y5737974D01*
X3850177Y5711997D01*
X3844983Y5696412D01*
X3839786Y5686021D01*
X3829395Y5675629D01*
X3819004Y5670435D01*
X3798224Y5670435D01*
X3787833Y5675629D01*
X3777442Y5686021D01*
X3772245Y5696412D01*
X3767051Y5711997D01*
X3767051Y5737974D01*
X3772245Y5753562D01*
X3777442Y5763953D01*
X3787833Y5774344D01*
X3798224Y5779538D01*
X3819004Y5779538D01*
X3732761Y5779538D02*
G01*
X3732761Y5670435D01*
X3732761Y5779538D02*
G01*
X3686002Y5779538D01*
X3670414Y5774344D01*
X3665220Y5769147D01*
X3660025Y5758756D01*
X3660025Y5743171D01*
X3665220Y5732779D01*
X3670414Y5727585D01*
X3686002Y5722388D01*
X3732761Y5722388D01*
X3625735Y5779538D02*
G01*
X3584171Y5727585D01*
X3584171Y5670435D01*
X3542606Y5779538D02*
G01*
X3584171Y5727585D01*
X3508316Y5779538D02*
G01*
X3508316Y5670435D01*
X3508316Y5779538D02*
G01*
X3461557Y5779538D01*
X3445972Y5774344D01*
X3440775Y5769147D01*
X3435581Y5758756D01*
X3435581Y5748365D01*
X3440775Y5737974D01*
X3445972Y5732779D01*
X3461557Y5727585D01*
X3508316Y5727585D01*
X3471948Y5727585D02*
G01*
X3435581Y5670435D01*
X3401291Y5779538D02*
G01*
X3401291Y5670435D01*
X3289068Y5753562D02*
G01*
X3294265Y5763953D01*
X3304654Y5774344D01*
X3315045Y5779538D01*
X3335827Y5779538D01*
X3346218Y5774344D01*
X3356609Y5763953D01*
X3361804Y5753562D01*
X3367001Y5737974D01*
X3367001Y5711997D01*
X3361804Y5696412D01*
X3356609Y5686021D01*
X3346218Y5675629D01*
X3335827Y5670435D01*
X3315045Y5670435D01*
X3304654Y5675629D01*
X3294265Y5686021D01*
X3289068Y5696412D01*
X3289068Y5711997D01*
X3315045Y5711997D02*
G01*
X3289068Y5711997D01*
X3254778Y5779538D02*
G01*
X3254778Y5670435D01*
X3182043Y5779538D02*
G01*
X3182043Y5670435D01*
X3254778Y5727585D02*
G01*
X3182043Y5727585D01*
X3111385Y5779538D02*
G01*
X3111385Y5670435D01*
X3147753Y5779538D02*
G01*
X3075015Y5779538D01*
X2955521Y5753562D02*
G01*
X2955521Y5758756D01*
X2950324Y5769147D01*
X2945129Y5774344D01*
X2934738Y5779538D01*
X2913956Y5779538D01*
X2903565Y5774344D01*
X2898371Y5769147D01*
X2893174Y5758756D01*
X2893174Y5748365D01*
X2898371Y5737974D01*
X2908762Y5722388D01*
X2960715Y5670435D01*
X2887979Y5670435D01*
X2822516Y5779538D02*
G01*
X2838104Y5774344D01*
X2848495Y5758756D01*
X2853690Y5732779D01*
X2853690Y5717194D01*
X2848495Y5691215D01*
X2838104Y5675629D01*
X2822516Y5670435D01*
X2812125Y5670435D01*
X2796540Y5675629D01*
X2786148Y5691215D01*
X2780954Y5717194D01*
X2780954Y5732779D01*
X2786148Y5758756D01*
X2796540Y5774344D01*
X2812125Y5779538D01*
X2822516Y5779538D01*
X2741467Y5753562D02*
G01*
X2741467Y5758756D01*
X2736273Y5769147D01*
X2731076Y5774344D01*
X2720685Y5779538D01*
X2699905Y5779538D01*
X2689514Y5774344D01*
X2684317Y5769147D01*
X2679123Y5758756D01*
X2679123Y5748365D01*
X2684317Y5737974D01*
X2694708Y5722388D01*
X2746664Y5670435D01*
X2673926Y5670435D01*
X2629245Y5779538D02*
G01*
X2572095Y5779538D01*
X2603268Y5737974D01*
X2587683Y5737974D01*
X2577292Y5732779D01*
X2572095Y5727585D01*
X2566901Y5711997D01*
X2566901Y5701606D01*
X2572095Y5686021D01*
X2582486Y5675629D01*
X2598074Y5670435D01*
X2613659Y5670435D01*
X2629245Y5675629D01*
X2634442Y5680824D01*
X2639636Y5691215D01*
X2452601Y5779538D02*
G01*
X2411036Y5670435D01*
X2369474Y5779538D02*
G01*
X2411036Y5670435D01*
X2335184Y5779538D02*
G01*
X2335184Y5670435D01*
X2335184Y5779538D02*
G01*
X2267643Y5779538D01*
X2335184Y5727585D02*
G01*
X2293620Y5727585D01*
X2335184Y5670435D02*
G01*
X2267643Y5670435D01*
X2160615Y5779538D02*
G01*
X2212571Y5670435D01*
X2233353Y5779538D02*
G01*
X2160615Y5779538D01*
X2126325Y5779538D02*
G01*
X2126325Y5670435D01*
X2126325Y5779538D02*
G01*
X2058784Y5779538D01*
X2126325Y5727585D02*
G01*
X2084763Y5727585D01*
X2024494Y5779538D02*
G01*
X2024494Y5670435D01*
X1990204Y5779538D02*
G01*
X1990204Y5670435D01*
X1990204Y5779538D02*
G01*
X1948642Y5670435D01*
X1907077Y5779538D02*
G01*
X1948642Y5670435D01*
X1907077Y5779538D02*
G01*
X1907077Y5670435D01*
D11*
X3478644Y5627138D02*
G01*
X3478644Y5544012D01*
X3483841Y5528424D01*
X3489035Y5523229D01*
X3499426Y5518035D01*
X3509817Y5518035D01*
X3520208Y5523229D01*
X3525405Y5528424D01*
X3530600Y5544012D01*
X3530600Y5554403D01*
X3444354Y5627138D02*
G01*
X3444354Y5518035D01*
X3444354Y5518035D02*
G01*
X3382009Y5518035D01*
X3269787Y5601162D02*
G01*
X3274984Y5611553D01*
X3285375Y5621944D01*
X3295764Y5627138D01*
X3316546Y5627138D01*
X3326937Y5621944D01*
X3337328Y5611553D01*
X3342525Y5601162D01*
X3347720Y5585574D01*
X3347720Y5559597D01*
X3342525Y5544012D01*
X3337328Y5533621D01*
X3326937Y5523229D01*
X3316546Y5518035D01*
X3295764Y5518035D01*
X3285375Y5523229D01*
X3274984Y5533621D01*
X3269787Y5544012D01*
X3183544Y5627138D02*
G01*
X3183544Y5544012D01*
X3188738Y5528424D01*
X3193935Y5523229D01*
X3204324Y5518035D01*
X3214715Y5518035D01*
X3225106Y5523229D01*
X3230303Y5528424D01*
X3235497Y5544012D01*
X3235497Y5554403D01*
X3149254Y5627138D02*
G01*
X3149254Y5518035D01*
X3149254Y5518035D02*
G01*
X3086907Y5518035D01*
X2974685Y5601162D02*
G01*
X2979882Y5611553D01*
X2990273Y5621944D01*
X3000664Y5627138D01*
X3021444Y5627138D01*
X3031835Y5621944D01*
X3042226Y5611553D01*
X3047423Y5601162D01*
X3052617Y5585574D01*
X3052617Y5559597D01*
X3047423Y5544012D01*
X3042226Y5533621D01*
X3031835Y5523229D01*
X3021444Y5518035D01*
X3000664Y5518035D01*
X2990273Y5523229D01*
X2979882Y5533621D01*
X2974685Y5544012D01*
X2888442Y5627138D02*
G01*
X2888442Y5544012D01*
X2893636Y5528424D01*
X2898833Y5523229D01*
X2909224Y5518035D01*
X2919615Y5518035D01*
X2930004Y5523229D01*
X2935201Y5528424D01*
X2940395Y5544012D01*
X2940395Y5554403D01*
X2854152Y5627138D02*
G01*
X2854152Y5518035D01*
X2854152Y5518035D02*
G01*
X2791805Y5518035D01*
X2679585Y5601162D02*
G01*
X2684779Y5611553D01*
X2695171Y5621944D01*
X2705562Y5627138D01*
X2726344Y5627138D01*
X2736735Y5621944D01*
X2747124Y5611553D01*
X2752321Y5601162D01*
X2757515Y5585574D01*
X2757515Y5559597D01*
X2752321Y5544012D01*
X2747124Y5533621D01*
X2736735Y5523229D01*
X2726344Y5518035D01*
X2705562Y5518035D01*
X2695171Y5523229D01*
X2684779Y5533621D01*
X2679585Y5544012D01*
X2593340Y5627138D02*
G01*
X2593340Y5544012D01*
X2598534Y5528424D01*
X2603731Y5523229D01*
X2614122Y5518035D01*
X2624513Y5518035D01*
X2634904Y5523229D01*
X2640098Y5528424D01*
X2645295Y5544012D01*
X2645295Y5554403D01*
X2559050Y5627138D02*
G01*
X2559050Y5518035D01*
X2559050Y5518035D02*
G01*
X2496705Y5518035D01*
X2384483Y5601162D02*
G01*
X2389677Y5611553D01*
X2400068Y5621944D01*
X2410459Y5627138D01*
X2431242Y5627138D01*
X2441633Y5621944D01*
X2452024Y5611553D01*
X2457218Y5601162D01*
X2462415Y5585574D01*
X2462415Y5559597D01*
X2457218Y5544012D01*
X2452024Y5533621D01*
X2441633Y5523229D01*
X2431242Y5518035D01*
X2410459Y5518035D01*
X2400068Y5523229D01*
X2389677Y5533621D01*
X2384483Y5544012D01*
D10*
X2032020Y382214D02*
G01*
X2032020Y286758D01*
X2032020Y382214D02*
G01*
X1991111Y382214D01*
X1977473Y377667D01*
X1972929Y373123D01*
X1968383Y364032D01*
X1968383Y354942D01*
X1972929Y345851D01*
X1977473Y341304D01*
X1991111Y336758D01*
X2032020Y336758D01*
X2000201Y336758D02*
G01*
X1968383Y286758D01*
X1929292Y382214D02*
G01*
X1879292Y382214D01*
X1906567Y345851D01*
X1892929Y345851D01*
X1883839Y341304D01*
X1879292Y336758D01*
X1874748Y323123D01*
X1874748Y314032D01*
X1879292Y300395D01*
X1888383Y291304D01*
X1902020Y286758D01*
X1915657Y286758D01*
X1929292Y291304D01*
X1933839Y295851D01*
X1938383Y304942D01*
X1790202Y382214D02*
G01*
X1835657Y382214D01*
X1840202Y341304D01*
X1835657Y345851D01*
X1822020Y350395D01*
X1808383Y350395D01*
X1794748Y345851D01*
X1785658Y336758D01*
X1781111Y323123D01*
X1781111Y314032D01*
X1785658Y300395D01*
X1794748Y291304D01*
X1808383Y286758D01*
X1822020Y286758D01*
X1835657Y291304D01*
X1840202Y295851D01*
X1844748Y304942D01*
X2031994Y3290514D02*
G01*
X2031994Y3195058D01*
X2031994Y3290514D02*
G01*
X1991085Y3290514D01*
X1977448Y3285967D01*
X1972904Y3281423D01*
X1968357Y3272332D01*
X1968357Y3263242D01*
X1972904Y3254151D01*
X1977448Y3249604D01*
X1991085Y3245058D01*
X2031994Y3245058D01*
X2000176Y3245058D02*
G01*
X1968357Y3195058D01*
X1929267Y3290514D02*
G01*
X1879267Y3290514D01*
X1906541Y3254151D01*
X1892904Y3254151D01*
X1883813Y3249604D01*
X1879267Y3245058D01*
X1874723Y3231423D01*
X1874723Y3222332D01*
X1879267Y3208695D01*
X1888357Y3199604D01*
X1901995Y3195058D01*
X1915632Y3195058D01*
X1929267Y3199604D01*
X1933813Y3204151D01*
X1938357Y3213242D01*
X1799267Y3290514D02*
G01*
X1844723Y3226876D01*
X1776542Y3226876D01*
X1799267Y3290514D02*
G01*
X1799267Y3195058D01*
X2789318Y2275281D02*
G01*
X2793862Y2284371D01*
X2802953Y2293462D01*
X2812046Y2298009D01*
X2830228Y2298009D01*
X2839318Y2293462D01*
X2848409Y2284371D01*
X2852953Y2275281D01*
X2857500Y2261646D01*
X2857500Y2238918D01*
X2852953Y2225281D01*
X2848409Y2216190D01*
X2839318Y2207099D01*
X2830228Y2202553D01*
X2812046Y2202553D01*
X2802953Y2207099D01*
X2793862Y2216190D01*
X2789318Y2225281D01*
X2754772Y2275281D02*
G01*
X2754772Y2279827D01*
X2750228Y2288918D01*
X2745681Y2293462D01*
X2736590Y2298009D01*
X2718409Y2298009D01*
X2709318Y2293462D01*
X2704772Y2288918D01*
X2700228Y2279827D01*
X2700228Y2270737D01*
X2704772Y2261646D01*
X2713863Y2248009D01*
X2759318Y2202553D01*
X2695681Y2202553D01*
X2789293Y5183581D02*
G01*
X2793837Y5192671D01*
X2802928Y5201762D01*
X2812021Y5206309D01*
X2830202Y5206309D01*
X2839293Y5201762D01*
X2848383Y5192671D01*
X2852927Y5183581D01*
X2857474Y5169946D01*
X2857474Y5147218D01*
X2852927Y5133581D01*
X2848383Y5124490D01*
X2839293Y5115399D01*
X2830202Y5110853D01*
X2812021Y5110853D01*
X2802928Y5115399D01*
X2793837Y5124490D01*
X2789293Y5133581D01*
X2759293Y5188127D02*
G01*
X2750202Y5192671D01*
X2736565Y5206309D01*
X2736565Y5110853D01*
X2732740Y870877D02*
G01*
X2732740Y775421D01*
X2732740Y870877D02*
G01*
X2691831Y870877D01*
X2678193Y866330D01*
X2673649Y861786D01*
X2669103Y852695D01*
X2669103Y843605D01*
X2673649Y834514D01*
X2678193Y829967D01*
X2691831Y825421D01*
X2732740Y825421D01*
X2700921Y825421D02*
G01*
X2669103Y775421D01*
X2639103Y852695D02*
G01*
X2630012Y857239D01*
X2616377Y870877D01*
X2616377Y775421D01*
X2531831Y857239D02*
G01*
X2536377Y866330D01*
X2550012Y870877D01*
X2559103Y870877D01*
X2572740Y866330D01*
X2581831Y852695D01*
X2586377Y829967D01*
X2586377Y807239D01*
X2581831Y789058D01*
X2572740Y779967D01*
X2559103Y775421D01*
X2554559Y775421D01*
X2540922Y779967D01*
X2531831Y789058D01*
X2527287Y802695D01*
X2527287Y807239D01*
X2531831Y820877D01*
X2540922Y829967D01*
X2554559Y834514D01*
X2559103Y834514D01*
X2572740Y829967D01*
X2581831Y820877D01*
X2586377Y807239D01*
X2730494Y2145593D02*
G01*
X2730494Y2050138D01*
X2730494Y2145593D02*
G01*
X2689585Y2145593D01*
X2675948Y2141047D01*
X2671404Y2136503D01*
X2666857Y2127412D01*
X2666857Y2118321D01*
X2671404Y2109231D01*
X2675948Y2104684D01*
X2689585Y2100138D01*
X2730494Y2100138D01*
X2698676Y2100138D02*
G01*
X2666857Y2050138D01*
X2636857Y2127412D02*
G01*
X2627767Y2131956D01*
X2614132Y2145593D01*
X2614132Y2050138D01*
X2584132Y2127412D02*
G01*
X2575041Y2131956D01*
X2561404Y2145593D01*
X2561404Y2050138D01*
X2730484Y2399598D02*
G01*
X2730484Y2304143D01*
X2730484Y2399598D02*
G01*
X2689575Y2399598D01*
X2675938Y2395052D01*
X2671394Y2390508D01*
X2666847Y2381417D01*
X2666847Y2372326D01*
X2671394Y2363236D01*
X2675938Y2358689D01*
X2689575Y2354143D01*
X2730484Y2354143D01*
X2698666Y2354143D02*
G01*
X2666847Y2304143D01*
X2636847Y2381417D02*
G01*
X2627756Y2385961D01*
X2614122Y2399598D01*
X2614122Y2304143D01*
X2556847Y2399598D02*
G01*
X2570485Y2395052D01*
X2579575Y2381417D01*
X2584122Y2358689D01*
X2584122Y2345052D01*
X2579575Y2322327D01*
X2570485Y2308689D01*
X2556847Y2304143D01*
X2547757Y2304143D01*
X2534122Y2308689D01*
X2525031Y2322327D01*
X2520485Y2345052D01*
X2520485Y2358689D01*
X2525031Y2381417D01*
X2534122Y2395052D01*
X2547757Y2399598D01*
X2556847Y2399598D01*
X2730494Y1891596D02*
G01*
X2730494Y1796140D01*
X2730494Y1891596D02*
G01*
X2689585Y1891596D01*
X2675948Y1887049D01*
X2671404Y1882505D01*
X2666857Y1873415D01*
X2666857Y1864324D01*
X2671404Y1855233D01*
X2675948Y1850687D01*
X2689585Y1846140D01*
X2730494Y1846140D01*
X2698676Y1846140D02*
G01*
X2666857Y1796140D01*
X2636857Y1873415D02*
G01*
X2627767Y1877959D01*
X2614132Y1891596D01*
X2614132Y1796140D01*
X2579585Y1868868D02*
G01*
X2579585Y1873415D01*
X2575041Y1882505D01*
X2570495Y1887049D01*
X2561404Y1891596D01*
X2543223Y1891596D01*
X2534132Y1887049D01*
X2529586Y1882505D01*
X2525041Y1873415D01*
X2525041Y1864324D01*
X2529586Y1855233D01*
X2538676Y1841596D01*
X2584132Y1796140D01*
X2520495Y1796140D01*
X2730494Y1637616D02*
G01*
X2730494Y1542161D01*
X2730494Y1637616D02*
G01*
X2689585Y1637616D01*
X2675948Y1633070D01*
X2671404Y1628526D01*
X2666857Y1619435D01*
X2666857Y1610344D01*
X2671404Y1601254D01*
X2675948Y1596707D01*
X2689585Y1592160D01*
X2730494Y1592160D01*
X2698676Y1592160D02*
G01*
X2666857Y1542161D01*
X2636857Y1619435D02*
G01*
X2627767Y1623979D01*
X2614132Y1637616D01*
X2614132Y1542161D01*
X2575041Y1637616D02*
G01*
X2525041Y1637616D01*
X2552313Y1601254D01*
X2538676Y1601254D01*
X2529586Y1596707D01*
X2525041Y1592160D01*
X2520495Y1578526D01*
X2520495Y1569435D01*
X2525041Y1555798D01*
X2534132Y1546707D01*
X2547767Y1542161D01*
X2561404Y1542161D01*
X2575041Y1546707D01*
X2579585Y1551254D01*
X2584132Y1560344D01*
X2730494Y1383616D02*
G01*
X2730494Y1288161D01*
X2730494Y1383616D02*
G01*
X2689585Y1383616D01*
X2675948Y1379070D01*
X2671404Y1374526D01*
X2666857Y1365435D01*
X2666857Y1356344D01*
X2671404Y1347254D01*
X2675948Y1342707D01*
X2689585Y1338160D01*
X2730494Y1338160D01*
X2698676Y1338160D02*
G01*
X2666857Y1288161D01*
X2636857Y1365435D02*
G01*
X2627767Y1369979D01*
X2614132Y1383616D01*
X2614132Y1288161D01*
X2538676Y1383616D02*
G01*
X2584132Y1319979D01*
X2515948Y1319979D01*
X2538676Y1383616D02*
G01*
X2538676Y1288161D01*
X2730494Y1116916D02*
G01*
X2730494Y1021461D01*
X2730494Y1116916D02*
G01*
X2689585Y1116916D01*
X2675948Y1112370D01*
X2671404Y1107826D01*
X2666857Y1098735D01*
X2666857Y1089644D01*
X2671404Y1080554D01*
X2675948Y1076007D01*
X2689585Y1071460D01*
X2730494Y1071460D01*
X2698676Y1071460D02*
G01*
X2666857Y1021461D01*
X2636857Y1098735D02*
G01*
X2627767Y1103279D01*
X2614132Y1116916D01*
X2614132Y1021461D01*
X2529586Y1116916D02*
G01*
X2575041Y1116916D01*
X2579585Y1076007D01*
X2575041Y1080554D01*
X2561404Y1085098D01*
X2547767Y1085098D01*
X2534132Y1080554D01*
X2525041Y1071460D01*
X2520495Y1057826D01*
X2520495Y1048735D01*
X2525041Y1035098D01*
X2534132Y1026007D01*
X2547767Y1021461D01*
X2561404Y1021461D01*
X2575041Y1026007D01*
X2579585Y1030554D01*
X2584132Y1039644D01*
X2730484Y621604D02*
G01*
X2730484Y526148D01*
X2730484Y621604D02*
G01*
X2689575Y621604D01*
X2675938Y617057D01*
X2671394Y612513D01*
X2666847Y603422D01*
X2666847Y594332D01*
X2671394Y585241D01*
X2675938Y580694D01*
X2689575Y576148D01*
X2730484Y576148D01*
X2698666Y576148D02*
G01*
X2666847Y526148D01*
X2636847Y603422D02*
G01*
X2627756Y607966D01*
X2614122Y621604D01*
X2614122Y526148D01*
X2520485Y621604D02*
G01*
X2565938Y526148D01*
X2584122Y621604D02*
G01*
X2520485Y621604D01*
X2679684Y3529911D02*
G01*
X2679684Y3434455D01*
X2679684Y3529911D02*
G01*
X2638775Y3529911D01*
X2625138Y3525365D01*
X2620594Y3520820D01*
X2616047Y3511730D01*
X2616047Y3502639D01*
X2620594Y3493549D01*
X2625138Y3489002D01*
X2638775Y3484455D01*
X2679684Y3484455D01*
X2647866Y3484455D02*
G01*
X2616047Y3434455D01*
X2526957Y3498093D02*
G01*
X2531503Y3484455D01*
X2540594Y3475365D01*
X2554231Y3470821D01*
X2558775Y3470821D01*
X2572412Y3475365D01*
X2581503Y3484455D01*
X2586047Y3498093D01*
X2586047Y3502639D01*
X2581503Y3516274D01*
X2572412Y3525365D01*
X2558775Y3529911D01*
X2554231Y3529911D01*
X2540594Y3525365D01*
X2531503Y3516274D01*
X2526957Y3498093D01*
X2526957Y3475365D01*
X2531503Y3452639D01*
X2540594Y3439002D01*
X2554231Y3434455D01*
X2563322Y3434455D01*
X2576956Y3439002D01*
X2581503Y3448093D01*
X2679694Y4037906D02*
G01*
X2679694Y3942450D01*
X2679694Y4037906D02*
G01*
X2638785Y4037906D01*
X2625148Y4033359D01*
X2620604Y4028815D01*
X2616057Y4019725D01*
X2616057Y4010634D01*
X2620604Y4001543D01*
X2625148Y3996997D01*
X2638785Y3992450D01*
X2679694Y3992450D01*
X2647876Y3992450D02*
G01*
X2616057Y3942450D01*
X2522423Y4037906D02*
G01*
X2567876Y3942450D01*
X2586057Y4037906D02*
G01*
X2522423Y4037906D01*
X2679694Y4291906D02*
G01*
X2679694Y4196450D01*
X2679694Y4291906D02*
G01*
X2638785Y4291906D01*
X2625148Y4287359D01*
X2620604Y4282815D01*
X2616057Y4273725D01*
X2616057Y4264634D01*
X2620604Y4255543D01*
X2625148Y4250997D01*
X2638785Y4246450D01*
X2679694Y4246450D01*
X2647876Y4246450D02*
G01*
X2616057Y4196450D01*
X2531513Y4278269D02*
G01*
X2536057Y4287359D01*
X2549695Y4291906D01*
X2558785Y4291906D01*
X2572423Y4287359D01*
X2581513Y4273725D01*
X2586057Y4250997D01*
X2586057Y4228269D01*
X2581513Y4210088D01*
X2572423Y4200997D01*
X2558785Y4196450D01*
X2554241Y4196450D01*
X2540604Y4200997D01*
X2531513Y4210088D01*
X2526967Y4223725D01*
X2526967Y4228269D01*
X2531513Y4241906D01*
X2540604Y4250997D01*
X2554241Y4255543D01*
X2558785Y4255543D01*
X2572423Y4250997D01*
X2581513Y4241906D01*
X2586057Y4228269D01*
X2679694Y4545904D02*
G01*
X2679694Y4450448D01*
X2679694Y4545904D02*
G01*
X2638785Y4545904D01*
X2625148Y4541357D01*
X2620604Y4536813D01*
X2616057Y4527722D01*
X2616057Y4518632D01*
X2620604Y4509541D01*
X2625148Y4504994D01*
X2638785Y4500448D01*
X2679694Y4500448D01*
X2647876Y4500448D02*
G01*
X2616057Y4450448D01*
X2531513Y4545904D02*
G01*
X2576967Y4545904D01*
X2581513Y4504994D01*
X2576967Y4509541D01*
X2563332Y4514085D01*
X2549695Y4514085D01*
X2536057Y4509541D01*
X2526967Y4500448D01*
X2522423Y4486813D01*
X2522423Y4477722D01*
X2526967Y4464085D01*
X2536057Y4454994D01*
X2549695Y4450448D01*
X2563332Y4450448D01*
X2576967Y4454994D01*
X2581513Y4459541D01*
X2586057Y4468632D01*
X2679694Y4799909D02*
G01*
X2679694Y4704453D01*
X2679694Y4799909D02*
G01*
X2638785Y4799909D01*
X2625148Y4795362D01*
X2620604Y4790818D01*
X2616057Y4781727D01*
X2616057Y4772637D01*
X2620604Y4763546D01*
X2625148Y4758999D01*
X2638785Y4754453D01*
X2679694Y4754453D01*
X2647876Y4754453D02*
G01*
X2616057Y4704453D01*
X2540604Y4799909D02*
G01*
X2586057Y4736271D01*
X2517876Y4736271D01*
X2540604Y4799909D02*
G01*
X2540604Y4704453D01*
X2679684Y5307909D02*
G01*
X2679684Y5212453D01*
X2679684Y5307909D02*
G01*
X2638775Y5307909D01*
X2625138Y5303362D01*
X2620594Y5298818D01*
X2616047Y5289727D01*
X2616047Y5280637D01*
X2620594Y5271546D01*
X2625138Y5266999D01*
X2638775Y5262453D01*
X2679684Y5262453D01*
X2647866Y5262453D02*
G01*
X2616047Y5212453D01*
X2581503Y5285181D02*
G01*
X2581503Y5289727D01*
X2576956Y5298818D01*
X2572412Y5303362D01*
X2563322Y5307909D01*
X2545138Y5307909D01*
X2536047Y5303362D01*
X2531503Y5298818D01*
X2526957Y5289727D01*
X2526957Y5280637D01*
X2531503Y5271546D01*
X2540594Y5257909D01*
X2586047Y5212453D01*
X2522413Y5212453D01*
X2679694Y5053909D02*
G01*
X2679694Y4958453D01*
X2679694Y5053909D02*
G01*
X2638785Y5053909D01*
X2625148Y5049362D01*
X2620604Y5044818D01*
X2616057Y5035727D01*
X2616057Y5026637D01*
X2620604Y5017546D01*
X2625148Y5012999D01*
X2638785Y5008453D01*
X2679694Y5008453D01*
X2647876Y5008453D02*
G01*
X2616057Y4958453D01*
X2576967Y5053909D02*
G01*
X2526967Y5053909D01*
X2554241Y5017546D01*
X2540604Y5017546D01*
X2531513Y5012999D01*
X2526967Y5008453D01*
X2522423Y4994818D01*
X2522423Y4985727D01*
X2526967Y4972090D01*
X2536057Y4962999D01*
X2549695Y4958453D01*
X2563332Y4958453D01*
X2576967Y4962999D01*
X2581513Y4967546D01*
X2586057Y4976637D01*
X2679694Y3783911D02*
G01*
X2679694Y3688455D01*
X2679694Y3783911D02*
G01*
X2638785Y3783911D01*
X2625148Y3779365D01*
X2620604Y3774820D01*
X2616057Y3765730D01*
X2616057Y3756639D01*
X2620604Y3747549D01*
X2625148Y3743002D01*
X2638785Y3738455D01*
X2679694Y3738455D01*
X2647876Y3738455D02*
G01*
X2616057Y3688455D01*
X2563332Y3783911D02*
G01*
X2576967Y3779365D01*
X2581513Y3770274D01*
X2581513Y3761183D01*
X2576967Y3752093D01*
X2567876Y3747549D01*
X2549695Y3743002D01*
X2536057Y3738455D01*
X2526967Y3729365D01*
X2522423Y3720274D01*
X2522423Y3706639D01*
X2526967Y3697549D01*
X2531513Y3693002D01*
X2545148Y3688455D01*
X2563332Y3688455D01*
X2576967Y3693002D01*
X2581513Y3697549D01*
X2586057Y3706639D01*
X2586057Y3720274D01*
X2581513Y3729365D01*
X2572423Y3738455D01*
X2558785Y3743002D01*
X2540604Y3747549D01*
X2531513Y3752093D01*
X2526967Y3761183D01*
X2526967Y3770274D01*
X2531513Y3779365D01*
X2545148Y3783911D01*
X2563332Y3783911D01*
X3327400Y5346009D02*
G01*
X3327400Y5250553D01*
X3327400Y5346009D02*
G01*
X3286490Y5346009D01*
X3272853Y5341462D01*
X3268309Y5336918D01*
X3263762Y5327827D01*
X3263762Y5318737D01*
X3268309Y5309646D01*
X3272853Y5305099D01*
X3286490Y5300553D01*
X3327400Y5300553D01*
X3295581Y5300553D02*
G01*
X3263762Y5250553D01*
X3233762Y5327827D02*
G01*
X3224672Y5332371D01*
X3211037Y5346009D01*
X3211037Y5250553D01*
X3158309Y5346009D02*
G01*
X3171946Y5341462D01*
X3176490Y5332371D01*
X3176490Y5323281D01*
X3171946Y5314190D01*
X3162853Y5309646D01*
X3144672Y5305099D01*
X3131037Y5300553D01*
X3121947Y5291462D01*
X3117400Y5282371D01*
X3117400Y5268737D01*
X3121947Y5259646D01*
X3126491Y5255099D01*
X3140128Y5250553D01*
X3158309Y5250553D01*
X3171946Y5255099D01*
X3176490Y5259646D01*
X3181037Y5268737D01*
X3181037Y5282371D01*
X3176490Y5291462D01*
X3167400Y5300553D01*
X3153763Y5305099D01*
X3135581Y5309646D01*
X3126491Y5314190D01*
X3121947Y5323281D01*
X3121947Y5332371D01*
X3126491Y5341462D01*
X3140128Y5346009D01*
X3158309Y5346009D01*
X3330168Y5053909D02*
G01*
X3330168Y4958453D01*
X3330168Y5053909D02*
G01*
X3289259Y5053909D01*
X3275622Y5049362D01*
X3271078Y5044818D01*
X3266531Y5035727D01*
X3266531Y5026637D01*
X3271078Y5017546D01*
X3275622Y5012999D01*
X3289259Y5008453D01*
X3330168Y5008453D01*
X3298350Y5008453D02*
G01*
X3266531Y4958453D01*
X3236531Y5035727D02*
G01*
X3227440Y5040271D01*
X3213806Y5053909D01*
X3213806Y4958453D01*
X3124715Y5022090D02*
G01*
X3129259Y5008453D01*
X3138350Y4999362D01*
X3151987Y4994818D01*
X3156531Y4994818D01*
X3170168Y4999362D01*
X3179259Y5008453D01*
X3183806Y5022090D01*
X3183806Y5026637D01*
X3179259Y5040271D01*
X3170168Y5049362D01*
X3156531Y5053909D01*
X3151987Y5053909D01*
X3138350Y5049362D01*
X3129259Y5040271D01*
X3124715Y5022090D01*
X3124715Y4999362D01*
X3129259Y4976637D01*
X3138350Y4962999D01*
X3151987Y4958453D01*
X3161078Y4958453D01*
X3174715Y4962999D01*
X3179259Y4972090D01*
X3330168Y4799909D02*
G01*
X3330168Y4704453D01*
X3330168Y4799909D02*
G01*
X3289259Y4799909D01*
X3275622Y4795362D01*
X3271078Y4790818D01*
X3266531Y4781727D01*
X3266531Y4772637D01*
X3271078Y4763546D01*
X3275622Y4758999D01*
X3289259Y4754453D01*
X3330168Y4754453D01*
X3298350Y4754453D02*
G01*
X3266531Y4704453D01*
X3231987Y4777181D02*
G01*
X3231987Y4781727D01*
X3227440Y4790818D01*
X3222896Y4795362D01*
X3213806Y4799909D01*
X3195622Y4799909D01*
X3186531Y4795362D01*
X3181987Y4790818D01*
X3177440Y4781727D01*
X3177440Y4772637D01*
X3181987Y4763546D01*
X3191078Y4749909D01*
X3236531Y4704453D01*
X3172896Y4704453D01*
X3115622Y4799909D02*
G01*
X3129259Y4795362D01*
X3138350Y4781727D01*
X3142896Y4758999D01*
X3142896Y4745362D01*
X3138350Y4722637D01*
X3129259Y4708999D01*
X3115622Y4704453D01*
X3106531Y4704453D01*
X3092897Y4708999D01*
X3083806Y4722637D01*
X3079259Y4745362D01*
X3079259Y4758999D01*
X3083806Y4781727D01*
X3092897Y4795362D01*
X3106531Y4799909D01*
X3115622Y4799909D01*
X3330168Y4545909D02*
G01*
X3330168Y4450453D01*
X3330168Y4545909D02*
G01*
X3289259Y4545909D01*
X3275622Y4541362D01*
X3271078Y4536818D01*
X3266531Y4527727D01*
X3266531Y4518637D01*
X3271078Y4509546D01*
X3275622Y4504999D01*
X3289259Y4500453D01*
X3330168Y4500453D01*
X3298350Y4500453D02*
G01*
X3266531Y4450453D01*
X3231987Y4523181D02*
G01*
X3231987Y4527727D01*
X3227440Y4536818D01*
X3222896Y4541362D01*
X3213806Y4545909D01*
X3195622Y4545909D01*
X3186531Y4541362D01*
X3181987Y4536818D01*
X3177440Y4527727D01*
X3177440Y4518637D01*
X3181987Y4509546D01*
X3191078Y4495909D01*
X3236531Y4450453D01*
X3172896Y4450453D01*
X3142896Y4527727D02*
G01*
X3133806Y4532271D01*
X3120169Y4545909D01*
X3120169Y4450453D01*
X3330168Y4291909D02*
G01*
X3330168Y4196453D01*
X3330168Y4291909D02*
G01*
X3289259Y4291909D01*
X3275622Y4287362D01*
X3271078Y4282818D01*
X3266531Y4273727D01*
X3266531Y4264637D01*
X3271078Y4255546D01*
X3275622Y4250999D01*
X3289259Y4246453D01*
X3330168Y4246453D01*
X3298350Y4246453D02*
G01*
X3266531Y4196453D01*
X3231987Y4269181D02*
G01*
X3231987Y4273727D01*
X3227440Y4282818D01*
X3222896Y4287362D01*
X3213806Y4291909D01*
X3195622Y4291909D01*
X3186531Y4287362D01*
X3181987Y4282818D01*
X3177440Y4273727D01*
X3177440Y4264637D01*
X3181987Y4255546D01*
X3191078Y4241909D01*
X3236531Y4196453D01*
X3172896Y4196453D01*
X3138350Y4269181D02*
G01*
X3138350Y4273727D01*
X3133806Y4282818D01*
X3129259Y4287362D01*
X3120169Y4291909D01*
X3101987Y4291909D01*
X3092897Y4287362D01*
X3088350Y4282818D01*
X3083806Y4273727D01*
X3083806Y4264637D01*
X3088350Y4255546D01*
X3097441Y4241909D01*
X3142896Y4196453D01*
X3079259Y4196453D01*
X3330168Y4037909D02*
G01*
X3330168Y3942453D01*
X3330168Y4037909D02*
G01*
X3289259Y4037909D01*
X3275622Y4033362D01*
X3271078Y4028818D01*
X3266531Y4019727D01*
X3266531Y4010637D01*
X3271078Y4001546D01*
X3275622Y3996999D01*
X3289259Y3992453D01*
X3330168Y3992453D01*
X3298350Y3992453D02*
G01*
X3266531Y3942453D01*
X3231987Y4015181D02*
G01*
X3231987Y4019727D01*
X3227440Y4028818D01*
X3222896Y4033362D01*
X3213806Y4037909D01*
X3195622Y4037909D01*
X3186531Y4033362D01*
X3181987Y4028818D01*
X3177440Y4019727D01*
X3177440Y4010637D01*
X3181987Y4001546D01*
X3191078Y3987909D01*
X3236531Y3942453D01*
X3172896Y3942453D01*
X3133806Y4037909D02*
G01*
X3083806Y4037909D01*
X3111078Y4001546D01*
X3097441Y4001546D01*
X3088350Y3996999D01*
X3083806Y3992453D01*
X3079259Y3978818D01*
X3079259Y3969727D01*
X3083806Y3956090D01*
X3092897Y3946999D01*
X3106531Y3942453D01*
X3120169Y3942453D01*
X3133806Y3946999D01*
X3138350Y3951546D01*
X3142896Y3960637D01*
X3330168Y3783909D02*
G01*
X3330168Y3688453D01*
X3330168Y3783909D02*
G01*
X3289259Y3783909D01*
X3275622Y3779362D01*
X3271078Y3774818D01*
X3266531Y3765727D01*
X3266531Y3756637D01*
X3271078Y3747546D01*
X3275622Y3742999D01*
X3289259Y3738453D01*
X3330168Y3738453D01*
X3298350Y3738453D02*
G01*
X3266531Y3688453D01*
X3231987Y3761181D02*
G01*
X3231987Y3765727D01*
X3227440Y3774818D01*
X3222896Y3779362D01*
X3213806Y3783909D01*
X3195622Y3783909D01*
X3186531Y3779362D01*
X3181987Y3774818D01*
X3177440Y3765727D01*
X3177440Y3756637D01*
X3181987Y3747546D01*
X3191078Y3733909D01*
X3236531Y3688453D01*
X3172896Y3688453D01*
X3097441Y3783909D02*
G01*
X3142896Y3720271D01*
X3074715Y3720271D01*
X3097441Y3783909D02*
G01*
X3097441Y3688453D01*
X3330168Y3529909D02*
G01*
X3330168Y3434453D01*
X3330168Y3529909D02*
G01*
X3289259Y3529909D01*
X3275622Y3525362D01*
X3271078Y3520818D01*
X3266531Y3511727D01*
X3266531Y3502637D01*
X3271078Y3493546D01*
X3275622Y3488999D01*
X3289259Y3484453D01*
X3330168Y3484453D01*
X3298350Y3484453D02*
G01*
X3266531Y3434453D01*
X3231987Y3507181D02*
G01*
X3231987Y3511727D01*
X3227440Y3520818D01*
X3222896Y3525362D01*
X3213806Y3529909D01*
X3195622Y3529909D01*
X3186531Y3525362D01*
X3181987Y3520818D01*
X3177440Y3511727D01*
X3177440Y3502637D01*
X3181987Y3493546D01*
X3191078Y3479909D01*
X3236531Y3434453D01*
X3172896Y3434453D01*
X3088350Y3529909D02*
G01*
X3133806Y3529909D01*
X3138350Y3488999D01*
X3133806Y3493546D01*
X3120169Y3498090D01*
X3106531Y3498090D01*
X3092897Y3493546D01*
X3083806Y3484453D01*
X3079259Y3470818D01*
X3079259Y3461727D01*
X3083806Y3448090D01*
X3092897Y3438999D01*
X3106531Y3434453D01*
X3120169Y3434453D01*
X3133806Y3438999D01*
X3138350Y3443546D01*
X3142896Y3452637D01*
X3330168Y621609D02*
G01*
X3330168Y526153D01*
X3330168Y621609D02*
G01*
X3289259Y621609D01*
X3275622Y617062D01*
X3271078Y612518D01*
X3266531Y603427D01*
X3266531Y594337D01*
X3271078Y585246D01*
X3275622Y580699D01*
X3289259Y576153D01*
X3330168Y576153D01*
X3298350Y576153D02*
G01*
X3266531Y526153D01*
X3227440Y621609D02*
G01*
X3177440Y621609D01*
X3204715Y585246D01*
X3191078Y585246D01*
X3181987Y580699D01*
X3177440Y576153D01*
X3172896Y562518D01*
X3172896Y553427D01*
X3177440Y539790D01*
X3186531Y530699D01*
X3200168Y526153D01*
X3213806Y526153D01*
X3227440Y530699D01*
X3231987Y535246D01*
X3236531Y544337D01*
X3133806Y621609D02*
G01*
X3083806Y621609D01*
X3111078Y585246D01*
X3097441Y585246D01*
X3088350Y580699D01*
X3083806Y576153D01*
X3079259Y562518D01*
X3079259Y553427D01*
X3083806Y539790D01*
X3092897Y530699D01*
X3106531Y526153D01*
X3120169Y526153D01*
X3133806Y530699D01*
X3138350Y535246D01*
X3142896Y544337D01*
X3330168Y875609D02*
G01*
X3330168Y780153D01*
X3330168Y875609D02*
G01*
X3289259Y875609D01*
X3275622Y871062D01*
X3271078Y866518D01*
X3266531Y857427D01*
X3266531Y848337D01*
X3271078Y839246D01*
X3275622Y834699D01*
X3289259Y830153D01*
X3330168Y830153D01*
X3298350Y830153D02*
G01*
X3266531Y780153D01*
X3227440Y875609D02*
G01*
X3177440Y875609D01*
X3204715Y839246D01*
X3191078Y839246D01*
X3181987Y834699D01*
X3177440Y830153D01*
X3172896Y816518D01*
X3172896Y807427D01*
X3177440Y793790D01*
X3186531Y784699D01*
X3200168Y780153D01*
X3213806Y780153D01*
X3227440Y784699D01*
X3231987Y789246D01*
X3236531Y798337D01*
X3138350Y852881D02*
G01*
X3138350Y857427D01*
X3133806Y866518D01*
X3129259Y871062D01*
X3120169Y875609D01*
X3101987Y875609D01*
X3092897Y871062D01*
X3088350Y866518D01*
X3083806Y857427D01*
X3083806Y848337D01*
X3088350Y839246D01*
X3097441Y825609D01*
X3142896Y780153D01*
X3079259Y780153D01*
X3330168Y1129609D02*
G01*
X3330168Y1034153D01*
X3330168Y1129609D02*
G01*
X3289259Y1129609D01*
X3275622Y1125062D01*
X3271078Y1120518D01*
X3266531Y1111427D01*
X3266531Y1102337D01*
X3271078Y1093246D01*
X3275622Y1088699D01*
X3289259Y1084153D01*
X3330168Y1084153D01*
X3298350Y1084153D02*
G01*
X3266531Y1034153D01*
X3227440Y1129609D02*
G01*
X3177440Y1129609D01*
X3204715Y1093246D01*
X3191078Y1093246D01*
X3181987Y1088699D01*
X3177440Y1084153D01*
X3172896Y1070518D01*
X3172896Y1061427D01*
X3177440Y1047790D01*
X3186531Y1038699D01*
X3200168Y1034153D01*
X3213806Y1034153D01*
X3227440Y1038699D01*
X3231987Y1043246D01*
X3236531Y1052337D01*
X3142896Y1111427D02*
G01*
X3133806Y1115971D01*
X3120169Y1129609D01*
X3120169Y1034153D01*
X3330168Y1383609D02*
G01*
X3330168Y1288153D01*
X3330168Y1383609D02*
G01*
X3289259Y1383609D01*
X3275622Y1379062D01*
X3271078Y1374518D01*
X3266531Y1365427D01*
X3266531Y1356337D01*
X3271078Y1347246D01*
X3275622Y1342699D01*
X3289259Y1338153D01*
X3330168Y1338153D01*
X3298350Y1338153D02*
G01*
X3266531Y1288153D01*
X3227440Y1383609D02*
G01*
X3177440Y1383609D01*
X3204715Y1347246D01*
X3191078Y1347246D01*
X3181987Y1342699D01*
X3177440Y1338153D01*
X3172896Y1324518D01*
X3172896Y1315427D01*
X3177440Y1301790D01*
X3186531Y1292699D01*
X3200168Y1288153D01*
X3213806Y1288153D01*
X3227440Y1292699D01*
X3231987Y1297246D01*
X3236531Y1306337D01*
X3115622Y1383609D02*
G01*
X3129259Y1379062D01*
X3138350Y1365427D01*
X3142896Y1342699D01*
X3142896Y1329062D01*
X3138350Y1306337D01*
X3129259Y1292699D01*
X3115622Y1288153D01*
X3106531Y1288153D01*
X3092897Y1292699D01*
X3083806Y1306337D01*
X3079259Y1329062D01*
X3079259Y1342699D01*
X3083806Y1365427D01*
X3092897Y1379062D01*
X3106531Y1383609D01*
X3115622Y1383609D01*
X3332429Y1632859D02*
G01*
X3332429Y1537403D01*
X3332429Y1632859D02*
G01*
X3291519Y1632859D01*
X3277882Y1628312D01*
X3273338Y1623768D01*
X3268792Y1614678D01*
X3268792Y1605587D01*
X3273338Y1596496D01*
X3277882Y1591950D01*
X3291519Y1587403D01*
X3332429Y1587403D01*
X3300610Y1587403D02*
G01*
X3268792Y1537403D01*
X3234248Y1610131D02*
G01*
X3234248Y1614678D01*
X3229701Y1623768D01*
X3225157Y1628312D01*
X3216066Y1632859D01*
X3197882Y1632859D01*
X3188792Y1628312D01*
X3184248Y1623768D01*
X3179701Y1614678D01*
X3179701Y1605587D01*
X3184248Y1596496D01*
X3193338Y1582859D01*
X3238792Y1537403D01*
X3175157Y1537403D01*
X3086066Y1601040D02*
G01*
X3090611Y1587403D01*
X3099701Y1578312D01*
X3113338Y1573768D01*
X3117883Y1573768D01*
X3131520Y1578312D01*
X3140610Y1587403D01*
X3145157Y1601040D01*
X3145157Y1605587D01*
X3140610Y1619222D01*
X3131520Y1628312D01*
X3117883Y1632859D01*
X3113338Y1632859D01*
X3099701Y1628312D01*
X3090611Y1619222D01*
X3086066Y1601040D01*
X3086066Y1578312D01*
X3090611Y1555587D01*
X3099701Y1541950D01*
X3113338Y1537403D01*
X3122429Y1537403D01*
X3136066Y1541950D01*
X3140610Y1551040D01*
X3330168Y1891609D02*
G01*
X3330168Y1796153D01*
X3330168Y1891609D02*
G01*
X3289259Y1891609D01*
X3275622Y1887062D01*
X3271078Y1882518D01*
X3266531Y1873427D01*
X3266531Y1864337D01*
X3271078Y1855246D01*
X3275622Y1850699D01*
X3289259Y1846153D01*
X3330168Y1846153D01*
X3298350Y1846153D02*
G01*
X3266531Y1796153D01*
X3231987Y1868881D02*
G01*
X3231987Y1873427D01*
X3227440Y1882518D01*
X3222896Y1887062D01*
X3213806Y1891609D01*
X3195622Y1891609D01*
X3186531Y1887062D01*
X3181987Y1882518D01*
X3177440Y1873427D01*
X3177440Y1864337D01*
X3181987Y1855246D01*
X3191078Y1841609D01*
X3236531Y1796153D01*
X3172896Y1796153D01*
X3120169Y1891609D02*
G01*
X3133806Y1887062D01*
X3138350Y1877971D01*
X3138350Y1868881D01*
X3133806Y1859790D01*
X3124715Y1855246D01*
X3106531Y1850699D01*
X3092897Y1846153D01*
X3083806Y1837062D01*
X3079259Y1827971D01*
X3079259Y1814337D01*
X3083806Y1805246D01*
X3088350Y1800699D01*
X3101987Y1796153D01*
X3120169Y1796153D01*
X3133806Y1800699D01*
X3138350Y1805246D01*
X3142896Y1814337D01*
X3142896Y1827971D01*
X3138350Y1837062D01*
X3129259Y1846153D01*
X3115622Y1850699D01*
X3097441Y1855246D01*
X3088350Y1859790D01*
X3083806Y1868881D01*
X3083806Y1877971D01*
X3088350Y1887062D01*
X3101987Y1891609D01*
X3120169Y1891609D01*
X3330168Y2145609D02*
G01*
X3330168Y2050153D01*
X3330168Y2145609D02*
G01*
X3289259Y2145609D01*
X3275622Y2141062D01*
X3271078Y2136518D01*
X3266531Y2127427D01*
X3266531Y2118337D01*
X3271078Y2109246D01*
X3275622Y2104699D01*
X3289259Y2100153D01*
X3330168Y2100153D01*
X3298350Y2100153D02*
G01*
X3266531Y2050153D01*
X3231987Y2122881D02*
G01*
X3231987Y2127427D01*
X3227440Y2136518D01*
X3222896Y2141062D01*
X3213806Y2145609D01*
X3195622Y2145609D01*
X3186531Y2141062D01*
X3181987Y2136518D01*
X3177440Y2127427D01*
X3177440Y2118337D01*
X3181987Y2109246D01*
X3191078Y2095609D01*
X3236531Y2050153D01*
X3172896Y2050153D01*
X3079259Y2145609D02*
G01*
X3124715Y2050153D01*
X3142896Y2145609D02*
G01*
X3079259Y2145609D01*
X3327400Y2437709D02*
G01*
X3327400Y2342253D01*
X3327400Y2437709D02*
G01*
X3286490Y2437709D01*
X3272853Y2433162D01*
X3268309Y2428618D01*
X3263762Y2419527D01*
X3263762Y2410437D01*
X3268309Y2401346D01*
X3272853Y2396799D01*
X3286490Y2392253D01*
X3327400Y2392253D01*
X3295581Y2392253D02*
G01*
X3263762Y2342253D01*
X3229218Y2414981D02*
G01*
X3229218Y2419527D01*
X3224672Y2428618D01*
X3220128Y2433162D01*
X3211037Y2437709D01*
X3192853Y2437709D01*
X3183763Y2433162D01*
X3179218Y2428618D01*
X3174672Y2419527D01*
X3174672Y2410437D01*
X3179218Y2401346D01*
X3188309Y2387709D01*
X3233762Y2342253D01*
X3170128Y2342253D01*
X3085581Y2424071D02*
G01*
X3090128Y2433162D01*
X3103763Y2437709D01*
X3112853Y2437709D01*
X3126491Y2433162D01*
X3135581Y2419527D01*
X3140128Y2396799D01*
X3140128Y2374071D01*
X3135581Y2355890D01*
X3126491Y2346799D01*
X3112853Y2342253D01*
X3108309Y2342253D01*
X3094672Y2346799D01*
X3085581Y2355890D01*
X3081037Y2369527D01*
X3081037Y2374071D01*
X3085581Y2387709D01*
X3094672Y2396799D01*
X3108309Y2401346D01*
X3112853Y2401346D01*
X3126491Y2396799D01*
X3135581Y2387709D01*
X3140128Y2374071D01*
D12*
X2067463Y410712D02*
G01*
X2067463Y250708D01*
X2377521Y410202D02*
G01*
X2377521Y250197D01*
X2192459Y250708D02*
G01*
X2067463Y250708D01*
X2192459Y410712D02*
G01*
X2067463Y410712D01*
X2252517Y250197D02*
G01*
X2377521Y250197D01*
X2252517Y410202D02*
G01*
X2377521Y410202D01*
X2067438Y3319012D02*
G01*
X2067438Y3159008D01*
X2377495Y3318502D02*
G01*
X2377495Y3158497D01*
X2192434Y3159008D02*
G01*
X2067438Y3159008D01*
X2192434Y3319012D02*
G01*
X2067438Y3319012D01*
X2252492Y3158497D02*
G01*
X2377495Y3158497D01*
X2252492Y3318502D02*
G01*
X2377495Y3318502D01*
X3187001Y2207922D02*
G01*
X3187001Y2287925D01*
X3076026Y2176937D02*
G01*
X3156023Y2176937D01*
X3076026Y2318903D02*
G01*
X3156023Y2318903D01*
X3018436Y2176355D02*
G01*
X2938439Y2176355D01*
X2907454Y2207338D02*
G01*
X2907454Y2287336D01*
X3018436Y2318316D02*
G01*
X2938439Y2318316D01*
X3186976Y5116222D02*
G01*
X3186976Y5196225D01*
X3076000Y5085237D02*
G01*
X3155998Y5085237D01*
X3076000Y5227203D02*
G01*
X3155998Y5227203D01*
X3018411Y5084655D02*
G01*
X2938414Y5084655D01*
X2907428Y5115638D02*
G01*
X2907428Y5195636D01*
X3018411Y5226616D02*
G01*
X2938414Y5226616D01*
X2169033Y904110D02*
G01*
X2169033Y744105D01*
X2479090Y903599D02*
G01*
X2479090Y743595D01*
X2294028Y744105D02*
G01*
X2169033Y744105D01*
X2294028Y904110D02*
G01*
X2169033Y904110D01*
X2354089Y743595D02*
G01*
X2479090Y743595D01*
X2354089Y903599D02*
G01*
X2479090Y903599D01*
X2169033Y2174110D02*
G01*
X2169033Y2014105D01*
X2479090Y2173599D02*
G01*
X2479090Y2013595D01*
X2294028Y2014105D02*
G01*
X2169033Y2014105D01*
X2294028Y2174110D02*
G01*
X2169033Y2174110D01*
X2354089Y2013595D02*
G01*
X2479090Y2013595D01*
X2354089Y2173599D02*
G01*
X2479090Y2173599D01*
X2479156Y2267084D02*
G01*
X2479156Y2427089D01*
X2169099Y2267595D02*
G01*
X2169099Y2427599D01*
X2354160Y2427089D02*
G01*
X2479156Y2427089D01*
X2354160Y2267084D02*
G01*
X2479156Y2267084D01*
X2294100Y2427599D02*
G01*
X2169099Y2427599D01*
X2294100Y2267595D02*
G01*
X2169099Y2267595D01*
X2169033Y1920110D02*
G01*
X2169033Y1760105D01*
X2479090Y1919599D02*
G01*
X2479090Y1759595D01*
X2294028Y1760105D02*
G01*
X2169033Y1760105D01*
X2294028Y1920110D02*
G01*
X2169033Y1920110D01*
X2354089Y1759595D02*
G01*
X2479090Y1759595D01*
X2354089Y1919599D02*
G01*
X2479090Y1919599D01*
X2169033Y1666112D02*
G01*
X2169033Y1506108D01*
X2479090Y1665602D02*
G01*
X2479090Y1505597D01*
X2294028Y1506108D02*
G01*
X2169033Y1506108D01*
X2294028Y1666112D02*
G01*
X2169033Y1666112D01*
X2354089Y1505597D02*
G01*
X2479090Y1505597D01*
X2354089Y1665602D02*
G01*
X2479090Y1665602D01*
X2169033Y1412112D02*
G01*
X2169033Y1252108D01*
X2479090Y1411602D02*
G01*
X2479090Y1251597D01*
X2294028Y1252108D02*
G01*
X2169033Y1252108D01*
X2294028Y1412112D02*
G01*
X2169033Y1412112D01*
X2354089Y1251597D02*
G01*
X2479090Y1251597D01*
X2354089Y1411602D02*
G01*
X2479090Y1411602D01*
X2169033Y1158112D02*
G01*
X2169033Y998108D01*
X2479090Y1157602D02*
G01*
X2479090Y997597D01*
X2294028Y998108D02*
G01*
X2169033Y998108D01*
X2294028Y1158112D02*
G01*
X2169033Y1158112D01*
X2354089Y997597D02*
G01*
X2479090Y997597D01*
X2354089Y1157602D02*
G01*
X2479090Y1157602D01*
X2479156Y489087D02*
G01*
X2479156Y649091D01*
X2169099Y489597D02*
G01*
X2169099Y649602D01*
X2354160Y649091D02*
G01*
X2479156Y649091D01*
X2354160Y489087D02*
G01*
X2479156Y489087D01*
X2294100Y649602D02*
G01*
X2169099Y649602D01*
X2294100Y489597D02*
G01*
X2169099Y489597D01*
X2294100Y3398288D02*
G01*
X2169099Y3398288D01*
X2479156Y3397778D02*
G01*
X2479156Y3557783D01*
X2169099Y3398288D02*
G01*
X2169099Y3558293D01*
X2354160Y3557783D02*
G01*
X2479156Y3557783D01*
X2354160Y3397778D02*
G01*
X2479156Y3397778D01*
X2294100Y3558293D02*
G01*
X2169099Y3558293D01*
X2354089Y4066293D02*
G01*
X2479090Y4066293D01*
X2169033Y4066804D02*
G01*
X2169033Y3906799D01*
X2479090Y4066293D02*
G01*
X2479090Y3906288D01*
X2294028Y3906799D02*
G01*
X2169033Y3906799D01*
X2294028Y4066804D02*
G01*
X2169033Y4066804D01*
X2354089Y3906288D02*
G01*
X2479090Y3906288D01*
X2354089Y4320293D02*
G01*
X2479090Y4320293D01*
X2169033Y4320804D02*
G01*
X2169033Y4160799D01*
X2479090Y4320293D02*
G01*
X2479090Y4160288D01*
X2294028Y4160799D02*
G01*
X2169033Y4160799D01*
X2294028Y4320804D02*
G01*
X2169033Y4320804D01*
X2354089Y4160288D02*
G01*
X2479090Y4160288D01*
X2354089Y4574293D02*
G01*
X2479090Y4574293D01*
X2169033Y4574804D02*
G01*
X2169033Y4414799D01*
X2479090Y4574293D02*
G01*
X2479090Y4414288D01*
X2294028Y4414799D02*
G01*
X2169033Y4414799D01*
X2294028Y4574804D02*
G01*
X2169033Y4574804D01*
X2354089Y4414288D02*
G01*
X2479090Y4414288D01*
X2354089Y4828291D02*
G01*
X2479090Y4828291D01*
X2169033Y4828801D02*
G01*
X2169033Y4668796D01*
X2479090Y4828291D02*
G01*
X2479090Y4668286D01*
X2294028Y4668796D02*
G01*
X2169033Y4668796D01*
X2294028Y4828801D02*
G01*
X2169033Y4828801D01*
X2354089Y4668286D02*
G01*
X2479090Y4668286D01*
X2294100Y5176286D02*
G01*
X2169099Y5176286D01*
X2479156Y5175775D02*
G01*
X2479156Y5335780D01*
X2169099Y5176286D02*
G01*
X2169099Y5336291D01*
X2354160Y5335780D02*
G01*
X2479156Y5335780D01*
X2354160Y5175775D02*
G01*
X2479156Y5175775D01*
X2294100Y5336291D02*
G01*
X2169099Y5336291D01*
X2354089Y5082291D02*
G01*
X2479090Y5082291D01*
X2169033Y5082801D02*
G01*
X2169033Y4922796D01*
X2479090Y5082291D02*
G01*
X2479090Y4922286D01*
X2294028Y4922796D02*
G01*
X2169033Y4922796D01*
X2294028Y5082801D02*
G01*
X2169033Y5082801D01*
X2354089Y4922286D02*
G01*
X2479090Y4922286D01*
X2354089Y3812291D02*
G01*
X2479090Y3812291D01*
X2169033Y3812801D02*
G01*
X2169033Y3652796D01*
X2479090Y3812291D02*
G01*
X2479090Y3652286D01*
X2294028Y3652796D02*
G01*
X2169033Y3652796D01*
X2294028Y3812801D02*
G01*
X2169033Y3812801D01*
X2354089Y3652286D02*
G01*
X2479090Y3652286D01*
X3365611Y5336405D02*
G01*
X3365611Y5176400D01*
X3675669Y5335894D02*
G01*
X3675669Y5175890D01*
X3490607Y5176400D02*
G01*
X3365611Y5176400D01*
X3490607Y5336405D02*
G01*
X3365611Y5336405D01*
X3550665Y5175890D02*
G01*
X3675669Y5175890D01*
X3550665Y5335894D02*
G01*
X3675669Y5335894D01*
X3675735Y4921379D02*
G01*
X3675735Y5081384D01*
X3365677Y4921890D02*
G01*
X3365677Y5081894D01*
X3550739Y5081384D02*
G01*
X3675735Y5081384D01*
X3550739Y4921379D02*
G01*
X3675735Y4921379D01*
X3490681Y5081894D02*
G01*
X3365677Y5081894D01*
X3490681Y4921890D02*
G01*
X3365677Y4921890D01*
X3675735Y4667379D02*
G01*
X3675735Y4827384D01*
X3365677Y4667890D02*
G01*
X3365677Y4827894D01*
X3550739Y4827384D02*
G01*
X3675735Y4827384D01*
X3550739Y4667379D02*
G01*
X3675735Y4667379D01*
X3490681Y4827894D02*
G01*
X3365677Y4827894D01*
X3490681Y4667890D02*
G01*
X3365677Y4667890D01*
X3675735Y4413379D02*
G01*
X3675735Y4573384D01*
X3365677Y4413890D02*
G01*
X3365677Y4573894D01*
X3550739Y4573384D02*
G01*
X3675735Y4573384D01*
X3550739Y4413379D02*
G01*
X3675735Y4413379D01*
X3490681Y4573894D02*
G01*
X3365677Y4573894D01*
X3490681Y4413890D02*
G01*
X3365677Y4413890D01*
X3675735Y4159379D02*
G01*
X3675735Y4319384D01*
X3365677Y4159890D02*
G01*
X3365677Y4319894D01*
X3550739Y4319384D02*
G01*
X3675735Y4319384D01*
X3550739Y4159379D02*
G01*
X3675735Y4159379D01*
X3490681Y4319894D02*
G01*
X3365677Y4319894D01*
X3490681Y4159890D02*
G01*
X3365677Y4159890D01*
X3675735Y3905379D02*
G01*
X3675735Y4065384D01*
X3365677Y3905890D02*
G01*
X3365677Y4065894D01*
X3550739Y4065384D02*
G01*
X3675735Y4065384D01*
X3550739Y3905379D02*
G01*
X3675735Y3905379D01*
X3490681Y4065894D02*
G01*
X3365677Y4065894D01*
X3490681Y3905890D02*
G01*
X3365677Y3905890D01*
X3675735Y3651379D02*
G01*
X3675735Y3811384D01*
X3365677Y3651890D02*
G01*
X3365677Y3811894D01*
X3550739Y3811384D02*
G01*
X3675735Y3811384D01*
X3550739Y3651379D02*
G01*
X3675735Y3651379D01*
X3490681Y3811894D02*
G01*
X3365677Y3811894D01*
X3490681Y3651890D02*
G01*
X3365677Y3651890D01*
X3365611Y3558405D02*
G01*
X3365611Y3398400D01*
X3675669Y3557894D02*
G01*
X3675669Y3397890D01*
X3490607Y3398400D02*
G01*
X3365611Y3398400D01*
X3490607Y3558405D02*
G01*
X3365611Y3558405D01*
X3550665Y3397890D02*
G01*
X3675669Y3397890D01*
X3550665Y3557894D02*
G01*
X3675669Y3557894D01*
X3365611Y650107D02*
G01*
X3365611Y490103D01*
X3675669Y649597D02*
G01*
X3675669Y489592D01*
X3490607Y490103D02*
G01*
X3365611Y490103D01*
X3490607Y650107D02*
G01*
X3365611Y650107D01*
X3550665Y489592D02*
G01*
X3675669Y489592D01*
X3550665Y649597D02*
G01*
X3675669Y649597D01*
X3675735Y743082D02*
G01*
X3675735Y903086D01*
X3365677Y743592D02*
G01*
X3365677Y903597D01*
X3550739Y903086D02*
G01*
X3675735Y903086D01*
X3550739Y743082D02*
G01*
X3675735Y743082D01*
X3490681Y903597D02*
G01*
X3365677Y903597D01*
X3490681Y743592D02*
G01*
X3365677Y743592D01*
X3675735Y997082D02*
G01*
X3675735Y1157086D01*
X3365677Y997592D02*
G01*
X3365677Y1157597D01*
X3550739Y1157086D02*
G01*
X3675735Y1157086D01*
X3550739Y997082D02*
G01*
X3675735Y997082D01*
X3490681Y1157597D02*
G01*
X3365677Y1157597D01*
X3490681Y997592D02*
G01*
X3365677Y997592D01*
X3675735Y1251082D02*
G01*
X3675735Y1411086D01*
X3365677Y1251592D02*
G01*
X3365677Y1411597D01*
X3550739Y1411086D02*
G01*
X3675735Y1411086D01*
X3550739Y1251082D02*
G01*
X3675735Y1251082D01*
X3490681Y1411597D02*
G01*
X3365677Y1411597D01*
X3490681Y1251592D02*
G01*
X3365677Y1251592D01*
X3675735Y1505082D02*
G01*
X3675735Y1665086D01*
X3365677Y1505592D02*
G01*
X3365677Y1665597D01*
X3550739Y1665086D02*
G01*
X3675735Y1665086D01*
X3550739Y1505082D02*
G01*
X3675735Y1505082D01*
X3490681Y1665597D02*
G01*
X3365677Y1665597D01*
X3490681Y1505592D02*
G01*
X3365677Y1505592D01*
X3675735Y1759082D02*
G01*
X3675735Y1919086D01*
X3365677Y1759592D02*
G01*
X3365677Y1919597D01*
X3550739Y1919086D02*
G01*
X3675735Y1919086D01*
X3550739Y1759082D02*
G01*
X3675735Y1759082D01*
X3490681Y1919597D02*
G01*
X3365677Y1919597D01*
X3490681Y1759592D02*
G01*
X3365677Y1759592D01*
X3675735Y2013082D02*
G01*
X3675735Y2173086D01*
X3365677Y2013592D02*
G01*
X3365677Y2173597D01*
X3550739Y2173086D02*
G01*
X3675735Y2173086D01*
X3550739Y2013082D02*
G01*
X3675735Y2013082D01*
X3490681Y2173597D02*
G01*
X3365677Y2173597D01*
X3490681Y2013592D02*
G01*
X3365677Y2013592D01*
X3365611Y2428107D02*
G01*
X3365611Y2268103D01*
X3675669Y2427597D02*
G01*
X3675669Y2267592D01*
X3490607Y2268103D02*
G01*
X3365611Y2268103D01*
X3490607Y2428107D02*
G01*
X3365611Y2428107D01*
X3550665Y2267592D02*
G01*
X3675669Y2267592D01*
X3550665Y2427597D02*
G01*
X3675669Y2427597D01*
G75*
G01*
X2907449Y2207339D02*
G03*
X2938432Y2176356I30983J0D01*
G75*
G01*
X2938432Y2318322D02*
G03*
X2907449Y2287336I0J-30983D01*
G75*
G01*
X3156019Y2176937D02*
G03*
X3187001Y2207923I0J30983D01*
G75*
G01*
X3187001Y2287920D02*
G03*
X3156019Y2318903I-30982J0D01*
G75*
G01*
X2907424Y5115639D02*
G03*
X2938407Y5084656I30983J0D01*
G75*
G01*
X2938407Y5226622D02*
G03*
X2907424Y5195636I0J-30983D01*
G75*
G01*
X3155993Y5085237D02*
G03*
X3186976Y5116223I0J30983D01*
G75*
G01*
X3186976Y5196220D02*
G03*
X3155993Y5227203I-30983J0D01*
G75*
G01
X1058799Y2921000D02*
G03X1058799Y2921000I-499999J0D01*
X5207000Y1397000D02*
G01*
X5715000Y1397000D01*
X5715000Y889000D01*
X5207000Y889000D01*
X5207000Y1397000D01*
M02*
