G04 Layer: TopLayer*
G04 Panelize: , Column: 2, Row: 2, Board Size: 58.42mm x 58.42mm, Panelized Board Size: 118.84mm x 118.84mm*
G04 EasyEDA v6.5.34, 2023-09-05 23:31:59*
G04 3ff1d21ffa584fb08a1032706516b83c,5a6b42c53f6a479593ecc07194224c93,10*
G04 Gerber Generator version 0.2*
G04 Scale: 100 percent, Rotated: No, Reflected: No *
G04 Dimensions in millimeters *
G04 leading zeros omitted , absolute positions ,4 integer and 5 decimal *
%FSLAX45Y45*%
%MOMM*%

%AMMACRO1*21,1,$1,$2,0,0,$3*%
%ADD10C,0.2540*%
%ADD11C,0.5000*%
%ADD12MACRO1,0.532X1.0375X90.0000*%
%ADD13R,1.0000X1.1000*%
%ADD14R,1.0000X0.8999*%
%ADD15R,1.1000X1.0000*%
%ADD16MACRO1,0.532X1.0375X-90.0000*%
%ADD17R,1.6002X1.6002*%
%ADD18C,1.6002*%
%ADD19O,1.8275046X1.4619985999999998*%
%ADD20C,1.8000*%
%ADD21R,1.5240X1.5240*%
%ADD22C,1.5240*%
%ADD23C,5.0000*%
%ADD24C,2.0000*%
%ADD25C,0.6096*%
%ADD26C,0.0169*%

%LPD*%
G36*
X36068Y25908D02*
G01*
X32156Y26670D01*
X28905Y28905D01*
X26670Y32156D01*
X25908Y36068D01*
X25908Y5805932D01*
X26670Y5809792D01*
X28905Y5813094D01*
X32156Y5815330D01*
X36068Y5816092D01*
X5805932Y5815584D01*
X5809843Y5814822D01*
X5813094Y5812637D01*
X5815330Y5809335D01*
X5816092Y5805424D01*
X5816092Y36068D01*
X5815330Y32156D01*
X5813094Y28905D01*
X5809843Y26670D01*
X5805932Y25908D01*
G37*

%LPC*%
G36*
X4606594Y5664200D02*
G01*
X4669790Y5664200D01*
X4669790Y5732424D01*
X4633061Y5732424D01*
X4626762Y5731713D01*
X4621276Y5729782D01*
X4616399Y5726684D01*
X4612284Y5722620D01*
X4609236Y5717692D01*
X4607306Y5712256D01*
X4606594Y5705906D01*
G37*
G36*
X5448300Y105562D02*
G01*
X5448300Y368300D01*
X5185664Y368300D01*
X5186070Y357936D01*
X5188966Y334975D01*
X5193792Y312369D01*
X5200446Y290271D01*
X5208981Y268782D01*
X5219242Y248107D01*
X5231180Y228295D01*
X5244795Y209600D01*
X5259882Y192125D01*
X5276392Y175971D01*
X5294172Y161239D01*
X5313172Y148031D01*
X5333187Y136499D01*
X5354066Y126644D01*
X5375757Y118618D01*
X5398008Y112369D01*
X5420715Y108051D01*
X5443677Y105664D01*
G37*
G36*
X5473700Y105613D02*
G01*
X5489854Y106629D01*
X5512714Y109982D01*
X5535218Y115265D01*
X5557164Y122428D01*
X5578500Y131368D01*
X5598972Y142087D01*
X5618480Y154432D01*
X5636869Y168402D01*
X5654040Y183896D01*
X5669838Y200710D01*
X5684215Y218846D01*
X5697016Y238099D01*
X5708142Y258317D01*
X5717540Y279450D01*
X5725109Y301244D01*
X5730849Y323646D01*
X5734710Y346405D01*
X5736590Y368300D01*
X5473700Y368300D01*
G37*
G36*
X393700Y105613D02*
G01*
X409854Y106629D01*
X432714Y109982D01*
X455218Y115265D01*
X477164Y122428D01*
X498500Y131368D01*
X518972Y142087D01*
X538480Y154432D01*
X556869Y168402D01*
X574040Y183896D01*
X589838Y200710D01*
X604215Y218846D01*
X617016Y238099D01*
X628142Y258317D01*
X637540Y279450D01*
X645109Y301244D01*
X650849Y323646D01*
X654710Y346405D01*
X656590Y368300D01*
X393700Y368300D01*
G37*
G36*
X2565400Y318617D02*
G01*
X2580589Y319532D01*
X2595524Y322275D01*
X2610053Y326796D01*
X2623921Y333044D01*
X2636926Y340918D01*
X2648864Y350266D01*
X2659634Y361035D01*
X2668981Y372973D01*
X2676855Y385978D01*
X2683154Y399897D01*
X2685338Y403098D01*
X2688590Y405180D01*
X2692400Y405892D01*
X2696210Y405180D01*
X2699461Y403098D01*
X2701645Y399897D01*
X2707944Y385978D01*
X2715818Y372973D01*
X2725166Y361035D01*
X2735935Y350266D01*
X2747873Y340918D01*
X2760878Y333044D01*
X2774746Y326796D01*
X2789275Y322275D01*
X2804210Y319532D01*
X2819400Y318617D01*
X2834589Y319532D01*
X2849524Y322275D01*
X2864053Y326796D01*
X2877921Y333044D01*
X2890926Y340918D01*
X2902864Y350266D01*
X2913634Y361035D01*
X2922981Y372973D01*
X2930855Y385978D01*
X2937154Y399897D01*
X2939338Y403098D01*
X2942590Y405180D01*
X2946400Y405892D01*
X2950210Y405180D01*
X2953461Y403098D01*
X2955645Y399897D01*
X2961944Y385978D01*
X2969818Y372973D01*
X2979166Y361035D01*
X2989935Y350266D01*
X3001873Y340918D01*
X3014878Y333044D01*
X3028746Y326796D01*
X3043275Y322275D01*
X3058210Y319532D01*
X3073400Y318617D01*
X3088589Y319532D01*
X3103524Y322275D01*
X3118053Y326796D01*
X3131921Y333044D01*
X3144926Y340918D01*
X3156864Y350266D01*
X3167634Y361035D01*
X3176981Y372973D01*
X3184855Y385978D01*
X3191154Y399897D01*
X3193338Y403098D01*
X3196590Y405180D01*
X3200400Y405892D01*
X3204210Y405180D01*
X3207461Y403098D01*
X3209645Y399897D01*
X3215944Y385978D01*
X3223818Y372973D01*
X3233166Y361035D01*
X3243935Y350266D01*
X3255873Y340918D01*
X3268878Y333044D01*
X3282746Y326796D01*
X3297275Y322275D01*
X3312210Y319532D01*
X3327400Y318617D01*
X3342589Y319532D01*
X3357524Y322275D01*
X3372053Y326796D01*
X3385921Y333044D01*
X3398926Y340918D01*
X3410864Y350266D01*
X3421634Y361035D01*
X3430981Y372973D01*
X3438855Y385978D01*
X3445154Y399897D01*
X3447338Y403098D01*
X3450590Y405180D01*
X3454400Y405892D01*
X3458210Y405180D01*
X3461461Y403098D01*
X3463645Y399897D01*
X3469944Y385978D01*
X3477818Y372973D01*
X3487165Y361035D01*
X3497935Y350266D01*
X3509873Y340918D01*
X3522878Y333044D01*
X3536746Y326796D01*
X3551275Y322275D01*
X3566210Y319532D01*
X3581400Y318617D01*
X3596589Y319532D01*
X3611524Y322275D01*
X3626053Y326796D01*
X3639921Y333044D01*
X3652926Y340918D01*
X3664864Y350266D01*
X3675634Y361035D01*
X3684981Y372973D01*
X3692855Y385978D01*
X3699154Y399897D01*
X3701338Y403098D01*
X3704590Y405180D01*
X3708400Y405892D01*
X3712210Y405180D01*
X3715461Y403098D01*
X3717645Y399897D01*
X3723944Y385978D01*
X3731818Y372973D01*
X3741165Y361035D01*
X3751935Y350266D01*
X3763873Y340918D01*
X3776878Y333044D01*
X3790746Y326796D01*
X3805275Y322275D01*
X3820210Y319532D01*
X3835400Y318617D01*
X3850589Y319532D01*
X3865524Y322275D01*
X3880053Y326796D01*
X3893921Y333044D01*
X3906926Y340918D01*
X3918864Y350266D01*
X3929634Y361035D01*
X3938981Y372973D01*
X3946855Y385978D01*
X3953154Y399897D01*
X3955338Y403098D01*
X3958590Y405180D01*
X3962400Y405892D01*
X3966210Y405180D01*
X3969461Y403098D01*
X3971645Y399897D01*
X3977944Y385978D01*
X3985818Y372973D01*
X3995165Y361035D01*
X4005935Y350266D01*
X4017873Y340918D01*
X4030878Y333044D01*
X4044746Y326796D01*
X4059275Y322275D01*
X4074210Y319532D01*
X4089400Y318617D01*
X4104589Y319532D01*
X4119524Y322275D01*
X4134053Y326796D01*
X4147921Y333044D01*
X4160926Y340918D01*
X4172864Y350266D01*
X4183634Y361035D01*
X4192981Y372973D01*
X4200855Y385978D01*
X4207154Y399897D01*
X4209338Y403098D01*
X4212590Y405180D01*
X4216400Y405892D01*
X4220210Y405180D01*
X4223461Y403098D01*
X4225645Y399897D01*
X4231944Y385978D01*
X4239818Y372973D01*
X4249166Y361035D01*
X4259935Y350266D01*
X4271873Y340918D01*
X4284878Y333044D01*
X4298746Y326796D01*
X4313275Y322275D01*
X4328210Y319532D01*
X4343400Y318617D01*
X4358589Y319532D01*
X4373524Y322275D01*
X4388053Y326796D01*
X4401921Y333044D01*
X4414926Y340918D01*
X4426864Y350266D01*
X4437634Y361035D01*
X4446981Y372973D01*
X4454855Y385978D01*
X4461103Y399846D01*
X4465624Y414375D01*
X4468368Y429310D01*
X4469282Y444500D01*
X4468368Y459689D01*
X4465624Y474624D01*
X4461103Y489153D01*
X4454855Y503021D01*
X4446981Y516026D01*
X4437634Y527964D01*
X4426864Y538734D01*
X4414926Y548081D01*
X4401921Y555955D01*
X4388053Y562203D01*
X4373524Y566724D01*
X4358589Y569468D01*
X4343400Y570382D01*
X4328210Y569468D01*
X4313275Y566724D01*
X4298746Y562203D01*
X4284878Y555955D01*
X4271873Y548081D01*
X4259935Y538734D01*
X4249166Y527964D01*
X4239818Y516026D01*
X4231944Y503021D01*
X4225645Y489102D01*
X4223461Y485901D01*
X4220210Y483819D01*
X4216400Y483108D01*
X4212590Y483819D01*
X4209338Y485901D01*
X4207154Y489102D01*
X4200855Y503021D01*
X4192981Y516026D01*
X4183634Y527964D01*
X4172864Y538734D01*
X4160926Y548081D01*
X4147921Y555955D01*
X4134053Y562203D01*
X4119524Y566724D01*
X4104589Y569468D01*
X4089400Y570382D01*
X4074210Y569468D01*
X4059275Y566724D01*
X4044746Y562203D01*
X4030878Y555955D01*
X4017873Y548081D01*
X4005935Y538734D01*
X3995165Y527964D01*
X3985818Y516026D01*
X3977944Y503021D01*
X3971645Y489102D01*
X3969461Y485901D01*
X3966210Y483819D01*
X3962400Y483108D01*
X3958590Y483819D01*
X3955338Y485901D01*
X3953154Y489102D01*
X3946855Y503021D01*
X3938981Y516026D01*
X3929634Y527964D01*
X3918864Y538734D01*
X3906926Y548081D01*
X3893921Y555955D01*
X3880053Y562203D01*
X3865524Y566724D01*
X3850589Y569468D01*
X3835400Y570382D01*
X3820210Y569468D01*
X3805275Y566724D01*
X3790746Y562203D01*
X3776878Y555955D01*
X3763873Y548081D01*
X3751935Y538734D01*
X3741165Y527964D01*
X3731818Y516026D01*
X3723944Y503021D01*
X3717645Y489102D01*
X3715461Y485901D01*
X3712210Y483819D01*
X3708400Y483108D01*
X3704590Y483819D01*
X3701338Y485901D01*
X3699154Y489102D01*
X3692855Y503021D01*
X3684981Y516026D01*
X3675634Y527964D01*
X3664864Y538734D01*
X3652926Y548081D01*
X3639921Y555955D01*
X3626053Y562203D01*
X3611524Y566724D01*
X3596589Y569468D01*
X3581400Y570382D01*
X3566210Y569468D01*
X3551275Y566724D01*
X3536746Y562203D01*
X3522878Y555955D01*
X3509873Y548081D01*
X3497935Y538734D01*
X3487165Y527964D01*
X3477818Y516026D01*
X3469944Y503021D01*
X3463645Y489102D01*
X3461461Y485901D01*
X3458210Y483819D01*
X3454400Y483108D01*
X3450590Y483819D01*
X3447338Y485901D01*
X3445154Y489102D01*
X3438855Y503021D01*
X3430981Y516026D01*
X3421634Y527964D01*
X3410864Y538734D01*
X3398926Y548081D01*
X3385921Y555955D01*
X3372053Y562203D01*
X3357524Y566724D01*
X3342589Y569468D01*
X3327400Y570382D01*
X3312210Y569468D01*
X3297275Y566724D01*
X3282746Y562203D01*
X3268878Y555955D01*
X3255873Y548081D01*
X3243935Y538734D01*
X3233166Y527964D01*
X3223818Y516026D01*
X3215944Y503021D01*
X3209645Y489102D01*
X3207461Y485901D01*
X3204210Y483819D01*
X3200400Y483108D01*
X3196590Y483819D01*
X3193338Y485901D01*
X3191154Y489102D01*
X3184855Y503021D01*
X3176981Y516026D01*
X3167634Y527964D01*
X3156864Y538734D01*
X3144926Y548081D01*
X3131921Y555955D01*
X3118053Y562203D01*
X3103524Y566724D01*
X3088589Y569468D01*
X3073400Y570382D01*
X3058210Y569468D01*
X3043275Y566724D01*
X3028746Y562203D01*
X3014878Y555955D01*
X3001873Y548081D01*
X2989935Y538734D01*
X2979166Y527964D01*
X2969818Y516026D01*
X2961944Y503021D01*
X2955645Y489102D01*
X2953461Y485901D01*
X2950210Y483819D01*
X2946400Y483108D01*
X2942590Y483819D01*
X2939338Y485901D01*
X2937154Y489102D01*
X2930855Y503021D01*
X2922981Y516026D01*
X2913634Y527964D01*
X2902864Y538734D01*
X2890926Y548081D01*
X2877921Y555955D01*
X2864053Y562203D01*
X2849524Y566724D01*
X2834589Y569468D01*
X2819400Y570382D01*
X2804210Y569468D01*
X2789275Y566724D01*
X2774746Y562203D01*
X2760878Y555955D01*
X2747873Y548081D01*
X2735935Y538734D01*
X2725166Y527964D01*
X2715818Y516026D01*
X2707944Y503021D01*
X2701645Y489102D01*
X2699461Y485901D01*
X2696210Y483819D01*
X2692400Y483108D01*
X2688590Y483819D01*
X2685338Y485901D01*
X2683154Y489102D01*
X2676855Y503021D01*
X2668981Y516026D01*
X2659634Y527964D01*
X2648864Y538734D01*
X2636926Y548081D01*
X2623921Y555955D01*
X2610053Y562203D01*
X2595524Y566724D01*
X2580589Y569468D01*
X2565400Y570382D01*
X2550210Y569468D01*
X2535275Y566724D01*
X2520746Y562203D01*
X2506878Y555955D01*
X2493873Y548081D01*
X2481935Y538734D01*
X2471166Y527964D01*
X2461818Y516026D01*
X2453944Y503021D01*
X2447696Y489153D01*
X2443175Y474624D01*
X2440432Y459689D01*
X2439517Y444500D01*
X2440432Y429310D01*
X2443175Y414375D01*
X2447696Y399846D01*
X2453944Y385978D01*
X2461818Y372973D01*
X2471166Y361035D01*
X2481935Y350266D01*
X2493873Y340918D01*
X2506878Y333044D01*
X2520746Y326796D01*
X2535275Y322275D01*
X2550210Y319532D01*
G37*
G36*
X5185664Y393700D02*
G01*
X5448300Y393700D01*
X5448300Y656437D01*
X5443677Y656336D01*
X5420715Y653948D01*
X5398008Y649630D01*
X5375757Y643382D01*
X5354066Y635355D01*
X5333187Y625500D01*
X5313172Y613968D01*
X5294172Y600760D01*
X5276392Y586028D01*
X5259882Y569874D01*
X5244795Y552348D01*
X5231180Y533704D01*
X5219242Y513892D01*
X5208981Y493217D01*
X5200446Y471728D01*
X5193792Y449630D01*
X5188966Y427024D01*
X5186070Y404063D01*
G37*
G36*
X105664Y393700D02*
G01*
X368300Y393700D01*
X368300Y656437D01*
X363677Y656336D01*
X340715Y653948D01*
X318008Y649630D01*
X295757Y643382D01*
X274066Y635355D01*
X253187Y625500D01*
X233171Y613968D01*
X214172Y600760D01*
X196392Y586028D01*
X179882Y569874D01*
X164795Y552348D01*
X151180Y533704D01*
X139242Y513892D01*
X128981Y493217D01*
X120446Y471728D01*
X113792Y449630D01*
X108966Y427024D01*
X106070Y404063D01*
G37*
G36*
X5473700Y393700D02*
G01*
X5736590Y393700D01*
X5734710Y415594D01*
X5730849Y438353D01*
X5725109Y460756D01*
X5717540Y482549D01*
X5708142Y503682D01*
X5697016Y523900D01*
X5684215Y543153D01*
X5669838Y561289D01*
X5654040Y578104D01*
X5636869Y593598D01*
X5618480Y607568D01*
X5598972Y619912D01*
X5578500Y630631D01*
X5557164Y639572D01*
X5535218Y646734D01*
X5512714Y652018D01*
X5489854Y655370D01*
X5473700Y656386D01*
G37*
G36*
X393700Y393700D02*
G01*
X656590Y393700D01*
X654710Y415594D01*
X650849Y438353D01*
X645109Y460756D01*
X637540Y482549D01*
X628142Y503682D01*
X617016Y523900D01*
X604215Y543153D01*
X589838Y561289D01*
X574040Y578104D01*
X556869Y593598D01*
X538480Y607568D01*
X518972Y619912D01*
X498500Y630631D01*
X477164Y639572D01*
X455218Y646734D01*
X432714Y652018D01*
X409854Y655370D01*
X393700Y656386D01*
G37*
G36*
X956106Y455015D02*
G01*
X971296Y455930D01*
X986231Y458673D01*
X1000760Y463194D01*
X1014628Y469442D01*
X1027633Y477316D01*
X1039571Y486664D01*
X1050340Y497433D01*
X1059688Y509371D01*
X1067562Y522376D01*
X1073810Y536244D01*
X1074521Y538429D01*
X1076604Y542188D01*
X1080008Y544677D01*
X1084224Y545592D01*
X1263091Y545592D01*
X1267002Y544830D01*
X1270304Y542594D01*
X1271879Y541020D01*
X1279906Y535381D01*
X1288846Y531266D01*
X1298295Y528726D01*
X1308100Y527862D01*
X1317904Y528726D01*
X1327353Y531266D01*
X1336294Y535381D01*
X1344320Y541020D01*
X1351280Y547979D01*
X1356918Y556006D01*
X1361033Y564946D01*
X1363573Y574395D01*
X1364437Y584200D01*
X1363573Y594004D01*
X1361033Y603453D01*
X1356918Y612394D01*
X1351280Y620420D01*
X1344320Y627380D01*
X1336294Y633018D01*
X1327353Y637133D01*
X1317904Y639673D01*
X1308100Y640537D01*
X1298295Y639673D01*
X1288846Y637133D01*
X1279906Y633018D01*
X1271879Y627380D01*
X1270304Y625805D01*
X1267002Y623570D01*
X1263091Y622808D01*
X1081633Y622808D01*
X1077823Y623519D01*
X1074572Y625652D01*
X1072337Y628802D01*
X1067562Y639419D01*
X1059688Y652424D01*
X1050340Y664362D01*
X1039571Y675132D01*
X1027633Y684479D01*
X1014628Y692353D01*
X1000709Y698652D01*
X997508Y700836D01*
X995426Y704088D01*
X994714Y707898D01*
X995426Y711708D01*
X997508Y714959D01*
X1000709Y717143D01*
X1014628Y723442D01*
X1027633Y731316D01*
X1039571Y740664D01*
X1050340Y751433D01*
X1059688Y763371D01*
X1067562Y776376D01*
X1073810Y790244D01*
X1074521Y792429D01*
X1076604Y796188D01*
X1080008Y798677D01*
X1084224Y799592D01*
X1326591Y799592D01*
X1330502Y798830D01*
X1333804Y796594D01*
X1335379Y795020D01*
X1343406Y789381D01*
X1352346Y785266D01*
X1361795Y782726D01*
X1371600Y781862D01*
X1381404Y782726D01*
X1390853Y785266D01*
X1399794Y789381D01*
X1407820Y795020D01*
X1414780Y801979D01*
X1420418Y810006D01*
X1424533Y818946D01*
X1427073Y828395D01*
X1427937Y838200D01*
X1427073Y848004D01*
X1424533Y857453D01*
X1420418Y866394D01*
X1414780Y874420D01*
X1407820Y881380D01*
X1399794Y887018D01*
X1390853Y891133D01*
X1381404Y893673D01*
X1371600Y894537D01*
X1361795Y893673D01*
X1352346Y891133D01*
X1343406Y887018D01*
X1335379Y881380D01*
X1333804Y879805D01*
X1330502Y877569D01*
X1326591Y876808D01*
X1081633Y876808D01*
X1077823Y877519D01*
X1074572Y879652D01*
X1072337Y882802D01*
X1067562Y893419D01*
X1059688Y906424D01*
X1050340Y918362D01*
X1039571Y929132D01*
X1027633Y938479D01*
X1014628Y946353D01*
X1000709Y952652D01*
X997508Y954836D01*
X995426Y958087D01*
X994714Y961898D01*
X995426Y965708D01*
X997508Y968959D01*
X1000709Y971143D01*
X1014628Y977442D01*
X1027633Y985316D01*
X1039571Y994664D01*
X1050340Y1005433D01*
X1059688Y1017371D01*
X1067562Y1030376D01*
X1073810Y1044244D01*
X1074521Y1046429D01*
X1076604Y1050188D01*
X1080008Y1052677D01*
X1084224Y1053592D01*
X1390091Y1053592D01*
X1394002Y1052830D01*
X1397304Y1050594D01*
X1398879Y1049020D01*
X1406906Y1043381D01*
X1415846Y1039266D01*
X1425295Y1036726D01*
X1435100Y1035862D01*
X1444904Y1036726D01*
X1454353Y1039266D01*
X1463294Y1043381D01*
X1471320Y1049020D01*
X1478280Y1055979D01*
X1483918Y1064006D01*
X1488033Y1072946D01*
X1490573Y1082395D01*
X1491437Y1092200D01*
X1490573Y1102004D01*
X1488033Y1111453D01*
X1483918Y1120394D01*
X1478280Y1128420D01*
X1471320Y1135380D01*
X1463294Y1141018D01*
X1454353Y1145133D01*
X1444904Y1147673D01*
X1435100Y1148537D01*
X1425295Y1147673D01*
X1415846Y1145133D01*
X1406906Y1141018D01*
X1398879Y1135380D01*
X1397304Y1133805D01*
X1394002Y1131570D01*
X1390091Y1130808D01*
X1081633Y1130808D01*
X1077823Y1131519D01*
X1074572Y1133652D01*
X1072337Y1136802D01*
X1067562Y1147419D01*
X1059688Y1160424D01*
X1050340Y1172362D01*
X1039571Y1183132D01*
X1027633Y1192479D01*
X1014628Y1200353D01*
X1000709Y1206652D01*
X997508Y1208836D01*
X995426Y1212088D01*
X994714Y1215898D01*
X995426Y1219708D01*
X997508Y1222959D01*
X1000709Y1225143D01*
X1014628Y1231442D01*
X1027633Y1239316D01*
X1039571Y1248664D01*
X1050340Y1259433D01*
X1059688Y1271371D01*
X1067562Y1284376D01*
X1073810Y1298295D01*
X1076045Y1301445D01*
X1079296Y1303578D01*
X1083106Y1304290D01*
X1453591Y1304290D01*
X1457502Y1303528D01*
X1460804Y1301292D01*
X1462379Y1299718D01*
X1470406Y1294079D01*
X1479346Y1289964D01*
X1488795Y1287424D01*
X1498600Y1286560D01*
X1508404Y1287424D01*
X1517853Y1289964D01*
X1526794Y1294079D01*
X1534820Y1299718D01*
X1541780Y1306677D01*
X1547418Y1314704D01*
X1551533Y1323644D01*
X1554073Y1333093D01*
X1554937Y1342898D01*
X1554073Y1352702D01*
X1551533Y1362151D01*
X1547418Y1371092D01*
X1541780Y1379118D01*
X1534820Y1386078D01*
X1526794Y1391716D01*
X1517853Y1395831D01*
X1508404Y1398371D01*
X1498600Y1399235D01*
X1488795Y1398371D01*
X1479346Y1395831D01*
X1470406Y1391716D01*
X1462379Y1386078D01*
X1460804Y1384503D01*
X1457502Y1382268D01*
X1453591Y1381506D01*
X1083106Y1381506D01*
X1079296Y1382217D01*
X1076045Y1384350D01*
X1073810Y1387500D01*
X1067562Y1401419D01*
X1059688Y1414424D01*
X1050340Y1426362D01*
X1039571Y1437132D01*
X1027633Y1446479D01*
X1014628Y1454353D01*
X1000709Y1460652D01*
X997508Y1462836D01*
X995426Y1466088D01*
X994714Y1469898D01*
X995426Y1473708D01*
X997508Y1476959D01*
X1000709Y1479143D01*
X1014628Y1485442D01*
X1027633Y1493316D01*
X1039571Y1502664D01*
X1050340Y1513433D01*
X1059688Y1525371D01*
X1067562Y1538376D01*
X1073810Y1552244D01*
X1074521Y1554429D01*
X1076604Y1558188D01*
X1080008Y1560677D01*
X1084224Y1561592D01*
X3790391Y1561592D01*
X3794302Y1560830D01*
X3797604Y1558594D01*
X3799179Y1557020D01*
X3807206Y1551381D01*
X3816146Y1547266D01*
X3825595Y1544726D01*
X3835400Y1543862D01*
X3845204Y1544726D01*
X3854653Y1547266D01*
X3863594Y1551381D01*
X3871620Y1557020D01*
X3878579Y1563979D01*
X3884218Y1572006D01*
X3888333Y1580946D01*
X3890873Y1590395D01*
X3891737Y1600200D01*
X3890873Y1610004D01*
X3888333Y1619453D01*
X3884218Y1628394D01*
X3878579Y1636420D01*
X3871620Y1643380D01*
X3863594Y1649018D01*
X3854653Y1653133D01*
X3844340Y1655927D01*
X3840632Y1657807D01*
X3837990Y1661007D01*
X3836822Y1664970D01*
X3837381Y1669084D01*
X3839514Y1672640D01*
X3842918Y1675028D01*
X3846982Y1675892D01*
X3980891Y1675892D01*
X3984802Y1675130D01*
X3988104Y1672894D01*
X3989679Y1671320D01*
X3997706Y1665681D01*
X4006646Y1661566D01*
X4016095Y1659026D01*
X4025900Y1658162D01*
X4035704Y1659026D01*
X4045153Y1661566D01*
X4054094Y1665681D01*
X4062120Y1671320D01*
X4069079Y1678279D01*
X4074718Y1686306D01*
X4078833Y1695246D01*
X4081373Y1704695D01*
X4082237Y1714500D01*
X4081373Y1724304D01*
X4078833Y1733753D01*
X4074718Y1742693D01*
X4069079Y1750720D01*
X4062120Y1757680D01*
X4054094Y1763318D01*
X4045153Y1767433D01*
X4035704Y1769973D01*
X4027830Y1770684D01*
X4024426Y1771599D01*
X4021531Y1773631D01*
X4019499Y1776526D01*
X4018584Y1779930D01*
X4017873Y1787804D01*
X4015333Y1797253D01*
X4011218Y1806193D01*
X4005579Y1814220D01*
X3998620Y1821180D01*
X3990594Y1826818D01*
X3981653Y1830933D01*
X3972204Y1833473D01*
X3964330Y1834184D01*
X3960926Y1835099D01*
X3958031Y1837131D01*
X3955999Y1840026D01*
X3955084Y1843430D01*
X3954373Y1851304D01*
X3953764Y1853590D01*
X3953459Y1857298D01*
X3954526Y1860854D01*
X3956812Y1863801D01*
X3959961Y1865731D01*
X3963568Y1866392D01*
X5225491Y1866392D01*
X5229402Y1865630D01*
X5232704Y1863394D01*
X5234279Y1861820D01*
X5242306Y1856181D01*
X5251246Y1852066D01*
X5260695Y1849526D01*
X5270500Y1848662D01*
X5280304Y1849526D01*
X5289753Y1852066D01*
X5298694Y1856181D01*
X5306720Y1861820D01*
X5313680Y1868779D01*
X5319318Y1876806D01*
X5323433Y1885746D01*
X5325973Y1895195D01*
X5326837Y1905000D01*
X5325973Y1914804D01*
X5323433Y1924253D01*
X5319318Y1933193D01*
X5313680Y1941220D01*
X5306720Y1948180D01*
X5298694Y1953818D01*
X5289753Y1957933D01*
X5280304Y1960473D01*
X5270500Y1961337D01*
X5260695Y1960473D01*
X5251246Y1957933D01*
X5242306Y1953818D01*
X5234279Y1948180D01*
X5232704Y1946605D01*
X5229402Y1944370D01*
X5225491Y1943607D01*
X4301286Y1943607D01*
X4297273Y1944420D01*
X4293920Y1946757D01*
X4291787Y1950212D01*
X4291126Y1954225D01*
X4292142Y1958136D01*
X4303826Y1971751D01*
X4310989Y1982520D01*
X4316730Y1994103D01*
X4320895Y2006396D01*
X4323435Y2019096D01*
X4324248Y2032000D01*
X4323435Y2044903D01*
X4320895Y2057603D01*
X4316730Y2069896D01*
X4310989Y2081479D01*
X4303826Y2092248D01*
X4295292Y2102002D01*
X4285538Y2110536D01*
X4274769Y2117750D01*
X4263136Y2123440D01*
X4250893Y2127605D01*
X4238193Y2130145D01*
X4224934Y2131009D01*
X4189069Y2131009D01*
X4175810Y2130145D01*
X4163110Y2127605D01*
X4150868Y2123440D01*
X4139234Y2117750D01*
X4128465Y2110536D01*
X4118711Y2102002D01*
X4110177Y2092248D01*
X4103014Y2081479D01*
X4100423Y2076297D01*
X4098188Y2073300D01*
X4094987Y2071319D01*
X4091330Y2070607D01*
X3816908Y2070607D01*
X3812997Y2071370D01*
X3809695Y2073605D01*
X3808120Y2075180D01*
X3800094Y2080818D01*
X3791153Y2084933D01*
X3781704Y2087473D01*
X3771900Y2088337D01*
X3762095Y2087473D01*
X3752646Y2084933D01*
X3743706Y2080818D01*
X3735679Y2075180D01*
X3728720Y2068220D01*
X3723081Y2060193D01*
X3718966Y2051253D01*
X3716426Y2041804D01*
X3715562Y2032000D01*
X3716426Y2022195D01*
X3718966Y2012746D01*
X3723081Y2003806D01*
X3728720Y1995779D01*
X3735679Y1988820D01*
X3743706Y1983181D01*
X3752646Y1979066D01*
X3762095Y1976526D01*
X3771900Y1975662D01*
X3781704Y1976526D01*
X3791153Y1979066D01*
X3800094Y1983181D01*
X3808120Y1988820D01*
X3809695Y1990394D01*
X3812997Y1992630D01*
X3816908Y1993392D01*
X4091330Y1993392D01*
X4094987Y1992680D01*
X4098188Y1990699D01*
X4100423Y1987702D01*
X4103014Y1982520D01*
X4110177Y1971751D01*
X4121861Y1958136D01*
X4122877Y1954225D01*
X4122216Y1950212D01*
X4120032Y1946757D01*
X4116730Y1944420D01*
X4112717Y1943607D01*
X3507282Y1943607D01*
X3503269Y1944420D01*
X3499967Y1946757D01*
X3497783Y1950212D01*
X3497122Y1954225D01*
X3498138Y1958136D01*
X3509822Y1971751D01*
X3516985Y1982520D01*
X3522726Y1994103D01*
X3526891Y2006396D01*
X3529431Y2019300D01*
X3425698Y2019300D01*
X3425698Y1953768D01*
X3424936Y1949856D01*
X3422700Y1946605D01*
X3419449Y1944370D01*
X3415537Y1943607D01*
X3410458Y1943607D01*
X3406597Y1944370D01*
X3403295Y1946605D01*
X3401060Y1949856D01*
X3400298Y1953768D01*
X3400298Y2019300D01*
X3296564Y2019300D01*
X3299104Y2006396D01*
X3303270Y1994103D01*
X3309010Y1982520D01*
X3316173Y1971751D01*
X3327857Y1958136D01*
X3328873Y1954225D01*
X3328212Y1950212D01*
X3326079Y1946757D01*
X3322726Y1944420D01*
X3318713Y1943607D01*
X2957220Y1943607D01*
X2953308Y1944370D01*
X2950006Y1946605D01*
X2919171Y1977440D01*
X2916885Y1980946D01*
X2916224Y1985060D01*
X2917240Y1989124D01*
X2919730Y1994103D01*
X2923895Y2006396D01*
X2926435Y2019096D01*
X2927248Y2032000D01*
X2926435Y2044903D01*
X2923895Y2057603D01*
X2919730Y2069896D01*
X2913989Y2081479D01*
X2906826Y2092248D01*
X2898292Y2102002D01*
X2888538Y2110536D01*
X2877769Y2117750D01*
X2866136Y2123440D01*
X2853893Y2127605D01*
X2841193Y2130145D01*
X2827934Y2131009D01*
X2792069Y2131009D01*
X2778810Y2130145D01*
X2766110Y2127605D01*
X2753868Y2123440D01*
X2742234Y2117750D01*
X2731465Y2110536D01*
X2721711Y2102002D01*
X2713177Y2092248D01*
X2706014Y2081479D01*
X2700274Y2069896D01*
X2696108Y2057603D01*
X2693568Y2044903D01*
X2692755Y2032000D01*
X2693568Y2019096D01*
X2696108Y2006396D01*
X2700274Y1994103D01*
X2706014Y1982520D01*
X2713177Y1971751D01*
X2721711Y1961997D01*
X2731465Y1953463D01*
X2742234Y1946300D01*
X2753868Y1940560D01*
X2766110Y1936394D01*
X2778810Y1933854D01*
X2792069Y1932990D01*
X2827934Y1932990D01*
X2841193Y1933854D01*
X2846171Y1934870D01*
X2849473Y1934972D01*
X2852623Y1934006D01*
X2855315Y1932076D01*
X2889961Y1897430D01*
X2892145Y1894179D01*
X2892907Y1890268D01*
X2892145Y1886356D01*
X2889961Y1883105D01*
X2886659Y1880870D01*
X2882747Y1880107D01*
X1086104Y1880107D01*
X1081938Y1881022D01*
X1078484Y1883511D01*
X1076401Y1887220D01*
X1073810Y1895551D01*
X1067562Y1909419D01*
X1059688Y1922424D01*
X1050340Y1934362D01*
X1039571Y1945132D01*
X1027633Y1954479D01*
X1014628Y1962353D01*
X1000709Y1968652D01*
X997508Y1970836D01*
X995426Y1974088D01*
X994714Y1977898D01*
X995426Y1981707D01*
X997508Y1984959D01*
X1000709Y1987143D01*
X1014628Y1993442D01*
X1027633Y2001316D01*
X1039571Y2010664D01*
X1050340Y2021433D01*
X1059688Y2033371D01*
X1067562Y2046376D01*
X1073810Y2060244D01*
X1074521Y2062429D01*
X1076604Y2066188D01*
X1080008Y2068677D01*
X1084224Y2069592D01*
X1199591Y2069592D01*
X1203502Y2068830D01*
X1206804Y2066594D01*
X1208379Y2065020D01*
X1216406Y2059381D01*
X1225346Y2055266D01*
X1234795Y2052726D01*
X1244600Y2051862D01*
X1254404Y2052726D01*
X1263853Y2055266D01*
X1272794Y2059381D01*
X1280820Y2065020D01*
X1287780Y2071979D01*
X1293418Y2080006D01*
X1297533Y2088946D01*
X1299210Y2095144D01*
X1301089Y2098852D01*
X1304239Y2101494D01*
X1308150Y2102662D01*
X1317904Y2103526D01*
X1327353Y2106066D01*
X1336294Y2110181D01*
X1344320Y2115820D01*
X1345895Y2117394D01*
X1349197Y2119630D01*
X1353108Y2120392D01*
X1921713Y2120392D01*
X1925726Y2119579D01*
X1929028Y2117242D01*
X1931212Y2113788D01*
X1931873Y2109774D01*
X1930857Y2105863D01*
X1919173Y2092248D01*
X1912010Y2081479D01*
X1906270Y2069896D01*
X1902104Y2057603D01*
X1899564Y2044700D01*
X2003298Y2044700D01*
X2003298Y2110232D01*
X2004060Y2114143D01*
X2006295Y2117394D01*
X2009597Y2119630D01*
X2013457Y2120392D01*
X2018538Y2120392D01*
X2022449Y2119630D01*
X2025700Y2117394D01*
X2027936Y2114143D01*
X2028698Y2110232D01*
X2028698Y2044700D01*
X2132431Y2044700D01*
X2129891Y2057603D01*
X2125726Y2069896D01*
X2119985Y2081479D01*
X2112822Y2092248D01*
X2101138Y2105863D01*
X2100122Y2109774D01*
X2100783Y2113788D01*
X2102967Y2117242D01*
X2106320Y2119579D01*
X2110282Y2120392D01*
X2285492Y2120392D01*
X2293518Y2121204D01*
X2300732Y2123389D01*
X2307437Y2126945D01*
X2313635Y2132076D01*
X2426004Y2244394D01*
X2429306Y2246630D01*
X2433218Y2247392D01*
X2694330Y2247392D01*
X2697988Y2246680D01*
X2701188Y2244699D01*
X2703423Y2241702D01*
X2706014Y2236520D01*
X2713177Y2225751D01*
X2721711Y2215997D01*
X2731465Y2207463D01*
X2742234Y2200300D01*
X2753868Y2194560D01*
X2766110Y2190394D01*
X2778810Y2187854D01*
X2792069Y2186990D01*
X2827934Y2186990D01*
X2841193Y2187854D01*
X2853893Y2190394D01*
X2866136Y2194560D01*
X2877769Y2200300D01*
X2888538Y2207463D01*
X2898292Y2215997D01*
X2906826Y2225751D01*
X2913989Y2236520D01*
X2919730Y2248103D01*
X2923895Y2260396D01*
X2926435Y2273096D01*
X2927248Y2286000D01*
X2926435Y2298903D01*
X2923895Y2311603D01*
X2919730Y2323896D01*
X2913989Y2335479D01*
X2906826Y2346248D01*
X2898292Y2356002D01*
X2888538Y2364536D01*
X2877769Y2371750D01*
X2866136Y2377440D01*
X2853893Y2381605D01*
X2841193Y2384145D01*
X2827934Y2385009D01*
X2792069Y2385009D01*
X2778810Y2384145D01*
X2766110Y2381605D01*
X2753868Y2377440D01*
X2742234Y2371750D01*
X2731465Y2364536D01*
X2721711Y2356002D01*
X2713177Y2346248D01*
X2706014Y2335479D01*
X2703423Y2330297D01*
X2701188Y2327300D01*
X2697988Y2325319D01*
X2694330Y2324608D01*
X2413508Y2324608D01*
X2405481Y2323795D01*
X2398268Y2321610D01*
X2391562Y2318054D01*
X2385364Y2312924D01*
X2272995Y2200605D01*
X2269693Y2198370D01*
X2265781Y2197608D01*
X2110282Y2197608D01*
X2106269Y2198420D01*
X2102967Y2200757D01*
X2100783Y2204212D01*
X2100122Y2208225D01*
X2101138Y2212136D01*
X2112822Y2225751D01*
X2119985Y2236520D01*
X2125726Y2248103D01*
X2129891Y2260396D01*
X2132431Y2273096D01*
X2133244Y2286000D01*
X2132431Y2298903D01*
X2129891Y2311603D01*
X2125726Y2323896D01*
X2119985Y2335479D01*
X2112822Y2346248D01*
X2104288Y2356002D01*
X2094534Y2364536D01*
X2083765Y2371750D01*
X2072132Y2377440D01*
X2059889Y2381605D01*
X2047189Y2384145D01*
X2033930Y2385009D01*
X1998065Y2385009D01*
X1984806Y2384145D01*
X1972106Y2381605D01*
X1959864Y2377440D01*
X1948230Y2371750D01*
X1937461Y2364536D01*
X1927707Y2356002D01*
X1919173Y2346248D01*
X1912010Y2335479D01*
X1909419Y2330297D01*
X1907184Y2327300D01*
X1903984Y2325319D01*
X1900326Y2324608D01*
X1416608Y2324608D01*
X1412697Y2325370D01*
X1409395Y2327605D01*
X1407820Y2329180D01*
X1399794Y2334818D01*
X1390853Y2338933D01*
X1381404Y2341473D01*
X1371600Y2342337D01*
X1361795Y2341473D01*
X1352346Y2338933D01*
X1343406Y2334818D01*
X1335379Y2329180D01*
X1328420Y2322220D01*
X1322781Y2314194D01*
X1318666Y2305253D01*
X1316126Y2295804D01*
X1315262Y2286000D01*
X1316126Y2276195D01*
X1318666Y2266746D01*
X1322781Y2257806D01*
X1328420Y2249779D01*
X1335379Y2242820D01*
X1343406Y2237181D01*
X1352346Y2233066D01*
X1361795Y2230526D01*
X1371600Y2229662D01*
X1381404Y2230526D01*
X1390853Y2233066D01*
X1399794Y2237181D01*
X1407820Y2242820D01*
X1409395Y2244394D01*
X1412697Y2246630D01*
X1416608Y2247392D01*
X1900326Y2247392D01*
X1903984Y2246680D01*
X1907184Y2244699D01*
X1909419Y2241702D01*
X1912010Y2236520D01*
X1919173Y2225751D01*
X1930857Y2212136D01*
X1931873Y2208225D01*
X1931212Y2204212D01*
X1929079Y2200757D01*
X1925726Y2198420D01*
X1921713Y2197608D01*
X1353108Y2197608D01*
X1349197Y2198370D01*
X1345895Y2200605D01*
X1344320Y2202180D01*
X1336294Y2207818D01*
X1327353Y2211933D01*
X1317904Y2214473D01*
X1308100Y2215337D01*
X1298295Y2214473D01*
X1288846Y2211933D01*
X1279906Y2207818D01*
X1271879Y2202180D01*
X1264920Y2195220D01*
X1259281Y2187194D01*
X1255166Y2178253D01*
X1253490Y2172055D01*
X1251610Y2168347D01*
X1248511Y2165705D01*
X1244549Y2164537D01*
X1234795Y2163673D01*
X1225346Y2161133D01*
X1216406Y2157018D01*
X1208379Y2151380D01*
X1206804Y2149805D01*
X1203502Y2147570D01*
X1199591Y2146808D01*
X1081633Y2146808D01*
X1077823Y2147519D01*
X1074572Y2149652D01*
X1072337Y2152802D01*
X1067562Y2163419D01*
X1059688Y2176424D01*
X1050340Y2188362D01*
X1039571Y2199132D01*
X1027633Y2208479D01*
X1014628Y2216353D01*
X1000709Y2222652D01*
X997508Y2224836D01*
X995426Y2228088D01*
X994714Y2231898D01*
X995426Y2235708D01*
X997508Y2238959D01*
X1000709Y2241143D01*
X1014628Y2247442D01*
X1027633Y2255316D01*
X1039571Y2264664D01*
X1050340Y2275433D01*
X1059688Y2287371D01*
X1067562Y2300376D01*
X1073810Y2314244D01*
X1074521Y2316429D01*
X1076604Y2320188D01*
X1080008Y2322677D01*
X1084224Y2323592D01*
X1136091Y2323592D01*
X1140002Y2322830D01*
X1143304Y2320594D01*
X1144879Y2319020D01*
X1152906Y2313381D01*
X1161846Y2309266D01*
X1171295Y2306726D01*
X1181100Y2305862D01*
X1190904Y2306726D01*
X1200353Y2309266D01*
X1209294Y2313381D01*
X1217320Y2319020D01*
X1224280Y2325979D01*
X1229918Y2334006D01*
X1234033Y2342946D01*
X1236573Y2352395D01*
X1237437Y2362200D01*
X1236573Y2372004D01*
X1234033Y2381453D01*
X1229918Y2390394D01*
X1224280Y2398420D01*
X1217320Y2405380D01*
X1209294Y2411018D01*
X1200353Y2415133D01*
X1190904Y2417673D01*
X1181100Y2418537D01*
X1171295Y2417673D01*
X1161846Y2415133D01*
X1152906Y2411018D01*
X1144879Y2405380D01*
X1143304Y2403805D01*
X1140002Y2401570D01*
X1136091Y2400808D01*
X1081633Y2400808D01*
X1077823Y2401519D01*
X1074572Y2403652D01*
X1072337Y2406802D01*
X1067562Y2417419D01*
X1059688Y2430424D01*
X1050340Y2442362D01*
X1039571Y2453132D01*
X1027633Y2462479D01*
X1014628Y2470353D01*
X1000760Y2476601D01*
X986231Y2481122D01*
X971296Y2483866D01*
X956106Y2484780D01*
X940917Y2483866D01*
X925982Y2481122D01*
X911453Y2476601D01*
X897585Y2470353D01*
X884580Y2462479D01*
X872642Y2453132D01*
X861872Y2442362D01*
X852525Y2430424D01*
X844651Y2417419D01*
X838403Y2403551D01*
X833882Y2389022D01*
X831138Y2374087D01*
X830224Y2358898D01*
X831138Y2343708D01*
X833882Y2328773D01*
X838403Y2314244D01*
X844651Y2300376D01*
X852525Y2287371D01*
X861872Y2275433D01*
X872642Y2264664D01*
X884580Y2255316D01*
X897585Y2247442D01*
X911504Y2241143D01*
X914704Y2238959D01*
X916787Y2235708D01*
X917498Y2231898D01*
X916787Y2228088D01*
X914704Y2224836D01*
X911504Y2222652D01*
X897585Y2216353D01*
X884580Y2208479D01*
X872642Y2199132D01*
X861872Y2188362D01*
X852525Y2176424D01*
X844651Y2163419D01*
X838403Y2149551D01*
X833882Y2135022D01*
X831138Y2120087D01*
X830224Y2104898D01*
X831138Y2089708D01*
X833882Y2074773D01*
X838403Y2060244D01*
X844651Y2046376D01*
X852525Y2033371D01*
X861872Y2021433D01*
X872642Y2010664D01*
X884580Y2001316D01*
X897585Y1993442D01*
X911504Y1987143D01*
X914704Y1984959D01*
X916787Y1981707D01*
X917498Y1977898D01*
X916787Y1974088D01*
X914704Y1970836D01*
X911504Y1968652D01*
X897585Y1962353D01*
X884580Y1954479D01*
X872642Y1945132D01*
X861872Y1934362D01*
X852525Y1922424D01*
X844651Y1909419D01*
X838403Y1895551D01*
X833882Y1881022D01*
X831138Y1866087D01*
X830224Y1850898D01*
X831138Y1835708D01*
X833882Y1820773D01*
X838403Y1806244D01*
X844651Y1792376D01*
X852525Y1779371D01*
X861872Y1767433D01*
X872642Y1756664D01*
X884580Y1747316D01*
X897585Y1739442D01*
X911504Y1733143D01*
X914704Y1730959D01*
X916787Y1727707D01*
X917498Y1723898D01*
X916787Y1720088D01*
X914704Y1716836D01*
X911504Y1714652D01*
X897585Y1708353D01*
X884580Y1700479D01*
X872642Y1691132D01*
X861872Y1680362D01*
X852525Y1668424D01*
X844651Y1655419D01*
X838403Y1641551D01*
X833882Y1627022D01*
X831138Y1612087D01*
X830224Y1596898D01*
X831138Y1581708D01*
X833882Y1566773D01*
X838403Y1552244D01*
X844651Y1538376D01*
X852525Y1525371D01*
X861872Y1513433D01*
X872642Y1502664D01*
X884580Y1493316D01*
X897585Y1485442D01*
X911504Y1479143D01*
X914704Y1476959D01*
X916787Y1473708D01*
X917498Y1469898D01*
X916787Y1466088D01*
X914704Y1462836D01*
X911504Y1460652D01*
X897585Y1454353D01*
X884580Y1446479D01*
X872642Y1437132D01*
X861872Y1426362D01*
X852525Y1414424D01*
X844651Y1401419D01*
X838403Y1387551D01*
X833882Y1373022D01*
X831138Y1358087D01*
X830224Y1342898D01*
X831138Y1327708D01*
X833882Y1312773D01*
X838403Y1298244D01*
X844651Y1284376D01*
X852525Y1271371D01*
X861872Y1259433D01*
X872642Y1248664D01*
X884580Y1239316D01*
X897585Y1231442D01*
X911504Y1225143D01*
X914704Y1222959D01*
X916787Y1219708D01*
X917498Y1215898D01*
X916787Y1212088D01*
X914704Y1208836D01*
X911504Y1206652D01*
X897585Y1200353D01*
X884580Y1192479D01*
X872642Y1183132D01*
X861872Y1172362D01*
X852525Y1160424D01*
X844651Y1147419D01*
X838403Y1133551D01*
X833882Y1119022D01*
X831138Y1104087D01*
X830224Y1088898D01*
X831138Y1073708D01*
X833882Y1058773D01*
X838403Y1044244D01*
X844651Y1030376D01*
X852525Y1017371D01*
X861872Y1005433D01*
X872642Y994664D01*
X884580Y985316D01*
X897585Y977442D01*
X911504Y971143D01*
X914704Y968959D01*
X916787Y965708D01*
X917498Y961898D01*
X916787Y958087D01*
X914704Y954836D01*
X911504Y952652D01*
X897585Y946353D01*
X884580Y938479D01*
X872642Y929132D01*
X861872Y918362D01*
X852525Y906424D01*
X844651Y893419D01*
X838403Y879551D01*
X833882Y865022D01*
X831138Y850087D01*
X830224Y834898D01*
X831138Y819708D01*
X833882Y804773D01*
X838403Y790244D01*
X844651Y776376D01*
X852525Y763371D01*
X861872Y751433D01*
X872642Y740664D01*
X884580Y731316D01*
X897585Y723442D01*
X911504Y717143D01*
X914704Y714959D01*
X916787Y711708D01*
X917498Y707898D01*
X916787Y704088D01*
X914704Y700836D01*
X911504Y698652D01*
X897585Y692353D01*
X884580Y684479D01*
X872642Y675132D01*
X861872Y664362D01*
X852525Y652424D01*
X844651Y639419D01*
X838403Y625551D01*
X833882Y611022D01*
X831138Y596087D01*
X830224Y580898D01*
X831138Y565708D01*
X833882Y550773D01*
X838403Y536244D01*
X844651Y522376D01*
X852525Y509371D01*
X861872Y497433D01*
X872642Y486664D01*
X884580Y477316D01*
X897585Y469442D01*
X911453Y463194D01*
X925982Y458673D01*
X940917Y455930D01*
G37*
G36*
X2193798Y563626D02*
G01*
X2207615Y564489D01*
X2221179Y567232D01*
X2234336Y571652D01*
X2246731Y577799D01*
X2258263Y585470D01*
X2268677Y594614D01*
X2277821Y605028D01*
X2285492Y616559D01*
X2291638Y628954D01*
X2296058Y642112D01*
X2298801Y655675D01*
X2299665Y669493D01*
X2298801Y683310D01*
X2296058Y696874D01*
X2291638Y710031D01*
X2285492Y722426D01*
X2277821Y733958D01*
X2268677Y744372D01*
X2258263Y753516D01*
X2246731Y761187D01*
X2234336Y767334D01*
X2221179Y771753D01*
X2207615Y774496D01*
X2193798Y775360D01*
X2179980Y774496D01*
X2166416Y771753D01*
X2153259Y767334D01*
X2140864Y761187D01*
X2129332Y753516D01*
X2118918Y744372D01*
X2109774Y733958D01*
X2102104Y722426D01*
X2095957Y710031D01*
X2091537Y696874D01*
X2088794Y683310D01*
X2087930Y669493D01*
X2088794Y655675D01*
X2091537Y642112D01*
X2095957Y628954D01*
X2102104Y616559D01*
X2109774Y605028D01*
X2118918Y594614D01*
X2129332Y585470D01*
X2140864Y577799D01*
X2153259Y571652D01*
X2166416Y567232D01*
X2179980Y564489D01*
G37*
G36*
X4715002Y563626D02*
G01*
X4728819Y564489D01*
X4742383Y567232D01*
X4755540Y571652D01*
X4767935Y577799D01*
X4779467Y585470D01*
X4789881Y594614D01*
X4799025Y605028D01*
X4806696Y616559D01*
X4812842Y628954D01*
X4817262Y642112D01*
X4820005Y655675D01*
X4820869Y669493D01*
X4820005Y683310D01*
X4817262Y696874D01*
X4812842Y710031D01*
X4806696Y722426D01*
X4799025Y733958D01*
X4789881Y744372D01*
X4779467Y753516D01*
X4767935Y761187D01*
X4755540Y767334D01*
X4742383Y771753D01*
X4728819Y774496D01*
X4715002Y775360D01*
X4701184Y774496D01*
X4687620Y771753D01*
X4674463Y767334D01*
X4662068Y761187D01*
X4650536Y753516D01*
X4640122Y744372D01*
X4630978Y733958D01*
X4623308Y722426D01*
X4617161Y710031D01*
X4612741Y696874D01*
X4609998Y683310D01*
X4609134Y669493D01*
X4609998Y655675D01*
X4612741Y642112D01*
X4617161Y628954D01*
X4623308Y616559D01*
X4630978Y605028D01*
X4640122Y594614D01*
X4650536Y585470D01*
X4662068Y577799D01*
X4674463Y571652D01*
X4687620Y567232D01*
X4701184Y564489D01*
G37*
G36*
X5105400Y705662D02*
G01*
X5115204Y706526D01*
X5124653Y709066D01*
X5126990Y710133D01*
X5131308Y711098D01*
X5562092Y711098D01*
X5566410Y710133D01*
X5568746Y709066D01*
X5578195Y706526D01*
X5588000Y705662D01*
X5597804Y706526D01*
X5607253Y709066D01*
X5616194Y713181D01*
X5624220Y718820D01*
X5631180Y725779D01*
X5636818Y733806D01*
X5640933Y742746D01*
X5643473Y752195D01*
X5644337Y762000D01*
X5643473Y771804D01*
X5640933Y781253D01*
X5636818Y790194D01*
X5631180Y798220D01*
X5624220Y805180D01*
X5616194Y810818D01*
X5607253Y814933D01*
X5597804Y817473D01*
X5588000Y818337D01*
X5578195Y817473D01*
X5568746Y814933D01*
X5566410Y813866D01*
X5562092Y812901D01*
X5131308Y812901D01*
X5126990Y813866D01*
X5124653Y814933D01*
X5115204Y817473D01*
X5105400Y818337D01*
X5095595Y817473D01*
X5086146Y814933D01*
X5077206Y810818D01*
X5069179Y805180D01*
X5062220Y798220D01*
X5056581Y790194D01*
X5052466Y781253D01*
X5049926Y771804D01*
X5049062Y762000D01*
X5049926Y752195D01*
X5052466Y742746D01*
X5056581Y733806D01*
X5062220Y725779D01*
X5069179Y718820D01*
X5077206Y713181D01*
X5086146Y709066D01*
X5095595Y706526D01*
G37*
G36*
X2413000Y705662D02*
G01*
X2422804Y706526D01*
X2432253Y709066D01*
X2441194Y713181D01*
X2449220Y718820D01*
X2450795Y720394D01*
X2454097Y722630D01*
X2458008Y723392D01*
X4044391Y723392D01*
X4048302Y722630D01*
X4051604Y720394D01*
X4053179Y718820D01*
X4061206Y713181D01*
X4070146Y709066D01*
X4079595Y706526D01*
X4089400Y705662D01*
X4099204Y706526D01*
X4108653Y709066D01*
X4117594Y713181D01*
X4125620Y718820D01*
X4132579Y725779D01*
X4138218Y733806D01*
X4142333Y742746D01*
X4144873Y752195D01*
X4145737Y762000D01*
X4144873Y771804D01*
X4142333Y781253D01*
X4138218Y790194D01*
X4132579Y798220D01*
X4125620Y805180D01*
X4117594Y810818D01*
X4108653Y814933D01*
X4099204Y817473D01*
X4089400Y818337D01*
X4079595Y817473D01*
X4070146Y814933D01*
X4061206Y810818D01*
X4053179Y805180D01*
X4051604Y803605D01*
X4048302Y801370D01*
X4044391Y800608D01*
X2458008Y800608D01*
X2454097Y801370D01*
X2450795Y803605D01*
X2449220Y805180D01*
X2441194Y810818D01*
X2432253Y814933D01*
X2422804Y817473D01*
X2413000Y818337D01*
X2403195Y817473D01*
X2393746Y814933D01*
X2384806Y810818D01*
X2376779Y805180D01*
X2369820Y798220D01*
X2364181Y790194D01*
X2360066Y781253D01*
X2357526Y771804D01*
X2356662Y762000D01*
X2357526Y752195D01*
X2360066Y742746D01*
X2364181Y733806D01*
X2369820Y725779D01*
X2376779Y718820D01*
X2384806Y713181D01*
X2393746Y709066D01*
X2403195Y706526D01*
G37*
G36*
X2819400Y845362D02*
G01*
X2829204Y846226D01*
X2838653Y848766D01*
X2847594Y852881D01*
X2855620Y858519D01*
X2857195Y860094D01*
X2860497Y862330D01*
X2864408Y863092D01*
X3002991Y863092D01*
X3006902Y862330D01*
X3010204Y860094D01*
X3011779Y858519D01*
X3019806Y852881D01*
X3028746Y848766D01*
X3038195Y846226D01*
X3048000Y845362D01*
X3057804Y846226D01*
X3067253Y848766D01*
X3076194Y852881D01*
X3084220Y858519D01*
X3091180Y865479D01*
X3096818Y873506D01*
X3100933Y882446D01*
X3101695Y885190D01*
X3103727Y889050D01*
X3107182Y891743D01*
X3111500Y892708D01*
X3115818Y891743D01*
X3119272Y889050D01*
X3121304Y885190D01*
X3122066Y882446D01*
X3126181Y873506D01*
X3131820Y865479D01*
X3138779Y858519D01*
X3146806Y852881D01*
X3155746Y848766D01*
X3165195Y846226D01*
X3175000Y845362D01*
X3184804Y846226D01*
X3194253Y848766D01*
X3203194Y852881D01*
X3211220Y858519D01*
X3212795Y860094D01*
X3216097Y862330D01*
X3220008Y863092D01*
X3282391Y863092D01*
X3286302Y862330D01*
X3289604Y860094D01*
X3291179Y858519D01*
X3299206Y852881D01*
X3308146Y848766D01*
X3317595Y846226D01*
X3327400Y845362D01*
X3337204Y846226D01*
X3346653Y848766D01*
X3355594Y852881D01*
X3363620Y858519D01*
X3370579Y865479D01*
X3376218Y873506D01*
X3380333Y882446D01*
X3382873Y891895D01*
X3383737Y901700D01*
X3382873Y911504D01*
X3382264Y913790D01*
X3381959Y917498D01*
X3383026Y921054D01*
X3385312Y924001D01*
X3388461Y925931D01*
X3392068Y926592D01*
X3536391Y926592D01*
X3540302Y925830D01*
X3543604Y923594D01*
X3545179Y922019D01*
X3553206Y916381D01*
X3562146Y912266D01*
X3571595Y909726D01*
X3581400Y908862D01*
X3591204Y909726D01*
X3600653Y912266D01*
X3609594Y916381D01*
X3617620Y922019D01*
X3624579Y928979D01*
X3630218Y937006D01*
X3634333Y945946D01*
X3636873Y955395D01*
X3637737Y965200D01*
X3636873Y975004D01*
X3634333Y984453D01*
X3630218Y993394D01*
X3624579Y1001420D01*
X3617620Y1008380D01*
X3609594Y1014018D01*
X3600653Y1018133D01*
X3591204Y1020673D01*
X3581400Y1021537D01*
X3571595Y1020673D01*
X3562146Y1018133D01*
X3553206Y1014018D01*
X3545179Y1008380D01*
X3543604Y1006805D01*
X3540302Y1004569D01*
X3536391Y1003808D01*
X3283508Y1003808D01*
X3279597Y1004569D01*
X3276295Y1006805D01*
X3274720Y1008380D01*
X3266694Y1014018D01*
X3257753Y1018133D01*
X3248304Y1020673D01*
X3238500Y1021537D01*
X3228695Y1020673D01*
X3219246Y1018133D01*
X3210306Y1014018D01*
X3202279Y1008380D01*
X3195320Y1001420D01*
X3189681Y993394D01*
X3185566Y984453D01*
X3183026Y975004D01*
X3182315Y967130D01*
X3181400Y963726D01*
X3179368Y960831D01*
X3176473Y958799D01*
X3173069Y957884D01*
X3165195Y957173D01*
X3155746Y954633D01*
X3146806Y950518D01*
X3138779Y944880D01*
X3131820Y937920D01*
X3126181Y929894D01*
X3122066Y920953D01*
X3121304Y918210D01*
X3119272Y914349D01*
X3115818Y911656D01*
X3111500Y910691D01*
X3107182Y911656D01*
X3103727Y914349D01*
X3101695Y918210D01*
X3100933Y920953D01*
X3096818Y929894D01*
X3091180Y937920D01*
X3084220Y944880D01*
X3076194Y950518D01*
X3067253Y954633D01*
X3057804Y957173D01*
X3049930Y957884D01*
X3046526Y958799D01*
X3043631Y960831D01*
X3041599Y963726D01*
X3040684Y967130D01*
X3039973Y975004D01*
X3037433Y984453D01*
X3033318Y993394D01*
X3027680Y1001420D01*
X3020720Y1008380D01*
X3012694Y1014018D01*
X3003753Y1018133D01*
X2994304Y1020673D01*
X2984500Y1021537D01*
X2974695Y1020673D01*
X2965246Y1018133D01*
X2956306Y1014018D01*
X2948279Y1008380D01*
X2946704Y1006805D01*
X2943402Y1004569D01*
X2939491Y1003808D01*
X2610408Y1003808D01*
X2606497Y1004569D01*
X2603195Y1006805D01*
X2601620Y1008380D01*
X2593594Y1014018D01*
X2584653Y1018133D01*
X2575204Y1020673D01*
X2565400Y1021537D01*
X2555595Y1020673D01*
X2546146Y1018133D01*
X2537206Y1014018D01*
X2529179Y1008380D01*
X2522220Y1001420D01*
X2516581Y993394D01*
X2512466Y984453D01*
X2509926Y975004D01*
X2509062Y965200D01*
X2509926Y955395D01*
X2512466Y945946D01*
X2516581Y937006D01*
X2522220Y928979D01*
X2529179Y922019D01*
X2537206Y916381D01*
X2546146Y912266D01*
X2555595Y909726D01*
X2565400Y908862D01*
X2575204Y909726D01*
X2584653Y912266D01*
X2593594Y916381D01*
X2601620Y922019D01*
X2603195Y923594D01*
X2606497Y925830D01*
X2610408Y926592D01*
X2754731Y926592D01*
X2758338Y925931D01*
X2761488Y924001D01*
X2763774Y921054D01*
X2764840Y917498D01*
X2764536Y913790D01*
X2763926Y911504D01*
X2763062Y901700D01*
X2763926Y891895D01*
X2766466Y882446D01*
X2770581Y873506D01*
X2776220Y865479D01*
X2783179Y858519D01*
X2791206Y852881D01*
X2800146Y848766D01*
X2809595Y846226D01*
G37*
G36*
X5588000Y900125D02*
G01*
X5602528Y901039D01*
X5616803Y903732D01*
X5630672Y908253D01*
X5643829Y914450D01*
X5656122Y922223D01*
X5667349Y931519D01*
X5677306Y942136D01*
X5685840Y953922D01*
X5692851Y966673D01*
X5698236Y980186D01*
X5701842Y994308D01*
X5703671Y1008735D01*
X5703671Y1023264D01*
X5701842Y1037691D01*
X5698236Y1051814D01*
X5692851Y1065326D01*
X5685840Y1078077D01*
X5677306Y1089863D01*
X5667349Y1100480D01*
X5656122Y1109776D01*
X5643829Y1117549D01*
X5630672Y1123746D01*
X5616803Y1128268D01*
X5602528Y1130960D01*
X5588000Y1131874D01*
X5573471Y1130960D01*
X5559196Y1128268D01*
X5545328Y1123746D01*
X5532170Y1117549D01*
X5519877Y1109776D01*
X5508650Y1100480D01*
X5498693Y1089863D01*
X5490159Y1078077D01*
X5483148Y1065326D01*
X5477764Y1051814D01*
X5474157Y1037691D01*
X5472328Y1023264D01*
X5472328Y1008735D01*
X5474157Y994308D01*
X5477764Y980186D01*
X5483148Y966673D01*
X5490159Y953922D01*
X5498693Y942136D01*
X5508650Y931519D01*
X5519877Y922223D01*
X5532170Y914450D01*
X5545328Y908253D01*
X5559196Y903732D01*
X5573471Y901039D01*
G37*
G36*
X5334000Y900125D02*
G01*
X5348528Y901039D01*
X5362803Y903732D01*
X5376672Y908253D01*
X5389829Y914450D01*
X5402122Y922223D01*
X5413349Y931519D01*
X5423306Y942136D01*
X5431840Y953922D01*
X5438851Y966673D01*
X5444236Y980186D01*
X5447842Y994308D01*
X5449671Y1008735D01*
X5449671Y1023264D01*
X5447842Y1037691D01*
X5444236Y1051814D01*
X5438851Y1065326D01*
X5431840Y1078077D01*
X5423306Y1089863D01*
X5413349Y1100480D01*
X5402122Y1109776D01*
X5389829Y1117549D01*
X5376672Y1123746D01*
X5362803Y1128268D01*
X5348528Y1130960D01*
X5334000Y1131874D01*
X5319471Y1130960D01*
X5305196Y1128268D01*
X5291328Y1123746D01*
X5278170Y1117549D01*
X5265877Y1109776D01*
X5254650Y1100480D01*
X5244693Y1089863D01*
X5236159Y1078077D01*
X5229148Y1065326D01*
X5223764Y1051814D01*
X5220157Y1037691D01*
X5218328Y1023264D01*
X5218328Y1008735D01*
X5220157Y994308D01*
X5223764Y980186D01*
X5229148Y966673D01*
X5236159Y953922D01*
X5244693Y942136D01*
X5254650Y931519D01*
X5265877Y922223D01*
X5278170Y914450D01*
X5291328Y908253D01*
X5305196Y903732D01*
X5319471Y901039D01*
G37*
G36*
X3835400Y908862D02*
G01*
X3845204Y909726D01*
X3854653Y912266D01*
X3863594Y916381D01*
X3871620Y922019D01*
X3873195Y923594D01*
X3876497Y925830D01*
X3880408Y926592D01*
X4933391Y926592D01*
X4937302Y925830D01*
X4940604Y923594D01*
X4942179Y922019D01*
X4950206Y916381D01*
X4959146Y912266D01*
X4968595Y909726D01*
X4978400Y908862D01*
X4988204Y909726D01*
X4997653Y912266D01*
X5006594Y916381D01*
X5014620Y922019D01*
X5021580Y928979D01*
X5027218Y937006D01*
X5031333Y945946D01*
X5033873Y955395D01*
X5034737Y965200D01*
X5033873Y975004D01*
X5031333Y984453D01*
X5027218Y993394D01*
X5021580Y1001420D01*
X5014620Y1008380D01*
X5006594Y1014018D01*
X4997653Y1018133D01*
X4988204Y1020673D01*
X4978400Y1021537D01*
X4968595Y1020673D01*
X4959146Y1018133D01*
X4950206Y1014018D01*
X4942179Y1008380D01*
X4940604Y1006805D01*
X4937302Y1004569D01*
X4933391Y1003808D01*
X3880408Y1003808D01*
X3876497Y1004569D01*
X3873195Y1006805D01*
X3871620Y1008380D01*
X3863594Y1014018D01*
X3854653Y1018133D01*
X3845204Y1020673D01*
X3835400Y1021537D01*
X3825595Y1020673D01*
X3816146Y1018133D01*
X3807206Y1014018D01*
X3799179Y1008380D01*
X3792220Y1001420D01*
X3786581Y993394D01*
X3782466Y984453D01*
X3779926Y975004D01*
X3779062Y965200D01*
X3779926Y955395D01*
X3782466Y945946D01*
X3786581Y937006D01*
X3792220Y928979D01*
X3799179Y922019D01*
X3807206Y916381D01*
X3816146Y912266D01*
X3825595Y909726D01*
G37*
G36*
X5321300Y1154887D02*
G01*
X5321300Y1257300D01*
X5219039Y1257300D01*
X5220157Y1248308D01*
X5223764Y1234186D01*
X5229148Y1220673D01*
X5236159Y1207922D01*
X5244693Y1196136D01*
X5254650Y1185519D01*
X5265877Y1176223D01*
X5278170Y1168450D01*
X5291328Y1162253D01*
X5305196Y1157732D01*
X5319471Y1155039D01*
G37*
G36*
X5575300Y1154887D02*
G01*
X5575300Y1257300D01*
X5473039Y1257300D01*
X5474157Y1248308D01*
X5477764Y1234186D01*
X5483148Y1220673D01*
X5490159Y1207922D01*
X5498693Y1196136D01*
X5508650Y1185519D01*
X5519877Y1176223D01*
X5532170Y1168450D01*
X5545328Y1162253D01*
X5559196Y1157732D01*
X5573471Y1155039D01*
G37*
G36*
X5346700Y1154887D02*
G01*
X5348528Y1155039D01*
X5362803Y1157732D01*
X5376672Y1162253D01*
X5389829Y1168450D01*
X5402122Y1176223D01*
X5413349Y1185519D01*
X5423306Y1196136D01*
X5431840Y1207922D01*
X5438851Y1220673D01*
X5444236Y1234186D01*
X5447842Y1248308D01*
X5448960Y1257300D01*
X5346700Y1257300D01*
G37*
G36*
X5600700Y1154887D02*
G01*
X5602528Y1155039D01*
X5616803Y1157732D01*
X5630672Y1162253D01*
X5643829Y1168450D01*
X5656122Y1176223D01*
X5667349Y1185519D01*
X5677306Y1196136D01*
X5685840Y1207922D01*
X5692851Y1220673D01*
X5698236Y1234186D01*
X5701842Y1248308D01*
X5702960Y1257300D01*
X5600700Y1257300D01*
G37*
G36*
X5473039Y1282700D02*
G01*
X5575300Y1282700D01*
X5575300Y1385112D01*
X5573471Y1384960D01*
X5559196Y1382268D01*
X5545328Y1377746D01*
X5532170Y1371549D01*
X5519877Y1363776D01*
X5508650Y1354480D01*
X5498693Y1343863D01*
X5490159Y1332077D01*
X5483148Y1319326D01*
X5477764Y1305814D01*
X5474157Y1291691D01*
G37*
G36*
X5219039Y1282700D02*
G01*
X5321300Y1282700D01*
X5321300Y1385112D01*
X5319471Y1384960D01*
X5305196Y1382268D01*
X5291328Y1377746D01*
X5278170Y1371549D01*
X5265877Y1363776D01*
X5254650Y1354480D01*
X5244693Y1343863D01*
X5236159Y1332077D01*
X5229148Y1319326D01*
X5223764Y1305814D01*
X5220157Y1291691D01*
G37*
G36*
X5600700Y1282700D02*
G01*
X5702960Y1282700D01*
X5701842Y1291691D01*
X5698236Y1305814D01*
X5692851Y1319326D01*
X5685840Y1332077D01*
X5677306Y1343863D01*
X5667349Y1354480D01*
X5656122Y1363776D01*
X5643829Y1371549D01*
X5630672Y1377746D01*
X5616803Y1382268D01*
X5602528Y1384960D01*
X5600700Y1385112D01*
G37*
G36*
X5346700Y1282700D02*
G01*
X5448960Y1282700D01*
X5447842Y1291691D01*
X5444236Y1305814D01*
X5438851Y1319326D01*
X5431840Y1332077D01*
X5423306Y1343863D01*
X5413349Y1354480D01*
X5402122Y1363776D01*
X5389829Y1371549D01*
X5376672Y1377746D01*
X5362803Y1382268D01*
X5348528Y1384960D01*
X5346700Y1385112D01*
G37*
G36*
X5317693Y1456994D02*
G01*
X5426506Y1456994D01*
X5432856Y1457706D01*
X5438292Y1459636D01*
X5443220Y1462684D01*
X5447284Y1466799D01*
X5450382Y1471676D01*
X5452313Y1477162D01*
X5452668Y1480261D01*
X5453735Y1483817D01*
X5455970Y1486712D01*
X5459120Y1488643D01*
X5462727Y1489303D01*
X5489651Y1489303D01*
X5493258Y1488643D01*
X5496407Y1486712D01*
X5498693Y1483817D01*
X5499760Y1480261D01*
X5500116Y1477162D01*
X5501995Y1471676D01*
X5505094Y1466799D01*
X5509158Y1462684D01*
X5514086Y1459636D01*
X5519521Y1457706D01*
X5525871Y1456994D01*
X5624728Y1456994D01*
X5631027Y1457706D01*
X5636514Y1459636D01*
X5641390Y1462684D01*
X5645505Y1466799D01*
X5648604Y1471676D01*
X5650484Y1477162D01*
X5651195Y1483461D01*
X5651195Y1572310D01*
X5650484Y1578660D01*
X5648604Y1584096D01*
X5645505Y1589024D01*
X5641390Y1593088D01*
X5636514Y1596186D01*
X5631027Y1598117D01*
X5624728Y1598828D01*
X5525871Y1598828D01*
X5519521Y1598117D01*
X5514086Y1596186D01*
X5509158Y1593088D01*
X5505094Y1589024D01*
X5501995Y1584096D01*
X5500116Y1578660D01*
X5499760Y1575562D01*
X5498693Y1572006D01*
X5496407Y1569110D01*
X5493258Y1567180D01*
X5489651Y1566519D01*
X5463184Y1566519D01*
X5459272Y1567281D01*
X5455970Y1569466D01*
X5453786Y1572768D01*
X5453024Y1576679D01*
X5453024Y1582318D01*
X5452313Y1588668D01*
X5450382Y1594104D01*
X5447284Y1599031D01*
X5443220Y1603095D01*
X5441340Y1604314D01*
X5438394Y1607108D01*
X5436768Y1610868D01*
X5436768Y1614932D01*
X5438394Y1618691D01*
X5441340Y1621485D01*
X5443220Y1622704D01*
X5447284Y1626768D01*
X5450382Y1631696D01*
X5452313Y1637131D01*
X5453024Y1643481D01*
X5453024Y1742338D01*
X5452313Y1748637D01*
X5450382Y1754124D01*
X5447284Y1759000D01*
X5443220Y1763115D01*
X5438292Y1766163D01*
X5432856Y1768093D01*
X5426506Y1768805D01*
X5317693Y1768805D01*
X5311343Y1768093D01*
X5305907Y1766163D01*
X5300980Y1763115D01*
X5296916Y1759000D01*
X5293817Y1754124D01*
X5291937Y1748739D01*
X5291124Y1740712D01*
X5290108Y1737106D01*
X5287873Y1734159D01*
X5284673Y1732178D01*
X5281015Y1731518D01*
X5150408Y1731518D01*
X5146497Y1732280D01*
X5143195Y1734515D01*
X5141620Y1736089D01*
X5133594Y1741728D01*
X5124653Y1745843D01*
X5115204Y1748383D01*
X5105400Y1749247D01*
X5095595Y1748383D01*
X5086146Y1745843D01*
X5077206Y1741728D01*
X5069179Y1736089D01*
X5062220Y1729130D01*
X5056581Y1721104D01*
X5052466Y1712163D01*
X5049926Y1702714D01*
X5049062Y1692910D01*
X5049926Y1683105D01*
X5052466Y1673656D01*
X5056581Y1664716D01*
X5062220Y1656689D01*
X5069179Y1649730D01*
X5077206Y1644091D01*
X5086146Y1639976D01*
X5095595Y1637436D01*
X5105400Y1636572D01*
X5115204Y1637436D01*
X5124653Y1639976D01*
X5133594Y1644091D01*
X5141620Y1649730D01*
X5143195Y1651304D01*
X5146497Y1653539D01*
X5150408Y1654302D01*
X5281015Y1654302D01*
X5284673Y1653641D01*
X5287873Y1651660D01*
X5290108Y1648714D01*
X5291124Y1645107D01*
X5291937Y1637080D01*
X5293817Y1631696D01*
X5296916Y1626768D01*
X5300980Y1622704D01*
X5302859Y1621485D01*
X5305806Y1618691D01*
X5307431Y1614932D01*
X5307431Y1610868D01*
X5305806Y1607108D01*
X5302859Y1604314D01*
X5300980Y1603095D01*
X5296916Y1599031D01*
X5293817Y1594104D01*
X5291886Y1588668D01*
X5291175Y1582318D01*
X5291175Y1483461D01*
X5291886Y1477162D01*
X5293817Y1471676D01*
X5296916Y1466799D01*
X5300980Y1462684D01*
X5305907Y1459636D01*
X5311343Y1457706D01*
G37*
G36*
X5588000Y1627022D02*
G01*
X5624728Y1627022D01*
X5631027Y1627733D01*
X5636514Y1629613D01*
X5641390Y1632712D01*
X5645505Y1636776D01*
X5648604Y1641703D01*
X5650484Y1647139D01*
X5651195Y1653489D01*
X5651195Y1685188D01*
X5588000Y1685188D01*
G37*
G36*
X5525871Y1627022D02*
G01*
X5562600Y1627022D01*
X5562600Y1685188D01*
X5499404Y1685188D01*
X5499404Y1653489D01*
X5500116Y1647139D01*
X5501995Y1641703D01*
X5505094Y1636776D01*
X5509158Y1632712D01*
X5514086Y1629613D01*
X5519521Y1627733D01*
G37*
G36*
X5499404Y1710588D02*
G01*
X5562600Y1710588D01*
X5562600Y1768805D01*
X5525871Y1768805D01*
X5519521Y1768093D01*
X5514086Y1766214D01*
X5509158Y1763115D01*
X5505094Y1759000D01*
X5501995Y1754124D01*
X5500116Y1748637D01*
X5499404Y1742338D01*
G37*
G36*
X5588000Y1710588D02*
G01*
X5651195Y1710588D01*
X5651195Y1742338D01*
X5650484Y1748637D01*
X5648604Y1754124D01*
X5645505Y1759000D01*
X5641390Y1763115D01*
X5636514Y1766214D01*
X5631027Y1768093D01*
X5624728Y1768805D01*
X5588000Y1768805D01*
G37*
G36*
X1998065Y1932990D02*
G01*
X2003298Y1932990D01*
X2003298Y2019300D01*
X1899564Y2019300D01*
X1902104Y2006396D01*
X1906270Y1994103D01*
X1912010Y1982520D01*
X1919173Y1971751D01*
X1927707Y1961997D01*
X1937461Y1953463D01*
X1948230Y1946300D01*
X1959864Y1940560D01*
X1972106Y1936394D01*
X1984806Y1933854D01*
G37*
G36*
X2028698Y1932990D02*
G01*
X2033930Y1932990D01*
X2047189Y1933854D01*
X2059889Y1936394D01*
X2072132Y1940560D01*
X2083765Y1946300D01*
X2094534Y1953463D01*
X2104288Y1961997D01*
X2112822Y1971751D01*
X2119985Y1982520D01*
X2125726Y1994103D01*
X2129891Y2006396D01*
X2132431Y2019300D01*
X2028698Y2019300D01*
G37*
G36*
X3296564Y2044700D02*
G01*
X3400298Y2044700D01*
X3400298Y2131009D01*
X3395065Y2131009D01*
X3381806Y2130145D01*
X3369106Y2127605D01*
X3356864Y2123440D01*
X3345230Y2117750D01*
X3334461Y2110536D01*
X3324707Y2102002D01*
X3316173Y2092248D01*
X3309010Y2081479D01*
X3303270Y2069896D01*
X3299104Y2057603D01*
G37*
G36*
X3425698Y2044700D02*
G01*
X3529431Y2044700D01*
X3526891Y2057603D01*
X3522726Y2069896D01*
X3516985Y2081479D01*
X3509822Y2092248D01*
X3501288Y2102002D01*
X3491534Y2110536D01*
X3480765Y2117750D01*
X3469132Y2123440D01*
X3456889Y2127605D01*
X3444189Y2130145D01*
X3430930Y2131009D01*
X3425698Y2131009D01*
G37*
G36*
X3395065Y2186990D02*
G01*
X3430930Y2186990D01*
X3444189Y2187854D01*
X3456889Y2190394D01*
X3469132Y2194560D01*
X3480765Y2200300D01*
X3491534Y2207463D01*
X3501288Y2215997D01*
X3509822Y2225751D01*
X3516985Y2236520D01*
X3519576Y2241702D01*
X3521811Y2244699D01*
X3525012Y2246680D01*
X3528669Y2247392D01*
X3663391Y2247392D01*
X3667302Y2246630D01*
X3670604Y2244394D01*
X3672179Y2242820D01*
X3680206Y2237181D01*
X3689146Y2233066D01*
X3698595Y2230526D01*
X3708400Y2229662D01*
X3718204Y2230526D01*
X3727653Y2233066D01*
X3736594Y2237181D01*
X3744620Y2242820D01*
X3751579Y2249779D01*
X3757218Y2257806D01*
X3761333Y2266746D01*
X3763873Y2276195D01*
X3764737Y2286000D01*
X3763873Y2295804D01*
X3761333Y2305253D01*
X3757218Y2314194D01*
X3751579Y2322220D01*
X3744620Y2329180D01*
X3736594Y2334818D01*
X3727653Y2338933D01*
X3718204Y2341473D01*
X3708400Y2342337D01*
X3698595Y2341473D01*
X3689146Y2338933D01*
X3680206Y2334818D01*
X3672179Y2329180D01*
X3670604Y2327605D01*
X3667302Y2325370D01*
X3663391Y2324608D01*
X3528669Y2324608D01*
X3525012Y2325319D01*
X3521811Y2327300D01*
X3519576Y2330297D01*
X3516985Y2335479D01*
X3509822Y2346248D01*
X3498138Y2359863D01*
X3497122Y2363774D01*
X3497783Y2367788D01*
X3499967Y2371242D01*
X3503320Y2373579D01*
X3507282Y2374392D01*
X4112717Y2374392D01*
X4116679Y2373579D01*
X4120032Y2371242D01*
X4122216Y2367788D01*
X4122877Y2363774D01*
X4121861Y2359863D01*
X4110177Y2346248D01*
X4103014Y2335479D01*
X4100423Y2330297D01*
X4098188Y2327300D01*
X4094987Y2325319D01*
X4091330Y2324608D01*
X4070908Y2324608D01*
X4066997Y2325370D01*
X4063695Y2327605D01*
X4062120Y2329180D01*
X4054094Y2334818D01*
X4045153Y2338933D01*
X4035704Y2341473D01*
X4025900Y2342337D01*
X4016095Y2341473D01*
X4006646Y2338933D01*
X3997706Y2334818D01*
X3989679Y2329180D01*
X3982720Y2322220D01*
X3977081Y2314194D01*
X3972966Y2305253D01*
X3970426Y2295804D01*
X3969562Y2286000D01*
X3970426Y2276195D01*
X3972966Y2266746D01*
X3977081Y2257806D01*
X3982720Y2249779D01*
X3989679Y2242820D01*
X3997706Y2237181D01*
X4006646Y2233066D01*
X4016095Y2230526D01*
X4025900Y2229662D01*
X4035704Y2230526D01*
X4045153Y2233066D01*
X4054094Y2237181D01*
X4062120Y2242820D01*
X4063695Y2244394D01*
X4066997Y2246630D01*
X4070908Y2247392D01*
X4091330Y2247392D01*
X4094987Y2246680D01*
X4098188Y2244699D01*
X4100423Y2241702D01*
X4103014Y2236520D01*
X4110177Y2225751D01*
X4118711Y2215997D01*
X4128465Y2207463D01*
X4139234Y2200300D01*
X4150868Y2194560D01*
X4163110Y2190394D01*
X4175810Y2187854D01*
X4189069Y2186990D01*
X4224934Y2186990D01*
X4238193Y2187854D01*
X4250893Y2190394D01*
X4263136Y2194560D01*
X4274769Y2200300D01*
X4285538Y2207463D01*
X4295292Y2215997D01*
X4303826Y2225751D01*
X4310989Y2236520D01*
X4316730Y2248103D01*
X4320895Y2260396D01*
X4323435Y2273096D01*
X4324248Y2286000D01*
X4323435Y2298903D01*
X4320895Y2311603D01*
X4316730Y2323896D01*
X4310989Y2335479D01*
X4303826Y2346248D01*
X4292142Y2359863D01*
X4291126Y2363774D01*
X4291787Y2367788D01*
X4293971Y2371242D01*
X4297273Y2373579D01*
X4301286Y2374392D01*
X5161991Y2374392D01*
X5165902Y2373630D01*
X5169204Y2371394D01*
X5170779Y2369820D01*
X5178806Y2364181D01*
X5187746Y2360066D01*
X5197195Y2357526D01*
X5207000Y2356662D01*
X5216804Y2357526D01*
X5226253Y2360066D01*
X5235194Y2364181D01*
X5243220Y2369820D01*
X5250180Y2376779D01*
X5255818Y2384806D01*
X5259933Y2393746D01*
X5262473Y2403195D01*
X5263337Y2413000D01*
X5262473Y2422804D01*
X5259933Y2432253D01*
X5255818Y2441194D01*
X5250180Y2449220D01*
X5243220Y2456180D01*
X5235194Y2461818D01*
X5226253Y2465933D01*
X5216804Y2468473D01*
X5207000Y2469337D01*
X5197195Y2468473D01*
X5187746Y2465933D01*
X5178806Y2461818D01*
X5170779Y2456180D01*
X5169204Y2454605D01*
X5165902Y2452370D01*
X5161991Y2451608D01*
X4639818Y2451608D01*
X4636058Y2452319D01*
X4632807Y2454402D01*
X4630572Y2457500D01*
X4629658Y2461209D01*
X4630166Y2465019D01*
X4632045Y2468321D01*
X4641494Y2479446D01*
X4648809Y2490927D01*
X4654550Y2503322D01*
X4658614Y2516327D01*
X4660442Y2527300D01*
X4572000Y2527300D01*
X4572000Y2461768D01*
X4571238Y2457856D01*
X4569002Y2454605D01*
X4565751Y2452370D01*
X4561840Y2451608D01*
X4556760Y2451608D01*
X4552848Y2452370D01*
X4549597Y2454605D01*
X4547362Y2457856D01*
X4546600Y2461768D01*
X4546600Y2527300D01*
X4458157Y2527300D01*
X4459986Y2516327D01*
X4464050Y2503322D01*
X4469790Y2490927D01*
X4477105Y2479446D01*
X4486554Y2468321D01*
X4488434Y2465019D01*
X4488942Y2461209D01*
X4488027Y2457500D01*
X4485792Y2454402D01*
X4482541Y2452319D01*
X4478782Y2451608D01*
X4301286Y2451608D01*
X4297273Y2452420D01*
X4293920Y2454757D01*
X4291787Y2458212D01*
X4291126Y2462225D01*
X4292142Y2466136D01*
X4303826Y2479751D01*
X4310989Y2490520D01*
X4316730Y2502103D01*
X4320895Y2514396D01*
X4323435Y2527096D01*
X4324248Y2540000D01*
X4323435Y2552903D01*
X4320895Y2565603D01*
X4316730Y2577896D01*
X4310989Y2589479D01*
X4303826Y2600248D01*
X4292142Y2613863D01*
X4291126Y2617774D01*
X4291787Y2621788D01*
X4293971Y2625242D01*
X4297273Y2627579D01*
X4301286Y2628392D01*
X4431792Y2628392D01*
X4439818Y2629204D01*
X4447032Y2631389D01*
X4453737Y2634945D01*
X4459935Y2640076D01*
X4515307Y2695397D01*
X4518406Y2697530D01*
X4522063Y2698343D01*
X4525822Y2697784D01*
X4532325Y2695549D01*
X4545685Y2692806D01*
X4559300Y2691892D01*
X4572914Y2692806D01*
X4586274Y2695549D01*
X4599178Y2700020D01*
X4611319Y2706166D01*
X4622546Y2713888D01*
X4632706Y2723032D01*
X4641494Y2733446D01*
X4648809Y2744927D01*
X4650943Y2749499D01*
X4653178Y2752598D01*
X4656378Y2754680D01*
X4660138Y2755392D01*
X4709972Y2755392D01*
X4713935Y2754579D01*
X4717237Y2752344D01*
X4719421Y2748991D01*
X4721148Y2744673D01*
X4728159Y2731922D01*
X4736693Y2720136D01*
X4746650Y2709519D01*
X4757877Y2700223D01*
X4770170Y2692450D01*
X4783328Y2686253D01*
X4797196Y2681732D01*
X4811471Y2679039D01*
X4826000Y2678125D01*
X4840528Y2679039D01*
X4854803Y2681732D01*
X4868672Y2686253D01*
X4881829Y2692450D01*
X4894122Y2700223D01*
X4905349Y2709519D01*
X4915306Y2720136D01*
X4923840Y2731922D01*
X4930851Y2744673D01*
X4936236Y2758186D01*
X4939842Y2772308D01*
X4941671Y2786735D01*
X4941671Y2801264D01*
X4939842Y2815691D01*
X4936236Y2829814D01*
X4930851Y2843326D01*
X4923840Y2856077D01*
X4916474Y2866237D01*
X4914696Y2870352D01*
X4914849Y2874772D01*
X4916830Y2878683D01*
X4920335Y2881426D01*
X4924704Y2882392D01*
X5098491Y2882392D01*
X5102402Y2881630D01*
X5105704Y2879394D01*
X5107279Y2877820D01*
X5115306Y2872181D01*
X5124754Y2867812D01*
X5126837Y2866440D01*
X5131104Y2866186D01*
X5133695Y2865526D01*
X5137353Y2865170D01*
X5141518Y2863850D01*
X5143500Y2862072D01*
X5145481Y2863850D01*
X5149646Y2865170D01*
X5153304Y2865526D01*
X5162753Y2868066D01*
X5171694Y2872181D01*
X5179720Y2877820D01*
X5186680Y2884779D01*
X5192318Y2892806D01*
X5196433Y2901746D01*
X5198973Y2911195D01*
X5199837Y2921000D01*
X5198973Y2930804D01*
X5196433Y2940253D01*
X5192318Y2949194D01*
X5186680Y2957220D01*
X5179720Y2964180D01*
X5171694Y2969818D01*
X5162753Y2973933D01*
X5153304Y2976473D01*
X5143500Y2977337D01*
X5133695Y2976473D01*
X5124246Y2973933D01*
X5115306Y2969818D01*
X5107279Y2964180D01*
X5105704Y2962605D01*
X5102402Y2960370D01*
X5098491Y2959608D01*
X4924704Y2959608D01*
X4920335Y2960573D01*
X4916830Y2963316D01*
X4914849Y2967228D01*
X4914696Y2971647D01*
X4916474Y2975762D01*
X4923840Y2985922D01*
X4930851Y2998673D01*
X4932578Y3002991D01*
X4934762Y3006344D01*
X4938064Y3008579D01*
X4942027Y3009392D01*
X5225491Y3009392D01*
X5229402Y3008630D01*
X5232704Y3006394D01*
X5234279Y3004820D01*
X5242306Y2999181D01*
X5251246Y2995066D01*
X5260695Y2992526D01*
X5270500Y2991662D01*
X5280304Y2992526D01*
X5289753Y2995066D01*
X5298694Y2999181D01*
X5306720Y3004820D01*
X5313680Y3011779D01*
X5319318Y3019806D01*
X5323433Y3028746D01*
X5325973Y3038195D01*
X5326837Y3048000D01*
X5325973Y3057804D01*
X5323433Y3067253D01*
X5319318Y3076194D01*
X5313680Y3084220D01*
X5306720Y3091180D01*
X5298694Y3096818D01*
X5289753Y3100933D01*
X5280304Y3103473D01*
X5270500Y3104337D01*
X5260695Y3103473D01*
X5251246Y3100933D01*
X5242306Y3096818D01*
X5234279Y3091180D01*
X5232704Y3089605D01*
X5229402Y3087370D01*
X5225491Y3086608D01*
X4942027Y3086608D01*
X4938064Y3087420D01*
X4934762Y3089656D01*
X4932578Y3093008D01*
X4930851Y3097326D01*
X4923840Y3110077D01*
X4915306Y3121863D01*
X4905349Y3132480D01*
X4894122Y3141776D01*
X4881829Y3149549D01*
X4868672Y3155746D01*
X4854803Y3160268D01*
X4840528Y3162960D01*
X4826000Y3163874D01*
X4811471Y3162960D01*
X4797196Y3160268D01*
X4783328Y3155746D01*
X4770170Y3149549D01*
X4757877Y3141776D01*
X4746650Y3132480D01*
X4736693Y3121863D01*
X4728159Y3110077D01*
X4721148Y3097326D01*
X4719421Y3093008D01*
X4717237Y3089656D01*
X4713935Y3087420D01*
X4709972Y3086608D01*
X4660290Y3086608D01*
X4656785Y3087268D01*
X4653686Y3089097D01*
X4651400Y3091891D01*
X4645355Y3102914D01*
X4637278Y3113887D01*
X4627778Y3123692D01*
X4617059Y3132175D01*
X4605324Y3139135D01*
X4592777Y3144418D01*
X4579620Y3148025D01*
X4566107Y3149854D01*
X4552492Y3149854D01*
X4538980Y3148025D01*
X4525822Y3144418D01*
X4513275Y3139135D01*
X4501540Y3132175D01*
X4490821Y3123692D01*
X4481322Y3113887D01*
X4473244Y3102914D01*
X4466691Y3090976D01*
X4461814Y3078226D01*
X4458614Y3064967D01*
X4457293Y3051403D01*
X4457750Y3037789D01*
X4459986Y3024327D01*
X4464050Y3011322D01*
X4469790Y2998927D01*
X4477105Y2987446D01*
X4486554Y2976321D01*
X4488434Y2973019D01*
X4488942Y2969209D01*
X4488027Y2965500D01*
X4485792Y2962402D01*
X4482541Y2960319D01*
X4478782Y2959608D01*
X4301286Y2959608D01*
X4297273Y2960420D01*
X4293920Y2962757D01*
X4291787Y2966212D01*
X4291126Y2970225D01*
X4292142Y2974136D01*
X4303826Y2987751D01*
X4310989Y2998520D01*
X4316730Y3010103D01*
X4320895Y3022396D01*
X4323435Y3035096D01*
X4324248Y3048000D01*
X4323435Y3060903D01*
X4320895Y3073603D01*
X4316730Y3085896D01*
X4310989Y3097479D01*
X4303826Y3108248D01*
X4292142Y3121863D01*
X4291126Y3125774D01*
X4291787Y3129788D01*
X4293920Y3133242D01*
X4297273Y3135579D01*
X4301286Y3136392D01*
X4431792Y3136392D01*
X4439818Y3137204D01*
X4447032Y3139389D01*
X4453737Y3142945D01*
X4459935Y3148076D01*
X4515307Y3203397D01*
X4518406Y3205530D01*
X4522063Y3206343D01*
X4525822Y3205784D01*
X4532325Y3203549D01*
X4545685Y3200806D01*
X4559300Y3199892D01*
X4572914Y3200806D01*
X4586274Y3203549D01*
X4599178Y3208020D01*
X4611319Y3214166D01*
X4622546Y3221888D01*
X4632706Y3231032D01*
X4641494Y3241446D01*
X4648809Y3252927D01*
X4650943Y3257499D01*
X4653178Y3260598D01*
X4656378Y3262680D01*
X4660138Y3263392D01*
X4709972Y3263392D01*
X4713935Y3262579D01*
X4717237Y3260344D01*
X4719421Y3256991D01*
X4721148Y3252673D01*
X4728159Y3239922D01*
X4736693Y3228136D01*
X4746650Y3217519D01*
X4757877Y3208223D01*
X4770170Y3200450D01*
X4783328Y3194253D01*
X4797196Y3189732D01*
X4811471Y3187039D01*
X4826000Y3186125D01*
X4840528Y3187039D01*
X4854803Y3189732D01*
X4868672Y3194253D01*
X4881829Y3200450D01*
X4894122Y3208223D01*
X4905349Y3217519D01*
X4915306Y3228136D01*
X4923840Y3239922D01*
X4930851Y3252673D01*
X4936236Y3266186D01*
X4939842Y3280308D01*
X4941671Y3294735D01*
X4941671Y3309264D01*
X4939842Y3323691D01*
X4936236Y3337814D01*
X4930851Y3351326D01*
X4923840Y3364077D01*
X4916474Y3374237D01*
X4914696Y3378352D01*
X4914849Y3382772D01*
X4916830Y3386683D01*
X4920335Y3389426D01*
X4924704Y3390392D01*
X5034991Y3390392D01*
X5038902Y3389629D01*
X5042204Y3387394D01*
X5043779Y3385820D01*
X5051806Y3380181D01*
X5060746Y3376066D01*
X5070195Y3373526D01*
X5080000Y3372662D01*
X5089804Y3373526D01*
X5099253Y3376066D01*
X5108194Y3380181D01*
X5116220Y3385820D01*
X5123180Y3392779D01*
X5128818Y3400806D01*
X5132933Y3409746D01*
X5135473Y3419195D01*
X5136337Y3429000D01*
X5135473Y3438804D01*
X5132933Y3448253D01*
X5128818Y3457194D01*
X5123180Y3465220D01*
X5116220Y3472179D01*
X5108194Y3477818D01*
X5099253Y3481933D01*
X5089804Y3484473D01*
X5080000Y3485337D01*
X5070195Y3484473D01*
X5060746Y3481933D01*
X5051806Y3477818D01*
X5043779Y3472179D01*
X5042204Y3470605D01*
X5038902Y3468370D01*
X5034991Y3467608D01*
X4924704Y3467608D01*
X4920335Y3468573D01*
X4916830Y3471316D01*
X4914849Y3475228D01*
X4914696Y3479647D01*
X4916474Y3483762D01*
X4923840Y3493922D01*
X4930851Y3506673D01*
X4932578Y3510991D01*
X4934762Y3514344D01*
X4938064Y3516579D01*
X4942027Y3517392D01*
X5161991Y3517392D01*
X5165902Y3516629D01*
X5169204Y3514394D01*
X5170779Y3512820D01*
X5178806Y3507181D01*
X5187746Y3503066D01*
X5197195Y3500526D01*
X5207000Y3499662D01*
X5216804Y3500526D01*
X5226253Y3503066D01*
X5235194Y3507181D01*
X5243220Y3512820D01*
X5250180Y3519779D01*
X5255818Y3527806D01*
X5259933Y3536746D01*
X5262473Y3546195D01*
X5263337Y3556000D01*
X5262473Y3565804D01*
X5259933Y3575253D01*
X5255818Y3584194D01*
X5250180Y3592220D01*
X5243220Y3599179D01*
X5235194Y3604818D01*
X5226253Y3608933D01*
X5216804Y3611473D01*
X5207000Y3612337D01*
X5197195Y3611473D01*
X5187746Y3608933D01*
X5178806Y3604818D01*
X5170779Y3599179D01*
X5169204Y3597605D01*
X5165902Y3595370D01*
X5161991Y3594608D01*
X4942027Y3594608D01*
X4938064Y3595420D01*
X4934762Y3597656D01*
X4932578Y3601008D01*
X4930851Y3605326D01*
X4923840Y3618077D01*
X4915306Y3629863D01*
X4905349Y3640480D01*
X4894122Y3649776D01*
X4881829Y3657549D01*
X4868672Y3663746D01*
X4854803Y3668268D01*
X4840528Y3670960D01*
X4826000Y3671874D01*
X4811471Y3670960D01*
X4797196Y3668268D01*
X4783328Y3663746D01*
X4770170Y3657549D01*
X4757877Y3649776D01*
X4746650Y3640480D01*
X4736693Y3629863D01*
X4728159Y3618077D01*
X4721148Y3605326D01*
X4719421Y3601008D01*
X4717237Y3597656D01*
X4713935Y3595420D01*
X4709972Y3594608D01*
X4660290Y3594608D01*
X4656785Y3595268D01*
X4653686Y3597097D01*
X4651400Y3599891D01*
X4645355Y3610914D01*
X4637278Y3621887D01*
X4627778Y3631692D01*
X4617059Y3640175D01*
X4605324Y3647135D01*
X4592777Y3652418D01*
X4579620Y3656025D01*
X4566107Y3657854D01*
X4552492Y3657854D01*
X4538980Y3656025D01*
X4525822Y3652418D01*
X4513275Y3647135D01*
X4501540Y3640175D01*
X4490821Y3631692D01*
X4481322Y3621887D01*
X4473244Y3610914D01*
X4466691Y3598976D01*
X4461814Y3586226D01*
X4458614Y3572967D01*
X4457293Y3559403D01*
X4457750Y3545789D01*
X4459986Y3532327D01*
X4464050Y3519322D01*
X4469790Y3506927D01*
X4477105Y3495446D01*
X4486554Y3484321D01*
X4488434Y3481019D01*
X4488942Y3477209D01*
X4488027Y3473500D01*
X4485792Y3470401D01*
X4482541Y3468319D01*
X4478782Y3467608D01*
X4301286Y3467608D01*
X4297273Y3468420D01*
X4293920Y3470757D01*
X4291787Y3474212D01*
X4291126Y3478225D01*
X4292142Y3482136D01*
X4303826Y3495751D01*
X4310989Y3506520D01*
X4316730Y3518103D01*
X4320895Y3530396D01*
X4323435Y3543096D01*
X4324248Y3556000D01*
X4323435Y3568903D01*
X4320895Y3581603D01*
X4316730Y3593896D01*
X4310989Y3605479D01*
X4303826Y3616248D01*
X4292142Y3629863D01*
X4291126Y3633774D01*
X4291787Y3637787D01*
X4293920Y3641242D01*
X4297273Y3643579D01*
X4301286Y3644392D01*
X4431792Y3644392D01*
X4439818Y3645204D01*
X4447032Y3647389D01*
X4453737Y3650945D01*
X4459935Y3656076D01*
X4515307Y3711397D01*
X4518406Y3713530D01*
X4522063Y3714343D01*
X4525822Y3713784D01*
X4532325Y3711549D01*
X4545685Y3708806D01*
X4559300Y3707892D01*
X4572914Y3708806D01*
X4586274Y3711549D01*
X4599178Y3716020D01*
X4611319Y3722166D01*
X4622546Y3729888D01*
X4632706Y3739032D01*
X4641494Y3749446D01*
X4648809Y3760927D01*
X4650943Y3765499D01*
X4653178Y3768598D01*
X4656378Y3770680D01*
X4660138Y3771392D01*
X4709972Y3771392D01*
X4713935Y3770579D01*
X4717237Y3768344D01*
X4719421Y3764991D01*
X4721148Y3760673D01*
X4728159Y3747922D01*
X4736693Y3736136D01*
X4746650Y3725519D01*
X4757877Y3716223D01*
X4770170Y3708450D01*
X4783328Y3702253D01*
X4797196Y3697732D01*
X4811471Y3695039D01*
X4826000Y3694125D01*
X4840528Y3695039D01*
X4854803Y3697732D01*
X4868672Y3702253D01*
X4881829Y3708450D01*
X4894122Y3716223D01*
X4905349Y3725519D01*
X4915306Y3736136D01*
X4923840Y3747922D01*
X4930851Y3760673D01*
X4936236Y3774186D01*
X4939842Y3788308D01*
X4941671Y3802735D01*
X4941671Y3817264D01*
X4939842Y3831691D01*
X4936236Y3845814D01*
X4930851Y3859326D01*
X4923840Y3872077D01*
X4916474Y3882237D01*
X4914696Y3886352D01*
X4914849Y3890772D01*
X4916830Y3894683D01*
X4920335Y3897426D01*
X4924704Y3898392D01*
X5440781Y3898392D01*
X5444693Y3897629D01*
X5447995Y3895394D01*
X5478678Y3864711D01*
X5480862Y3861460D01*
X5481675Y3857650D01*
X5480964Y3853789D01*
X5477764Y3845814D01*
X5474157Y3831691D01*
X5472328Y3817264D01*
X5472328Y3802735D01*
X5474157Y3788308D01*
X5477764Y3774186D01*
X5483148Y3760673D01*
X5490159Y3747922D01*
X5498693Y3736136D01*
X5508650Y3725519D01*
X5519877Y3716223D01*
X5532170Y3708450D01*
X5545328Y3702253D01*
X5559196Y3697732D01*
X5573471Y3695039D01*
X5588000Y3694125D01*
X5602528Y3695039D01*
X5616803Y3697732D01*
X5630672Y3702253D01*
X5643829Y3708450D01*
X5656122Y3716223D01*
X5667349Y3725519D01*
X5677306Y3736136D01*
X5685840Y3747922D01*
X5692851Y3760673D01*
X5698236Y3774186D01*
X5701842Y3788308D01*
X5703671Y3802735D01*
X5703671Y3817264D01*
X5701842Y3831691D01*
X5698236Y3845814D01*
X5692851Y3859326D01*
X5685840Y3872077D01*
X5677306Y3883863D01*
X5667349Y3894480D01*
X5656122Y3903776D01*
X5643829Y3911549D01*
X5630672Y3917746D01*
X5616803Y3922268D01*
X5602528Y3924960D01*
X5588000Y3925874D01*
X5573471Y3924960D01*
X5559196Y3922268D01*
X5545328Y3917746D01*
X5540654Y3916476D01*
X5536590Y3917187D01*
X5533136Y3919423D01*
X5488635Y3963924D01*
X5482437Y3969054D01*
X5475732Y3972610D01*
X5468518Y3974795D01*
X5460492Y3975608D01*
X4924704Y3975608D01*
X4920335Y3976573D01*
X4916830Y3979316D01*
X4914849Y3983228D01*
X4914696Y3987647D01*
X4916474Y3991762D01*
X4923840Y4001922D01*
X4930851Y4014673D01*
X4932578Y4018991D01*
X4934762Y4022344D01*
X4938064Y4024579D01*
X4942027Y4025392D01*
X5098491Y4025392D01*
X5102402Y4024629D01*
X5105704Y4022394D01*
X5107279Y4020820D01*
X5115306Y4015181D01*
X5124246Y4011066D01*
X5133695Y4008526D01*
X5143500Y4007662D01*
X5153304Y4008526D01*
X5162753Y4011066D01*
X5171694Y4015181D01*
X5179720Y4020820D01*
X5186680Y4027779D01*
X5192318Y4035806D01*
X5196433Y4044746D01*
X5198973Y4054195D01*
X5199837Y4064000D01*
X5198973Y4073804D01*
X5196433Y4083253D01*
X5192318Y4092194D01*
X5186680Y4100220D01*
X5179720Y4107179D01*
X5171694Y4112818D01*
X5162753Y4116933D01*
X5153304Y4119473D01*
X5143500Y4120337D01*
X5133695Y4119473D01*
X5124246Y4116933D01*
X5115306Y4112818D01*
X5107279Y4107179D01*
X5105704Y4105605D01*
X5102402Y4103370D01*
X5098491Y4102608D01*
X4942027Y4102608D01*
X4938064Y4103420D01*
X4934762Y4105656D01*
X4932578Y4109008D01*
X4930851Y4113326D01*
X4923840Y4126077D01*
X4915306Y4137863D01*
X4905349Y4148480D01*
X4894122Y4157776D01*
X4881829Y4165549D01*
X4868672Y4171746D01*
X4854803Y4176268D01*
X4840528Y4178960D01*
X4826000Y4179874D01*
X4811471Y4178960D01*
X4797196Y4176268D01*
X4783328Y4171746D01*
X4770170Y4165549D01*
X4757877Y4157776D01*
X4746650Y4148480D01*
X4736693Y4137863D01*
X4728159Y4126077D01*
X4721148Y4113326D01*
X4719421Y4109008D01*
X4717237Y4105656D01*
X4713935Y4103420D01*
X4709972Y4102608D01*
X4660290Y4102608D01*
X4656785Y4103268D01*
X4653686Y4105097D01*
X4651400Y4107891D01*
X4645355Y4118914D01*
X4637278Y4129887D01*
X4627778Y4139692D01*
X4617059Y4148175D01*
X4605324Y4155135D01*
X4592777Y4160418D01*
X4579620Y4164025D01*
X4566107Y4165854D01*
X4552492Y4165854D01*
X4538980Y4164025D01*
X4525822Y4160418D01*
X4513275Y4155135D01*
X4501540Y4148175D01*
X4490821Y4139692D01*
X4481322Y4129887D01*
X4473244Y4118914D01*
X4466691Y4106976D01*
X4461814Y4094226D01*
X4458614Y4080967D01*
X4457293Y4067403D01*
X4457750Y4053789D01*
X4459986Y4040327D01*
X4464050Y4027322D01*
X4469790Y4014927D01*
X4477105Y4003446D01*
X4486554Y3992321D01*
X4488434Y3989019D01*
X4488942Y3985209D01*
X4488027Y3981500D01*
X4485792Y3978401D01*
X4482541Y3976319D01*
X4478782Y3975608D01*
X4334510Y3975608D01*
X4326483Y3974795D01*
X4319270Y3972610D01*
X4312564Y3969054D01*
X4306366Y3963924D01*
X4252315Y3909923D01*
X4249623Y3907993D01*
X4246473Y3907028D01*
X4243171Y3907129D01*
X4238193Y3908145D01*
X4224934Y3909009D01*
X4189069Y3909009D01*
X4175810Y3908145D01*
X4163110Y3905605D01*
X4150868Y3901440D01*
X4139234Y3895699D01*
X4128465Y3888536D01*
X4118711Y3880002D01*
X4110177Y3870248D01*
X4103014Y3859479D01*
X4097274Y3847896D01*
X4093108Y3835603D01*
X4090568Y3822903D01*
X4089755Y3810000D01*
X4090568Y3797096D01*
X4093108Y3784396D01*
X4097274Y3772103D01*
X4103014Y3760520D01*
X4110177Y3749751D01*
X4121861Y3736136D01*
X4122877Y3732225D01*
X4122216Y3728212D01*
X4120032Y3724757D01*
X4116730Y3722420D01*
X4112717Y3721608D01*
X3507282Y3721608D01*
X3503269Y3722420D01*
X3499967Y3724757D01*
X3497783Y3728212D01*
X3497122Y3732225D01*
X3498138Y3736136D01*
X3509822Y3749751D01*
X3516985Y3760520D01*
X3522726Y3772103D01*
X3526891Y3784396D01*
X3529431Y3797096D01*
X3530244Y3810000D01*
X3529431Y3822903D01*
X3526891Y3835603D01*
X3522726Y3847896D01*
X3516985Y3859479D01*
X3509822Y3870248D01*
X3498138Y3883863D01*
X3497122Y3887774D01*
X3497783Y3891787D01*
X3499967Y3895242D01*
X3503269Y3897579D01*
X3507282Y3898392D01*
X3980891Y3898392D01*
X3984802Y3897629D01*
X3988104Y3895394D01*
X3989679Y3893820D01*
X3997706Y3888181D01*
X4006646Y3884066D01*
X4016095Y3881526D01*
X4025900Y3880662D01*
X4035704Y3881526D01*
X4045153Y3884066D01*
X4054094Y3888181D01*
X4062120Y3893820D01*
X4069079Y3900779D01*
X4074718Y3908806D01*
X4078833Y3917746D01*
X4081373Y3927195D01*
X4082237Y3937000D01*
X4081373Y3946804D01*
X4078833Y3956253D01*
X4074718Y3965194D01*
X4069079Y3973220D01*
X4062120Y3980179D01*
X4054094Y3985818D01*
X4045153Y3989933D01*
X4035704Y3992473D01*
X4025900Y3993337D01*
X4016095Y3992473D01*
X4006646Y3989933D01*
X3997706Y3985818D01*
X3989679Y3980179D01*
X3988104Y3978605D01*
X3984802Y3976370D01*
X3980891Y3975608D01*
X3507282Y3975608D01*
X3503320Y3976420D01*
X3499967Y3978757D01*
X3497783Y3982212D01*
X3497122Y3986225D01*
X3498138Y3990136D01*
X3509822Y4003751D01*
X3516985Y4014520D01*
X3522726Y4026103D01*
X3526891Y4038396D01*
X3529431Y4051096D01*
X3530244Y4064000D01*
X3529431Y4076903D01*
X3526891Y4089603D01*
X3522726Y4101896D01*
X3516985Y4113479D01*
X3509822Y4124248D01*
X3498138Y4137863D01*
X3497122Y4141774D01*
X3497783Y4145787D01*
X3499967Y4149242D01*
X3503269Y4151579D01*
X3507282Y4152392D01*
X4112717Y4152392D01*
X4116730Y4151579D01*
X4120032Y4149242D01*
X4122216Y4145787D01*
X4122877Y4141774D01*
X4121861Y4137863D01*
X4110177Y4124248D01*
X4103014Y4113479D01*
X4097274Y4101896D01*
X4093108Y4089603D01*
X4090568Y4076700D01*
X4194301Y4076700D01*
X4194301Y4142232D01*
X4195064Y4146143D01*
X4197299Y4149394D01*
X4200550Y4151629D01*
X4204462Y4152392D01*
X4209542Y4152392D01*
X4213402Y4151629D01*
X4216704Y4149394D01*
X4218940Y4146143D01*
X4219702Y4142232D01*
X4219702Y4076700D01*
X4323435Y4076700D01*
X4320895Y4089603D01*
X4316730Y4101896D01*
X4310989Y4113479D01*
X4303826Y4124248D01*
X4292142Y4137863D01*
X4291126Y4141774D01*
X4291787Y4145787D01*
X4293920Y4149242D01*
X4297273Y4151579D01*
X4301286Y4152392D01*
X4431792Y4152392D01*
X4439818Y4153204D01*
X4447032Y4155389D01*
X4453737Y4158945D01*
X4459935Y4164076D01*
X4515307Y4219397D01*
X4518406Y4221530D01*
X4522063Y4222343D01*
X4525822Y4221784D01*
X4532325Y4219549D01*
X4545685Y4216806D01*
X4559300Y4215892D01*
X4572914Y4216806D01*
X4586274Y4219549D01*
X4599178Y4224020D01*
X4611319Y4230166D01*
X4622546Y4237888D01*
X4632706Y4247032D01*
X4641494Y4257446D01*
X4648809Y4268927D01*
X4650943Y4273499D01*
X4653178Y4276598D01*
X4656378Y4278680D01*
X4660138Y4279392D01*
X4709972Y4279392D01*
X4713935Y4278579D01*
X4717237Y4276344D01*
X4719421Y4272991D01*
X4721148Y4268673D01*
X4728159Y4255922D01*
X4736693Y4244136D01*
X4746650Y4233519D01*
X4757877Y4224223D01*
X4770170Y4216450D01*
X4783328Y4210253D01*
X4797196Y4205732D01*
X4811471Y4203039D01*
X4826000Y4202125D01*
X4840528Y4203039D01*
X4854803Y4205732D01*
X4868672Y4210253D01*
X4881829Y4216450D01*
X4894122Y4224223D01*
X4905349Y4233519D01*
X4915306Y4244136D01*
X4923840Y4255922D01*
X4930851Y4268673D01*
X4936236Y4282186D01*
X4939842Y4296308D01*
X4941671Y4310735D01*
X4941671Y4325264D01*
X4939842Y4339691D01*
X4936236Y4353814D01*
X4930851Y4367326D01*
X4923840Y4380077D01*
X4915306Y4391863D01*
X4905349Y4402480D01*
X4894122Y4411776D01*
X4881829Y4419549D01*
X4868672Y4425746D01*
X4854803Y4430268D01*
X4840528Y4432960D01*
X4826000Y4433874D01*
X4811471Y4432960D01*
X4797196Y4430268D01*
X4783328Y4425746D01*
X4770170Y4419549D01*
X4757877Y4411776D01*
X4746650Y4402480D01*
X4736693Y4391863D01*
X4728159Y4380077D01*
X4721148Y4367326D01*
X4719421Y4363008D01*
X4717237Y4359656D01*
X4713935Y4357420D01*
X4709972Y4356608D01*
X4660290Y4356608D01*
X4656785Y4357268D01*
X4653686Y4359097D01*
X4651400Y4361891D01*
X4645355Y4372914D01*
X4637278Y4383887D01*
X4627778Y4393692D01*
X4617059Y4402175D01*
X4605324Y4409135D01*
X4592777Y4414418D01*
X4579620Y4418025D01*
X4566107Y4419854D01*
X4552492Y4419854D01*
X4538980Y4418025D01*
X4525822Y4414418D01*
X4513275Y4409135D01*
X4501540Y4402175D01*
X4490821Y4393692D01*
X4481322Y4383887D01*
X4473244Y4372914D01*
X4466691Y4360976D01*
X4461814Y4348226D01*
X4458614Y4334967D01*
X4457293Y4321403D01*
X4457750Y4307789D01*
X4459986Y4294327D01*
X4463135Y4284116D01*
X4463592Y4280509D01*
X4462729Y4276953D01*
X4460646Y4273956D01*
X4419295Y4232605D01*
X4415993Y4230370D01*
X4412081Y4229608D01*
X4301286Y4229608D01*
X4297273Y4230420D01*
X4293971Y4232757D01*
X4291787Y4236212D01*
X4291126Y4240225D01*
X4292142Y4244136D01*
X4303826Y4257751D01*
X4310989Y4268520D01*
X4316730Y4280103D01*
X4320895Y4292396D01*
X4323435Y4305300D01*
X4219702Y4305300D01*
X4219702Y4239768D01*
X4218940Y4235856D01*
X4216704Y4232605D01*
X4213402Y4230370D01*
X4209542Y4229608D01*
X4204462Y4229608D01*
X4200550Y4230370D01*
X4197299Y4232605D01*
X4195064Y4235856D01*
X4194301Y4239768D01*
X4194301Y4305300D01*
X4090568Y4305300D01*
X4093108Y4292396D01*
X4097274Y4280103D01*
X4103014Y4268520D01*
X4110177Y4257751D01*
X4121861Y4244136D01*
X4122877Y4240225D01*
X4122216Y4236212D01*
X4120032Y4232757D01*
X4116679Y4230420D01*
X4112717Y4229608D01*
X3507282Y4229608D01*
X3503320Y4230420D01*
X3499967Y4232757D01*
X3497783Y4236212D01*
X3497122Y4240225D01*
X3498138Y4244136D01*
X3509822Y4257751D01*
X3516985Y4268520D01*
X3522726Y4280103D01*
X3526891Y4292396D01*
X3529431Y4305300D01*
X3425698Y4305300D01*
X3425698Y4239768D01*
X3424936Y4235856D01*
X3422700Y4232605D01*
X3419449Y4230370D01*
X3415537Y4229608D01*
X3410458Y4229608D01*
X3406597Y4230370D01*
X3403295Y4232605D01*
X3401060Y4235856D01*
X3400298Y4239768D01*
X3400298Y4305300D01*
X3296564Y4305300D01*
X3299104Y4292396D01*
X3303270Y4280103D01*
X3309010Y4268520D01*
X3316173Y4257751D01*
X3327857Y4244136D01*
X3328873Y4240225D01*
X3328212Y4236212D01*
X3326028Y4232757D01*
X3322726Y4230420D01*
X3318713Y4229608D01*
X2904286Y4229608D01*
X2900273Y4230420D01*
X2896971Y4232757D01*
X2894787Y4236212D01*
X2894126Y4240225D01*
X2895142Y4244136D01*
X2906826Y4257751D01*
X2910027Y4262577D01*
X2912313Y4265015D01*
X2915208Y4266539D01*
X2918510Y4267098D01*
X3022092Y4267098D01*
X3026410Y4266133D01*
X3028746Y4265066D01*
X3038195Y4262526D01*
X3048000Y4261662D01*
X3057804Y4262526D01*
X3067253Y4265066D01*
X3076194Y4269181D01*
X3084220Y4274820D01*
X3091180Y4281779D01*
X3096818Y4289806D01*
X3100933Y4298746D01*
X3103473Y4308195D01*
X3104337Y4318000D01*
X3103473Y4327804D01*
X3100933Y4337253D01*
X3096818Y4346194D01*
X3091180Y4354220D01*
X3084220Y4361180D01*
X3076194Y4366818D01*
X3067253Y4370933D01*
X3057804Y4373473D01*
X3048000Y4374337D01*
X3038195Y4373473D01*
X3028746Y4370933D01*
X3026410Y4369866D01*
X3022092Y4368901D01*
X2918460Y4368901D01*
X2915208Y4369460D01*
X2912313Y4370984D01*
X2910027Y4373422D01*
X2906826Y4378248D01*
X2895142Y4391863D01*
X2894126Y4395774D01*
X2894787Y4399788D01*
X2896920Y4403242D01*
X2900273Y4405579D01*
X2904286Y4406392D01*
X3318713Y4406392D01*
X3322726Y4405579D01*
X3326079Y4403242D01*
X3328212Y4399788D01*
X3328873Y4395774D01*
X3327857Y4391863D01*
X3316173Y4378248D01*
X3309010Y4367479D01*
X3303270Y4355896D01*
X3299104Y4343603D01*
X3296564Y4330700D01*
X3400298Y4330700D01*
X3400298Y4396232D01*
X3401060Y4400143D01*
X3403295Y4403394D01*
X3406597Y4405630D01*
X3410458Y4406392D01*
X3415537Y4406392D01*
X3419449Y4405630D01*
X3422700Y4403394D01*
X3424936Y4400143D01*
X3425698Y4396232D01*
X3425698Y4330700D01*
X3529431Y4330700D01*
X3526891Y4343603D01*
X3522726Y4355896D01*
X3516985Y4367479D01*
X3509822Y4378248D01*
X3498138Y4391863D01*
X3497122Y4395774D01*
X3497783Y4399788D01*
X3499967Y4403242D01*
X3503269Y4405579D01*
X3507282Y4406392D01*
X3726891Y4406392D01*
X3730802Y4405630D01*
X3734104Y4403394D01*
X3735679Y4401820D01*
X3743706Y4396181D01*
X3752646Y4392066D01*
X3762095Y4389526D01*
X3771900Y4388662D01*
X3781704Y4389526D01*
X3791153Y4392066D01*
X3800094Y4396181D01*
X3808120Y4401820D01*
X3815079Y4408779D01*
X3820718Y4416806D01*
X3824833Y4425746D01*
X3827373Y4435195D01*
X3828237Y4445000D01*
X3827373Y4454804D01*
X3824833Y4464253D01*
X3820718Y4473194D01*
X3815079Y4481220D01*
X3808120Y4488180D01*
X3800094Y4493818D01*
X3791153Y4497933D01*
X3781704Y4500473D01*
X3771900Y4501337D01*
X3762095Y4500473D01*
X3752646Y4497933D01*
X3743706Y4493818D01*
X3735679Y4488180D01*
X3734104Y4486605D01*
X3730802Y4484370D01*
X3726891Y4483608D01*
X3507282Y4483608D01*
X3503320Y4484420D01*
X3499967Y4486757D01*
X3497783Y4490212D01*
X3497122Y4494225D01*
X3498138Y4498136D01*
X3509822Y4511751D01*
X3516985Y4522520D01*
X3522726Y4534103D01*
X3526891Y4546396D01*
X3529431Y4559300D01*
X3425698Y4559300D01*
X3425698Y4493768D01*
X3424936Y4489856D01*
X3422700Y4486605D01*
X3419449Y4484370D01*
X3415537Y4483608D01*
X3410458Y4483608D01*
X3406597Y4484370D01*
X3403295Y4486605D01*
X3401060Y4489856D01*
X3400298Y4493768D01*
X3400298Y4559300D01*
X3296564Y4559300D01*
X3299104Y4546396D01*
X3303270Y4534103D01*
X3309010Y4522520D01*
X3316173Y4511751D01*
X3327857Y4498136D01*
X3328873Y4494225D01*
X3328212Y4490212D01*
X3326028Y4486757D01*
X3322726Y4484420D01*
X3318713Y4483608D01*
X1091488Y4483608D01*
X1087424Y4484420D01*
X1084072Y4486808D01*
X1081938Y4490313D01*
X1081328Y4494377D01*
X1081989Y4505198D01*
X1081074Y4520387D01*
X1078331Y4535322D01*
X1073810Y4549851D01*
X1067562Y4563668D01*
X1059688Y4576724D01*
X1050340Y4588662D01*
X1039571Y4599432D01*
X1027582Y4608779D01*
X1014577Y4616653D01*
X1000658Y4622901D01*
X997508Y4625136D01*
X995426Y4628388D01*
X994664Y4632198D01*
X995426Y4636008D01*
X997508Y4639208D01*
X1000658Y4641443D01*
X1014577Y4647742D01*
X1027582Y4655566D01*
X1030986Y4658207D01*
X1033932Y4659833D01*
X1037234Y4660392D01*
X3318713Y4660392D01*
X3322726Y4659579D01*
X3326079Y4657242D01*
X3328212Y4653788D01*
X3328873Y4649774D01*
X3327857Y4645863D01*
X3316173Y4632248D01*
X3309010Y4621479D01*
X3303270Y4609896D01*
X3299104Y4597603D01*
X3296564Y4584700D01*
X3400298Y4584700D01*
X3400298Y4650232D01*
X3401060Y4654143D01*
X3403295Y4657394D01*
X3406597Y4659630D01*
X3410458Y4660392D01*
X3415537Y4660392D01*
X3419449Y4659630D01*
X3422700Y4657394D01*
X3424936Y4654143D01*
X3425698Y4650232D01*
X3425698Y4584700D01*
X3529431Y4584700D01*
X3526891Y4597603D01*
X3522726Y4609896D01*
X3516985Y4621479D01*
X3509822Y4632248D01*
X3498138Y4645863D01*
X3497122Y4649774D01*
X3497783Y4653788D01*
X3499967Y4657242D01*
X3503269Y4659579D01*
X3507282Y4660392D01*
X3663391Y4660392D01*
X3667302Y4659630D01*
X3670604Y4657394D01*
X3672179Y4655820D01*
X3680206Y4650181D01*
X3689146Y4646066D01*
X3698595Y4643526D01*
X3708400Y4642662D01*
X3718204Y4643526D01*
X3727653Y4646066D01*
X3736594Y4650181D01*
X3744620Y4655820D01*
X3751579Y4662779D01*
X3757218Y4670806D01*
X3761333Y4679746D01*
X3763873Y4689195D01*
X3764737Y4699000D01*
X3763873Y4708804D01*
X3761333Y4718253D01*
X3757218Y4727194D01*
X3751579Y4735220D01*
X3744620Y4742180D01*
X3736594Y4747818D01*
X3727653Y4751933D01*
X3718204Y4754473D01*
X3708400Y4755337D01*
X3698595Y4754473D01*
X3689146Y4751933D01*
X3680206Y4747818D01*
X3672179Y4742180D01*
X3670604Y4740605D01*
X3667302Y4738370D01*
X3663391Y4737608D01*
X3507282Y4737608D01*
X3503320Y4738420D01*
X3499967Y4740757D01*
X3497783Y4744212D01*
X3497122Y4748225D01*
X3498138Y4752136D01*
X3509822Y4765751D01*
X3516985Y4776520D01*
X3522726Y4788103D01*
X3526891Y4800396D01*
X3529431Y4813300D01*
X3425698Y4813300D01*
X3425698Y4747768D01*
X3424936Y4743856D01*
X3422700Y4740605D01*
X3419449Y4738370D01*
X3415537Y4737608D01*
X3410458Y4737608D01*
X3406597Y4738370D01*
X3403295Y4740605D01*
X3401060Y4743856D01*
X3400298Y4747768D01*
X3400298Y4813300D01*
X3296564Y4813300D01*
X3299104Y4800396D01*
X3303270Y4788103D01*
X3309010Y4776520D01*
X3316173Y4765751D01*
X3327857Y4752136D01*
X3328873Y4748225D01*
X3328212Y4744212D01*
X3326028Y4740757D01*
X3322726Y4738420D01*
X3318713Y4737608D01*
X2879445Y4737608D01*
X2875686Y4738319D01*
X2872435Y4740452D01*
X2870200Y4743551D01*
X2869285Y4747310D01*
X2869844Y4751120D01*
X2871825Y4754473D01*
X2878023Y4761534D01*
X2885694Y4773066D01*
X2891840Y4785461D01*
X2896311Y4798568D01*
X2899003Y4812182D01*
X2899918Y4826000D01*
X2899003Y4839817D01*
X2896311Y4853432D01*
X2891840Y4866538D01*
X2885694Y4878933D01*
X2878023Y4890465D01*
X2871825Y4897526D01*
X2869844Y4900879D01*
X2869285Y4904689D01*
X2870200Y4908448D01*
X2872435Y4911547D01*
X2875686Y4913680D01*
X2879445Y4914392D01*
X3318713Y4914392D01*
X3322726Y4913579D01*
X3326079Y4911242D01*
X3328212Y4907788D01*
X3328873Y4903774D01*
X3327857Y4899863D01*
X3316173Y4886248D01*
X3309010Y4875479D01*
X3303270Y4863896D01*
X3299104Y4851603D01*
X3296564Y4838700D01*
X3400298Y4838700D01*
X3400298Y4904232D01*
X3401060Y4908143D01*
X3403295Y4911394D01*
X3406597Y4913630D01*
X3410458Y4914392D01*
X3415537Y4914392D01*
X3419449Y4913630D01*
X3422700Y4911394D01*
X3424936Y4908143D01*
X3425698Y4904232D01*
X3425698Y4838700D01*
X3529431Y4838700D01*
X3526891Y4851603D01*
X3522726Y4863896D01*
X3516985Y4875479D01*
X3509822Y4886248D01*
X3498138Y4899863D01*
X3497122Y4903774D01*
X3497783Y4907788D01*
X3499967Y4911242D01*
X3503269Y4913579D01*
X3507282Y4914392D01*
X3599891Y4914392D01*
X3603802Y4913630D01*
X3607104Y4911394D01*
X3608679Y4909820D01*
X3616706Y4904181D01*
X3625646Y4900066D01*
X3635095Y4897526D01*
X3644900Y4896662D01*
X3654704Y4897526D01*
X3664153Y4900066D01*
X3673094Y4904181D01*
X3681120Y4909820D01*
X3688079Y4916779D01*
X3693718Y4924806D01*
X3697833Y4933746D01*
X3700373Y4943195D01*
X3701237Y4953000D01*
X3700373Y4962804D01*
X3697833Y4972253D01*
X3693718Y4981194D01*
X3688079Y4989220D01*
X3681120Y4996180D01*
X3673094Y5001818D01*
X3664153Y5005933D01*
X3654704Y5008473D01*
X3644900Y5009337D01*
X3635095Y5008473D01*
X3625646Y5005933D01*
X3616706Y5001818D01*
X3608679Y4996180D01*
X3607104Y4994605D01*
X3603802Y4992370D01*
X3599891Y4991608D01*
X2879445Y4991608D01*
X2875686Y4992319D01*
X2872435Y4994452D01*
X2870200Y4997551D01*
X2869285Y5001310D01*
X2869844Y5005120D01*
X2871825Y5008473D01*
X2878023Y5015534D01*
X2885694Y5027066D01*
X2891840Y5039461D01*
X2896311Y5052568D01*
X2899003Y5066182D01*
X2899918Y5080000D01*
X2899003Y5093817D01*
X2896311Y5107432D01*
X2891840Y5120538D01*
X2885694Y5132933D01*
X2878023Y5144465D01*
X2871825Y5151526D01*
X2869844Y5154879D01*
X2869285Y5158689D01*
X2870200Y5162448D01*
X2872435Y5165547D01*
X2875686Y5167680D01*
X2879445Y5168392D01*
X2995168Y5168392D01*
X2999486Y5167426D01*
X3002940Y5164785D01*
X3004972Y5160873D01*
X3005175Y5156454D01*
X3003499Y5152390D01*
X2999181Y5146294D01*
X2995066Y5137353D01*
X2992526Y5127904D01*
X2991662Y5118100D01*
X2992526Y5108295D01*
X2995066Y5098846D01*
X2999181Y5089906D01*
X3004820Y5081879D01*
X3011779Y5074920D01*
X3019806Y5069281D01*
X3028746Y5065166D01*
X3038195Y5062626D01*
X3048000Y5061762D01*
X3057804Y5062626D01*
X3067253Y5065166D01*
X3069590Y5066233D01*
X3073908Y5067198D01*
X4181094Y5067198D01*
X4185412Y5066233D01*
X4187748Y5065166D01*
X4197197Y5062626D01*
X4207002Y5061762D01*
X4216806Y5062626D01*
X4226255Y5065166D01*
X4228592Y5066233D01*
X4232910Y5067198D01*
X5562092Y5067198D01*
X5566410Y5066233D01*
X5568746Y5065166D01*
X5578195Y5062626D01*
X5588000Y5061762D01*
X5597804Y5062626D01*
X5607253Y5065166D01*
X5616194Y5069281D01*
X5624220Y5074920D01*
X5631180Y5081879D01*
X5636818Y5089906D01*
X5640933Y5098846D01*
X5643473Y5108295D01*
X5644337Y5118100D01*
X5643473Y5127904D01*
X5640933Y5137353D01*
X5636818Y5146294D01*
X5631180Y5154320D01*
X5624220Y5161280D01*
X5616194Y5166918D01*
X5607253Y5171033D01*
X5597804Y5173573D01*
X5588000Y5174437D01*
X5578195Y5173573D01*
X5568746Y5171033D01*
X5566410Y5169966D01*
X5562092Y5169001D01*
X5508955Y5169001D01*
X5504738Y5169916D01*
X5501284Y5172506D01*
X5499252Y5176266D01*
X5498896Y5180584D01*
X5500420Y5184648D01*
X5503468Y5187696D01*
X5507482Y5189220D01*
X5512714Y5189982D01*
X5535218Y5195265D01*
X5557164Y5202428D01*
X5578500Y5211368D01*
X5598972Y5222087D01*
X5618480Y5234432D01*
X5636869Y5248402D01*
X5654040Y5263896D01*
X5669838Y5280710D01*
X5684215Y5298846D01*
X5697016Y5318099D01*
X5708142Y5338318D01*
X5717540Y5359450D01*
X5725109Y5381244D01*
X5730849Y5403646D01*
X5734710Y5426405D01*
X5736590Y5448300D01*
X5473700Y5448300D01*
X5473700Y5179161D01*
X5472938Y5175300D01*
X5470753Y5171998D01*
X5467451Y5169763D01*
X5463540Y5169001D01*
X5458460Y5169001D01*
X5454599Y5169763D01*
X5451297Y5171998D01*
X5449062Y5175300D01*
X5448300Y5179161D01*
X5448300Y5448300D01*
X5185664Y5448300D01*
X5186070Y5437936D01*
X5188966Y5414975D01*
X5193792Y5392369D01*
X5200446Y5370271D01*
X5208981Y5348782D01*
X5219242Y5328107D01*
X5231180Y5308295D01*
X5244795Y5289600D01*
X5259882Y5272125D01*
X5276392Y5255971D01*
X5294172Y5241239D01*
X5313172Y5228031D01*
X5333187Y5216499D01*
X5354066Y5206644D01*
X5375757Y5198618D01*
X5398008Y5192369D01*
X5415026Y5189169D01*
X5418937Y5187492D01*
X5421833Y5184394D01*
X5423204Y5180330D01*
X5422798Y5176113D01*
X5420715Y5172405D01*
X5417261Y5169916D01*
X5413095Y5169001D01*
X4232910Y5169001D01*
X4228592Y5169966D01*
X4226255Y5171033D01*
X4216806Y5173573D01*
X4207002Y5174437D01*
X4197197Y5173573D01*
X4187748Y5171033D01*
X4185412Y5169966D01*
X4181094Y5169001D01*
X3641547Y5169001D01*
X3637584Y5169814D01*
X3634282Y5172100D01*
X3632098Y5175504D01*
X3631437Y5179517D01*
X3632352Y5183479D01*
X3634333Y5187746D01*
X3636873Y5197195D01*
X3637737Y5207000D01*
X3636873Y5216804D01*
X3634333Y5226253D01*
X3630218Y5235194D01*
X3624579Y5243220D01*
X3617620Y5250180D01*
X3609594Y5255818D01*
X3600653Y5259933D01*
X3591204Y5262473D01*
X3581400Y5263337D01*
X3571595Y5262473D01*
X3562146Y5259933D01*
X3553206Y5255818D01*
X3545179Y5250180D01*
X3543604Y5248605D01*
X3540302Y5246370D01*
X3536391Y5245608D01*
X2879445Y5245608D01*
X2875686Y5246319D01*
X2872435Y5248452D01*
X2870200Y5251551D01*
X2869285Y5255310D01*
X2869844Y5259120D01*
X2871825Y5262473D01*
X2878023Y5269534D01*
X2885694Y5281066D01*
X2891840Y5293461D01*
X2896311Y5306568D01*
X2899003Y5320182D01*
X2899054Y5321300D01*
X2806700Y5321300D01*
X2806700Y5255768D01*
X2805938Y5251856D01*
X2803702Y5248605D01*
X2800451Y5246370D01*
X2796540Y5245608D01*
X2791460Y5245608D01*
X2787548Y5246370D01*
X2784297Y5248605D01*
X2782062Y5251856D01*
X2781300Y5255768D01*
X2781300Y5321300D01*
X2688945Y5321300D01*
X2688996Y5320182D01*
X2691688Y5306568D01*
X2696159Y5293461D01*
X2702306Y5281066D01*
X2709976Y5269534D01*
X2716174Y5262473D01*
X2718155Y5259120D01*
X2718714Y5255310D01*
X2717800Y5251551D01*
X2715564Y5248452D01*
X2712313Y5246319D01*
X2708554Y5245608D01*
X2117445Y5245608D01*
X2113686Y5246319D01*
X2110435Y5248452D01*
X2108200Y5251551D01*
X2107285Y5255310D01*
X2107844Y5259120D01*
X2109825Y5262473D01*
X2116023Y5269534D01*
X2123694Y5281066D01*
X2129840Y5293461D01*
X2134311Y5306568D01*
X2137003Y5320182D01*
X2137054Y5321300D01*
X2044700Y5321300D01*
X2044700Y5255768D01*
X2043938Y5251856D01*
X2041702Y5248605D01*
X2038451Y5246370D01*
X2034539Y5245608D01*
X2029460Y5245608D01*
X2025548Y5246370D01*
X2022297Y5248605D01*
X2020062Y5251856D01*
X2019300Y5255768D01*
X2019300Y5321300D01*
X1926945Y5321300D01*
X1926996Y5320182D01*
X1929688Y5306568D01*
X1934159Y5293461D01*
X1940306Y5281066D01*
X1947976Y5269534D01*
X1954174Y5262473D01*
X1956155Y5259120D01*
X1956714Y5255310D01*
X1955800Y5251551D01*
X1953564Y5248452D01*
X1950313Y5246319D01*
X1946554Y5245608D01*
X1091488Y5245608D01*
X1087424Y5246420D01*
X1084072Y5248808D01*
X1081938Y5252313D01*
X1081328Y5256377D01*
X1081989Y5267198D01*
X1081074Y5282387D01*
X1078331Y5297322D01*
X1073810Y5311851D01*
X1067562Y5325668D01*
X1059688Y5338724D01*
X1050340Y5350662D01*
X1039571Y5361432D01*
X1027582Y5370779D01*
X1014577Y5378653D01*
X1000709Y5384901D01*
X986231Y5389422D01*
X971245Y5392166D01*
X956106Y5393080D01*
X940917Y5392166D01*
X925982Y5389422D01*
X911453Y5384901D01*
X897585Y5378653D01*
X884580Y5370779D01*
X872591Y5361432D01*
X861872Y5350662D01*
X852474Y5338724D01*
X844600Y5325668D01*
X838403Y5311851D01*
X833882Y5297322D01*
X831138Y5282387D01*
X830224Y5267198D01*
X831138Y5252008D01*
X833882Y5237073D01*
X838403Y5222544D01*
X844600Y5208676D01*
X852474Y5195671D01*
X861872Y5183733D01*
X872591Y5172964D01*
X884580Y5163566D01*
X897585Y5155742D01*
X911504Y5149443D01*
X914653Y5147208D01*
X916787Y5144008D01*
X917498Y5140198D01*
X916787Y5136388D01*
X914653Y5133136D01*
X911504Y5130901D01*
X897585Y5124653D01*
X884580Y5116779D01*
X872591Y5107432D01*
X861872Y5096662D01*
X852474Y5084724D01*
X844600Y5071668D01*
X838403Y5057851D01*
X833882Y5043322D01*
X831138Y5028387D01*
X830224Y5013198D01*
X831138Y4998008D01*
X833882Y4983073D01*
X838403Y4968544D01*
X844600Y4954676D01*
X852474Y4941671D01*
X861872Y4929733D01*
X872591Y4918964D01*
X884580Y4909566D01*
X897585Y4901742D01*
X911504Y4895443D01*
X914653Y4893208D01*
X916787Y4890008D01*
X917498Y4886198D01*
X916787Y4882388D01*
X914653Y4879136D01*
X911504Y4876901D01*
X897585Y4870653D01*
X884580Y4862779D01*
X872591Y4853432D01*
X861872Y4842662D01*
X852474Y4830724D01*
X844600Y4817668D01*
X838403Y4803851D01*
X833882Y4789322D01*
X831138Y4774387D01*
X830224Y4759198D01*
X831138Y4744008D01*
X833882Y4729073D01*
X838403Y4714544D01*
X844600Y4700676D01*
X852474Y4687671D01*
X861872Y4675733D01*
X872591Y4664964D01*
X884580Y4655566D01*
X897585Y4647742D01*
X911504Y4641443D01*
X914653Y4639208D01*
X916787Y4636008D01*
X917498Y4632198D01*
X916787Y4628388D01*
X914653Y4625136D01*
X911504Y4622901D01*
X897585Y4616653D01*
X884580Y4608779D01*
X872591Y4599432D01*
X861872Y4588662D01*
X852474Y4576724D01*
X844600Y4563668D01*
X838403Y4549851D01*
X833882Y4535322D01*
X831138Y4520387D01*
X830224Y4505198D01*
X831138Y4490008D01*
X833882Y4475073D01*
X838403Y4460544D01*
X844600Y4446676D01*
X852474Y4433671D01*
X861872Y4421733D01*
X872591Y4410964D01*
X884580Y4401566D01*
X897585Y4393742D01*
X911504Y4387443D01*
X914653Y4385208D01*
X916787Y4382008D01*
X917498Y4378198D01*
X916787Y4374388D01*
X914653Y4371136D01*
X911504Y4368901D01*
X897585Y4362653D01*
X884580Y4354779D01*
X872591Y4345432D01*
X861872Y4334662D01*
X852474Y4322724D01*
X844600Y4309668D01*
X838403Y4295851D01*
X833882Y4281322D01*
X831138Y4266387D01*
X830224Y4251198D01*
X831138Y4236008D01*
X833882Y4221073D01*
X838403Y4206544D01*
X844600Y4192676D01*
X852474Y4179671D01*
X861872Y4167733D01*
X872591Y4156964D01*
X884580Y4147565D01*
X897585Y4139742D01*
X911504Y4133443D01*
X914653Y4131208D01*
X916787Y4128008D01*
X917498Y4124198D01*
X916787Y4120387D01*
X914653Y4117136D01*
X911504Y4114901D01*
X897585Y4108653D01*
X884580Y4100779D01*
X872591Y4091432D01*
X861872Y4080662D01*
X852474Y4068724D01*
X844600Y4055668D01*
X838403Y4041851D01*
X833882Y4027322D01*
X831138Y4012387D01*
X830224Y3997198D01*
X831138Y3982008D01*
X833882Y3967073D01*
X838403Y3952544D01*
X844600Y3938676D01*
X852474Y3925671D01*
X861872Y3913733D01*
X872591Y3902964D01*
X884580Y3893565D01*
X897585Y3885742D01*
X911504Y3879443D01*
X914653Y3877208D01*
X916787Y3874008D01*
X917498Y3870198D01*
X916787Y3866387D01*
X914653Y3863136D01*
X911504Y3860901D01*
X897585Y3854653D01*
X884580Y3846779D01*
X872591Y3837432D01*
X861872Y3826662D01*
X852474Y3814724D01*
X844600Y3801668D01*
X838403Y3787851D01*
X833882Y3773322D01*
X831138Y3758387D01*
X830224Y3743198D01*
X831138Y3728008D01*
X833882Y3713073D01*
X838403Y3698544D01*
X844600Y3684676D01*
X852474Y3671671D01*
X861872Y3659733D01*
X872591Y3648964D01*
X884580Y3639565D01*
X897585Y3631742D01*
X911504Y3625443D01*
X914653Y3623208D01*
X916787Y3620008D01*
X917498Y3616198D01*
X916787Y3612387D01*
X914653Y3609136D01*
X911504Y3606901D01*
X897585Y3600653D01*
X884580Y3592779D01*
X872591Y3583432D01*
X861872Y3572662D01*
X852474Y3560724D01*
X844600Y3547668D01*
X838403Y3533851D01*
X833882Y3519322D01*
X831138Y3504387D01*
X830224Y3489198D01*
X831138Y3474008D01*
X833882Y3459073D01*
X838403Y3444544D01*
X844600Y3430676D01*
X852474Y3417671D01*
X861872Y3405733D01*
X872591Y3394964D01*
X884580Y3385565D01*
X897585Y3377742D01*
X911453Y3371494D01*
X925982Y3366973D01*
X940917Y3364229D01*
X956106Y3363315D01*
X971245Y3364229D01*
X986231Y3366973D01*
X1000709Y3371494D01*
X1014577Y3377742D01*
X1027582Y3385565D01*
X1039571Y3394964D01*
X1050340Y3405733D01*
X1059688Y3417671D01*
X1067562Y3430676D01*
X1073810Y3444544D01*
X1074470Y3446729D01*
X1076604Y3450488D01*
X1080008Y3452977D01*
X1084173Y3453892D01*
X1453591Y3453892D01*
X1457502Y3453129D01*
X1460804Y3450894D01*
X1462379Y3449320D01*
X1470406Y3443681D01*
X1479346Y3439566D01*
X1488795Y3437026D01*
X1498600Y3436162D01*
X1508404Y3437026D01*
X1517853Y3439566D01*
X1526794Y3443681D01*
X1534820Y3449320D01*
X1541780Y3456279D01*
X1547418Y3464306D01*
X1551533Y3473246D01*
X1554073Y3482695D01*
X1554937Y3492500D01*
X1554073Y3502304D01*
X1551533Y3511753D01*
X1547418Y3520694D01*
X1541780Y3528720D01*
X1534820Y3535679D01*
X1526794Y3541318D01*
X1517853Y3545433D01*
X1508404Y3547973D01*
X1498600Y3548837D01*
X1488795Y3547973D01*
X1479346Y3545433D01*
X1470406Y3541318D01*
X1462379Y3535679D01*
X1460804Y3534105D01*
X1457502Y3531870D01*
X1453591Y3531108D01*
X1081582Y3531108D01*
X1077823Y3531819D01*
X1074572Y3533952D01*
X1072337Y3537102D01*
X1067562Y3547668D01*
X1059688Y3560724D01*
X1050340Y3572662D01*
X1039571Y3583432D01*
X1027582Y3592779D01*
X1014577Y3600653D01*
X1000658Y3606901D01*
X997508Y3609136D01*
X995426Y3612387D01*
X994664Y3616198D01*
X995426Y3620008D01*
X997508Y3623208D01*
X1000658Y3625443D01*
X1014577Y3631742D01*
X1027582Y3639565D01*
X1039571Y3648964D01*
X1050340Y3659733D01*
X1059688Y3671671D01*
X1067562Y3684676D01*
X1073810Y3698544D01*
X1074470Y3700729D01*
X1076604Y3704488D01*
X1080008Y3706977D01*
X1084173Y3707892D01*
X1306931Y3707892D01*
X1310538Y3707231D01*
X1313688Y3705301D01*
X1315974Y3702354D01*
X1317040Y3698798D01*
X1316736Y3695090D01*
X1316126Y3692804D01*
X1315262Y3683000D01*
X1316126Y3673195D01*
X1318666Y3663746D01*
X1322781Y3654806D01*
X1328420Y3646779D01*
X1335379Y3639820D01*
X1343406Y3634181D01*
X1352346Y3630066D01*
X1361795Y3627526D01*
X1371600Y3626662D01*
X1381404Y3627526D01*
X1390853Y3630066D01*
X1399794Y3634181D01*
X1407820Y3639820D01*
X1409395Y3641394D01*
X1412697Y3643629D01*
X1416608Y3644392D01*
X1921713Y3644392D01*
X1925726Y3643579D01*
X1929079Y3641242D01*
X1931212Y3637787D01*
X1931873Y3633774D01*
X1930857Y3629863D01*
X1919173Y3616248D01*
X1912010Y3605479D01*
X1906270Y3593896D01*
X1902104Y3581603D01*
X1899564Y3568903D01*
X1898751Y3556000D01*
X1899564Y3543096D01*
X1902104Y3530396D01*
X1906270Y3518103D01*
X1912010Y3506520D01*
X1919173Y3495751D01*
X1927707Y3485997D01*
X1937461Y3477463D01*
X1948230Y3470300D01*
X1959864Y3464560D01*
X1972106Y3460394D01*
X1984806Y3457854D01*
X1998065Y3456990D01*
X2033930Y3456990D01*
X2047189Y3457854D01*
X2059889Y3460394D01*
X2072132Y3464560D01*
X2083765Y3470300D01*
X2094534Y3477463D01*
X2104288Y3485997D01*
X2112822Y3495751D01*
X2119985Y3506520D01*
X2122576Y3511702D01*
X2124811Y3514699D01*
X2128012Y3516680D01*
X2131669Y3517392D01*
X2412492Y3517392D01*
X2420518Y3518204D01*
X2427732Y3520389D01*
X2434437Y3523945D01*
X2440635Y3529076D01*
X2553004Y3641394D01*
X2556306Y3643629D01*
X2560218Y3644392D01*
X2715717Y3644392D01*
X2719730Y3643579D01*
X2723032Y3641242D01*
X2725216Y3637787D01*
X2725877Y3633774D01*
X2724861Y3629863D01*
X2713177Y3616248D01*
X2706014Y3605479D01*
X2700274Y3593896D01*
X2696108Y3581603D01*
X2693568Y3568903D01*
X2692755Y3556000D01*
X2693568Y3543096D01*
X2696108Y3530396D01*
X2700274Y3518103D01*
X2706014Y3506520D01*
X2713177Y3495751D01*
X2721711Y3485997D01*
X2731465Y3477463D01*
X2742234Y3470300D01*
X2753868Y3464560D01*
X2766110Y3460394D01*
X2778810Y3457854D01*
X2792069Y3456990D01*
X2827934Y3456990D01*
X2833166Y3457346D01*
X2837434Y3456686D01*
X2841040Y3454400D01*
X2893364Y3402076D01*
X2895701Y3400145D01*
X2898190Y3396945D01*
X2901289Y3396030D01*
X2906268Y3393389D01*
X2913481Y3391204D01*
X2921508Y3390392D01*
X3318713Y3390392D01*
X3322726Y3389579D01*
X3326079Y3387242D01*
X3328212Y3383787D01*
X3328873Y3379774D01*
X3327857Y3375863D01*
X3316173Y3362248D01*
X3309010Y3351479D01*
X3306419Y3346297D01*
X3304184Y3343300D01*
X3300984Y3341319D01*
X3297326Y3340608D01*
X3093008Y3340608D01*
X3089097Y3341370D01*
X3085795Y3343605D01*
X3084220Y3345179D01*
X3076194Y3350818D01*
X3067253Y3354933D01*
X3057804Y3357473D01*
X3048000Y3358337D01*
X3038195Y3357473D01*
X3028746Y3354933D01*
X3019806Y3350818D01*
X3011779Y3345179D01*
X3004820Y3338220D01*
X2999181Y3330194D01*
X2995066Y3321253D01*
X2992526Y3311804D01*
X2991662Y3302000D01*
X2992526Y3292195D01*
X2995066Y3282746D01*
X2999181Y3273806D01*
X3004820Y3265779D01*
X3011779Y3258820D01*
X3019806Y3253181D01*
X3028746Y3249066D01*
X3038195Y3246526D01*
X3048000Y3245662D01*
X3057804Y3246526D01*
X3067253Y3249066D01*
X3076194Y3253181D01*
X3084220Y3258820D01*
X3085795Y3260394D01*
X3089097Y3262629D01*
X3093008Y3263392D01*
X3297326Y3263392D01*
X3300984Y3262680D01*
X3304184Y3260699D01*
X3306419Y3257702D01*
X3309010Y3252520D01*
X3316173Y3241751D01*
X3327857Y3228136D01*
X3328873Y3224225D01*
X3328212Y3220212D01*
X3326079Y3216757D01*
X3322726Y3214420D01*
X3318713Y3213608D01*
X2904286Y3213608D01*
X2900273Y3214420D01*
X2896920Y3216757D01*
X2894787Y3220212D01*
X2894126Y3224225D01*
X2895142Y3228136D01*
X2906826Y3241751D01*
X2913989Y3252520D01*
X2919730Y3264103D01*
X2923895Y3276396D01*
X2926435Y3289096D01*
X2927248Y3302000D01*
X2926435Y3314903D01*
X2923895Y3327603D01*
X2919730Y3339896D01*
X2913989Y3351479D01*
X2906826Y3362248D01*
X2898292Y3372002D01*
X2889758Y3379419D01*
X2887675Y3382213D01*
X2883611Y3383838D01*
X2877769Y3387699D01*
X2866136Y3393440D01*
X2853893Y3397605D01*
X2841193Y3400145D01*
X2827934Y3401009D01*
X2792069Y3401009D01*
X2778810Y3400145D01*
X2766110Y3397605D01*
X2753868Y3393440D01*
X2742234Y3387699D01*
X2731465Y3380536D01*
X2721711Y3372002D01*
X2713177Y3362248D01*
X2706014Y3351479D01*
X2703423Y3346297D01*
X2701188Y3343300D01*
X2697988Y3341319D01*
X2694330Y3340608D01*
X2413508Y3340608D01*
X2405481Y3339795D01*
X2398268Y3337610D01*
X2391562Y3334054D01*
X2385364Y3328924D01*
X2272995Y3216605D01*
X2269693Y3214370D01*
X2265781Y3213608D01*
X2110282Y3213608D01*
X2106269Y3214420D01*
X2102967Y3216757D01*
X2100783Y3220212D01*
X2100122Y3224225D01*
X2101138Y3228136D01*
X2112822Y3241751D01*
X2119985Y3252520D01*
X2125726Y3264103D01*
X2129891Y3276396D01*
X2132431Y3289096D01*
X2133244Y3302000D01*
X2132431Y3314903D01*
X2129891Y3327603D01*
X2125726Y3339896D01*
X2119985Y3351479D01*
X2112822Y3362248D01*
X2104288Y3372002D01*
X2094534Y3380536D01*
X2083765Y3387699D01*
X2072132Y3393440D01*
X2059889Y3397605D01*
X2047189Y3400145D01*
X2033930Y3401009D01*
X1998065Y3401009D01*
X1984806Y3400145D01*
X1972106Y3397605D01*
X1959864Y3393440D01*
X1948230Y3387699D01*
X1937461Y3380536D01*
X1927707Y3372002D01*
X1919173Y3362248D01*
X1912010Y3351479D01*
X1909419Y3346297D01*
X1907184Y3343300D01*
X1903984Y3341319D01*
X1900326Y3340608D01*
X1480108Y3340608D01*
X1476197Y3341370D01*
X1472895Y3343605D01*
X1471320Y3345179D01*
X1463294Y3350818D01*
X1454353Y3354933D01*
X1444904Y3357473D01*
X1435100Y3358337D01*
X1425295Y3357473D01*
X1415846Y3354933D01*
X1406906Y3350818D01*
X1398879Y3345179D01*
X1391920Y3338220D01*
X1386281Y3330194D01*
X1382166Y3321253D01*
X1379626Y3311804D01*
X1378762Y3302000D01*
X1379626Y3292195D01*
X1382166Y3282746D01*
X1386281Y3273806D01*
X1391920Y3265779D01*
X1398879Y3258820D01*
X1406906Y3253181D01*
X1415846Y3249066D01*
X1425295Y3246526D01*
X1435100Y3245662D01*
X1444904Y3246526D01*
X1454353Y3249066D01*
X1463294Y3253181D01*
X1471320Y3258820D01*
X1472895Y3260394D01*
X1476197Y3262629D01*
X1480108Y3263392D01*
X1900326Y3263392D01*
X1903984Y3262680D01*
X1907184Y3260699D01*
X1909419Y3257702D01*
X1912010Y3252520D01*
X1919173Y3241751D01*
X1930857Y3228136D01*
X1931873Y3224225D01*
X1931212Y3220212D01*
X1929079Y3216757D01*
X1925726Y3214420D01*
X1921713Y3213608D01*
X1543608Y3213608D01*
X1539697Y3214370D01*
X1536395Y3216605D01*
X1534820Y3218180D01*
X1526794Y3223818D01*
X1517853Y3227933D01*
X1508404Y3230473D01*
X1498600Y3231337D01*
X1488795Y3230473D01*
X1479346Y3227933D01*
X1470406Y3223818D01*
X1462379Y3218180D01*
X1455420Y3211220D01*
X1449781Y3203194D01*
X1445666Y3194253D01*
X1443126Y3184804D01*
X1442262Y3175000D01*
X1443126Y3165195D01*
X1445666Y3155746D01*
X1449781Y3146806D01*
X1455420Y3138779D01*
X1462379Y3131820D01*
X1470406Y3126181D01*
X1479346Y3122066D01*
X1488795Y3119526D01*
X1498600Y3118662D01*
X1508404Y3119526D01*
X1517853Y3122066D01*
X1526794Y3126181D01*
X1534820Y3131820D01*
X1536395Y3133394D01*
X1539697Y3135630D01*
X1543608Y3136392D01*
X1921713Y3136392D01*
X1925726Y3135579D01*
X1929079Y3133242D01*
X1931212Y3129788D01*
X1931873Y3125774D01*
X1930857Y3121863D01*
X1919173Y3108248D01*
X1912010Y3097479D01*
X1906270Y3085896D01*
X1902104Y3073603D01*
X1899564Y3060903D01*
X1898751Y3048000D01*
X1899564Y3035096D01*
X1902104Y3022396D01*
X1906270Y3010103D01*
X1912010Y2998520D01*
X1919173Y2987751D01*
X1927707Y2977997D01*
X1937461Y2969463D01*
X1948230Y2962300D01*
X1959864Y2956560D01*
X1972106Y2952394D01*
X1984806Y2949854D01*
X1998065Y2948990D01*
X2033930Y2948990D01*
X2047189Y2949854D01*
X2059889Y2952394D01*
X2072132Y2956560D01*
X2083765Y2962300D01*
X2094534Y2969463D01*
X2104288Y2977997D01*
X2112822Y2987751D01*
X2119985Y2998520D01*
X2122576Y3003702D01*
X2124811Y3006699D01*
X2128012Y3008680D01*
X2131669Y3009392D01*
X2412492Y3009392D01*
X2420518Y3010204D01*
X2427732Y3012389D01*
X2434437Y3015945D01*
X2440635Y3021076D01*
X2553004Y3133394D01*
X2556306Y3135630D01*
X2560218Y3136392D01*
X2715717Y3136392D01*
X2719730Y3135579D01*
X2723032Y3133242D01*
X2725216Y3129788D01*
X2725877Y3125774D01*
X2724861Y3121863D01*
X2713177Y3108248D01*
X2706014Y3097479D01*
X2700274Y3085896D01*
X2696108Y3073603D01*
X2693568Y3060903D01*
X2692755Y3048000D01*
X2693568Y3035096D01*
X2696108Y3022396D01*
X2700274Y3010103D01*
X2706014Y2998520D01*
X2713177Y2987751D01*
X2721711Y2977997D01*
X2731465Y2969463D01*
X2742234Y2962300D01*
X2753868Y2956560D01*
X2766110Y2952394D01*
X2778810Y2949854D01*
X2792069Y2948990D01*
X2827934Y2948990D01*
X2841193Y2949854D01*
X2846171Y2950870D01*
X2849473Y2950972D01*
X2852623Y2950006D01*
X2855315Y2948076D01*
X2909366Y2894076D01*
X2915564Y2888945D01*
X2922270Y2885389D01*
X2929483Y2883204D01*
X2937510Y2882392D01*
X3318713Y2882392D01*
X3322726Y2881579D01*
X3326079Y2879242D01*
X3328212Y2875788D01*
X3328873Y2871774D01*
X3327857Y2867863D01*
X3316173Y2854248D01*
X3309010Y2843479D01*
X3303270Y2831896D01*
X3299104Y2819603D01*
X3296564Y2806903D01*
X3295751Y2794000D01*
X3296564Y2781096D01*
X3299104Y2768396D01*
X3303270Y2756103D01*
X3309010Y2744520D01*
X3316173Y2733751D01*
X3327857Y2720136D01*
X3328873Y2716225D01*
X3328212Y2712212D01*
X3326079Y2708757D01*
X3322726Y2706420D01*
X3318713Y2705608D01*
X2904286Y2705608D01*
X2900273Y2706420D01*
X2896920Y2708757D01*
X2894787Y2712212D01*
X2894126Y2716225D01*
X2895142Y2720136D01*
X2906826Y2733751D01*
X2913989Y2744520D01*
X2919730Y2756103D01*
X2923895Y2768396D01*
X2926435Y2781096D01*
X2927248Y2794000D01*
X2926435Y2806903D01*
X2923895Y2819603D01*
X2919730Y2831896D01*
X2913989Y2843479D01*
X2906826Y2854248D01*
X2898292Y2864002D01*
X2888538Y2872536D01*
X2877769Y2879699D01*
X2866136Y2885440D01*
X2853893Y2889605D01*
X2841193Y2892145D01*
X2827934Y2893009D01*
X2792069Y2893009D01*
X2778810Y2892145D01*
X2766110Y2889605D01*
X2753868Y2885440D01*
X2742234Y2879699D01*
X2731465Y2872536D01*
X2721711Y2864002D01*
X2713177Y2854248D01*
X2706014Y2843479D01*
X2703423Y2838297D01*
X2701188Y2835300D01*
X2697988Y2833319D01*
X2694330Y2832608D01*
X2413508Y2832608D01*
X2405481Y2831795D01*
X2398268Y2829610D01*
X2391562Y2826054D01*
X2385364Y2820924D01*
X2272995Y2708605D01*
X2269693Y2706370D01*
X2265781Y2705608D01*
X2110282Y2705608D01*
X2106269Y2706420D01*
X2102967Y2708757D01*
X2100783Y2712212D01*
X2100122Y2716225D01*
X2101138Y2720136D01*
X2112822Y2733751D01*
X2119985Y2744520D01*
X2125726Y2756103D01*
X2129891Y2768396D01*
X2132431Y2781096D01*
X2133244Y2794000D01*
X2132431Y2806903D01*
X2129891Y2819603D01*
X2125726Y2831896D01*
X2119985Y2843479D01*
X2112822Y2854248D01*
X2104288Y2864002D01*
X2094534Y2872536D01*
X2083765Y2879699D01*
X2072132Y2885440D01*
X2059889Y2889605D01*
X2047189Y2892145D01*
X2033930Y2893009D01*
X1998065Y2893009D01*
X1984806Y2892145D01*
X1972106Y2889605D01*
X1959864Y2885440D01*
X1948230Y2879699D01*
X1937461Y2872536D01*
X1927707Y2864002D01*
X1919173Y2854248D01*
X1912010Y2843479D01*
X1909419Y2838297D01*
X1907184Y2835300D01*
X1903984Y2833319D01*
X1900326Y2832608D01*
X1543608Y2832608D01*
X1539697Y2833370D01*
X1536395Y2835605D01*
X1534820Y2837180D01*
X1526794Y2842818D01*
X1517853Y2846933D01*
X1508404Y2849473D01*
X1498600Y2850337D01*
X1488795Y2849473D01*
X1479346Y2846933D01*
X1470406Y2842818D01*
X1462379Y2837180D01*
X1455420Y2830220D01*
X1449781Y2822194D01*
X1445666Y2813253D01*
X1443126Y2803804D01*
X1442262Y2794000D01*
X1443126Y2784195D01*
X1445666Y2774746D01*
X1449781Y2765806D01*
X1455420Y2757779D01*
X1462379Y2750820D01*
X1470406Y2745181D01*
X1479346Y2741066D01*
X1488795Y2738526D01*
X1498600Y2737662D01*
X1508404Y2738526D01*
X1517853Y2741066D01*
X1526794Y2745181D01*
X1534820Y2750820D01*
X1536395Y2752394D01*
X1539697Y2754630D01*
X1543608Y2755392D01*
X1900326Y2755392D01*
X1903984Y2754680D01*
X1907184Y2752699D01*
X1909419Y2749702D01*
X1912010Y2744520D01*
X1919173Y2733751D01*
X1930857Y2720136D01*
X1931873Y2716225D01*
X1931212Y2712212D01*
X1929079Y2708757D01*
X1925726Y2706420D01*
X1921713Y2705608D01*
X1480108Y2705608D01*
X1476197Y2706370D01*
X1472895Y2708605D01*
X1471320Y2710180D01*
X1463294Y2715818D01*
X1454353Y2719933D01*
X1444904Y2722473D01*
X1435100Y2723337D01*
X1425295Y2722473D01*
X1415846Y2719933D01*
X1406906Y2715818D01*
X1398879Y2710180D01*
X1391920Y2703220D01*
X1386281Y2695194D01*
X1382166Y2686253D01*
X1379626Y2676804D01*
X1378762Y2667000D01*
X1379626Y2657195D01*
X1382166Y2647746D01*
X1386281Y2638806D01*
X1391920Y2630779D01*
X1398879Y2623820D01*
X1406906Y2618181D01*
X1415846Y2614066D01*
X1425295Y2611526D01*
X1435100Y2610662D01*
X1444904Y2611526D01*
X1454353Y2614066D01*
X1463294Y2618181D01*
X1471320Y2623820D01*
X1472895Y2625394D01*
X1476197Y2627630D01*
X1480108Y2628392D01*
X1921713Y2628392D01*
X1925726Y2627579D01*
X1929079Y2625242D01*
X1931212Y2621788D01*
X1931873Y2617774D01*
X1930857Y2613863D01*
X1919173Y2600248D01*
X1912010Y2589479D01*
X1906270Y2577896D01*
X1902104Y2565603D01*
X1899564Y2552903D01*
X1898751Y2540000D01*
X1899564Y2527096D01*
X1902104Y2514396D01*
X1906270Y2502103D01*
X1912010Y2490520D01*
X1919173Y2479751D01*
X1927707Y2469997D01*
X1937461Y2461463D01*
X1948230Y2454300D01*
X1959864Y2448560D01*
X1972106Y2444394D01*
X1984806Y2441854D01*
X1998065Y2440990D01*
X2033930Y2440990D01*
X2047189Y2441854D01*
X2059889Y2444394D01*
X2072132Y2448560D01*
X2083765Y2454300D01*
X2094534Y2461463D01*
X2104288Y2469997D01*
X2112822Y2479751D01*
X2119985Y2490520D01*
X2122576Y2495702D01*
X2124811Y2498699D01*
X2128012Y2500680D01*
X2131669Y2501392D01*
X2412492Y2501392D01*
X2420518Y2502204D01*
X2427732Y2504389D01*
X2434437Y2507945D01*
X2440635Y2513076D01*
X2553004Y2625394D01*
X2556306Y2627630D01*
X2560218Y2628392D01*
X2715717Y2628392D01*
X2719730Y2627579D01*
X2723032Y2625242D01*
X2725216Y2621788D01*
X2725877Y2617774D01*
X2724861Y2613863D01*
X2713177Y2600248D01*
X2706014Y2589479D01*
X2700274Y2577896D01*
X2696108Y2565603D01*
X2693568Y2552903D01*
X2692755Y2540000D01*
X2693568Y2527096D01*
X2696108Y2514396D01*
X2700274Y2502103D01*
X2706014Y2490520D01*
X2713177Y2479751D01*
X2721711Y2469997D01*
X2731465Y2461463D01*
X2742234Y2454300D01*
X2753868Y2448560D01*
X2766110Y2444394D01*
X2778810Y2441854D01*
X2792069Y2440990D01*
X2827934Y2440990D01*
X2841193Y2441854D01*
X2846171Y2442870D01*
X2849473Y2442972D01*
X2852623Y2442006D01*
X2855315Y2440076D01*
X2909366Y2386076D01*
X2915564Y2380945D01*
X2922270Y2377389D01*
X2929483Y2375204D01*
X2937510Y2374392D01*
X3318713Y2374392D01*
X3322726Y2373579D01*
X3326028Y2371242D01*
X3328212Y2367788D01*
X3328873Y2363774D01*
X3327857Y2359863D01*
X3316173Y2346248D01*
X3309010Y2335479D01*
X3303270Y2323896D01*
X3299104Y2311603D01*
X3296564Y2298903D01*
X3295751Y2286000D01*
X3296564Y2273096D01*
X3299104Y2260396D01*
X3303270Y2248103D01*
X3309010Y2236520D01*
X3316173Y2225751D01*
X3324707Y2215997D01*
X3334461Y2207463D01*
X3345230Y2200300D01*
X3356864Y2194560D01*
X3369106Y2190394D01*
X3381806Y2187854D01*
G37*
G36*
X4572000Y2552700D02*
G01*
X4660392Y2552700D01*
X4659985Y2556967D01*
X4656785Y2570226D01*
X4651908Y2582976D01*
X4645355Y2594914D01*
X4637278Y2605887D01*
X4627778Y2615692D01*
X4617059Y2624175D01*
X4605324Y2631135D01*
X4592777Y2636418D01*
X4579620Y2640025D01*
X4572000Y2641041D01*
G37*
G36*
X4458208Y2552700D02*
G01*
X4546600Y2552700D01*
X4546600Y2641041D01*
X4538980Y2640025D01*
X4525822Y2636418D01*
X4513275Y2631135D01*
X4501540Y2624175D01*
X4490821Y2615692D01*
X4481322Y2605887D01*
X4473244Y2594914D01*
X4466691Y2582976D01*
X4461814Y2570226D01*
X4458614Y2556967D01*
G37*
G36*
X1181100Y2624632D02*
G01*
X1194917Y2625496D01*
X1208481Y2628239D01*
X1221638Y2632659D01*
X1234033Y2638806D01*
X1245565Y2646476D01*
X1255979Y2655620D01*
X1265123Y2666034D01*
X1272794Y2677566D01*
X1278940Y2689961D01*
X1283360Y2703118D01*
X1286103Y2716682D01*
X1286967Y2730500D01*
X1286103Y2744317D01*
X1283360Y2757881D01*
X1278940Y2771038D01*
X1272794Y2783433D01*
X1265123Y2794965D01*
X1255979Y2805379D01*
X1245565Y2814523D01*
X1234033Y2822194D01*
X1221638Y2828340D01*
X1208481Y2832760D01*
X1194917Y2835503D01*
X1181100Y2836367D01*
X1167282Y2835503D01*
X1153718Y2832760D01*
X1140561Y2828340D01*
X1128166Y2822194D01*
X1116634Y2814523D01*
X1106220Y2805379D01*
X1097076Y2794965D01*
X1089406Y2783433D01*
X1083259Y2771038D01*
X1078839Y2757881D01*
X1076096Y2744317D01*
X1075232Y2730500D01*
X1076096Y2716682D01*
X1078839Y2703118D01*
X1083259Y2689961D01*
X1089406Y2677566D01*
X1097076Y2666034D01*
X1106220Y2655620D01*
X1116634Y2646476D01*
X1128166Y2638806D01*
X1140561Y2632659D01*
X1153718Y2628239D01*
X1167282Y2625496D01*
G37*
G36*
X368300Y105562D02*
G01*
X368300Y368300D01*
X105664Y368300D01*
X106070Y357936D01*
X108966Y334975D01*
X113792Y312369D01*
X120446Y290271D01*
X128981Y268782D01*
X139242Y248107D01*
X151180Y228295D01*
X164795Y209600D01*
X179882Y192125D01*
X196392Y175971D01*
X214172Y161239D01*
X233171Y148031D01*
X253187Y136499D01*
X274066Y126644D01*
X295757Y118618D01*
X318008Y112369D01*
X340715Y108051D01*
X363677Y105664D01*
G37*
G36*
X5588000Y2932125D02*
G01*
X5602528Y2933039D01*
X5616803Y2935732D01*
X5630672Y2940253D01*
X5643829Y2946450D01*
X5656122Y2954223D01*
X5667349Y2963519D01*
X5677306Y2974136D01*
X5685840Y2985922D01*
X5692851Y2998673D01*
X5698236Y3012186D01*
X5701842Y3026308D01*
X5703671Y3040735D01*
X5703671Y3055264D01*
X5701842Y3069691D01*
X5698236Y3083814D01*
X5692851Y3097326D01*
X5685840Y3110077D01*
X5677306Y3121863D01*
X5667349Y3132480D01*
X5656122Y3141776D01*
X5643829Y3149549D01*
X5630672Y3155746D01*
X5616803Y3160268D01*
X5602528Y3162960D01*
X5588000Y3163874D01*
X5573471Y3162960D01*
X5559196Y3160268D01*
X5545328Y3155746D01*
X5532170Y3149549D01*
X5519877Y3141776D01*
X5508650Y3132480D01*
X5498693Y3121863D01*
X5490159Y3110077D01*
X5483148Y3097326D01*
X5477764Y3083814D01*
X5474157Y3069691D01*
X5472328Y3055264D01*
X5472328Y3040735D01*
X5474157Y3026308D01*
X5477764Y3012186D01*
X5483148Y2998673D01*
X5490159Y2985922D01*
X5498693Y2974136D01*
X5508650Y2963519D01*
X5519877Y2954223D01*
X5532170Y2946450D01*
X5545328Y2940253D01*
X5559196Y2935732D01*
X5573471Y2933039D01*
G37*
G36*
X1181100Y3011728D02*
G01*
X1194917Y3012592D01*
X1208481Y3015335D01*
X1221638Y3019755D01*
X1234033Y3025902D01*
X1245565Y3033572D01*
X1255979Y3042716D01*
X1265123Y3053130D01*
X1272794Y3064662D01*
X1278940Y3077057D01*
X1283360Y3090214D01*
X1286103Y3103778D01*
X1286967Y3117596D01*
X1286103Y3131413D01*
X1283360Y3144977D01*
X1278940Y3158134D01*
X1272794Y3170529D01*
X1265123Y3182061D01*
X1255979Y3192475D01*
X1245565Y3201619D01*
X1234033Y3209290D01*
X1221638Y3215436D01*
X1208481Y3219856D01*
X1194917Y3222599D01*
X1181100Y3223463D01*
X1167282Y3222599D01*
X1153718Y3219856D01*
X1140561Y3215436D01*
X1128166Y3209290D01*
X1116634Y3201619D01*
X1106220Y3192475D01*
X1097076Y3182061D01*
X1089406Y3170529D01*
X1083259Y3158134D01*
X1078839Y3144977D01*
X1076096Y3131413D01*
X1075232Y3117596D01*
X1076096Y3103778D01*
X1078839Y3090214D01*
X1083259Y3077057D01*
X1089406Y3064662D01*
X1097076Y3053130D01*
X1106220Y3042716D01*
X1116634Y3033572D01*
X1128166Y3025902D01*
X1140561Y3019755D01*
X1153718Y3015335D01*
X1167282Y3012592D01*
G37*
G36*
X5588000Y3186125D02*
G01*
X5602528Y3187039D01*
X5616803Y3189732D01*
X5630672Y3194253D01*
X5643829Y3200450D01*
X5656122Y3208223D01*
X5667349Y3217519D01*
X5677306Y3228136D01*
X5685840Y3239922D01*
X5692851Y3252673D01*
X5698236Y3266186D01*
X5701842Y3280308D01*
X5703671Y3294735D01*
X5703671Y3309264D01*
X5701842Y3323691D01*
X5698236Y3337814D01*
X5692851Y3351326D01*
X5685840Y3364077D01*
X5677306Y3375863D01*
X5667349Y3386480D01*
X5656122Y3395776D01*
X5643829Y3403549D01*
X5630672Y3409746D01*
X5616803Y3414268D01*
X5602528Y3416960D01*
X5588000Y3417874D01*
X5573471Y3416960D01*
X5559196Y3414268D01*
X5545328Y3409746D01*
X5532170Y3403549D01*
X5519877Y3395776D01*
X5508650Y3386480D01*
X5498693Y3375863D01*
X5490159Y3364077D01*
X5483148Y3351326D01*
X5477764Y3337814D01*
X5474157Y3323691D01*
X5472328Y3309264D01*
X5472328Y3294735D01*
X5474157Y3280308D01*
X5477764Y3266186D01*
X5483148Y3252673D01*
X5490159Y3239922D01*
X5498693Y3228136D01*
X5508650Y3217519D01*
X5519877Y3208223D01*
X5532170Y3200450D01*
X5545328Y3194253D01*
X5559196Y3189732D01*
X5573471Y3187039D01*
G37*
G36*
X1181100Y103428D02*
G01*
X1194917Y104292D01*
X1208481Y107035D01*
X1221638Y111455D01*
X1234033Y117602D01*
X1245565Y125272D01*
X1255979Y134416D01*
X1265123Y144830D01*
X1272794Y156362D01*
X1278940Y168757D01*
X1283360Y181914D01*
X1286103Y195478D01*
X1286967Y209296D01*
X1286103Y223113D01*
X1283360Y236677D01*
X1278940Y249834D01*
X1272794Y262229D01*
X1265123Y273761D01*
X1255979Y284175D01*
X1245565Y293319D01*
X1234033Y300990D01*
X1221638Y307136D01*
X1208481Y311556D01*
X1194917Y314299D01*
X1181100Y315163D01*
X1167282Y314299D01*
X1153718Y311556D01*
X1140561Y307136D01*
X1128166Y300990D01*
X1116634Y293319D01*
X1106220Y284175D01*
X1097076Y273761D01*
X1089406Y262229D01*
X1083259Y249834D01*
X1078839Y236677D01*
X1076096Y223113D01*
X1075232Y209296D01*
X1076096Y195478D01*
X1078839Y181914D01*
X1083259Y168757D01*
X1089406Y156362D01*
X1097076Y144830D01*
X1106220Y134416D01*
X1116634Y125272D01*
X1128166Y117602D01*
X1140561Y111455D01*
X1153718Y107035D01*
X1167282Y104292D01*
G37*
G36*
X5588000Y3440125D02*
G01*
X5602528Y3441039D01*
X5616803Y3443732D01*
X5630672Y3448253D01*
X5643829Y3454450D01*
X5656122Y3462223D01*
X5667349Y3471519D01*
X5677306Y3482136D01*
X5685840Y3493922D01*
X5692851Y3506673D01*
X5698236Y3520186D01*
X5701842Y3534308D01*
X5703671Y3548735D01*
X5703671Y3563264D01*
X5701842Y3577691D01*
X5698236Y3591814D01*
X5692851Y3605326D01*
X5685840Y3618077D01*
X5677306Y3629863D01*
X5667349Y3640480D01*
X5656122Y3649776D01*
X5643829Y3657549D01*
X5630672Y3663746D01*
X5616803Y3668268D01*
X5602528Y3670960D01*
X5588000Y3671874D01*
X5573471Y3670960D01*
X5559196Y3668268D01*
X5545328Y3663746D01*
X5532170Y3657549D01*
X5519877Y3649776D01*
X5508650Y3640480D01*
X5498693Y3629863D01*
X5490159Y3618077D01*
X5483148Y3605326D01*
X5477764Y3591814D01*
X5474157Y3577691D01*
X5472328Y3563264D01*
X5472328Y3548735D01*
X5474157Y3534308D01*
X5477764Y3520186D01*
X5483148Y3506673D01*
X5490159Y3493922D01*
X5498693Y3482136D01*
X5508650Y3471519D01*
X5519877Y3462223D01*
X5532170Y3454450D01*
X5545328Y3448253D01*
X5559196Y3443732D01*
X5573471Y3441039D01*
G37*
G36*
X4633061Y5570575D02*
G01*
X4669790Y5570575D01*
X4669790Y5638800D01*
X4606594Y5638800D01*
X4606594Y5597093D01*
X4607306Y5590743D01*
X4609236Y5585307D01*
X4612284Y5580380D01*
X4616399Y5576316D01*
X4621276Y5573217D01*
X4626762Y5571286D01*
G37*
G36*
X5588000Y3948125D02*
G01*
X5602528Y3949039D01*
X5616803Y3951732D01*
X5630672Y3956253D01*
X5643829Y3962450D01*
X5656122Y3970223D01*
X5667349Y3979519D01*
X5677306Y3990136D01*
X5685840Y4001922D01*
X5692851Y4014673D01*
X5698236Y4028186D01*
X5701842Y4042308D01*
X5703671Y4056735D01*
X5703671Y4071264D01*
X5701842Y4085691D01*
X5698236Y4099814D01*
X5692851Y4113326D01*
X5685840Y4126077D01*
X5677306Y4137863D01*
X5667349Y4148480D01*
X5656122Y4157776D01*
X5643829Y4165549D01*
X5630672Y4171746D01*
X5616803Y4176268D01*
X5602528Y4178960D01*
X5588000Y4179874D01*
X5573471Y4178960D01*
X5559196Y4176268D01*
X5545328Y4171746D01*
X5532170Y4165549D01*
X5519877Y4157776D01*
X5508650Y4148480D01*
X5498693Y4137863D01*
X5490159Y4126077D01*
X5483148Y4113326D01*
X5477764Y4099814D01*
X5474157Y4085691D01*
X5472328Y4071264D01*
X5472328Y4056735D01*
X5474157Y4042308D01*
X5477764Y4028186D01*
X5483148Y4014673D01*
X5490159Y4001922D01*
X5498693Y3990136D01*
X5508650Y3979519D01*
X5519877Y3970223D01*
X5532170Y3962450D01*
X5545328Y3956253D01*
X5559196Y3951732D01*
X5573471Y3949039D01*
G37*
G36*
X4219702Y3964990D02*
G01*
X4224934Y3964990D01*
X4238193Y3965854D01*
X4250893Y3968394D01*
X4263136Y3972560D01*
X4274769Y3978249D01*
X4285538Y3985463D01*
X4295292Y3993997D01*
X4303826Y4003751D01*
X4310989Y4014520D01*
X4316730Y4026103D01*
X4320895Y4038396D01*
X4323435Y4051300D01*
X4219702Y4051300D01*
G37*
G36*
X4189069Y3964990D02*
G01*
X4194301Y3964990D01*
X4194301Y4051300D01*
X4090568Y4051300D01*
X4093108Y4038396D01*
X4097274Y4026103D01*
X4103014Y4014520D01*
X4110177Y4003751D01*
X4118711Y3993997D01*
X4128465Y3985463D01*
X4139234Y3978249D01*
X4150868Y3972560D01*
X4163110Y3968394D01*
X4175810Y3965854D01*
G37*
G36*
X5588000Y4202125D02*
G01*
X5602528Y4203039D01*
X5616803Y4205732D01*
X5630672Y4210253D01*
X5643829Y4216450D01*
X5656122Y4224223D01*
X5667349Y4233519D01*
X5677306Y4244136D01*
X5685840Y4255922D01*
X5692851Y4268673D01*
X5698236Y4282186D01*
X5701842Y4296308D01*
X5703671Y4310735D01*
X5703671Y4325264D01*
X5701842Y4339691D01*
X5698236Y4353814D01*
X5692851Y4367326D01*
X5685840Y4380077D01*
X5677306Y4391863D01*
X5667349Y4402480D01*
X5656122Y4411776D01*
X5643829Y4419549D01*
X5630672Y4425746D01*
X5616803Y4430268D01*
X5602528Y4432960D01*
X5588000Y4433874D01*
X5573471Y4432960D01*
X5559196Y4430268D01*
X5545328Y4425746D01*
X5532170Y4419549D01*
X5519877Y4411776D01*
X5508650Y4402480D01*
X5498693Y4391863D01*
X5490159Y4380077D01*
X5483148Y4367326D01*
X5477764Y4353814D01*
X5474157Y4339691D01*
X5472328Y4325264D01*
X5472328Y4310735D01*
X5474157Y4296308D01*
X5477764Y4282186D01*
X5483148Y4268673D01*
X5490159Y4255922D01*
X5498693Y4244136D01*
X5508650Y4233519D01*
X5519877Y4224223D01*
X5532170Y4216450D01*
X5545328Y4210253D01*
X5559196Y4205732D01*
X5573471Y4203039D01*
G37*
G36*
X4090568Y4330700D02*
G01*
X4194301Y4330700D01*
X4194301Y4417009D01*
X4189069Y4417009D01*
X4175810Y4416145D01*
X4163110Y4413605D01*
X4150868Y4409440D01*
X4139234Y4403699D01*
X4128465Y4396536D01*
X4118711Y4388002D01*
X4110177Y4378248D01*
X4103014Y4367479D01*
X4097274Y4355896D01*
X4093108Y4343603D01*
G37*
G36*
X4219702Y4330700D02*
G01*
X4323435Y4330700D01*
X4320895Y4343603D01*
X4316730Y4355896D01*
X4310989Y4367479D01*
X4303826Y4378248D01*
X4295292Y4388002D01*
X4285538Y4396536D01*
X4274769Y4403699D01*
X4263136Y4409440D01*
X4250893Y4413605D01*
X4238193Y4416145D01*
X4224934Y4417009D01*
X4219702Y4417009D01*
G37*
G36*
X5588000Y4456125D02*
G01*
X5602528Y4457039D01*
X5616803Y4459732D01*
X5630672Y4464253D01*
X5643829Y4470450D01*
X5656122Y4478223D01*
X5667349Y4487519D01*
X5677306Y4498136D01*
X5685840Y4509922D01*
X5692851Y4522673D01*
X5698236Y4536186D01*
X5701842Y4550308D01*
X5703671Y4564735D01*
X5703671Y4579264D01*
X5701842Y4593691D01*
X5698236Y4607814D01*
X5692851Y4621326D01*
X5685840Y4634077D01*
X5677306Y4645863D01*
X5667349Y4656480D01*
X5656122Y4665776D01*
X5643829Y4673549D01*
X5630672Y4679746D01*
X5616803Y4684268D01*
X5602528Y4686960D01*
X5588000Y4687874D01*
X5573471Y4686960D01*
X5559196Y4684268D01*
X5545328Y4679746D01*
X5532170Y4673549D01*
X5519877Y4665776D01*
X5508650Y4656480D01*
X5498693Y4645863D01*
X5490159Y4634077D01*
X5483148Y4621326D01*
X5477764Y4607814D01*
X5474157Y4593691D01*
X5472328Y4579264D01*
X5472328Y4564735D01*
X5474157Y4550308D01*
X5477764Y4536186D01*
X5483148Y4522673D01*
X5490159Y4509922D01*
X5498693Y4498136D01*
X5508650Y4487519D01*
X5519877Y4478223D01*
X5532170Y4470450D01*
X5545328Y4464253D01*
X5559196Y4459732D01*
X5573471Y4457039D01*
G37*
G36*
X4826000Y4456125D02*
G01*
X4840528Y4457039D01*
X4854803Y4459732D01*
X4868672Y4464253D01*
X4881829Y4470450D01*
X4894122Y4478223D01*
X4905349Y4487519D01*
X4915306Y4498136D01*
X4923840Y4509922D01*
X4930851Y4522673D01*
X4932578Y4526991D01*
X4934762Y4530344D01*
X4938064Y4532579D01*
X4942027Y4533392D01*
X5034991Y4533392D01*
X5038902Y4532630D01*
X5042204Y4530394D01*
X5043779Y4528820D01*
X5051806Y4523181D01*
X5060746Y4519066D01*
X5070195Y4516526D01*
X5080000Y4515662D01*
X5089804Y4516526D01*
X5099253Y4519066D01*
X5108194Y4523181D01*
X5116220Y4528820D01*
X5123180Y4535779D01*
X5128818Y4543806D01*
X5132933Y4552746D01*
X5135473Y4562195D01*
X5136337Y4572000D01*
X5135473Y4581804D01*
X5132933Y4591253D01*
X5128818Y4600194D01*
X5123180Y4608220D01*
X5116220Y4615180D01*
X5108194Y4620818D01*
X5099253Y4624933D01*
X5089804Y4627473D01*
X5080000Y4628337D01*
X5070195Y4627473D01*
X5060746Y4624933D01*
X5051806Y4620818D01*
X5043779Y4615180D01*
X5042204Y4613605D01*
X5038902Y4611370D01*
X5034991Y4610608D01*
X4942027Y4610608D01*
X4938064Y4611420D01*
X4934762Y4613656D01*
X4932578Y4617008D01*
X4930851Y4621326D01*
X4923840Y4634077D01*
X4915306Y4645863D01*
X4905349Y4656480D01*
X4894122Y4665776D01*
X4881829Y4673549D01*
X4868672Y4679746D01*
X4854803Y4684268D01*
X4840528Y4686960D01*
X4826000Y4687874D01*
X4811471Y4686960D01*
X4797196Y4684268D01*
X4783328Y4679746D01*
X4770170Y4673549D01*
X4757877Y4665776D01*
X4746650Y4656480D01*
X4736693Y4645863D01*
X4728159Y4634077D01*
X4721148Y4621326D01*
X4719421Y4617008D01*
X4717237Y4613656D01*
X4713935Y4611420D01*
X4709972Y4610608D01*
X4660290Y4610608D01*
X4656785Y4611268D01*
X4653686Y4613097D01*
X4651400Y4615891D01*
X4645355Y4626914D01*
X4637278Y4637887D01*
X4627778Y4647692D01*
X4617059Y4656175D01*
X4605324Y4663135D01*
X4592777Y4668418D01*
X4579620Y4672025D01*
X4566107Y4673854D01*
X4552492Y4673854D01*
X4538980Y4672025D01*
X4525822Y4668418D01*
X4513275Y4663135D01*
X4501540Y4656175D01*
X4490821Y4647692D01*
X4481322Y4637887D01*
X4473244Y4626914D01*
X4466691Y4614976D01*
X4461814Y4602226D01*
X4458614Y4588967D01*
X4457293Y4575403D01*
X4457750Y4561789D01*
X4459986Y4548327D01*
X4464050Y4535322D01*
X4469790Y4522927D01*
X4477105Y4511446D01*
X4485894Y4501032D01*
X4496054Y4491888D01*
X4507280Y4484166D01*
X4519422Y4478020D01*
X4532325Y4473549D01*
X4545685Y4470806D01*
X4559300Y4469892D01*
X4572914Y4470806D01*
X4586274Y4473549D01*
X4599178Y4478020D01*
X4611319Y4484166D01*
X4622546Y4491888D01*
X4632706Y4501032D01*
X4641494Y4511446D01*
X4648809Y4522927D01*
X4650943Y4527499D01*
X4653178Y4530598D01*
X4656378Y4532680D01*
X4660138Y4533392D01*
X4709972Y4533392D01*
X4713935Y4532579D01*
X4717237Y4530344D01*
X4719421Y4526991D01*
X4721148Y4522673D01*
X4728159Y4509922D01*
X4736693Y4498136D01*
X4746650Y4487519D01*
X4757877Y4478223D01*
X4770170Y4470450D01*
X4783328Y4464253D01*
X4797196Y4459732D01*
X4811471Y4457039D01*
G37*
G36*
X4219702Y4472990D02*
G01*
X4224934Y4472990D01*
X4238193Y4473854D01*
X4250893Y4476394D01*
X4263136Y4480560D01*
X4274769Y4486249D01*
X4285538Y4493463D01*
X4295292Y4501997D01*
X4303826Y4511751D01*
X4310989Y4522520D01*
X4316730Y4534103D01*
X4320895Y4546396D01*
X4323435Y4559300D01*
X4219702Y4559300D01*
G37*
G36*
X4189069Y4472990D02*
G01*
X4194301Y4472990D01*
X4194301Y4559300D01*
X4090568Y4559300D01*
X4093108Y4546396D01*
X4097274Y4534103D01*
X4103014Y4522520D01*
X4110177Y4511751D01*
X4118711Y4501997D01*
X4128465Y4493463D01*
X4139234Y4486249D01*
X4150868Y4480560D01*
X4163110Y4476394D01*
X4175810Y4473854D01*
G37*
G36*
X4219702Y4584700D02*
G01*
X4323435Y4584700D01*
X4320895Y4597603D01*
X4316730Y4609896D01*
X4310989Y4621479D01*
X4303826Y4632248D01*
X4295292Y4642002D01*
X4285538Y4650536D01*
X4274769Y4657699D01*
X4263136Y4663440D01*
X4250893Y4667605D01*
X4238193Y4670145D01*
X4224934Y4671009D01*
X4219702Y4671009D01*
G37*
G36*
X4090568Y4584700D02*
G01*
X4194301Y4584700D01*
X4194301Y4671009D01*
X4189069Y4671009D01*
X4175810Y4670145D01*
X4163110Y4667605D01*
X4150868Y4663440D01*
X4139234Y4657699D01*
X4128465Y4650536D01*
X4118711Y4642002D01*
X4110177Y4632248D01*
X4103014Y4621479D01*
X4097274Y4609896D01*
X4093108Y4597603D01*
G37*
G36*
X4483658Y4723892D02*
G01*
X4546600Y4723892D01*
X4546600Y4813300D01*
X4457192Y4813300D01*
X4457192Y4750358D01*
X4457903Y4744059D01*
X4459833Y4738573D01*
X4462881Y4733696D01*
X4466996Y4729581D01*
X4471873Y4726533D01*
X4477359Y4724603D01*
G37*
G36*
X4572000Y4723892D02*
G01*
X4634941Y4723892D01*
X4641240Y4724603D01*
X4646726Y4726533D01*
X4651603Y4729581D01*
X4655718Y4733696D01*
X4658766Y4738573D01*
X4660696Y4744059D01*
X4661408Y4750358D01*
X4661408Y4813300D01*
X4572000Y4813300D01*
G37*
G36*
X4189069Y4726990D02*
G01*
X4224934Y4726990D01*
X4238193Y4727854D01*
X4250893Y4730394D01*
X4263136Y4734560D01*
X4274769Y4740249D01*
X4285538Y4747463D01*
X4295292Y4755997D01*
X4303826Y4765751D01*
X4310989Y4776520D01*
X4316730Y4788103D01*
X4320895Y4800396D01*
X4323435Y4813096D01*
X4324248Y4826000D01*
X4323435Y4838903D01*
X4320895Y4851603D01*
X4316730Y4863896D01*
X4310989Y4875479D01*
X4303826Y4886248D01*
X4295292Y4896002D01*
X4285538Y4904536D01*
X4274769Y4911699D01*
X4263136Y4917440D01*
X4250893Y4921605D01*
X4238193Y4924145D01*
X4224934Y4925009D01*
X4189069Y4925009D01*
X4175810Y4924145D01*
X4163110Y4921605D01*
X4150868Y4917440D01*
X4139234Y4911699D01*
X4128465Y4904536D01*
X4118711Y4896002D01*
X4110177Y4886248D01*
X4103014Y4875479D01*
X4097274Y4863896D01*
X4093108Y4851603D01*
X4090568Y4838903D01*
X4089755Y4826000D01*
X4090568Y4813096D01*
X4093108Y4800396D01*
X4097274Y4788103D01*
X4103014Y4776520D01*
X4110177Y4765751D01*
X4118711Y4755997D01*
X4128465Y4747463D01*
X4139234Y4740249D01*
X4150868Y4734560D01*
X4163110Y4730394D01*
X4175810Y4727854D01*
G37*
G36*
X1181100Y5532932D02*
G01*
X1194917Y5533796D01*
X1208481Y5536539D01*
X1221638Y5540959D01*
X1234033Y5547106D01*
X1245565Y5554776D01*
X1255979Y5563920D01*
X1265123Y5574334D01*
X1272794Y5585866D01*
X1278940Y5598261D01*
X1283360Y5611418D01*
X1286103Y5624982D01*
X1286967Y5638800D01*
X1286103Y5652617D01*
X1283360Y5666181D01*
X1278940Y5679338D01*
X1272794Y5691733D01*
X1265123Y5703265D01*
X1255979Y5713679D01*
X1245565Y5722823D01*
X1234033Y5730494D01*
X1221638Y5736640D01*
X1208481Y5741060D01*
X1194917Y5743803D01*
X1181100Y5744667D01*
X1167282Y5743803D01*
X1153718Y5741060D01*
X1140561Y5736640D01*
X1128166Y5730494D01*
X1116634Y5722823D01*
X1106220Y5713679D01*
X1097076Y5703265D01*
X1089406Y5691733D01*
X1083259Y5679338D01*
X1078839Y5666181D01*
X1076096Y5652617D01*
X1075232Y5638800D01*
X1076096Y5624982D01*
X1078839Y5611418D01*
X1083259Y5598261D01*
X1089406Y5585866D01*
X1097076Y5574334D01*
X1106220Y5563920D01*
X1116634Y5554776D01*
X1128166Y5547106D01*
X1140561Y5540959D01*
X1153718Y5536539D01*
X1167282Y5533796D01*
G37*
G36*
X4572000Y4838700D02*
G01*
X4661408Y4838700D01*
X4661408Y4901641D01*
X4660696Y4907940D01*
X4658766Y4913426D01*
X4655718Y4918303D01*
X4651603Y4922418D01*
X4646726Y4925466D01*
X4641240Y4927396D01*
X4634941Y4928108D01*
X4572000Y4928108D01*
G37*
G36*
X4457192Y4838700D02*
G01*
X4546600Y4838700D01*
X4546600Y4928108D01*
X4483658Y4928108D01*
X4477359Y4927396D01*
X4471873Y4925466D01*
X4466996Y4922418D01*
X4462881Y4918303D01*
X4459833Y4913426D01*
X4457903Y4907940D01*
X4457192Y4901641D01*
G37*
G36*
X393700Y5473700D02*
G01*
X656590Y5473700D01*
X654710Y5495594D01*
X650849Y5518353D01*
X645109Y5540756D01*
X637540Y5562549D01*
X628142Y5583682D01*
X617016Y5603900D01*
X604215Y5623153D01*
X589838Y5641289D01*
X574040Y5658104D01*
X556869Y5673598D01*
X538480Y5687568D01*
X518972Y5699912D01*
X498500Y5710631D01*
X477164Y5719572D01*
X455218Y5726734D01*
X432714Y5732018D01*
X409854Y5735370D01*
X393700Y5736386D01*
G37*
G36*
X368300Y5185562D02*
G01*
X368300Y5448300D01*
X105664Y5448300D01*
X106070Y5437936D01*
X108966Y5414975D01*
X113792Y5392369D01*
X120446Y5370271D01*
X128981Y5348782D01*
X139242Y5328107D01*
X151180Y5308295D01*
X164795Y5289600D01*
X179882Y5272125D01*
X196392Y5255971D01*
X214172Y5241239D01*
X233171Y5228031D01*
X253187Y5216499D01*
X274066Y5206644D01*
X295757Y5198618D01*
X318008Y5192369D01*
X340715Y5188051D01*
X363677Y5185664D01*
G37*
G36*
X393700Y5185613D02*
G01*
X409854Y5186629D01*
X432714Y5189982D01*
X455218Y5195265D01*
X477164Y5202428D01*
X498500Y5211368D01*
X518972Y5222087D01*
X538480Y5234432D01*
X556869Y5248402D01*
X574040Y5263896D01*
X589838Y5280710D01*
X604215Y5298846D01*
X617016Y5318099D01*
X628142Y5338318D01*
X637540Y5359450D01*
X645109Y5381244D01*
X650849Y5403646D01*
X654710Y5426405D01*
X656590Y5448300D01*
X393700Y5448300D01*
G37*
G36*
X4633061Y5189575D02*
G01*
X4731918Y5189575D01*
X4738268Y5190286D01*
X4743704Y5192217D01*
X4748631Y5195316D01*
X4752695Y5199380D01*
X4753914Y5201259D01*
X4756708Y5204206D01*
X4760468Y5205831D01*
X4764532Y5205831D01*
X4768291Y5204206D01*
X4771085Y5201259D01*
X4772304Y5199380D01*
X4776368Y5195316D01*
X4781296Y5192217D01*
X4786731Y5190286D01*
X4793081Y5189575D01*
X4891938Y5189575D01*
X4898237Y5190286D01*
X4903724Y5192217D01*
X4908600Y5195316D01*
X4912715Y5199380D01*
X4915763Y5204307D01*
X4917694Y5209743D01*
X4918405Y5216093D01*
X4918405Y5221732D01*
X4919167Y5225643D01*
X4921351Y5228894D01*
X4924653Y5231130D01*
X4928565Y5231892D01*
X4933391Y5231892D01*
X4937302Y5231130D01*
X4940604Y5228894D01*
X4942179Y5227320D01*
X4950206Y5221681D01*
X4959146Y5217566D01*
X4968595Y5215026D01*
X4978400Y5214162D01*
X4988204Y5215026D01*
X4997653Y5217566D01*
X5006594Y5221681D01*
X5014620Y5227320D01*
X5021580Y5234279D01*
X5027218Y5242306D01*
X5031333Y5251246D01*
X5033873Y5260695D01*
X5034737Y5270500D01*
X5033873Y5280304D01*
X5031333Y5289753D01*
X5027218Y5298694D01*
X5021580Y5306720D01*
X5014620Y5313680D01*
X5006594Y5319318D01*
X4997653Y5323433D01*
X4988204Y5325973D01*
X4978400Y5326837D01*
X4968595Y5325973D01*
X4959146Y5323433D01*
X4950206Y5319318D01*
X4942179Y5313680D01*
X4940604Y5312105D01*
X4937302Y5309870D01*
X4933391Y5309108D01*
X4928565Y5309108D01*
X4924653Y5309870D01*
X4921351Y5312105D01*
X4919167Y5315356D01*
X4918405Y5319268D01*
X4918405Y5324906D01*
X4917694Y5331256D01*
X4915763Y5336692D01*
X4912715Y5341620D01*
X4908600Y5345684D01*
X4903724Y5348782D01*
X4898237Y5350713D01*
X4891938Y5351424D01*
X4842510Y5351424D01*
X4838649Y5352186D01*
X4835347Y5354370D01*
X4833162Y5357672D01*
X4832350Y5361584D01*
X4833162Y5365445D01*
X4835347Y5368747D01*
X4843729Y5377129D01*
X4846980Y5379313D01*
X4850892Y5380075D01*
X4891938Y5380075D01*
X4898237Y5380786D01*
X4903724Y5382717D01*
X4908600Y5385816D01*
X4912715Y5389880D01*
X4915763Y5394807D01*
X4917694Y5400243D01*
X4918405Y5406593D01*
X4918405Y5515406D01*
X4917694Y5521756D01*
X4915763Y5527192D01*
X4912715Y5532120D01*
X4908600Y5536184D01*
X4903724Y5539282D01*
X4898237Y5541213D01*
X4891938Y5541924D01*
X4842560Y5541924D01*
X4838649Y5542686D01*
X4835347Y5544870D01*
X4833162Y5548172D01*
X4832400Y5552084D01*
X4833162Y5555945D01*
X4835347Y5559247D01*
X4843729Y5567629D01*
X4847031Y5569813D01*
X4850892Y5570575D01*
X4891938Y5570575D01*
X4898237Y5571286D01*
X4903724Y5573217D01*
X4908600Y5576316D01*
X4912715Y5580380D01*
X4915763Y5585307D01*
X4917694Y5590743D01*
X4918405Y5597093D01*
X4918405Y5705906D01*
X4917694Y5712256D01*
X4915763Y5717692D01*
X4912715Y5722620D01*
X4908600Y5726684D01*
X4903724Y5729782D01*
X4898237Y5731713D01*
X4891938Y5732424D01*
X4793081Y5732424D01*
X4786731Y5731713D01*
X4781296Y5729782D01*
X4776368Y5726684D01*
X4772304Y5722620D01*
X4771085Y5720740D01*
X4768291Y5717794D01*
X4764532Y5716168D01*
X4760468Y5716168D01*
X4756708Y5717794D01*
X4753914Y5720740D01*
X4752695Y5722620D01*
X4748631Y5726684D01*
X4743704Y5729782D01*
X4738268Y5731713D01*
X4731918Y5732424D01*
X4695190Y5732424D01*
X4695190Y5664200D01*
X4756454Y5664200D01*
X4760315Y5663438D01*
X4763617Y5661202D01*
X4765802Y5657951D01*
X4766614Y5654040D01*
X4766614Y5648960D01*
X4765802Y5645048D01*
X4763617Y5641797D01*
X4760315Y5639562D01*
X4756454Y5638800D01*
X4695190Y5638800D01*
X4695190Y5570575D01*
X4712970Y5570575D01*
X4716881Y5569813D01*
X4720183Y5567629D01*
X4722368Y5564327D01*
X4723130Y5560415D01*
X4722368Y5556554D01*
X4720183Y5553252D01*
X4711801Y5544870D01*
X4708499Y5542686D01*
X4704638Y5541924D01*
X4633061Y5541924D01*
X4626762Y5541213D01*
X4621276Y5539282D01*
X4616399Y5536184D01*
X4612284Y5532120D01*
X4609236Y5527192D01*
X4607306Y5521756D01*
X4606594Y5515406D01*
X4606594Y5509768D01*
X4605832Y5505856D01*
X4603648Y5502605D01*
X4600346Y5500370D01*
X4596434Y5499608D01*
X4381398Y5499608D01*
X4377486Y5500420D01*
X4374134Y5502656D01*
X4369054Y5507837D01*
X4364228Y5510885D01*
X4358741Y5512816D01*
X4352442Y5513527D01*
X4249826Y5513527D01*
X4243476Y5512816D01*
X4238040Y5510885D01*
X4233113Y5507786D01*
X4229049Y5503722D01*
X4225950Y5498795D01*
X4224070Y5493359D01*
X4223359Y5487009D01*
X4223359Y5434990D01*
X4223562Y5433110D01*
X4223054Y5428691D01*
X4220718Y5424881D01*
X4217009Y5422442D01*
X4212590Y5421884D01*
X4207002Y5422341D01*
X4197197Y5421477D01*
X4187748Y5418937D01*
X4178808Y5414822D01*
X4170781Y5409184D01*
X4169206Y5407609D01*
X4165904Y5405374D01*
X4161129Y5404612D01*
X4157218Y5405424D01*
X4153915Y5407660D01*
X4148836Y5412841D01*
X4143959Y5415889D01*
X4138523Y5417820D01*
X4132173Y5418531D01*
X4029557Y5418531D01*
X4023258Y5417820D01*
X4017772Y5415889D01*
X4012895Y5412790D01*
X4008780Y5408726D01*
X4005732Y5403799D01*
X4003801Y5398363D01*
X4003090Y5392013D01*
X4003090Y5339994D01*
X4003801Y5333644D01*
X4005732Y5328208D01*
X4008780Y5323281D01*
X4011726Y5320334D01*
X4013911Y5317083D01*
X4014724Y5313172D01*
X4013911Y5309260D01*
X4011726Y5306009D01*
X4008424Y5303774D01*
X4004564Y5303012D01*
X3949598Y5303012D01*
X3945686Y5303824D01*
X3942334Y5306060D01*
X3937254Y5311241D01*
X3932428Y5314289D01*
X3926941Y5316220D01*
X3920642Y5316931D01*
X3818026Y5316931D01*
X3811676Y5316220D01*
X3806240Y5314289D01*
X3801313Y5311190D01*
X3797249Y5307126D01*
X3794150Y5302199D01*
X3792270Y5296763D01*
X3791559Y5290413D01*
X3791559Y5238394D01*
X3792270Y5232044D01*
X3794150Y5226608D01*
X3797249Y5221681D01*
X3801313Y5217617D01*
X3806240Y5214518D01*
X3811676Y5212588D01*
X3818026Y5211876D01*
X3920642Y5211876D01*
X3926941Y5212588D01*
X3932428Y5214518D01*
X3937254Y5217566D01*
X3942334Y5222748D01*
X3945686Y5224983D01*
X3949598Y5225796D01*
X4596434Y5225796D01*
X4600041Y5225135D01*
X4603191Y5223205D01*
X4605477Y5220309D01*
X4606544Y5216753D01*
X4607306Y5209743D01*
X4609236Y5204307D01*
X4612284Y5199380D01*
X4616399Y5195316D01*
X4621276Y5192217D01*
X4626762Y5190286D01*
G37*
G36*
X3597757Y5306872D02*
G01*
X3700373Y5306872D01*
X3706723Y5307584D01*
X3712159Y5309514D01*
X3717086Y5312613D01*
X3721150Y5316677D01*
X3724249Y5321604D01*
X3726129Y5327040D01*
X3726840Y5333390D01*
X3726840Y5385409D01*
X3726129Y5391759D01*
X3724249Y5397195D01*
X3721150Y5402122D01*
X3717086Y5406186D01*
X3712159Y5409285D01*
X3706723Y5411216D01*
X3700373Y5411927D01*
X3597757Y5411927D01*
X3591458Y5411216D01*
X3585972Y5409285D01*
X3581146Y5406237D01*
X3576065Y5401056D01*
X3572713Y5398820D01*
X3568801Y5398008D01*
X3455365Y5398008D01*
X3451453Y5398770D01*
X3448202Y5401005D01*
X3445967Y5404256D01*
X3445205Y5408168D01*
X3445205Y5412232D01*
X3445967Y5416143D01*
X3448202Y5419394D01*
X3451453Y5421630D01*
X3455365Y5422392D01*
X3517392Y5422392D01*
X3525418Y5423204D01*
X3532632Y5425389D01*
X3539337Y5428945D01*
X3545535Y5434076D01*
X3625900Y5514390D01*
X3629202Y5516626D01*
X3633114Y5517388D01*
X3792982Y5517388D01*
X3796893Y5516626D01*
X3800195Y5514390D01*
X3802379Y5511139D01*
X3803142Y5507228D01*
X3802379Y5503316D01*
X3800195Y5500065D01*
X3797249Y5497118D01*
X3794150Y5492191D01*
X3792270Y5486755D01*
X3791559Y5480405D01*
X3791559Y5467096D01*
X3856634Y5467096D01*
X3856634Y5507228D01*
X3857396Y5511139D01*
X3859580Y5514390D01*
X3862882Y5516626D01*
X3866794Y5517388D01*
X3871874Y5517388D01*
X3875735Y5516626D01*
X3879037Y5514390D01*
X3881272Y5511139D01*
X3882034Y5507228D01*
X3882034Y5467096D01*
X3947109Y5467096D01*
X3947109Y5480405D01*
X3946398Y5486755D01*
X3944467Y5492191D01*
X3941419Y5497118D01*
X3938473Y5500065D01*
X3936288Y5503316D01*
X3935476Y5507228D01*
X3936288Y5511139D01*
X3938473Y5514390D01*
X3941775Y5516626D01*
X3945636Y5517388D01*
X4000601Y5517388D01*
X4004513Y5516575D01*
X4007865Y5514340D01*
X4012946Y5509158D01*
X4017772Y5506110D01*
X4023258Y5504180D01*
X4029557Y5503468D01*
X4132173Y5503468D01*
X4138523Y5504180D01*
X4143959Y5506110D01*
X4148886Y5509209D01*
X4152950Y5513273D01*
X4156049Y5518200D01*
X4157929Y5523636D01*
X4158640Y5529986D01*
X4158640Y5582005D01*
X4157929Y5588355D01*
X4156049Y5593791D01*
X4154525Y5596229D01*
X4153103Y5600141D01*
X4153357Y5604357D01*
X4155287Y5608066D01*
X4158589Y5610707D01*
X4162653Y5611774D01*
X4166819Y5611114D01*
X4178808Y5602681D01*
X4187748Y5598566D01*
X4197197Y5596026D01*
X4207002Y5595162D01*
X4216806Y5596026D01*
X4226255Y5598566D01*
X4235196Y5602681D01*
X4243222Y5608320D01*
X4250182Y5615279D01*
X4255820Y5623306D01*
X4259935Y5632246D01*
X4262475Y5641695D01*
X4263339Y5651500D01*
X4262475Y5661304D01*
X4259935Y5670753D01*
X4255820Y5679694D01*
X4250182Y5687720D01*
X4243222Y5694680D01*
X4235196Y5700318D01*
X4226255Y5704433D01*
X4216806Y5706973D01*
X4207002Y5707837D01*
X4197197Y5706973D01*
X4187748Y5704433D01*
X4178808Y5700318D01*
X4170781Y5694680D01*
X4169206Y5693105D01*
X4165904Y5690870D01*
X4161993Y5690108D01*
X3455365Y5690108D01*
X3451453Y5690870D01*
X3448202Y5693105D01*
X3445967Y5696356D01*
X3445205Y5700268D01*
X3445205Y5705906D01*
X3444494Y5712256D01*
X3442563Y5717692D01*
X3439515Y5722620D01*
X3435400Y5726684D01*
X3430524Y5729782D01*
X3425037Y5731713D01*
X3418738Y5732424D01*
X3319881Y5732424D01*
X3313531Y5731713D01*
X3308096Y5729782D01*
X3303168Y5726684D01*
X3299104Y5722620D01*
X3297885Y5720740D01*
X3295091Y5717794D01*
X3291332Y5716168D01*
X3287268Y5716168D01*
X3283508Y5717794D01*
X3280714Y5720740D01*
X3279495Y5722620D01*
X3275431Y5726684D01*
X3270503Y5729782D01*
X3265068Y5731713D01*
X3258718Y5732424D01*
X3159861Y5732424D01*
X3153562Y5731713D01*
X3148076Y5729782D01*
X3143199Y5726684D01*
X3139084Y5722620D01*
X3136036Y5717692D01*
X3134106Y5712256D01*
X3133394Y5705906D01*
X3133394Y5597093D01*
X3134106Y5590743D01*
X3136036Y5585307D01*
X3139084Y5580380D01*
X3143199Y5576316D01*
X3148076Y5573217D01*
X3153460Y5571337D01*
X3161538Y5570524D01*
X3165094Y5569508D01*
X3168091Y5567273D01*
X3170021Y5564073D01*
X3170732Y5560415D01*
X3170732Y5552084D01*
X3170021Y5548426D01*
X3168091Y5545226D01*
X3165094Y5542991D01*
X3161538Y5541975D01*
X3153460Y5541162D01*
X3148076Y5539282D01*
X3143199Y5536184D01*
X3139084Y5532120D01*
X3136036Y5527192D01*
X3134106Y5521756D01*
X3133394Y5515406D01*
X3133394Y5509768D01*
X3132632Y5505856D01*
X3130448Y5502605D01*
X3127146Y5500370D01*
X3123234Y5499608D01*
X2879445Y5499608D01*
X2875686Y5500319D01*
X2872435Y5502452D01*
X2870200Y5505551D01*
X2869285Y5509310D01*
X2869844Y5513120D01*
X2871825Y5516473D01*
X2878023Y5523534D01*
X2884068Y5532577D01*
X2886303Y5535015D01*
X2889250Y5536539D01*
X2892501Y5537098D01*
X3022092Y5537098D01*
X3026410Y5536133D01*
X3028746Y5535066D01*
X3038195Y5532526D01*
X3048000Y5531662D01*
X3057804Y5532526D01*
X3067253Y5535066D01*
X3076194Y5539181D01*
X3084220Y5544820D01*
X3091180Y5551779D01*
X3096818Y5559806D01*
X3100933Y5568746D01*
X3103473Y5578195D01*
X3104337Y5588000D01*
X3103473Y5597804D01*
X3100933Y5607253D01*
X3096818Y5616194D01*
X3091180Y5624220D01*
X3084220Y5631180D01*
X3076194Y5636818D01*
X3067253Y5640933D01*
X3057804Y5643473D01*
X3048000Y5644337D01*
X3038195Y5643473D01*
X3028746Y5640933D01*
X3026410Y5639866D01*
X3022092Y5638901D01*
X2892501Y5638901D01*
X2889250Y5639460D01*
X2886303Y5640984D01*
X2884068Y5643422D01*
X2878023Y5652465D01*
X2868879Y5662879D01*
X2858465Y5672023D01*
X2846933Y5679694D01*
X2834538Y5685840D01*
X2821432Y5690311D01*
X2807817Y5693003D01*
X2794000Y5693918D01*
X2780182Y5693003D01*
X2766568Y5690311D01*
X2753461Y5685840D01*
X2741066Y5679694D01*
X2729534Y5672023D01*
X2719120Y5662879D01*
X2709976Y5652465D01*
X2702306Y5640933D01*
X2698038Y5632297D01*
X2695752Y5629300D01*
X2692603Y5627319D01*
X2688894Y5626608D01*
X2267508Y5626608D01*
X2263597Y5627370D01*
X2260295Y5629605D01*
X2258720Y5631180D01*
X2250694Y5636818D01*
X2241753Y5640933D01*
X2232304Y5643473D01*
X2222500Y5644337D01*
X2212695Y5643473D01*
X2203246Y5640933D01*
X2194306Y5636818D01*
X2186279Y5631180D01*
X2179320Y5624220D01*
X2173681Y5616194D01*
X2169566Y5607253D01*
X2167026Y5597804D01*
X2166162Y5588000D01*
X2167026Y5578195D01*
X2169566Y5568746D01*
X2173681Y5559806D01*
X2179320Y5551779D01*
X2186279Y5544820D01*
X2194306Y5539181D01*
X2203246Y5535066D01*
X2212695Y5532526D01*
X2222500Y5531662D01*
X2232304Y5532526D01*
X2241753Y5535066D01*
X2250694Y5539181D01*
X2258720Y5544820D01*
X2260295Y5546394D01*
X2263597Y5548630D01*
X2267508Y5549392D01*
X2688894Y5549392D01*
X2692603Y5548680D01*
X2695752Y5546699D01*
X2698038Y5543702D01*
X2702306Y5535066D01*
X2709976Y5523534D01*
X2716174Y5516473D01*
X2718155Y5513120D01*
X2718714Y5509310D01*
X2717800Y5505551D01*
X2715564Y5502452D01*
X2712313Y5500319D01*
X2708554Y5499608D01*
X2179218Y5499608D01*
X2175306Y5500370D01*
X2172004Y5502605D01*
X2140915Y5533694D01*
X2138680Y5536996D01*
X2137918Y5540908D01*
X2137918Y5667451D01*
X2137206Y5673750D01*
X2135276Y5679236D01*
X2132228Y5684113D01*
X2128113Y5688228D01*
X2123236Y5691276D01*
X2117750Y5693206D01*
X2111451Y5693918D01*
X1952548Y5693918D01*
X1946249Y5693206D01*
X1940763Y5691276D01*
X1935886Y5688228D01*
X1931771Y5684113D01*
X1928723Y5679236D01*
X1926793Y5673750D01*
X1926082Y5667451D01*
X1926082Y5508548D01*
X1926793Y5502249D01*
X1928723Y5496763D01*
X1931771Y5491886D01*
X1935886Y5487771D01*
X1940763Y5484723D01*
X1946249Y5482793D01*
X1952548Y5482082D01*
X2079091Y5482082D01*
X2083003Y5481320D01*
X2086305Y5479084D01*
X2131364Y5434076D01*
X2137562Y5428945D01*
X2144268Y5425389D01*
X2151481Y5423204D01*
X2159508Y5422392D01*
X2708554Y5422392D01*
X2712313Y5421680D01*
X2715564Y5419547D01*
X2717800Y5416448D01*
X2718714Y5412689D01*
X2718155Y5408879D01*
X2716174Y5405526D01*
X2709976Y5398465D01*
X2702306Y5386933D01*
X2696159Y5374538D01*
X2691688Y5361432D01*
X2688996Y5347817D01*
X2688945Y5346700D01*
X2781300Y5346700D01*
X2781300Y5412232D01*
X2782062Y5416143D01*
X2784297Y5419394D01*
X2787548Y5421630D01*
X2791460Y5422392D01*
X2796540Y5422392D01*
X2800451Y5421630D01*
X2803702Y5419394D01*
X2805938Y5416143D01*
X2806700Y5412232D01*
X2806700Y5346700D01*
X2899054Y5346700D01*
X2899003Y5347817D01*
X2896311Y5361432D01*
X2891840Y5374538D01*
X2885694Y5386933D01*
X2878023Y5398465D01*
X2871825Y5405526D01*
X2869844Y5408879D01*
X2869285Y5412689D01*
X2870200Y5416448D01*
X2872435Y5419547D01*
X2875686Y5421680D01*
X2879445Y5422392D01*
X3123234Y5422392D01*
X3127146Y5421630D01*
X3130448Y5419394D01*
X3132632Y5416143D01*
X3133394Y5412232D01*
X3133394Y5406593D01*
X3134106Y5400243D01*
X3136036Y5394807D01*
X3139084Y5389880D01*
X3143199Y5385816D01*
X3148076Y5382717D01*
X3153562Y5380786D01*
X3159861Y5380075D01*
X3222498Y5380075D01*
X3226409Y5379313D01*
X3229660Y5377129D01*
X3274364Y5332476D01*
X3280562Y5327345D01*
X3287268Y5323789D01*
X3294481Y5321604D01*
X3302508Y5320792D01*
X3568801Y5320792D01*
X3572713Y5319979D01*
X3576065Y5317744D01*
X3581146Y5312562D01*
X3585972Y5309514D01*
X3591458Y5307584D01*
G37*
G36*
X1926945Y5346700D02*
G01*
X2019300Y5346700D01*
X2019300Y5439054D01*
X2018182Y5439003D01*
X2004568Y5436311D01*
X1991461Y5431840D01*
X1979066Y5425694D01*
X1967534Y5418023D01*
X1957120Y5408879D01*
X1947976Y5398465D01*
X1940306Y5386933D01*
X1934159Y5374538D01*
X1929688Y5361432D01*
X1926996Y5347817D01*
G37*
G36*
X2044700Y5346700D02*
G01*
X2137054Y5346700D01*
X2137003Y5347817D01*
X2134311Y5361432D01*
X2129840Y5374538D01*
X2123694Y5386933D01*
X2116023Y5398465D01*
X2106879Y5408879D01*
X2096465Y5418023D01*
X2084933Y5425694D01*
X2072538Y5431840D01*
X2059432Y5436311D01*
X2045817Y5439003D01*
X2044700Y5439054D01*
G37*
G36*
X3818026Y5401868D02*
G01*
X3856634Y5401868D01*
X3856634Y5441696D01*
X3791559Y5441696D01*
X3791559Y5428386D01*
X3792270Y5422036D01*
X3794150Y5416600D01*
X3797249Y5411673D01*
X3801313Y5407609D01*
X3806240Y5404510D01*
X3811676Y5402580D01*
G37*
G36*
X3882034Y5401868D02*
G01*
X3920642Y5401868D01*
X3926941Y5402580D01*
X3932428Y5404510D01*
X3937304Y5407609D01*
X3941419Y5411673D01*
X3944467Y5416600D01*
X3946398Y5422036D01*
X3947109Y5428386D01*
X3947109Y5441696D01*
X3882034Y5441696D01*
G37*
G36*
X5185664Y5473700D02*
G01*
X5448300Y5473700D01*
X5448300Y5736437D01*
X5443677Y5736336D01*
X5420715Y5733948D01*
X5398008Y5729630D01*
X5375757Y5723382D01*
X5354066Y5715355D01*
X5333187Y5705500D01*
X5313172Y5693968D01*
X5294172Y5680760D01*
X5276392Y5666028D01*
X5259882Y5649874D01*
X5244795Y5632348D01*
X5231180Y5613704D01*
X5219242Y5593892D01*
X5208981Y5573217D01*
X5200446Y5551728D01*
X5193792Y5529630D01*
X5188966Y5507024D01*
X5186070Y5484063D01*
G37*
G36*
X105664Y5473700D02*
G01*
X368300Y5473700D01*
X368300Y5736437D01*
X363677Y5736336D01*
X340715Y5733948D01*
X318008Y5729630D01*
X295757Y5723382D01*
X274066Y5715355D01*
X253187Y5705500D01*
X233171Y5693968D01*
X214172Y5680760D01*
X196392Y5666028D01*
X179882Y5649874D01*
X164795Y5632348D01*
X151180Y5613704D01*
X139242Y5593892D01*
X128981Y5573217D01*
X120446Y5551728D01*
X113792Y5529630D01*
X108966Y5507024D01*
X106070Y5484063D01*
G37*
G36*
X5473700Y5473700D02*
G01*
X5736590Y5473700D01*
X5734710Y5495594D01*
X5730849Y5518353D01*
X5725109Y5540756D01*
X5717540Y5562549D01*
X5708142Y5583682D01*
X5697016Y5603900D01*
X5684215Y5623153D01*
X5669838Y5641289D01*
X5654040Y5658104D01*
X5636869Y5673598D01*
X5618480Y5687568D01*
X5598972Y5699912D01*
X5578500Y5710631D01*
X5557164Y5719572D01*
X5535218Y5726734D01*
X5512714Y5732018D01*
X5489854Y5735370D01*
X5473700Y5736386D01*
G37*
G36*
X5588000Y2678125D02*
G01*
X5602528Y2679039D01*
X5616803Y2681732D01*
X5630672Y2686253D01*
X5643829Y2692450D01*
X5656122Y2700223D01*
X5667349Y2709519D01*
X5677306Y2720136D01*
X5685840Y2731922D01*
X5692851Y2744673D01*
X5698236Y2758186D01*
X5701842Y2772308D01*
X5703671Y2786735D01*
X5703671Y2801264D01*
X5701842Y2815691D01*
X5698236Y2829814D01*
X5692851Y2843326D01*
X5685840Y2856077D01*
X5677306Y2867863D01*
X5667349Y2878480D01*
X5656122Y2887776D01*
X5643829Y2895549D01*
X5630672Y2901746D01*
X5616803Y2906268D01*
X5602528Y2908960D01*
X5588000Y2909874D01*
X5573471Y2908960D01*
X5559196Y2906268D01*
X5545328Y2901746D01*
X5532170Y2895549D01*
X5519877Y2887776D01*
X5508650Y2878480D01*
X5498693Y2867863D01*
X5490159Y2856077D01*
X5486908Y2850184D01*
X5484622Y2847390D01*
X5481523Y2845562D01*
X5478018Y2844901D01*
X5150561Y2844901D01*
X5146243Y2845866D01*
X5143500Y2847949D01*
X5140756Y2845866D01*
X5136438Y2844901D01*
X5131308Y2844901D01*
X5126990Y2845866D01*
X5124145Y2847187D01*
X5122062Y2848559D01*
X5117795Y2848762D01*
X5115204Y2849473D01*
X5105400Y2850337D01*
X5095595Y2849473D01*
X5086146Y2846933D01*
X5077206Y2842818D01*
X5069179Y2837180D01*
X5062220Y2830220D01*
X5056581Y2822194D01*
X5052466Y2813253D01*
X5049926Y2803804D01*
X5049062Y2794000D01*
X5049926Y2784195D01*
X5052466Y2774746D01*
X5056581Y2765806D01*
X5062220Y2757779D01*
X5069179Y2750820D01*
X5077206Y2745181D01*
X5086146Y2741066D01*
X5095595Y2738526D01*
X5105400Y2737662D01*
X5115204Y2738526D01*
X5124653Y2741066D01*
X5126990Y2742133D01*
X5131308Y2743098D01*
X5478018Y2743098D01*
X5481523Y2742438D01*
X5484622Y2740609D01*
X5486908Y2737815D01*
X5490159Y2731922D01*
X5498693Y2720136D01*
X5508650Y2709519D01*
X5519877Y2700223D01*
X5532170Y2692450D01*
X5545328Y2686253D01*
X5559196Y2681732D01*
X5573471Y2679039D01*
G37*

%LPD*%
G36*
X1091488Y4991608D02*
G01*
X1087424Y4992420D01*
X1084072Y4994808D01*
X1081938Y4998313D01*
X1081328Y5002377D01*
X1081989Y5013198D01*
X1081074Y5028387D01*
X1078331Y5043322D01*
X1073810Y5057851D01*
X1067562Y5071668D01*
X1059688Y5084724D01*
X1050340Y5096662D01*
X1039571Y5107432D01*
X1027582Y5116779D01*
X1014577Y5124653D01*
X1000658Y5130901D01*
X997508Y5133136D01*
X995426Y5136388D01*
X994664Y5140198D01*
X995426Y5144008D01*
X997508Y5147208D01*
X1000658Y5149443D01*
X1014577Y5155742D01*
X1027582Y5163566D01*
X1030986Y5166207D01*
X1033932Y5167833D01*
X1037234Y5168392D01*
X1946554Y5168392D01*
X1950313Y5167680D01*
X1953564Y5165547D01*
X1955800Y5162448D01*
X1956714Y5158689D01*
X1956155Y5154879D01*
X1954174Y5151526D01*
X1947976Y5144465D01*
X1940306Y5132933D01*
X1934159Y5120538D01*
X1929688Y5107432D01*
X1926996Y5093817D01*
X1926082Y5080000D01*
X1926996Y5066182D01*
X1929688Y5052568D01*
X1934159Y5039461D01*
X1940306Y5027066D01*
X1947976Y5015534D01*
X1954174Y5008473D01*
X1956155Y5005120D01*
X1956714Y5001310D01*
X1955800Y4997551D01*
X1953564Y4994452D01*
X1950313Y4992319D01*
X1946554Y4991608D01*
G37*

%LPD*%
G36*
X1091488Y4737608D02*
G01*
X1087424Y4738420D01*
X1084072Y4740808D01*
X1081938Y4744313D01*
X1081328Y4748377D01*
X1081989Y4759198D01*
X1081074Y4774387D01*
X1078331Y4789322D01*
X1073810Y4803851D01*
X1067562Y4817668D01*
X1059688Y4830724D01*
X1050340Y4842662D01*
X1039571Y4853432D01*
X1027582Y4862779D01*
X1014577Y4870653D01*
X1000658Y4876901D01*
X997508Y4879136D01*
X995426Y4882388D01*
X994664Y4886198D01*
X995426Y4890008D01*
X997508Y4893208D01*
X1000658Y4895443D01*
X1014577Y4901742D01*
X1027582Y4909566D01*
X1030986Y4912207D01*
X1033932Y4913833D01*
X1037234Y4914392D01*
X1946554Y4914392D01*
X1950313Y4913680D01*
X1953564Y4911547D01*
X1955800Y4908448D01*
X1956714Y4904689D01*
X1956155Y4900879D01*
X1954174Y4897526D01*
X1947976Y4890465D01*
X1940306Y4878933D01*
X1934159Y4866538D01*
X1929688Y4853432D01*
X1926996Y4839817D01*
X1926945Y4838700D01*
X2019300Y4838700D01*
X2019300Y4904232D01*
X2020062Y4908143D01*
X2022297Y4911394D01*
X2025548Y4913630D01*
X2029460Y4914392D01*
X2034539Y4914392D01*
X2038451Y4913630D01*
X2041702Y4911394D01*
X2043938Y4908143D01*
X2044700Y4904232D01*
X2044700Y4838700D01*
X2137054Y4838700D01*
X2137003Y4839817D01*
X2134311Y4853432D01*
X2129840Y4866538D01*
X2123694Y4878933D01*
X2116023Y4890465D01*
X2109825Y4897526D01*
X2107844Y4900879D01*
X2107285Y4904689D01*
X2108200Y4908448D01*
X2110435Y4911547D01*
X2113686Y4913680D01*
X2117445Y4914392D01*
X2708554Y4914392D01*
X2712313Y4913680D01*
X2715564Y4911547D01*
X2717800Y4908448D01*
X2718714Y4904689D01*
X2718155Y4900879D01*
X2716174Y4897526D01*
X2709976Y4890465D01*
X2702306Y4878933D01*
X2698038Y4870297D01*
X2695752Y4867300D01*
X2692603Y4865319D01*
X2688894Y4864608D01*
X2458008Y4864608D01*
X2454097Y4865370D01*
X2450795Y4867605D01*
X2449220Y4869180D01*
X2441194Y4874818D01*
X2432253Y4878933D01*
X2422804Y4881473D01*
X2413000Y4882337D01*
X2403195Y4881473D01*
X2393746Y4878933D01*
X2384806Y4874818D01*
X2376779Y4869180D01*
X2369820Y4862220D01*
X2364181Y4854194D01*
X2360066Y4845253D01*
X2357526Y4835804D01*
X2356662Y4826000D01*
X2357526Y4816195D01*
X2360066Y4806746D01*
X2364181Y4797806D01*
X2369820Y4789779D01*
X2376779Y4782820D01*
X2384806Y4777181D01*
X2393746Y4773066D01*
X2403195Y4770526D01*
X2413000Y4769662D01*
X2422804Y4770526D01*
X2432253Y4773066D01*
X2441194Y4777181D01*
X2449220Y4782820D01*
X2450795Y4784394D01*
X2454097Y4786630D01*
X2458008Y4787392D01*
X2688894Y4787392D01*
X2692603Y4786680D01*
X2695752Y4784699D01*
X2698038Y4781702D01*
X2702306Y4773066D01*
X2709976Y4761534D01*
X2716174Y4754473D01*
X2718155Y4751120D01*
X2718714Y4747310D01*
X2717800Y4743551D01*
X2715564Y4740452D01*
X2712313Y4738319D01*
X2708554Y4737608D01*
X2117445Y4737608D01*
X2113686Y4738319D01*
X2110435Y4740452D01*
X2108200Y4743551D01*
X2107285Y4747310D01*
X2107844Y4751120D01*
X2109825Y4754473D01*
X2116023Y4761534D01*
X2123694Y4773066D01*
X2129840Y4785461D01*
X2134311Y4798568D01*
X2137003Y4812182D01*
X2137054Y4813300D01*
X2044700Y4813300D01*
X2044700Y4747768D01*
X2043938Y4743856D01*
X2041702Y4740605D01*
X2038451Y4738370D01*
X2034539Y4737608D01*
X2029460Y4737608D01*
X2025548Y4738370D01*
X2022297Y4740605D01*
X2020062Y4743856D01*
X2019300Y4747768D01*
X2019300Y4813300D01*
X1926945Y4813300D01*
X1926996Y4812182D01*
X1929688Y4798568D01*
X1934159Y4785461D01*
X1940306Y4773066D01*
X1947976Y4761534D01*
X1954174Y4754473D01*
X1956155Y4751120D01*
X1956714Y4747310D01*
X1955800Y4743551D01*
X1953564Y4740452D01*
X1950313Y4738319D01*
X1946554Y4737608D01*
G37*

%LPD*%
G36*
X2110282Y3721608D02*
G01*
X2106320Y3722420D01*
X2102967Y3724757D01*
X2100783Y3728212D01*
X2100122Y3732225D01*
X2101138Y3736136D01*
X2112822Y3749751D01*
X2119985Y3760520D01*
X2125726Y3772103D01*
X2129891Y3784396D01*
X2132431Y3797096D01*
X2133244Y3810000D01*
X2132431Y3822903D01*
X2129891Y3835603D01*
X2125726Y3847896D01*
X2119985Y3859479D01*
X2112822Y3870248D01*
X2104288Y3880002D01*
X2094534Y3888536D01*
X2083765Y3895699D01*
X2072132Y3901440D01*
X2059889Y3905605D01*
X2047189Y3908145D01*
X2033930Y3909009D01*
X1998065Y3909009D01*
X1984806Y3908145D01*
X1972106Y3905605D01*
X1959864Y3901440D01*
X1948230Y3895699D01*
X1937461Y3888536D01*
X1927707Y3880002D01*
X1919173Y3870248D01*
X1912010Y3859479D01*
X1909419Y3854297D01*
X1907184Y3851300D01*
X1903984Y3849319D01*
X1900326Y3848608D01*
X1353108Y3848608D01*
X1349197Y3849370D01*
X1345895Y3851605D01*
X1344320Y3853179D01*
X1336294Y3858818D01*
X1327353Y3862933D01*
X1317904Y3865473D01*
X1308100Y3866337D01*
X1298295Y3865473D01*
X1288846Y3862933D01*
X1279906Y3858818D01*
X1271879Y3853179D01*
X1264920Y3846220D01*
X1259281Y3838194D01*
X1255166Y3829253D01*
X1252626Y3819804D01*
X1251762Y3810000D01*
X1252626Y3800195D01*
X1253236Y3797909D01*
X1253540Y3794201D01*
X1252474Y3790645D01*
X1250188Y3787698D01*
X1247038Y3785768D01*
X1243431Y3785108D01*
X1081582Y3785108D01*
X1077823Y3785819D01*
X1074572Y3787952D01*
X1072337Y3791102D01*
X1067562Y3801668D01*
X1059688Y3814724D01*
X1050340Y3826662D01*
X1039571Y3837432D01*
X1027582Y3846779D01*
X1014577Y3854653D01*
X1000658Y3860901D01*
X997508Y3863136D01*
X995426Y3866387D01*
X994664Y3870198D01*
X995426Y3874008D01*
X997508Y3877208D01*
X1000658Y3879443D01*
X1014577Y3885742D01*
X1027582Y3893565D01*
X1039571Y3902964D01*
X1050340Y3913733D01*
X1059688Y3925671D01*
X1067562Y3938676D01*
X1073810Y3952544D01*
X1074470Y3954729D01*
X1076604Y3958488D01*
X1080008Y3960977D01*
X1084173Y3961892D01*
X1326591Y3961892D01*
X1330502Y3961129D01*
X1333804Y3958894D01*
X1335379Y3957320D01*
X1343406Y3951681D01*
X1352346Y3947566D01*
X1361795Y3945026D01*
X1371600Y3944162D01*
X1381404Y3945026D01*
X1390853Y3947566D01*
X1399794Y3951681D01*
X1407820Y3957320D01*
X1414780Y3964279D01*
X1420418Y3972306D01*
X1424533Y3981246D01*
X1427073Y3990695D01*
X1427937Y4000500D01*
X1427073Y4010304D01*
X1424533Y4019753D01*
X1420418Y4028694D01*
X1414780Y4036720D01*
X1407820Y4043679D01*
X1399794Y4049318D01*
X1390853Y4053433D01*
X1381404Y4055973D01*
X1371600Y4056837D01*
X1361795Y4055973D01*
X1352346Y4053433D01*
X1343406Y4049318D01*
X1335379Y4043679D01*
X1333804Y4042105D01*
X1330502Y4039870D01*
X1326591Y4039108D01*
X1081582Y4039108D01*
X1077823Y4039819D01*
X1074572Y4041952D01*
X1072337Y4045102D01*
X1067562Y4055668D01*
X1059688Y4068724D01*
X1050340Y4080662D01*
X1039571Y4091432D01*
X1027582Y4100779D01*
X1014577Y4108653D01*
X1000658Y4114901D01*
X997508Y4117136D01*
X995426Y4120387D01*
X994664Y4124198D01*
X995426Y4128008D01*
X997508Y4131208D01*
X1000658Y4133443D01*
X1014577Y4139742D01*
X1027582Y4147565D01*
X1039571Y4156964D01*
X1050340Y4167733D01*
X1059688Y4179671D01*
X1067562Y4192676D01*
X1073810Y4206595D01*
X1076045Y4209745D01*
X1079296Y4211878D01*
X1083106Y4212590D01*
X1263091Y4212590D01*
X1267002Y4211828D01*
X1270304Y4209592D01*
X1271879Y4208018D01*
X1279906Y4202379D01*
X1288846Y4198264D01*
X1298295Y4195724D01*
X1308100Y4194860D01*
X1317904Y4195724D01*
X1327353Y4198264D01*
X1336294Y4202379D01*
X1344320Y4208018D01*
X1351280Y4214977D01*
X1356918Y4223004D01*
X1361033Y4231944D01*
X1363573Y4241393D01*
X1364437Y4251198D01*
X1363573Y4261002D01*
X1361033Y4270451D01*
X1356918Y4279392D01*
X1351280Y4287418D01*
X1344320Y4294378D01*
X1336294Y4300016D01*
X1327353Y4304131D01*
X1317904Y4306671D01*
X1308100Y4307535D01*
X1298295Y4306671D01*
X1288846Y4304131D01*
X1279906Y4300016D01*
X1271879Y4294378D01*
X1270304Y4292803D01*
X1267002Y4290568D01*
X1263091Y4289806D01*
X1083056Y4289806D01*
X1079296Y4290517D01*
X1076045Y4292650D01*
X1073810Y4295800D01*
X1067562Y4309668D01*
X1059688Y4322724D01*
X1050340Y4334662D01*
X1039571Y4345432D01*
X1027582Y4354779D01*
X1014577Y4362653D01*
X1000658Y4368901D01*
X997508Y4371136D01*
X995426Y4374388D01*
X994664Y4378198D01*
X995426Y4382008D01*
X997508Y4385208D01*
X1000658Y4387443D01*
X1014577Y4393742D01*
X1027582Y4401566D01*
X1030986Y4404207D01*
X1033932Y4405833D01*
X1037234Y4406392D01*
X1921713Y4406392D01*
X1925726Y4405579D01*
X1929079Y4403242D01*
X1931212Y4399788D01*
X1931873Y4395774D01*
X1930857Y4391863D01*
X1919173Y4378248D01*
X1912010Y4367479D01*
X1906270Y4355896D01*
X1902104Y4343603D01*
X1899564Y4330903D01*
X1898751Y4318000D01*
X1899564Y4305096D01*
X1902104Y4292396D01*
X1906270Y4280103D01*
X1912010Y4268520D01*
X1919173Y4257751D01*
X1927707Y4247997D01*
X1937461Y4239463D01*
X1948230Y4232249D01*
X1959864Y4226560D01*
X1972106Y4222394D01*
X1984806Y4219854D01*
X1998065Y4218990D01*
X2033930Y4218990D01*
X2047189Y4219854D01*
X2059889Y4222394D01*
X2072132Y4226560D01*
X2083765Y4232249D01*
X2094534Y4239463D01*
X2104288Y4247997D01*
X2112822Y4257751D01*
X2119985Y4268520D01*
X2122576Y4273702D01*
X2124811Y4276699D01*
X2128012Y4278680D01*
X2131669Y4279392D01*
X2571191Y4279392D01*
X2575102Y4278630D01*
X2578404Y4276394D01*
X2579979Y4274820D01*
X2588006Y4269181D01*
X2596946Y4265066D01*
X2606395Y4262526D01*
X2616200Y4261662D01*
X2626004Y4262526D01*
X2635453Y4265066D01*
X2644394Y4269181D01*
X2652420Y4274820D01*
X2659380Y4281779D01*
X2665018Y4289806D01*
X2669133Y4298746D01*
X2671673Y4308195D01*
X2672638Y4318000D01*
X2671673Y4327804D01*
X2669133Y4337253D01*
X2665018Y4346194D01*
X2659380Y4354220D01*
X2652420Y4361180D01*
X2644394Y4366818D01*
X2635453Y4370933D01*
X2626004Y4373473D01*
X2616200Y4374337D01*
X2606395Y4373473D01*
X2596946Y4370933D01*
X2588006Y4366818D01*
X2579979Y4361180D01*
X2578404Y4359605D01*
X2575102Y4357370D01*
X2571191Y4356608D01*
X2131669Y4356608D01*
X2128012Y4357319D01*
X2124811Y4359300D01*
X2122576Y4362297D01*
X2119985Y4367479D01*
X2112822Y4378248D01*
X2101138Y4391863D01*
X2100122Y4395774D01*
X2100783Y4399788D01*
X2102967Y4403242D01*
X2106269Y4405579D01*
X2110282Y4406392D01*
X2715717Y4406392D01*
X2719730Y4405579D01*
X2723032Y4403242D01*
X2725216Y4399788D01*
X2725877Y4395774D01*
X2724861Y4391863D01*
X2713177Y4378248D01*
X2706014Y4367479D01*
X2700274Y4355896D01*
X2696108Y4343603D01*
X2693568Y4330903D01*
X2692755Y4318609D01*
X2693568Y4305096D01*
X2696108Y4292396D01*
X2700274Y4280103D01*
X2706014Y4268520D01*
X2713177Y4257751D01*
X2724861Y4244136D01*
X2725877Y4240225D01*
X2725216Y4236212D01*
X2723032Y4232757D01*
X2719679Y4230420D01*
X2715717Y4229608D01*
X2540508Y4229608D01*
X2532481Y4228795D01*
X2525268Y4226610D01*
X2518562Y4223054D01*
X2512364Y4217924D01*
X2399995Y4105605D01*
X2396693Y4103370D01*
X2392781Y4102608D01*
X2131669Y4102608D01*
X2128012Y4103319D01*
X2124811Y4105300D01*
X2122576Y4108297D01*
X2119985Y4113479D01*
X2112822Y4124248D01*
X2104288Y4134002D01*
X2094534Y4142536D01*
X2083765Y4149699D01*
X2072132Y4155440D01*
X2059889Y4159605D01*
X2047189Y4162145D01*
X2033930Y4163009D01*
X1998065Y4163009D01*
X1984806Y4162145D01*
X1972106Y4159605D01*
X1959864Y4155440D01*
X1948230Y4149699D01*
X1937461Y4142536D01*
X1927707Y4134002D01*
X1919173Y4124248D01*
X1912010Y4113479D01*
X1906270Y4101896D01*
X1902104Y4089603D01*
X1899564Y4076903D01*
X1898751Y4064000D01*
X1899564Y4051096D01*
X1902104Y4038396D01*
X1906270Y4026103D01*
X1912010Y4014520D01*
X1919173Y4003751D01*
X1927707Y3993997D01*
X1937461Y3985463D01*
X1948230Y3978249D01*
X1959864Y3972560D01*
X1972106Y3968394D01*
X1984806Y3965854D01*
X1998065Y3964990D01*
X2033930Y3964990D01*
X2047189Y3965854D01*
X2059889Y3968394D01*
X2072132Y3972560D01*
X2083765Y3978249D01*
X2094534Y3985463D01*
X2104288Y3993997D01*
X2112822Y4003751D01*
X2119985Y4014520D01*
X2122576Y4019702D01*
X2124811Y4022699D01*
X2128012Y4024680D01*
X2131669Y4025392D01*
X2412492Y4025392D01*
X2420518Y4026204D01*
X2427732Y4028389D01*
X2434437Y4031945D01*
X2440635Y4037076D01*
X2553004Y4149394D01*
X2556306Y4151629D01*
X2560218Y4152392D01*
X2715717Y4152392D01*
X2719730Y4151579D01*
X2723032Y4149242D01*
X2725216Y4145787D01*
X2725877Y4141774D01*
X2724861Y4137863D01*
X2713177Y4124248D01*
X2706014Y4113479D01*
X2703423Y4108297D01*
X2701188Y4105300D01*
X2697988Y4103319D01*
X2694330Y4102608D01*
X2661208Y4102608D01*
X2657297Y4103370D01*
X2653995Y4105605D01*
X2652420Y4107179D01*
X2644394Y4112818D01*
X2635453Y4116933D01*
X2626004Y4119473D01*
X2616200Y4120337D01*
X2606395Y4119473D01*
X2596946Y4116933D01*
X2588006Y4112818D01*
X2579979Y4107179D01*
X2573020Y4100220D01*
X2567381Y4092194D01*
X2563266Y4083253D01*
X2560726Y4073804D01*
X2559862Y4064000D01*
X2560726Y4054195D01*
X2563266Y4044746D01*
X2567381Y4035806D01*
X2573020Y4027779D01*
X2579979Y4020820D01*
X2588006Y4015181D01*
X2596946Y4011066D01*
X2606395Y4008526D01*
X2616200Y4007662D01*
X2626004Y4008526D01*
X2635453Y4011066D01*
X2644394Y4015181D01*
X2652420Y4020820D01*
X2653995Y4022394D01*
X2657297Y4024629D01*
X2661208Y4025392D01*
X2694330Y4025392D01*
X2697988Y4024680D01*
X2701188Y4022699D01*
X2703423Y4019702D01*
X2706014Y4014520D01*
X2713177Y4003751D01*
X2721711Y3993997D01*
X2731465Y3985463D01*
X2742234Y3978249D01*
X2753868Y3972560D01*
X2766110Y3968394D01*
X2778810Y3965854D01*
X2792069Y3964990D01*
X2827934Y3964990D01*
X2841193Y3965854D01*
X2846730Y3966413D01*
X2849880Y3965448D01*
X2852572Y3963517D01*
X2906064Y3910076D01*
X2912262Y3904945D01*
X2918968Y3901389D01*
X2926181Y3899204D01*
X2934208Y3898392D01*
X3318713Y3898392D01*
X3322726Y3897579D01*
X3326079Y3895242D01*
X3328212Y3891787D01*
X3328873Y3887774D01*
X3327857Y3883863D01*
X3316173Y3870248D01*
X3309010Y3859479D01*
X3306419Y3854297D01*
X3304184Y3851300D01*
X3300984Y3849319D01*
X3297326Y3848608D01*
X3220008Y3848608D01*
X3216097Y3849370D01*
X3212795Y3851605D01*
X3211220Y3853179D01*
X3203194Y3858818D01*
X3194253Y3862933D01*
X3184804Y3865473D01*
X3175000Y3866337D01*
X3165195Y3865473D01*
X3155746Y3862933D01*
X3146806Y3858818D01*
X3138779Y3853179D01*
X3131820Y3846220D01*
X3126181Y3838194D01*
X3122066Y3829253D01*
X3119526Y3819804D01*
X3118662Y3810000D01*
X3119526Y3800195D01*
X3122066Y3790746D01*
X3126181Y3781806D01*
X3131820Y3773779D01*
X3138779Y3766820D01*
X3146806Y3761181D01*
X3155746Y3757066D01*
X3165195Y3754526D01*
X3175000Y3753662D01*
X3184804Y3754526D01*
X3194253Y3757066D01*
X3203194Y3761181D01*
X3211220Y3766820D01*
X3212795Y3768394D01*
X3216097Y3770629D01*
X3220008Y3771392D01*
X3297326Y3771392D01*
X3300984Y3770680D01*
X3304184Y3768699D01*
X3306419Y3765702D01*
X3309010Y3760520D01*
X3316173Y3749751D01*
X3327857Y3736136D01*
X3328873Y3732225D01*
X3328212Y3728212D01*
X3326079Y3724757D01*
X3322726Y3722420D01*
X3318713Y3721608D01*
X2904286Y3721608D01*
X2900273Y3722420D01*
X2896971Y3724757D01*
X2894787Y3728212D01*
X2894126Y3732225D01*
X2895142Y3736136D01*
X2906826Y3749751D01*
X2913989Y3760520D01*
X2919730Y3772103D01*
X2923895Y3784396D01*
X2926435Y3797096D01*
X2927248Y3810000D01*
X2926435Y3822903D01*
X2923895Y3835603D01*
X2919730Y3847896D01*
X2913989Y3859479D01*
X2906826Y3870248D01*
X2898292Y3880002D01*
X2888538Y3888536D01*
X2877769Y3895699D01*
X2866136Y3901440D01*
X2853893Y3905605D01*
X2841193Y3908145D01*
X2827934Y3909009D01*
X2792069Y3909009D01*
X2778810Y3908145D01*
X2766110Y3905605D01*
X2753868Y3901440D01*
X2742234Y3895699D01*
X2731465Y3888536D01*
X2721711Y3880002D01*
X2713177Y3870248D01*
X2706014Y3859479D01*
X2703423Y3854297D01*
X2701188Y3851300D01*
X2697988Y3849319D01*
X2694330Y3848608D01*
X2413508Y3848608D01*
X2405481Y3847795D01*
X2398268Y3845610D01*
X2391562Y3842054D01*
X2385364Y3836924D01*
X2272995Y3724605D01*
X2269693Y3722370D01*
X2265781Y3721608D01*
G37*

%LPD*%
D10*
X4978400Y5270500D02*
G01*
X4842484Y5270500D01*
X3835400Y965200D02*
G01*
X4978400Y965200D01*
X3369309Y5651500D02*
G01*
X4207002Y5651500D01*
X3209315Y5461000D02*
G01*
X3209315Y5651500D01*
X3649065Y5359400D02*
G01*
X3302000Y5359400D01*
X3209315Y5452084D01*
X3209315Y5461000D01*
X4080763Y5555995D02*
G01*
X3612895Y5555995D01*
X3517900Y5461000D01*
X3369309Y5461000D01*
X4207002Y5366004D02*
G01*
X4080763Y5366004D01*
X4301134Y5461000D02*
G01*
X4682515Y5461000D01*
X4682490Y5270500D02*
G01*
X4676393Y5264404D01*
X3869334Y5264404D01*
X4682515Y5461000D02*
G01*
X4842509Y5620994D01*
X4842509Y5651500D01*
X4682490Y5270500D02*
G01*
X4842509Y5430520D01*
X4842509Y5461000D01*
X2032000Y5588000D02*
G01*
X2159000Y5461000D01*
X3209315Y5461000D01*
X2222500Y5588000D02*
G01*
X2794000Y5588000D01*
X2032000Y5080000D02*
G01*
X2222500Y5080000D01*
D11*
X3048000Y5588000D02*
G01*
X2794000Y5588000D01*
D10*
X2413000Y762000D02*
G01*
X4089400Y762000D01*
X2794000Y4826000D02*
G01*
X2413000Y4826000D01*
X2616200Y5080000D02*
G01*
X2794000Y5080000D01*
D11*
X3048000Y4318000D02*
G01*
X2809999Y4318000D01*
D10*
X4207002Y3302000D02*
G01*
X4343400Y3302000D01*
D11*
X4206999Y5118100D02*
G01*
X3048000Y5118100D01*
X4207002Y5118100D02*
G01*
X5588000Y5118100D01*
D10*
X5588000Y3810000D02*
G01*
X5461000Y3937000D01*
X4334002Y3937000D01*
X4207002Y3810000D01*
X4025900Y3556000D02*
G01*
X4207002Y3556000D01*
X2810002Y4064000D02*
G01*
X2810002Y4060697D01*
X2933700Y3937000D01*
X4025900Y3937000D01*
X1181100Y2362200D02*
G01*
X959357Y2362200D01*
X956055Y2358897D01*
X4025900Y1714500D02*
G01*
X1181100Y1714500D01*
X1244600Y2108200D02*
G01*
X959357Y2108200D01*
X956055Y2104897D01*
X3962400Y1778000D02*
G01*
X1244600Y1778000D01*
X4207002Y2286000D02*
G01*
X4025900Y2286000D01*
X4207002Y2540000D02*
G01*
X3962400Y2540000D01*
X3898900Y1841500D02*
G01*
X965504Y1841500D01*
X956106Y1850897D01*
X4207002Y2794000D02*
G01*
X3898900Y2794000D01*
X3835400Y1600200D02*
G01*
X959408Y1600200D01*
X956106Y1596897D01*
X4207002Y3048000D02*
G01*
X3835400Y3048000D01*
X3581400Y5207000D02*
G01*
X1016284Y5207000D01*
X956083Y5267200D01*
X3412997Y2794000D02*
G01*
X3581400Y2794000D01*
X3644900Y4953000D02*
G01*
X1016254Y4953000D01*
X956053Y5013200D01*
X3412997Y2540000D02*
G01*
X3644900Y2540000D01*
X3708400Y4699000D02*
G01*
X1016279Y4699000D01*
X956081Y4759197D01*
X3412997Y2286000D02*
G01*
X3708400Y2286000D01*
X3771900Y4445000D02*
G01*
X1016279Y4445000D01*
X956081Y4505197D01*
X4207002Y2032000D02*
G01*
X3771900Y2032000D01*
X2984500Y965200D02*
G01*
X2565400Y965200D01*
X3048000Y901700D02*
G01*
X2819400Y901700D01*
X3175000Y901700D02*
G01*
X3327400Y901700D01*
X3238500Y965200D02*
G01*
X3581400Y965200D01*
X3412997Y4064000D02*
G01*
X3238500Y4064000D01*
X3412997Y3810000D02*
G01*
X3175000Y3810000D01*
X3111500Y482600D02*
G01*
X3073400Y444500D01*
X3412997Y3556000D02*
G01*
X3111500Y3556000D01*
X3412997Y3302000D02*
G01*
X3048000Y3302000D01*
X3412997Y3048000D02*
G01*
X2984500Y3048000D01*
X2810002Y3556000D02*
G01*
X2810002Y3539997D01*
X2921000Y3429000D01*
X5080000Y3429000D01*
X2810002Y3048000D02*
G01*
X2937002Y2921000D01*
X5143500Y2921000D01*
X2810002Y2540000D02*
G01*
X2937002Y2413000D01*
X5207000Y2413000D01*
X2810002Y2032000D02*
G01*
X2937002Y1905000D01*
X5270500Y1905000D01*
X5270500Y3048000D02*
G01*
X4826000Y3048000D01*
X5207000Y3556000D02*
G01*
X4826000Y3556000D01*
X5143500Y4064000D02*
G01*
X4826000Y4064000D01*
X5080000Y4572000D02*
G01*
X4826000Y4572000D01*
X2616200Y4318000D02*
G01*
X2015997Y4318000D01*
X2810002Y4064000D02*
G01*
X2616200Y4064000D01*
X2015997Y4064000D02*
G01*
X2413000Y4064000D01*
X2540000Y4191000D01*
X4432300Y4191000D01*
X4559300Y4318000D01*
X2015997Y2540000D02*
G01*
X2413000Y2540000D01*
X2540000Y2667000D01*
X4432300Y2667000D01*
X4559300Y2794000D01*
X2015997Y3048000D02*
G01*
X2413000Y3048000D01*
X2540000Y3175000D01*
X4432300Y3175000D01*
X4559300Y3302000D01*
X2015997Y3556000D02*
G01*
X2413000Y3556000D01*
X2540000Y3683000D01*
X4432300Y3683000D01*
X4559300Y3810000D01*
X1308100Y4251197D02*
G01*
X956055Y4251197D01*
X2015997Y3810000D02*
G01*
X1308100Y3810000D01*
X1371600Y4000500D02*
G01*
X959383Y4000500D01*
X956081Y3997197D01*
X2810002Y3810000D02*
G01*
X2413000Y3810000D01*
X2286000Y3683000D01*
X1371600Y3683000D01*
X1435100Y3746500D02*
G01*
X959383Y3746500D01*
X956081Y3743197D01*
X2015997Y3302000D02*
G01*
X1435100Y3302000D01*
X1498600Y3492500D02*
G01*
X959383Y3492500D01*
X956081Y3489197D01*
X2810002Y3302000D02*
G01*
X2413000Y3302000D01*
X2286000Y3175000D01*
X1498600Y3175000D01*
X1308100Y584200D02*
G01*
X959357Y584200D01*
X956055Y580897D01*
X2810002Y2286000D02*
G01*
X2413000Y2286000D01*
X2286000Y2159000D01*
X1308100Y2159000D01*
X1371600Y838200D02*
G01*
X959408Y838200D01*
X956106Y834897D01*
X2015997Y2286000D02*
G01*
X1371600Y2286000D01*
X1435100Y1092200D02*
G01*
X959408Y1092200D01*
X956106Y1088897D01*
X2810002Y2794000D02*
G01*
X2413000Y2794000D01*
X2286000Y2667000D01*
X1435100Y2667000D01*
X1498600Y1342897D02*
G01*
X956055Y1342897D01*
X2015997Y2794000D02*
G01*
X1498600Y2794000D01*
X5372100Y1692910D02*
G01*
X5105400Y1692910D01*
D11*
X5105400Y2794000D02*
G01*
X5588000Y2794000D01*
D10*
X4826000Y2794000D02*
G01*
X4559300Y2794000D01*
X4826000Y3048000D02*
G01*
X4559300Y3048000D01*
X4826000Y3302000D02*
G01*
X4559300Y3302000D01*
X4826000Y3556000D02*
G01*
X4559300Y3556000D01*
X4826000Y3810000D02*
G01*
X4559300Y3810000D01*
X4826000Y4064000D02*
G01*
X4559300Y4064000D01*
X4826000Y4318000D02*
G01*
X4559300Y4318000D01*
X4826000Y4572000D02*
G01*
X4559300Y4572000D01*
D11*
X5105400Y762000D02*
G01*
X5588000Y762000D01*
D10*
X5372100Y1532917D02*
G01*
X5377103Y1527906D01*
X5575300Y1527906D01*
D12*
G01*
X3869325Y5264400D03*
G01*
X3869325Y5454399D03*
G01*
X3649074Y5359400D03*
D13*
G01*
X4842509Y5461000D03*
G01*
X4682515Y5461000D03*
G01*
X4842509Y5651500D03*
G01*
X4682515Y5651500D03*
G01*
X3369309Y5461000D03*
G01*
X3209315Y5461000D03*
G01*
X3369309Y5651500D03*
G01*
X3209315Y5651500D03*
G01*
X4682490Y5270500D03*
G01*
X4842484Y5270500D03*
D14*
G01*
X5575300Y1697913D03*
G01*
X5575300Y1527911D03*
D15*
G01*
X5372100Y1692910D03*
G01*
X5372100Y1532915D03*
D16*
G01*
X4080874Y5555999D03*
G01*
X4080874Y5366000D03*
G01*
X4301125Y5461000D03*
D17*
G01*
X2032000Y5588000D03*
D18*
G01*
X2032000Y5334000D03*
G01*
X2032000Y5080000D03*
G01*
X2032000Y4826000D03*
G01*
X2794000Y4826000D03*
G01*
X2794000Y5080000D03*
G01*
X2794000Y5334000D03*
G01*
X2794000Y5588000D03*
D19*
G01*
X3412997Y4826000D03*
G01*
X4207002Y4826000D03*
G01*
X3412997Y4572000D03*
G01*
X4207002Y4572000D03*
G01*
X3412997Y4318000D03*
G01*
X4207002Y4318000D03*
G01*
X3412997Y4064000D03*
G01*
X4207002Y4064000D03*
G01*
X3412997Y3810000D03*
G01*
X4207002Y3810000D03*
G01*
X3412997Y3556000D03*
G01*
X4207002Y3556000D03*
G01*
X3412997Y3302000D03*
G01*
X4207002Y3302000D03*
G01*
X3412997Y3048000D03*
G01*
X4207002Y3048000D03*
G01*
X3412997Y2794000D03*
G01*
X4207002Y2794000D03*
G01*
X3412997Y2540000D03*
G01*
X4207002Y2540000D03*
G01*
X3412997Y2286000D03*
G01*
X4207002Y2286000D03*
G01*
X3412997Y2032000D03*
G01*
X4207002Y2032000D03*
G01*
X2015997Y4318000D03*
G01*
X2810002Y4318000D03*
G01*
X2015997Y4064000D03*
G01*
X2810002Y4064000D03*
G01*
X2015997Y3810000D03*
G01*
X2810002Y3810000D03*
G01*
X2015997Y3556000D03*
G01*
X2810002Y3556000D03*
G01*
X2015997Y3302000D03*
G01*
X2810002Y3302000D03*
G01*
X2015997Y3048000D03*
G01*
X2810002Y3048000D03*
G01*
X2015997Y2794000D03*
G01*
X2810002Y2794000D03*
G01*
X2015997Y2540000D03*
G01*
X2810002Y2540000D03*
G01*
X2015997Y2286000D03*
G01*
X2810002Y2286000D03*
G01*
X2015997Y2032000D03*
G01*
X2810002Y2032000D03*
D20*
G01*
X4826000Y2794000D03*
G01*
X4826000Y3048000D03*
G01*
X4826000Y3302000D03*
G01*
X4826000Y3556000D03*
G01*
X4826000Y3810000D03*
G01*
X4826000Y4064000D03*
G01*
X4826000Y4318000D03*
G01*
X4826000Y4572000D03*
G01*
X5588000Y2794000D03*
G01*
X5588000Y3048000D03*
G01*
X5588000Y3302000D03*
G01*
X5588000Y3556000D03*
G01*
X5588000Y3810000D03*
G01*
X5588000Y4064000D03*
G01*
X5588000Y4318000D03*
G01*
X5588000Y4572000D03*
D21*
G01*
X4559300Y4826000D03*
D22*
G01*
X4559300Y4572000D03*
G01*
X4559300Y4318000D03*
G01*
X4559300Y4064000D03*
G01*
X4559300Y3810000D03*
G01*
X4559300Y3556000D03*
G01*
X4559300Y3302000D03*
G01*
X4559300Y3048000D03*
G01*
X4559300Y2794000D03*
G01*
X4559300Y2540000D03*
D23*
G01*
X5461000Y381000D03*
G01*
X381000Y381000D03*
G01*
X381000Y5461000D03*
G01*
X5461000Y5461000D03*
D24*
G01*
X956081Y3489197D03*
G01*
X956081Y3743197D03*
G01*
X956081Y3997197D03*
G01*
X956081Y4251197D03*
G01*
X956081Y4505197D03*
G01*
X956081Y4759197D03*
G01*
X956081Y5013197D03*
G01*
X956081Y5267197D03*
G01*
X956106Y2358897D03*
G01*
X956106Y2104897D03*
G01*
X956106Y1850897D03*
G01*
X956106Y1596897D03*
G01*
X956106Y1342897D03*
G01*
X956106Y1088897D03*
G01*
X956106Y834897D03*
G01*
X956106Y580897D03*
D20*
G01*
X5588000Y1016000D03*
G01*
X5334000Y1016000D03*
G01*
X5334000Y1270000D03*
G01*
X5588000Y1270000D03*
D24*
G01*
X4343400Y444500D03*
G01*
X4089400Y444500D03*
G01*
X3835400Y444500D03*
G01*
X3581400Y444500D03*
G01*
X3327400Y444500D03*
G01*
X3073400Y444500D03*
G01*
X2819400Y444500D03*
G01*
X2565400Y444500D03*
D25*
G01*
X5588000Y762000D03*
G01*
X5105400Y762000D03*
G01*
X5105400Y2794000D03*
G01*
X5105400Y1692910D03*
G01*
X1498600Y2794000D03*
G01*
X1498600Y1342897D03*
G01*
X1435100Y2667000D03*
G01*
X1435100Y1092200D03*
G01*
X1371600Y2286000D03*
G01*
X1371600Y838200D03*
G01*
X1308100Y2159000D03*
G01*
X1308100Y584200D03*
G01*
X1498600Y3175000D03*
G01*
X1498600Y3492500D03*
G01*
X1435100Y3302000D03*
G01*
X1435100Y3746500D03*
G01*
X1371600Y3683000D03*
G01*
X1371600Y4000500D03*
G01*
X1308100Y3810000D03*
G01*
X1308100Y4251197D03*
G01*
X2616200Y4064000D03*
G01*
X2616200Y4318000D03*
G01*
X5080000Y3429000D03*
G01*
X5080000Y4572000D03*
G01*
X5143500Y2921000D03*
G01*
X5143500Y4064000D03*
G01*
X5207000Y2413000D03*
G01*
X5207000Y3556000D03*
G01*
X5270500Y1905000D03*
G01*
X5270500Y3048000D03*
G01*
X2984500Y3048000D03*
G01*
X2984500Y965200D03*
G01*
X3048000Y3302000D03*
G01*
X3048000Y901700D03*
G01*
X3111500Y3556000D03*
G01*
X3175000Y3810000D03*
G01*
X3175000Y901700D03*
G01*
X3238500Y4064000D03*
G01*
X3238500Y965200D03*
G01*
X3581400Y965200D03*
G01*
X3327400Y901700D03*
G01*
X2819400Y901700D03*
G01*
X2565400Y965200D03*
G01*
X3771900Y2032000D03*
G01*
X3771900Y4445000D03*
G01*
X3708400Y2286000D03*
G01*
X3708400Y4699000D03*
G01*
X3644900Y2540000D03*
G01*
X3644900Y4953000D03*
G01*
X3581400Y2794000D03*
G01*
X3581400Y5207000D03*
G01*
X3835400Y3048000D03*
G01*
X3835400Y1600200D03*
G01*
X3898900Y2794000D03*
G01*
X3898900Y1841500D03*
G01*
X3962400Y2540000D03*
G01*
X3962400Y1778000D03*
G01*
X4025900Y2286000D03*
G01*
X4025900Y1714500D03*
G01*
X1244600Y1778000D03*
G01*
X1244600Y2108200D03*
G01*
X1181100Y1714500D03*
G01*
X1181100Y2362200D03*
G01*
X4025900Y3937000D03*
G01*
X4025900Y3556000D03*
G01*
X5588000Y5118100D03*
G01*
X4207002Y5118100D03*
G01*
X3048000Y5118100D03*
G01*
X4343400Y3302000D03*
G01*
X3048000Y4318000D03*
G01*
X2616200Y5080000D03*
G01*
X4089400Y762000D03*
G01*
X2413000Y4826000D03*
G01*
X2413000Y762000D03*
G01*
X3048000Y5588000D03*
G01*
X2222500Y5080000D03*
G01*
X2222500Y5588000D03*
G01*
X3835400Y965200D03*
G01*
X4978400Y965200D03*
G01*
X4978400Y5270500D03*
G01*
X1308100Y4381500D03*
G01*
X1308100Y5092700D03*
G01*
X4207002Y5366004D03*
G01*
X4207002Y5651500D03*
M02*
