G04 Layer: BottomSilkscreenLayer*
G04 Panelize: , Column: 2, Row: 2, Board Size: 58.42mm x 58.42mm, Panelized Board Size: 118.84mm x 118.84mm*
G04 EasyEDA v6.5.34, 2023-09-05 23:31:59*
G04 3ff1d21ffa584fb08a1032706516b83c,5a6b42c53f6a479593ecc07194224c93,10*
G04 Gerber Generator version 0.2*
G04 Scale: 100 percent, Rotated: No, Reflected: No *
G04 Dimensions in millimeters *
G04 leading zeros omitted , absolute positions ,4 integer and 5 decimal *
%FSLAX45Y45*%
%MOMM*%

%ADD10C,0.1524*%
%ADD11C,0.1520*%
%ADD12C,0.2540*%

%LPD*%
D10*
X4443267Y698962D02*
G01*
X4448464Y709353D01*
X4458855Y719744D01*
X4469244Y724938D01*
X4490026Y724938D01*
X4500417Y719744D01*
X4510808Y709353D01*
X4516005Y698962D01*
X4521200Y683374D01*
X4521200Y657397D01*
X4516005Y641812D01*
X4510808Y631421D01*
X4500417Y621029D01*
X4490026Y615835D01*
X4469244Y615835D01*
X4458855Y621029D01*
X4448464Y631421D01*
X4443267Y641812D01*
X4377804Y724938D02*
G01*
X4388195Y719744D01*
X4398586Y709353D01*
X4403783Y698962D01*
X4408977Y683374D01*
X4408977Y657397D01*
X4403783Y641812D01*
X4398586Y631421D01*
X4388195Y621029D01*
X4377804Y615835D01*
X4357024Y615835D01*
X4346633Y621029D01*
X4336242Y631421D01*
X4331045Y641812D01*
X4325851Y657397D01*
X4325851Y683374D01*
X4331045Y698962D01*
X4336242Y709353D01*
X4346633Y719744D01*
X4357024Y724938D01*
X4377804Y724938D01*
X4291561Y724938D02*
G01*
X4291561Y615835D01*
X4291561Y724938D02*
G01*
X4244802Y724938D01*
X4229214Y719744D01*
X4224020Y714547D01*
X4218825Y704156D01*
X4218825Y688571D01*
X4224020Y678179D01*
X4229214Y672985D01*
X4244802Y667788D01*
X4291561Y667788D01*
X4184535Y724938D02*
G01*
X4142971Y672985D01*
X4142971Y615835D01*
X4101406Y724938D02*
G01*
X4142971Y672985D01*
X4067116Y724938D02*
G01*
X4067116Y615835D01*
X4067116Y724938D02*
G01*
X4020357Y724938D01*
X4004772Y719744D01*
X3999575Y714547D01*
X3994381Y704156D01*
X3994381Y693765D01*
X3999575Y683374D01*
X4004772Y678179D01*
X4020357Y672985D01*
X4067116Y672985D01*
X4030748Y672985D02*
G01*
X3994381Y615835D01*
X3960091Y724938D02*
G01*
X3960091Y615835D01*
X3847868Y698962D02*
G01*
X3853065Y709353D01*
X3863454Y719744D01*
X3873845Y724938D01*
X3894627Y724938D01*
X3905018Y719744D01*
X3915409Y709353D01*
X3920604Y698962D01*
X3925801Y683374D01*
X3925801Y657397D01*
X3920604Y641812D01*
X3915409Y631421D01*
X3905018Y621029D01*
X3894627Y615835D01*
X3873845Y615835D01*
X3863454Y621029D01*
X3853065Y631421D01*
X3847868Y641812D01*
X3847868Y657397D01*
X3873845Y657397D02*
G01*
X3847868Y657397D01*
X3813578Y724938D02*
G01*
X3813578Y615835D01*
X3740843Y724938D02*
G01*
X3740843Y615835D01*
X3813578Y672985D02*
G01*
X3740843Y672985D01*
X3670185Y724938D02*
G01*
X3670185Y615835D01*
X3706553Y724938D02*
G01*
X3633815Y724938D01*
X3514321Y698962D02*
G01*
X3514321Y704156D01*
X3509124Y714547D01*
X3503929Y719744D01*
X3493538Y724938D01*
X3472756Y724938D01*
X3462365Y719744D01*
X3457171Y714547D01*
X3451974Y704156D01*
X3451974Y693765D01*
X3457171Y683374D01*
X3467562Y667788D01*
X3519515Y615835D01*
X3446779Y615835D01*
X3381316Y724938D02*
G01*
X3396904Y719744D01*
X3407295Y704156D01*
X3412490Y678179D01*
X3412490Y662594D01*
X3407295Y636615D01*
X3396904Y621029D01*
X3381316Y615835D01*
X3370925Y615835D01*
X3355340Y621029D01*
X3344948Y636615D01*
X3339754Y662594D01*
X3339754Y678179D01*
X3344948Y704156D01*
X3355340Y719744D01*
X3370925Y724938D01*
X3381316Y724938D01*
X3300267Y698962D02*
G01*
X3300267Y704156D01*
X3295073Y714547D01*
X3289876Y719744D01*
X3279485Y724938D01*
X3258705Y724938D01*
X3248314Y719744D01*
X3243117Y714547D01*
X3237923Y704156D01*
X3237923Y693765D01*
X3243117Y683374D01*
X3253508Y667788D01*
X3305464Y615835D01*
X3232726Y615835D01*
X3188045Y724938D02*
G01*
X3130895Y724938D01*
X3162068Y683374D01*
X3146483Y683374D01*
X3136092Y678179D01*
X3130895Y672985D01*
X3125701Y657397D01*
X3125701Y647006D01*
X3130895Y631421D01*
X3141286Y621029D01*
X3156874Y615835D01*
X3172459Y615835D01*
X3188045Y621029D01*
X3193242Y626224D01*
X3198436Y636615D01*
X3011401Y724938D02*
G01*
X2969836Y615835D01*
X2928274Y724938D02*
G01*
X2969836Y615835D01*
X2893984Y724938D02*
G01*
X2893984Y615835D01*
X2893984Y724938D02*
G01*
X2826443Y724938D01*
X2893984Y672985D02*
G01*
X2852420Y672985D01*
X2893984Y615835D02*
G01*
X2826443Y615835D01*
X2719415Y724938D02*
G01*
X2771371Y615835D01*
X2792153Y724938D02*
G01*
X2719415Y724938D01*
X2685125Y724938D02*
G01*
X2685125Y615835D01*
X2685125Y724938D02*
G01*
X2617584Y724938D01*
X2685125Y672985D02*
G01*
X2643563Y672985D01*
X2583294Y724938D02*
G01*
X2583294Y615835D01*
X2549004Y724938D02*
G01*
X2549004Y615835D01*
X2549004Y724938D02*
G01*
X2507442Y615835D01*
X2465877Y724938D02*
G01*
X2507442Y615835D01*
X2465877Y724938D02*
G01*
X2465877Y615835D01*
D11*
X3999344Y229638D02*
G01*
X3999344Y146512D01*
X4004541Y130924D01*
X4009735Y125729D01*
X4020126Y120535D01*
X4030517Y120535D01*
X4040908Y125729D01*
X4046105Y130924D01*
X4051300Y146512D01*
X4051300Y156903D01*
X3965054Y229638D02*
G01*
X3965054Y120535D01*
X3965054Y120535D02*
G01*
X3902709Y120535D01*
X3790487Y203662D02*
G01*
X3795684Y214053D01*
X3806075Y224444D01*
X3816464Y229638D01*
X3837246Y229638D01*
X3847637Y224444D01*
X3858028Y214053D01*
X3863225Y203662D01*
X3868420Y188074D01*
X3868420Y162097D01*
X3863225Y146512D01*
X3858028Y136121D01*
X3847637Y125729D01*
X3837246Y120535D01*
X3816464Y120535D01*
X3806075Y125729D01*
X3795684Y136121D01*
X3790487Y146512D01*
X3704244Y229638D02*
G01*
X3704244Y146512D01*
X3709438Y130924D01*
X3714635Y125729D01*
X3725024Y120535D01*
X3735415Y120535D01*
X3745806Y125729D01*
X3751003Y130924D01*
X3756197Y146512D01*
X3756197Y156903D01*
X3669954Y229638D02*
G01*
X3669954Y120535D01*
X3669954Y120535D02*
G01*
X3607607Y120535D01*
X3495385Y203662D02*
G01*
X3500582Y214053D01*
X3510973Y224444D01*
X3521364Y229638D01*
X3542144Y229638D01*
X3552535Y224444D01*
X3562926Y214053D01*
X3568123Y203662D01*
X3573317Y188074D01*
X3573317Y162097D01*
X3568123Y146512D01*
X3562926Y136121D01*
X3552535Y125729D01*
X3542144Y120535D01*
X3521364Y120535D01*
X3510973Y125729D01*
X3500582Y136121D01*
X3495385Y146512D01*
X3409142Y229638D02*
G01*
X3409142Y146512D01*
X3414336Y130924D01*
X3419533Y125729D01*
X3429924Y120535D01*
X3440315Y120535D01*
X3450704Y125729D01*
X3455901Y130924D01*
X3461095Y146512D01*
X3461095Y156903D01*
X3374852Y229638D02*
G01*
X3374852Y120535D01*
X3374852Y120535D02*
G01*
X3312505Y120535D01*
X3200285Y203662D02*
G01*
X3205479Y214053D01*
X3215871Y224444D01*
X3226262Y229638D01*
X3247044Y229638D01*
X3257435Y224444D01*
X3267824Y214053D01*
X3273021Y203662D01*
X3278215Y188074D01*
X3278215Y162097D01*
X3273021Y146512D01*
X3267824Y136121D01*
X3257435Y125729D01*
X3247044Y120535D01*
X3226262Y120535D01*
X3215871Y125729D01*
X3205479Y136121D01*
X3200285Y146512D01*
X3114040Y229638D02*
G01*
X3114040Y146512D01*
X3119234Y130924D01*
X3124431Y125729D01*
X3134822Y120535D01*
X3145213Y120535D01*
X3155604Y125729D01*
X3160798Y130924D01*
X3165995Y146512D01*
X3165995Y156903D01*
X3079750Y229638D02*
G01*
X3079750Y120535D01*
X3079750Y120535D02*
G01*
X3017405Y120535D01*
X2905183Y203662D02*
G01*
X2910377Y214053D01*
X2920768Y224444D01*
X2931159Y229638D01*
X2951942Y229638D01*
X2962333Y224444D01*
X2972724Y214053D01*
X2977918Y203662D01*
X2983115Y188074D01*
X2983115Y162097D01*
X2977918Y146512D01*
X2972724Y136121D01*
X2962333Y125729D01*
X2951942Y120535D01*
X2931159Y120535D01*
X2920768Y125729D01*
X2910377Y136121D01*
X2905183Y146512D01*
D10*
X2268608Y5615426D02*
G01*
X2273152Y5624517D01*
X2282243Y5633608D01*
X2291336Y5638154D01*
X2309517Y5638154D01*
X2318608Y5633608D01*
X2327699Y5624517D01*
X2332243Y5615426D01*
X2336789Y5601792D01*
X2336789Y5579064D01*
X2332243Y5565427D01*
X2327699Y5556336D01*
X2318608Y5547245D01*
X2309517Y5542699D01*
X2291336Y5542699D01*
X2282243Y5547245D01*
X2273152Y5556336D01*
X2268608Y5565427D01*
X2238608Y5619973D02*
G01*
X2229518Y5624517D01*
X2215880Y5638154D01*
X2215880Y5542699D01*
X3058355Y3919169D02*
G01*
X3062899Y3928259D01*
X3071990Y3937350D01*
X3081083Y3941897D01*
X3099264Y3941897D01*
X3108355Y3937350D01*
X3117446Y3928259D01*
X3121990Y3919169D01*
X3126536Y3905534D01*
X3126536Y3882806D01*
X3121990Y3869169D01*
X3117446Y3860078D01*
X3108355Y3850987D01*
X3099264Y3846441D01*
X3081083Y3846441D01*
X3071990Y3850987D01*
X3062899Y3860078D01*
X3058355Y3869169D01*
X3023809Y3919169D02*
G01*
X3023809Y3923715D01*
X3019264Y3932806D01*
X3014718Y3937350D01*
X3005627Y3941897D01*
X2987446Y3941897D01*
X2978355Y3937350D01*
X2973809Y3932806D01*
X2969265Y3923715D01*
X2969265Y3914625D01*
X2973809Y3905534D01*
X2982899Y3891897D01*
X3028355Y3846441D01*
X2964718Y3846441D01*
X3678308Y4853426D02*
G01*
X3682852Y4862517D01*
X3691943Y4871608D01*
X3701036Y4876154D01*
X3719217Y4876154D01*
X3728308Y4871608D01*
X3737399Y4862517D01*
X3741943Y4853426D01*
X3746489Y4839792D01*
X3746489Y4817064D01*
X3741943Y4803427D01*
X3737399Y4794336D01*
X3728308Y4785245D01*
X3719217Y4780699D01*
X3701036Y4780699D01*
X3691943Y4785245D01*
X3682852Y4794336D01*
X3678308Y4803427D01*
X3639218Y4876154D02*
G01*
X3589218Y4876154D01*
X3616490Y4839792D01*
X3602852Y4839792D01*
X3593762Y4835245D01*
X3589218Y4830698D01*
X3584671Y4817064D01*
X3584671Y4807973D01*
X3589218Y4794336D01*
X3598308Y4785245D01*
X3611943Y4780699D01*
X3625580Y4780699D01*
X3639218Y4785245D01*
X3643762Y4789792D01*
X3648308Y4798882D01*
D12*
X2653601Y5548022D02*
G01*
X2653601Y5628025D01*
X2542626Y5517037D02*
G01*
X2622623Y5517037D01*
X2542626Y5659003D02*
G01*
X2622623Y5659003D01*
X2485036Y5516455D02*
G01*
X2405039Y5516455D01*
X2374054Y5547438D02*
G01*
X2374054Y5627436D01*
X2485036Y5658416D02*
G01*
X2405039Y5658416D01*
X3087977Y4253801D02*
G01*
X3007974Y4253801D01*
X3118962Y4142826D02*
G01*
X3118962Y4222823D01*
X2976996Y4142826D02*
G01*
X2976996Y4222823D01*
X3119544Y4085236D02*
G01*
X3119544Y4005239D01*
X3088561Y3974254D02*
G01*
X3008563Y3974254D01*
X2977583Y4085236D02*
G01*
X2977583Y4005239D01*
X4063301Y4786022D02*
G01*
X4063301Y4866025D01*
X3952326Y4755037D02*
G01*
X4032323Y4755037D01*
X3952326Y4897003D02*
G01*
X4032323Y4897003D01*
X3894736Y4754455D02*
G01*
X3814739Y4754455D01*
X3783754Y4785438D02*
G01*
X3783754Y4865436D01*
X3894736Y4896416D02*
G01*
X3814739Y4896416D01*
G75*
G01*
X2374049Y5547439D02*
G03*
X2405032Y5516456I30983J0D01*
G75*
G01*
X2405032Y5658422D02*
G03*
X2374049Y5627436I0J-30983D01*
G75*
G01*
X2622619Y5517037D02*
G03*
X2653601Y5548023I0J30983D01*
G75*
G01*
X2653601Y5628020D02*
G03*
X2622619Y5659003I-30982J0D01*
G75*
G01*
X3088561Y3974249D02*
G03*
X3119544Y4005232I0J30983D01*
G75*
G01*
X2977578Y4005232D02*
G03*
X3008564Y3974249I30983J0D01*
G75*
G01*
X3118963Y4222819D02*
G03*
X3087977Y4253801I-30983J0D01*
G75*
G01*
X3007980Y4253801D02*
G03*
X2976997Y4222819I0J-30982D01*
G75*
G01*
X3783749Y4785439D02*
G03*
X3814732Y4754456I30983J0D01*
G75*
G01*
X3814732Y4896422D02*
G03*
X3783749Y4865436I0J-30983D01*
G75*
G01*
X4032319Y4755037D02*
G03*
X4063301Y4786023I0J30983D01*
G75*
G01*
X4063301Y4866020D02*
G03*
X4032319Y4897003I-30982J0D01*
G75*
G01
X1058799Y2908300D02*
G03X1058799Y2908300I-499999J0D01*
X5207000Y1397000D02*
G01*
X5715000Y1397000D01*
X5715000Y889000D01*
X5207000Y889000D01*
X5207000Y1397000D01*
M02*
