M48
METRIC,LZ,000.000
;FILE_FORMAT=3:3
;TYPE=PLATED
;Layer: PTH_Through_Via
;EasyEDA v6.5.34, 2023-09-05 23:35:40
;bcb9dca7cd424f9e9e9865ef008c09cf,5a6b42c53f6a479593ecc07194224c93,10
;Gerber Generator version 0.2
;Holesize 1 = 0.305 mm
T01C0.305
%
G05
G90
T01
X007620Y006985
X007620Y002540
X019050Y004699
X019050Y006985
X033655Y048260
X033655Y022860
X035560Y051562
X035560Y026162
X019050Y030480
X035560Y030480
X033655Y031750
X026670Y050800
X026670Y048260
X032258Y045720
X032258Y047625
X025146Y040640
X025146Y043180
X025781Y038100
X025781Y041275
X026416Y035560
X026416Y040640
X032258Y033020
X032258Y038100
X026670Y027940
X026670Y022860
X032258Y025400
X032258Y020320
X031115Y004699
X035560Y004699
X031496Y019685
X031496Y017780
X025781Y022860
X025781Y020320
X032258Y010160
X032258Y012700
X026289Y012700
X026289Y015240
X024257Y049530
X024257Y046990
X024257Y044450
X024257Y041910
X024257Y039370
X024257Y036830
X024257Y034290
X024257Y031750
X024257Y029204
X024257Y026670
X024257Y024130
X024257Y021590
X024257Y019050
X024257Y016510
X024257Y013970
X024257Y011430
X024257Y008890
X033655Y029083
X028194Y029083
X028194Y010922
M30
