M48
METRIC,LZ,000.000
;FILE_FORMAT=3:3
;TYPE=PLATED
;Layer: PTH_Through
;EasyEDA v6.5.34, 2023-09-05 23:35:40
;bcb9dca7cd424f9e9e9865ef008c09cf,5a6b42c53f6a479593ecc07194224c93,10
;Gerber Generator version 0.2
;Holesize 1 = 0.305 mm
T01C0.305
;Holesize 2 = 0.915 mm
T02C0.915
;Holesize 3 = 1.101 mm
T03C1.101
;Holesize 4 = 1.301 mm
T04C1.301
;Holesize 5 = 3.000 mm
T05C3.000
%
G05
G90
T01
X007620Y006985
X007620Y002540
X019050Y004699
X019050Y006985
X033655Y048260
X033655Y022860
X035560Y051562
X035560Y026162
X019050Y030480
X035560Y030480
X033655Y031750
X026670Y050800
X026670Y048260
X032258Y045720
X032258Y047625
X025146Y040640
X025146Y043180
X025781Y038100
X025781Y041275
X026416Y035560
X026416Y040640
X032258Y033020
X032258Y038100
X026670Y027940
X026670Y022860
X032258Y025400
X032258Y020320
X031115Y004699
X035560Y004699
X031496Y019685
X031496Y017780
X025781Y022860
X025781Y020320
X032258Y010160
X032258Y012700
X026289Y012700
X026289Y015240
X024257Y049530
X024257Y046990
X024257Y044450
X024257Y041910
X024257Y039370
X024257Y036830
X024257Y034290
X024257Y031750
X024257Y029204
X024257Y026670
X024257Y024130
X024257Y021590
X024257Y019050
X024257Y016510
X024257Y013970
X024257Y011430
X024257Y008890
X033655Y029083
X028194Y029083
X028194Y010922
T02
X006350Y049530
X008890Y049530
X006350Y046990
X008890Y046990
X008890Y041910
X006350Y041910
X008890Y044450
X006350Y044450
X006350Y034290
X008890Y034290
X006350Y031750
X008890Y031750
X008890Y036830
X006350Y036830
X008890Y039370
X006350Y039370
X006350Y016510
X008890Y016510
X006350Y013970
X008890Y013970
X008890Y008890
X006350Y008890
X008890Y011430
X006350Y011430
X006350Y021590
X008890Y021590
X006350Y019050
X008890Y019050
X008890Y024130
X006350Y024130
X008890Y026670
X006350Y026670
T03
X019050Y049530
X019050Y046990
X019050Y044450
X019050Y041910
X019050Y039370
X019050Y036830
X019050Y034290
X019050Y031750
X011430Y049530
X011430Y046990
X011430Y044450
X011430Y041910
X011430Y039370
X011430Y036830
X011430Y034290
X011430Y031750
X019050Y026670
X019050Y024130
X019050Y021590
X019050Y019050
X019050Y016510
X019050Y013970
X019050Y011430
X019050Y008890
X011430Y026670
X011430Y024130
X011430Y021590
X011430Y019050
X011430Y016510
X011430Y013970
X011430Y011430
X011430Y008890
X010160Y002540
X010160Y005080
X012700Y005080
X012700Y002540
T04
X048859Y052559
X048859Y050019
X048859Y047479
X048859Y044939
X048859Y042399
X048859Y039859
X048859Y037319
X048859Y034779
X048859Y005696
X048859Y008236
X048859Y010776
X048859Y013316
X048859Y015856
X048859Y018396
X048859Y020936
X048859Y023476
X031115Y006858
X028575Y006858
X026035Y006858
X033655Y006858
T05
X054610Y003810
X003810Y003810
X003810Y054610
X054610Y054610
M30
