G04 Layer: TopSolderMaskLayer*
G04 Panelize: V-CUT, Column: 2, Row: 2, Board Size: 58.42mm x 58.42mm, Panelized Board Size: 118.84mm x 118.84mm*
G04 EasyEDA v6.5.34, 2023-09-05 23:35:40*
G04 bcb9dca7cd424f9e9e9865ef008c09cf,5a6b42c53f6a479593ecc07194224c93,10*
G04 Gerber Generator version 0.2*
G04 Scale: 100 percent, Rotated: No, Reflected: No *
G04 Dimensions in millimeters *
G04 leading zeros omitted , absolute positions ,4 integer and 5 decimal *
%FSLAX45Y45*%
%MOMM*%

%AMMACRO1*1,1,$1,$2,$3*1,1,$1,$4,$5*1,1,$1,0-$2,0-$3*1,1,$1,0-$4,0-$5*20,1,$1,$2,$3,$4,$5,0*20,1,$1,$4,$5,0-$2,0-$3,0*20,1,$1,0-$2,0-$3,0-$4,0-$5,0*20,1,$1,0-$4,0-$5,$2,$3,0*4,1,4,$2,$3,$4,$5,0-$2,0-$3,0-$4,0-$5,$2,$3,0*%
%ADD10MACRO1,0.2032X0.45X0.5X0.45X-0.5*%
%ADD11MACRO1,0.2032X-0.5X0.55X0.5X0.55*%
%ADD12MACRO1,0.2032X0.5X-0.55X-0.5X-0.55*%
%ADD13MACRO1,0.1016X0.4X-0.45X-0.4X-0.45*%
%ADD14O,2.4615902X0.696595*%
%ADD15C,1.9016*%
%ADD16C,5.2032*%
%ADD17C,2.1016*%
%ADD18C,1.7272*%
%ADD19C,1.6256*%
%ADD20C,3.0000*%

%LPD*%
D10*
G01*
X3691808Y1016007D03*
G01*
X3521809Y1016007D03*
D11*
G01*
X3128007Y2908300D03*
G01*
X2968007Y2908300D03*
D12*
G01*
X2142492Y4953000D03*
G01*
X2302492Y4953000D03*
G01*
X2142492Y4699000D03*
G01*
X2302492Y4699000D03*
G01*
X2142492Y4445000D03*
G01*
X2302492Y4445000D03*
G01*
X2142492Y4191000D03*
G01*
X2302492Y4191000D03*
G01*
X2142492Y3937000D03*
G01*
X2302492Y3937000D03*
G01*
X2142492Y3683000D03*
G01*
X2302492Y3683000D03*
G01*
X2142492Y3429000D03*
G01*
X2302492Y3429000D03*
G01*
X2142492Y3175000D03*
G01*
X2302492Y3175000D03*
G01*
X2142492Y2921000D03*
G01*
X2302492Y2921000D03*
G01*
X2142492Y2667000D03*
G01*
X2302492Y2667000D03*
G01*
X2142492Y2413000D03*
G01*
X2302492Y2413000D03*
G01*
X2142492Y2159000D03*
G01*
X2302492Y2159000D03*
G01*
X2142492Y1905000D03*
G01*
X2302492Y1905000D03*
G01*
X2142492Y1651000D03*
G01*
X2302492Y1651000D03*
G01*
X2142492Y1397000D03*
G01*
X2302492Y1397000D03*
G01*
X2142492Y1143000D03*
G01*
X2302492Y1143000D03*
D13*
G01*
X3765400Y2616200D03*
G01*
X3905399Y2616200D03*
D12*
G01*
X2967992Y3175000D03*
G01*
X3127992Y3175000D03*
D13*
G01*
X3765400Y5156200D03*
G01*
X3905399Y5156200D03*
D14*
G01*
X2829001Y4953000D03*
G01*
X2829001Y4826000D03*
G01*
X2829001Y4699000D03*
G01*
X2829001Y4572000D03*
G01*
X2829001Y4445000D03*
G01*
X2829001Y4318000D03*
G01*
X2829001Y4191000D03*
G01*
X2829001Y4064000D03*
G01*
X2829001Y3937000D03*
G01*
X2829001Y3810000D03*
G01*
X3774998Y4953000D03*
G01*
X3774998Y4826000D03*
G01*
X3774998Y4699000D03*
G01*
X3774998Y4572000D03*
G01*
X3774998Y4445000D03*
G01*
X3774998Y4318000D03*
G01*
X3774998Y4191000D03*
G01*
X3774998Y4064000D03*
G01*
X3774998Y3937000D03*
G01*
X3774998Y3810000D03*
G01*
X2829001Y2413000D03*
G01*
X2829001Y2286000D03*
G01*
X2829001Y2159000D03*
G01*
X2829001Y2032000D03*
G01*
X2829001Y1905000D03*
G01*
X2829001Y1778000D03*
G01*
X2829001Y1651000D03*
G01*
X2829001Y1524000D03*
G01*
X2829001Y1397000D03*
G01*
X2829001Y1270000D03*
G01*
X3774998Y2413000D03*
G01*
X3774998Y2286000D03*
G01*
X3774998Y2159000D03*
G01*
X3774998Y2032000D03*
G01*
X3774998Y1905000D03*
G01*
X3774998Y1778000D03*
G01*
X3774998Y1651000D03*
G01*
X3774998Y1524000D03*
G01*
X3774998Y1397000D03*
G01*
X3774998Y1270000D03*
D11*
G01*
X1692907Y469900D03*
G01*
X1532907Y469900D03*
D10*
G01*
X1697908Y266707D03*
G01*
X1527909Y266707D03*
D15*
G01*
X1905000Y4953000D03*
G01*
X1905000Y4699000D03*
G01*
X1905000Y4445000D03*
G01*
X1905000Y4191000D03*
G01*
X1905000Y3937000D03*
G01*
X1905000Y3683000D03*
G01*
X1905000Y3429000D03*
G01*
X1905000Y3175000D03*
G01*
X1143000Y4953000D03*
G01*
X1143000Y4699000D03*
G01*
X1143000Y4445000D03*
G01*
X1143000Y4191000D03*
G01*
X1143000Y3937000D03*
G01*
X1143000Y3683000D03*
G01*
X1143000Y3429000D03*
G01*
X1143000Y3175000D03*
G01*
X1905000Y2667000D03*
G01*
X1905000Y2413000D03*
G01*
X1905000Y2159000D03*
G01*
X1905000Y1905000D03*
G01*
X1905000Y1651000D03*
G01*
X1905000Y1397000D03*
G01*
X1905000Y1143000D03*
G01*
X1905000Y889000D03*
G01*
X1143000Y2667000D03*
G01*
X1143000Y2413000D03*
G01*
X1143000Y2159000D03*
G01*
X1143000Y1905000D03*
G01*
X1143000Y1651000D03*
G01*
X1143000Y1397000D03*
G01*
X1143000Y1143000D03*
G01*
X1143000Y889000D03*
D12*
G01*
X262892Y4953000D03*
G01*
X422892Y4953000D03*
G01*
X262892Y4699000D03*
G01*
X422892Y4699000D03*
G01*
X262892Y4445000D03*
G01*
X422892Y4445000D03*
G01*
X262892Y4191000D03*
G01*
X422892Y4191000D03*
G01*
X262892Y3937000D03*
G01*
X422892Y3937000D03*
G01*
X262892Y3683000D03*
G01*
X422892Y3683000D03*
G01*
X262892Y3429000D03*
G01*
X422892Y3429000D03*
G01*
X262892Y3175000D03*
G01*
X422892Y3175000D03*
G01*
X262892Y2667000D03*
G01*
X422892Y2667000D03*
G01*
X262892Y2413000D03*
G01*
X422892Y2413000D03*
G01*
X262892Y2159000D03*
G01*
X422892Y2159000D03*
G01*
X262892Y1905000D03*
G01*
X422892Y1905000D03*
G01*
X262892Y1651000D03*
G01*
X422892Y1651000D03*
G01*
X262892Y1397000D03*
G01*
X422892Y1397000D03*
G01*
X262892Y1143000D03*
G01*
X422892Y1143000D03*
G01*
X262892Y889000D03*
G01*
X422892Y889000D03*
D16*
G01*
X5461000Y381000D03*
G01*
X381000Y381000D03*
G01*
X381000Y5461000D03*
G01*
X5461000Y5461000D03*
D17*
G01*
X4885893Y5255895D03*
G01*
X4885893Y5001895D03*
G01*
X4885893Y4747895D03*
G01*
X4885893Y4493895D03*
G01*
X4885893Y4239895D03*
G01*
X4885893Y3985895D03*
G01*
X4885893Y3731895D03*
G01*
X4885893Y3477895D03*
G01*
X4885918Y569595D03*
G01*
X4885918Y823595D03*
G01*
X4885918Y1077595D03*
G01*
X4885918Y1331595D03*
G01*
X4885918Y1585595D03*
G01*
X4885918Y1839595D03*
G01*
X4885918Y2093595D03*
G01*
X4885918Y2347595D03*
D18*
G01*
X635000Y4953000D03*
G01*
X889000Y4953000D03*
G01*
X635000Y4699000D03*
G01*
X889000Y4699000D03*
G01*
X889000Y4191000D03*
G01*
X635000Y4191000D03*
G01*
X889000Y4445000D03*
G01*
X635000Y4445000D03*
G01*
X635000Y3429000D03*
G01*
X889000Y3429000D03*
G01*
X635000Y3175000D03*
D19*
G01*
X889000Y3175000D03*
D18*
G01*
X889000Y3683000D03*
G01*
X635000Y3683000D03*
G01*
X889000Y3937000D03*
G01*
X635000Y3937000D03*
G01*
X635000Y1651000D03*
G01*
X889000Y1651000D03*
G01*
X635000Y1397000D03*
G01*
X889000Y1397000D03*
G01*
X889000Y889000D03*
G01*
X635000Y889000D03*
G01*
X889000Y1143000D03*
G01*
X635000Y1143000D03*
G01*
X635000Y2159000D03*
G01*
X889000Y2159000D03*
G01*
X635000Y1905000D03*
G01*
X889000Y1905000D03*
G01*
X889000Y2413000D03*
G01*
X635000Y2413000D03*
G01*
X889000Y2667000D03*
G01*
X635000Y2667000D03*
D15*
G01*
X1016000Y254000D03*
G01*
X1016000Y508000D03*
G01*
X1270000Y508000D03*
G01*
X1270000Y254000D03*
D17*
G01*
X3111500Y685800D03*
G01*
X2857500Y685800D03*
G01*
X2603500Y685800D03*
G01*
X3365500Y685800D03*
D20*
G01*
X999997Y6041999D03*
G01*
X10884001Y6041999D03*
G01*
X1499996Y-6241999D03*
G01*
X10384002Y-6241999D03*
M02*
