G04 Layer: BottomSolderMaskLayer*
G04 Panelize: V-CUT, Column: 2, Row: 2, Board Size: 58.42mm x 58.42mm, Panelized Board Size: 118.84mm x 118.84mm*
G04 EasyEDA v6.5.34, 2023-09-05 23:35:40*
G04 bcb9dca7cd424f9e9e9865ef008c09cf,5a6b42c53f6a479593ecc07194224c93,10*
G04 Gerber Generator version 0.2*
G04 Scale: 100 percent, Rotated: No, Reflected: No *
G04 Dimensions in millimeters *
G04 leading zeros omitted , absolute positions ,4 integer and 5 decimal *
%FSLAX45Y45*%
%MOMM*%

%ADD10C,1.9016*%
%ADD11C,5.2032*%
%ADD12C,2.1016*%
%ADD13C,1.7272*%
%ADD14C,1.6256*%
%ADD15C,3.0000*%

%LPD*%
D10*
G01*
X1905000Y4953000D03*
G01*
X1905000Y4699000D03*
G01*
X1905000Y4445000D03*
G01*
X1905000Y4191000D03*
G01*
X1905000Y3937000D03*
G01*
X1905000Y3683000D03*
G01*
X1905000Y3429000D03*
G01*
X1905000Y3175000D03*
G01*
X1143000Y4953000D03*
G01*
X1143000Y4699000D03*
G01*
X1143000Y4445000D03*
G01*
X1143000Y4191000D03*
G01*
X1143000Y3937000D03*
G01*
X1143000Y3683000D03*
G01*
X1143000Y3429000D03*
G01*
X1143000Y3175000D03*
G01*
X1905000Y2667000D03*
G01*
X1905000Y2413000D03*
G01*
X1905000Y2159000D03*
G01*
X1905000Y1905000D03*
G01*
X1905000Y1651000D03*
G01*
X1905000Y1397000D03*
G01*
X1905000Y1143000D03*
G01*
X1905000Y889000D03*
G01*
X1143000Y2667000D03*
G01*
X1143000Y2413000D03*
G01*
X1143000Y2159000D03*
G01*
X1143000Y1905000D03*
G01*
X1143000Y1651000D03*
G01*
X1143000Y1397000D03*
G01*
X1143000Y1143000D03*
G01*
X1143000Y889000D03*
D11*
G01*
X5461000Y381000D03*
G01*
X381000Y381000D03*
G01*
X381000Y5461000D03*
G01*
X5461000Y5461000D03*
D12*
G01*
X4885893Y5255895D03*
G01*
X4885893Y5001895D03*
G01*
X4885893Y4747895D03*
G01*
X4885893Y4493895D03*
G01*
X4885893Y4239895D03*
G01*
X4885893Y3985895D03*
G01*
X4885893Y3731895D03*
G01*
X4885893Y3477895D03*
G01*
X4885918Y569595D03*
G01*
X4885918Y823595D03*
G01*
X4885918Y1077595D03*
G01*
X4885918Y1331595D03*
G01*
X4885918Y1585595D03*
G01*
X4885918Y1839595D03*
G01*
X4885918Y2093595D03*
G01*
X4885918Y2347595D03*
D13*
G01*
X635000Y4953000D03*
G01*
X889000Y4953000D03*
G01*
X635000Y4699000D03*
G01*
X889000Y4699000D03*
G01*
X889000Y4191000D03*
G01*
X635000Y4191000D03*
G01*
X889000Y4445000D03*
G01*
X635000Y4445000D03*
G01*
X635000Y3429000D03*
G01*
X889000Y3429000D03*
G01*
X635000Y3175000D03*
D14*
G01*
X889000Y3175000D03*
D13*
G01*
X889000Y3683000D03*
G01*
X635000Y3683000D03*
G01*
X889000Y3937000D03*
G01*
X635000Y3937000D03*
G01*
X635000Y1651000D03*
G01*
X889000Y1651000D03*
G01*
X635000Y1397000D03*
G01*
X889000Y1397000D03*
G01*
X889000Y889000D03*
G01*
X635000Y889000D03*
G01*
X889000Y1143000D03*
G01*
X635000Y1143000D03*
G01*
X635000Y2159000D03*
G01*
X889000Y2159000D03*
G01*
X635000Y1905000D03*
G01*
X889000Y1905000D03*
G01*
X889000Y2413000D03*
G01*
X635000Y2413000D03*
G01*
X889000Y2667000D03*
G01*
X635000Y2667000D03*
D10*
G01*
X1016000Y254000D03*
G01*
X1016000Y508000D03*
G01*
X1270000Y508000D03*
G01*
X1270000Y254000D03*
D12*
G01*
X3111500Y685800D03*
G01*
X2857500Y685800D03*
G01*
X2603500Y685800D03*
G01*
X3365500Y685800D03*
D15*
G01*
X999997Y6041999D03*
G01*
X10884001Y6041999D03*
G01*
X1499996Y-6241999D03*
G01*
X10384002Y-6241999D03*
M02*
