G04 Layer: TopPasteMaskLayer*
G04 Panelize: V-CUT, Column: 2, Row: 2, Board Size: 58.42mm x 58.42mm, Panelized Board Size: 118.84mm x 118.84mm*
G04 EasyEDA v6.5.34, 2023-09-05 23:35:40*
G04 bcb9dca7cd424f9e9e9865ef008c09cf,5a6b42c53f6a479593ecc07194224c93,10*
G04 Gerber Generator version 0.2*
G04 Scale: 100 percent, Rotated: No, Reflected: No *
G04 Dimensions in millimeters *
G04 leading zeros omitted , absolute positions ,4 integer and 5 decimal *
%FSLAX45Y45*%
%MOMM*%

%ADD10R,0.8999X1.0000*%
%ADD11R,1.0000X1.1000*%
%ADD12R,0.8000X0.9000*%
%ADD13O,2.3599902X0.5949949999999999*%

%LPD*%
D10*
G01*
X3691813Y1016000D03*
G01*
X3521811Y1016000D03*
D11*
G01*
X3128009Y2908300D03*
G01*
X2968015Y2908300D03*
G01*
X2142490Y4953000D03*
G01*
X2302484Y4953000D03*
G01*
X2142490Y4699000D03*
G01*
X2302484Y4699000D03*
G01*
X2142490Y4445000D03*
G01*
X2302484Y4445000D03*
G01*
X2142490Y4191000D03*
G01*
X2302484Y4191000D03*
G01*
X2142490Y3937000D03*
G01*
X2302484Y3937000D03*
G01*
X2142490Y3683000D03*
G01*
X2302484Y3683000D03*
G01*
X2142490Y3429000D03*
G01*
X2302484Y3429000D03*
G01*
X2142490Y3175000D03*
G01*
X2302484Y3175000D03*
G01*
X2142490Y2921000D03*
G01*
X2302484Y2921000D03*
G01*
X2142490Y2667000D03*
G01*
X2302484Y2667000D03*
G01*
X2142490Y2413000D03*
G01*
X2302484Y2413000D03*
G01*
X2142490Y2159000D03*
G01*
X2302484Y2159000D03*
G01*
X2142490Y1905000D03*
G01*
X2302484Y1905000D03*
G01*
X2142490Y1651000D03*
G01*
X2302484Y1651000D03*
G01*
X2142490Y1397000D03*
G01*
X2302484Y1397000D03*
G01*
X2142490Y1143000D03*
G01*
X2302484Y1143000D03*
D12*
G01*
X3765397Y2616200D03*
G01*
X3905402Y2616200D03*
D11*
G01*
X2967990Y3175000D03*
G01*
X3127984Y3175000D03*
D12*
G01*
X3765397Y5156200D03*
G01*
X3905402Y5156200D03*
D13*
G01*
X2829001Y4953000D03*
G01*
X2829001Y4826000D03*
G01*
X2829001Y4699000D03*
G01*
X2829001Y4572000D03*
G01*
X2829001Y4445000D03*
G01*
X2829001Y4318000D03*
G01*
X2829001Y4191000D03*
G01*
X2829001Y4064000D03*
G01*
X2829001Y3937000D03*
G01*
X2829001Y3810000D03*
G01*
X3774998Y4953000D03*
G01*
X3774998Y4826000D03*
G01*
X3774998Y4699000D03*
G01*
X3774998Y4572000D03*
G01*
X3774998Y4445000D03*
G01*
X3774998Y4318000D03*
G01*
X3774998Y4191000D03*
G01*
X3774998Y4064000D03*
G01*
X3774998Y3937000D03*
G01*
X3774998Y3810000D03*
G01*
X2829001Y2413000D03*
G01*
X2829001Y2286000D03*
G01*
X2829001Y2159000D03*
G01*
X2829001Y2032000D03*
G01*
X2829001Y1905000D03*
G01*
X2829001Y1778000D03*
G01*
X2829001Y1651000D03*
G01*
X2829001Y1524000D03*
G01*
X2829001Y1397000D03*
G01*
X2829001Y1270000D03*
G01*
X3774998Y2413000D03*
G01*
X3774998Y2286000D03*
G01*
X3774998Y2159000D03*
G01*
X3774998Y2032000D03*
G01*
X3774998Y1905000D03*
G01*
X3774998Y1778000D03*
G01*
X3774998Y1651000D03*
G01*
X3774998Y1524000D03*
G01*
X3774998Y1397000D03*
G01*
X3774998Y1270000D03*
D11*
G01*
X1692910Y469900D03*
G01*
X1532915Y469900D03*
D10*
G01*
X1697913Y266700D03*
G01*
X1527911Y266700D03*
D11*
G01*
X262889Y4953000D03*
G01*
X422884Y4953000D03*
G01*
X262889Y4699000D03*
G01*
X422884Y4699000D03*
G01*
X262889Y4445000D03*
G01*
X422884Y4445000D03*
G01*
X262889Y4191000D03*
G01*
X422884Y4191000D03*
G01*
X262889Y3937000D03*
G01*
X422884Y3937000D03*
G01*
X262889Y3683000D03*
G01*
X422884Y3683000D03*
G01*
X262889Y3429000D03*
G01*
X422884Y3429000D03*
G01*
X262889Y3175000D03*
G01*
X422884Y3175000D03*
G01*
X262889Y2667000D03*
G01*
X422884Y2667000D03*
G01*
X262889Y2413000D03*
G01*
X422884Y2413000D03*
G01*
X262889Y2159000D03*
G01*
X422884Y2159000D03*
G01*
X262889Y1905000D03*
G01*
X422884Y1905000D03*
G01*
X262889Y1651000D03*
G01*
X422884Y1651000D03*
G01*
X262889Y1397000D03*
G01*
X422884Y1397000D03*
G01*
X262889Y1143000D03*
G01*
X422884Y1143000D03*
G01*
X262889Y889000D03*
G01*
X422884Y889000D03*
M02*
