G04 Layer: TopSilkscreenLayer*
G04 Panelize: V-CUT, Column: 2, Row: 2, Board Size: 58.42mm x 58.42mm, Panelized Board Size: 118.84mm x 118.84mm*
G04 EasyEDA v6.5.34, 2023-09-05 23:35:40*
G04 bcb9dca7cd424f9e9e9865ef008c09cf,5a6b42c53f6a479593ecc07194224c93,10*
G04 Gerber Generator version 0.2*
G04 Scale: 100 percent, Rotated: No, Reflected: No *
G04 Dimensions in millimeters *
G04 leading zeros omitted , absolute positions ,4 integer and 5 decimal *
%FSLAX45Y45*%
%MOMM*%

%ADD10C,0.1524*%
%ADD11C,0.2540*%
%ADD12C,0.1500*%
%ADD13C,0.3000*%

%LPD*%
D10*
X4058665Y2856737D02*
G01*
X4058665Y2784094D01*
X4054093Y2770378D01*
X4049522Y2765805D01*
X4040377Y2761234D01*
X4031488Y2761234D01*
X4022343Y2765805D01*
X4017772Y2770378D01*
X4013200Y2784094D01*
X4013200Y2793237D01*
X4097781Y2856737D02*
G01*
X4147820Y2856737D01*
X4120388Y2820415D01*
X4134104Y2820415D01*
X4143247Y2815844D01*
X4147820Y2811271D01*
X4152391Y2797810D01*
X4152391Y2788665D01*
X4147820Y2774950D01*
X4138675Y2765805D01*
X4124959Y2761234D01*
X4111497Y2761234D01*
X4097781Y2765805D01*
X4093209Y2770378D01*
X4088638Y2779521D01*
X4084065Y5752337D02*
G01*
X4084065Y5679694D01*
X4079493Y5665978D01*
X4074922Y5661405D01*
X4065777Y5656834D01*
X4056888Y5656834D01*
X4047743Y5661405D01*
X4043172Y5665978D01*
X4038600Y5679694D01*
X4038600Y5688837D01*
X4118609Y5729731D02*
G01*
X4118609Y5734304D01*
X4123181Y5743194D01*
X4127754Y5747765D01*
X4136897Y5752337D01*
X4154931Y5752337D01*
X4164075Y5747765D01*
X4168647Y5743194D01*
X4173220Y5734304D01*
X4173220Y5725160D01*
X4168647Y5716015D01*
X4159504Y5702300D01*
X4114038Y5656834D01*
X4177791Y5656834D01*
X762000Y5601715D02*
G01*
X762000Y5492750D01*
X762000Y5601715D02*
G01*
X808736Y5601715D01*
X824229Y5596636D01*
X829563Y5591302D01*
X834644Y5580887D01*
X834644Y5565394D01*
X829563Y5554979D01*
X824229Y5549900D01*
X808736Y5544565D01*
X762000Y5544565D01*
X868934Y5601715D02*
G01*
X868934Y5492750D01*
X868934Y5601715D02*
G01*
X915670Y5601715D01*
X931418Y5596636D01*
X936497Y5591302D01*
X941831Y5580887D01*
X941831Y5570473D01*
X936497Y5560060D01*
X931418Y5554979D01*
X915670Y5549900D01*
X868934Y5549900D01*
X905510Y5549900D02*
G01*
X941831Y5492750D01*
X1007110Y5601715D02*
G01*
X996950Y5596636D01*
X986536Y5586221D01*
X981202Y5575807D01*
X976121Y5560060D01*
X976121Y5534152D01*
X981202Y5518657D01*
X986536Y5508244D01*
X996950Y5497829D01*
X1007110Y5492750D01*
X1027937Y5492750D01*
X1038352Y5497829D01*
X1048765Y5508244D01*
X1054100Y5518657D01*
X1059179Y5534152D01*
X1059179Y5560060D01*
X1054100Y5575807D01*
X1048765Y5586221D01*
X1038352Y5596636D01*
X1027937Y5601715D01*
X1007110Y5601715D01*
X1129792Y5601715D02*
G01*
X1129792Y5492750D01*
X1093470Y5601715D02*
G01*
X1166113Y5601715D01*
X1231645Y5601715D02*
G01*
X1221231Y5596636D01*
X1210818Y5586221D01*
X1205737Y5575807D01*
X1200404Y5560060D01*
X1200404Y5534152D01*
X1205737Y5518657D01*
X1210818Y5508244D01*
X1221231Y5497829D01*
X1231645Y5492750D01*
X1252473Y5492750D01*
X1262887Y5497829D01*
X1273302Y5508244D01*
X1278381Y5518657D01*
X1283715Y5534152D01*
X1283715Y5560060D01*
X1278381Y5575807D01*
X1273302Y5586221D01*
X1262887Y5596636D01*
X1252473Y5601715D01*
X1231645Y5601715D01*
X1318005Y5601715D02*
G01*
X1318005Y5492750D01*
X1318005Y5601715D02*
G01*
X1390650Y5492750D01*
X1390650Y5601715D02*
G01*
X1390650Y5492750D01*
X1424939Y5601715D02*
G01*
X1424939Y5492750D01*
X1424939Y5601715D02*
G01*
X1492504Y5601715D01*
X1424939Y5549900D02*
G01*
X1466595Y5549900D01*
X1424939Y5492750D02*
G01*
X1492504Y5492750D01*
X1526794Y5601715D02*
G01*
X1526794Y5492750D01*
X1526794Y5601715D02*
G01*
X1568450Y5492750D01*
X1609852Y5601715D02*
G01*
X1568450Y5492750D01*
X1609852Y5601715D02*
G01*
X1609852Y5492750D01*
X1685797Y5601715D02*
G01*
X1644142Y5492750D01*
X1685797Y5601715D02*
G01*
X1727200Y5492750D01*
X1659889Y5529071D02*
G01*
X1711705Y5529071D01*
X1841500Y5601715D02*
G01*
X1867662Y5492750D01*
X1893570Y5601715D02*
G01*
X1867662Y5492750D01*
X1893570Y5601715D02*
G01*
X1919478Y5492750D01*
X1945640Y5601715D02*
G01*
X1919478Y5492750D01*
X1979929Y5601715D02*
G01*
X1979929Y5492750D01*
X2014220Y5601715D02*
G01*
X2014220Y5492750D01*
X2014220Y5601715D02*
G01*
X2050541Y5601715D01*
X2066036Y5596636D01*
X2076450Y5586221D01*
X2081529Y5575807D01*
X2086863Y5560060D01*
X2086863Y5534152D01*
X2081529Y5518657D01*
X2076450Y5508244D01*
X2066036Y5497829D01*
X2050541Y5492750D01*
X2014220Y5492750D01*
X2121154Y5601715D02*
G01*
X2121154Y5492750D01*
X2121154Y5601715D02*
G01*
X2188718Y5601715D01*
X2121154Y5549900D02*
G01*
X2162809Y5549900D01*
X2121154Y5492750D02*
G01*
X2188718Y5492750D01*
X2303018Y5601715D02*
G01*
X2303018Y5492750D01*
X2303018Y5601715D02*
G01*
X2349754Y5601715D01*
X2365247Y5596636D01*
X2370581Y5591302D01*
X2375661Y5580887D01*
X2375661Y5570473D01*
X2370581Y5560060D01*
X2365247Y5554979D01*
X2349754Y5549900D01*
X2303018Y5549900D02*
G01*
X2349754Y5549900D01*
X2365247Y5544565D01*
X2370581Y5539486D01*
X2375661Y5529071D01*
X2375661Y5513323D01*
X2370581Y5502910D01*
X2365247Y5497829D01*
X2349754Y5492750D01*
X2303018Y5492750D01*
X2409952Y5601715D02*
G01*
X2409952Y5523737D01*
X2415286Y5508244D01*
X2425700Y5497829D01*
X2441193Y5492750D01*
X2451608Y5492750D01*
X2467102Y5497829D01*
X2477515Y5508244D01*
X2482850Y5523737D01*
X2482850Y5601715D01*
X2589784Y5586221D02*
G01*
X2579370Y5596636D01*
X2563875Y5601715D01*
X2543047Y5601715D01*
X2527300Y5596636D01*
X2517140Y5586221D01*
X2517140Y5575807D01*
X2522220Y5565394D01*
X2527300Y5560060D01*
X2537713Y5554979D01*
X2568956Y5544565D01*
X2579370Y5539486D01*
X2584450Y5534152D01*
X2589784Y5523737D01*
X2589784Y5508244D01*
X2579370Y5497829D01*
X2563875Y5492750D01*
X2543047Y5492750D01*
X2527300Y5497829D01*
X2517140Y5508244D01*
X2776727Y5586221D02*
G01*
X2766313Y5596636D01*
X2750820Y5601715D01*
X2729991Y5601715D01*
X2714497Y5596636D01*
X2704084Y5586221D01*
X2704084Y5575807D01*
X2709163Y5565394D01*
X2714497Y5560060D01*
X2724911Y5554979D01*
X2755900Y5544565D01*
X2766313Y5539486D01*
X2771647Y5534152D01*
X2776727Y5523737D01*
X2776727Y5508244D01*
X2766313Y5497829D01*
X2750820Y5492750D01*
X2729991Y5492750D01*
X2714497Y5497829D01*
X2704084Y5508244D01*
X2811018Y5601715D02*
G01*
X2837179Y5492750D01*
X2863088Y5601715D02*
G01*
X2837179Y5492750D01*
X2863088Y5601715D02*
G01*
X2888995Y5492750D01*
X2914904Y5601715D02*
G01*
X2888995Y5492750D01*
X2949193Y5601715D02*
G01*
X2949193Y5492750D01*
X3020059Y5601715D02*
G01*
X3020059Y5492750D01*
X2983484Y5601715D02*
G01*
X3056381Y5601715D01*
X3168650Y5575807D02*
G01*
X3163315Y5586221D01*
X3152902Y5596636D01*
X3142488Y5601715D01*
X3121659Y5601715D01*
X3111500Y5596636D01*
X3101086Y5586221D01*
X3095752Y5575807D01*
X3090672Y5560060D01*
X3090672Y5534152D01*
X3095752Y5518657D01*
X3101086Y5508244D01*
X3111500Y5497829D01*
X3121659Y5492750D01*
X3142488Y5492750D01*
X3152902Y5497829D01*
X3163315Y5508244D01*
X3168650Y5518657D01*
X3202940Y5601715D02*
G01*
X3202940Y5492750D01*
X3275584Y5601715D02*
G01*
X3275584Y5492750D01*
X3202940Y5549900D02*
G01*
X3275584Y5549900D01*
X3389884Y5601715D02*
G01*
X3431540Y5492750D01*
X3472941Y5601715D02*
G01*
X3431540Y5492750D01*
X3507231Y5580887D02*
G01*
X3517645Y5586221D01*
X3533140Y5601715D01*
X3533140Y5492750D01*
X3572763Y5518657D02*
G01*
X3567429Y5513323D01*
X3572763Y5508244D01*
X3577843Y5513323D01*
X3572763Y5518657D01*
X3612134Y5580887D02*
G01*
X3622547Y5586221D01*
X3638295Y5601715D01*
X3638295Y5492750D01*
X762000Y5423915D02*
G01*
X762000Y5314950D01*
X762000Y5423915D02*
G01*
X808736Y5423915D01*
X824229Y5418836D01*
X829563Y5413502D01*
X834644Y5403087D01*
X834644Y5387594D01*
X829563Y5377179D01*
X824229Y5372100D01*
X808736Y5366765D01*
X762000Y5366765D01*
X910589Y5423915D02*
G01*
X868934Y5314950D01*
X910589Y5423915D02*
G01*
X952245Y5314950D01*
X884681Y5351271D02*
G01*
X936497Y5351271D01*
X986536Y5423915D02*
G01*
X986536Y5314950D01*
X986536Y5423915D02*
G01*
X1033271Y5423915D01*
X1048765Y5418836D01*
X1054100Y5413502D01*
X1059179Y5403087D01*
X1059179Y5392673D01*
X1054100Y5382260D01*
X1048765Y5377179D01*
X1033271Y5372100D01*
X986536Y5372100D01*
X1022857Y5372100D02*
G01*
X1059179Y5314950D01*
X1129792Y5423915D02*
G01*
X1129792Y5314950D01*
X1093470Y5423915D02*
G01*
X1166113Y5423915D01*
X1280413Y5423915D02*
G01*
X1280413Y5314950D01*
X1280413Y5423915D02*
G01*
X1353312Y5314950D01*
X1353312Y5423915D02*
G01*
X1353312Y5314950D01*
X1387602Y5423915D02*
G01*
X1387602Y5345937D01*
X1392681Y5330444D01*
X1403095Y5320029D01*
X1418589Y5314950D01*
X1429004Y5314950D01*
X1444752Y5320029D01*
X1455165Y5330444D01*
X1460245Y5345937D01*
X1460245Y5423915D01*
X1494536Y5423915D02*
G01*
X1494536Y5314950D01*
X1494536Y5423915D02*
G01*
X1536192Y5314950D01*
X1577594Y5423915D02*
G01*
X1536192Y5314950D01*
X1577594Y5423915D02*
G01*
X1577594Y5314950D01*
X1611884Y5423915D02*
G01*
X1611884Y5314950D01*
X1611884Y5423915D02*
G01*
X1658620Y5423915D01*
X1674368Y5418836D01*
X1679447Y5413502D01*
X1684781Y5403087D01*
X1684781Y5392673D01*
X1679447Y5382260D01*
X1674368Y5377179D01*
X1658620Y5372100D01*
X1611884Y5372100D02*
G01*
X1658620Y5372100D01*
X1674368Y5366765D01*
X1679447Y5361686D01*
X1684781Y5351271D01*
X1684781Y5335523D01*
X1679447Y5325110D01*
X1674368Y5320029D01*
X1658620Y5314950D01*
X1611884Y5314950D01*
X1719071Y5423915D02*
G01*
X1719071Y5314950D01*
X1719071Y5423915D02*
G01*
X1786636Y5423915D01*
X1719071Y5372100D02*
G01*
X1760473Y5372100D01*
X1719071Y5314950D02*
G01*
X1786636Y5314950D01*
X1820926Y5423915D02*
G01*
X1820926Y5314950D01*
X1820926Y5423915D02*
G01*
X1867662Y5423915D01*
X1883155Y5418836D01*
X1888489Y5413502D01*
X1893570Y5403087D01*
X1893570Y5392673D01*
X1888489Y5382260D01*
X1883155Y5377179D01*
X1867662Y5372100D01*
X1820926Y5372100D01*
X1857247Y5372100D02*
G01*
X1893570Y5314950D01*
X2007870Y5403087D02*
G01*
X2018284Y5408421D01*
X2033777Y5423915D01*
X2033777Y5314950D01*
X2099309Y5423915D02*
G01*
X2083815Y5418836D01*
X2073402Y5403087D01*
X2068068Y5377179D01*
X2068068Y5361686D01*
X2073402Y5335523D01*
X2083815Y5320029D01*
X2099309Y5314950D01*
X2109724Y5314950D01*
X2125218Y5320029D01*
X2135631Y5335523D01*
X2140965Y5361686D01*
X2140965Y5377179D01*
X2135631Y5403087D01*
X2125218Y5418836D01*
X2109724Y5423915D01*
X2099309Y5423915D01*
X2247900Y5423915D02*
G01*
X2195829Y5314950D01*
X2175256Y5423915D02*
G01*
X2247900Y5423915D01*
X2292604Y5423915D02*
G01*
X2349754Y5423915D01*
X2318511Y5382260D01*
X2334259Y5382260D01*
X2344420Y5377179D01*
X2349754Y5372100D01*
X2354834Y5356352D01*
X2354834Y5345937D01*
X2349754Y5330444D01*
X2339340Y5320029D01*
X2323845Y5314950D01*
X2308097Y5314950D01*
X2292604Y5320029D01*
X2287270Y5325110D01*
X2282190Y5335523D01*
X2389124Y5361686D02*
G01*
X2482850Y5361686D01*
X2548127Y5423915D02*
G01*
X2532634Y5418836D01*
X2522220Y5403087D01*
X2517140Y5377179D01*
X2517140Y5361686D01*
X2522220Y5335523D01*
X2532634Y5320029D01*
X2548127Y5314950D01*
X2558541Y5314950D01*
X2574290Y5320029D01*
X2584450Y5335523D01*
X2589784Y5361686D01*
X2589784Y5377179D01*
X2584450Y5403087D01*
X2574290Y5418836D01*
X2558541Y5423915D01*
X2548127Y5423915D01*
X2624074Y5403087D02*
G01*
X2634488Y5408421D01*
X2649981Y5423915D01*
X2649981Y5314950D01*
X2715513Y5423915D02*
G01*
X2700020Y5418836D01*
X2689606Y5403087D01*
X2684272Y5377179D01*
X2684272Y5361686D01*
X2689606Y5335523D01*
X2700020Y5320029D01*
X2715513Y5314950D01*
X2725927Y5314950D01*
X2741422Y5320029D01*
X2751836Y5335523D01*
X2757170Y5361686D01*
X2757170Y5377179D01*
X2751836Y5403087D01*
X2741422Y5418836D01*
X2725927Y5423915D01*
X2715513Y5423915D01*
X2791459Y5403087D02*
G01*
X2801620Y5408421D01*
X2817368Y5423915D01*
X2817368Y5314950D01*
X1578597Y151627D02*
G01*
X1533131Y151627D01*
X1528559Y110733D01*
X1533131Y115305D01*
X1546593Y119877D01*
X1560309Y119877D01*
X1574025Y115305D01*
X1583169Y106161D01*
X1587741Y92699D01*
X1587741Y83555D01*
X1583169Y69839D01*
X1574025Y60695D01*
X1560309Y56123D01*
X1546593Y56123D01*
X1533131Y60695D01*
X1528559Y65267D01*
X1523987Y74411D01*
X1617713Y151627D02*
G01*
X1654035Y56123D01*
X1690357Y151627D02*
G01*
X1654035Y56123D01*
X1963165Y151637D02*
G01*
X1963165Y78994D01*
X1958593Y65278D01*
X1954022Y60705D01*
X1944877Y56134D01*
X1935988Y56134D01*
X1926844Y60705D01*
X1922271Y65278D01*
X1917700Y78994D01*
X1917700Y88137D01*
X2038604Y151637D02*
G01*
X1993138Y88137D01*
X2061209Y88137D01*
X2038604Y151637D02*
G01*
X2038604Y56134D01*
X3315461Y966978D02*
G01*
X3320034Y958087D01*
X3328924Y948944D01*
X3338068Y944371D01*
X3351784Y939800D01*
X3374390Y939800D01*
X3388106Y944371D01*
X3397250Y948944D01*
X3406393Y958087D01*
X3410965Y966978D01*
X3410965Y985265D01*
X3406393Y994410D01*
X3397250Y1003554D01*
X3388106Y1007871D01*
X3374390Y1012444D01*
X3351784Y1012444D01*
X3338068Y1007871D01*
X3328924Y1003554D01*
X3320034Y994410D01*
X3315461Y985265D01*
X3315461Y966978D01*
X3315461Y1042415D02*
G01*
X3410965Y1042415D01*
X3315461Y1042415D02*
G01*
X3315461Y1101597D01*
X3360927Y1042415D02*
G01*
X3360927Y1078992D01*
X3410965Y1042415D02*
G01*
X3410965Y1101597D01*
X2842768Y1007871D02*
G01*
X2833624Y1003554D01*
X2824734Y994410D01*
X2820161Y985265D01*
X2820161Y966978D01*
X2824734Y958087D01*
X2833624Y948944D01*
X2842768Y944371D01*
X2856484Y939800D01*
X2879090Y939800D01*
X2892806Y944371D01*
X2901950Y948944D01*
X2911093Y958087D01*
X2915665Y966978D01*
X2915665Y985265D01*
X2911093Y994410D01*
X2901950Y1003554D01*
X2892806Y1007871D01*
X2879090Y1007871D01*
X2879090Y985265D02*
G01*
X2879090Y1007871D01*
X2820161Y1038097D02*
G01*
X2915665Y1038097D01*
X2820161Y1038097D02*
G01*
X2915665Y1101597D01*
X2820161Y1101597D02*
G01*
X2915665Y1101597D01*
X2820161Y1131570D02*
G01*
X2915665Y1131570D01*
X2820161Y1131570D02*
G01*
X2820161Y1163320D01*
X2824734Y1177036D01*
X2833624Y1186179D01*
X2842768Y1190752D01*
X2856484Y1195323D01*
X2879090Y1195323D01*
X2892806Y1190752D01*
X2901950Y1186179D01*
X2911093Y1177036D01*
X2915665Y1163320D01*
X2915665Y1131570D01*
X2588768Y1007871D02*
G01*
X2579624Y1003554D01*
X2570734Y994410D01*
X2566161Y985265D01*
X2566161Y966978D01*
X2570734Y958087D01*
X2579624Y948944D01*
X2588768Y944371D01*
X2602484Y939800D01*
X2625090Y939800D01*
X2638806Y944371D01*
X2647950Y948944D01*
X2657093Y958087D01*
X2661665Y966978D01*
X2661665Y985265D01*
X2657093Y994410D01*
X2647950Y1003554D01*
X2638806Y1007871D01*
X2625090Y1007871D01*
X2625090Y985265D02*
G01*
X2625090Y1007871D01*
X2566161Y1038097D02*
G01*
X2661665Y1038097D01*
X2566161Y1038097D02*
G01*
X2661665Y1101597D01*
X2566161Y1101597D02*
G01*
X2661665Y1101597D01*
X2566161Y1131570D02*
G01*
X2661665Y1131570D01*
X2566161Y1131570D02*
G01*
X2566161Y1163320D01*
X2570734Y1177036D01*
X2579624Y1186179D01*
X2588768Y1190752D01*
X2602484Y1195323D01*
X2625090Y1195323D01*
X2638806Y1190752D01*
X2647950Y1186179D01*
X2657093Y1177036D01*
X2661665Y1163320D01*
X2661665Y1131570D01*
X3061472Y994397D02*
G01*
X3061472Y948931D01*
X3102366Y944359D01*
X3097794Y948931D01*
X3093222Y962393D01*
X3093222Y976109D01*
X3097794Y989825D01*
X3106938Y998969D01*
X3120400Y1003541D01*
X3129544Y1003541D01*
X3143260Y998969D01*
X3152404Y989825D01*
X3156976Y976109D01*
X3156976Y962393D01*
X3152404Y948931D01*
X3147832Y944359D01*
X3138688Y939787D01*
X3061472Y1033513D02*
G01*
X3156976Y1069835D01*
X3061472Y1106157D02*
G01*
X3156976Y1069835D01*
X3987800Y620013D02*
G01*
X3998722Y625347D01*
X4014977Y641857D01*
X4014977Y527304D01*
X4116577Y641857D02*
G01*
X4061968Y641857D01*
X4056634Y592581D01*
X4061968Y598170D01*
X4078224Y603504D01*
X4094734Y603504D01*
X4110990Y598170D01*
X4121911Y587247D01*
X4127500Y570992D01*
X4127500Y560070D01*
X4121911Y543560D01*
X4110990Y532637D01*
X4094734Y527304D01*
X4078224Y527304D01*
X4061968Y532637D01*
X4056634Y538226D01*
X4051045Y549147D01*
X3987800Y874013D02*
G01*
X3998722Y879347D01*
X4014977Y895857D01*
X4014977Y781304D01*
X4105656Y895857D02*
G01*
X4051045Y819404D01*
X4132834Y819404D01*
X4105656Y895857D02*
G01*
X4105656Y781304D01*
X3987800Y1128013D02*
G01*
X3998722Y1133347D01*
X4014977Y1149857D01*
X4014977Y1035304D01*
X4061968Y1149857D02*
G01*
X4121911Y1149857D01*
X4089145Y1106170D01*
X4105656Y1106170D01*
X4116577Y1100581D01*
X4121911Y1095247D01*
X4127500Y1078992D01*
X4127500Y1068070D01*
X4121911Y1051560D01*
X4110990Y1040637D01*
X4094734Y1035304D01*
X4078224Y1035304D01*
X4061968Y1040637D01*
X4056634Y1046226D01*
X4051045Y1057147D01*
X3987800Y1382013D02*
G01*
X3998722Y1387347D01*
X4014977Y1403857D01*
X4014977Y1289304D01*
X4056634Y1376426D02*
G01*
X4056634Y1382013D01*
X4061968Y1392936D01*
X4067556Y1398270D01*
X4078224Y1403857D01*
X4100068Y1403857D01*
X4110990Y1398270D01*
X4116577Y1392936D01*
X4121911Y1382013D01*
X4121911Y1371092D01*
X4116577Y1360170D01*
X4105656Y1343913D01*
X4051045Y1289304D01*
X4127500Y1289304D01*
X4013200Y1636013D02*
G01*
X4024122Y1641347D01*
X4040377Y1657857D01*
X4040377Y1543304D01*
X4076445Y1636013D02*
G01*
X4087368Y1641347D01*
X4103624Y1657857D01*
X4103624Y1543304D01*
X4000500Y1890013D02*
G01*
X4011422Y1895347D01*
X4027677Y1911857D01*
X4027677Y1797304D01*
X4096511Y1911857D02*
G01*
X4080256Y1906270D01*
X4069334Y1890013D01*
X4063745Y1862581D01*
X4063745Y1846326D01*
X4069334Y1819147D01*
X4080256Y1802637D01*
X4096511Y1797304D01*
X4107434Y1797304D01*
X4123690Y1802637D01*
X4134611Y1819147D01*
X4140200Y1846326D01*
X4140200Y1862581D01*
X4134611Y1890013D01*
X4123690Y1906270D01*
X4107434Y1911857D01*
X4096511Y1911857D01*
X4096765Y2127504D02*
G01*
X4091431Y2111247D01*
X4080509Y2100326D01*
X4064000Y2094992D01*
X4058665Y2094992D01*
X4042156Y2100326D01*
X4031234Y2111247D01*
X4025900Y2127504D01*
X4025900Y2133092D01*
X4031234Y2149347D01*
X4042156Y2160270D01*
X4058665Y2165857D01*
X4064000Y2165857D01*
X4080509Y2160270D01*
X4091431Y2149347D01*
X4096765Y2127504D01*
X4096765Y2100326D01*
X4091431Y2073147D01*
X4080509Y2056637D01*
X4064000Y2051304D01*
X4053077Y2051304D01*
X4036822Y2056637D01*
X4031234Y2067560D01*
X4053077Y2419857D02*
G01*
X4036822Y2414270D01*
X4031234Y2403347D01*
X4031234Y2392426D01*
X4036822Y2381504D01*
X4047743Y2376170D01*
X4069588Y2370581D01*
X4085843Y2365247D01*
X4096765Y2354326D01*
X4102354Y2343404D01*
X4102354Y2327147D01*
X4096765Y2316226D01*
X4091431Y2310637D01*
X4074922Y2305304D01*
X4053077Y2305304D01*
X4036822Y2310637D01*
X4031234Y2316226D01*
X4025900Y2327147D01*
X4025900Y2343404D01*
X4031234Y2354326D01*
X4042156Y2365247D01*
X4058665Y2370581D01*
X4080509Y2376170D01*
X4091431Y2381504D01*
X4096765Y2392426D01*
X4096765Y2403347D01*
X4091431Y2414270D01*
X4074922Y2419857D01*
X4053077Y2419857D01*
X4102354Y3550157D02*
G01*
X4047743Y3435604D01*
X4025900Y3550157D02*
G01*
X4102354Y3550157D01*
X4091431Y3787647D02*
G01*
X4085843Y3798570D01*
X4069588Y3804157D01*
X4058665Y3804157D01*
X4042156Y3798570D01*
X4031234Y3782313D01*
X4025900Y3754881D01*
X4025900Y3727704D01*
X4031234Y3705860D01*
X4042156Y3694937D01*
X4058665Y3689604D01*
X4064000Y3689604D01*
X4080509Y3694937D01*
X4091431Y3705860D01*
X4096765Y3722370D01*
X4096765Y3727704D01*
X4091431Y3744213D01*
X4080509Y3754881D01*
X4064000Y3760470D01*
X4058665Y3760470D01*
X4042156Y3754881D01*
X4031234Y3744213D01*
X4025900Y3727704D01*
X4091431Y4058157D02*
G01*
X4036822Y4058157D01*
X4031234Y4008881D01*
X4036822Y4014470D01*
X4053077Y4019804D01*
X4069588Y4019804D01*
X4085843Y4014470D01*
X4096765Y4003547D01*
X4102354Y3987292D01*
X4102354Y3976370D01*
X4096765Y3959860D01*
X4085843Y3948937D01*
X4069588Y3943604D01*
X4053077Y3943604D01*
X4036822Y3948937D01*
X4031234Y3954526D01*
X4025900Y3965447D01*
X4080509Y4312157D02*
G01*
X4025900Y4235704D01*
X4107688Y4235704D01*
X4080509Y4312157D02*
G01*
X4080509Y4197604D01*
X4036822Y4566157D02*
G01*
X4096765Y4566157D01*
X4064000Y4522470D01*
X4080509Y4522470D01*
X4091431Y4516881D01*
X4096765Y4511547D01*
X4102354Y4495292D01*
X4102354Y4484370D01*
X4096765Y4467860D01*
X4085843Y4456937D01*
X4069588Y4451604D01*
X4053077Y4451604D01*
X4036822Y4456937D01*
X4031234Y4462526D01*
X4025900Y4473447D01*
X4031234Y4792726D02*
G01*
X4031234Y4798313D01*
X4036822Y4809236D01*
X4042156Y4814570D01*
X4053077Y4820157D01*
X4074922Y4820157D01*
X4085843Y4814570D01*
X4091431Y4809236D01*
X4096765Y4798313D01*
X4096765Y4787392D01*
X4091431Y4776470D01*
X4080509Y4760213D01*
X4025900Y4705604D01*
X4102354Y4705604D01*
X4051325Y5052313D02*
G01*
X4062247Y5057647D01*
X4078503Y5074157D01*
X4078503Y4959604D01*
X4058665Y5328157D02*
G01*
X4042156Y5322570D01*
X4031234Y5306313D01*
X4025900Y5278881D01*
X4025900Y5262626D01*
X4031234Y5235447D01*
X4042156Y5218937D01*
X4058665Y5213604D01*
X4069588Y5213604D01*
X4085843Y5218937D01*
X4096765Y5235447D01*
X4102354Y5262626D01*
X4102354Y5278881D01*
X4096765Y5306313D01*
X4085843Y5322570D01*
X4069588Y5328157D01*
X4058665Y5328157D01*
X3491484Y3844544D02*
G01*
X3600450Y3792728D01*
X3491484Y3771900D02*
G01*
X3491484Y3844544D01*
X3491484Y3930904D02*
G01*
X3564127Y3878834D01*
X3564127Y3956812D01*
X3491484Y3930904D02*
G01*
X3600450Y3930904D01*
X3491484Y3991102D02*
G01*
X3600450Y3991102D01*
X3491484Y4064000D02*
G01*
X3600450Y4064000D01*
X3543300Y3991102D02*
G01*
X3543300Y4064000D01*
X3517391Y4176013D02*
G01*
X3506977Y4170934D01*
X3496563Y4160520D01*
X3491484Y4150105D01*
X3491484Y4129278D01*
X3496563Y4118863D01*
X3506977Y4108450D01*
X3517391Y4103370D01*
X3533140Y4098289D01*
X3559047Y4098289D01*
X3574541Y4103370D01*
X3584956Y4108450D01*
X3595370Y4118863D01*
X3600450Y4129278D01*
X3600450Y4150105D01*
X3595370Y4160520D01*
X3584956Y4170934D01*
X3574541Y4176013D01*
X3491484Y4246879D02*
G01*
X3600450Y4246879D01*
X3491484Y4210304D02*
G01*
X3491484Y4283202D01*
X3517391Y4322571D02*
G01*
X3512311Y4322571D01*
X3501897Y4327905D01*
X3496563Y4332986D01*
X3491484Y4343400D01*
X3491484Y4364228D01*
X3496563Y4374642D01*
X3501897Y4379721D01*
X3512311Y4385055D01*
X3522725Y4385055D01*
X3533140Y4379721D01*
X3548634Y4369307D01*
X3600450Y4317492D01*
X3600450Y4390136D01*
X3491484Y4476495D02*
G01*
X3564127Y4424426D01*
X3564127Y4502404D01*
X3491484Y4476495D02*
G01*
X3600450Y4476495D01*
X3491484Y4588510D02*
G01*
X3564127Y4536694D01*
X3564127Y4614671D01*
X3491484Y4588510D02*
G01*
X3600450Y4588510D01*
X3491484Y4648962D02*
G01*
X3600450Y4648962D01*
X3491484Y4648962D02*
G01*
X3491484Y4685284D01*
X3496563Y4700778D01*
X3506977Y4711192D01*
X3517391Y4716526D01*
X3533140Y4721605D01*
X3559047Y4721605D01*
X3574541Y4716526D01*
X3584956Y4711192D01*
X3595370Y4700778D01*
X3600450Y4685284D01*
X3600450Y4648962D01*
X3491484Y4755895D02*
G01*
X3600450Y4781804D01*
X3491484Y4807965D02*
G01*
X3600450Y4781804D01*
X3491484Y4807965D02*
G01*
X3600450Y4833873D01*
X3491484Y4859781D02*
G01*
X3600450Y4833873D01*
X3491484Y4894071D02*
G01*
X3600450Y4894071D01*
X3491484Y4894071D02*
G01*
X3491484Y4940807D01*
X3496563Y4956555D01*
X3501897Y4961636D01*
X3512311Y4966970D01*
X3522725Y4966970D01*
X3533140Y4961636D01*
X3538220Y4956555D01*
X3543300Y4940807D01*
X3543300Y4894071D01*
X3543300Y4930394D02*
G01*
X3600450Y4966970D01*
X3491484Y1304544D02*
G01*
X3600450Y1252728D01*
X3491484Y1231900D02*
G01*
X3491484Y1304544D01*
X3491484Y1390904D02*
G01*
X3564127Y1338834D01*
X3564127Y1416812D01*
X3491484Y1390904D02*
G01*
X3600450Y1390904D01*
X3491484Y1451102D02*
G01*
X3600450Y1451102D01*
X3491484Y1524000D02*
G01*
X3600450Y1524000D01*
X3543300Y1451102D02*
G01*
X3543300Y1524000D01*
X3517391Y1636013D02*
G01*
X3506977Y1630934D01*
X3496563Y1620520D01*
X3491484Y1610105D01*
X3491484Y1589278D01*
X3496563Y1578863D01*
X3506977Y1568450D01*
X3517391Y1563370D01*
X3533140Y1558289D01*
X3559047Y1558289D01*
X3574541Y1563370D01*
X3584956Y1568450D01*
X3595370Y1578863D01*
X3600450Y1589278D01*
X3600450Y1610105D01*
X3595370Y1620520D01*
X3584956Y1630934D01*
X3574541Y1636013D01*
X3491484Y1706879D02*
G01*
X3600450Y1706879D01*
X3491484Y1670304D02*
G01*
X3491484Y1743202D01*
X3517391Y1782571D02*
G01*
X3512311Y1782571D01*
X3501897Y1787905D01*
X3496563Y1792986D01*
X3491484Y1803400D01*
X3491484Y1824228D01*
X3496563Y1834642D01*
X3501897Y1839721D01*
X3512311Y1845055D01*
X3522725Y1845055D01*
X3533140Y1839721D01*
X3548634Y1829307D01*
X3600450Y1777492D01*
X3600450Y1850136D01*
X3491484Y1936495D02*
G01*
X3564127Y1884426D01*
X3564127Y1962404D01*
X3491484Y1936495D02*
G01*
X3600450Y1936495D01*
X3491484Y2048510D02*
G01*
X3564127Y1996694D01*
X3564127Y2074671D01*
X3491484Y2048510D02*
G01*
X3600450Y2048510D01*
X3491484Y2108962D02*
G01*
X3600450Y2108962D01*
X3491484Y2108962D02*
G01*
X3491484Y2145284D01*
X3496563Y2160778D01*
X3506977Y2171192D01*
X3517391Y2176526D01*
X3533140Y2181605D01*
X3559047Y2181605D01*
X3574541Y2176526D01*
X3584956Y2171192D01*
X3595370Y2160778D01*
X3600450Y2145284D01*
X3600450Y2108962D01*
X3491484Y2215895D02*
G01*
X3600450Y2241804D01*
X3491484Y2267965D02*
G01*
X3600450Y2241804D01*
X3491484Y2267965D02*
G01*
X3600450Y2293873D01*
X3491484Y2319781D02*
G01*
X3600450Y2293873D01*
X3491484Y2354071D02*
G01*
X3600450Y2354071D01*
X3491484Y2354071D02*
G01*
X3491484Y2400807D01*
X3496563Y2416555D01*
X3501897Y2421636D01*
X3512311Y2426970D01*
X3522725Y2426970D01*
X3533140Y2421636D01*
X3538220Y2416555D01*
X3543300Y2400807D01*
X3543300Y2354071D01*
X3543300Y2390394D02*
G01*
X3600450Y2426970D01*
X5156093Y5294386D02*
G01*
X5228991Y5253238D01*
X5156093Y5212344D01*
X5156093Y5040386D02*
G01*
X5228991Y4999238D01*
X5156093Y4958344D01*
X5156093Y4786386D02*
G01*
X5228991Y4745238D01*
X5156093Y4704344D01*
X5156093Y4532386D02*
G01*
X5228991Y4491238D01*
X5156093Y4450344D01*
X5156093Y4278386D02*
G01*
X5228991Y4237238D01*
X5156093Y4196344D01*
X5156093Y4024386D02*
G01*
X5228991Y3983238D01*
X5156093Y3942344D01*
X5156093Y3770386D02*
G01*
X5228991Y3729238D01*
X5156093Y3688344D01*
X5156093Y3516386D02*
G01*
X5228991Y3475238D01*
X5156093Y3434344D01*
X5156118Y2386086D02*
G01*
X5229016Y2344938D01*
X5156118Y2304044D01*
X5156118Y2132086D02*
G01*
X5229016Y2090938D01*
X5156118Y2050044D01*
X5156118Y1878086D02*
G01*
X5229016Y1836938D01*
X5156118Y1796044D01*
X5156118Y1624086D02*
G01*
X5229016Y1582938D01*
X5156118Y1542044D01*
X5156118Y1370086D02*
G01*
X5229016Y1328938D01*
X5156118Y1288044D01*
X5156118Y1116086D02*
G01*
X5229016Y1074938D01*
X5156118Y1034044D01*
X5156118Y862086D02*
G01*
X5229016Y820938D01*
X5156118Y780044D01*
X5156118Y608086D02*
G01*
X5229016Y566938D01*
X5156118Y526044D01*
X794776Y227848D02*
G01*
X794776Y155204D01*
X790204Y141488D01*
X785632Y136916D01*
X776488Y132344D01*
X767598Y132344D01*
X758454Y136916D01*
X753882Y141488D01*
X749310Y155204D01*
X749310Y164348D01*
X824748Y209814D02*
G01*
X833892Y214386D01*
X847608Y227848D01*
X847608Y132344D01*
X558800Y5180837D02*
G01*
X558800Y5085334D01*
X558800Y5180837D02*
G01*
X590550Y5180837D01*
X604265Y5176265D01*
X613410Y5167376D01*
X617981Y5158231D01*
X622554Y5144515D01*
X622554Y5121910D01*
X617981Y5108194D01*
X613410Y5099050D01*
X604265Y5089905D01*
X590550Y5085334D01*
X558800Y5085334D01*
X716026Y5167376D02*
G01*
X706881Y5176265D01*
X693420Y5180837D01*
X675131Y5180837D01*
X661415Y5176265D01*
X652526Y5167376D01*
X652526Y5158231D01*
X657097Y5149087D01*
X661415Y5144515D01*
X670560Y5139944D01*
X697992Y5130800D01*
X706881Y5126481D01*
X711454Y5121910D01*
X716026Y5112765D01*
X716026Y5099050D01*
X706881Y5089905D01*
X693420Y5085334D01*
X675131Y5085334D01*
X661415Y5089905D01*
X652526Y5099050D01*
X745997Y5162804D02*
G01*
X755142Y5167376D01*
X768857Y5180837D01*
X768857Y5085334D01*
X533400Y2894837D02*
G01*
X533400Y2799334D01*
X533400Y2894837D02*
G01*
X565150Y2894837D01*
X578865Y2890265D01*
X588010Y2881376D01*
X592581Y2872231D01*
X597154Y2858515D01*
X597154Y2835910D01*
X592581Y2822194D01*
X588010Y2813050D01*
X578865Y2803905D01*
X565150Y2799334D01*
X533400Y2799334D01*
X690626Y2881376D02*
G01*
X681481Y2890265D01*
X668020Y2894837D01*
X649731Y2894837D01*
X636015Y2890265D01*
X627126Y2881376D01*
X627126Y2872231D01*
X631697Y2863087D01*
X636015Y2858515D01*
X645160Y2853944D01*
X672592Y2844800D01*
X681481Y2840481D01*
X686054Y2835910D01*
X690626Y2826765D01*
X690626Y2813050D01*
X681481Y2803905D01*
X668020Y2799334D01*
X649731Y2799334D01*
X636015Y2803905D01*
X627126Y2813050D01*
X725170Y2872231D02*
G01*
X725170Y2876804D01*
X729742Y2885694D01*
X734313Y2890265D01*
X743457Y2894837D01*
X761492Y2894837D01*
X770636Y2890265D01*
X775207Y2885694D01*
X779779Y2876804D01*
X779779Y2867660D01*
X775207Y2858515D01*
X766063Y2844800D01*
X720597Y2799334D01*
X784352Y2799334D01*
X3810000Y1066037D02*
G01*
X3810000Y970534D01*
X3810000Y1066037D02*
G01*
X3841750Y1066037D01*
X3855465Y1061465D01*
X3864609Y1052576D01*
X3869181Y1043431D01*
X3873754Y1029715D01*
X3873754Y1007110D01*
X3869181Y993394D01*
X3864609Y984250D01*
X3855465Y975105D01*
X3841750Y970534D01*
X3810000Y970534D01*
X3908297Y1043431D02*
G01*
X3908297Y1048004D01*
X3912615Y1056894D01*
X3917188Y1061465D01*
X3926331Y1066037D01*
X3944620Y1066037D01*
X3953509Y1061465D01*
X3958081Y1056894D01*
X3962654Y1048004D01*
X3962654Y1038860D01*
X3958081Y1029715D01*
X3949191Y1016000D01*
X3903725Y970534D01*
X3967225Y970534D01*
X2679700Y2971037D02*
G01*
X2679700Y2875534D01*
X2679700Y2971037D02*
G01*
X2720593Y2971037D01*
X2734309Y2966465D01*
X2738881Y2961894D01*
X2743454Y2953004D01*
X2743454Y2943860D01*
X2738881Y2934715D01*
X2734309Y2930144D01*
X2720593Y2925571D01*
X2679700Y2925571D01*
X2711450Y2925571D02*
G01*
X2743454Y2875534D01*
X2777997Y2948431D02*
G01*
X2777997Y2953004D01*
X2782315Y2961894D01*
X2786888Y2966465D01*
X2796031Y2971037D01*
X2814320Y2971037D01*
X2823209Y2966465D01*
X2827781Y2961894D01*
X2832354Y2953004D01*
X2832354Y2943860D01*
X2827781Y2934715D01*
X2818891Y2921000D01*
X2773425Y2875534D01*
X2836925Y2875534D01*
X2273300Y5168137D02*
G01*
X2273300Y5072634D01*
X2273300Y5168137D02*
G01*
X2314193Y5168137D01*
X2327909Y5163565D01*
X2332481Y5158994D01*
X2337054Y5150104D01*
X2337054Y5140960D01*
X2332481Y5131815D01*
X2327909Y5127244D01*
X2314193Y5122671D01*
X2273300Y5122671D01*
X2305050Y5122671D02*
G01*
X2337054Y5072634D01*
X2367025Y5150104D02*
G01*
X2375915Y5154676D01*
X2389631Y5168137D01*
X2389631Y5072634D01*
X2478786Y5136387D02*
G01*
X2474213Y5122671D01*
X2465070Y5113781D01*
X2451608Y5109210D01*
X2447036Y5109210D01*
X2433320Y5113781D01*
X2424175Y5122671D01*
X2419604Y5136387D01*
X2419604Y5140960D01*
X2424175Y5154676D01*
X2433320Y5163565D01*
X2447036Y5168137D01*
X2451608Y5168137D01*
X2465070Y5163565D01*
X2474213Y5154676D01*
X2478786Y5136387D01*
X2478786Y5113781D01*
X2474213Y5090921D01*
X2465070Y5077205D01*
X2451608Y5072634D01*
X2442463Y5072634D01*
X2428747Y5077205D01*
X2424175Y5086350D01*
X3560622Y2643631D02*
G01*
X3556050Y2652776D01*
X3547160Y2661665D01*
X3538016Y2666237D01*
X3519728Y2666237D01*
X3510584Y2661665D01*
X3501694Y2652776D01*
X3497122Y2643631D01*
X3492550Y2629915D01*
X3492550Y2607310D01*
X3497122Y2593594D01*
X3501694Y2584450D01*
X3510584Y2575305D01*
X3519728Y2570734D01*
X3538016Y2570734D01*
X3547160Y2575305D01*
X3556050Y2584450D01*
X3560622Y2593594D01*
X3595166Y2643631D02*
G01*
X3595166Y2648204D01*
X3599738Y2657094D01*
X3604310Y2661665D01*
X3613454Y2666237D01*
X3631488Y2666237D01*
X3640632Y2661665D01*
X3645204Y2657094D01*
X3649776Y2648204D01*
X3649776Y2639060D01*
X3645204Y2629915D01*
X3636060Y2616200D01*
X3590594Y2570734D01*
X3654348Y2570734D01*
X2590800Y3225037D02*
G01*
X2590800Y3129534D01*
X2590800Y3225037D02*
G01*
X2631693Y3225037D01*
X2645409Y3220465D01*
X2649981Y3215894D01*
X2654554Y3207004D01*
X2654554Y3197860D01*
X2649981Y3188715D01*
X2645409Y3184144D01*
X2631693Y3179571D01*
X2590800Y3179571D01*
X2622550Y3179571D02*
G01*
X2654554Y3129534D01*
X2693415Y3225037D02*
G01*
X2743454Y3225037D01*
X2716275Y3188715D01*
X2729991Y3188715D01*
X2738881Y3184144D01*
X2743454Y3179571D01*
X2748025Y3166110D01*
X2748025Y3156965D01*
X2743454Y3143250D01*
X2734309Y3134105D01*
X2720847Y3129534D01*
X2707131Y3129534D01*
X2693415Y3134105D01*
X2689097Y3138678D01*
X2684525Y3147821D01*
X2832608Y3225037D02*
G01*
X2787141Y3225037D01*
X2782570Y3184144D01*
X2787141Y3188715D01*
X2800858Y3193287D01*
X2814320Y3193287D01*
X2828036Y3188715D01*
X2837179Y3179571D01*
X2841752Y3166110D01*
X2841752Y3156965D01*
X2837179Y3143250D01*
X2828036Y3134105D01*
X2814320Y3129534D01*
X2800858Y3129534D01*
X2787141Y3134105D01*
X2782570Y3138678D01*
X2777997Y3147821D01*
X3560572Y5183631D02*
G01*
X3556254Y5192776D01*
X3547109Y5201665D01*
X3537965Y5206237D01*
X3519677Y5206237D01*
X3510788Y5201665D01*
X3501643Y5192776D01*
X3497072Y5183631D01*
X3492500Y5169915D01*
X3492500Y5147310D01*
X3497072Y5133594D01*
X3501643Y5124450D01*
X3510788Y5115305D01*
X3519677Y5110734D01*
X3537965Y5110734D01*
X3547109Y5115305D01*
X3556254Y5124450D01*
X3560572Y5133594D01*
X3590797Y5188204D02*
G01*
X3599688Y5192776D01*
X3613404Y5206237D01*
X3613404Y5110734D01*
X2590800Y5155437D02*
G01*
X2590800Y5087365D01*
X2595372Y5073650D01*
X2604515Y5064505D01*
X2617977Y5059934D01*
X2627122Y5059934D01*
X2640838Y5064505D01*
X2649981Y5073650D01*
X2654554Y5087365D01*
X2654554Y5155437D01*
X2684525Y5137404D02*
G01*
X2693415Y5141976D01*
X2707131Y5155437D01*
X2707131Y5059934D01*
X2590800Y2615437D02*
G01*
X2590800Y2547365D01*
X2595372Y2533650D01*
X2604515Y2524505D01*
X2617977Y2519934D01*
X2627122Y2519934D01*
X2640838Y2524505D01*
X2649981Y2533650D01*
X2654554Y2547365D01*
X2654554Y2615437D01*
X2689097Y2592831D02*
G01*
X2689097Y2597404D01*
X2693415Y2606294D01*
X2697988Y2610865D01*
X2707131Y2615437D01*
X2725420Y2615437D01*
X2734309Y2610865D01*
X2738881Y2606294D01*
X2743454Y2597404D01*
X2743454Y2588260D01*
X2738881Y2579115D01*
X2729991Y2565400D01*
X2684525Y2519934D01*
X2748025Y2519934D01*
X1841500Y519937D02*
G01*
X1841500Y424434D01*
X1841500Y519937D02*
G01*
X1882394Y519937D01*
X1896110Y515365D01*
X1900681Y510794D01*
X1905254Y501904D01*
X1905254Y492760D01*
X1900681Y483615D01*
X1896110Y479044D01*
X1882394Y474471D01*
X1841500Y474471D01*
X1873250Y474471D02*
G01*
X1905254Y424434D01*
X1935225Y501904D02*
G01*
X1944115Y506476D01*
X1957831Y519937D01*
X1957831Y424434D01*
X1841500Y316737D02*
G01*
X1841500Y221234D01*
X1841500Y316737D02*
G01*
X1873250Y316737D01*
X1886965Y312165D01*
X1896110Y303276D01*
X1900681Y294131D01*
X1905254Y280415D01*
X1905254Y257810D01*
X1900681Y244094D01*
X1896110Y234950D01*
X1886965Y225805D01*
X1873250Y221234D01*
X1841500Y221234D01*
X1935225Y298704D02*
G01*
X1944115Y303276D01*
X1957831Y316737D01*
X1957831Y221234D01*
X940054Y5167376D02*
G01*
X930910Y5176265D01*
X917194Y5180837D01*
X898905Y5180837D01*
X885444Y5176265D01*
X876300Y5167376D01*
X876300Y5158231D01*
X880871Y5149087D01*
X885444Y5144515D01*
X894587Y5139944D01*
X921765Y5130800D01*
X930910Y5126481D01*
X935481Y5121910D01*
X940054Y5112765D01*
X940054Y5099050D01*
X930910Y5089905D01*
X917194Y5085334D01*
X898905Y5085334D01*
X885444Y5089905D01*
X876300Y5099050D01*
X970026Y5162804D02*
G01*
X978915Y5167376D01*
X992631Y5180837D01*
X992631Y5085334D01*
X914654Y2881376D02*
G01*
X905510Y2890265D01*
X891794Y2894837D01*
X873505Y2894837D01*
X860044Y2890265D01*
X850900Y2881376D01*
X850900Y2872231D01*
X855471Y2863087D01*
X860044Y2858515D01*
X869187Y2853944D01*
X896365Y2844800D01*
X905510Y2840481D01*
X910081Y2835910D01*
X914654Y2826765D01*
X914654Y2813050D01*
X905510Y2803905D01*
X891794Y2799334D01*
X873505Y2799334D01*
X860044Y2803905D01*
X850900Y2813050D01*
X949197Y2872231D02*
G01*
X949197Y2876804D01*
X953515Y2885694D01*
X958087Y2890265D01*
X967231Y2894837D01*
X985520Y2894837D01*
X994410Y2890265D01*
X998981Y2885694D01*
X1003554Y2876804D01*
X1003554Y2867660D01*
X998981Y2858515D01*
X990092Y2844800D01*
X944626Y2799334D01*
X1008126Y2799334D01*
X76200Y5168137D02*
G01*
X76200Y5072634D01*
X76200Y5168137D02*
G01*
X117094Y5168137D01*
X130810Y5163565D01*
X135381Y5158994D01*
X139954Y5150104D01*
X139954Y5140960D01*
X135381Y5131815D01*
X130810Y5127244D01*
X117094Y5122671D01*
X76200Y5122671D01*
X107950Y5122671D02*
G01*
X139954Y5072634D01*
X178815Y5168137D02*
G01*
X228854Y5168137D01*
X201676Y5131815D01*
X215392Y5131815D01*
X224281Y5127244D01*
X228854Y5122671D01*
X233426Y5109210D01*
X233426Y5100065D01*
X228854Y5086350D01*
X219710Y5077205D01*
X206247Y5072634D01*
X192531Y5072634D01*
X178815Y5077205D01*
X174497Y5081778D01*
X169926Y5090921D01*
X76200Y3059937D02*
G01*
X76200Y2964434D01*
X76200Y3059937D02*
G01*
X117094Y3059937D01*
X130810Y3055365D01*
X135381Y3050794D01*
X139954Y3041904D01*
X139954Y3032760D01*
X135381Y3023615D01*
X130810Y3019044D01*
X117094Y3014471D01*
X76200Y3014471D01*
X107950Y3014471D02*
G01*
X139954Y2964434D01*
X169926Y3041904D02*
G01*
X178815Y3046476D01*
X192531Y3059937D01*
X192531Y2964434D01*
X249936Y3059937D02*
G01*
X236220Y3055365D01*
X227076Y3041904D01*
X222504Y3019044D01*
X222504Y3005581D01*
X227076Y2982721D01*
X236220Y2969005D01*
X249936Y2964434D01*
X258826Y2964434D01*
X272542Y2969005D01*
X281686Y2982721D01*
X286257Y3005581D01*
X286257Y3019044D01*
X281686Y3041904D01*
X272542Y3055365D01*
X258826Y3059937D01*
X249936Y3059937D01*
X76200Y2894837D02*
G01*
X76200Y2799334D01*
X76200Y2894837D02*
G01*
X117094Y2894837D01*
X130810Y2890265D01*
X135381Y2885694D01*
X139954Y2876804D01*
X139954Y2867660D01*
X135381Y2858515D01*
X130810Y2853944D01*
X117094Y2849371D01*
X76200Y2849371D01*
X107950Y2849371D02*
G01*
X139954Y2799334D01*
X169926Y2876804D02*
G01*
X178815Y2881376D01*
X192531Y2894837D01*
X192531Y2799334D01*
X222504Y2876804D02*
G01*
X231647Y2881376D01*
X245363Y2894837D01*
X245363Y2799334D01*
X76200Y773937D02*
G01*
X76200Y678434D01*
X76200Y773937D02*
G01*
X117094Y773937D01*
X130810Y769365D01*
X135381Y764794D01*
X139954Y755904D01*
X139954Y746760D01*
X135381Y737615D01*
X130810Y733044D01*
X117094Y728471D01*
X76200Y728471D01*
X107950Y728471D02*
G01*
X139954Y678434D01*
X169926Y755904D02*
G01*
X178815Y760476D01*
X192531Y773937D01*
X192531Y678434D01*
X245363Y773937D02*
G01*
X231647Y769365D01*
X227076Y760476D01*
X227076Y751331D01*
X231647Y742187D01*
X240792Y737615D01*
X258826Y733044D01*
X272542Y728471D01*
X281686Y719581D01*
X286257Y710437D01*
X286257Y696721D01*
X281686Y687578D01*
X277113Y683005D01*
X263397Y678434D01*
X245363Y678434D01*
X231647Y683005D01*
X227076Y687578D01*
X222504Y696721D01*
X222504Y710437D01*
X227076Y719581D01*
X236220Y728471D01*
X249936Y733044D01*
X267970Y737615D01*
X277113Y742187D01*
X281686Y751331D01*
X281686Y760476D01*
X277113Y769365D01*
X263397Y773937D01*
X245363Y773937D01*
D11*
X3263900Y946150D02*
G01*
X3263900Y1111250D01*
D12*
X3589799Y1015776D02*
G01*
X3623800Y1015776D01*
X3781806Y1051003D02*
G01*
X3781806Y1061006D01*
X3751811Y1091008D01*
X3566805Y941001D02*
G01*
X3451804Y941001D01*
X3566805Y1091008D02*
G01*
X3451804Y1091008D01*
X3646804Y941001D02*
G01*
X3751811Y941001D01*
X3646804Y1091008D02*
G01*
X3751811Y1091008D01*
X3451804Y941014D02*
G01*
X3451804Y1089004D01*
X3781806Y981011D02*
G01*
X3781806Y1051003D01*
X3781806Y981011D02*
G01*
X3781806Y970996D01*
X3751811Y941001D01*
X3589799Y981003D02*
G01*
X3589799Y1049002D01*
D11*
X3203061Y2988812D02*
G01*
X3203061Y2828808D01*
X2893004Y2988302D02*
G01*
X2893004Y2828297D01*
X3078065Y2828808D02*
G01*
X3203061Y2828808D01*
X3078065Y2988812D02*
G01*
X3203061Y2988812D01*
X3018007Y2828297D02*
G01*
X2893004Y2828297D01*
X3018007Y2988302D02*
G01*
X2893004Y2988302D01*
X2067438Y4872487D02*
G01*
X2067438Y5032491D01*
X2377495Y4872997D02*
G01*
X2377495Y5033002D01*
X2192434Y5032491D02*
G01*
X2067438Y5032491D01*
X2192434Y4872487D02*
G01*
X2067438Y4872487D01*
X2252492Y5033002D02*
G01*
X2377495Y5033002D01*
X2252492Y4872997D02*
G01*
X2377495Y4872997D01*
X2067438Y4618487D02*
G01*
X2067438Y4778491D01*
X2377495Y4618997D02*
G01*
X2377495Y4779002D01*
X2192434Y4778491D02*
G01*
X2067438Y4778491D01*
X2192434Y4618487D02*
G01*
X2067438Y4618487D01*
X2252492Y4779002D02*
G01*
X2377495Y4779002D01*
X2252492Y4618997D02*
G01*
X2377495Y4618997D01*
X2067438Y4364487D02*
G01*
X2067438Y4524491D01*
X2377495Y4364997D02*
G01*
X2377495Y4525002D01*
X2192434Y4524491D02*
G01*
X2067438Y4524491D01*
X2192434Y4364487D02*
G01*
X2067438Y4364487D01*
X2252492Y4525002D02*
G01*
X2377495Y4525002D01*
X2252492Y4364997D02*
G01*
X2377495Y4364997D01*
X2067438Y4110487D02*
G01*
X2067438Y4270491D01*
X2377495Y4110997D02*
G01*
X2377495Y4271002D01*
X2192434Y4270491D02*
G01*
X2067438Y4270491D01*
X2192434Y4110487D02*
G01*
X2067438Y4110487D01*
X2252492Y4271002D02*
G01*
X2377495Y4271002D01*
X2252492Y4110997D02*
G01*
X2377495Y4110997D01*
X2067438Y3856487D02*
G01*
X2067438Y4016491D01*
X2377495Y3856997D02*
G01*
X2377495Y4017002D01*
X2192434Y4016491D02*
G01*
X2067438Y4016491D01*
X2192434Y3856487D02*
G01*
X2067438Y3856487D01*
X2252492Y4017002D02*
G01*
X2377495Y4017002D01*
X2252492Y3856997D02*
G01*
X2377495Y3856997D01*
X2067438Y3602487D02*
G01*
X2067438Y3762491D01*
X2377495Y3602997D02*
G01*
X2377495Y3763002D01*
X2192434Y3762491D02*
G01*
X2067438Y3762491D01*
X2192434Y3602487D02*
G01*
X2067438Y3602487D01*
X2252492Y3763002D02*
G01*
X2377495Y3763002D01*
X2252492Y3602997D02*
G01*
X2377495Y3602997D01*
X2067438Y3348487D02*
G01*
X2067438Y3508491D01*
X2377495Y3348997D02*
G01*
X2377495Y3509002D01*
X2192434Y3508491D02*
G01*
X2067438Y3508491D01*
X2192434Y3348487D02*
G01*
X2067438Y3348487D01*
X2252492Y3509002D02*
G01*
X2377495Y3509002D01*
X2252492Y3348997D02*
G01*
X2377495Y3348997D01*
X2067438Y3094487D02*
G01*
X2067438Y3254491D01*
X2377495Y3094997D02*
G01*
X2377495Y3255002D01*
X2192434Y3254491D02*
G01*
X2067438Y3254491D01*
X2192434Y3094487D02*
G01*
X2067438Y3094487D01*
X2252492Y3255002D02*
G01*
X2377495Y3255002D01*
X2252492Y3094997D02*
G01*
X2377495Y3094997D01*
X2067438Y2840487D02*
G01*
X2067438Y3000491D01*
X2377495Y2840997D02*
G01*
X2377495Y3001002D01*
X2192434Y3000491D02*
G01*
X2067438Y3000491D01*
X2192434Y2840487D02*
G01*
X2067438Y2840487D01*
X2252492Y3001002D02*
G01*
X2377495Y3001002D01*
X2252492Y2840997D02*
G01*
X2377495Y2840997D01*
X2067438Y2586487D02*
G01*
X2067438Y2746491D01*
X2377495Y2586997D02*
G01*
X2377495Y2747002D01*
X2192434Y2746491D02*
G01*
X2067438Y2746491D01*
X2192434Y2586487D02*
G01*
X2067438Y2586487D01*
X2252492Y2747002D02*
G01*
X2377495Y2747002D01*
X2252492Y2586997D02*
G01*
X2377495Y2586997D01*
X2067438Y2332487D02*
G01*
X2067438Y2492491D01*
X2377495Y2332997D02*
G01*
X2377495Y2493002D01*
X2192434Y2492491D02*
G01*
X2067438Y2492491D01*
X2192434Y2332487D02*
G01*
X2067438Y2332487D01*
X2252492Y2493002D02*
G01*
X2377495Y2493002D01*
X2252492Y2332997D02*
G01*
X2377495Y2332997D01*
X2067438Y2078487D02*
G01*
X2067438Y2238491D01*
X2377495Y2078997D02*
G01*
X2377495Y2239002D01*
X2192434Y2238491D02*
G01*
X2067438Y2238491D01*
X2192434Y2078487D02*
G01*
X2067438Y2078487D01*
X2252492Y2239002D02*
G01*
X2377495Y2239002D01*
X2252492Y2078997D02*
G01*
X2377495Y2078997D01*
X2067438Y1824487D02*
G01*
X2067438Y1984491D01*
X2377495Y1824997D02*
G01*
X2377495Y1985002D01*
X2192434Y1984491D02*
G01*
X2067438Y1984491D01*
X2192434Y1824487D02*
G01*
X2067438Y1824487D01*
X2252492Y1985002D02*
G01*
X2377495Y1985002D01*
X2252492Y1824997D02*
G01*
X2377495Y1824997D01*
X2067438Y1570487D02*
G01*
X2067438Y1730491D01*
X2377495Y1570997D02*
G01*
X2377495Y1731002D01*
X2192434Y1730491D02*
G01*
X2067438Y1730491D01*
X2192434Y1570487D02*
G01*
X2067438Y1570487D01*
X2252492Y1731002D02*
G01*
X2377495Y1731002D01*
X2252492Y1570997D02*
G01*
X2377495Y1570997D01*
X2067438Y1316487D02*
G01*
X2067438Y1476491D01*
X2377495Y1316997D02*
G01*
X2377495Y1477002D01*
X2192434Y1476491D02*
G01*
X2067438Y1476491D01*
X2192434Y1316487D02*
G01*
X2067438Y1316487D01*
X2252492Y1477002D02*
G01*
X2377495Y1477002D01*
X2252492Y1316997D02*
G01*
X2377495Y1316997D01*
X2067438Y1062487D02*
G01*
X2067438Y1222491D01*
X2377495Y1062997D02*
G01*
X2377495Y1223002D01*
X2192434Y1222491D02*
G01*
X2067438Y1222491D01*
X2192434Y1062487D02*
G01*
X2067438Y1062487D01*
X2252492Y1223002D02*
G01*
X2377495Y1223002D01*
X2252492Y1062997D02*
G01*
X2377495Y1062997D01*
X3696398Y2576222D02*
G01*
X3696398Y2656225D01*
X3807373Y2545237D02*
G01*
X3727376Y2545237D01*
X3807373Y2687203D02*
G01*
X3727376Y2687203D01*
X3864963Y2544655D02*
G01*
X3944962Y2544655D01*
X3975945Y2575638D02*
G01*
X3975945Y2655636D01*
X3864963Y2686616D02*
G01*
X3944962Y2686616D01*
X2892938Y3094487D02*
G01*
X2892938Y3254491D01*
X3202995Y3094997D02*
G01*
X3202995Y3255002D01*
X3017934Y3254491D02*
G01*
X2892938Y3254491D01*
X3017934Y3094487D02*
G01*
X2892938Y3094487D01*
X3077992Y3255002D02*
G01*
X3202995Y3255002D01*
X3077992Y3094997D02*
G01*
X3202995Y3094997D01*
X3696398Y5116222D02*
G01*
X3696398Y5196225D01*
X3807373Y5085237D02*
G01*
X3727376Y5085237D01*
X3807373Y5227203D02*
G01*
X3727376Y5227203D01*
X3864963Y5084655D02*
G01*
X3944962Y5084655D01*
X3975945Y5115638D02*
G01*
X3975945Y5195636D01*
X3864963Y5226616D02*
G01*
X3944962Y5226616D01*
D10*
X2969859Y5029121D02*
G01*
X3634140Y5029121D01*
X3634140Y3733878D01*
X2969859Y3733878D01*
X2969859Y5029121D01*
X2969859Y2489121D02*
G01*
X3634140Y2489121D01*
X3634140Y1193878D01*
X2969859Y1193878D01*
X2969859Y2489121D01*
D11*
X1767961Y550412D02*
G01*
X1767961Y390408D01*
X1457904Y549902D02*
G01*
X1457904Y389897D01*
X1642965Y390408D02*
G01*
X1767961Y390408D01*
X1642965Y550412D02*
G01*
X1767961Y550412D01*
X1582907Y389897D02*
G01*
X1457904Y389897D01*
X1582907Y549902D02*
G01*
X1457904Y549902D01*
D12*
X1595899Y266476D02*
G01*
X1629900Y266476D01*
X1787905Y301703D02*
G01*
X1787905Y311706D01*
X1757911Y341708D01*
X1572905Y191701D02*
G01*
X1457904Y191701D01*
X1572905Y341708D02*
G01*
X1457904Y341708D01*
X1652904Y191701D02*
G01*
X1757911Y191701D01*
X1652904Y341708D02*
G01*
X1757911Y341708D01*
X1457904Y191714D02*
G01*
X1457904Y339704D01*
X1787905Y231711D02*
G01*
X1787905Y301703D01*
X1787905Y231711D02*
G01*
X1787905Y221696D01*
X1757911Y191701D01*
X1595899Y231703D02*
G01*
X1595899Y299702D01*
D11*
X2004001Y5152999D02*
G01*
X1044000Y5152999D01*
X2004001Y2975000D02*
G01*
X1043998Y2975000D01*
X1044000Y5007444D02*
G01*
X1044000Y5152999D01*
X1044000Y4753444D02*
G01*
X1044000Y4898555D01*
X1044000Y4499444D02*
G01*
X1044000Y4644555D01*
X1044000Y4245444D02*
G01*
X1044000Y4390555D01*
X1044000Y3991444D02*
G01*
X1044000Y4136555D01*
X1044000Y3737444D02*
G01*
X1044000Y3882555D01*
X1044000Y3483444D02*
G01*
X1044000Y3628555D01*
X1044000Y3229444D02*
G01*
X1044000Y3374555D01*
X1044000Y2975444D02*
G01*
X1044000Y3120555D01*
X2004001Y3120560D02*
G01*
X2004001Y2975439D01*
X2004001Y3374560D02*
G01*
X2004001Y3229439D01*
X2004001Y3628560D02*
G01*
X2004001Y3483439D01*
X2004001Y3882560D02*
G01*
X2004001Y3737439D01*
X2004001Y4136560D02*
G01*
X2004001Y3991439D01*
X2004001Y4390560D02*
G01*
X2004001Y4245439D01*
X2004001Y4644560D02*
G01*
X2004001Y4499439D01*
X2004001Y4898560D02*
G01*
X2004001Y4753439D01*
X2004001Y5152999D02*
G01*
X2004001Y5007439D01*
X813996Y3109998D02*
G01*
X993998Y3109998D01*
X813996Y3240001D02*
G01*
X993998Y3240001D01*
X813996Y3240001D02*
G01*
X813996Y3109998D01*
X813996Y3363998D02*
G01*
X993998Y3363998D01*
X813996Y3494001D02*
G01*
X993998Y3494001D01*
X813996Y3494001D02*
G01*
X813996Y3363998D01*
X813996Y3617998D02*
G01*
X993998Y3617998D01*
X813996Y3748001D02*
G01*
X993998Y3748001D01*
X813996Y3748001D02*
G01*
X813996Y3617998D01*
X813996Y3871998D02*
G01*
X993998Y3871998D01*
X813996Y4002001D02*
G01*
X993998Y4002001D01*
X813996Y4002001D02*
G01*
X813996Y3871998D01*
X813996Y4125998D02*
G01*
X993998Y4125998D01*
X813996Y4256001D02*
G01*
X993998Y4256001D01*
X813996Y4256001D02*
G01*
X813996Y4125998D01*
X813996Y4379998D02*
G01*
X993998Y4379998D01*
X813996Y4510001D02*
G01*
X993998Y4510001D01*
X813996Y4510001D02*
G01*
X813996Y4379998D01*
X813996Y4633998D02*
G01*
X993998Y4633998D01*
X813996Y4764001D02*
G01*
X993998Y4764001D01*
X813996Y4764001D02*
G01*
X813996Y4633998D01*
X813998Y4887998D02*
G01*
X994001Y4887998D01*
X813998Y5018001D02*
G01*
X994001Y5018001D01*
X813998Y5018001D02*
G01*
X813998Y4887998D01*
X2004001Y2866999D02*
G01*
X1044000Y2866999D01*
X2004001Y689000D02*
G01*
X1043998Y689000D01*
X1044000Y2721444D02*
G01*
X1044000Y2866999D01*
X1044000Y2467444D02*
G01*
X1044000Y2612555D01*
X1044000Y2213444D02*
G01*
X1044000Y2358555D01*
X1044000Y1959444D02*
G01*
X1044000Y2104555D01*
X1044000Y1705444D02*
G01*
X1044000Y1850555D01*
X1044000Y1451444D02*
G01*
X1044000Y1596555D01*
X1044000Y1197444D02*
G01*
X1044000Y1342555D01*
X1044000Y943444D02*
G01*
X1044000Y1088555D01*
X1044000Y689444D02*
G01*
X1044000Y834555D01*
X2004001Y834560D02*
G01*
X2004001Y689439D01*
X2004001Y1088560D02*
G01*
X2004001Y943439D01*
X2004001Y1342560D02*
G01*
X2004001Y1197439D01*
X2004001Y1596560D02*
G01*
X2004001Y1451439D01*
X2004001Y1850560D02*
G01*
X2004001Y1705439D01*
X2004001Y2104560D02*
G01*
X2004001Y1959439D01*
X2004001Y2358560D02*
G01*
X2004001Y2213439D01*
X2004001Y2612560D02*
G01*
X2004001Y2467439D01*
X2004001Y2866999D02*
G01*
X2004001Y2721439D01*
X813996Y823998D02*
G01*
X993998Y823998D01*
X813996Y954001D02*
G01*
X993998Y954001D01*
X813996Y954001D02*
G01*
X813996Y823998D01*
X813996Y1077998D02*
G01*
X993998Y1077998D01*
X813996Y1208001D02*
G01*
X993998Y1208001D01*
X813996Y1208001D02*
G01*
X813996Y1077998D01*
X813996Y1331998D02*
G01*
X993998Y1331998D01*
X813996Y1462001D02*
G01*
X993998Y1462001D01*
X813996Y1462001D02*
G01*
X813996Y1331998D01*
X813996Y1585998D02*
G01*
X993998Y1585998D01*
X813996Y1716001D02*
G01*
X993998Y1716001D01*
X813996Y1716001D02*
G01*
X813996Y1585998D01*
X813996Y1839998D02*
G01*
X993998Y1839998D01*
X813996Y1970001D02*
G01*
X993998Y1970001D01*
X813996Y1970001D02*
G01*
X813996Y1839998D01*
X813996Y2093998D02*
G01*
X993998Y2093998D01*
X813996Y2224001D02*
G01*
X993998Y2224001D01*
X813996Y2224001D02*
G01*
X813996Y2093998D01*
X813996Y2347998D02*
G01*
X993998Y2347998D01*
X813996Y2478001D02*
G01*
X993998Y2478001D01*
X813996Y2478001D02*
G01*
X813996Y2347998D01*
X813998Y2601998D02*
G01*
X994001Y2601998D01*
X813998Y2732001D02*
G01*
X994001Y2732001D01*
X813998Y2732001D02*
G01*
X813998Y2601998D01*
X187838Y4872487D02*
G01*
X187838Y5032491D01*
X497895Y4872997D02*
G01*
X497895Y5033002D01*
X312834Y5032491D02*
G01*
X187838Y5032491D01*
X312834Y4872487D02*
G01*
X187838Y4872487D01*
X372892Y5033002D02*
G01*
X497895Y5033002D01*
X372892Y4872997D02*
G01*
X497895Y4872997D01*
X187838Y4618487D02*
G01*
X187838Y4778491D01*
X497895Y4618997D02*
G01*
X497895Y4779002D01*
X312834Y4778491D02*
G01*
X187838Y4778491D01*
X312834Y4618487D02*
G01*
X187838Y4618487D01*
X372892Y4779002D02*
G01*
X497895Y4779002D01*
X372892Y4618997D02*
G01*
X497895Y4618997D01*
X187838Y4364487D02*
G01*
X187838Y4524491D01*
X497895Y4364997D02*
G01*
X497895Y4525002D01*
X312834Y4524491D02*
G01*
X187838Y4524491D01*
X312834Y4364487D02*
G01*
X187838Y4364487D01*
X372892Y4525002D02*
G01*
X497895Y4525002D01*
X372892Y4364997D02*
G01*
X497895Y4364997D01*
X187838Y4110487D02*
G01*
X187838Y4270491D01*
X497895Y4110997D02*
G01*
X497895Y4271002D01*
X312834Y4270491D02*
G01*
X187838Y4270491D01*
X312834Y4110487D02*
G01*
X187838Y4110487D01*
X372892Y4271002D02*
G01*
X497895Y4271002D01*
X372892Y4110997D02*
G01*
X497895Y4110997D01*
X187838Y3856487D02*
G01*
X187838Y4016491D01*
X497895Y3856997D02*
G01*
X497895Y4017002D01*
X312834Y4016491D02*
G01*
X187838Y4016491D01*
X312834Y3856487D02*
G01*
X187838Y3856487D01*
X372892Y4017002D02*
G01*
X497895Y4017002D01*
X372892Y3856997D02*
G01*
X497895Y3856997D01*
X187838Y3602487D02*
G01*
X187838Y3762491D01*
X497895Y3602997D02*
G01*
X497895Y3763002D01*
X312834Y3762491D02*
G01*
X187838Y3762491D01*
X312834Y3602487D02*
G01*
X187838Y3602487D01*
X372892Y3763002D02*
G01*
X497895Y3763002D01*
X372892Y3602997D02*
G01*
X497895Y3602997D01*
X187838Y3348487D02*
G01*
X187838Y3508491D01*
X497895Y3348997D02*
G01*
X497895Y3509002D01*
X312834Y3508491D02*
G01*
X187838Y3508491D01*
X312834Y3348487D02*
G01*
X187838Y3348487D01*
X372892Y3509002D02*
G01*
X497895Y3509002D01*
X372892Y3348997D02*
G01*
X497895Y3348997D01*
X187838Y3094487D02*
G01*
X187838Y3254491D01*
X497895Y3094997D02*
G01*
X497895Y3255002D01*
X312834Y3254491D02*
G01*
X187838Y3254491D01*
X312834Y3094487D02*
G01*
X187838Y3094487D01*
X372892Y3255002D02*
G01*
X497895Y3255002D01*
X372892Y3094997D02*
G01*
X497895Y3094997D01*
X187838Y2586487D02*
G01*
X187838Y2746491D01*
X497895Y2586997D02*
G01*
X497895Y2747002D01*
X312834Y2746491D02*
G01*
X187838Y2746491D01*
X312834Y2586487D02*
G01*
X187838Y2586487D01*
X372892Y2747002D02*
G01*
X497895Y2747002D01*
X372892Y2586997D02*
G01*
X497895Y2586997D01*
X187838Y2332487D02*
G01*
X187838Y2492491D01*
X497895Y2332997D02*
G01*
X497895Y2493002D01*
X312834Y2492491D02*
G01*
X187838Y2492491D01*
X312834Y2332487D02*
G01*
X187838Y2332487D01*
X372892Y2493002D02*
G01*
X497895Y2493002D01*
X372892Y2332997D02*
G01*
X497895Y2332997D01*
X187838Y2078487D02*
G01*
X187838Y2238491D01*
X497895Y2078997D02*
G01*
X497895Y2239002D01*
X312834Y2238491D02*
G01*
X187838Y2238491D01*
X312834Y2078487D02*
G01*
X187838Y2078487D01*
X372892Y2239002D02*
G01*
X497895Y2239002D01*
X372892Y2078997D02*
G01*
X497895Y2078997D01*
X187838Y1824487D02*
G01*
X187838Y1984491D01*
X497895Y1824997D02*
G01*
X497895Y1985002D01*
X312834Y1984491D02*
G01*
X187838Y1984491D01*
X312834Y1824487D02*
G01*
X187838Y1824487D01*
X372892Y1985002D02*
G01*
X497895Y1985002D01*
X372892Y1824997D02*
G01*
X497895Y1824997D01*
X187838Y1570487D02*
G01*
X187838Y1730491D01*
X497895Y1570997D02*
G01*
X497895Y1731002D01*
X312834Y1730491D02*
G01*
X187838Y1730491D01*
X312834Y1570487D02*
G01*
X187838Y1570487D01*
X372892Y1731002D02*
G01*
X497895Y1731002D01*
X372892Y1570997D02*
G01*
X497895Y1570997D01*
X187838Y1316487D02*
G01*
X187838Y1476491D01*
X497895Y1316997D02*
G01*
X497895Y1477002D01*
X312834Y1476491D02*
G01*
X187838Y1476491D01*
X312834Y1316487D02*
G01*
X187838Y1316487D01*
X372892Y1477002D02*
G01*
X497895Y1477002D01*
X372892Y1316997D02*
G01*
X497895Y1316997D01*
X187838Y1062487D02*
G01*
X187838Y1222491D01*
X497895Y1062997D02*
G01*
X497895Y1223002D01*
X312834Y1222491D02*
G01*
X187838Y1222491D01*
X312834Y1062487D02*
G01*
X187838Y1062487D01*
X372892Y1223002D02*
G01*
X497895Y1223002D01*
X372892Y1062997D02*
G01*
X497895Y1062997D01*
X187838Y808487D02*
G01*
X187838Y968491D01*
X497895Y808997D02*
G01*
X497895Y969002D01*
X312834Y968491D02*
G01*
X187838Y968491D01*
X312834Y808487D02*
G01*
X187838Y808487D01*
X372892Y969002D02*
G01*
X497895Y969002D01*
X372892Y808997D02*
G01*
X497895Y808997D01*
G75*
G01*
X3975951Y2575639D02*
G02*
X3944968Y2544656I-30983J0D01*
G75*
G01*
X3944968Y2686622D02*
G02*
X3975951Y2655636I0J-30983D01*
G75*
G01*
X3727381Y2545237D02*
G02*
X3696399Y2576223I0J30983D01*
G75*
G01*
X3696399Y2656220D02*
G02*
X3727381Y2687203I30982J0D01*
G75*
G01*
X3975951Y5115639D02*
G02*
X3944968Y5084656I-30983J0D01*
G75*
G01*
X3944968Y5226622D02*
G02*
X3975951Y5195636I0J-30983D01*
G75*
G01*
X3727381Y5085237D02*
G02*
X3696399Y5116223I0J30983D01*
G75*
G01*
X3696399Y5196220D02*
G02*
X3727381Y5227203I30982J0D01*
D13*
G75*
G01
X3060116Y4953000D02*
G03X3060116Y4953000I-15011J0D01*
G75*
G01
X2844013Y5027981D02*
G03X2844013Y5027981I-15011J0D01*
G75*
G01
X3060116Y2413000D02*
G03X3060116Y2413000I-15011J0D01*
G75*
G01
X2844013Y2487981D02*
G03X2844013Y2487981I-15011J0D01*
D11*
X4235881Y5794502D02*
G01*
X5085892Y5794502D01*
X5085892Y2944495D01*
X4235881Y2944495D01*
X4235881Y5794502D01*
X4235907Y2886202D02*
G01*
X5085918Y2886202D01*
X5085918Y36195D01*
X4235907Y36195D01*
X4235907Y2886202D01*
X889000Y635000D02*
G01*
X1397000Y635000D01*
X1397000Y127000D01*
X889000Y127000D01*
X889000Y635000D01*
X2098929Y885799D02*
G01*
X3898925Y885799D01*
X3898925Y35788D01*
X2098929Y35788D01*
X2098929Y885799D01*
M02*
