G04 Layer: BottomSolderMaskLayer*
G04 Panelize: , Column: 2, Row: 2, Board Size: 58.42mm x 58.42mm, Panelized Board Size: 118.84mm x 118.84mm*
G04 EasyEDA v6.5.34, 2023-09-05 23:31:59*
G04 3ff1d21ffa584fb08a1032706516b83c,5a6b42c53f6a479593ecc07194224c93,10*
G04 Gerber Generator version 0.2*
G04 Scale: 100 percent, Rotated: No, Reflected: No *
G04 Dimensions in millimeters *
G04 leading zeros omitted , absolute positions ,4 integer and 5 decimal *
%FSLAX45Y45*%
%MOMM*%

%AMMACRO1*1,1,$1,$2,$3*1,1,$1,$4,$5*1,1,$1,0-$2,0-$3*1,1,$1,0-$4,0-$5*20,1,$1,$2,$3,$4,$5,0*20,1,$1,$4,$5,0-$2,0-$3,0*20,1,$1,0-$2,0-$3,0-$4,0-$5,0*20,1,$1,0-$4,0-$5,$2,$3,0*4,1,4,$2,$3,$4,$5,0-$2,0-$3,0-$4,0-$5,$2,$3,0*%
%ADD10MACRO1,0.1016X-0.4X-0.45X0.4X-0.45*%
%ADD11MACRO1,0.1016X0.45X-0.4X0.45X0.4*%
%ADD12MACRO1,0.1016X0.8001X0.8001X0.8001X-0.8001*%
%ADD13C,1.7018*%
%ADD14O,1.9291046X1.5635986*%
%ADD15C,1.9016*%
%ADD16MACRO1,0.2032X0.762X0.762X0.762X-0.762*%
%ADD17C,1.7272*%
%ADD18C,1.6256*%
%ADD19C,5.2032*%
%ADD20C,2.1016*%

%LPD*%
D10*
G01*
X2584601Y5588000D03*
G01*
X2444601Y5588000D03*
D11*
G01*
X3048000Y4184801D03*
G01*
X3048000Y4044801D03*
D10*
G01*
X3994301Y4826000D03*
G01*
X3854301Y4826000D03*
D12*
G01*
X2032000Y5588000D03*
D13*
G01*
X2032000Y5334000D03*
G01*
X2032000Y5080000D03*
G01*
X2032000Y4826000D03*
G01*
X2794000Y4826000D03*
G01*
X2794000Y5080000D03*
G01*
X2794000Y5334000D03*
G01*
X2794000Y5588000D03*
D14*
G01*
X3412997Y4826000D03*
G01*
X4207002Y4826000D03*
G01*
X3412997Y4572000D03*
G01*
X4207002Y4572000D03*
G01*
X3412997Y4318000D03*
G01*
X4207002Y4318000D03*
G01*
X3412997Y4064000D03*
G01*
X4207002Y4064000D03*
G01*
X3412997Y3810000D03*
G01*
X4207002Y3810000D03*
G01*
X3412997Y3556000D03*
G01*
X4207002Y3556000D03*
G01*
X3412997Y3302000D03*
G01*
X4207002Y3302000D03*
G01*
X3412997Y3048000D03*
G01*
X4207002Y3048000D03*
G01*
X3412997Y2794000D03*
G01*
X4207002Y2794000D03*
G01*
X3412997Y2540000D03*
G01*
X4207002Y2540000D03*
G01*
X3412997Y2286000D03*
G01*
X4207002Y2286000D03*
G01*
X3412997Y2032000D03*
G01*
X4207002Y2032000D03*
G01*
X2015997Y4318000D03*
G01*
X2810002Y4318000D03*
G01*
X2015997Y4064000D03*
G01*
X2810002Y4064000D03*
G01*
X2015997Y3810000D03*
G01*
X2810002Y3810000D03*
G01*
X2015997Y3556000D03*
G01*
X2810002Y3556000D03*
G01*
X2015997Y3302000D03*
G01*
X2810002Y3302000D03*
G01*
X2015997Y3048000D03*
G01*
X2810002Y3048000D03*
G01*
X2015997Y2794000D03*
G01*
X2810002Y2794000D03*
G01*
X2015997Y2540000D03*
G01*
X2810002Y2540000D03*
G01*
X2015997Y2286000D03*
G01*
X2810002Y2286000D03*
G01*
X2015997Y2032000D03*
G01*
X2810002Y2032000D03*
D15*
G01*
X4826000Y2794000D03*
G01*
X4826000Y3048000D03*
G01*
X4826000Y3302000D03*
G01*
X4826000Y3556000D03*
G01*
X4826000Y3810000D03*
G01*
X4826000Y4064000D03*
G01*
X4826000Y4318000D03*
G01*
X4826000Y4572000D03*
G01*
X5588000Y2794000D03*
G01*
X5588000Y3048000D03*
G01*
X5588000Y3302000D03*
G01*
X5588000Y3556000D03*
G01*
X5588000Y3810000D03*
G01*
X5588000Y4064000D03*
G01*
X5588000Y4318000D03*
G01*
X5588000Y4572000D03*
D16*
G01*
X4559300Y4826000D03*
D17*
G01*
X4559300Y4572000D03*
G01*
X4559300Y4318000D03*
G01*
X4559300Y4064000D03*
G01*
X4559300Y3810000D03*
G01*
X4559300Y3556000D03*
G01*
X4559300Y3302000D03*
G01*
X4559300Y3048000D03*
D18*
G01*
X4559300Y2794000D03*
G01*
X4559300Y2540000D03*
D19*
G01*
X5461000Y381000D03*
G01*
X381000Y381000D03*
G01*
X381000Y5461000D03*
G01*
X5461000Y5461000D03*
D20*
G01*
X956081Y3489197D03*
G01*
X956081Y3743197D03*
G01*
X956081Y3997197D03*
G01*
X956081Y4251197D03*
G01*
X956081Y4505197D03*
G01*
X956081Y4759197D03*
G01*
X956081Y5013197D03*
G01*
X956081Y5267197D03*
G01*
X956106Y2358897D03*
G01*
X956106Y2104897D03*
G01*
X956106Y1850897D03*
G01*
X956106Y1596897D03*
G01*
X956106Y1342897D03*
G01*
X956106Y1088897D03*
G01*
X956106Y834897D03*
G01*
X956106Y580897D03*
D15*
G01*
X5588000Y1016000D03*
G01*
X5334000Y1016000D03*
G01*
X5334000Y1270000D03*
G01*
X5588000Y1270000D03*
D20*
G01*
X4343400Y444500D03*
G01*
X4089400Y444500D03*
G01*
X3835400Y444500D03*
G01*
X3581400Y444500D03*
G01*
X3327400Y444500D03*
G01*
X3073400Y444500D03*
G01*
X2819400Y444500D03*
G01*
X2565400Y444500D03*
M02*
