M48
METRIC,LZ,000.000
;FILE_FORMAT=3:3
;TYPE=PLATED
;Layer: PTH_Through_Via
;EasyEDA v6.5.34, 2023-09-05 23:47:00
;23034ade622943b09ef3a65bf2e35728,5a6b42c53f6a479593ecc07194224c93,10
;Gerber Generator version 0.2
;Holesize 1 = 0.305 mm
T01C0.305
%
G05
G90
T01
X120241Y025279
X120241Y018415
X120241Y007620
X125321Y007620
X123063Y018415
X120269Y057785
X071755Y046482
X074295Y034544
X076835Y032004
X089916Y042164
X089916Y050673
X028702Y048768
X036195Y019685
X031115Y046228
X038989Y017145
X041910Y039624
X041910Y012065
X042545Y037084
X042545Y009525
X043180Y034544
X043180Y006985
X043815Y004445
X043815Y032004
X041275Y042164
X041275Y014605
X035560Y022225
X035560Y051308
X031750Y052578
X031750Y023495
X031750Y001905
X046736Y024765
X046736Y001016
X104267Y011938
X093345Y034544
X093345Y051943
X093980Y032004
X093980Y052578
X097536Y040894
X103124Y034544
X100330Y044704
X097536Y025400
X100330Y027305
X103124Y024765
X096012Y026670
X096012Y034544
X089916Y034544
X089916Y026670
X107950Y026670
X107950Y034544
X082423Y045974
X082423Y051308
X086995Y052578
X084455Y051943
X079375Y050673
X043942Y037084
X043942Y052578
X046482Y051943
X046482Y034544
X049022Y051308
X049022Y032004
X051562Y050673
X052197Y010795
X050292Y003175
X050292Y037084
X050927Y034544
X050927Y005715
X051562Y032004
X051562Y008255
X053467Y034544
X053467Y015875
X052832Y032004
X052832Y013335
X054102Y018415
X054102Y046482
X054737Y031369
X054737Y020955
X030607Y020955
X030607Y028829
X029337Y015875
X029337Y030099
X029972Y018415
X029972Y029464
X083058Y043434
X083058Y032004
X082296Y040894
X082296Y029464
X083058Y050038
X083058Y044704
X092710Y035814
X092710Y047244
X096012Y038354
X096012Y044704
X062738Y024765
X062738Y017145
X062103Y027305
X062103Y019685
X061468Y025400
X061468Y022225
X106807Y026035
X083693Y026035
X083693Y037084
X057870Y057785
X033782Y057785
X027940Y055118
X027940Y026035
X052832Y053213
X059563Y053213
X059563Y023495
X071120Y023495
X067437Y026162
X078994Y026162
X092837Y006985
X111760Y050038
X111760Y017145
X111125Y052578
X111125Y022860
X080518Y021590
X081153Y013335
X081153Y020955
X112395Y047480
X112395Y019050
X113030Y044940
X113030Y020955
X113665Y042400
X113665Y022225
X114300Y013317
X114300Y023495
X114935Y015857
X114935Y021590
X113665Y018397
X113665Y020320
X082423Y005715
X082423Y019050
X081788Y008255
X081788Y020320
X077089Y020955
X077089Y006985
X075946Y008255
X075946Y017145
X075311Y010795
X075311Y019685
X074676Y014605
X074676Y022225
X074041Y015875
X074041Y022860
X073406Y017145
X073406Y023495
X072771Y018415
X072771Y024130
X080518Y015875
X055372Y054102
X085598Y008255
X085598Y054229
X095377Y008255
X050249Y050673
X047709Y051308
X042629Y052578
X045169Y051943
X038735Y040513
X036195Y035433
X036830Y036703
X036195Y052578
X036830Y051943
X037084Y030734
X031115Y030734
X037465Y051308
X038100Y050673
X028702Y028194
X036195Y028194
X037465Y037973
X038100Y039243
X064008Y010795
X064008Y037719
X065278Y012065
X065278Y038989
X064643Y009525
X064643Y036449
X065913Y004445
X065913Y035179
X063373Y006985
X063373Y033909
X038989Y028194
X037084Y028194
X098933Y049911
X088392Y049911
X088392Y057785
X109347Y049911
X079121Y048641
X079121Y029464
X078486Y049276
X078486Y030099
X106553Y032004
X106553Y049276
X107315Y044704
X107315Y027940
X069215Y031369
X077470Y042164
X077470Y031369
X101727Y025400
X104902Y032004
X104902Y025400
X096647Y043434
X096647Y006985
X100457Y006985
X101727Y048641
X107569Y049911
X107569Y057785
X050292Y040005
X052832Y040005
X055372Y040005
X045212Y040005
X078105Y055118
X051562Y055118
X049022Y055118
X046482Y055118
X043942Y055118
X041402Y055118
X099356Y055154
X101896Y055154
X088985Y003302
X096605Y003302
X104225Y003302
X061595Y048641
X061595Y044704
X061595Y042164
X066167Y037719
X034798Y046228
X010541Y051331
X010541Y048791
X010541Y046251
X010541Y043711
X010541Y041171
X010541Y038631
X010541Y036091
X010542Y022248
X010542Y019708
X010542Y017168
X010542Y014628
X010542Y012088
X010542Y009548
X010542Y007008
X116988Y021916
X084582Y042164
X094996Y040894
X094996Y051308
X094996Y056134
X085725Y055118
X060706Y027305
X080137Y026162
X045085Y032004
X094996Y044704
X105410Y044704
X105410Y038354
X084582Y037084
X084582Y034544
X084582Y038989
X084582Y045339
X086360Y039624
M30
