M48
METRIC,LZ,000.000
;FILE_FORMAT=3:3
;TYPE=PLATED
;Layer: PTH_Through
;EasyEDA v6.5.34, 2023-09-05 23:47:00
;23034ade622943b09ef3a65bf2e35728,5a6b42c53f6a479593ecc07194224c93,10
;Gerber Generator version 0.2
;Holesize 1 = 0.305 mm
T01C0.305
;Holesize 2 = 0.901 mm
T02C0.901
;Holesize 3 = 0.915 mm
T03C0.915
;Holesize 4 = 1.000 mm
T04C1.000
;Holesize 5 = 1.101 mm
T05C1.101
;Holesize 6 = 1.301 mm
T06C1.301
;Holesize 7 = 3.000 mm
T07C3.000
%
G05
G90
T01
X120241Y025279
X120241Y018415
X120241Y007620
X125321Y007620
X123063Y018415
X120269Y057785
X071755Y046482
X074295Y034544
X076835Y032004
X089916Y042164
X089916Y050673
X028702Y048768
X036195Y019685
X031115Y046228
X038989Y017145
X041910Y039624
X041910Y012065
X042545Y037084
X042545Y009525
X043180Y034544
X043180Y006985
X043815Y004445
X043815Y032004
X041275Y042164
X041275Y014605
X035560Y022225
X035560Y051308
X031750Y052578
X031750Y023495
X031750Y001905
X046736Y024765
X046736Y001016
X104267Y011938
X093345Y034544
X093345Y051943
X093980Y032004
X093980Y052578
X097536Y040894
X103124Y034544
X100330Y044704
X097536Y025400
X100330Y027305
X103124Y024765
X096012Y026670
X096012Y034544
X089916Y034544
X089916Y026670
X107950Y026670
X107950Y034544
X082423Y045974
X082423Y051308
X086995Y052578
X084455Y051943
X079375Y050673
X043942Y037084
X043942Y052578
X046482Y051943
X046482Y034544
X049022Y051308
X049022Y032004
X051562Y050673
X052197Y010795
X050292Y003175
X050292Y037084
X050927Y034544
X050927Y005715
X051562Y032004
X051562Y008255
X053467Y034544
X053467Y015875
X052832Y032004
X052832Y013335
X054102Y018415
X054102Y046482
X054737Y031369
X054737Y020955
X030607Y020955
X030607Y028829
X029337Y015875
X029337Y030099
X029972Y018415
X029972Y029464
X083058Y043434
X083058Y032004
X082296Y040894
X082296Y029464
X083058Y050038
X083058Y044704
X092710Y035814
X092710Y047244
X096012Y038354
X096012Y044704
X062738Y024765
X062738Y017145
X062103Y027305
X062103Y019685
X061468Y025400
X061468Y022225
X106807Y026035
X083693Y026035
X083693Y037084
X057870Y057785
X033782Y057785
X027940Y055118
X027940Y026035
X052832Y053213
X059563Y053213
X059563Y023495
X071120Y023495
X067437Y026162
X078994Y026162
X092837Y006985
X111760Y050038
X111760Y017145
X111125Y052578
X111125Y022860
X080518Y021590
X081153Y013335
X081153Y020955
X112395Y047480
X112395Y019050
X113030Y044940
X113030Y020955
X113665Y042400
X113665Y022225
X114300Y013317
X114300Y023495
X114935Y015857
X114935Y021590
X113665Y018397
X113665Y020320
X082423Y005715
X082423Y019050
X081788Y008255
X081788Y020320
X077089Y020955
X077089Y006985
X075946Y008255
X075946Y017145
X075311Y010795
X075311Y019685
X074676Y014605
X074676Y022225
X074041Y015875
X074041Y022860
X073406Y017145
X073406Y023495
X072771Y018415
X072771Y024130
X080518Y015875
X055372Y054102
X085598Y008255
X085598Y054229
X095377Y008255
X050249Y050673
X047709Y051308
X042629Y052578
X045169Y051943
X038735Y040513
X036195Y035433
X036830Y036703
X036195Y052578
X036830Y051943
X037084Y030734
X031115Y030734
X037465Y051308
X038100Y050673
X028702Y028194
X036195Y028194
X037465Y037973
X038100Y039243
X064008Y010795
X064008Y037719
X065278Y012065
X065278Y038989
X064643Y009525
X064643Y036449
X065913Y004445
X065913Y035179
X063373Y006985
X063373Y033909
X038989Y028194
X037084Y028194
X098933Y049911
X088392Y049911
X088392Y057785
X109347Y049911
X079121Y048641
X079121Y029464
X078486Y049276
X078486Y030099
X106553Y032004
X106553Y049276
X107315Y044704
X107315Y027940
X069215Y031369
X077470Y042164
X077470Y031369
X101727Y025400
X104902Y032004
X104902Y025400
X096647Y043434
X096647Y006985
X100457Y006985
X101727Y048641
X107569Y049911
X107569Y057785
X050292Y040005
X052832Y040005
X055372Y040005
X045212Y040005
X078105Y055118
X051562Y055118
X049022Y055118
X046482Y055118
X043942Y055118
X041402Y055118
X099356Y055154
X101896Y055154
X088985Y003302
X096605Y003302
X104225Y003302
X061595Y048641
X061595Y044704
X061595Y042164
X066167Y037719
X034798Y046228
X010541Y051331
X010541Y048791
X010541Y046251
X010541Y043711
X010541Y041171
X010541Y038631
X010541Y036091
X010542Y022248
X010542Y019708
X010542Y017168
X010542Y014628
X010542Y012088
X010542Y009548
X010542Y007008
X116988Y021916
X084582Y042164
X094996Y040894
X094996Y051308
X094996Y056134
X085725Y055118
X060706Y027305
X080137Y026162
X045085Y032004
X094996Y044704
X105410Y044704
X105410Y038354
X084582Y037084
X084582Y034544
X084582Y038989
X084582Y045339
X086360Y039624
T02
X048768Y005715
X048768Y008255
X048768Y010795
X048768Y013335
X048768Y015875
X048768Y018415
X048768Y020955
X048768Y023495
X048768Y026035
X048768Y003175
X056388Y003175
X056388Y005715
X056388Y008255
X056388Y010795
X056388Y013335
X056388Y015875
X056388Y018415
X056388Y020955
X056388Y023495
X056388Y026035
X037592Y005715
X037592Y008255
X037592Y010795
X037592Y013335
X037592Y015875
X037592Y018415
X037592Y020955
X037592Y023495
X037592Y026035
X037592Y003175
X045212Y003175
X045212Y005715
X045212Y008255
X045212Y010795
X045212Y013335
X045212Y015875
X045212Y018415
X045212Y020955
X045212Y023495
X045212Y026035
X026162Y005715
X026162Y008255
X026162Y010795
X026162Y013335
X026162Y015875
X026162Y018415
X026162Y020955
X026162Y023495
X026162Y026035
X026162Y003175
X033782Y003175
X033782Y005715
X033782Y008255
X033782Y010795
X033782Y013335
X033782Y015875
X033782Y018415
X033782Y020955
X033782Y023495
X033782Y026035
X026162Y034798
X026162Y037338
X026162Y039878
X026162Y042418
X026162Y044958
X026162Y047498
X026162Y050038
X026162Y052578
X026162Y055118
X026162Y032258
X033782Y032258
X033782Y034798
X033782Y037338
X033782Y039878
X033782Y042418
X033782Y044958
X033782Y047498
X033782Y050038
X033782Y052578
X033782Y055118
T03
X020447Y052559
X020447Y044939
X017907Y044911
X020447Y047479
X017907Y047451
X017907Y034751
X020447Y034779
X020447Y039859
X017907Y039831
X020447Y042399
X017907Y042371
X017907Y049991
X020447Y050019
X017907Y037291
X020447Y037319
X017879Y052559
X017879Y023476
X020447Y008236
X017907Y008208
X020447Y020936
X017907Y020908
X017907Y013288
X020447Y013316
X017907Y010748
X020447Y010776
X020447Y005696
X017907Y005668
X017907Y018368
X020447Y018396
X017907Y015828
X020447Y015856
X020447Y023476
X087757Y010640
X102997Y013208
X103025Y010668
X090297Y013208
X090325Y010668
X097945Y010668
X097917Y013208
X100485Y010668
X100457Y013208
X105537Y013208
X105565Y010668
X092865Y010668
X092837Y013208
X095405Y010668
X095377Y013208
X087757Y013208
X040090Y045212
X040090Y047780
X042630Y045212
X042630Y047780
X045170Y047780
X045170Y045212
X047710Y047780
X047710Y045212
X050250Y047780
X050250Y045212
X052790Y047780
X052790Y045212
X055330Y047780
X055330Y045212
X057870Y047780
X057870Y045212
T04
X059530Y020955
X059530Y018415
X059530Y005715
X059530Y003175
X059530Y015875
X059530Y013335
X059530Y008255
X059530Y010795
X067470Y003175
X067470Y005715
X067470Y008255
X067470Y010795
X067470Y013335
X067470Y015875
X067470Y018415
X067470Y020955
X071087Y020955
X071087Y018415
X071087Y005715
X071087Y003175
X071087Y015875
X071087Y013335
X071087Y008255
X071087Y010795
X079027Y003175
X079027Y005715
X079027Y008255
X079027Y010795
X079027Y013335
X079027Y015875
X079027Y018415
X079027Y020955
X080772Y047244
X080772Y044704
X080772Y032004
X080772Y029464
X080772Y042164
X080772Y039624
X080772Y034544
X080772Y037084
X088392Y029464
X088392Y032004
X088392Y034544
X088392Y037084
X088392Y039624
X088392Y042164
X088392Y044704
X088392Y047244
X091249Y047244
X091249Y044704
X091249Y032004
X091249Y029464
X091249Y042164
X091249Y039624
X091249Y034544
X091249Y037084
X098869Y029464
X098869Y032004
X098869Y034544
X098869Y037084
X098869Y039624
X098869Y042164
X098869Y044704
X098869Y047244
X101727Y047244
X101727Y044704
X101727Y032004
X101727Y029464
X101727Y042164
X101727Y039624
X101727Y034544
X101727Y037084
X109347Y029464
X109347Y032004
X109347Y034544
X109347Y037084
X109347Y039624
X109347Y042164
X109347Y044704
X109347Y047244
T05
X125321Y010160
X122781Y010160
X122781Y012700
X125321Y012700
T06
X009561Y034779
X009561Y037319
X009561Y039859
X009561Y042399
X009561Y044939
X009561Y047479
X009561Y050019
X009561Y052559
X009561Y023476
X009561Y020936
X009561Y018396
X009561Y015856
X009561Y013316
X009561Y010776
X009561Y008236
X009561Y005696
X118300Y052559
X118300Y050019
X118300Y047479
X118300Y044939
X118300Y042399
X118300Y039859
X118300Y037319
X118300Y034779
X118300Y005696
X118300Y008236
X118300Y010776
X118300Y013316
X118300Y015856
X118300Y018396
X118300Y020936
X118300Y023476
X040090Y056098
X042630Y056098
X045170Y056098
X047710Y056098
X050250Y056098
X052790Y056098
X055330Y056098
X057870Y056098
X086953Y056098
X084413Y056098
X081873Y056098
X079333Y056098
X076793Y056098
X074253Y056098
X071713Y056098
X069173Y056098
X087757Y002322
X090297Y002322
X092837Y002322
X095377Y002322
X097917Y002322
X100457Y002322
X102997Y002322
X105537Y002322
X103124Y056134
X100584Y056134
X098044Y056134
X105664Y056134
T07
X003810Y054610
X124051Y054610
X124051Y003810
X003810Y003810
M30
