M48
METRIC,LZ,000.000
;FILE_FORMAT=3:3
;TYPE=PLATED
;Layer: PTH_Through
;EasyEDA v6.5.34, 2023-09-06 22:51:59
;a86b413e394c4c25ad92b8d6a36629b7,5a6b42c53f6a479593ecc07194224c93,10
;Gerber Generator version 0.2
;Holesize 1 = 0.305 mm
T01C0.305
;Holesize 2 = 0.915 mm
T02C0.915
;Holesize 3 = 1.000 mm
T03C1.000
;Holesize 4 = 1.101 mm
T04C1.101
;Holesize 5 = 1.301 mm
T05C1.301
;Holesize 6 = 3.000 mm
T06C3.000
%
G05
G90
T01
X120241Y054605
X123162Y018410
X125321Y007615
X120241Y007615
X120241Y018410
X041910Y051308
X044450Y048768
X049043Y046207
X052070Y043688
X054610Y041148
X057150Y036703
X059690Y036068
X062230Y033528
X040005Y013589
X054610Y013589
X042545Y012954
X057150Y012954
X045085Y012319
X059690Y012319
X047625Y011684
X062230Y011684
X050165Y011049
X067310Y011049
X052705Y010414
X069850Y010414
X055245Y009779
X072390Y009779
X057785Y009144
X074930Y009144
X069088Y008509
X077470Y008509
X071628Y007874
X080010Y007874
X074168Y007239
X082550Y007239
X043180Y006604
X079248Y006604
X045720Y005969
X081788Y005969
X120241Y025274
X090170Y025274
X064770Y057145
X035433Y017018
X039370Y019685
X040259Y021209
X090170Y046228
X092710Y048768
X095250Y051308
X091440Y011049
X084328Y011049
X093980Y010414
X086868Y010414
X088900Y018923
X046990Y018923
X092710Y018288
X044450Y018288
X095250Y017653
X041910Y017653
X096520Y020447
X096520Y043688
X049530Y020447
X097155Y021844
X097155Y041148
X052070Y021844
X069850Y050419
X072390Y049530
X074930Y047879
X077470Y047117
X080010Y045339
X082550Y044577
X087630Y042037
X085090Y042799
X033782Y006985
X033782Y042037
X033147Y009525
X033147Y042799
X032512Y012065
X032512Y044577
X031877Y014605
X031877Y045339
X031242Y017145
X031242Y047117
X030607Y019685
X030607Y047879
X029972Y022225
X029972Y049530
X029337Y024765
X029337Y050419
X099822Y005969
X097409Y006604
X104902Y010414
X102362Y011049
T02
X039370Y038862
X041910Y038862
X044450Y038862
X046990Y038862
X049530Y038862
X052070Y038862
X054610Y038862
X057150Y038862
X059690Y038862
X085090Y038862
X082550Y038862
X080010Y038862
X077470Y038862
X074930Y038862
X072390Y038862
X069850Y038862
X067310Y038862
X064770Y038862
X087630Y038862
X087630Y054462
X064770Y054462
X067310Y054462
X069850Y054462
X072390Y054462
X074930Y054462
X077470Y054462
X080010Y054462
X082550Y054462
X085090Y054462
X059690Y054462
X057150Y054462
X054610Y054462
X052070Y054462
X049530Y054462
X046990Y054462
X044450Y054462
X041910Y054462
X039370Y054462
X090170Y038862
X092710Y038862
X095250Y038862
X090170Y054462
X092710Y054462
X095250Y054462
X020447Y023476
X020447Y015856
X017907Y015828
X020447Y018396
X017907Y018368
X017907Y005668
X020447Y005696
X020447Y010776
X017907Y010748
X020447Y013316
X017907Y013288
X017907Y020908
X020447Y020936
X017907Y008208
X020447Y008236
X017879Y023476
X017879Y052559
X020447Y037319
X017907Y037291
X020447Y050019
X017907Y049991
X017907Y042371
X020447Y042399
X017907Y039831
X020447Y039859
X020447Y034779
X017907Y034751
X017907Y047451
X020447Y047479
X017907Y044911
X020447Y044939
X020447Y052559
X107414Y052554
X109982Y052554
X109982Y050014
X107414Y050014
X107414Y047474
X109982Y047474
X109982Y044934
X107414Y044934
X109982Y042394
X107414Y042394
X109982Y018391
X107414Y018391
X107414Y020931
X109982Y020931
X109982Y023471
X107414Y023471
X098552Y003965
X098552Y001397
X101092Y001397
X101092Y003965
X103632Y003965
X103632Y001397
X106172Y001397
X106172Y003965
T03
X090170Y015240
X087630Y015240
X085090Y015240
X082550Y015240
X080010Y015240
X077470Y015240
X074930Y015240
X072390Y015240
X069850Y015240
X067310Y015240
X064770Y015240
X062230Y015240
X059690Y015240
X057150Y015240
X054610Y015240
X052070Y015240
X049530Y015240
X046990Y015240
X044450Y015240
X041910Y015240
X041910Y030480
X044450Y030480
X046990Y030480
X049530Y030480
X052070Y030480
X054610Y030480
X057150Y030480
X059690Y030480
X062230Y030480
X064770Y030480
X067310Y030480
X069850Y030480
X072390Y030480
X074930Y030480
X077470Y030480
X080010Y030480
X082550Y030480
X085090Y030480
X087630Y030480
X090170Y030480
X036830Y038862
X062230Y038862
X062230Y054462
X036830Y054462
T04
X125321Y012695
X122781Y012695
X122781Y010155
X125321Y010155
T05
X009561Y005696
X009561Y008236
X009561Y010776
X009561Y013316
X009561Y015856
X009561Y018396
X009561Y020936
X009561Y023476
X009561Y052559
X009561Y050019
X009561Y047479
X009561Y044939
X009561Y042399
X009561Y039859
X009561Y037319
X009561Y034779
X118300Y023471
X118300Y020931
X118300Y018391
X118300Y015851
X118300Y013311
X118300Y010771
X118300Y008231
X118300Y005691
X118300Y034774
X118300Y037314
X118300Y039854
X118300Y042394
X118300Y044934
X118300Y047474
X118300Y050014
X118300Y052554
X057785Y002317
X055245Y002317
X052705Y002317
X050165Y002317
X047625Y002317
X045085Y002317
X042545Y002317
X040005Y002317
X069088Y002317
X071628Y002317
X074168Y002317
X076708Y002317
X079248Y002317
X081788Y002317
X084328Y002317
X086868Y002317
T06
X003810Y003810
X003810Y054610
X124051Y003805
X124051Y054605
M30
