M48
METRIC,LZ,000.000
;FILE_FORMAT=3:3
;TYPE=PLATED
;Layer: PTH_Through_Via
;EasyEDA v6.5.34, 2023-09-06 22:51:59
;a86b413e394c4c25ad92b8d6a36629b7,5a6b42c53f6a479593ecc07194224c93,10
;Gerber Generator version 0.2
;Holesize 1 = 0.305 mm
T01C0.305
%
G05
G90
T01
X120241Y054605
X123162Y018410
X125321Y007615
X120241Y007615
X120241Y018410
X041910Y051308
X044450Y048768
X049043Y046207
X052070Y043688
X054610Y041148
X057150Y036703
X059690Y036068
X062230Y033528
X040005Y013589
X054610Y013589
X042545Y012954
X057150Y012954
X045085Y012319
X059690Y012319
X047625Y011684
X062230Y011684
X050165Y011049
X067310Y011049
X052705Y010414
X069850Y010414
X055245Y009779
X072390Y009779
X057785Y009144
X074930Y009144
X069088Y008509
X077470Y008509
X071628Y007874
X080010Y007874
X074168Y007239
X082550Y007239
X043180Y006604
X079248Y006604
X045720Y005969
X081788Y005969
X120241Y025274
X090170Y025274
X064770Y057145
X035433Y017018
X039370Y019685
X040259Y021209
X090170Y046228
X092710Y048768
X095250Y051308
X091440Y011049
X084328Y011049
X093980Y010414
X086868Y010414
X088900Y018923
X046990Y018923
X092710Y018288
X044450Y018288
X095250Y017653
X041910Y017653
X096520Y020447
X096520Y043688
X049530Y020447
X097155Y021844
X097155Y041148
X052070Y021844
X069850Y050419
X072390Y049530
X074930Y047879
X077470Y047117
X080010Y045339
X082550Y044577
X087630Y042037
X085090Y042799
X033782Y006985
X033782Y042037
X033147Y009525
X033147Y042799
X032512Y012065
X032512Y044577
X031877Y014605
X031877Y045339
X031242Y017145
X031242Y047117
X030607Y019685
X030607Y047879
X029972Y022225
X029972Y049530
X029337Y024765
X029337Y050419
X099822Y005969
X097409Y006604
X104902Y010414
X102362Y011049
M30
