G04 Layer: BottomSilkscreenLayer*
G04 EasyEDA v6.5.34, 2023-09-06 22:51:59*
G04 a86b413e394c4c25ad92b8d6a36629b7,5a6b42c53f6a479593ecc07194224c93,10*
G04 Gerber Generator version 0.2*
G04 Scale: 100 percent, Rotated: No, Reflected: No *
G04 Dimensions in millimeters *
G04 leading zeros omitted , absolute positions ,4 integer and 5 decimal *
%FSLAX45Y45*%
%MOMM*%

%ADD10C,0.1524*%
%ADD11C,0.1520*%
%ADD12C,0.2540*%

%LPD*%
D10*
X7605567Y2667462D02*
G01*
X7610764Y2677853D01*
X7621155Y2688244D01*
X7631544Y2693438D01*
X7652326Y2693438D01*
X7662717Y2688244D01*
X7673108Y2677853D01*
X7678305Y2667462D01*
X7683500Y2651874D01*
X7683500Y2625897D01*
X7678305Y2610312D01*
X7673108Y2599921D01*
X7662717Y2589529D01*
X7652326Y2584335D01*
X7631544Y2584335D01*
X7621155Y2589529D01*
X7610764Y2599921D01*
X7605567Y2610312D01*
X7540104Y2693438D02*
G01*
X7550495Y2688244D01*
X7560886Y2677853D01*
X7566083Y2667462D01*
X7571277Y2651874D01*
X7571277Y2625897D01*
X7566083Y2610312D01*
X7560886Y2599921D01*
X7550495Y2589529D01*
X7540104Y2584335D01*
X7519324Y2584335D01*
X7508933Y2589529D01*
X7498542Y2599921D01*
X7493345Y2610312D01*
X7488151Y2625897D01*
X7488151Y2651874D01*
X7493345Y2667462D01*
X7498542Y2677853D01*
X7508933Y2688244D01*
X7519324Y2693438D01*
X7540104Y2693438D01*
X7453861Y2693438D02*
G01*
X7453861Y2584335D01*
X7453861Y2693438D02*
G01*
X7407102Y2693438D01*
X7391514Y2688244D01*
X7386320Y2683047D01*
X7381125Y2672656D01*
X7381125Y2657071D01*
X7386320Y2646679D01*
X7391514Y2641485D01*
X7407102Y2636288D01*
X7453861Y2636288D01*
X7346835Y2693438D02*
G01*
X7305271Y2641485D01*
X7305271Y2584335D01*
X7263706Y2693438D02*
G01*
X7305271Y2641485D01*
X7229416Y2693438D02*
G01*
X7229416Y2584335D01*
X7229416Y2693438D02*
G01*
X7182657Y2693438D01*
X7167072Y2688244D01*
X7161875Y2683047D01*
X7156681Y2672656D01*
X7156681Y2662265D01*
X7161875Y2651874D01*
X7167072Y2646679D01*
X7182657Y2641485D01*
X7229416Y2641485D01*
X7193048Y2641485D02*
G01*
X7156681Y2584335D01*
X7122391Y2693438D02*
G01*
X7122391Y2584335D01*
X7010168Y2667462D02*
G01*
X7015365Y2677853D01*
X7025754Y2688244D01*
X7036145Y2693438D01*
X7056927Y2693438D01*
X7067318Y2688244D01*
X7077709Y2677853D01*
X7082904Y2667462D01*
X7088101Y2651874D01*
X7088101Y2625897D01*
X7082904Y2610312D01*
X7077709Y2599921D01*
X7067318Y2589529D01*
X7056927Y2584335D01*
X7036145Y2584335D01*
X7025754Y2589529D01*
X7015365Y2599921D01*
X7010168Y2610312D01*
X7010168Y2625897D01*
X7036145Y2625897D02*
G01*
X7010168Y2625897D01*
X6975878Y2693438D02*
G01*
X6975878Y2584335D01*
X6903143Y2693438D02*
G01*
X6903143Y2584335D01*
X6975878Y2641485D02*
G01*
X6903143Y2641485D01*
X6832485Y2693438D02*
G01*
X6832485Y2584335D01*
X6868853Y2693438D02*
G01*
X6796115Y2693438D01*
X6676621Y2667462D02*
G01*
X6676621Y2672656D01*
X6671424Y2683047D01*
X6666229Y2688244D01*
X6655838Y2693438D01*
X6635056Y2693438D01*
X6624665Y2688244D01*
X6619471Y2683047D01*
X6614274Y2672656D01*
X6614274Y2662265D01*
X6619471Y2651874D01*
X6629862Y2636288D01*
X6681815Y2584335D01*
X6609079Y2584335D01*
X6543616Y2693438D02*
G01*
X6559204Y2688244D01*
X6569595Y2672656D01*
X6574790Y2646679D01*
X6574790Y2631094D01*
X6569595Y2605115D01*
X6559204Y2589529D01*
X6543616Y2584335D01*
X6533225Y2584335D01*
X6517640Y2589529D01*
X6507248Y2605115D01*
X6502054Y2631094D01*
X6502054Y2646679D01*
X6507248Y2672656D01*
X6517640Y2688244D01*
X6533225Y2693438D01*
X6543616Y2693438D01*
X6462567Y2667462D02*
G01*
X6462567Y2672656D01*
X6457373Y2683047D01*
X6452176Y2688244D01*
X6441785Y2693438D01*
X6421005Y2693438D01*
X6410614Y2688244D01*
X6405417Y2683047D01*
X6400223Y2672656D01*
X6400223Y2662265D01*
X6405417Y2651874D01*
X6415808Y2636288D01*
X6467764Y2584335D01*
X6395026Y2584335D01*
X6350345Y2693438D02*
G01*
X6293195Y2693438D01*
X6324368Y2651874D01*
X6308783Y2651874D01*
X6298392Y2646679D01*
X6293195Y2641485D01*
X6288001Y2625897D01*
X6288001Y2615506D01*
X6293195Y2599921D01*
X6303586Y2589529D01*
X6319174Y2584335D01*
X6334759Y2584335D01*
X6350345Y2589529D01*
X6355542Y2594724D01*
X6360736Y2605115D01*
X6173701Y2693438D02*
G01*
X6132136Y2584335D01*
X6090574Y2693438D02*
G01*
X6132136Y2584335D01*
X6056284Y2693438D02*
G01*
X6056284Y2584335D01*
X6056284Y2693438D02*
G01*
X5988743Y2693438D01*
X6056284Y2641485D02*
G01*
X6014720Y2641485D01*
X6056284Y2584335D02*
G01*
X5988743Y2584335D01*
X5881715Y2693438D02*
G01*
X5933671Y2584335D01*
X5954453Y2693438D02*
G01*
X5881715Y2693438D01*
X5847425Y2693438D02*
G01*
X5847425Y2584335D01*
X5847425Y2693438D02*
G01*
X5779884Y2693438D01*
X5847425Y2641485D02*
G01*
X5805863Y2641485D01*
X5745594Y2693438D02*
G01*
X5745594Y2584335D01*
X5711304Y2693438D02*
G01*
X5711304Y2584335D01*
X5711304Y2693438D02*
G01*
X5669742Y2584335D01*
X5628177Y2693438D02*
G01*
X5669742Y2584335D01*
X5628177Y2693438D02*
G01*
X5628177Y2584335D01*
D11*
X7174334Y2490228D02*
G01*
X7174334Y2407102D01*
X7179530Y2391514D01*
X7184725Y2386319D01*
X7195116Y2381125D01*
X7205507Y2381125D01*
X7215898Y2386319D01*
X7221095Y2391514D01*
X7226289Y2407102D01*
X7226289Y2417493D01*
X7140044Y2490228D02*
G01*
X7140044Y2381125D01*
X7140044Y2381125D02*
G01*
X7077699Y2381125D01*
X6965477Y2464252D02*
G01*
X6970674Y2474643D01*
X6981065Y2485034D01*
X6991454Y2490228D01*
X7012236Y2490228D01*
X7022627Y2485034D01*
X7033018Y2474643D01*
X7038215Y2464252D01*
X7043409Y2448664D01*
X7043409Y2422687D01*
X7038215Y2407102D01*
X7033018Y2396710D01*
X7022627Y2386319D01*
X7012236Y2381125D01*
X6991454Y2381125D01*
X6981065Y2386319D01*
X6970674Y2396710D01*
X6965477Y2407102D01*
X6879234Y2490228D02*
G01*
X6879234Y2407102D01*
X6884428Y2391514D01*
X6889625Y2386319D01*
X6900014Y2381125D01*
X6910405Y2381125D01*
X6920796Y2386319D01*
X6925993Y2391514D01*
X6931187Y2407102D01*
X6931187Y2417493D01*
X6844944Y2490228D02*
G01*
X6844944Y2381125D01*
X6844944Y2381125D02*
G01*
X6782597Y2381125D01*
X6670375Y2464252D02*
G01*
X6675572Y2474643D01*
X6685963Y2485034D01*
X6696354Y2490228D01*
X6717134Y2490228D01*
X6727525Y2485034D01*
X6737916Y2474643D01*
X6743113Y2464252D01*
X6748307Y2448664D01*
X6748307Y2422687D01*
X6743113Y2407102D01*
X6737916Y2396710D01*
X6727525Y2386319D01*
X6717134Y2381125D01*
X6696354Y2381125D01*
X6685963Y2386319D01*
X6675572Y2396710D01*
X6670375Y2407102D01*
X6584132Y2490228D02*
G01*
X6584132Y2407102D01*
X6589326Y2391514D01*
X6594523Y2386319D01*
X6604914Y2381125D01*
X6615305Y2381125D01*
X6625694Y2386319D01*
X6630890Y2391514D01*
X6636085Y2407102D01*
X6636085Y2417493D01*
X6549842Y2490228D02*
G01*
X6549842Y2381125D01*
X6549842Y2381125D02*
G01*
X6487495Y2381125D01*
X6375275Y2464252D02*
G01*
X6380469Y2474643D01*
X6390860Y2485034D01*
X6401252Y2490228D01*
X6422034Y2490228D01*
X6432425Y2485034D01*
X6442814Y2474643D01*
X6448010Y2464252D01*
X6453205Y2448664D01*
X6453205Y2422687D01*
X6448010Y2407102D01*
X6442814Y2396710D01*
X6432425Y2386319D01*
X6422034Y2381125D01*
X6401252Y2381125D01*
X6390860Y2386319D01*
X6380469Y2396710D01*
X6375275Y2407102D01*
X6289029Y2490228D02*
G01*
X6289029Y2407102D01*
X6294224Y2391514D01*
X6299420Y2386319D01*
X6309812Y2381125D01*
X6320203Y2381125D01*
X6330594Y2386319D01*
X6335788Y2391514D01*
X6340985Y2407102D01*
X6340985Y2417493D01*
X6254739Y2490228D02*
G01*
X6254739Y2381125D01*
X6254739Y2381125D02*
G01*
X6192395Y2381125D01*
X6080173Y2464252D02*
G01*
X6085367Y2474643D01*
X6095758Y2485034D01*
X6106149Y2490228D01*
X6126932Y2490228D01*
X6137323Y2485034D01*
X6147714Y2474643D01*
X6152908Y2464252D01*
X6158105Y2448664D01*
X6158105Y2422687D01*
X6152908Y2407102D01*
X6147714Y2396710D01*
X6137323Y2386319D01*
X6126932Y2381125D01*
X6106149Y2381125D01*
X6095758Y2386319D01*
X6085367Y2396710D01*
X6080173Y2407102D01*
D10*
X6827918Y5145481D02*
G01*
X6832462Y5154571D01*
X6841553Y5163662D01*
X6850646Y5168209D01*
X6868828Y5168209D01*
X6877918Y5163662D01*
X6887009Y5154571D01*
X6891553Y5145481D01*
X6896100Y5131846D01*
X6896100Y5109118D01*
X6891553Y5095481D01*
X6887009Y5086390D01*
X6877918Y5077299D01*
X6868828Y5072753D01*
X6850646Y5072753D01*
X6841553Y5077299D01*
X6832462Y5086390D01*
X6827918Y5095481D01*
X6797918Y5150027D02*
G01*
X6788828Y5154571D01*
X6775190Y5168209D01*
X6775190Y5072753D01*
X6827918Y4967681D02*
G01*
X6832462Y4976771D01*
X6841553Y4985862D01*
X6850646Y4990409D01*
X6868828Y4990409D01*
X6877918Y4985862D01*
X6887009Y4976771D01*
X6891553Y4967681D01*
X6896100Y4954046D01*
X6896100Y4931318D01*
X6891553Y4917681D01*
X6887009Y4908590D01*
X6877918Y4899499D01*
X6868828Y4894953D01*
X6850646Y4894953D01*
X6841553Y4899499D01*
X6832462Y4908590D01*
X6827918Y4917681D01*
X6793372Y4967681D02*
G01*
X6793372Y4972227D01*
X6788828Y4981318D01*
X6784281Y4985862D01*
X6775190Y4990409D01*
X6757009Y4990409D01*
X6747918Y4985862D01*
X6743372Y4981318D01*
X6738828Y4972227D01*
X6738828Y4963137D01*
X6743372Y4954046D01*
X6752463Y4940409D01*
X6797918Y4894953D01*
X6734281Y4894953D01*
X6396118Y4269181D02*
G01*
X6400662Y4278271D01*
X6409753Y4287362D01*
X6418846Y4291909D01*
X6437028Y4291909D01*
X6446118Y4287362D01*
X6455209Y4278271D01*
X6459753Y4269181D01*
X6464300Y4255546D01*
X6464300Y4232818D01*
X6459753Y4219181D01*
X6455209Y4210090D01*
X6446118Y4200999D01*
X6437028Y4196453D01*
X6418846Y4196453D01*
X6409753Y4200999D01*
X6400662Y4210090D01*
X6396118Y4219181D01*
X6357028Y4291909D02*
G01*
X6307028Y4291909D01*
X6334300Y4255546D01*
X6320663Y4255546D01*
X6311572Y4250999D01*
X6307028Y4246453D01*
X6302481Y4232818D01*
X6302481Y4223727D01*
X6307028Y4210090D01*
X6316118Y4200999D01*
X6329753Y4196453D01*
X6343390Y4196453D01*
X6357028Y4200999D01*
X6361572Y4205546D01*
X6366118Y4214637D01*
X8682118Y1805381D02*
G01*
X8686662Y1814471D01*
X8695753Y1823562D01*
X8704846Y1828109D01*
X8723028Y1828109D01*
X8732118Y1823562D01*
X8741209Y1814471D01*
X8745753Y1805381D01*
X8750300Y1791746D01*
X8750300Y1769018D01*
X8745753Y1755381D01*
X8741209Y1746290D01*
X8732118Y1737199D01*
X8723028Y1732653D01*
X8704846Y1732653D01*
X8695753Y1737199D01*
X8686662Y1746290D01*
X8682118Y1755381D01*
X8606663Y1828109D02*
G01*
X8652118Y1764471D01*
X8583937Y1764471D01*
X8606663Y1828109D02*
G01*
X8606663Y1732653D01*
X9907214Y863600D02*
G01*
X9811758Y863600D01*
X9907214Y863600D02*
G01*
X9907214Y904509D01*
X9902667Y918146D01*
X9898123Y922690D01*
X9889032Y927237D01*
X9879942Y927237D01*
X9870851Y922690D01*
X9866304Y918146D01*
X9861758Y904509D01*
X9861758Y863600D01*
X9861758Y895418D02*
G01*
X9811758Y927237D01*
X9884486Y961781D02*
G01*
X9889032Y961781D01*
X9898123Y966327D01*
X9902667Y970871D01*
X9907214Y979962D01*
X9907214Y998146D01*
X9902667Y1007237D01*
X9898123Y1011781D01*
X9889032Y1016327D01*
X9879942Y1016327D01*
X9870851Y1011781D01*
X9857214Y1002690D01*
X9811758Y957237D01*
X9811758Y1020871D01*
X9893576Y1105418D02*
G01*
X9902667Y1100871D01*
X9907214Y1087236D01*
X9907214Y1078146D01*
X9902667Y1064508D01*
X9889032Y1055418D01*
X9866304Y1050871D01*
X9843576Y1050871D01*
X9825395Y1055418D01*
X9816304Y1064508D01*
X9811758Y1078146D01*
X9811758Y1082690D01*
X9816304Y1096327D01*
X9825395Y1105418D01*
X9839032Y1109962D01*
X9843576Y1109962D01*
X9857214Y1105418D01*
X9866304Y1096327D01*
X9870851Y1082690D01*
X9870851Y1078146D01*
X9866304Y1064508D01*
X9857214Y1055418D01*
X9843576Y1050871D01*
X10161214Y863600D02*
G01*
X10065758Y863600D01*
X10161214Y863600D02*
G01*
X10161214Y904509D01*
X10156667Y918146D01*
X10152123Y922690D01*
X10143032Y927237D01*
X10133942Y927237D01*
X10124851Y922690D01*
X10120304Y918146D01*
X10115758Y904509D01*
X10115758Y863600D01*
X10115758Y895418D02*
G01*
X10065758Y927237D01*
X10138486Y961781D02*
G01*
X10143032Y961781D01*
X10152123Y966327D01*
X10156667Y970871D01*
X10161214Y979962D01*
X10161214Y998146D01*
X10156667Y1007237D01*
X10152123Y1011781D01*
X10143032Y1016327D01*
X10133942Y1016327D01*
X10124851Y1011781D01*
X10111214Y1002690D01*
X10065758Y957237D01*
X10065758Y1020871D01*
X10161214Y1114508D02*
G01*
X10065758Y1069052D01*
X10161214Y1050871D02*
G01*
X10161214Y1114508D01*
X10415214Y863600D02*
G01*
X10319758Y863600D01*
X10415214Y863600D02*
G01*
X10415214Y904509D01*
X10410667Y918146D01*
X10406123Y922690D01*
X10397032Y927237D01*
X10387942Y927237D01*
X10378851Y922690D01*
X10374304Y918146D01*
X10369758Y904509D01*
X10369758Y863600D01*
X10369758Y895418D02*
G01*
X10319758Y927237D01*
X10392486Y961781D02*
G01*
X10397032Y961781D01*
X10406123Y966327D01*
X10410667Y970871D01*
X10415214Y979962D01*
X10415214Y998146D01*
X10410667Y1007237D01*
X10406123Y1011781D01*
X10397032Y1016327D01*
X10387942Y1016327D01*
X10378851Y1011781D01*
X10365214Y1002690D01*
X10319758Y957237D01*
X10319758Y1020871D01*
X10415214Y1073599D02*
G01*
X10410667Y1059962D01*
X10401576Y1055418D01*
X10392486Y1055418D01*
X10383395Y1059962D01*
X10378851Y1069052D01*
X10374304Y1087236D01*
X10369758Y1100871D01*
X10360667Y1109962D01*
X10351576Y1114508D01*
X10337942Y1114508D01*
X10328851Y1109962D01*
X10324304Y1105418D01*
X10319758Y1091780D01*
X10319758Y1073599D01*
X10324304Y1059962D01*
X10328851Y1055418D01*
X10337942Y1050871D01*
X10351576Y1050871D01*
X10360667Y1055418D01*
X10369758Y1064508D01*
X10374304Y1078146D01*
X10378851Y1096327D01*
X10383395Y1105418D01*
X10392486Y1109962D01*
X10401576Y1109962D01*
X10410667Y1105418D01*
X10415214Y1091780D01*
X10415214Y1073599D01*
X10669214Y863600D02*
G01*
X10573758Y863600D01*
X10669214Y863600D02*
G01*
X10669214Y904509D01*
X10664667Y918146D01*
X10660123Y922690D01*
X10651032Y927237D01*
X10641942Y927237D01*
X10632851Y922690D01*
X10628304Y918146D01*
X10623758Y904509D01*
X10623758Y863600D01*
X10623758Y895418D02*
G01*
X10573758Y927237D01*
X10646486Y961781D02*
G01*
X10651032Y961781D01*
X10660123Y966327D01*
X10664667Y970871D01*
X10669214Y979962D01*
X10669214Y998146D01*
X10664667Y1007237D01*
X10660123Y1011781D01*
X10651032Y1016327D01*
X10641942Y1016327D01*
X10632851Y1011781D01*
X10619214Y1002690D01*
X10573758Y957237D01*
X10573758Y1020871D01*
X10637395Y1109962D02*
G01*
X10623758Y1105418D01*
X10614667Y1096327D01*
X10610123Y1082690D01*
X10610123Y1078146D01*
X10614667Y1064508D01*
X10623758Y1055418D01*
X10637395Y1050871D01*
X10641942Y1050871D01*
X10655576Y1055418D01*
X10664667Y1064508D01*
X10669214Y1078146D01*
X10669214Y1082690D01*
X10664667Y1096327D01*
X10655576Y1105418D01*
X10637395Y1109962D01*
X10614667Y1109962D01*
X10591942Y1105418D01*
X10578304Y1096327D01*
X10573758Y1082690D01*
X10573758Y1073599D01*
X10578304Y1059962D01*
X10587395Y1055418D01*
X2679694Y3783911D02*
G01*
X2679694Y3688455D01*
X2679694Y3783911D02*
G01*
X2638785Y3783911D01*
X2625148Y3779365D01*
X2620604Y3774820D01*
X2616057Y3765730D01*
X2616057Y3756639D01*
X2620604Y3747549D01*
X2625148Y3743002D01*
X2638785Y3738455D01*
X2679694Y3738455D01*
X2647876Y3738455D02*
G01*
X2616057Y3688455D01*
X2563332Y3783911D02*
G01*
X2576967Y3779365D01*
X2581513Y3770274D01*
X2581513Y3761183D01*
X2576967Y3752093D01*
X2567876Y3747549D01*
X2549695Y3743002D01*
X2536057Y3738455D01*
X2526967Y3729365D01*
X2522423Y3720274D01*
X2522423Y3706639D01*
X2526967Y3697549D01*
X2531513Y3693002D01*
X2545148Y3688455D01*
X2563332Y3688455D01*
X2576967Y3693002D01*
X2581513Y3697549D01*
X2586057Y3706639D01*
X2586057Y3720274D01*
X2581513Y3729365D01*
X2572423Y3738455D01*
X2558785Y3743002D01*
X2540604Y3747549D01*
X2531513Y3752093D01*
X2526967Y3761183D01*
X2526967Y3770274D01*
X2531513Y3779365D01*
X2545148Y3783911D01*
X2563332Y3783911D01*
X2679694Y5053909D02*
G01*
X2679694Y4958453D01*
X2679694Y5053909D02*
G01*
X2638785Y5053909D01*
X2625148Y5049362D01*
X2620604Y5044818D01*
X2616057Y5035727D01*
X2616057Y5026637D01*
X2620604Y5017546D01*
X2625148Y5012999D01*
X2638785Y5008453D01*
X2679694Y5008453D01*
X2647876Y5008453D02*
G01*
X2616057Y4958453D01*
X2576967Y5053909D02*
G01*
X2526967Y5053909D01*
X2554241Y5017546D01*
X2540604Y5017546D01*
X2531513Y5012999D01*
X2526967Y5008453D01*
X2522423Y4994818D01*
X2522423Y4985727D01*
X2526967Y4972090D01*
X2536057Y4962999D01*
X2549695Y4958453D01*
X2563332Y4958453D01*
X2576967Y4962999D01*
X2581513Y4967546D01*
X2586057Y4976637D01*
X2679684Y5307909D02*
G01*
X2679684Y5212453D01*
X2679684Y5307909D02*
G01*
X2638775Y5307909D01*
X2625138Y5303362D01*
X2620594Y5298818D01*
X2616047Y5289727D01*
X2616047Y5280637D01*
X2620594Y5271546D01*
X2625138Y5266999D01*
X2638775Y5262453D01*
X2679684Y5262453D01*
X2647866Y5262453D02*
G01*
X2616047Y5212453D01*
X2581503Y5285181D02*
G01*
X2581503Y5289727D01*
X2576956Y5298818D01*
X2572412Y5303362D01*
X2563322Y5307909D01*
X2545138Y5307909D01*
X2536047Y5303362D01*
X2531503Y5298818D01*
X2526957Y5289727D01*
X2526957Y5280637D01*
X2531503Y5271546D01*
X2540594Y5257909D01*
X2586047Y5212453D01*
X2522413Y5212453D01*
X2679694Y4799909D02*
G01*
X2679694Y4704453D01*
X2679694Y4799909D02*
G01*
X2638785Y4799909D01*
X2625148Y4795362D01*
X2620604Y4790818D01*
X2616057Y4781727D01*
X2616057Y4772637D01*
X2620604Y4763546D01*
X2625148Y4758999D01*
X2638785Y4754453D01*
X2679694Y4754453D01*
X2647876Y4754453D02*
G01*
X2616057Y4704453D01*
X2540604Y4799909D02*
G01*
X2586057Y4736271D01*
X2517876Y4736271D01*
X2540604Y4799909D02*
G01*
X2540604Y4704453D01*
X2679694Y4545904D02*
G01*
X2679694Y4450448D01*
X2679694Y4545904D02*
G01*
X2638785Y4545904D01*
X2625148Y4541357D01*
X2620604Y4536813D01*
X2616057Y4527722D01*
X2616057Y4518632D01*
X2620604Y4509541D01*
X2625148Y4504994D01*
X2638785Y4500448D01*
X2679694Y4500448D01*
X2647876Y4500448D02*
G01*
X2616057Y4450448D01*
X2531513Y4545904D02*
G01*
X2576967Y4545904D01*
X2581513Y4504994D01*
X2576967Y4509541D01*
X2563332Y4514085D01*
X2549695Y4514085D01*
X2536057Y4509541D01*
X2526967Y4500448D01*
X2522423Y4486813D01*
X2522423Y4477722D01*
X2526967Y4464085D01*
X2536057Y4454994D01*
X2549695Y4450448D01*
X2563332Y4450448D01*
X2576967Y4454994D01*
X2581513Y4459541D01*
X2586057Y4468632D01*
X2679694Y4291906D02*
G01*
X2679694Y4196450D01*
X2679694Y4291906D02*
G01*
X2638785Y4291906D01*
X2625148Y4287359D01*
X2620604Y4282815D01*
X2616057Y4273725D01*
X2616057Y4264634D01*
X2620604Y4255543D01*
X2625148Y4250997D01*
X2638785Y4246450D01*
X2679694Y4246450D01*
X2647876Y4246450D02*
G01*
X2616057Y4196450D01*
X2531513Y4278269D02*
G01*
X2536057Y4287359D01*
X2549695Y4291906D01*
X2558785Y4291906D01*
X2572423Y4287359D01*
X2581513Y4273725D01*
X2586057Y4250997D01*
X2586057Y4228269D01*
X2581513Y4210088D01*
X2572423Y4200997D01*
X2558785Y4196450D01*
X2554241Y4196450D01*
X2540604Y4200997D01*
X2531513Y4210088D01*
X2526967Y4223725D01*
X2526967Y4228269D01*
X2531513Y4241906D01*
X2540604Y4250997D01*
X2554241Y4255543D01*
X2558785Y4255543D01*
X2572423Y4250997D01*
X2581513Y4241906D01*
X2586057Y4228269D01*
X2679694Y4037906D02*
G01*
X2679694Y3942450D01*
X2679694Y4037906D02*
G01*
X2638785Y4037906D01*
X2625148Y4033359D01*
X2620604Y4028815D01*
X2616057Y4019725D01*
X2616057Y4010634D01*
X2620604Y4001543D01*
X2625148Y3996997D01*
X2638785Y3992450D01*
X2679694Y3992450D01*
X2647876Y3992450D02*
G01*
X2616057Y3942450D01*
X2522423Y4037906D02*
G01*
X2567876Y3942450D01*
X2586057Y4037906D02*
G01*
X2522423Y4037906D01*
X2679684Y3529911D02*
G01*
X2679684Y3434455D01*
X2679684Y3529911D02*
G01*
X2638775Y3529911D01*
X2625138Y3525365D01*
X2620594Y3520820D01*
X2616047Y3511730D01*
X2616047Y3502639D01*
X2620594Y3493549D01*
X2625138Y3489002D01*
X2638775Y3484455D01*
X2679684Y3484455D01*
X2647866Y3484455D02*
G01*
X2616047Y3434455D01*
X2526957Y3498093D02*
G01*
X2531503Y3484455D01*
X2540594Y3475365D01*
X2554231Y3470821D01*
X2558775Y3470821D01*
X2572412Y3475365D01*
X2581503Y3484455D01*
X2586047Y3498093D01*
X2586047Y3502639D01*
X2581503Y3516274D01*
X2572412Y3525365D01*
X2558775Y3529911D01*
X2554231Y3529911D01*
X2540594Y3525365D01*
X2531503Y3516274D01*
X2526957Y3498093D01*
X2526957Y3475365D01*
X2531503Y3452639D01*
X2540594Y3439002D01*
X2554231Y3434455D01*
X2563322Y3434455D01*
X2576956Y3439002D01*
X2581503Y3448093D01*
X2730484Y621604D02*
G01*
X2730484Y526148D01*
X2730484Y621604D02*
G01*
X2689575Y621604D01*
X2675938Y617057D01*
X2671394Y612513D01*
X2666847Y603422D01*
X2666847Y594332D01*
X2671394Y585241D01*
X2675938Y580694D01*
X2689575Y576148D01*
X2730484Y576148D01*
X2698666Y576148D02*
G01*
X2666847Y526148D01*
X2636847Y603422D02*
G01*
X2627756Y607966D01*
X2614122Y621604D01*
X2614122Y526148D01*
X2520485Y621604D02*
G01*
X2565938Y526148D01*
X2584122Y621604D02*
G01*
X2520485Y621604D01*
X2730494Y1116916D02*
G01*
X2730494Y1021461D01*
X2730494Y1116916D02*
G01*
X2689585Y1116916D01*
X2675948Y1112370D01*
X2671404Y1107826D01*
X2666857Y1098735D01*
X2666857Y1089644D01*
X2671404Y1080554D01*
X2675948Y1076007D01*
X2689585Y1071460D01*
X2730494Y1071460D01*
X2698676Y1071460D02*
G01*
X2666857Y1021461D01*
X2636857Y1098735D02*
G01*
X2627767Y1103279D01*
X2614132Y1116916D01*
X2614132Y1021461D01*
X2529586Y1116916D02*
G01*
X2575041Y1116916D01*
X2579585Y1076007D01*
X2575041Y1080554D01*
X2561404Y1085098D01*
X2547767Y1085098D01*
X2534132Y1080554D01*
X2525041Y1071460D01*
X2520495Y1057826D01*
X2520495Y1048735D01*
X2525041Y1035098D01*
X2534132Y1026007D01*
X2547767Y1021461D01*
X2561404Y1021461D01*
X2575041Y1026007D01*
X2579585Y1030554D01*
X2584132Y1039644D01*
X2730494Y1383616D02*
G01*
X2730494Y1288161D01*
X2730494Y1383616D02*
G01*
X2689585Y1383616D01*
X2675948Y1379070D01*
X2671404Y1374526D01*
X2666857Y1365435D01*
X2666857Y1356344D01*
X2671404Y1347254D01*
X2675948Y1342707D01*
X2689585Y1338160D01*
X2730494Y1338160D01*
X2698676Y1338160D02*
G01*
X2666857Y1288161D01*
X2636857Y1365435D02*
G01*
X2627767Y1369979D01*
X2614132Y1383616D01*
X2614132Y1288161D01*
X2538676Y1383616D02*
G01*
X2584132Y1319979D01*
X2515948Y1319979D01*
X2538676Y1383616D02*
G01*
X2538676Y1288161D01*
X2730494Y1637616D02*
G01*
X2730494Y1542161D01*
X2730494Y1637616D02*
G01*
X2689585Y1637616D01*
X2675948Y1633070D01*
X2671404Y1628526D01*
X2666857Y1619435D01*
X2666857Y1610344D01*
X2671404Y1601254D01*
X2675948Y1596707D01*
X2689585Y1592160D01*
X2730494Y1592160D01*
X2698676Y1592160D02*
G01*
X2666857Y1542161D01*
X2636857Y1619435D02*
G01*
X2627767Y1623979D01*
X2614132Y1637616D01*
X2614132Y1542161D01*
X2575041Y1637616D02*
G01*
X2525041Y1637616D01*
X2552313Y1601254D01*
X2538676Y1601254D01*
X2529586Y1596707D01*
X2525041Y1592160D01*
X2520495Y1578526D01*
X2520495Y1569435D01*
X2525041Y1555798D01*
X2534132Y1546707D01*
X2547767Y1542161D01*
X2561404Y1542161D01*
X2575041Y1546707D01*
X2579585Y1551254D01*
X2584132Y1560344D01*
X2730494Y1891596D02*
G01*
X2730494Y1796140D01*
X2730494Y1891596D02*
G01*
X2689585Y1891596D01*
X2675948Y1887049D01*
X2671404Y1882505D01*
X2666857Y1873415D01*
X2666857Y1864324D01*
X2671404Y1855233D01*
X2675948Y1850687D01*
X2689585Y1846140D01*
X2730494Y1846140D01*
X2698676Y1846140D02*
G01*
X2666857Y1796140D01*
X2636857Y1873415D02*
G01*
X2627767Y1877959D01*
X2614132Y1891596D01*
X2614132Y1796140D01*
X2579585Y1868868D02*
G01*
X2579585Y1873415D01*
X2575041Y1882505D01*
X2570495Y1887049D01*
X2561404Y1891596D01*
X2543223Y1891596D01*
X2534132Y1887049D01*
X2529586Y1882505D01*
X2525041Y1873415D01*
X2525041Y1864324D01*
X2529586Y1855233D01*
X2538676Y1841596D01*
X2584132Y1796140D01*
X2520495Y1796140D01*
X2730484Y2399598D02*
G01*
X2730484Y2304143D01*
X2730484Y2399598D02*
G01*
X2689575Y2399598D01*
X2675938Y2395052D01*
X2671394Y2390508D01*
X2666847Y2381417D01*
X2666847Y2372326D01*
X2671394Y2363236D01*
X2675938Y2358689D01*
X2689575Y2354143D01*
X2730484Y2354143D01*
X2698666Y2354143D02*
G01*
X2666847Y2304143D01*
X2636847Y2381417D02*
G01*
X2627756Y2385961D01*
X2614122Y2399598D01*
X2614122Y2304143D01*
X2556847Y2399598D02*
G01*
X2570485Y2395052D01*
X2579575Y2381417D01*
X2584122Y2358689D01*
X2584122Y2345052D01*
X2579575Y2322327D01*
X2570485Y2308689D01*
X2556847Y2304143D01*
X2547757Y2304143D01*
X2534122Y2308689D01*
X2525031Y2322327D01*
X2520485Y2345052D01*
X2520485Y2358689D01*
X2525031Y2381417D01*
X2534122Y2395052D01*
X2547757Y2399598D01*
X2556847Y2399598D01*
X2730494Y2145593D02*
G01*
X2730494Y2050138D01*
X2730494Y2145593D02*
G01*
X2689585Y2145593D01*
X2675948Y2141047D01*
X2671404Y2136503D01*
X2666857Y2127412D01*
X2666857Y2118321D01*
X2671404Y2109231D01*
X2675948Y2104684D01*
X2689585Y2100138D01*
X2730494Y2100138D01*
X2698676Y2100138D02*
G01*
X2666857Y2050138D01*
X2636857Y2127412D02*
G01*
X2627767Y2131956D01*
X2614132Y2145593D01*
X2614132Y2050138D01*
X2584132Y2127412D02*
G01*
X2575041Y2131956D01*
X2561404Y2145593D01*
X2561404Y2050138D01*
X2732740Y870877D02*
G01*
X2732740Y775421D01*
X2732740Y870877D02*
G01*
X2691831Y870877D01*
X2678193Y866330D01*
X2673649Y861786D01*
X2669103Y852695D01*
X2669103Y843605D01*
X2673649Y834514D01*
X2678193Y829967D01*
X2691831Y825421D01*
X2732740Y825421D01*
X2700921Y825421D02*
G01*
X2669103Y775421D01*
X2639103Y852695D02*
G01*
X2630012Y857239D01*
X2616377Y870877D01*
X2616377Y775421D01*
X2531831Y857239D02*
G01*
X2536377Y866330D01*
X2550012Y870877D01*
X2559103Y870877D01*
X2572740Y866330D01*
X2581831Y852695D01*
X2586377Y829967D01*
X2586377Y807239D01*
X2581831Y789058D01*
X2572740Y779967D01*
X2559103Y775421D01*
X2554559Y775421D01*
X2540922Y779967D01*
X2531831Y789058D01*
X2527287Y802695D01*
X2527287Y807239D01*
X2531831Y820877D01*
X2540922Y829967D01*
X2554559Y834514D01*
X2559103Y834514D01*
X2572740Y829967D01*
X2581831Y820877D01*
X2586377Y807239D01*
X10274274Y5307401D02*
G01*
X10274274Y5211945D01*
X10274274Y5307401D02*
G01*
X10233365Y5307401D01*
X10219728Y5302854D01*
X10215184Y5298310D01*
X10210637Y5289219D01*
X10210637Y5280129D01*
X10215184Y5271038D01*
X10219728Y5266491D01*
X10233365Y5261945D01*
X10274274Y5261945D01*
X10242456Y5261945D02*
G01*
X10210637Y5211945D01*
X10180637Y5289219D02*
G01*
X10171546Y5293763D01*
X10157912Y5307401D01*
X10157912Y5211945D01*
X10105184Y5307401D02*
G01*
X10118821Y5302854D01*
X10123365Y5293763D01*
X10123365Y5284673D01*
X10118821Y5275582D01*
X10109728Y5271038D01*
X10091547Y5266491D01*
X10077912Y5261945D01*
X10068821Y5252854D01*
X10064275Y5243763D01*
X10064275Y5230129D01*
X10068821Y5221038D01*
X10073365Y5216491D01*
X10087002Y5211945D01*
X10105184Y5211945D01*
X10118821Y5216491D01*
X10123365Y5221038D01*
X10127912Y5230129D01*
X10127912Y5243763D01*
X10123365Y5252854D01*
X10114274Y5261945D01*
X10100637Y5266491D01*
X10082456Y5271038D01*
X10073365Y5275582D01*
X10068821Y5284673D01*
X10068821Y5293763D01*
X10073365Y5302854D01*
X10087002Y5307401D01*
X10105184Y5307401D01*
X10274274Y5053401D02*
G01*
X10274274Y4957945D01*
X10274274Y5053401D02*
G01*
X10233365Y5053401D01*
X10219728Y5048854D01*
X10215184Y5044310D01*
X10210637Y5035219D01*
X10210637Y5026129D01*
X10215184Y5017038D01*
X10219728Y5012491D01*
X10233365Y5007945D01*
X10274274Y5007945D01*
X10242456Y5007945D02*
G01*
X10210637Y4957945D01*
X10180637Y5035219D02*
G01*
X10171546Y5039763D01*
X10157912Y5053401D01*
X10157912Y4957945D01*
X10068821Y5021582D02*
G01*
X10073365Y5007945D01*
X10082456Y4998854D01*
X10096093Y4994310D01*
X10100637Y4994310D01*
X10114274Y4998854D01*
X10123365Y5007945D01*
X10127912Y5021582D01*
X10127912Y5026129D01*
X10123365Y5039763D01*
X10114274Y5048854D01*
X10100637Y5053401D01*
X10096093Y5053401D01*
X10082456Y5048854D01*
X10073365Y5039763D01*
X10068821Y5021582D01*
X10068821Y4998854D01*
X10073365Y4976129D01*
X10082456Y4962491D01*
X10096093Y4957945D01*
X10105184Y4957945D01*
X10118821Y4962491D01*
X10123365Y4971582D01*
X10274274Y4799401D02*
G01*
X10274274Y4703945D01*
X10274274Y4799401D02*
G01*
X10233365Y4799401D01*
X10219728Y4794854D01*
X10215184Y4790310D01*
X10210637Y4781219D01*
X10210637Y4772129D01*
X10215184Y4763038D01*
X10219728Y4758491D01*
X10233365Y4753945D01*
X10274274Y4753945D01*
X10242456Y4753945D02*
G01*
X10210637Y4703945D01*
X10176093Y4776673D02*
G01*
X10176093Y4781219D01*
X10171546Y4790310D01*
X10167002Y4794854D01*
X10157912Y4799401D01*
X10139728Y4799401D01*
X10130637Y4794854D01*
X10126093Y4790310D01*
X10121546Y4781219D01*
X10121546Y4772129D01*
X10126093Y4763038D01*
X10135184Y4749401D01*
X10180637Y4703945D01*
X10117002Y4703945D01*
X10059728Y4799401D02*
G01*
X10073365Y4794854D01*
X10082456Y4781219D01*
X10087002Y4758491D01*
X10087002Y4744854D01*
X10082456Y4722129D01*
X10073365Y4708491D01*
X10059728Y4703945D01*
X10050637Y4703945D01*
X10037003Y4708491D01*
X10027912Y4722129D01*
X10023365Y4744854D01*
X10023365Y4758491D01*
X10027912Y4781219D01*
X10037003Y4794854D01*
X10050637Y4799401D01*
X10059728Y4799401D01*
X10274274Y4545401D02*
G01*
X10274274Y4449945D01*
X10274274Y4545401D02*
G01*
X10233365Y4545401D01*
X10219728Y4540854D01*
X10215184Y4536310D01*
X10210637Y4527219D01*
X10210637Y4518129D01*
X10215184Y4509038D01*
X10219728Y4504491D01*
X10233365Y4499945D01*
X10274274Y4499945D01*
X10242456Y4499945D02*
G01*
X10210637Y4449945D01*
X10176093Y4522673D02*
G01*
X10176093Y4527219D01*
X10171546Y4536310D01*
X10167002Y4540854D01*
X10157912Y4545401D01*
X10139728Y4545401D01*
X10130637Y4540854D01*
X10126093Y4536310D01*
X10121546Y4527219D01*
X10121546Y4518129D01*
X10126093Y4509038D01*
X10135184Y4495401D01*
X10180637Y4449945D01*
X10117002Y4449945D01*
X10087002Y4527219D02*
G01*
X10077912Y4531763D01*
X10064275Y4545401D01*
X10064275Y4449945D01*
X10274274Y4291401D02*
G01*
X10274274Y4195945D01*
X10274274Y4291401D02*
G01*
X10233365Y4291401D01*
X10219728Y4286854D01*
X10215184Y4282310D01*
X10210637Y4273219D01*
X10210637Y4264129D01*
X10215184Y4255038D01*
X10219728Y4250491D01*
X10233365Y4245945D01*
X10274274Y4245945D01*
X10242456Y4245945D02*
G01*
X10210637Y4195945D01*
X10176093Y4268673D02*
G01*
X10176093Y4273219D01*
X10171546Y4282310D01*
X10167002Y4286854D01*
X10157912Y4291401D01*
X10139728Y4291401D01*
X10130637Y4286854D01*
X10126093Y4282310D01*
X10121546Y4273219D01*
X10121546Y4264129D01*
X10126093Y4255038D01*
X10135184Y4241401D01*
X10180637Y4195945D01*
X10117002Y4195945D01*
X10082456Y4268673D02*
G01*
X10082456Y4273219D01*
X10077912Y4282310D01*
X10073365Y4286854D01*
X10064275Y4291401D01*
X10046093Y4291401D01*
X10037003Y4286854D01*
X10032456Y4282310D01*
X10027912Y4273219D01*
X10027912Y4264129D01*
X10032456Y4255038D01*
X10041547Y4241401D01*
X10087002Y4195945D01*
X10023365Y4195945D01*
X10274274Y1891101D02*
G01*
X10274274Y1795645D01*
X10274274Y1891101D02*
G01*
X10233365Y1891101D01*
X10219728Y1886554D01*
X10215184Y1882010D01*
X10210637Y1872919D01*
X10210637Y1863829D01*
X10215184Y1854738D01*
X10219728Y1850191D01*
X10233365Y1845645D01*
X10274274Y1845645D01*
X10242456Y1845645D02*
G01*
X10210637Y1795645D01*
X10176093Y1868373D02*
G01*
X10176093Y1872919D01*
X10171546Y1882010D01*
X10167002Y1886554D01*
X10157912Y1891101D01*
X10139728Y1891101D01*
X10130637Y1886554D01*
X10126093Y1882010D01*
X10121546Y1872919D01*
X10121546Y1863829D01*
X10126093Y1854738D01*
X10135184Y1841101D01*
X10180637Y1795645D01*
X10117002Y1795645D01*
X10032456Y1891101D02*
G01*
X10077912Y1891101D01*
X10082456Y1850191D01*
X10077912Y1854738D01*
X10064275Y1859282D01*
X10050637Y1859282D01*
X10037003Y1854738D01*
X10027912Y1845645D01*
X10023365Y1832010D01*
X10023365Y1822919D01*
X10027912Y1809282D01*
X10037003Y1800191D01*
X10050637Y1795645D01*
X10064275Y1795645D01*
X10077912Y1800191D01*
X10082456Y1804738D01*
X10087002Y1813829D01*
X10274274Y2145101D02*
G01*
X10274274Y2049645D01*
X10274274Y2145101D02*
G01*
X10233365Y2145101D01*
X10219728Y2140554D01*
X10215184Y2136010D01*
X10210637Y2126919D01*
X10210637Y2117829D01*
X10215184Y2108738D01*
X10219728Y2104191D01*
X10233365Y2099645D01*
X10274274Y2099645D01*
X10242456Y2099645D02*
G01*
X10210637Y2049645D01*
X10176093Y2122373D02*
G01*
X10176093Y2126919D01*
X10171546Y2136010D01*
X10167002Y2140554D01*
X10157912Y2145101D01*
X10139728Y2145101D01*
X10130637Y2140554D01*
X10126093Y2136010D01*
X10121546Y2126919D01*
X10121546Y2117829D01*
X10126093Y2108738D01*
X10135184Y2095101D01*
X10180637Y2049645D01*
X10117002Y2049645D01*
X10041547Y2145101D02*
G01*
X10087002Y2081463D01*
X10018821Y2081463D01*
X10041547Y2145101D02*
G01*
X10041547Y2049645D01*
X10274274Y2399101D02*
G01*
X10274274Y2303645D01*
X10274274Y2399101D02*
G01*
X10233365Y2399101D01*
X10219728Y2394554D01*
X10215184Y2390010D01*
X10210637Y2380919D01*
X10210637Y2371829D01*
X10215184Y2362738D01*
X10219728Y2358191D01*
X10233365Y2353645D01*
X10274274Y2353645D01*
X10242456Y2353645D02*
G01*
X10210637Y2303645D01*
X10176093Y2376373D02*
G01*
X10176093Y2380919D01*
X10171546Y2390010D01*
X10167002Y2394554D01*
X10157912Y2399101D01*
X10139728Y2399101D01*
X10130637Y2394554D01*
X10126093Y2390010D01*
X10121546Y2380919D01*
X10121546Y2371829D01*
X10126093Y2362738D01*
X10135184Y2349101D01*
X10180637Y2303645D01*
X10117002Y2303645D01*
X10077912Y2399101D02*
G01*
X10027912Y2399101D01*
X10055184Y2362738D01*
X10041547Y2362738D01*
X10032456Y2358191D01*
X10027912Y2353645D01*
X10023365Y2340010D01*
X10023365Y2330919D01*
X10027912Y2317282D01*
X10037003Y2308191D01*
X10050637Y2303645D01*
X10064275Y2303645D01*
X10077912Y2308191D01*
X10082456Y2312738D01*
X10087002Y2321829D01*
D12*
X6414198Y5170777D02*
G01*
X6414198Y5090774D01*
X6525173Y5201762D02*
G01*
X6445176Y5201762D01*
X6525173Y5059796D02*
G01*
X6445176Y5059796D01*
X6582763Y5202344D02*
G01*
X6662760Y5202344D01*
X6693745Y5171361D02*
G01*
X6693745Y5091363D01*
X6582763Y5060383D02*
G01*
X6662760Y5060383D01*
X6414198Y4980277D02*
G01*
X6414198Y4900274D01*
X6525173Y5011262D02*
G01*
X6445176Y5011262D01*
X6525173Y4869296D02*
G01*
X6445176Y4869296D01*
X6582763Y5011844D02*
G01*
X6662760Y5011844D01*
X6693745Y4980861D02*
G01*
X6693745Y4900863D01*
X6582763Y4869883D02*
G01*
X6662760Y4869883D01*
X6793801Y4201822D02*
G01*
X6793801Y4281825D01*
X6682826Y4170837D02*
G01*
X6762823Y4170837D01*
X6682826Y4312803D02*
G01*
X6762823Y4312803D01*
X6625236Y4170255D02*
G01*
X6545239Y4170255D01*
X6514254Y4201238D02*
G01*
X6514254Y4281236D01*
X6625236Y4312216D02*
G01*
X6545239Y4312216D01*
X9079801Y1738022D02*
G01*
X9079801Y1818025D01*
X8968826Y1707037D02*
G01*
X9048823Y1707037D01*
X8968826Y1849003D02*
G01*
X9048823Y1849003D01*
X8911236Y1706455D02*
G01*
X8831239Y1706455D01*
X8800254Y1737438D02*
G01*
X8800254Y1817436D01*
X8911236Y1848416D02*
G01*
X8831239Y1848416D01*
X9774687Y518038D02*
G01*
X9934691Y518038D01*
X9775197Y828095D02*
G01*
X9935202Y828095D01*
X9934691Y643034D02*
G01*
X9934691Y518038D01*
X9774687Y643034D02*
G01*
X9774687Y518038D01*
X9935202Y703092D02*
G01*
X9935202Y828095D01*
X9775197Y703092D02*
G01*
X9775197Y828095D01*
X10028687Y518038D02*
G01*
X10188691Y518038D01*
X10029197Y828095D02*
G01*
X10189202Y828095D01*
X10188691Y643034D02*
G01*
X10188691Y518038D01*
X10028687Y643034D02*
G01*
X10028687Y518038D01*
X10189202Y703092D02*
G01*
X10189202Y828095D01*
X10029197Y703092D02*
G01*
X10029197Y828095D01*
X10282687Y518038D02*
G01*
X10442691Y518038D01*
X10283197Y828095D02*
G01*
X10443202Y828095D01*
X10442691Y643034D02*
G01*
X10442691Y518038D01*
X10282687Y643034D02*
G01*
X10282687Y518038D01*
X10443202Y703092D02*
G01*
X10443202Y828095D01*
X10283197Y703092D02*
G01*
X10283197Y828095D01*
X10697712Y828161D02*
G01*
X10537708Y828161D01*
X10697202Y518104D02*
G01*
X10537197Y518104D01*
X10537708Y703165D02*
G01*
X10537708Y828161D01*
X10697712Y703165D02*
G01*
X10697712Y828161D01*
X10537197Y643107D02*
G01*
X10537197Y518104D01*
X10697202Y643107D02*
G01*
X10697202Y518104D01*
X2354089Y3812291D02*
G01*
X2479090Y3812291D01*
X2169033Y3812801D02*
G01*
X2169033Y3652796D01*
X2479090Y3812291D02*
G01*
X2479090Y3652286D01*
X2294028Y3652796D02*
G01*
X2169033Y3652796D01*
X2294028Y3812801D02*
G01*
X2169033Y3812801D01*
X2354089Y3652286D02*
G01*
X2479090Y3652286D01*
X2354089Y5082291D02*
G01*
X2479090Y5082291D01*
X2169033Y5082801D02*
G01*
X2169033Y4922796D01*
X2479090Y5082291D02*
G01*
X2479090Y4922286D01*
X2294028Y4922796D02*
G01*
X2169033Y4922796D01*
X2294028Y5082801D02*
G01*
X2169033Y5082801D01*
X2354089Y4922286D02*
G01*
X2479090Y4922286D01*
X2294100Y5176286D02*
G01*
X2169099Y5176286D01*
X2479156Y5175775D02*
G01*
X2479156Y5335780D01*
X2169099Y5176286D02*
G01*
X2169099Y5336291D01*
X2354160Y5335780D02*
G01*
X2479156Y5335780D01*
X2354160Y5175775D02*
G01*
X2479156Y5175775D01*
X2294100Y5336291D02*
G01*
X2169099Y5336291D01*
X2354089Y4828291D02*
G01*
X2479090Y4828291D01*
X2169033Y4828801D02*
G01*
X2169033Y4668796D01*
X2479090Y4828291D02*
G01*
X2479090Y4668286D01*
X2294028Y4668796D02*
G01*
X2169033Y4668796D01*
X2294028Y4828801D02*
G01*
X2169033Y4828801D01*
X2354089Y4668286D02*
G01*
X2479090Y4668286D01*
X2354089Y4574293D02*
G01*
X2479090Y4574293D01*
X2169033Y4574804D02*
G01*
X2169033Y4414799D01*
X2479090Y4574293D02*
G01*
X2479090Y4414288D01*
X2294028Y4414799D02*
G01*
X2169033Y4414799D01*
X2294028Y4574804D02*
G01*
X2169033Y4574804D01*
X2354089Y4414288D02*
G01*
X2479090Y4414288D01*
X2354089Y4320293D02*
G01*
X2479090Y4320293D01*
X2169033Y4320804D02*
G01*
X2169033Y4160799D01*
X2479090Y4320293D02*
G01*
X2479090Y4160288D01*
X2294028Y4160799D02*
G01*
X2169033Y4160799D01*
X2294028Y4320804D02*
G01*
X2169033Y4320804D01*
X2354089Y4160288D02*
G01*
X2479090Y4160288D01*
X2354089Y4066293D02*
G01*
X2479090Y4066293D01*
X2169033Y4066804D02*
G01*
X2169033Y3906799D01*
X2479090Y4066293D02*
G01*
X2479090Y3906288D01*
X2294028Y3906799D02*
G01*
X2169033Y3906799D01*
X2294028Y4066804D02*
G01*
X2169033Y4066804D01*
X2354089Y3906288D02*
G01*
X2479090Y3906288D01*
X2294100Y3398288D02*
G01*
X2169099Y3398288D01*
X2479156Y3397778D02*
G01*
X2479156Y3557783D01*
X2169099Y3398288D02*
G01*
X2169099Y3558293D01*
X2354160Y3557783D02*
G01*
X2479156Y3557783D01*
X2354160Y3397778D02*
G01*
X2479156Y3397778D01*
X2294100Y3558293D02*
G01*
X2169099Y3558293D01*
X2479156Y489087D02*
G01*
X2479156Y649091D01*
X2169099Y489597D02*
G01*
X2169099Y649602D01*
X2354160Y649091D02*
G01*
X2479156Y649091D01*
X2354160Y489087D02*
G01*
X2479156Y489087D01*
X2294100Y649602D02*
G01*
X2169099Y649602D01*
X2294100Y489597D02*
G01*
X2169099Y489597D01*
X2169033Y1158112D02*
G01*
X2169033Y998108D01*
X2479090Y1157602D02*
G01*
X2479090Y997597D01*
X2294028Y998108D02*
G01*
X2169033Y998108D01*
X2294028Y1158112D02*
G01*
X2169033Y1158112D01*
X2354089Y997597D02*
G01*
X2479090Y997597D01*
X2354089Y1157602D02*
G01*
X2479090Y1157602D01*
X2169033Y1412112D02*
G01*
X2169033Y1252108D01*
X2479090Y1411602D02*
G01*
X2479090Y1251597D01*
X2294028Y1252108D02*
G01*
X2169033Y1252108D01*
X2294028Y1412112D02*
G01*
X2169033Y1412112D01*
X2354089Y1251597D02*
G01*
X2479090Y1251597D01*
X2354089Y1411602D02*
G01*
X2479090Y1411602D01*
X2169033Y1666112D02*
G01*
X2169033Y1506108D01*
X2479090Y1665602D02*
G01*
X2479090Y1505597D01*
X2294028Y1506108D02*
G01*
X2169033Y1506108D01*
X2294028Y1666112D02*
G01*
X2169033Y1666112D01*
X2354089Y1505597D02*
G01*
X2479090Y1505597D01*
X2354089Y1665602D02*
G01*
X2479090Y1665602D01*
X2169033Y1920110D02*
G01*
X2169033Y1760105D01*
X2479090Y1919599D02*
G01*
X2479090Y1759595D01*
X2294028Y1760105D02*
G01*
X2169033Y1760105D01*
X2294028Y1920110D02*
G01*
X2169033Y1920110D01*
X2354089Y1759595D02*
G01*
X2479090Y1759595D01*
X2354089Y1919599D02*
G01*
X2479090Y1919599D01*
X2479156Y2267084D02*
G01*
X2479156Y2427089D01*
X2169099Y2267595D02*
G01*
X2169099Y2427599D01*
X2354160Y2427089D02*
G01*
X2479156Y2427089D01*
X2354160Y2267084D02*
G01*
X2479156Y2267084D01*
X2294100Y2427599D02*
G01*
X2169099Y2427599D01*
X2294100Y2267595D02*
G01*
X2169099Y2267595D01*
X2169033Y2174110D02*
G01*
X2169033Y2014105D01*
X2479090Y2173599D02*
G01*
X2479090Y2013595D01*
X2294028Y2014105D02*
G01*
X2169033Y2014105D01*
X2294028Y2174110D02*
G01*
X2169033Y2174110D01*
X2354089Y2013595D02*
G01*
X2479090Y2013595D01*
X2354089Y2173599D02*
G01*
X2479090Y2173599D01*
X2169033Y904110D02*
G01*
X2169033Y744105D01*
X2479090Y903599D02*
G01*
X2479090Y743595D01*
X2294028Y744105D02*
G01*
X2169033Y744105D01*
X2294028Y904110D02*
G01*
X2169033Y904110D01*
X2354089Y743595D02*
G01*
X2479090Y743595D01*
X2354089Y903599D02*
G01*
X2479090Y903599D01*
X10309717Y5335902D02*
G01*
X10309717Y5175897D01*
X10619775Y5335391D02*
G01*
X10619775Y5175387D01*
X10434713Y5175897D02*
G01*
X10309717Y5175897D01*
X10434713Y5335902D02*
G01*
X10309717Y5335902D01*
X10494772Y5175387D02*
G01*
X10619775Y5175387D01*
X10494772Y5335391D02*
G01*
X10619775Y5335391D01*
X10619841Y4920876D02*
G01*
X10619841Y5080881D01*
X10309783Y4921387D02*
G01*
X10309783Y5081391D01*
X10494845Y5080881D02*
G01*
X10619841Y5080881D01*
X10494845Y4920876D02*
G01*
X10619841Y4920876D01*
X10434787Y5081391D02*
G01*
X10309783Y5081391D01*
X10434787Y4921387D02*
G01*
X10309783Y4921387D01*
X10619841Y4666876D02*
G01*
X10619841Y4826881D01*
X10309783Y4667387D02*
G01*
X10309783Y4827391D01*
X10494845Y4826881D02*
G01*
X10619841Y4826881D01*
X10494845Y4666876D02*
G01*
X10619841Y4666876D01*
X10434787Y4827391D02*
G01*
X10309783Y4827391D01*
X10434787Y4667387D02*
G01*
X10309783Y4667387D01*
X10619841Y4412876D02*
G01*
X10619841Y4572881D01*
X10309783Y4413387D02*
G01*
X10309783Y4573391D01*
X10494845Y4572881D02*
G01*
X10619841Y4572881D01*
X10494845Y4412876D02*
G01*
X10619841Y4412876D01*
X10434787Y4573391D02*
G01*
X10309783Y4573391D01*
X10434787Y4413387D02*
G01*
X10309783Y4413387D01*
X10619841Y4158876D02*
G01*
X10619841Y4318881D01*
X10309783Y4159387D02*
G01*
X10309783Y4319391D01*
X10494845Y4318881D02*
G01*
X10619841Y4318881D01*
X10494845Y4158876D02*
G01*
X10619841Y4158876D01*
X10434787Y4319391D02*
G01*
X10309783Y4319391D01*
X10434787Y4159387D02*
G01*
X10309783Y4159387D01*
X10619841Y1758579D02*
G01*
X10619841Y1918583D01*
X10309783Y1759089D02*
G01*
X10309783Y1919094D01*
X10494845Y1918583D02*
G01*
X10619841Y1918583D01*
X10494845Y1758579D02*
G01*
X10619841Y1758579D01*
X10434787Y1919094D02*
G01*
X10309783Y1919094D01*
X10434787Y1759089D02*
G01*
X10309783Y1759089D01*
X10619841Y2012579D02*
G01*
X10619841Y2172583D01*
X10309783Y2013089D02*
G01*
X10309783Y2173094D01*
X10494845Y2172583D02*
G01*
X10619841Y2172583D01*
X10494845Y2012579D02*
G01*
X10619841Y2012579D01*
X10434787Y2173094D02*
G01*
X10309783Y2173094D01*
X10434787Y2013089D02*
G01*
X10309783Y2013089D01*
X10309717Y2427604D02*
G01*
X10309717Y2267600D01*
X10619775Y2427094D02*
G01*
X10619775Y2267089D01*
X10434713Y2267600D02*
G01*
X10309717Y2267600D01*
X10434713Y2427604D02*
G01*
X10309717Y2427604D01*
X10494772Y2267089D02*
G01*
X10619775Y2267089D01*
X10494772Y2427094D02*
G01*
X10619775Y2427094D01*
G75*
G01*
X6693751Y5171361D02*
G03*
X6662768Y5202344I-30983J0D01*
G75*
G01*
X6662768Y5060378D02*
G03*
X6693751Y5091364I0J30983D01*
G75*
G01*
X6445181Y5201763D02*
G03*
X6414199Y5170777I0J-30983D01*
G75*
G01*
X6414199Y5090780D02*
G03*
X6445181Y5059797I30982J0D01*
G75*
G01*
X6693751Y4980861D02*
G03*
X6662768Y5011844I-30983J0D01*
G75*
G01*
X6662768Y4869878D02*
G03*
X6693751Y4900864I0J30983D01*
G75*
G01*
X6445181Y5011263D02*
G03*
X6414199Y4980277I0J-30983D01*
G75*
G01*
X6414199Y4900280D02*
G03*
X6445181Y4869297I30982J0D01*
G75*
G01*
X6514249Y4201239D02*
G03*
X6545232Y4170256I30983J0D01*
G75*
G01*
X6545232Y4312222D02*
G03*
X6514249Y4281236I0J-30983D01*
G75*
G01*
X6762819Y4170837D02*
G03*
X6793801Y4201823I0J30983D01*
G75*
G01*
X6793801Y4281820D02*
G03*
X6762819Y4312803I-30982J0D01*
G75*
G01*
X8800249Y1737439D02*
G03*
X8831232Y1706456I30983J0D01*
G75*
G01*
X8831232Y1848422D02*
G03*
X8800249Y1817436I0J-30983D01*
G75*
G01*
X9048819Y1707037D02*
G03*
X9079801Y1738023I0J30983D01*
G75*
G01*
X9079801Y1818020D02*
G03*
X9048819Y1849003I-30982J0D01*
G75*
G01
X10952099Y3263900D02*
G03X10952099Y3263900I-499999J0D01*
X12151106Y1396492D02*
G01*
X12659106Y1396492D01*
X12659106Y888492D01*
X12151106Y888492D01*
X12151106Y1396492D01*
M02*
