G04 Layer: BottomPasteMaskLayer*
G04 EasyEDA v6.5.34, 2023-09-06 22:51:59*
G04 a86b413e394c4c25ad92b8d6a36629b7,5a6b42c53f6a479593ecc07194224c93,10*
G04 Gerber Generator version 0.2*
G04 Scale: 100 percent, Rotated: No, Reflected: No *
G04 Dimensions in millimeters *
G04 leading zeros omitted , absolute positions ,4 integer and 5 decimal *
%FSLAX45Y45*%
%MOMM*%

%AMMACRO1*21,1,$1,$2,0,0,$3*%
%ADD10MACRO1,0.8X0.9X0.0000*%
%ADD11MACRO1,1X1.1X-90.0000*%
%ADD12MACRO1,1X1.1X90.0000*%
%ADD13MACRO1,1X1.1X0.0000*%

%LPD*%
D10*
G01*
X6483198Y5130800D03*
G01*
X6623198Y5130800D03*
G01*
X6483198Y4940300D03*
G01*
X6623198Y4940300D03*
G01*
X6724801Y4241800D03*
G01*
X6584801Y4241800D03*
G01*
X9010801Y1778000D03*
G01*
X8870801Y1778000D03*
D11*
G01*
X9855200Y593092D03*
G01*
X9855200Y753092D03*
G01*
X10109200Y593092D03*
G01*
X10109200Y753092D03*
G01*
X10363200Y593092D03*
G01*
X10363200Y753092D03*
D12*
G01*
X10617200Y753107D03*
G01*
X10617200Y593107D03*
D13*
G01*
X2404088Y3732288D03*
G01*
X2244090Y3732288D03*
G01*
X2404088Y5002288D03*
G01*
X2244090Y5002288D03*
G01*
X2244101Y5256288D03*
G01*
X2404099Y5256288D03*
G01*
X2404088Y4748288D03*
G01*
X2244090Y4748288D03*
G01*
X2404088Y4494291D03*
G01*
X2244090Y4494291D03*
G01*
X2404088Y4240291D03*
G01*
X2244090Y4240291D03*
G01*
X2404088Y3986291D03*
G01*
X2244090Y3986291D03*
G01*
X2244101Y3478291D03*
G01*
X2404099Y3478291D03*
G01*
X2404099Y569600D03*
G01*
X2244101Y569600D03*
G01*
X2244090Y1077600D03*
G01*
X2404088Y1077600D03*
G01*
X2244090Y1331600D03*
G01*
X2404088Y1331600D03*
G01*
X2244090Y1585600D03*
G01*
X2404088Y1585600D03*
G01*
X2244090Y1839597D03*
G01*
X2404088Y1839597D03*
G01*
X2404099Y2347597D03*
G01*
X2244101Y2347597D03*
G01*
X2244090Y2093597D03*
G01*
X2404088Y2093597D03*
G01*
X2244090Y823597D03*
G01*
X2404088Y823597D03*
G01*
X10384772Y5255389D03*
G01*
X10544771Y5255389D03*
G01*
X10544787Y5001389D03*
G01*
X10384787Y5001389D03*
G01*
X10544787Y4747389D03*
G01*
X10384787Y4747389D03*
G01*
X10544787Y4493389D03*
G01*
X10384787Y4493389D03*
G01*
X10544787Y4239389D03*
G01*
X10384787Y4239389D03*
G01*
X10544787Y1839092D03*
G01*
X10384787Y1839092D03*
G01*
X10544787Y2093092D03*
G01*
X10384787Y2093092D03*
G01*
X10384772Y2347092D03*
G01*
X10544771Y2347092D03*
M02*
