G04 Layer: TopSolderMaskLayer*
G04 EasyEDA v6.5.34, 2023-09-06 22:51:59*
G04 a86b413e394c4c25ad92b8d6a36629b7,5a6b42c53f6a479593ecc07194224c93,10*
G04 Gerber Generator version 0.2*
G04 Scale: 100 percent, Rotated: No, Reflected: No *
G04 Dimensions in millimeters *
G04 leading zeros omitted , absolute positions ,4 integer and 5 decimal *
%FSLAX45Y45*%
%MOMM*%

%AMMACRO1*1,1,$1,$2,$3*1,1,$1,$4,$5*1,1,$1,0-$2,0-$3*1,1,$1,0-$4,0-$5*20,1,$1,$2,$3,$4,$5,0*20,1,$1,$4,$5,0-$2,0-$3,0*20,1,$1,0-$2,0-$3,0-$4,0-$5,0*20,1,$1,0-$4,0-$5,$2,$3,0*4,1,4,$2,$3,$4,$5,0-$2,0-$3,0-$4,0-$5,$2,$3,0*%
%ADD10C,1.9016*%
%ADD11MACRO1,0.1016X0.9X-0.9X-0.9X-0.9*%
%ADD12O,1.7018X3.302*%
%ADD13O,1.8034X3.4035999999999995*%
%ADD14MACRO1,0.2032X-0.5X0.45X0.5X0.45*%
%ADD15MACRO1,0.2032X-0.55X-0.5X-0.55X0.5*%
%ADD16C,5.2032*%
%ADD17C,2.0016*%
%ADD18C,1.6256*%

%LPD*%
D10*
G01*
X9017000Y1524000D03*
G01*
X8763000Y1524000D03*
G01*
X8509000Y1524000D03*
G01*
X8255000Y1524000D03*
G01*
X8001000Y1524000D03*
G01*
X7747000Y1524000D03*
G01*
X7493000Y1524000D03*
G01*
X7239000Y1524000D03*
G01*
X6985000Y1524000D03*
G01*
X6731000Y1524000D03*
G01*
X6477000Y1524000D03*
G01*
X6223000Y1524000D03*
G01*
X5969000Y1524000D03*
G01*
X5715000Y1524000D03*
G01*
X5461000Y1524000D03*
G01*
X5207000Y1524000D03*
G01*
X4953000Y1524000D03*
G01*
X4699000Y1524000D03*
G01*
X4445000Y1524000D03*
G01*
X4191000Y1524000D03*
G01*
X4191000Y3048000D03*
G01*
X4445000Y3048000D03*
G01*
X4699000Y3048000D03*
G01*
X4953000Y3048000D03*
G01*
X5207000Y3048000D03*
G01*
X5461000Y3048000D03*
G01*
X5715000Y3048000D03*
G01*
X5969000Y3048000D03*
G01*
X6223000Y3048000D03*
G01*
X6477000Y3048000D03*
G01*
X6731000Y3048000D03*
G01*
X6985000Y3048000D03*
G01*
X7239000Y3048000D03*
G01*
X7493000Y3048000D03*
G01*
X7747000Y3048000D03*
G01*
X8001000Y3048000D03*
G01*
X8255000Y3048000D03*
G01*
X8509000Y3048000D03*
G01*
X8763000Y3048000D03*
D11*
G01*
X9017000Y3048000D03*
D12*
G01*
X3683000Y3886200D03*
G01*
X3937000Y3886200D03*
D13*
G01*
X4191000Y3886200D03*
G01*
X4445000Y3886200D03*
G01*
X4699000Y3886200D03*
G01*
X4953000Y3886200D03*
G01*
X5207000Y3886200D03*
G01*
X5461000Y3886200D03*
G01*
X5715000Y3886200D03*
G01*
X5969000Y3886200D03*
G01*
X8509000Y3886200D03*
G01*
X8255000Y3886200D03*
G01*
X8001000Y3886200D03*
G01*
X7747000Y3886200D03*
G01*
X7493000Y3886200D03*
G01*
X7239000Y3886200D03*
G01*
X6985000Y3886200D03*
G01*
X6731000Y3886200D03*
G01*
X6477000Y3886200D03*
G01*
X6223000Y3886200D03*
G01*
X8763000Y3886200D03*
G01*
X8763000Y5446191D03*
G01*
X6223000Y5446191D03*
G01*
X6477000Y5446191D03*
G01*
X6731000Y5446191D03*
G01*
X6985000Y5446191D03*
G01*
X7239000Y5446191D03*
G01*
X7493000Y5446191D03*
G01*
X7747000Y5446191D03*
G01*
X8001000Y5446191D03*
G01*
X8255000Y5446191D03*
G01*
X8509000Y5446191D03*
G01*
X5969000Y5446191D03*
G01*
X5715000Y5446191D03*
G01*
X5461000Y5446191D03*
G01*
X5207000Y5446191D03*
G01*
X4953000Y5446191D03*
G01*
X4699000Y5446191D03*
G01*
X4445000Y5446191D03*
G01*
X4191000Y5446191D03*
G01*
X3937000Y5446191D03*
G01*
X3683000Y5446191D03*
G01*
X9017000Y3886200D03*
G01*
X9271000Y3886200D03*
G01*
X9525000Y3886200D03*
G01*
X9017000Y5446191D03*
G01*
X9271000Y5446191D03*
G01*
X9525000Y5446191D03*
D14*
G01*
X12519398Y1697405D03*
G01*
X12519398Y1527406D03*
D15*
G01*
X12316205Y1692404D03*
G01*
X12316205Y1532399D03*
D16*
G01*
X381000Y381000D03*
D17*
G01*
X956106Y569620D03*
G01*
X956106Y823620D03*
G01*
X956106Y1077620D03*
G01*
X956106Y1331620D03*
G01*
X956106Y1585620D03*
G01*
X956106Y1839620D03*
G01*
X956106Y2093620D03*
G01*
X956106Y2347620D03*
G01*
X956081Y5255920D03*
G01*
X956081Y5001920D03*
G01*
X956081Y4747920D03*
G01*
X956081Y4493920D03*
G01*
X956081Y4239920D03*
G01*
X956081Y3985920D03*
G01*
X956081Y3731920D03*
G01*
X956081Y3477920D03*
D18*
G01*
X2044700Y2347620D03*
G01*
X2044700Y1585620D03*
G01*
X1790700Y1582826D03*
G01*
X2044700Y1839620D03*
G01*
X1790700Y1836826D03*
G01*
X1790700Y566826D03*
G01*
X2044700Y569620D03*
G01*
X2044700Y1077620D03*
G01*
X1790700Y1074826D03*
G01*
X2044700Y1331620D03*
G01*
X1790700Y1328826D03*
G01*
X1790700Y2090826D03*
G01*
X2044700Y2093620D03*
G01*
X1790700Y820826D03*
G01*
X2044700Y823620D03*
G01*
X1787906Y2347620D03*
G01*
X1787880Y5255920D03*
G01*
X2044674Y3731920D03*
G01*
X1790674Y3729126D03*
G01*
X2044674Y5001920D03*
G01*
X1790674Y4999126D03*
G01*
X1790674Y4237126D03*
G01*
X2044674Y4239920D03*
G01*
X1790674Y3983126D03*
G01*
X2044674Y3985920D03*
G01*
X2044674Y3477920D03*
G01*
X1790674Y3475126D03*
G01*
X1790674Y4745126D03*
G01*
X2044674Y4747920D03*
G01*
X1790674Y4491126D03*
G01*
X2044674Y4493920D03*
G01*
X2044674Y5255920D03*
D16*
G01*
X381000Y5461000D03*
D10*
G01*
X12532106Y1269492D03*
G01*
X12278106Y1269492D03*
G01*
X12278106Y1015492D03*
G01*
X12532106Y1015492D03*
D16*
G01*
X12405106Y380492D03*
G01*
X12405106Y5460492D03*
D17*
G01*
X11830024Y2347087D03*
G01*
X11830024Y2093087D03*
G01*
X11830024Y1839087D03*
G01*
X11830024Y1585087D03*
G01*
X11830024Y1331087D03*
G01*
X11830024Y1077087D03*
G01*
X11830024Y823087D03*
G01*
X11830024Y569087D03*
G01*
X11829999Y3477387D03*
G01*
X11829999Y3731387D03*
G01*
X11829999Y3985387D03*
G01*
X11829999Y4239387D03*
G01*
X11829999Y4493387D03*
G01*
X11829999Y4747387D03*
G01*
X11829999Y5001387D03*
G01*
X11829999Y5255387D03*
D18*
G01*
X10741406Y5255387D03*
G01*
X10998225Y5255387D03*
G01*
X10998225Y5001387D03*
G01*
X10741406Y5001387D03*
G01*
X10741406Y4747387D03*
G01*
X10998225Y4747387D03*
G01*
X10998225Y4493387D03*
G01*
X10741406Y4493387D03*
G01*
X10998225Y4239387D03*
G01*
X10741406Y4239387D03*
G01*
X10998250Y1839087D03*
G01*
X10741431Y1839087D03*
G01*
X10741431Y2093087D03*
G01*
X10998250Y2093087D03*
G01*
X10998250Y2347087D03*
G01*
X10741431Y2347087D03*
D17*
G01*
X5778500Y231698D03*
G01*
X5524500Y231698D03*
G01*
X5270500Y231698D03*
G01*
X5016500Y231698D03*
G01*
X4762500Y231698D03*
G01*
X4508500Y231698D03*
G01*
X4254500Y231698D03*
G01*
X4000500Y231698D03*
G01*
X6908800Y231724D03*
G01*
X7162800Y231724D03*
G01*
X7416800Y231724D03*
G01*
X7670800Y231724D03*
G01*
X7924800Y231724D03*
G01*
X8178800Y231724D03*
G01*
X8432800Y231724D03*
G01*
X8686800Y231724D03*
D18*
G01*
X9855200Y396468D03*
G01*
X9855200Y139649D03*
G01*
X10109200Y139649D03*
G01*
X10109200Y396468D03*
G01*
X10363200Y396468D03*
G01*
X10363200Y139649D03*
G01*
X10617200Y139649D03*
G01*
X10617200Y396468D03*
M02*
