G04 Layer: BottomSolderMaskLayer*
G04 Panelize: , Column: 2, Row: 2, Board Size: 58.42mm x 58.42mm, Panelized Board Size: 118.84mm x 118.84mm*
G04 EasyEDA v6.5.34, 2023-09-06 22:38:36*
G04 b9bc4809806445119315d77ae2694b74,5a6b42c53f6a479593ecc07194224c93,10*
G04 Gerber Generator version 0.2*
G04 Scale: 100 percent, Rotated: No, Reflected: No *
G04 Dimensions in millimeters *
G04 leading zeros omitted , absolute positions ,4 integer and 5 decimal *
%FSLAX45Y45*%
%MOMM*%

%AMMACRO1*1,1,$1,$2,$3*1,1,$1,$4,$5*1,1,$1,0-$2,0-$3*1,1,$1,0-$4,0-$5*20,1,$1,$2,$3,$4,$5,0*20,1,$1,$4,$5,0-$2,0-$3,0*20,1,$1,0-$2,0-$3,0-$4,0-$5,0*20,1,$1,0-$4,0-$5,$2,$3,0*4,1,4,$2,$3,$4,$5,0-$2,0-$3,0-$4,0-$5,$2,$3,0*%
%ADD10O,2.1015960000000002X1.6256000000000002*%
%ADD11O,2.1015960000000002X1.6015970000000002*%
%ADD12MACRO1,0.1016X1X-0.75X-1X-0.75*%
%ADD13MACRO1,0.2032X0.762X0.762X0.762X-0.762*%
%ADD14C,1.7272*%
%ADD15C,1.6256*%
%ADD16C,5.2032*%
%ADD17C,2.1016*%
%ADD18C,1.9016*%

%LPD*%
D10*
G01*
X1968500Y2222500D03*
G01*
X1968500Y1968500D03*
G01*
X1968500Y1714500D03*
G01*
X1968500Y1460500D03*
G01*
X1968500Y5016500D03*
G01*
X1968500Y4762500D03*
G01*
X1968500Y4508500D03*
G01*
X1968500Y4254500D03*
G01*
X1968500Y4000500D03*
G01*
X1968500Y3746500D03*
G01*
X1968500Y3492500D03*
G01*
X1968500Y2476500D03*
G01*
X1968500Y2730500D03*
G01*
X1968500Y2984500D03*
G01*
X1968500Y3238500D03*
G01*
X1968500Y5270500D03*
G01*
X3492500Y4508500D03*
D11*
G01*
X3492500Y3492500D03*
G01*
X3492500Y3238500D03*
G01*
X3492500Y2984500D03*
G01*
X3492500Y2730500D03*
G01*
X3492500Y2476500D03*
G01*
X3492500Y2222500D03*
G01*
X3492500Y1968500D03*
G01*
X3492500Y1714500D03*
D12*
G01*
X3492500Y1460500D03*
D10*
G01*
X3492500Y3746500D03*
G01*
X3492500Y4254500D03*
D11*
G01*
X3492500Y4000500D03*
D10*
G01*
X3492500Y4762500D03*
G01*
X3492500Y5270500D03*
G01*
X3492500Y5016500D03*
D13*
G01*
X4089400Y5511800D03*
D14*
G01*
X4089400Y5257800D03*
G01*
X4089400Y5003800D03*
G01*
X4089400Y4749800D03*
G01*
X4089400Y4495800D03*
G01*
X4089400Y4241800D03*
G01*
X4089400Y3987800D03*
G01*
X4089400Y3733800D03*
D15*
G01*
X4089400Y3479800D03*
G01*
X4089400Y3225800D03*
D16*
G01*
X5461000Y381000D03*
G01*
X381000Y381000D03*
G01*
X381000Y5461000D03*
G01*
X5461000Y5461000D03*
D17*
G01*
X4885893Y5255895D03*
G01*
X4885893Y5001895D03*
G01*
X4885893Y4747895D03*
G01*
X4885893Y4493895D03*
G01*
X4885893Y4239895D03*
G01*
X4885893Y3985895D03*
G01*
X4885893Y3731895D03*
G01*
X4885893Y3477895D03*
G01*
X956081Y3489197D03*
G01*
X956081Y3743197D03*
G01*
X956081Y3997197D03*
G01*
X956081Y4251197D03*
G01*
X956081Y4505197D03*
G01*
X956081Y4759197D03*
G01*
X956081Y5013197D03*
G01*
X956081Y5267197D03*
G01*
X956106Y2358897D03*
G01*
X956106Y2104897D03*
G01*
X956106Y1850897D03*
G01*
X956106Y1596897D03*
G01*
X956106Y1342897D03*
G01*
X956106Y1088897D03*
G01*
X956106Y834897D03*
G01*
X956106Y580897D03*
D18*
G01*
X5588000Y1016000D03*
G01*
X5334000Y1016000D03*
G01*
X5334000Y1270000D03*
G01*
X5588000Y1270000D03*
M02*
