G04 Layer: TopSilkscreenLayer*
G04 Panelize: , Column: 2, Row: 2, Board Size: 58.42mm x 58.42mm, Panelized Board Size: 118.84mm x 118.84mm*
G04 EasyEDA v6.5.34, 2023-09-06 22:38:36*
G04 b9bc4809806445119315d77ae2694b74,5a6b42c53f6a479593ecc07194224c93,10*
G04 Gerber Generator version 0.2*
G04 Scale: 100 percent, Rotated: No, Reflected: No *
G04 Dimensions in millimeters *
G04 leading zeros omitted , absolute positions ,4 integer and 5 decimal *
%FSLAX45Y45*%
%MOMM*%

%ADD10C,0.1524*%
%ADD11C,0.2540*%
%ADD12C,0.2000*%
%ADD13C,0.1500*%
%ADD14C,0.6000*%
%ADD15C,0.2500*%
%ADD16C,0.0145*%

%LPD*%
D10*
X4084065Y5777737D02*
G01*
X4084065Y5705094D01*
X4079493Y5691378D01*
X4074922Y5686805D01*
X4065777Y5682234D01*
X4056888Y5682234D01*
X4047743Y5686805D01*
X4043172Y5691378D01*
X4038600Y5705094D01*
X4038600Y5714237D01*
X4159504Y5777737D02*
G01*
X4114038Y5714237D01*
X4182109Y5714237D01*
X4159504Y5777737D02*
G01*
X4159504Y5682234D01*
X1943100Y331215D02*
G01*
X1943100Y222250D01*
X1943100Y331215D02*
G01*
X1989836Y331215D01*
X2005329Y326136D01*
X2010663Y320802D01*
X2015743Y310387D01*
X2015743Y294894D01*
X2010663Y284479D01*
X2005329Y279400D01*
X1989836Y274065D01*
X1943100Y274065D01*
X2050034Y331215D02*
G01*
X2050034Y222250D01*
X2050034Y331215D02*
G01*
X2096770Y331215D01*
X2112518Y326136D01*
X2117597Y320802D01*
X2122931Y310387D01*
X2122931Y299973D01*
X2117597Y289560D01*
X2112518Y284479D01*
X2096770Y279400D01*
X2050034Y279400D01*
X2086609Y279400D02*
G01*
X2122931Y222250D01*
X2188209Y331215D02*
G01*
X2178050Y326136D01*
X2167636Y315721D01*
X2162302Y305307D01*
X2157222Y289560D01*
X2157222Y263652D01*
X2162302Y248157D01*
X2167636Y237744D01*
X2178050Y227329D01*
X2188209Y222250D01*
X2209038Y222250D01*
X2219452Y227329D01*
X2229865Y237744D01*
X2235200Y248157D01*
X2240279Y263652D01*
X2240279Y289560D01*
X2235200Y305307D01*
X2229865Y315721D01*
X2219452Y326136D01*
X2209038Y331215D01*
X2188209Y331215D01*
X2310891Y331215D02*
G01*
X2310891Y222250D01*
X2274570Y331215D02*
G01*
X2347213Y331215D01*
X2412745Y331215D02*
G01*
X2402331Y326136D01*
X2391918Y315721D01*
X2386838Y305307D01*
X2381504Y289560D01*
X2381504Y263652D01*
X2386838Y248157D01*
X2391918Y237744D01*
X2402331Y227329D01*
X2412745Y222250D01*
X2433574Y222250D01*
X2443988Y227329D01*
X2454402Y237744D01*
X2459481Y248157D01*
X2464815Y263652D01*
X2464815Y289560D01*
X2459481Y305307D01*
X2454402Y315721D01*
X2443988Y326136D01*
X2433574Y331215D01*
X2412745Y331215D01*
X2499106Y331215D02*
G01*
X2499106Y222250D01*
X2499106Y331215D02*
G01*
X2571750Y222250D01*
X2571750Y331215D02*
G01*
X2571750Y222250D01*
X2606040Y331215D02*
G01*
X2606040Y222250D01*
X2606040Y331215D02*
G01*
X2673604Y331215D01*
X2606040Y279400D02*
G01*
X2647695Y279400D01*
X2606040Y222250D02*
G01*
X2673604Y222250D01*
X2707893Y331215D02*
G01*
X2707893Y222250D01*
X2707893Y331215D02*
G01*
X2749550Y222250D01*
X2790952Y331215D02*
G01*
X2749550Y222250D01*
X2790952Y331215D02*
G01*
X2790952Y222250D01*
X2866897Y331215D02*
G01*
X2825241Y222250D01*
X2866897Y331215D02*
G01*
X2908300Y222250D01*
X2840990Y258571D02*
G01*
X2892806Y258571D01*
X3064256Y331215D02*
G01*
X3022600Y222250D01*
X3064256Y331215D02*
G01*
X3105911Y222250D01*
X3038347Y258571D02*
G01*
X3090163Y258571D01*
X3140202Y331215D02*
G01*
X3140202Y222250D01*
X3140202Y331215D02*
G01*
X3176524Y331215D01*
X3192018Y326136D01*
X3202431Y315721D01*
X3207765Y305307D01*
X3212845Y289560D01*
X3212845Y263652D01*
X3207765Y248157D01*
X3202431Y237744D01*
X3192018Y227329D01*
X3176524Y222250D01*
X3140202Y222250D01*
X3247136Y331215D02*
G01*
X3247136Y222250D01*
X3247136Y331215D02*
G01*
X3283458Y331215D01*
X3299206Y326136D01*
X3309620Y315721D01*
X3314700Y305307D01*
X3319779Y289560D01*
X3319779Y263652D01*
X3314700Y248157D01*
X3309620Y237744D01*
X3299206Y227329D01*
X3283458Y222250D01*
X3247136Y222250D01*
X3354070Y331215D02*
G01*
X3354070Y222250D01*
X3354070Y331215D02*
G01*
X3401059Y331215D01*
X3416554Y326136D01*
X3421634Y320802D01*
X3426968Y310387D01*
X3426968Y299973D01*
X3421634Y289560D01*
X3416554Y284479D01*
X3401059Y279400D01*
X3354070Y279400D01*
X3390645Y279400D02*
G01*
X3426968Y222250D01*
X3461258Y331215D02*
G01*
X3461258Y222250D01*
X3461258Y331215D02*
G01*
X3528822Y331215D01*
X3461258Y279400D02*
G01*
X3502659Y279400D01*
X3461258Y222250D02*
G01*
X3528822Y222250D01*
X3635756Y315721D02*
G01*
X3625341Y326136D01*
X3609847Y331215D01*
X3589020Y331215D01*
X3573525Y326136D01*
X3563111Y315721D01*
X3563111Y305307D01*
X3568191Y294894D01*
X3573525Y289560D01*
X3583940Y284479D01*
X3614927Y274065D01*
X3625341Y268986D01*
X3630675Y263652D01*
X3635756Y253237D01*
X3635756Y237744D01*
X3625341Y227329D01*
X3609847Y222250D01*
X3589020Y222250D01*
X3573525Y227329D01*
X3563111Y237744D01*
X3742690Y315721D02*
G01*
X3732529Y326136D01*
X3716781Y331215D01*
X3695954Y331215D01*
X3680459Y326136D01*
X3670045Y315721D01*
X3670045Y305307D01*
X3675379Y294894D01*
X3680459Y289560D01*
X3690874Y284479D01*
X3722115Y274065D01*
X3732529Y268986D01*
X3737609Y263652D01*
X3742690Y253237D01*
X3742690Y237744D01*
X3732529Y227329D01*
X3716781Y222250D01*
X3695954Y222250D01*
X3680459Y227329D01*
X3670045Y237744D01*
X3856990Y331215D02*
G01*
X3856990Y222250D01*
X3856990Y331215D02*
G01*
X3893565Y331215D01*
X3909059Y326136D01*
X3919474Y315721D01*
X3924554Y305307D01*
X3929888Y289560D01*
X3929888Y263652D01*
X3924554Y248157D01*
X3919474Y237744D01*
X3909059Y227329D01*
X3893565Y222250D01*
X3856990Y222250D01*
X3964177Y331215D02*
G01*
X3964177Y222250D01*
X3964177Y331215D02*
G01*
X4031741Y331215D01*
X3964177Y279400D02*
G01*
X4005579Y279400D01*
X3964177Y222250D02*
G01*
X4031741Y222250D01*
X4144009Y305307D02*
G01*
X4138675Y315721D01*
X4128261Y326136D01*
X4117847Y331215D01*
X4097020Y331215D01*
X4086859Y326136D01*
X4076445Y315721D01*
X4071111Y305307D01*
X4066031Y289560D01*
X4066031Y263652D01*
X4071111Y248157D01*
X4076445Y237744D01*
X4086859Y227329D01*
X4097020Y222250D01*
X4117847Y222250D01*
X4128261Y227329D01*
X4138675Y237744D01*
X4144009Y248157D01*
X4209288Y331215D02*
G01*
X4198874Y326136D01*
X4188459Y315721D01*
X4183379Y305307D01*
X4178300Y289560D01*
X4178300Y263652D01*
X4183379Y248157D01*
X4188459Y237744D01*
X4198874Y227329D01*
X4209288Y222250D01*
X4230115Y222250D01*
X4240529Y227329D01*
X4250943Y237744D01*
X4256024Y248157D01*
X4261358Y263652D01*
X4261358Y289560D01*
X4256024Y305307D01*
X4250943Y315721D01*
X4240529Y326136D01*
X4230115Y331215D01*
X4209288Y331215D01*
X4295647Y331215D02*
G01*
X4295647Y222250D01*
X4295647Y331215D02*
G01*
X4331970Y331215D01*
X4347463Y326136D01*
X4357877Y315721D01*
X4363211Y305307D01*
X4368291Y289560D01*
X4368291Y263652D01*
X4363211Y248157D01*
X4357877Y237744D01*
X4347463Y227329D01*
X4331970Y222250D01*
X4295647Y222250D01*
X4402581Y331215D02*
G01*
X4402581Y222250D01*
X4402581Y331215D02*
G01*
X4470145Y331215D01*
X4402581Y279400D02*
G01*
X4444238Y279400D01*
X4402581Y222250D02*
G01*
X4470145Y222250D01*
X4504436Y331215D02*
G01*
X4504436Y222250D01*
X4504436Y331215D02*
G01*
X4551172Y331215D01*
X4566920Y326136D01*
X4572000Y320802D01*
X4577079Y310387D01*
X4577079Y299973D01*
X4572000Y289560D01*
X4566920Y284479D01*
X4551172Y279400D01*
X4504436Y279400D01*
X4540758Y279400D02*
G01*
X4577079Y222250D01*
X1943100Y166115D02*
G01*
X1943100Y57150D01*
X1943100Y166115D02*
G01*
X1989836Y166115D01*
X2005329Y161036D01*
X2010663Y155702D01*
X2015743Y145287D01*
X2015743Y129794D01*
X2010663Y119379D01*
X2005329Y114300D01*
X1989836Y108965D01*
X1943100Y108965D01*
X2091690Y166115D02*
G01*
X2050034Y57150D01*
X2091690Y166115D02*
G01*
X2133345Y57150D01*
X2065781Y93471D02*
G01*
X2117597Y93471D01*
X2167636Y166115D02*
G01*
X2167636Y57150D01*
X2167636Y166115D02*
G01*
X2214372Y166115D01*
X2229865Y161036D01*
X2235200Y155702D01*
X2240279Y145287D01*
X2240279Y134873D01*
X2235200Y124460D01*
X2229865Y119379D01*
X2214372Y114300D01*
X2167636Y114300D01*
X2203958Y114300D02*
G01*
X2240279Y57150D01*
X2310891Y166115D02*
G01*
X2310891Y57150D01*
X2274570Y166115D02*
G01*
X2347213Y166115D01*
X2461513Y166115D02*
G01*
X2461513Y57150D01*
X2461513Y166115D02*
G01*
X2534411Y57150D01*
X2534411Y166115D02*
G01*
X2534411Y57150D01*
X2568702Y166115D02*
G01*
X2568702Y88137D01*
X2573781Y72644D01*
X2584195Y62229D01*
X2599690Y57150D01*
X2610104Y57150D01*
X2625852Y62229D01*
X2636265Y72644D01*
X2641345Y88137D01*
X2641345Y166115D01*
X2675636Y166115D02*
G01*
X2675636Y57150D01*
X2675636Y166115D02*
G01*
X2717291Y57150D01*
X2758693Y166115D02*
G01*
X2717291Y57150D01*
X2758693Y166115D02*
G01*
X2758693Y57150D01*
X2792984Y166115D02*
G01*
X2792984Y57150D01*
X2792984Y166115D02*
G01*
X2839720Y166115D01*
X2855468Y161036D01*
X2860547Y155702D01*
X2865881Y145287D01*
X2865881Y134873D01*
X2860547Y124460D01*
X2855468Y119379D01*
X2839720Y114300D01*
X2792984Y114300D02*
G01*
X2839720Y114300D01*
X2855468Y108965D01*
X2860547Y103886D01*
X2865881Y93471D01*
X2865881Y77723D01*
X2860547Y67310D01*
X2855468Y62229D01*
X2839720Y57150D01*
X2792984Y57150D01*
X2900172Y166115D02*
G01*
X2900172Y57150D01*
X2900172Y166115D02*
G01*
X2967736Y166115D01*
X2900172Y114300D02*
G01*
X2941574Y114300D01*
X2900172Y57150D02*
G01*
X2967736Y57150D01*
X3002025Y166115D02*
G01*
X3002025Y57150D01*
X3002025Y166115D02*
G01*
X3048761Y166115D01*
X3064256Y161036D01*
X3069590Y155702D01*
X3074670Y145287D01*
X3074670Y134873D01*
X3069590Y124460D01*
X3064256Y119379D01*
X3048761Y114300D01*
X3002025Y114300D01*
X3038347Y114300D02*
G01*
X3074670Y57150D01*
X3188970Y145287D02*
G01*
X3199384Y150621D01*
X3214877Y166115D01*
X3214877Y57150D01*
X3280409Y166115D02*
G01*
X3264915Y161036D01*
X3254502Y145287D01*
X3249168Y119379D01*
X3249168Y103886D01*
X3254502Y77723D01*
X3264915Y62229D01*
X3280409Y57150D01*
X3290824Y57150D01*
X3306318Y62229D01*
X3316731Y77723D01*
X3322065Y103886D01*
X3322065Y119379D01*
X3316731Y145287D01*
X3306318Y161036D01*
X3290824Y166115D01*
X3280409Y166115D01*
X3429000Y166115D02*
G01*
X3376929Y57150D01*
X3356356Y166115D02*
G01*
X3429000Y166115D01*
X3535934Y166115D02*
G01*
X3484118Y57150D01*
X3463290Y166115D02*
G01*
X3535934Y166115D01*
X3570224Y103886D02*
G01*
X3663950Y103886D01*
X3729227Y166115D02*
G01*
X3713734Y161036D01*
X3703320Y145287D01*
X3698240Y119379D01*
X3698240Y103886D01*
X3703320Y77723D01*
X3713734Y62229D01*
X3729227Y57150D01*
X3739641Y57150D01*
X3755390Y62229D01*
X3765550Y77723D01*
X3770884Y103886D01*
X3770884Y119379D01*
X3765550Y145287D01*
X3755390Y161036D01*
X3739641Y166115D01*
X3729227Y166115D01*
X3805174Y145287D02*
G01*
X3815588Y150621D01*
X3831081Y166115D01*
X3831081Y57150D01*
X3896613Y166115D02*
G01*
X3881120Y161036D01*
X3870706Y145287D01*
X3865372Y119379D01*
X3865372Y103886D01*
X3870706Y77723D01*
X3881120Y62229D01*
X3896613Y57150D01*
X3907027Y57150D01*
X3922522Y62229D01*
X3932936Y77723D01*
X3938270Y103886D01*
X3938270Y119379D01*
X3932936Y145287D01*
X3922522Y161036D01*
X3907027Y166115D01*
X3896613Y166115D01*
X3972559Y145287D02*
G01*
X3982720Y150621D01*
X3998468Y166115D01*
X3998468Y57150D01*
X4112768Y166115D02*
G01*
X4154170Y57150D01*
X4195825Y166115D02*
G01*
X4154170Y57150D01*
X4261358Y166115D02*
G01*
X4245609Y161036D01*
X4235450Y145287D01*
X4230115Y119379D01*
X4230115Y103886D01*
X4235450Y77723D01*
X4245609Y62229D01*
X4261358Y57150D01*
X4271772Y57150D01*
X4287265Y62229D01*
X4297679Y77723D01*
X4302759Y103886D01*
X4302759Y119379D01*
X4297679Y145287D01*
X4287265Y161036D01*
X4271772Y166115D01*
X4261358Y166115D01*
X4342384Y83057D02*
G01*
X4337050Y77723D01*
X4342384Y72644D01*
X4347463Y77723D01*
X4342384Y83057D01*
X4433824Y166115D02*
G01*
X4381754Y93471D01*
X4459731Y93471D01*
X4433824Y166115D02*
G01*
X4433824Y57150D01*
X5321300Y3537457D02*
G01*
X5321300Y3422904D01*
X5321300Y3537457D02*
G01*
X5370322Y3537457D01*
X5386831Y3531870D01*
X5392165Y3526536D01*
X5397754Y3515613D01*
X5397754Y3504692D01*
X5392165Y3493770D01*
X5386831Y3488181D01*
X5370322Y3482847D01*
X5321300Y3482847D02*
G01*
X5370322Y3482847D01*
X5386831Y3477513D01*
X5392165Y3471926D01*
X5397754Y3461004D01*
X5397754Y3444747D01*
X5392165Y3433826D01*
X5386831Y3428237D01*
X5370322Y3422904D01*
X5321300Y3422904D01*
X5477256Y3537457D02*
G01*
X5433568Y3422904D01*
X5477256Y3537457D02*
G01*
X5520943Y3422904D01*
X5450077Y3461004D02*
G01*
X5504688Y3461004D01*
X5557011Y3537457D02*
G01*
X5557011Y3422904D01*
X5557011Y3537457D02*
G01*
X5633211Y3422904D01*
X5633211Y3537457D02*
G01*
X5633211Y3422904D01*
X5669279Y3537457D02*
G01*
X5669279Y3422904D01*
X5745734Y3537457D02*
G01*
X5669279Y3461004D01*
X5696458Y3488181D02*
G01*
X5745734Y3422904D01*
X5386857Y4032757D02*
G01*
X5332247Y4032757D01*
X5326659Y3983481D01*
X5332247Y3989070D01*
X5348503Y3994404D01*
X5365013Y3994404D01*
X5381269Y3989070D01*
X5392191Y3978147D01*
X5397779Y3961892D01*
X5397779Y3950970D01*
X5392191Y3934460D01*
X5381269Y3923537D01*
X5365013Y3918204D01*
X5348503Y3918204D01*
X5332247Y3923537D01*
X5326659Y3929126D01*
X5321325Y3940047D01*
X5156093Y5294386D02*
G01*
X5228991Y5253238D01*
X5156093Y5212344D01*
X5156093Y5040386D02*
G01*
X5228991Y4999238D01*
X5156093Y4958344D01*
X5156093Y4786386D02*
G01*
X5228991Y4745238D01*
X5156093Y4704344D01*
X5156093Y4532386D02*
G01*
X5228991Y4491238D01*
X5156093Y4450344D01*
X5156093Y4278386D02*
G01*
X5228991Y4237238D01*
X5156093Y4196344D01*
X5156093Y4024386D02*
G01*
X5228991Y3983238D01*
X5156093Y3942344D01*
X5156093Y3770386D02*
G01*
X5228991Y3729238D01*
X5156093Y3688344D01*
X5228843Y3516376D02*
G01*
X5156200Y3475481D01*
X5228843Y3434334D01*
X612985Y3532741D02*
G01*
X685883Y3491593D01*
X612985Y3450699D01*
X612985Y3786741D02*
G01*
X685883Y3745593D01*
X612985Y3704699D01*
X612985Y4040741D02*
G01*
X685883Y3999593D01*
X612985Y3958699D01*
X612985Y4294741D02*
G01*
X685883Y4253593D01*
X612985Y4212699D01*
X612985Y4548741D02*
G01*
X685883Y4507593D01*
X612985Y4466699D01*
X612985Y4802741D02*
G01*
X685883Y4761593D01*
X612985Y4720699D01*
X612985Y5056741D02*
G01*
X685883Y5015593D01*
X612985Y4974699D01*
X612985Y5310741D02*
G01*
X685883Y5269593D01*
X612985Y5228699D01*
X613008Y624443D02*
G01*
X685906Y583295D01*
X613008Y542401D01*
X613008Y878443D02*
G01*
X685906Y837295D01*
X613008Y796401D01*
X613008Y1132443D02*
G01*
X685906Y1091295D01*
X613008Y1050401D01*
X613008Y1386443D02*
G01*
X685906Y1345295D01*
X613008Y1304401D01*
X613008Y1640443D02*
G01*
X685906Y1599295D01*
X613008Y1558401D01*
X613008Y1894443D02*
G01*
X685906Y1853295D01*
X613008Y1812401D01*
X613008Y2148443D02*
G01*
X685906Y2107295D01*
X613008Y2066401D01*
X613008Y2402443D02*
G01*
X685906Y2361295D01*
X613008Y2320401D01*
X1709191Y2844164D02*
G01*
X1709191Y2771267D01*
X1704619Y2757804D01*
X1700047Y2753232D01*
X1690903Y2748661D01*
X1681759Y2748661D01*
X1672869Y2753232D01*
X1668297Y2757804D01*
X1663725Y2771267D01*
X1663725Y2780411D01*
X1748307Y2844164D02*
G01*
X1798345Y2844164D01*
X1770913Y2807843D01*
X1784629Y2807843D01*
X1793773Y2803270D01*
X1798345Y2798698D01*
X1802917Y2784982D01*
X1802917Y2775838D01*
X1798345Y2762377D01*
X1789201Y2753232D01*
X1775485Y2748661D01*
X1761769Y2748661D01*
X1748307Y2753232D01*
X1743735Y2757804D01*
X1739163Y2766948D01*
X1696491Y5752464D02*
G01*
X1696491Y5679567D01*
X1691919Y5666104D01*
X1687347Y5661532D01*
X1678203Y5656961D01*
X1669059Y5656961D01*
X1660169Y5661532D01*
X1655597Y5666104D01*
X1651025Y5679567D01*
X1651025Y5688711D01*
X1731035Y5729604D02*
G01*
X1731035Y5734177D01*
X1735607Y5743320D01*
X1740179Y5747893D01*
X1749069Y5752464D01*
X1767357Y5752464D01*
X1776501Y5747893D01*
X1781073Y5743320D01*
X1785645Y5734177D01*
X1785645Y5725032D01*
X1781073Y5716143D01*
X1771929Y5702427D01*
X1726463Y5656961D01*
X1790217Y5656961D01*
X1701820Y601339D02*
G01*
X1712742Y606673D01*
X1728998Y623183D01*
X1728998Y508629D01*
X1830598Y623183D02*
G01*
X1775988Y623183D01*
X1770654Y573907D01*
X1775988Y579495D01*
X1792244Y584829D01*
X1808754Y584829D01*
X1825010Y579495D01*
X1835932Y568573D01*
X1841520Y552317D01*
X1841520Y541395D01*
X1835932Y524885D01*
X1825010Y513963D01*
X1808754Y508629D01*
X1792244Y508629D01*
X1775988Y513963D01*
X1770654Y519551D01*
X1765066Y530473D01*
X1701820Y855339D02*
G01*
X1712742Y860673D01*
X1728998Y877183D01*
X1728998Y762629D01*
X1819676Y877183D02*
G01*
X1765066Y800729D01*
X1846854Y800729D01*
X1819676Y877183D02*
G01*
X1819676Y762629D01*
X1701820Y1109339D02*
G01*
X1712742Y1114673D01*
X1728998Y1131183D01*
X1728998Y1016629D01*
X1775988Y1131183D02*
G01*
X1835932Y1131183D01*
X1803166Y1087495D01*
X1819676Y1087495D01*
X1830598Y1081907D01*
X1835932Y1076573D01*
X1841520Y1060317D01*
X1841520Y1049395D01*
X1835932Y1032885D01*
X1825010Y1021963D01*
X1808754Y1016629D01*
X1792244Y1016629D01*
X1775988Y1021963D01*
X1770654Y1027551D01*
X1765066Y1038473D01*
X1701820Y1363339D02*
G01*
X1712742Y1368673D01*
X1728998Y1385183D01*
X1728998Y1270629D01*
X1770654Y1357751D02*
G01*
X1770654Y1363339D01*
X1775988Y1374261D01*
X1781576Y1379595D01*
X1792244Y1385183D01*
X1814088Y1385183D01*
X1825010Y1379595D01*
X1830598Y1374261D01*
X1835932Y1363339D01*
X1835932Y1352417D01*
X1830598Y1341495D01*
X1819676Y1325239D01*
X1765066Y1270629D01*
X1841520Y1270629D01*
X1727220Y1617339D02*
G01*
X1738142Y1622673D01*
X1754398Y1639183D01*
X1754398Y1524629D01*
X1790466Y1617339D02*
G01*
X1801388Y1622673D01*
X1817644Y1639183D01*
X1817644Y1524629D01*
X1714520Y1871339D02*
G01*
X1725442Y1876673D01*
X1741698Y1893183D01*
X1741698Y1778629D01*
X1810532Y1893183D02*
G01*
X1794276Y1887595D01*
X1783354Y1871339D01*
X1777766Y1843907D01*
X1777766Y1827651D01*
X1783354Y1800473D01*
X1794276Y1783963D01*
X1810532Y1778629D01*
X1821454Y1778629D01*
X1837710Y1783963D01*
X1848632Y1800473D01*
X1854220Y1827651D01*
X1854220Y1843907D01*
X1848632Y1871339D01*
X1837710Y1887595D01*
X1821454Y1893183D01*
X1810532Y1893183D01*
X1810786Y2108829D02*
G01*
X1805452Y2092573D01*
X1794530Y2081651D01*
X1778020Y2076317D01*
X1772686Y2076317D01*
X1756176Y2081651D01*
X1745254Y2092573D01*
X1739920Y2108829D01*
X1739920Y2114417D01*
X1745254Y2130673D01*
X1756176Y2141595D01*
X1772686Y2147183D01*
X1778020Y2147183D01*
X1794530Y2141595D01*
X1805452Y2130673D01*
X1810786Y2108829D01*
X1810786Y2081651D01*
X1805452Y2054473D01*
X1794530Y2037963D01*
X1778020Y2032629D01*
X1767098Y2032629D01*
X1750842Y2037963D01*
X1745254Y2048885D01*
X1767098Y2401183D02*
G01*
X1750842Y2395595D01*
X1745254Y2384673D01*
X1745254Y2373751D01*
X1750842Y2362829D01*
X1761764Y2357495D01*
X1783608Y2351907D01*
X1799864Y2346573D01*
X1810786Y2335651D01*
X1816374Y2324729D01*
X1816374Y2308473D01*
X1810786Y2297551D01*
X1805452Y2291963D01*
X1788942Y2286629D01*
X1767098Y2286629D01*
X1750842Y2291963D01*
X1745254Y2297551D01*
X1739920Y2308473D01*
X1739920Y2324729D01*
X1745254Y2335651D01*
X1756176Y2346573D01*
X1772686Y2351907D01*
X1794530Y2357495D01*
X1805452Y2362829D01*
X1810786Y2373751D01*
X1810786Y2384673D01*
X1805452Y2395595D01*
X1788942Y2401183D01*
X1767098Y2401183D01*
X1767055Y5309481D02*
G01*
X1750545Y5303893D01*
X1739623Y5287637D01*
X1734289Y5260205D01*
X1734289Y5243949D01*
X1739623Y5216771D01*
X1750545Y5200261D01*
X1767055Y5194927D01*
X1777977Y5194927D01*
X1794233Y5200261D01*
X1805155Y5216771D01*
X1810743Y5243949D01*
X1810743Y5260205D01*
X1805155Y5287637D01*
X1794233Y5303893D01*
X1777977Y5309481D01*
X1767055Y5309481D01*
X1759714Y5033637D02*
G01*
X1770636Y5038971D01*
X1786892Y5055481D01*
X1786892Y4940927D01*
X1739623Y4774049D02*
G01*
X1739623Y4779637D01*
X1745211Y4790559D01*
X1750545Y4795893D01*
X1761467Y4801481D01*
X1783311Y4801481D01*
X1794233Y4795893D01*
X1799821Y4790559D01*
X1805155Y4779637D01*
X1805155Y4768715D01*
X1799821Y4757793D01*
X1788899Y4741537D01*
X1734289Y4686927D01*
X1810743Y4686927D01*
X1745211Y4547481D02*
G01*
X1805155Y4547481D01*
X1772389Y4503793D01*
X1788899Y4503793D01*
X1799821Y4498205D01*
X1805155Y4492871D01*
X1810743Y4476615D01*
X1810743Y4465693D01*
X1805155Y4449183D01*
X1794233Y4438261D01*
X1777977Y4432927D01*
X1761467Y4432927D01*
X1745211Y4438261D01*
X1739623Y4443849D01*
X1734289Y4454771D01*
X1788899Y4293481D02*
G01*
X1734289Y4217027D01*
X1816077Y4217027D01*
X1788899Y4293481D02*
G01*
X1788899Y4178927D01*
X1799821Y4039481D02*
G01*
X1745211Y4039481D01*
X1739623Y3990205D01*
X1745211Y3995793D01*
X1761467Y4001127D01*
X1777977Y4001127D01*
X1794233Y3995793D01*
X1805155Y3984871D01*
X1810743Y3968615D01*
X1810743Y3957693D01*
X1805155Y3941183D01*
X1794233Y3930261D01*
X1777977Y3924927D01*
X1761467Y3924927D01*
X1745211Y3930261D01*
X1739623Y3935849D01*
X1734289Y3946771D01*
X1799821Y3768971D02*
G01*
X1794233Y3779893D01*
X1777977Y3785481D01*
X1767055Y3785481D01*
X1750545Y3779893D01*
X1739623Y3763637D01*
X1734289Y3736205D01*
X1734289Y3709027D01*
X1739623Y3687183D01*
X1750545Y3676261D01*
X1767055Y3670927D01*
X1772389Y3670927D01*
X1788899Y3676261D01*
X1799821Y3687183D01*
X1805155Y3703693D01*
X1805155Y3709027D01*
X1799821Y3725537D01*
X1788899Y3736205D01*
X1772389Y3741793D01*
X1767055Y3741793D01*
X1750545Y3736205D01*
X1739623Y3725537D01*
X1734289Y3709027D01*
X1810743Y3531481D02*
G01*
X1756133Y3416927D01*
X1734289Y3531481D02*
G01*
X1810743Y3531481D01*
X2260600Y5358637D02*
G01*
X2260600Y5263134D01*
X2260600Y5358637D02*
G01*
X2296922Y5263134D01*
X2333243Y5358637D02*
G01*
X2296922Y5263134D01*
X2333243Y5358637D02*
G01*
X2333243Y5263134D01*
X2363215Y5358637D02*
G01*
X2363215Y5263134D01*
X2363215Y5358637D02*
G01*
X2404109Y5358637D01*
X2417825Y5354065D01*
X2422397Y5349494D01*
X2426970Y5340604D01*
X2426970Y5331460D01*
X2422397Y5322315D01*
X2417825Y5317744D01*
X2404109Y5313171D01*
X2363215Y5313171D02*
G01*
X2404109Y5313171D01*
X2417825Y5308600D01*
X2422397Y5304281D01*
X2426970Y5295137D01*
X2426970Y5281421D01*
X2422397Y5272278D01*
X2417825Y5267705D01*
X2404109Y5263134D01*
X2363215Y5263134D01*
X2456941Y5358637D02*
G01*
X2456941Y5263134D01*
X2456941Y5358637D02*
G01*
X2493263Y5263134D01*
X2529586Y5358637D02*
G01*
X2493263Y5263134D01*
X2529586Y5358637D02*
G01*
X2529586Y5263134D01*
X2564129Y5336031D02*
G01*
X2564129Y5340604D01*
X2568702Y5349494D01*
X2573274Y5354065D01*
X2582418Y5358637D01*
X2600706Y5358637D01*
X2609595Y5354065D01*
X2614168Y5349494D01*
X2618740Y5340604D01*
X2618740Y5331460D01*
X2614168Y5322315D01*
X2605024Y5308600D01*
X2559811Y5263134D01*
X2623311Y5263134D01*
X2717038Y5358637D02*
G01*
X2671572Y5263134D01*
X2653284Y5358637D02*
G01*
X2717038Y5358637D01*
X2815081Y5336031D02*
G01*
X2810509Y5345176D01*
X2801620Y5354065D01*
X2792475Y5358637D01*
X2774188Y5358637D01*
X2765043Y5354065D01*
X2756154Y5345176D01*
X2751581Y5336031D01*
X2747009Y5322315D01*
X2747009Y5299710D01*
X2751581Y5285994D01*
X2756154Y5276850D01*
X2765043Y5267705D01*
X2774188Y5263134D01*
X2792475Y5263134D01*
X2801620Y5267705D01*
X2810509Y5276850D01*
X2815081Y5285994D01*
X2845054Y5340604D02*
G01*
X2854197Y5345176D01*
X2867913Y5358637D01*
X2867913Y5263134D01*
X2925063Y5358637D02*
G01*
X2911602Y5354065D01*
X2902458Y5340604D01*
X2897886Y5317744D01*
X2897886Y5304281D01*
X2902458Y5281421D01*
X2911602Y5267705D01*
X2925063Y5263134D01*
X2934208Y5263134D01*
X2947924Y5267705D01*
X2957068Y5281421D01*
X2961386Y5304281D01*
X2961386Y5317744D01*
X2957068Y5340604D01*
X2947924Y5354065D01*
X2934208Y5358637D01*
X2925063Y5358637D01*
X3018790Y5358637D02*
G01*
X3005074Y5354065D01*
X2995929Y5340604D01*
X2991611Y5317744D01*
X2991611Y5304281D01*
X2995929Y5281421D01*
X3005074Y5267705D01*
X3018790Y5263134D01*
X3027934Y5263134D01*
X3041395Y5267705D01*
X3050540Y5281421D01*
X3055111Y5304281D01*
X3055111Y5317744D01*
X3050540Y5340604D01*
X3041395Y5354065D01*
X3027934Y5358637D01*
X3018790Y5358637D01*
X3112515Y5358637D02*
G01*
X3098800Y5354065D01*
X3089656Y5340604D01*
X3085084Y5317744D01*
X3085084Y5304281D01*
X3089656Y5281421D01*
X3098800Y5267705D01*
X3112515Y5263134D01*
X3121406Y5263134D01*
X3135122Y5267705D01*
X3144265Y5281421D01*
X3148838Y5304281D01*
X3148838Y5317744D01*
X3144265Y5340604D01*
X3135122Y5354065D01*
X3121406Y5358637D01*
X3112515Y5358637D01*
X3215131Y5358637D02*
G01*
X3178809Y5263134D01*
X3215131Y5358637D02*
G01*
X3251454Y5263134D01*
X3192525Y5295137D02*
G01*
X3237991Y5295137D01*
X5633465Y837437D02*
G01*
X5633465Y764794D01*
X5628893Y751078D01*
X5624322Y746505D01*
X5615177Y741934D01*
X5606288Y741934D01*
X5597143Y746505D01*
X5592572Y751078D01*
X5588000Y764794D01*
X5588000Y773937D01*
X5663438Y819404D02*
G01*
X5672581Y823976D01*
X5686297Y837437D01*
X5686297Y741934D01*
X5790427Y1647202D02*
G01*
X5790427Y1692668D01*
X5749533Y1697240D01*
X5754105Y1692668D01*
X5758677Y1679206D01*
X5758677Y1665490D01*
X5754105Y1651774D01*
X5744961Y1642630D01*
X5731499Y1638058D01*
X5722355Y1638058D01*
X5708639Y1642630D01*
X5699495Y1651774D01*
X5694923Y1665490D01*
X5694923Y1679206D01*
X5699495Y1692668D01*
X5704067Y1697240D01*
X5713211Y1701812D01*
X5790427Y1608086D02*
G01*
X5694923Y1571764D01*
X5790427Y1535442D02*
G01*
X5694923Y1571764D01*
X367284Y2416555D02*
G01*
X476250Y2374900D01*
X367284Y2416555D02*
G01*
X476250Y2457957D01*
X439928Y2390394D02*
G01*
X439928Y2442463D01*
X367284Y2492247D02*
G01*
X476250Y2492247D01*
X367284Y2492247D02*
G01*
X367284Y2528570D01*
X372363Y2544318D01*
X382778Y2554731D01*
X393192Y2559812D01*
X408939Y2565145D01*
X434847Y2565145D01*
X450342Y2559812D01*
X460755Y2554731D01*
X471170Y2544318D01*
X476250Y2528570D01*
X476250Y2492247D01*
X367284Y2599436D02*
G01*
X476250Y2599436D01*
X367284Y2599436D02*
G01*
X367284Y2635757D01*
X372363Y2651252D01*
X382778Y2661665D01*
X393192Y2667000D01*
X408939Y2672079D01*
X434847Y2672079D01*
X450342Y2667000D01*
X460755Y2661665D01*
X471170Y2651252D01*
X476250Y2635757D01*
X476250Y2599436D01*
X367284Y2706370D02*
G01*
X476250Y2706370D01*
X367284Y2706370D02*
G01*
X367284Y2753105D01*
X372363Y2768600D01*
X377697Y2773934D01*
X388112Y2779013D01*
X398526Y2779013D01*
X408939Y2773934D01*
X414020Y2768600D01*
X419100Y2753105D01*
X419100Y2706370D01*
X419100Y2742692D02*
G01*
X476250Y2779013D01*
X367284Y2813304D02*
G01*
X476250Y2813304D01*
X367284Y2813304D02*
G01*
X367284Y2880868D01*
X419100Y2813304D02*
G01*
X419100Y2854960D01*
X476250Y2813304D02*
G01*
X476250Y2880868D01*
X382778Y2988055D02*
G01*
X372363Y2977642D01*
X367284Y2961894D01*
X367284Y2941320D01*
X372363Y2925571D01*
X382778Y2915157D01*
X393192Y2915157D01*
X403605Y2920492D01*
X408939Y2925571D01*
X414020Y2935986D01*
X424434Y2967228D01*
X429513Y2977642D01*
X434847Y2982721D01*
X445262Y2988055D01*
X460755Y2988055D01*
X471170Y2977642D01*
X476250Y2961894D01*
X476250Y2941320D01*
X471170Y2925571D01*
X460755Y2915157D01*
X382778Y3094989D02*
G01*
X372363Y3084576D01*
X367284Y3069081D01*
X367284Y3048254D01*
X372363Y3032760D01*
X382778Y3022345D01*
X393192Y3022345D01*
X403605Y3027426D01*
X408939Y3032760D01*
X414020Y3042920D01*
X424434Y3074162D01*
X429513Y3084576D01*
X434847Y3089910D01*
X445262Y3094989D01*
X460755Y3094989D01*
X471170Y3084576D01*
X476250Y3069081D01*
X476250Y3048254D01*
X471170Y3032760D01*
X460755Y3022345D01*
X367284Y3209289D02*
G01*
X476250Y3209289D01*
X367284Y3209289D02*
G01*
X367284Y3256026D01*
X372363Y3271520D01*
X377697Y3276854D01*
X388112Y3281934D01*
X398526Y3281934D01*
X408939Y3276854D01*
X414020Y3271520D01*
X419100Y3256026D01*
X419100Y3209289D02*
G01*
X419100Y3256026D01*
X424434Y3271520D01*
X429513Y3276854D01*
X439928Y3281934D01*
X455676Y3281934D01*
X466089Y3276854D01*
X471170Y3271520D01*
X476250Y3256026D01*
X476250Y3209289D01*
X367284Y3316223D02*
G01*
X445262Y3316223D01*
X460755Y3321557D01*
X471170Y3331971D01*
X476250Y3347465D01*
X476250Y3357879D01*
X471170Y3373373D01*
X460755Y3383787D01*
X445262Y3389121D01*
X367284Y3389121D01*
X382778Y3496055D02*
G01*
X372363Y3485642D01*
X367284Y3470147D01*
X367284Y3449320D01*
X372363Y3433826D01*
X382778Y3423412D01*
X393192Y3423412D01*
X403605Y3428492D01*
X408939Y3433826D01*
X414020Y3444239D01*
X424434Y3475228D01*
X429513Y3485642D01*
X434847Y3490976D01*
X445262Y3496055D01*
X460755Y3496055D01*
X471170Y3485642D01*
X476250Y3470147D01*
X476250Y3449320D01*
X471170Y3433826D01*
X460755Y3423412D01*
X5332222Y4540757D02*
G01*
X5392165Y4540757D01*
X5359400Y4497070D01*
X5375909Y4497070D01*
X5386831Y4491481D01*
X5392165Y4486147D01*
X5397754Y4469892D01*
X5397754Y4458970D01*
X5392165Y4442460D01*
X5381243Y4431537D01*
X5364988Y4426204D01*
X5348477Y4426204D01*
X5332222Y4431537D01*
X5326634Y4437126D01*
X5321300Y4448047D01*
X5326634Y4767326D02*
G01*
X5326634Y4772913D01*
X5332222Y4783836D01*
X5337556Y4789170D01*
X5348477Y4794757D01*
X5370322Y4794757D01*
X5381243Y4789170D01*
X5386831Y4783836D01*
X5392165Y4772913D01*
X5392165Y4761992D01*
X5386831Y4751070D01*
X5375909Y4734813D01*
X5321300Y4680204D01*
X5397754Y4680204D01*
X5334000Y5026913D02*
G01*
X5344922Y5032247D01*
X5361177Y5048757D01*
X5361177Y4934204D01*
X5375909Y4286757D02*
G01*
X5321300Y4210304D01*
X5403088Y4210304D01*
X5375909Y4286757D02*
G01*
X5375909Y4172204D01*
X5386831Y3762247D02*
G01*
X5381243Y3773170D01*
X5364988Y3778757D01*
X5354065Y3778757D01*
X5337556Y3773170D01*
X5326634Y3756913D01*
X5321300Y3729481D01*
X5321300Y3702304D01*
X5326634Y3680460D01*
X5337556Y3669537D01*
X5354065Y3664204D01*
X5359400Y3664204D01*
X5375909Y3669537D01*
X5386831Y3680460D01*
X5392165Y3696970D01*
X5392165Y3702304D01*
X5386831Y3718813D01*
X5375909Y3729481D01*
X5359400Y3735070D01*
X5354065Y3735070D01*
X5337556Y3729481D01*
X5326634Y3718813D01*
X5321300Y3702304D01*
X3801109Y3275837D02*
G01*
X3755643Y3275837D01*
X3751072Y3234944D01*
X3755643Y3239515D01*
X3769106Y3244087D01*
X3782822Y3244087D01*
X3796538Y3239515D01*
X3805681Y3230371D01*
X3810254Y3216910D01*
X3810254Y3207765D01*
X3805681Y3194050D01*
X3796538Y3184905D01*
X3782822Y3180334D01*
X3769106Y3180334D01*
X3755643Y3184905D01*
X3751072Y3189478D01*
X3746500Y3198621D01*
X3840225Y3275837D02*
G01*
X3876547Y3180334D01*
X3912870Y3275837D02*
G01*
X3876547Y3180334D01*
X3712972Y5539231D02*
G01*
X3708654Y5548376D01*
X3699509Y5557265D01*
X3690365Y5561837D01*
X3672077Y5561837D01*
X3663188Y5557265D01*
X3654043Y5548376D01*
X3649472Y5539231D01*
X3644900Y5525515D01*
X3644900Y5502910D01*
X3649472Y5489194D01*
X3654043Y5480050D01*
X3663188Y5470905D01*
X3672077Y5466334D01*
X3690365Y5466334D01*
X3699509Y5470905D01*
X3708654Y5480050D01*
X3712972Y5489194D01*
X3712972Y5502910D01*
X3690365Y5502910D02*
G01*
X3712972Y5502910D01*
X3743197Y5561837D02*
G01*
X3743197Y5466334D01*
X3743197Y5561837D02*
G01*
X3806697Y5466334D01*
X3806697Y5561837D02*
G01*
X3806697Y5466334D01*
X3836670Y5561837D02*
G01*
X3836670Y5466334D01*
X3836670Y5561837D02*
G01*
X3868420Y5561837D01*
X3882136Y5557265D01*
X3891279Y5548376D01*
X3895852Y5539231D01*
X3900424Y5525515D01*
X3900424Y5502910D01*
X3895852Y5489194D01*
X3891279Y5480050D01*
X3882136Y5470905D01*
X3868420Y5466334D01*
X3836670Y5466334D01*
X2108200Y1256537D02*
G01*
X2108200Y1188465D01*
X2112772Y1174750D01*
X2121915Y1165605D01*
X2135377Y1161034D01*
X2144522Y1161034D01*
X2158238Y1165605D01*
X2167381Y1174750D01*
X2171954Y1188465D01*
X2171954Y1256537D01*
X2201925Y1238504D02*
G01*
X2210815Y1243076D01*
X2224531Y1256537D01*
X2224531Y1161034D01*
X4000500Y3061715D02*
G01*
X4000500Y2952750D01*
X4000500Y3061715D02*
G01*
X4047236Y3061715D01*
X4062729Y3056636D01*
X4068063Y3051302D01*
X4073143Y3040887D01*
X4073143Y3030473D01*
X4068063Y3020060D01*
X4062729Y3014979D01*
X4047236Y3009900D01*
X4000500Y3009900D01*
X4036822Y3009900D02*
G01*
X4073143Y2952750D01*
X4112768Y3035807D02*
G01*
X4112768Y3040887D01*
X4117847Y3051302D01*
X4123181Y3056636D01*
X4133595Y3061715D01*
X4154170Y3061715D01*
X4164584Y3056636D01*
X4169918Y3051302D01*
X4174997Y3040887D01*
X4174997Y3030473D01*
X4169918Y3020060D01*
X4159504Y3004565D01*
X4107434Y2952750D01*
X4180331Y2952750D01*
X5511800Y1916937D02*
G01*
X5511800Y1821434D01*
X5511800Y1916937D02*
G01*
X5543550Y1916937D01*
X5557265Y1912365D01*
X5566409Y1903476D01*
X5570981Y1894331D01*
X5575554Y1880615D01*
X5575554Y1858010D01*
X5570981Y1844294D01*
X5566409Y1835150D01*
X5557265Y1826005D01*
X5543550Y1821434D01*
X5511800Y1821434D01*
X5605525Y1898904D02*
G01*
X5614415Y1903476D01*
X5628131Y1916937D01*
X5628131Y1821434D01*
X5308600Y1916937D02*
G01*
X5308600Y1821434D01*
X5308600Y1916937D02*
G01*
X5349493Y1916937D01*
X5363209Y1912365D01*
X5367781Y1907794D01*
X5372354Y1898904D01*
X5372354Y1889760D01*
X5367781Y1880615D01*
X5363209Y1876044D01*
X5349493Y1871471D01*
X5308600Y1871471D01*
X5340350Y1871471D02*
G01*
X5372354Y1821434D01*
X5402325Y1898904D02*
G01*
X5411215Y1903476D01*
X5424931Y1916937D01*
X5424931Y1821434D01*
D11*
X4654550Y1895475D02*
G01*
X4654550Y1438275D01*
X4654550Y1438275D02*
G01*
X4730750Y1514475D01*
X4654550Y1438275D02*
G01*
X4578350Y1514475D01*
X4711700Y1282700D02*
G01*
X4806950Y1282700D01*
X4806950Y1997075D01*
X4502150Y1997075D01*
X4502150Y1285875D01*
X4597400Y1285875D01*
D12*
X2631500Y1291501D02*
G01*
X2286000Y1291501D01*
X2082800Y1291501D01*
X2082800Y3873500D01*
X2082800Y4381500D01*
X2082800Y4889500D01*
X2082800Y5397500D01*
X2614500Y5397500D01*
X2844800Y5397500D01*
X3376500Y5397500D01*
X3376500Y4889500D01*
X3376500Y4381500D01*
X3376500Y3873500D01*
X3376500Y1291501D01*
X3175000Y1291501D01*
X2758500Y1291501D01*
X4216400Y5638800D02*
G01*
X3962400Y5638800D01*
X3962400Y3098800D01*
X4216400Y3098800D01*
X4216400Y3225800D01*
X4216400Y5638800D01*
X3962400Y5384800D02*
G01*
X4216400Y5384800D01*
D13*
X5575523Y1595899D02*
G01*
X5575523Y1629900D01*
X5540296Y1787905D02*
G01*
X5530293Y1787905D01*
X5500291Y1757911D01*
X5650298Y1572905D02*
G01*
X5650298Y1457904D01*
X5500291Y1572905D02*
G01*
X5500291Y1457904D01*
X5650298Y1652904D02*
G01*
X5650298Y1757911D01*
X5500291Y1652904D02*
G01*
X5500291Y1757911D01*
X5650285Y1457904D02*
G01*
X5502295Y1457904D01*
X5610288Y1787905D02*
G01*
X5540296Y1787905D01*
X5610288Y1787905D02*
G01*
X5620303Y1787905D01*
X5650298Y1757911D01*
X5610296Y1595899D02*
G01*
X5542297Y1595899D01*
D11*
X5291587Y1767961D02*
G01*
X5451591Y1767961D01*
X5292097Y1457904D02*
G01*
X5452102Y1457904D01*
X5451591Y1642965D02*
G01*
X5451591Y1767961D01*
X5291587Y1642965D02*
G01*
X5291587Y1767961D01*
X5452102Y1582907D02*
G01*
X5452102Y1457904D01*
X5292097Y1582907D02*
G01*
X5292097Y1457904D01*
G75*
G01*
X4711700Y1282700D02*
G03*
X4597489Y1285870I-57150J-16D01*
D14*
G75*
G01*
X3276600Y1361440D02*
G03*
X3276092Y1361440I-254J29999D01*
D15*
G75*
G01*
X3492500Y1318006D02*
G03*
X3492246Y1318006I-127J12499D01*
D12*
G75*
G01*
X2758440Y1291590D02*
G03*
X2631440Y1291590I-63500J0D01*
D11*
X4235881Y5794502D02*
G01*
X5085892Y5794502D01*
X5085892Y2944495D01*
X4235881Y2944495D01*
X4235881Y5794502D01*
X756081Y5800597D02*
G01*
X1606092Y5800597D01*
X1606092Y2950590D01*
X756081Y2950590D01*
X756081Y5800597D01*
X756107Y2892297D02*
G01*
X1606118Y2892297D01*
X1606118Y42290D01*
X756107Y42290D01*
X756107Y2892297D01*
X5207000Y1397000D02*
G01*
X5715000Y1397000D01*
X5715000Y889000D01*
X5207000Y889000D01*
X5207000Y1397000D01*
M02*
