G04 Layer: BottomSilkscreenLayer*
G04 Panelize: , Column: 2, Row: 2, Board Size: 58.42mm x 58.42mm, Panelized Board Size: 118.84mm x 118.84mm*
G04 EasyEDA v6.5.34, 2023-09-06 22:38:36*
G04 b9bc4809806445119315d77ae2694b74,5a6b42c53f6a479593ecc07194224c93,10*
G04 Gerber Generator version 0.2*
G04 Scale: 100 percent, Rotated: No, Reflected: No *
G04 Dimensions in millimeters *
G04 leading zeros omitted , absolute positions ,4 integer and 5 decimal *
%FSLAX45Y45*%
%MOMM*%

%ADD10C,0.1524*%
%ADD11C,0.1520*%
%ADD12C,0.2540*%

%LPD*%
D10*
X3922522Y305307D02*
G01*
X3927856Y315721D01*
X3938270Y326136D01*
X3948429Y331215D01*
X3969258Y331215D01*
X3979672Y326136D01*
X3990086Y315721D01*
X3995420Y305307D01*
X4000500Y289560D01*
X4000500Y263652D01*
X3995420Y248157D01*
X3990086Y237744D01*
X3979672Y227329D01*
X3969258Y222250D01*
X3948429Y222250D01*
X3938270Y227329D01*
X3927856Y237744D01*
X3922522Y248157D01*
X3856990Y331215D02*
G01*
X3867404Y326136D01*
X3877818Y315721D01*
X3883152Y305307D01*
X3888231Y289560D01*
X3888231Y263652D01*
X3883152Y248157D01*
X3877818Y237744D01*
X3867404Y227329D01*
X3856990Y222250D01*
X3836415Y222250D01*
X3826002Y227329D01*
X3815588Y237744D01*
X3810254Y248157D01*
X3805174Y263652D01*
X3805174Y289560D01*
X3810254Y305307D01*
X3815588Y315721D01*
X3826002Y326136D01*
X3836415Y331215D01*
X3856990Y331215D01*
X3770884Y331215D02*
G01*
X3770884Y222250D01*
X3770884Y331215D02*
G01*
X3724147Y331215D01*
X3708400Y326136D01*
X3703320Y320802D01*
X3698240Y310387D01*
X3698240Y294894D01*
X3703320Y284479D01*
X3708400Y279400D01*
X3724147Y274065D01*
X3770884Y274065D01*
X3663950Y331215D02*
G01*
X3622293Y279400D01*
X3622293Y222250D01*
X3580638Y331215D02*
G01*
X3622293Y279400D01*
X3546347Y331215D02*
G01*
X3546347Y222250D01*
X3546347Y331215D02*
G01*
X3499611Y331215D01*
X3484118Y326136D01*
X3478784Y320802D01*
X3473704Y310387D01*
X3473704Y299973D01*
X3478784Y289560D01*
X3484118Y284479D01*
X3499611Y279400D01*
X3546347Y279400D01*
X3510025Y279400D02*
G01*
X3473704Y222250D01*
X3439413Y331215D02*
G01*
X3439413Y222250D01*
X3327145Y305307D02*
G01*
X3332479Y315721D01*
X3342640Y326136D01*
X3353054Y331215D01*
X3373881Y331215D01*
X3384295Y326136D01*
X3394709Y315721D01*
X3399790Y305307D01*
X3405124Y289560D01*
X3405124Y263652D01*
X3399790Y248157D01*
X3394709Y237744D01*
X3384295Y227329D01*
X3373881Y222250D01*
X3353054Y222250D01*
X3342640Y227329D01*
X3332479Y237744D01*
X3327145Y248157D01*
X3327145Y263652D01*
X3353054Y263652D02*
G01*
X3327145Y263652D01*
X3292856Y331215D02*
G01*
X3292856Y222250D01*
X3220211Y331215D02*
G01*
X3220211Y222250D01*
X3292856Y279400D02*
G01*
X3220211Y279400D01*
X3149600Y331215D02*
G01*
X3149600Y222250D01*
X3185922Y331215D02*
G01*
X3113024Y331215D01*
X2993643Y305307D02*
G01*
X2993643Y310387D01*
X2988309Y320802D01*
X2983229Y326136D01*
X2972815Y331215D01*
X2951988Y331215D01*
X2941574Y326136D01*
X2936493Y320802D01*
X2931159Y310387D01*
X2931159Y299973D01*
X2936493Y289560D01*
X2946908Y274065D01*
X2998724Y222250D01*
X2926079Y222250D01*
X2860547Y331215D02*
G01*
X2876295Y326136D01*
X2886709Y310387D01*
X2891790Y284479D01*
X2891790Y268986D01*
X2886709Y242823D01*
X2876295Y227329D01*
X2860547Y222250D01*
X2850134Y222250D01*
X2834640Y227329D01*
X2824225Y242823D01*
X2819145Y268986D01*
X2819145Y284479D01*
X2824225Y310387D01*
X2834640Y326136D01*
X2850134Y331215D01*
X2860547Y331215D01*
X2779522Y305307D02*
G01*
X2779522Y310387D01*
X2774441Y320802D01*
X2769108Y326136D01*
X2758693Y331215D01*
X2738120Y331215D01*
X2727706Y326136D01*
X2722372Y320802D01*
X2717291Y310387D01*
X2717291Y299973D01*
X2722372Y289560D01*
X2732786Y274065D01*
X2784856Y222250D01*
X2711958Y222250D01*
X2672588Y305307D02*
G01*
X2672588Y310387D01*
X2667254Y320802D01*
X2662174Y326136D01*
X2651759Y331215D01*
X2630931Y331215D01*
X2620518Y326136D01*
X2615438Y320802D01*
X2610104Y310387D01*
X2610104Y299973D01*
X2615438Y289560D01*
X2625852Y274065D01*
X2677668Y222250D01*
X2605024Y222250D01*
X2490724Y331215D02*
G01*
X2449068Y222250D01*
X2407665Y331215D02*
G01*
X2449068Y222250D01*
X2373375Y331215D02*
G01*
X2373375Y222250D01*
X2373375Y331215D02*
G01*
X2305811Y331215D01*
X2373375Y279400D02*
G01*
X2331720Y279400D01*
X2373375Y222250D02*
G01*
X2305811Y222250D01*
X2198624Y331215D02*
G01*
X2250693Y222250D01*
X2271522Y331215D02*
G01*
X2198624Y331215D01*
X2164334Y331215D02*
G01*
X2164334Y222250D01*
X2164334Y331215D02*
G01*
X2096770Y331215D01*
X2164334Y279400D02*
G01*
X2122931Y279400D01*
X2062479Y331215D02*
G01*
X2062479Y222250D01*
X2028190Y331215D02*
G01*
X2028190Y222250D01*
X2028190Y331215D02*
G01*
X1986788Y222250D01*
X1945131Y331215D02*
G01*
X1986788Y222250D01*
X1945131Y331215D02*
G01*
X1945131Y222250D01*
D11*
X3034144Y166138D02*
G01*
X3034144Y83012D01*
X3039341Y67424D01*
X3044535Y62229D01*
X3054926Y57035D01*
X3065317Y57035D01*
X3075708Y62229D01*
X3080905Y67424D01*
X3086100Y83012D01*
X3086100Y93403D01*
X2999854Y166138D02*
G01*
X2999854Y57035D01*
X2999854Y57035D02*
G01*
X2937509Y57035D01*
X2825287Y140162D02*
G01*
X2830484Y150553D01*
X2840875Y160944D01*
X2851264Y166138D01*
X2872046Y166138D01*
X2882437Y160944D01*
X2892828Y150553D01*
X2898025Y140162D01*
X2903220Y124574D01*
X2903220Y98597D01*
X2898025Y83012D01*
X2892828Y72621D01*
X2882437Y62229D01*
X2872046Y57035D01*
X2851264Y57035D01*
X2840875Y62229D01*
X2830484Y72621D01*
X2825287Y83012D01*
X2739044Y166138D02*
G01*
X2739044Y83012D01*
X2744238Y67424D01*
X2749435Y62229D01*
X2759824Y57035D01*
X2770215Y57035D01*
X2780606Y62229D01*
X2785803Y67424D01*
X2790997Y83012D01*
X2790997Y93403D01*
X2704754Y166138D02*
G01*
X2704754Y57035D01*
X2704754Y57035D02*
G01*
X2642407Y57035D01*
X2530185Y140162D02*
G01*
X2535382Y150553D01*
X2545773Y160944D01*
X2556164Y166138D01*
X2576944Y166138D01*
X2587335Y160944D01*
X2597726Y150553D01*
X2602923Y140162D01*
X2608117Y124574D01*
X2608117Y98597D01*
X2602923Y83012D01*
X2597726Y72621D01*
X2587335Y62229D01*
X2576944Y57035D01*
X2556164Y57035D01*
X2545773Y62229D01*
X2535382Y72621D01*
X2530185Y83012D01*
X2443942Y166138D02*
G01*
X2443942Y83012D01*
X2449136Y67424D01*
X2454333Y62229D01*
X2464724Y57035D01*
X2475115Y57035D01*
X2485504Y62229D01*
X2490701Y67424D01*
X2495895Y83012D01*
X2495895Y93403D01*
X2409652Y166138D02*
G01*
X2409652Y57035D01*
X2409652Y57035D02*
G01*
X2347305Y57035D01*
X2235085Y140162D02*
G01*
X2240279Y150553D01*
X2250671Y160944D01*
X2261062Y166138D01*
X2281844Y166138D01*
X2292235Y160944D01*
X2302624Y150553D01*
X2307821Y140162D01*
X2313015Y124574D01*
X2313015Y98597D01*
X2307821Y83012D01*
X2302624Y72621D01*
X2292235Y62229D01*
X2281844Y57035D01*
X2261062Y57035D01*
X2250671Y62229D01*
X2240279Y72621D01*
X2235085Y83012D01*
X2148840Y166138D02*
G01*
X2148840Y83012D01*
X2154034Y67424D01*
X2159231Y62229D01*
X2169622Y57035D01*
X2180013Y57035D01*
X2190404Y62229D01*
X2195598Y67424D01*
X2200795Y83012D01*
X2200795Y93403D01*
X2114550Y166138D02*
G01*
X2114550Y57035D01*
X2114550Y57035D02*
G01*
X2052205Y57035D01*
X1939983Y140162D02*
G01*
X1945177Y150553D01*
X1955568Y160944D01*
X1965959Y166138D01*
X1986742Y166138D01*
X1997133Y160944D01*
X2007524Y150553D01*
X2012718Y140162D01*
X2017915Y124574D01*
X2017915Y98597D01*
X2012718Y83012D01*
X2007524Y72621D01*
X1997133Y62229D01*
X1986742Y57035D01*
X1965959Y57035D01*
X1955568Y62229D01*
X1945177Y72621D01*
X1939983Y83012D01*
D12*
G75*
G01
X4741799Y914400D02*
G03X4741799Y914400I-499999J0D01*
X5207000Y1397000D02*
G01*
X5715000Y1397000D01*
X5715000Y889000D01*
X5207000Y889000D01*
X5207000Y1397000D01*
M02*
