M48
METRIC,LZ,000.000
;FILE_FORMAT=3:3
;TYPE=PLATED
;Layer: PTH_Through_Via
;EasyEDA v6.5.34, 2023-09-01 23:34:49
;d2f9a346f3944a8da2a00f25f54837ea,5a6b42c53f6a479593ecc07194224c93,10
;Gerber Generator version 0.2
;Holesize 1 = 0.305 mm
T01C0.305
%
G05
G90
T01
X120241Y018415
X120241Y007620
X125321Y007620
X120241Y054610
X057785Y057150
X040005Y017780
X042545Y017780
X045085Y017780
X047625Y017780
X050165Y017780
X052705Y017780
X055245Y017780
X057785Y017780
X099441Y019685
X099441Y015875
X099441Y048768
X099441Y044958
X093091Y015875
X093091Y010795
X091821Y014605
X091821Y008255
X092456Y015240
X092456Y009525
X075438Y031369
X075438Y012065
X077978Y030099
X077978Y015875
X070358Y032766
X070358Y014605
X073025Y033909
X073025Y015240
X091821Y026289
X091821Y020955
X092456Y028829
X092456Y019685
X091186Y027559
X091186Y018415
X093091Y025146
X093091Y022225
X082931Y018796
X082931Y051308
X083566Y020066
X083566Y048768
X084201Y021336
X084201Y046228
X084836Y021971
X084836Y036068
X085471Y022606
X085471Y041148
X086106Y023749
X086106Y038608
X089916Y030988
X089916Y020701
X090551Y019431
X090551Y030353
X096647Y030353
X096647Y047498
X060071Y044069
X063119Y044069
X060706Y043434
X064135Y043434
X071656Y009525
X060579Y009525
X065405Y042799
X066675Y042164
X063246Y042164
X062611Y042799
X059944Y010640
X063119Y008128
X062484Y008763
X074196Y008763
X076736Y008128
X079248Y007493
X081788Y006858
X084328Y006223
X086868Y005588
X065024Y007493
X065786Y040894
X065151Y041529
X067310Y040894
X067310Y045339
X067945Y041529
X065659Y006858
X070231Y051308
X074295Y042164
X074295Y048768
X073660Y042799
X073660Y046228
X062611Y053848
X080518Y053848
X080518Y044939
X080518Y037319
X080518Y035179
X059309Y035179
X067310Y006223
X067945Y005588
X067437Y040005
X070739Y040005
X070104Y040640
X068199Y039751
X060071Y054610
X059055Y053848
X034972Y053848
X034290Y054610
X034972Y044939
X034290Y037320
X051435Y037781
X057785Y037781
X049784Y042799
X050419Y043434
X053975Y042799
X056261Y043434
X055626Y044704
X054991Y045339
X051054Y045339
X050419Y044704
X044450Y051181
X055245Y051181
X045085Y051816
X056515Y051816
X100965Y057150
X101092Y028067
X120241Y025527
X069088Y017907
X071628Y017907
X074168Y017907
X076708Y017907
X079248Y017907
X081788Y017907
X084328Y017907
X086868Y017907
X056642Y029591
X059055Y029591
X051435Y041489
X056642Y041529
X053975Y041529
X061595Y029591
X064135Y029591
X066675Y029591
X053975Y029591
X051435Y029591
X098171Y003175
X098171Y032258
X098171Y043688
X092456Y030988
X092456Y039878
X093091Y026035
X093091Y055118
X093091Y037319
X087757Y054610
X087757Y034779
X123063Y018415
M30
