G04 Layer: BottomSilkscreenLayer*
G04 Panelize: , Column: 2, Row: 2, Board Size: 127.89mm x 58.42mm, Panelized Board Size: 257.78mm x 118.84mm*
G04 EasyEDA v6.5.34, 2023-09-01 23:34:49*
G04 d2f9a346f3944a8da2a00f25f54837ea,5a6b42c53f6a479593ecc07194224c93,10*
G04 Gerber Generator version 0.2*
G04 Scale: 100 percent, Rotated: No, Reflected: No *
G04 Dimensions in millimeters *
G04 leading zeros omitted , absolute positions ,4 integer and 5 decimal *
%FSLAX45Y45*%
%MOMM*%

%ADD10C,0.1524*%
%ADD11C,0.1520*%
%ADD12C,0.2540*%

%LPD*%
D10*
X6843555Y5601152D02*
G01*
X6848751Y5611543D01*
X6859143Y5621934D01*
X6869531Y5627128D01*
X6890313Y5627128D01*
X6900705Y5621934D01*
X6911096Y5611543D01*
X6916293Y5601152D01*
X6921487Y5585564D01*
X6921487Y5559587D01*
X6916293Y5544002D01*
X6911096Y5533610D01*
X6900705Y5523219D01*
X6890313Y5518025D01*
X6869531Y5518025D01*
X6859143Y5523219D01*
X6848751Y5533610D01*
X6843555Y5544002D01*
X6778091Y5627128D02*
G01*
X6788482Y5621934D01*
X6798873Y5611543D01*
X6804070Y5601152D01*
X6809265Y5585564D01*
X6809265Y5559587D01*
X6804070Y5544002D01*
X6798873Y5533610D01*
X6788482Y5523219D01*
X6778091Y5518025D01*
X6757311Y5518025D01*
X6746920Y5523219D01*
X6736529Y5533610D01*
X6731332Y5544002D01*
X6726138Y5559587D01*
X6726138Y5585564D01*
X6731332Y5601152D01*
X6736529Y5611543D01*
X6746920Y5621934D01*
X6757311Y5627128D01*
X6778091Y5627128D01*
X6691848Y5627128D02*
G01*
X6691848Y5518025D01*
X6691848Y5627128D02*
G01*
X6645089Y5627128D01*
X6629501Y5621934D01*
X6624307Y5616737D01*
X6619113Y5606346D01*
X6619113Y5590760D01*
X6624307Y5580369D01*
X6629501Y5575175D01*
X6645089Y5569978D01*
X6691848Y5569978D01*
X6584822Y5627128D02*
G01*
X6543258Y5575175D01*
X6543258Y5518025D01*
X6501693Y5627128D02*
G01*
X6543258Y5575175D01*
X6467403Y5627128D02*
G01*
X6467403Y5518025D01*
X6467403Y5627128D02*
G01*
X6420645Y5627128D01*
X6405059Y5621934D01*
X6399862Y5616737D01*
X6394668Y5606346D01*
X6394668Y5595955D01*
X6399862Y5585564D01*
X6405059Y5580369D01*
X6420645Y5575175D01*
X6467403Y5575175D01*
X6431036Y5575175D02*
G01*
X6394668Y5518025D01*
X6360378Y5627128D02*
G01*
X6360378Y5518025D01*
X6248156Y5601152D02*
G01*
X6253352Y5611543D01*
X6263741Y5621934D01*
X6274132Y5627128D01*
X6294915Y5627128D01*
X6305306Y5621934D01*
X6315697Y5611543D01*
X6320891Y5601152D01*
X6326088Y5585564D01*
X6326088Y5559587D01*
X6320891Y5544002D01*
X6315697Y5533610D01*
X6305306Y5523219D01*
X6294915Y5518025D01*
X6274132Y5518025D01*
X6263741Y5523219D01*
X6253352Y5533610D01*
X6248156Y5544002D01*
X6248156Y5559587D01*
X6274132Y5559587D02*
G01*
X6248156Y5559587D01*
X6213866Y5627128D02*
G01*
X6213866Y5518025D01*
X6141130Y5627128D02*
G01*
X6141130Y5518025D01*
X6213866Y5575175D02*
G01*
X6141130Y5575175D01*
X6070472Y5627128D02*
G01*
X6070472Y5518025D01*
X6106840Y5627128D02*
G01*
X6034102Y5627128D01*
X5914608Y5601152D02*
G01*
X5914608Y5606346D01*
X5909411Y5616737D01*
X5904217Y5621934D01*
X5893826Y5627128D01*
X5873043Y5627128D01*
X5862652Y5621934D01*
X5857458Y5616737D01*
X5852261Y5606346D01*
X5852261Y5595955D01*
X5857458Y5585564D01*
X5867849Y5569978D01*
X5919802Y5518025D01*
X5847067Y5518025D01*
X5781603Y5627128D02*
G01*
X5797191Y5621934D01*
X5807583Y5606346D01*
X5812777Y5580369D01*
X5812777Y5564784D01*
X5807583Y5538805D01*
X5797191Y5523219D01*
X5781603Y5518025D01*
X5771212Y5518025D01*
X5755627Y5523219D01*
X5745236Y5538805D01*
X5740041Y5564784D01*
X5740041Y5580369D01*
X5745236Y5606346D01*
X5755627Y5621934D01*
X5771212Y5627128D01*
X5781603Y5627128D01*
X5700555Y5601152D02*
G01*
X5700555Y5606346D01*
X5695360Y5616737D01*
X5690163Y5621934D01*
X5679772Y5627128D01*
X5658993Y5627128D01*
X5648601Y5621934D01*
X5643405Y5616737D01*
X5638210Y5606346D01*
X5638210Y5595955D01*
X5643405Y5585564D01*
X5653796Y5569978D01*
X5705751Y5518025D01*
X5633013Y5518025D01*
X5588332Y5627128D02*
G01*
X5531182Y5627128D01*
X5562356Y5585564D01*
X5546770Y5585564D01*
X5536379Y5580369D01*
X5531182Y5575175D01*
X5525988Y5559587D01*
X5525988Y5549196D01*
X5531182Y5533610D01*
X5541573Y5523219D01*
X5557161Y5518025D01*
X5572747Y5518025D01*
X5588332Y5523219D01*
X5593529Y5528414D01*
X5598723Y5538805D01*
X5411688Y5627128D02*
G01*
X5370123Y5518025D01*
X5328561Y5627128D02*
G01*
X5370123Y5518025D01*
X5294271Y5627128D02*
G01*
X5294271Y5518025D01*
X5294271Y5627128D02*
G01*
X5226730Y5627128D01*
X5294271Y5575175D02*
G01*
X5252707Y5575175D01*
X5294271Y5518025D02*
G01*
X5226730Y5518025D01*
X5119702Y5627128D02*
G01*
X5171658Y5518025D01*
X5192440Y5627128D02*
G01*
X5119702Y5627128D01*
X5085412Y5627128D02*
G01*
X5085412Y5518025D01*
X5085412Y5627128D02*
G01*
X5017871Y5627128D01*
X5085412Y5575175D02*
G01*
X5043850Y5575175D01*
X4983581Y5627128D02*
G01*
X4983581Y5518025D01*
X4949291Y5627128D02*
G01*
X4949291Y5518025D01*
X4949291Y5627128D02*
G01*
X4907729Y5518025D01*
X4866165Y5627128D02*
G01*
X4907729Y5518025D01*
X4866165Y5627128D02*
G01*
X4866165Y5518025D01*
D11*
X6463108Y5449308D02*
G01*
X6463108Y5366181D01*
X6468305Y5350593D01*
X6473499Y5345399D01*
X6483891Y5340205D01*
X6494282Y5340205D01*
X6504673Y5345399D01*
X6509870Y5350593D01*
X6515064Y5366181D01*
X6515064Y5376572D01*
X6428818Y5449308D02*
G01*
X6428818Y5340205D01*
X6428818Y5340205D02*
G01*
X6366474Y5340205D01*
X6254252Y5423331D02*
G01*
X6259449Y5433722D01*
X6269840Y5444114D01*
X6280228Y5449308D01*
X6301011Y5449308D01*
X6311402Y5444114D01*
X6321793Y5433722D01*
X6326990Y5423331D01*
X6332184Y5407743D01*
X6332184Y5381767D01*
X6326990Y5366181D01*
X6321793Y5355790D01*
X6311402Y5345399D01*
X6301011Y5340205D01*
X6280228Y5340205D01*
X6269840Y5345399D01*
X6259449Y5355790D01*
X6254252Y5366181D01*
X6168009Y5449308D02*
G01*
X6168009Y5366181D01*
X6173203Y5350593D01*
X6178400Y5345399D01*
X6188788Y5340205D01*
X6199179Y5340205D01*
X6209571Y5345399D01*
X6214767Y5350593D01*
X6219962Y5366181D01*
X6219962Y5376572D01*
X6133718Y5449308D02*
G01*
X6133718Y5340205D01*
X6133718Y5340205D02*
G01*
X6071372Y5340205D01*
X5959149Y5423331D02*
G01*
X5964346Y5433722D01*
X5974737Y5444114D01*
X5985129Y5449308D01*
X6005908Y5449308D01*
X6016299Y5444114D01*
X6026691Y5433722D01*
X6031887Y5423331D01*
X6037082Y5407743D01*
X6037082Y5381767D01*
X6031887Y5366181D01*
X6026691Y5355790D01*
X6016299Y5345399D01*
X6005908Y5340205D01*
X5985129Y5340205D01*
X5974737Y5345399D01*
X5964346Y5355790D01*
X5959149Y5366181D01*
X5872906Y5449308D02*
G01*
X5872906Y5366181D01*
X5878101Y5350593D01*
X5883297Y5345399D01*
X5893688Y5340205D01*
X5904080Y5340205D01*
X5914468Y5345399D01*
X5919665Y5350593D01*
X5924859Y5366181D01*
X5924859Y5376572D01*
X5838616Y5449308D02*
G01*
X5838616Y5340205D01*
X5838616Y5340205D02*
G01*
X5776269Y5340205D01*
X5664050Y5423331D02*
G01*
X5669244Y5433722D01*
X5679635Y5444114D01*
X5690026Y5449308D01*
X5710809Y5449308D01*
X5721200Y5444114D01*
X5731588Y5433722D01*
X5736785Y5423331D01*
X5741979Y5407743D01*
X5741979Y5381767D01*
X5736785Y5366181D01*
X5731588Y5355790D01*
X5721200Y5345399D01*
X5710809Y5340205D01*
X5690026Y5340205D01*
X5679635Y5345399D01*
X5669244Y5355790D01*
X5664050Y5366181D01*
X5577804Y5449308D02*
G01*
X5577804Y5366181D01*
X5582998Y5350593D01*
X5588195Y5345399D01*
X5598586Y5340205D01*
X5608977Y5340205D01*
X5619368Y5345399D01*
X5624563Y5350593D01*
X5629760Y5366181D01*
X5629760Y5376572D01*
X5543514Y5449308D02*
G01*
X5543514Y5340205D01*
X5543514Y5340205D02*
G01*
X5481170Y5340205D01*
X5368947Y5423331D02*
G01*
X5374142Y5433722D01*
X5384533Y5444114D01*
X5394924Y5449308D01*
X5415706Y5449308D01*
X5426097Y5444114D01*
X5436488Y5433722D01*
X5441683Y5423331D01*
X5446880Y5407743D01*
X5446880Y5381767D01*
X5441683Y5366181D01*
X5436488Y5355790D01*
X5426097Y5345399D01*
X5415706Y5340205D01*
X5394924Y5340205D01*
X5384533Y5345399D01*
X5374142Y5355790D01*
X5368947Y5366181D01*
D10*
X10312565Y2994411D02*
G01*
X10317109Y3003501D01*
X10326199Y3012592D01*
X10335293Y3017138D01*
X10353474Y3017138D01*
X10362565Y3012592D01*
X10371655Y3003501D01*
X10376199Y2994411D01*
X10380746Y2980776D01*
X10380746Y2958048D01*
X10376199Y2944411D01*
X10371655Y2935320D01*
X10362565Y2926229D01*
X10353474Y2921683D01*
X10335293Y2921683D01*
X10326199Y2926229D01*
X10317109Y2935320D01*
X10312565Y2944411D01*
X10237109Y3017138D02*
G01*
X10282565Y2953501D01*
X10214383Y2953501D01*
X10237109Y3017138D02*
G01*
X10237109Y2921683D01*
X10561698Y5742371D02*
G01*
X10566242Y5751461D01*
X10575333Y5760552D01*
X10584426Y5765098D01*
X10602607Y5765098D01*
X10611698Y5760552D01*
X10620789Y5751461D01*
X10625333Y5742371D01*
X10629879Y5728736D01*
X10629879Y5706008D01*
X10625333Y5692371D01*
X10620789Y5683280D01*
X10611698Y5674189D01*
X10602607Y5669643D01*
X10584426Y5669643D01*
X10575333Y5674189D01*
X10566242Y5683280D01*
X10561698Y5692371D01*
X10531698Y5746917D02*
G01*
X10522607Y5751461D01*
X10508970Y5765098D01*
X10508970Y5669643D01*
X5151508Y4205673D02*
G01*
X5156052Y4214764D01*
X5165143Y4223854D01*
X5174236Y4228401D01*
X5192417Y4228401D01*
X5201508Y4223854D01*
X5210599Y4214764D01*
X5215143Y4205673D01*
X5219689Y4192038D01*
X5219689Y4169310D01*
X5215143Y4155673D01*
X5210599Y4146583D01*
X5201508Y4137492D01*
X5192417Y4132945D01*
X5174236Y4132945D01*
X5165143Y4137492D01*
X5156052Y4146583D01*
X5151508Y4155673D01*
X5116962Y4205673D02*
G01*
X5116962Y4210220D01*
X5112418Y4219310D01*
X5107871Y4223854D01*
X5098780Y4228401D01*
X5080599Y4228401D01*
X5071508Y4223854D01*
X5066962Y4219310D01*
X5062418Y4210220D01*
X5062418Y4201129D01*
X5066962Y4192038D01*
X5076052Y4178401D01*
X5121508Y4132945D01*
X5057871Y4132945D01*
X5710321Y3024581D02*
G01*
X5714865Y3033671D01*
X5723956Y3042762D01*
X5733049Y3047309D01*
X5751230Y3047309D01*
X5760321Y3042762D01*
X5769411Y3033671D01*
X5773955Y3024581D01*
X5778502Y3010946D01*
X5778502Y2988218D01*
X5773955Y2974581D01*
X5769411Y2965490D01*
X5760321Y2956399D01*
X5751230Y2951853D01*
X5733049Y2951853D01*
X5723956Y2956399D01*
X5714865Y2965490D01*
X5710321Y2974581D01*
X5671230Y3047309D02*
G01*
X5621230Y3047309D01*
X5648502Y3010946D01*
X5634865Y3010946D01*
X5625774Y3006399D01*
X5621230Y3001853D01*
X5616684Y2988218D01*
X5616684Y2979127D01*
X5621230Y2965490D01*
X5630321Y2956399D01*
X5643956Y2951853D01*
X5657593Y2951853D01*
X5671230Y2956399D01*
X5675774Y2960946D01*
X5680321Y2970037D01*
X7746984Y3606101D02*
G01*
X7746984Y3510645D01*
X7746984Y3606101D02*
G01*
X7706075Y3606101D01*
X7692438Y3601554D01*
X7687894Y3597010D01*
X7683347Y3587920D01*
X7683347Y3578829D01*
X7687894Y3569738D01*
X7692438Y3565192D01*
X7706075Y3560645D01*
X7746984Y3560645D01*
X7715166Y3560645D02*
G01*
X7683347Y3510645D01*
X7644256Y3606101D02*
G01*
X7594257Y3606101D01*
X7621531Y3569738D01*
X7607894Y3569738D01*
X7598803Y3565192D01*
X7594257Y3560645D01*
X7589713Y3547010D01*
X7589713Y3537920D01*
X7594257Y3524283D01*
X7603347Y3515192D01*
X7616985Y3510645D01*
X7630622Y3510645D01*
X7644256Y3515192D01*
X7648803Y3519738D01*
X7653347Y3528829D01*
X7559713Y3587920D02*
G01*
X7550622Y3592464D01*
X7536985Y3606101D01*
X7536985Y3510645D01*
X7746984Y5472998D02*
G01*
X7746984Y5377543D01*
X7746984Y5472998D02*
G01*
X7706075Y5472998D01*
X7692438Y5468452D01*
X7687894Y5463908D01*
X7683347Y5454817D01*
X7683347Y5445726D01*
X7687894Y5436636D01*
X7692438Y5432089D01*
X7706075Y5427543D01*
X7746984Y5427543D01*
X7715166Y5427543D02*
G01*
X7683347Y5377543D01*
X7648803Y5450271D02*
G01*
X7648803Y5454817D01*
X7644256Y5463908D01*
X7639712Y5468452D01*
X7630622Y5472998D01*
X7612438Y5472998D01*
X7603347Y5468452D01*
X7598803Y5463908D01*
X7594257Y5454817D01*
X7594257Y5445726D01*
X7598803Y5436636D01*
X7607894Y5422999D01*
X7653347Y5377543D01*
X7589713Y5377543D01*
X7505166Y5472998D02*
G01*
X7550622Y5472998D01*
X7555166Y5432089D01*
X7550622Y5436636D01*
X7536985Y5441180D01*
X7523347Y5441180D01*
X7509713Y5436636D01*
X7500622Y5427543D01*
X7496075Y5413908D01*
X7496075Y5404817D01*
X7500622Y5391180D01*
X7509713Y5382089D01*
X7523347Y5377543D01*
X7536985Y5377543D01*
X7550622Y5382089D01*
X7555166Y5386636D01*
X7559713Y5395727D01*
X4292566Y3606083D02*
G01*
X4292566Y3510627D01*
X4292566Y3606083D02*
G01*
X4251657Y3606083D01*
X4238020Y3601537D01*
X4233476Y3596993D01*
X4228929Y3587902D01*
X4228929Y3578811D01*
X4233476Y3569721D01*
X4238020Y3565174D01*
X4251657Y3560627D01*
X4292566Y3560627D01*
X4260748Y3560627D02*
G01*
X4228929Y3510627D01*
X4194385Y3583355D02*
G01*
X4194385Y3587902D01*
X4189839Y3596993D01*
X4185295Y3601537D01*
X4176204Y3606083D01*
X4158020Y3606083D01*
X4148929Y3601537D01*
X4144385Y3596993D01*
X4139839Y3587902D01*
X4139839Y3578811D01*
X4144385Y3569721D01*
X4153476Y3556083D01*
X4198929Y3510627D01*
X4135295Y3510627D01*
X4059839Y3606083D02*
G01*
X4105295Y3542446D01*
X4037114Y3542446D01*
X4059839Y3606083D02*
G01*
X4059839Y3510627D01*
X4279879Y5472983D02*
G01*
X4279879Y5377527D01*
X4279879Y5472983D02*
G01*
X4238970Y5472983D01*
X4225333Y5468437D01*
X4220789Y5463893D01*
X4216242Y5454802D01*
X4216242Y5445711D01*
X4220789Y5436621D01*
X4225333Y5432074D01*
X4238970Y5427527D01*
X4279879Y5427527D01*
X4248061Y5427527D02*
G01*
X4216242Y5377527D01*
X4186242Y5454802D02*
G01*
X4177151Y5459346D01*
X4163517Y5472983D01*
X4163517Y5377527D01*
X4110789Y5472983D02*
G01*
X4124426Y5468437D01*
X4128970Y5459346D01*
X4128970Y5450255D01*
X4124426Y5441165D01*
X4115333Y5436621D01*
X4097152Y5432074D01*
X4083517Y5427527D01*
X4074426Y5418437D01*
X4069880Y5409346D01*
X4069880Y5395711D01*
X4074426Y5386621D01*
X4078970Y5382074D01*
X4092608Y5377527D01*
X4110789Y5377527D01*
X4124426Y5382074D01*
X4128970Y5386621D01*
X4133517Y5395711D01*
X4133517Y5409346D01*
X4128970Y5418437D01*
X4119879Y5427527D01*
X4106242Y5432074D01*
X4088061Y5436621D01*
X4078970Y5441165D01*
X4074426Y5450255D01*
X4074426Y5459346D01*
X4078970Y5468437D01*
X4092608Y5472983D01*
X4110789Y5472983D01*
X5474380Y2082794D02*
G01*
X5569836Y2082794D01*
X5474380Y2082794D02*
G01*
X5474380Y2041885D01*
X5478927Y2028248D01*
X5483471Y2023704D01*
X5492562Y2019157D01*
X5501652Y2019157D01*
X5510743Y2023704D01*
X5515289Y2028248D01*
X5519836Y2041885D01*
X5519836Y2082794D01*
X5519836Y2050976D02*
G01*
X5569836Y2019157D01*
X5474380Y1934613D02*
G01*
X5474380Y1980067D01*
X5515289Y1984613D01*
X5510743Y1980067D01*
X5506199Y1966432D01*
X5506199Y1952795D01*
X5510743Y1939157D01*
X5519836Y1930067D01*
X5533471Y1925523D01*
X5542561Y1925523D01*
X5556199Y1930067D01*
X5565289Y1939157D01*
X5569836Y1952795D01*
X5569836Y1966432D01*
X5565289Y1980067D01*
X5560743Y1984613D01*
X5551652Y1989157D01*
X5474380Y1850067D02*
G01*
X5538017Y1895523D01*
X5538017Y1827342D01*
X5474380Y1850067D02*
G01*
X5569836Y1850067D01*
X4204383Y2082794D02*
G01*
X4299838Y2082794D01*
X4204383Y2082794D02*
G01*
X4204383Y2041885D01*
X4208929Y2028248D01*
X4213473Y2023704D01*
X4222564Y2019157D01*
X4231655Y2019157D01*
X4240745Y2023704D01*
X4245292Y2028248D01*
X4249839Y2041885D01*
X4249839Y2082794D01*
X4249839Y2050976D02*
G01*
X4299838Y2019157D01*
X4204383Y1943704D02*
G01*
X4268020Y1989157D01*
X4268020Y1920976D01*
X4204383Y1943704D02*
G01*
X4299838Y1943704D01*
X4236201Y1831886D02*
G01*
X4249839Y1836432D01*
X4258929Y1845523D01*
X4263473Y1859158D01*
X4263473Y1863704D01*
X4258929Y1877341D01*
X4249839Y1886432D01*
X4236201Y1890976D01*
X4231655Y1890976D01*
X4218020Y1886432D01*
X4208929Y1877341D01*
X4204383Y1863704D01*
X4204383Y1859158D01*
X4208929Y1845523D01*
X4218020Y1836432D01*
X4236201Y1831886D01*
X4258929Y1831886D01*
X4281655Y1836432D01*
X4295292Y1845523D01*
X4299838Y1859158D01*
X4299838Y1868248D01*
X4295292Y1881886D01*
X4286201Y1886432D01*
X3950383Y2082794D02*
G01*
X4045838Y2082794D01*
X3950383Y2082794D02*
G01*
X3950383Y2041885D01*
X3954929Y2028248D01*
X3959473Y2023704D01*
X3968564Y2019157D01*
X3977655Y2019157D01*
X3986745Y2023704D01*
X3991292Y2028248D01*
X3995839Y2041885D01*
X3995839Y2082794D01*
X3995839Y2050976D02*
G01*
X4045838Y2019157D01*
X3950383Y1943704D02*
G01*
X4014020Y1989157D01*
X4014020Y1920976D01*
X3950383Y1943704D02*
G01*
X4045838Y1943704D01*
X3950383Y1868248D02*
G01*
X3954929Y1881886D01*
X3964020Y1886432D01*
X3973111Y1886432D01*
X3982201Y1881886D01*
X3986745Y1872795D01*
X3991292Y1854614D01*
X3995839Y1840976D01*
X4004929Y1831886D01*
X4014020Y1827342D01*
X4027655Y1827342D01*
X4036745Y1831886D01*
X4041292Y1836432D01*
X4045838Y1850067D01*
X4045838Y1868248D01*
X4041292Y1881886D01*
X4036745Y1886432D01*
X4027655Y1890976D01*
X4014020Y1890976D01*
X4004929Y1886432D01*
X3995839Y1877341D01*
X3991292Y1863704D01*
X3986745Y1845523D01*
X3982201Y1836432D01*
X3973111Y1831886D01*
X3964020Y1831886D01*
X3954929Y1836432D01*
X3950383Y1850067D01*
X3950383Y1868248D01*
X4458380Y2082794D02*
G01*
X4553836Y2082794D01*
X4458380Y2082794D02*
G01*
X4458380Y2041885D01*
X4462927Y2028248D01*
X4467471Y2023704D01*
X4476562Y2019157D01*
X4485652Y2019157D01*
X4494743Y2023704D01*
X4499289Y2028248D01*
X4503836Y2041885D01*
X4503836Y2082794D01*
X4503836Y2050976D02*
G01*
X4553836Y2019157D01*
X4458380Y1934613D02*
G01*
X4458380Y1980067D01*
X4499289Y1984613D01*
X4494743Y1980067D01*
X4490199Y1966432D01*
X4490199Y1952795D01*
X4494743Y1939157D01*
X4503836Y1930067D01*
X4517471Y1925523D01*
X4526561Y1925523D01*
X4540199Y1930067D01*
X4549289Y1939157D01*
X4553836Y1952795D01*
X4553836Y1966432D01*
X4549289Y1980067D01*
X4544743Y1984613D01*
X4535652Y1989157D01*
X4458380Y1868248D02*
G01*
X4462927Y1881886D01*
X4476562Y1890976D01*
X4499289Y1895523D01*
X4512927Y1895523D01*
X4535652Y1890976D01*
X4549289Y1881886D01*
X4553836Y1868248D01*
X4553836Y1859158D01*
X4549289Y1845523D01*
X4535652Y1836432D01*
X4512927Y1831886D01*
X4499289Y1831886D01*
X4476562Y1836432D01*
X4462927Y1845523D01*
X4458380Y1859158D01*
X4458380Y1868248D01*
X4712380Y2082794D02*
G01*
X4807836Y2082794D01*
X4712380Y2082794D02*
G01*
X4712380Y2041885D01*
X4716927Y2028248D01*
X4721471Y2023704D01*
X4730562Y2019157D01*
X4739652Y2019157D01*
X4748743Y2023704D01*
X4753289Y2028248D01*
X4757836Y2041885D01*
X4757836Y2082794D01*
X4757836Y2050976D02*
G01*
X4807836Y2019157D01*
X4712380Y1934613D02*
G01*
X4712380Y1980067D01*
X4753289Y1984613D01*
X4748743Y1980067D01*
X4744199Y1966432D01*
X4744199Y1952795D01*
X4748743Y1939157D01*
X4757836Y1930067D01*
X4771471Y1925523D01*
X4780561Y1925523D01*
X4794199Y1930067D01*
X4803289Y1939157D01*
X4807836Y1952795D01*
X4807836Y1966432D01*
X4803289Y1980067D01*
X4798743Y1984613D01*
X4789652Y1989157D01*
X4730562Y1895523D02*
G01*
X4726017Y1886432D01*
X4712380Y1872795D01*
X4807836Y1872795D01*
X4966380Y2082794D02*
G01*
X5061836Y2082794D01*
X4966380Y2082794D02*
G01*
X4966380Y2041885D01*
X4970927Y2028248D01*
X4975471Y2023704D01*
X4984562Y2019157D01*
X4993652Y2019157D01*
X5002743Y2023704D01*
X5007289Y2028248D01*
X5011836Y2041885D01*
X5011836Y2082794D01*
X5011836Y2050976D02*
G01*
X5061836Y2019157D01*
X4966380Y1934613D02*
G01*
X4966380Y1980067D01*
X5007289Y1984613D01*
X5002743Y1980067D01*
X4998199Y1966432D01*
X4998199Y1952795D01*
X5002743Y1939157D01*
X5011836Y1930067D01*
X5025471Y1925523D01*
X5034561Y1925523D01*
X5048199Y1930067D01*
X5057289Y1939157D01*
X5061836Y1952795D01*
X5061836Y1966432D01*
X5057289Y1980067D01*
X5052743Y1984613D01*
X5043652Y1989157D01*
X4989108Y1890976D02*
G01*
X4984562Y1890976D01*
X4975471Y1886432D01*
X4970927Y1881886D01*
X4966380Y1872795D01*
X4966380Y1854614D01*
X4970927Y1845523D01*
X4975471Y1840976D01*
X4984562Y1836432D01*
X4993652Y1836432D01*
X5002743Y1840976D01*
X5016380Y1850067D01*
X5061836Y1895523D01*
X5061836Y1831886D01*
X5220380Y2082794D02*
G01*
X5315836Y2082794D01*
X5220380Y2082794D02*
G01*
X5220380Y2041885D01*
X5224927Y2028248D01*
X5229471Y2023704D01*
X5238562Y2019157D01*
X5247652Y2019157D01*
X5256743Y2023704D01*
X5261289Y2028248D01*
X5265836Y2041885D01*
X5265836Y2082794D01*
X5265836Y2050976D02*
G01*
X5315836Y2019157D01*
X5220380Y1934613D02*
G01*
X5220380Y1980067D01*
X5261289Y1984613D01*
X5256743Y1980067D01*
X5252199Y1966432D01*
X5252199Y1952795D01*
X5256743Y1939157D01*
X5265836Y1930067D01*
X5279471Y1925523D01*
X5288561Y1925523D01*
X5302199Y1930067D01*
X5311289Y1939157D01*
X5315836Y1952795D01*
X5315836Y1966432D01*
X5311289Y1980067D01*
X5306743Y1984613D01*
X5297652Y1989157D01*
X5220380Y1886432D02*
G01*
X5220380Y1836432D01*
X5256743Y1863704D01*
X5256743Y1850067D01*
X5261289Y1840976D01*
X5265836Y1836432D01*
X5279471Y1831886D01*
X5288561Y1831886D01*
X5302199Y1836432D01*
X5311289Y1845523D01*
X5315836Y1859158D01*
X5315836Y1872795D01*
X5311289Y1886432D01*
X5306743Y1890976D01*
X5297652Y1895523D01*
X5728378Y2070094D02*
G01*
X5823833Y2070094D01*
X5728378Y2070094D02*
G01*
X5728378Y2029185D01*
X5732924Y2015548D01*
X5737468Y2011004D01*
X5746559Y2006457D01*
X5755650Y2006457D01*
X5764740Y2011004D01*
X5769287Y2015548D01*
X5773834Y2029185D01*
X5773834Y2070094D01*
X5773834Y2038276D02*
G01*
X5823833Y2006457D01*
X5728378Y1921913D02*
G01*
X5728378Y1967367D01*
X5769287Y1971913D01*
X5764740Y1967367D01*
X5760196Y1953732D01*
X5760196Y1940095D01*
X5764740Y1926457D01*
X5773834Y1917367D01*
X5787468Y1912823D01*
X5796559Y1912823D01*
X5810196Y1917367D01*
X5819287Y1926457D01*
X5823833Y1940095D01*
X5823833Y1953732D01*
X5819287Y1967367D01*
X5814740Y1971913D01*
X5805650Y1976457D01*
X5728378Y1828276D02*
G01*
X5728378Y1873732D01*
X5769287Y1878276D01*
X5764740Y1873732D01*
X5760196Y1860095D01*
X5760196Y1846458D01*
X5764740Y1832823D01*
X5773834Y1823732D01*
X5787468Y1819186D01*
X5796559Y1819186D01*
X5810196Y1823732D01*
X5819287Y1832823D01*
X5823833Y1846458D01*
X5823833Y1860095D01*
X5819287Y1873732D01*
X5814740Y1878276D01*
X5805650Y1882823D01*
X8636673Y2070094D02*
G01*
X8732128Y2070094D01*
X8636673Y2070094D02*
G01*
X8636673Y2029185D01*
X8641219Y2015548D01*
X8645763Y2011004D01*
X8654854Y2006457D01*
X8663945Y2006457D01*
X8673035Y2011004D01*
X8677582Y2015548D01*
X8682128Y2029185D01*
X8682128Y2070094D01*
X8682128Y2038276D02*
G01*
X8732128Y2006457D01*
X8650310Y1921913D02*
G01*
X8641219Y1926457D01*
X8636673Y1940095D01*
X8636673Y1949185D01*
X8641219Y1962823D01*
X8654854Y1971913D01*
X8677582Y1976457D01*
X8700310Y1976457D01*
X8718491Y1971913D01*
X8727582Y1962823D01*
X8732128Y1949185D01*
X8732128Y1944641D01*
X8727582Y1931004D01*
X8718491Y1921913D01*
X8704854Y1917367D01*
X8700310Y1917367D01*
X8686672Y1921913D01*
X8677582Y1931004D01*
X8673035Y1944641D01*
X8673035Y1949185D01*
X8677582Y1962823D01*
X8686672Y1971913D01*
X8700310Y1976457D01*
X8636673Y1878276D02*
G01*
X8636673Y1828276D01*
X8673035Y1855548D01*
X8673035Y1841914D01*
X8677582Y1832823D01*
X8682128Y1828276D01*
X8695763Y1823732D01*
X8704854Y1823732D01*
X8718491Y1828276D01*
X8727582Y1837367D01*
X8732128Y1851004D01*
X8732128Y1864641D01*
X8727582Y1878276D01*
X8723035Y1882823D01*
X8713944Y1887367D01*
X8141375Y2082794D02*
G01*
X8236831Y2082794D01*
X8141375Y2082794D02*
G01*
X8141375Y2041885D01*
X8145922Y2028248D01*
X8150466Y2023704D01*
X8159556Y2019157D01*
X8168647Y2019157D01*
X8177738Y2023704D01*
X8182284Y2028248D01*
X8186831Y2041885D01*
X8186831Y2082794D01*
X8186831Y2050976D02*
G01*
X8236831Y2019157D01*
X8155012Y1934613D02*
G01*
X8145922Y1939157D01*
X8141375Y1952795D01*
X8141375Y1961885D01*
X8145922Y1975523D01*
X8159556Y1984613D01*
X8182284Y1989157D01*
X8205012Y1989157D01*
X8223194Y1984613D01*
X8232284Y1975523D01*
X8236831Y1961885D01*
X8236831Y1957341D01*
X8232284Y1943704D01*
X8223194Y1934613D01*
X8209556Y1930067D01*
X8205012Y1930067D01*
X8191375Y1934613D01*
X8182284Y1943704D01*
X8177738Y1957341D01*
X8177738Y1961885D01*
X8182284Y1975523D01*
X8191375Y1984613D01*
X8205012Y1989157D01*
X8159556Y1900067D02*
G01*
X8155012Y1890976D01*
X8141375Y1877341D01*
X8236831Y1877341D01*
X7874675Y2082794D02*
G01*
X7970131Y2082794D01*
X7874675Y2082794D02*
G01*
X7874675Y2041885D01*
X7879222Y2028248D01*
X7883766Y2023704D01*
X7892856Y2019157D01*
X7901947Y2019157D01*
X7911038Y2023704D01*
X7915584Y2028248D01*
X7920131Y2041885D01*
X7920131Y2082794D01*
X7920131Y2050976D02*
G01*
X7970131Y2019157D01*
X7888312Y1934613D02*
G01*
X7879222Y1939157D01*
X7874675Y1952795D01*
X7874675Y1961885D01*
X7879222Y1975523D01*
X7892856Y1984613D01*
X7915584Y1989157D01*
X7938312Y1989157D01*
X7956494Y1984613D01*
X7965584Y1975523D01*
X7970131Y1961885D01*
X7970131Y1957341D01*
X7965584Y1943704D01*
X7956494Y1934613D01*
X7942856Y1930067D01*
X7938312Y1930067D01*
X7924675Y1934613D01*
X7915584Y1943704D01*
X7911038Y1957341D01*
X7911038Y1961885D01*
X7915584Y1975523D01*
X7924675Y1984613D01*
X7938312Y1989157D01*
X7874675Y1872795D02*
G01*
X7879222Y1886432D01*
X7892856Y1895523D01*
X7915584Y1900067D01*
X7929222Y1900067D01*
X7951947Y1895523D01*
X7965584Y1886432D01*
X7970131Y1872795D01*
X7970131Y1863704D01*
X7965584Y1850067D01*
X7951947Y1840976D01*
X7929222Y1836432D01*
X7915584Y1836432D01*
X7892856Y1840976D01*
X7879222Y1850067D01*
X7874675Y1863704D01*
X7874675Y1872795D01*
X7620675Y2082794D02*
G01*
X7716131Y2082794D01*
X7620675Y2082794D02*
G01*
X7620675Y2041885D01*
X7625222Y2028248D01*
X7629766Y2023704D01*
X7638856Y2019157D01*
X7647947Y2019157D01*
X7657038Y2023704D01*
X7661584Y2028248D01*
X7666131Y2041885D01*
X7666131Y2082794D01*
X7666131Y2050976D02*
G01*
X7716131Y2019157D01*
X7620675Y1934613D02*
G01*
X7620675Y1980067D01*
X7661584Y1984613D01*
X7657038Y1980067D01*
X7652494Y1966432D01*
X7652494Y1952795D01*
X7657038Y1939157D01*
X7666131Y1930067D01*
X7679766Y1925523D01*
X7688856Y1925523D01*
X7702494Y1930067D01*
X7711584Y1939157D01*
X7716131Y1952795D01*
X7716131Y1966432D01*
X7711584Y1980067D01*
X7707038Y1984613D01*
X7697947Y1989157D01*
X7652494Y1836432D02*
G01*
X7666131Y1840976D01*
X7675222Y1850067D01*
X7679766Y1863704D01*
X7679766Y1868248D01*
X7675222Y1881886D01*
X7666131Y1890976D01*
X7652494Y1895523D01*
X7647947Y1895523D01*
X7634312Y1890976D01*
X7625222Y1881886D01*
X7620675Y1868248D01*
X7620675Y1863704D01*
X7625222Y1850067D01*
X7634312Y1840976D01*
X7652494Y1836432D01*
X7675222Y1836432D01*
X7697947Y1840976D01*
X7711584Y1850067D01*
X7716131Y1863704D01*
X7716131Y1872795D01*
X7711584Y1886432D01*
X7702494Y1890976D01*
X7366675Y2082794D02*
G01*
X7462131Y2082794D01*
X7366675Y2082794D02*
G01*
X7366675Y2041885D01*
X7371222Y2028248D01*
X7375766Y2023704D01*
X7384856Y2019157D01*
X7393947Y2019157D01*
X7403038Y2023704D01*
X7407584Y2028248D01*
X7412131Y2041885D01*
X7412131Y2082794D01*
X7412131Y2050976D02*
G01*
X7462131Y2019157D01*
X7366675Y1934613D02*
G01*
X7366675Y1980067D01*
X7407584Y1984613D01*
X7403038Y1980067D01*
X7398494Y1966432D01*
X7398494Y1952795D01*
X7403038Y1939157D01*
X7412131Y1930067D01*
X7425766Y1925523D01*
X7434856Y1925523D01*
X7448494Y1930067D01*
X7457584Y1939157D01*
X7462131Y1952795D01*
X7462131Y1966432D01*
X7457584Y1980067D01*
X7453038Y1984613D01*
X7443947Y1989157D01*
X7366675Y1872795D02*
G01*
X7371222Y1886432D01*
X7380312Y1890976D01*
X7389403Y1890976D01*
X7398494Y1886432D01*
X7403038Y1877341D01*
X7407584Y1859158D01*
X7412131Y1845523D01*
X7421222Y1836432D01*
X7430312Y1831886D01*
X7443947Y1831886D01*
X7453038Y1836432D01*
X7457584Y1840976D01*
X7462131Y1854614D01*
X7462131Y1872795D01*
X7457584Y1886432D01*
X7453038Y1890976D01*
X7443947Y1895523D01*
X7430312Y1895523D01*
X7421222Y1890976D01*
X7412131Y1881886D01*
X7407584Y1868248D01*
X7403038Y1850067D01*
X7398494Y1840976D01*
X7389403Y1836432D01*
X7380312Y1836432D01*
X7371222Y1840976D01*
X7366675Y1854614D01*
X7366675Y1872795D01*
X6858678Y2082794D02*
G01*
X6954133Y2082794D01*
X6858678Y2082794D02*
G01*
X6858678Y2041885D01*
X6863224Y2028248D01*
X6867768Y2023704D01*
X6876859Y2019157D01*
X6885950Y2019157D01*
X6895040Y2023704D01*
X6899587Y2028248D01*
X6904134Y2041885D01*
X6904134Y2082794D01*
X6904134Y2050976D02*
G01*
X6954133Y2019157D01*
X6858678Y1934613D02*
G01*
X6858678Y1980067D01*
X6899587Y1984613D01*
X6895040Y1980067D01*
X6890496Y1966432D01*
X6890496Y1952795D01*
X6895040Y1939157D01*
X6904134Y1930067D01*
X6917768Y1925523D01*
X6926859Y1925523D01*
X6940496Y1930067D01*
X6949587Y1939157D01*
X6954133Y1952795D01*
X6954133Y1966432D01*
X6949587Y1980067D01*
X6945040Y1984613D01*
X6935950Y1989157D01*
X6872315Y1840976D02*
G01*
X6863224Y1845523D01*
X6858678Y1859158D01*
X6858678Y1868248D01*
X6863224Y1881886D01*
X6876859Y1890976D01*
X6899587Y1895523D01*
X6922315Y1895523D01*
X6940496Y1890976D01*
X6949587Y1881886D01*
X6954133Y1868248D01*
X6954133Y1863704D01*
X6949587Y1850067D01*
X6940496Y1840976D01*
X6926859Y1836432D01*
X6922315Y1836432D01*
X6908678Y1840976D01*
X6899587Y1850067D01*
X6895040Y1863704D01*
X6895040Y1868248D01*
X6899587Y1881886D01*
X6908678Y1890976D01*
X6922315Y1895523D01*
X7112675Y2082794D02*
G01*
X7208131Y2082794D01*
X7112675Y2082794D02*
G01*
X7112675Y2041885D01*
X7117222Y2028248D01*
X7121766Y2023704D01*
X7130856Y2019157D01*
X7139947Y2019157D01*
X7149038Y2023704D01*
X7153584Y2028248D01*
X7158131Y2041885D01*
X7158131Y2082794D01*
X7158131Y2050976D02*
G01*
X7208131Y2019157D01*
X7112675Y1934613D02*
G01*
X7112675Y1980067D01*
X7153584Y1984613D01*
X7149038Y1980067D01*
X7144494Y1966432D01*
X7144494Y1952795D01*
X7149038Y1939157D01*
X7158131Y1930067D01*
X7171766Y1925523D01*
X7180856Y1925523D01*
X7194494Y1930067D01*
X7203584Y1939157D01*
X7208131Y1952795D01*
X7208131Y1966432D01*
X7203584Y1980067D01*
X7199038Y1984613D01*
X7189947Y1989157D01*
X7112675Y1831886D02*
G01*
X7208131Y1877341D01*
X7112675Y1895523D02*
G01*
X7112675Y1831886D01*
X8382673Y2082794D02*
G01*
X8478128Y2082794D01*
X8382673Y2082794D02*
G01*
X8382673Y2041885D01*
X8387219Y2028248D01*
X8391763Y2023704D01*
X8400854Y2019157D01*
X8409945Y2019157D01*
X8419035Y2023704D01*
X8423582Y2028248D01*
X8428128Y2041885D01*
X8428128Y2082794D01*
X8428128Y2050976D02*
G01*
X8478128Y2019157D01*
X8396310Y1934613D02*
G01*
X8387219Y1939157D01*
X8382673Y1952795D01*
X8382673Y1961885D01*
X8387219Y1975523D01*
X8400854Y1984613D01*
X8423582Y1989157D01*
X8446310Y1989157D01*
X8464491Y1984613D01*
X8473582Y1975523D01*
X8478128Y1961885D01*
X8478128Y1957341D01*
X8473582Y1943704D01*
X8464491Y1934613D01*
X8450854Y1930067D01*
X8446310Y1930067D01*
X8432672Y1934613D01*
X8423582Y1943704D01*
X8419035Y1957341D01*
X8419035Y1961885D01*
X8423582Y1975523D01*
X8432672Y1984613D01*
X8446310Y1989157D01*
X8405401Y1895523D02*
G01*
X8400854Y1895523D01*
X8391763Y1890976D01*
X8387219Y1886432D01*
X8382673Y1877341D01*
X8382673Y1859158D01*
X8387219Y1850067D01*
X8391763Y1845523D01*
X8400854Y1840976D01*
X8409945Y1840976D01*
X8419035Y1845523D01*
X8432672Y1854614D01*
X8478128Y1900067D01*
X8478128Y1836432D01*
X2732740Y870877D02*
G01*
X2732740Y775421D01*
X2732740Y870877D02*
G01*
X2691831Y870877D01*
X2678193Y866330D01*
X2673649Y861786D01*
X2669103Y852695D01*
X2669103Y843605D01*
X2673649Y834514D01*
X2678193Y829967D01*
X2691831Y825421D01*
X2732740Y825421D01*
X2700921Y825421D02*
G01*
X2669103Y775421D01*
X2639103Y852695D02*
G01*
X2630012Y857239D01*
X2616377Y870877D01*
X2616377Y775421D01*
X2531831Y857239D02*
G01*
X2536377Y866330D01*
X2550012Y870877D01*
X2559103Y870877D01*
X2572740Y866330D01*
X2581831Y852695D01*
X2586377Y829967D01*
X2586377Y807239D01*
X2581831Y789058D01*
X2572740Y779967D01*
X2559103Y775421D01*
X2554559Y775421D01*
X2540922Y779967D01*
X2531831Y789058D01*
X2527287Y802695D01*
X2527287Y807239D01*
X2531831Y820877D01*
X2540922Y829967D01*
X2554559Y834514D01*
X2559103Y834514D01*
X2572740Y829967D01*
X2581831Y820877D01*
X2586377Y807239D01*
X2730494Y2145593D02*
G01*
X2730494Y2050138D01*
X2730494Y2145593D02*
G01*
X2689585Y2145593D01*
X2675948Y2141047D01*
X2671404Y2136503D01*
X2666857Y2127412D01*
X2666857Y2118321D01*
X2671404Y2109231D01*
X2675948Y2104684D01*
X2689585Y2100138D01*
X2730494Y2100138D01*
X2698676Y2100138D02*
G01*
X2666857Y2050138D01*
X2636857Y2127412D02*
G01*
X2627767Y2131956D01*
X2614132Y2145593D01*
X2614132Y2050138D01*
X2584132Y2127412D02*
G01*
X2575041Y2131956D01*
X2561404Y2145593D01*
X2561404Y2050138D01*
X2730484Y2399598D02*
G01*
X2730484Y2304143D01*
X2730484Y2399598D02*
G01*
X2689575Y2399598D01*
X2675938Y2395052D01*
X2671394Y2390508D01*
X2666847Y2381417D01*
X2666847Y2372326D01*
X2671394Y2363236D01*
X2675938Y2358689D01*
X2689575Y2354143D01*
X2730484Y2354143D01*
X2698666Y2354143D02*
G01*
X2666847Y2304143D01*
X2636847Y2381417D02*
G01*
X2627756Y2385961D01*
X2614122Y2399598D01*
X2614122Y2304143D01*
X2556847Y2399598D02*
G01*
X2570485Y2395052D01*
X2579575Y2381417D01*
X2584122Y2358689D01*
X2584122Y2345052D01*
X2579575Y2322327D01*
X2570485Y2308689D01*
X2556847Y2304143D01*
X2547757Y2304143D01*
X2534122Y2308689D01*
X2525031Y2322327D01*
X2520485Y2345052D01*
X2520485Y2358689D01*
X2525031Y2381417D01*
X2534122Y2395052D01*
X2547757Y2399598D01*
X2556847Y2399598D01*
X2730494Y1891596D02*
G01*
X2730494Y1796140D01*
X2730494Y1891596D02*
G01*
X2689585Y1891596D01*
X2675948Y1887049D01*
X2671404Y1882505D01*
X2666857Y1873415D01*
X2666857Y1864324D01*
X2671404Y1855233D01*
X2675948Y1850687D01*
X2689585Y1846140D01*
X2730494Y1846140D01*
X2698676Y1846140D02*
G01*
X2666857Y1796140D01*
X2636857Y1873415D02*
G01*
X2627767Y1877959D01*
X2614132Y1891596D01*
X2614132Y1796140D01*
X2579585Y1868868D02*
G01*
X2579585Y1873415D01*
X2575041Y1882505D01*
X2570495Y1887049D01*
X2561404Y1891596D01*
X2543223Y1891596D01*
X2534132Y1887049D01*
X2529586Y1882505D01*
X2525041Y1873415D01*
X2525041Y1864324D01*
X2529586Y1855233D01*
X2538676Y1841596D01*
X2584132Y1796140D01*
X2520495Y1796140D01*
X2730494Y1637616D02*
G01*
X2730494Y1542161D01*
X2730494Y1637616D02*
G01*
X2689585Y1637616D01*
X2675948Y1633070D01*
X2671404Y1628526D01*
X2666857Y1619435D01*
X2666857Y1610344D01*
X2671404Y1601254D01*
X2675948Y1596707D01*
X2689585Y1592160D01*
X2730494Y1592160D01*
X2698676Y1592160D02*
G01*
X2666857Y1542161D01*
X2636857Y1619435D02*
G01*
X2627767Y1623979D01*
X2614132Y1637616D01*
X2614132Y1542161D01*
X2575041Y1637616D02*
G01*
X2525041Y1637616D01*
X2552313Y1601254D01*
X2538676Y1601254D01*
X2529586Y1596707D01*
X2525041Y1592160D01*
X2520495Y1578526D01*
X2520495Y1569435D01*
X2525041Y1555798D01*
X2534132Y1546707D01*
X2547767Y1542161D01*
X2561404Y1542161D01*
X2575041Y1546707D01*
X2579585Y1551254D01*
X2584132Y1560344D01*
X2730494Y1383616D02*
G01*
X2730494Y1288161D01*
X2730494Y1383616D02*
G01*
X2689585Y1383616D01*
X2675948Y1379070D01*
X2671404Y1374526D01*
X2666857Y1365435D01*
X2666857Y1356344D01*
X2671404Y1347254D01*
X2675948Y1342707D01*
X2689585Y1338160D01*
X2730494Y1338160D01*
X2698676Y1338160D02*
G01*
X2666857Y1288161D01*
X2636857Y1365435D02*
G01*
X2627767Y1369979D01*
X2614132Y1383616D01*
X2614132Y1288161D01*
X2538676Y1383616D02*
G01*
X2584132Y1319979D01*
X2515948Y1319979D01*
X2538676Y1383616D02*
G01*
X2538676Y1288161D01*
X2730494Y1116916D02*
G01*
X2730494Y1021461D01*
X2730494Y1116916D02*
G01*
X2689585Y1116916D01*
X2675948Y1112370D01*
X2671404Y1107826D01*
X2666857Y1098735D01*
X2666857Y1089644D01*
X2671404Y1080554D01*
X2675948Y1076007D01*
X2689585Y1071460D01*
X2730494Y1071460D01*
X2698676Y1071460D02*
G01*
X2666857Y1021461D01*
X2636857Y1098735D02*
G01*
X2627767Y1103279D01*
X2614132Y1116916D01*
X2614132Y1021461D01*
X2529586Y1116916D02*
G01*
X2575041Y1116916D01*
X2579585Y1076007D01*
X2575041Y1080554D01*
X2561404Y1085098D01*
X2547767Y1085098D01*
X2534132Y1080554D01*
X2525041Y1071460D01*
X2520495Y1057826D01*
X2520495Y1048735D01*
X2525041Y1035098D01*
X2534132Y1026007D01*
X2547767Y1021461D01*
X2561404Y1021461D01*
X2575041Y1026007D01*
X2579585Y1030554D01*
X2584132Y1039644D01*
X2730484Y621604D02*
G01*
X2730484Y526148D01*
X2730484Y621604D02*
G01*
X2689575Y621604D01*
X2675938Y617057D01*
X2671394Y612513D01*
X2666847Y603422D01*
X2666847Y594332D01*
X2671394Y585241D01*
X2675938Y580694D01*
X2689575Y576148D01*
X2730484Y576148D01*
X2698666Y576148D02*
G01*
X2666847Y526148D01*
X2636847Y603422D02*
G01*
X2627756Y607966D01*
X2614122Y621604D01*
X2614122Y526148D01*
X2520485Y621604D02*
G01*
X2565938Y526148D01*
X2584122Y621604D02*
G01*
X2520485Y621604D01*
X2679684Y3529911D02*
G01*
X2679684Y3434455D01*
X2679684Y3529911D02*
G01*
X2638775Y3529911D01*
X2625138Y3525365D01*
X2620594Y3520820D01*
X2616047Y3511730D01*
X2616047Y3502639D01*
X2620594Y3493549D01*
X2625138Y3489002D01*
X2638775Y3484455D01*
X2679684Y3484455D01*
X2647866Y3484455D02*
G01*
X2616047Y3434455D01*
X2526957Y3498093D02*
G01*
X2531503Y3484455D01*
X2540594Y3475365D01*
X2554231Y3470821D01*
X2558775Y3470821D01*
X2572412Y3475365D01*
X2581503Y3484455D01*
X2586047Y3498093D01*
X2586047Y3502639D01*
X2581503Y3516274D01*
X2572412Y3525365D01*
X2558775Y3529911D01*
X2554231Y3529911D01*
X2540594Y3525365D01*
X2531503Y3516274D01*
X2526957Y3498093D01*
X2526957Y3475365D01*
X2531503Y3452639D01*
X2540594Y3439002D01*
X2554231Y3434455D01*
X2563322Y3434455D01*
X2576956Y3439002D01*
X2581503Y3448093D01*
X2679694Y4037906D02*
G01*
X2679694Y3942450D01*
X2679694Y4037906D02*
G01*
X2638785Y4037906D01*
X2625148Y4033359D01*
X2620604Y4028815D01*
X2616057Y4019725D01*
X2616057Y4010634D01*
X2620604Y4001543D01*
X2625148Y3996997D01*
X2638785Y3992450D01*
X2679694Y3992450D01*
X2647876Y3992450D02*
G01*
X2616057Y3942450D01*
X2522423Y4037906D02*
G01*
X2567876Y3942450D01*
X2586057Y4037906D02*
G01*
X2522423Y4037906D01*
X2679694Y4291906D02*
G01*
X2679694Y4196450D01*
X2679694Y4291906D02*
G01*
X2638785Y4291906D01*
X2625148Y4287359D01*
X2620604Y4282815D01*
X2616057Y4273725D01*
X2616057Y4264634D01*
X2620604Y4255543D01*
X2625148Y4250997D01*
X2638785Y4246450D01*
X2679694Y4246450D01*
X2647876Y4246450D02*
G01*
X2616057Y4196450D01*
X2531513Y4278269D02*
G01*
X2536057Y4287359D01*
X2549695Y4291906D01*
X2558785Y4291906D01*
X2572423Y4287359D01*
X2581513Y4273725D01*
X2586057Y4250997D01*
X2586057Y4228269D01*
X2581513Y4210088D01*
X2572423Y4200997D01*
X2558785Y4196450D01*
X2554241Y4196450D01*
X2540604Y4200997D01*
X2531513Y4210088D01*
X2526967Y4223725D01*
X2526967Y4228269D01*
X2531513Y4241906D01*
X2540604Y4250997D01*
X2554241Y4255543D01*
X2558785Y4255543D01*
X2572423Y4250997D01*
X2581513Y4241906D01*
X2586057Y4228269D01*
X2679694Y4545904D02*
G01*
X2679694Y4450448D01*
X2679694Y4545904D02*
G01*
X2638785Y4545904D01*
X2625148Y4541357D01*
X2620604Y4536813D01*
X2616057Y4527722D01*
X2616057Y4518632D01*
X2620604Y4509541D01*
X2625148Y4504994D01*
X2638785Y4500448D01*
X2679694Y4500448D01*
X2647876Y4500448D02*
G01*
X2616057Y4450448D01*
X2531513Y4545904D02*
G01*
X2576967Y4545904D01*
X2581513Y4504994D01*
X2576967Y4509541D01*
X2563332Y4514085D01*
X2549695Y4514085D01*
X2536057Y4509541D01*
X2526967Y4500448D01*
X2522423Y4486813D01*
X2522423Y4477722D01*
X2526967Y4464085D01*
X2536057Y4454994D01*
X2549695Y4450448D01*
X2563332Y4450448D01*
X2576967Y4454994D01*
X2581513Y4459541D01*
X2586057Y4468632D01*
X2679694Y4799909D02*
G01*
X2679694Y4704453D01*
X2679694Y4799909D02*
G01*
X2638785Y4799909D01*
X2625148Y4795362D01*
X2620604Y4790818D01*
X2616057Y4781727D01*
X2616057Y4772637D01*
X2620604Y4763546D01*
X2625148Y4758999D01*
X2638785Y4754453D01*
X2679694Y4754453D01*
X2647876Y4754453D02*
G01*
X2616057Y4704453D01*
X2540604Y4799909D02*
G01*
X2586057Y4736271D01*
X2517876Y4736271D01*
X2540604Y4799909D02*
G01*
X2540604Y4704453D01*
X2679684Y5307909D02*
G01*
X2679684Y5212453D01*
X2679684Y5307909D02*
G01*
X2638775Y5307909D01*
X2625138Y5303362D01*
X2620594Y5298818D01*
X2616047Y5289727D01*
X2616047Y5280637D01*
X2620594Y5271546D01*
X2625138Y5266999D01*
X2638775Y5262453D01*
X2679684Y5262453D01*
X2647866Y5262453D02*
G01*
X2616047Y5212453D01*
X2581503Y5285181D02*
G01*
X2581503Y5289727D01*
X2576956Y5298818D01*
X2572412Y5303362D01*
X2563322Y5307909D01*
X2545138Y5307909D01*
X2536047Y5303362D01*
X2531503Y5298818D01*
X2526957Y5289727D01*
X2526957Y5280637D01*
X2531503Y5271546D01*
X2540594Y5257909D01*
X2586047Y5212453D01*
X2522413Y5212453D01*
X2679694Y5053909D02*
G01*
X2679694Y4958453D01*
X2679694Y5053909D02*
G01*
X2638785Y5053909D01*
X2625148Y5049362D01*
X2620604Y5044818D01*
X2616057Y5035727D01*
X2616057Y5026637D01*
X2620604Y5017546D01*
X2625148Y5012999D01*
X2638785Y5008453D01*
X2679694Y5008453D01*
X2647876Y5008453D02*
G01*
X2616057Y4958453D01*
X2576967Y5053909D02*
G01*
X2526967Y5053909D01*
X2554241Y5017546D01*
X2540604Y5017546D01*
X2531513Y5012999D01*
X2526967Y5008453D01*
X2522423Y4994818D01*
X2522423Y4985727D01*
X2526967Y4972090D01*
X2536057Y4962999D01*
X2549695Y4958453D01*
X2563332Y4958453D01*
X2576967Y4962999D01*
X2581513Y4967546D01*
X2586057Y4976637D01*
X2679694Y3783911D02*
G01*
X2679694Y3688455D01*
X2679694Y3783911D02*
G01*
X2638785Y3783911D01*
X2625148Y3779365D01*
X2620604Y3774820D01*
X2616057Y3765730D01*
X2616057Y3756639D01*
X2620604Y3747549D01*
X2625148Y3743002D01*
X2638785Y3738455D01*
X2679694Y3738455D01*
X2647876Y3738455D02*
G01*
X2616057Y3688455D01*
X2563332Y3783911D02*
G01*
X2576967Y3779365D01*
X2581513Y3770274D01*
X2581513Y3761183D01*
X2576967Y3752093D01*
X2567876Y3747549D01*
X2549695Y3743002D01*
X2536057Y3738455D01*
X2526967Y3729365D01*
X2522423Y3720274D01*
X2522423Y3706639D01*
X2526967Y3697549D01*
X2531513Y3693002D01*
X2545148Y3688455D01*
X2563332Y3688455D01*
X2576967Y3693002D01*
X2581513Y3697549D01*
X2586057Y3706639D01*
X2586057Y3720274D01*
X2581513Y3729365D01*
X2572423Y3738455D01*
X2558785Y3743002D01*
X2540604Y3747549D01*
X2531513Y3752093D01*
X2526967Y3761183D01*
X2526967Y3770274D01*
X2531513Y3779365D01*
X2545148Y3783911D01*
X2563332Y3783911D01*
X10617174Y2566606D02*
G01*
X10617174Y2471150D01*
X10617174Y2566606D02*
G01*
X10576265Y2566606D01*
X10562628Y2562059D01*
X10558084Y2557515D01*
X10553537Y2548425D01*
X10553537Y2539334D01*
X10558084Y2530243D01*
X10562628Y2525697D01*
X10576265Y2521150D01*
X10617174Y2521150D01*
X10585356Y2521150D02*
G01*
X10553537Y2471150D01*
X10478084Y2566606D02*
G01*
X10523537Y2502969D01*
X10455356Y2502969D01*
X10478084Y2566606D02*
G01*
X10478084Y2471150D01*
X10398084Y2566606D02*
G01*
X10411721Y2562059D01*
X10420812Y2548425D01*
X10425356Y2525697D01*
X10425356Y2512060D01*
X10420812Y2489334D01*
X10411721Y2475697D01*
X10398084Y2471150D01*
X10388993Y2471150D01*
X10375356Y2475697D01*
X10366265Y2489334D01*
X10361721Y2512060D01*
X10361721Y2525697D01*
X10366265Y2548425D01*
X10375356Y2562059D01*
X10388993Y2566606D01*
X10398084Y2566606D01*
X10629879Y443809D02*
G01*
X10629879Y348353D01*
X10629879Y443809D02*
G01*
X10588970Y443809D01*
X10575333Y439262D01*
X10570789Y434718D01*
X10566242Y425627D01*
X10566242Y416537D01*
X10570789Y407446D01*
X10575333Y402899D01*
X10588970Y398353D01*
X10629879Y398353D01*
X10598061Y398353D02*
G01*
X10566242Y348353D01*
X10490789Y443809D02*
G01*
X10536242Y380171D01*
X10468061Y380171D01*
X10490789Y443809D02*
G01*
X10490789Y348353D01*
X10374426Y443809D02*
G01*
X10419880Y348353D01*
X10438061Y443809D02*
G01*
X10374426Y443809D01*
X10604474Y3354006D02*
G01*
X10604474Y3258550D01*
X10604474Y3354006D02*
G01*
X10563565Y3354006D01*
X10549928Y3349459D01*
X10545384Y3344915D01*
X10540837Y3335825D01*
X10540837Y3326734D01*
X10545384Y3317643D01*
X10549928Y3313097D01*
X10563565Y3308550D01*
X10604474Y3308550D01*
X10572656Y3308550D02*
G01*
X10540837Y3258550D01*
X10501746Y3354006D02*
G01*
X10451746Y3354006D01*
X10479021Y3317643D01*
X10465384Y3317643D01*
X10456293Y3313097D01*
X10451746Y3308550D01*
X10447202Y3294915D01*
X10447202Y3285825D01*
X10451746Y3272188D01*
X10460837Y3263097D01*
X10474474Y3258550D01*
X10488112Y3258550D01*
X10501746Y3263097D01*
X10506293Y3267643D01*
X10510837Y3276734D01*
X10358112Y3322187D02*
G01*
X10362656Y3308550D01*
X10371747Y3299460D01*
X10385384Y3294915D01*
X10389928Y3294915D01*
X10403565Y3299460D01*
X10412656Y3308550D01*
X10417202Y3322187D01*
X10417202Y3326734D01*
X10412656Y3340369D01*
X10403565Y3349459D01*
X10389928Y3354006D01*
X10385384Y3354006D01*
X10371747Y3349459D01*
X10362656Y3340369D01*
X10358112Y3322187D01*
X10358112Y3299460D01*
X10362656Y3276734D01*
X10371747Y3263097D01*
X10385384Y3258550D01*
X10394475Y3258550D01*
X10408112Y3263097D01*
X10412656Y3272188D01*
X10629879Y5472998D02*
G01*
X10629879Y5377543D01*
X10629879Y5472998D02*
G01*
X10588970Y5472998D01*
X10575333Y5468452D01*
X10570789Y5463908D01*
X10566242Y5454817D01*
X10566242Y5445726D01*
X10570789Y5436636D01*
X10575333Y5432089D01*
X10588970Y5427543D01*
X10629879Y5427543D01*
X10598061Y5427543D02*
G01*
X10566242Y5377543D01*
X10527151Y5472998D02*
G01*
X10477152Y5472998D01*
X10504426Y5436636D01*
X10490789Y5436636D01*
X10481698Y5432089D01*
X10477152Y5427543D01*
X10472607Y5413908D01*
X10472607Y5404817D01*
X10477152Y5391180D01*
X10486242Y5382089D01*
X10499879Y5377543D01*
X10513517Y5377543D01*
X10527151Y5382089D01*
X10531698Y5386636D01*
X10536242Y5395727D01*
X10438061Y5450271D02*
G01*
X10438061Y5454817D01*
X10433517Y5463908D01*
X10428970Y5468452D01*
X10419880Y5472998D01*
X10401698Y5472998D01*
X10392608Y5468452D01*
X10388061Y5463908D01*
X10383517Y5454817D01*
X10383517Y5445726D01*
X10388061Y5436636D01*
X10397152Y5422999D01*
X10442608Y5377543D01*
X10378970Y5377543D01*
D12*
X10173378Y2846671D02*
G01*
X10173378Y2766669D01*
X10284353Y2877657D02*
G01*
X10204358Y2877657D01*
X10284353Y2735691D02*
G01*
X10204358Y2735691D01*
X10341945Y2878239D02*
G01*
X10421940Y2878239D01*
X10452925Y2847256D02*
G01*
X10452925Y2767258D01*
X10341945Y2736278D02*
G01*
X10421940Y2736278D01*
X10173378Y5754964D02*
G01*
X10173378Y5674961D01*
X10284353Y5785949D02*
G01*
X10204358Y5785949D01*
X10284353Y5643984D02*
G01*
X10204358Y5643984D01*
X10341945Y5786531D02*
G01*
X10421940Y5786531D01*
X10452925Y5755548D02*
G01*
X10452925Y5675551D01*
X10341945Y5644570D02*
G01*
X10421940Y5644570D01*
X5103512Y3797990D02*
G01*
X5183515Y3797990D01*
X5072527Y3908966D02*
G01*
X5072527Y3828968D01*
X5214493Y3908966D02*
G01*
X5214493Y3828968D01*
X5071945Y3966555D02*
G01*
X5071945Y4046552D01*
X5102928Y4077538D02*
G01*
X5182925Y4077538D01*
X5213906Y3966555D02*
G01*
X5213906Y4046552D01*
X5841291Y2792117D02*
G01*
X5841291Y2872120D01*
X5730316Y2761132D02*
G01*
X5810313Y2761132D01*
X5730316Y2903098D02*
G01*
X5810313Y2903098D01*
X5672726Y2760550D02*
G01*
X5592729Y2760550D01*
X5561744Y2791533D02*
G01*
X5561744Y2871530D01*
X5672726Y2902511D02*
G01*
X5592729Y2902511D01*
X7788358Y3651379D02*
G01*
X7788358Y3811384D01*
X7478301Y3651890D02*
G01*
X7478301Y3811894D01*
X7663362Y3811384D02*
G01*
X7788358Y3811384D01*
X7663362Y3651379D02*
G01*
X7788358Y3651379D01*
X7603304Y3811894D02*
G01*
X7478301Y3811894D01*
X7603304Y3651890D02*
G01*
X7478301Y3651890D01*
X7788358Y3905379D02*
G01*
X7788358Y4065384D01*
X7478301Y3905890D02*
G01*
X7478301Y4065894D01*
X7663362Y4065384D02*
G01*
X7788358Y4065384D01*
X7663362Y3905379D02*
G01*
X7788358Y3905379D01*
X7603304Y4065894D02*
G01*
X7478301Y4065894D01*
X7603304Y3905890D02*
G01*
X7478301Y3905890D01*
X7788358Y4159379D02*
G01*
X7788358Y4319384D01*
X7478301Y4159890D02*
G01*
X7478301Y4319894D01*
X7663362Y4319384D02*
G01*
X7788358Y4319384D01*
X7663362Y4159379D02*
G01*
X7788358Y4159379D01*
X7603304Y4319894D02*
G01*
X7478301Y4319894D01*
X7603304Y4159890D02*
G01*
X7478301Y4159890D01*
X7788358Y4413379D02*
G01*
X7788358Y4573384D01*
X7478301Y4413890D02*
G01*
X7478301Y4573894D01*
X7663362Y4573384D02*
G01*
X7788358Y4573384D01*
X7663362Y4413379D02*
G01*
X7788358Y4413379D01*
X7603304Y4573894D02*
G01*
X7478301Y4573894D01*
X7603304Y4413890D02*
G01*
X7478301Y4413890D01*
X7788358Y4667379D02*
G01*
X7788358Y4827384D01*
X7478301Y4667890D02*
G01*
X7478301Y4827894D01*
X7663362Y4827384D02*
G01*
X7788358Y4827384D01*
X7663362Y4667379D02*
G01*
X7788358Y4667379D01*
X7603304Y4827894D02*
G01*
X7478301Y4827894D01*
X7603304Y4667890D02*
G01*
X7478301Y4667890D01*
X7788358Y4921379D02*
G01*
X7788358Y5081384D01*
X7478301Y4921890D02*
G01*
X7478301Y5081894D01*
X7663362Y5081384D02*
G01*
X7788358Y5081384D01*
X7663362Y4921379D02*
G01*
X7788358Y4921379D01*
X7603304Y5081894D02*
G01*
X7478301Y5081894D01*
X7603304Y4921890D02*
G01*
X7478301Y4921890D01*
X7478234Y5336405D02*
G01*
X7478234Y5176400D01*
X7788292Y5335894D02*
G01*
X7788292Y5175890D01*
X7603230Y5176400D02*
G01*
X7478234Y5176400D01*
X7603230Y5336405D02*
G01*
X7478234Y5336405D01*
X7663289Y5175890D02*
G01*
X7788292Y5175890D01*
X7663289Y5335894D02*
G01*
X7788292Y5335894D01*
X4208274Y3811907D02*
G01*
X4333278Y3811907D01*
X4023220Y3812418D02*
G01*
X4023220Y3652413D01*
X4333278Y3811907D02*
G01*
X4333278Y3651902D01*
X4148216Y3652413D02*
G01*
X4023220Y3652413D01*
X4148216Y3812418D02*
G01*
X4023220Y3812418D01*
X4208274Y3651902D02*
G01*
X4333278Y3651902D01*
X4208274Y5081907D02*
G01*
X4333278Y5081907D01*
X4023220Y5082418D02*
G01*
X4023220Y4922413D01*
X4333278Y5081907D02*
G01*
X4333278Y4921902D01*
X4148216Y4922413D02*
G01*
X4023220Y4922413D01*
X4148216Y5082418D02*
G01*
X4023220Y5082418D01*
X4208274Y4921902D02*
G01*
X4333278Y4921902D01*
X4148289Y5175902D02*
G01*
X4023286Y5175902D01*
X4333344Y5175392D02*
G01*
X4333344Y5335396D01*
X4023286Y5175902D02*
G01*
X4023286Y5335907D01*
X4208348Y5335396D02*
G01*
X4333344Y5335396D01*
X4208348Y5175392D02*
G01*
X4333344Y5175392D01*
X4148289Y5335907D02*
G01*
X4023286Y5335907D01*
X4208274Y4827907D02*
G01*
X4333278Y4827907D01*
X4023220Y4828418D02*
G01*
X4023220Y4668413D01*
X4333278Y4827907D02*
G01*
X4333278Y4667902D01*
X4148216Y4668413D02*
G01*
X4023220Y4668413D01*
X4148216Y4828418D02*
G01*
X4023220Y4828418D01*
X4208274Y4667902D02*
G01*
X4333278Y4667902D01*
X4208274Y4573910D02*
G01*
X4333278Y4573910D01*
X4023220Y4574420D02*
G01*
X4023220Y4414415D01*
X4333278Y4573910D02*
G01*
X4333278Y4413905D01*
X4148216Y4414415D02*
G01*
X4023220Y4414415D01*
X4148216Y4574420D02*
G01*
X4023220Y4574420D01*
X4208274Y4413905D02*
G01*
X4333278Y4413905D01*
X4208274Y4319910D02*
G01*
X4333278Y4319910D01*
X4023220Y4320420D02*
G01*
X4023220Y4160415D01*
X4333278Y4319910D02*
G01*
X4333278Y4159905D01*
X4148216Y4160415D02*
G01*
X4023220Y4160415D01*
X4148216Y4320420D02*
G01*
X4023220Y4320420D01*
X4208274Y4159905D02*
G01*
X4333278Y4159905D01*
X4208274Y4065910D02*
G01*
X4333278Y4065910D01*
X4023220Y4066420D02*
G01*
X4023220Y3906415D01*
X4333278Y4065910D02*
G01*
X4333278Y3905905D01*
X4148216Y3906415D02*
G01*
X4023220Y3906415D01*
X4148216Y4066420D02*
G01*
X4023220Y4066420D01*
X4208274Y3905905D02*
G01*
X4333278Y3905905D01*
X5444121Y1630212D02*
G01*
X5444121Y1755213D01*
X5443611Y1445155D02*
G01*
X5603615Y1445155D01*
X5444121Y1755213D02*
G01*
X5604126Y1755213D01*
X5603615Y1570151D02*
G01*
X5603615Y1445155D01*
X5443611Y1570151D02*
G01*
X5443611Y1445155D01*
X5604126Y1630212D02*
G01*
X5604126Y1755213D01*
X4174121Y1630212D02*
G01*
X4174121Y1755213D01*
X4173611Y1445155D02*
G01*
X4333615Y1445155D01*
X4174121Y1755213D02*
G01*
X4334126Y1755213D01*
X4333615Y1570151D02*
G01*
X4333615Y1445155D01*
X4173611Y1570151D02*
G01*
X4173611Y1445155D01*
X4334126Y1630212D02*
G01*
X4334126Y1755213D01*
X4080126Y1570222D02*
G01*
X4080126Y1445221D01*
X4080636Y1755279D02*
G01*
X3920632Y1755279D01*
X4080126Y1445221D02*
G01*
X3920121Y1445221D01*
X3920632Y1630283D02*
G01*
X3920632Y1755279D01*
X4080636Y1630283D02*
G01*
X4080636Y1755279D01*
X3920121Y1570222D02*
G01*
X3920121Y1445221D01*
X4428121Y1630212D02*
G01*
X4428121Y1755213D01*
X4427611Y1445155D02*
G01*
X4587615Y1445155D01*
X4428121Y1755213D02*
G01*
X4588126Y1755213D01*
X4587615Y1570151D02*
G01*
X4587615Y1445155D01*
X4427611Y1570151D02*
G01*
X4427611Y1445155D01*
X4588126Y1630212D02*
G01*
X4588126Y1755213D01*
X4682119Y1630212D02*
G01*
X4682119Y1755213D01*
X4681608Y1445155D02*
G01*
X4841613Y1445155D01*
X4682119Y1755213D02*
G01*
X4842123Y1755213D01*
X4841613Y1570151D02*
G01*
X4841613Y1445155D01*
X4681608Y1570151D02*
G01*
X4681608Y1445155D01*
X4842123Y1630212D02*
G01*
X4842123Y1755213D01*
X4936119Y1630212D02*
G01*
X4936119Y1755213D01*
X4935608Y1445155D02*
G01*
X5095613Y1445155D01*
X4936119Y1755213D02*
G01*
X5096123Y1755213D01*
X5095613Y1570151D02*
G01*
X5095613Y1445155D01*
X4935608Y1570151D02*
G01*
X4935608Y1445155D01*
X5096123Y1630212D02*
G01*
X5096123Y1755213D01*
X5190119Y1630212D02*
G01*
X5190119Y1755213D01*
X5189608Y1445155D02*
G01*
X5349613Y1445155D01*
X5190119Y1755213D02*
G01*
X5350123Y1755213D01*
X5349613Y1570151D02*
G01*
X5349613Y1445155D01*
X5189608Y1570151D02*
G01*
X5189608Y1445155D01*
X5350123Y1630212D02*
G01*
X5350123Y1755213D01*
X5858123Y1570222D02*
G01*
X5858123Y1445221D01*
X5858634Y1755279D02*
G01*
X5698629Y1755279D01*
X5858123Y1445221D02*
G01*
X5698119Y1445221D01*
X5698629Y1630283D02*
G01*
X5698629Y1755279D01*
X5858634Y1630283D02*
G01*
X5858634Y1755279D01*
X5698119Y1570222D02*
G01*
X5698119Y1445221D01*
X8767325Y1755279D02*
G01*
X8607320Y1755279D01*
X8766815Y1445221D02*
G01*
X8606810Y1445221D01*
X8607320Y1630283D02*
G01*
X8607320Y1755279D01*
X8767325Y1630283D02*
G01*
X8767325Y1755279D01*
X8606810Y1570222D02*
G01*
X8606810Y1445221D01*
X8766815Y1570222D02*
G01*
X8766815Y1445221D01*
X8098299Y1445155D02*
G01*
X8258304Y1445155D01*
X8098810Y1755213D02*
G01*
X8258815Y1755213D01*
X8258304Y1570151D02*
G01*
X8258304Y1445155D01*
X8098299Y1570151D02*
G01*
X8098299Y1445155D01*
X8258815Y1630212D02*
G01*
X8258815Y1755213D01*
X8098810Y1630212D02*
G01*
X8098810Y1755213D01*
X7844299Y1445155D02*
G01*
X8004304Y1445155D01*
X7844810Y1755213D02*
G01*
X8004815Y1755213D01*
X8004304Y1570151D02*
G01*
X8004304Y1445155D01*
X7844299Y1570151D02*
G01*
X7844299Y1445155D01*
X8004815Y1630212D02*
G01*
X8004815Y1755213D01*
X7844810Y1630212D02*
G01*
X7844810Y1755213D01*
X7590299Y1445155D02*
G01*
X7750304Y1445155D01*
X7590810Y1755213D02*
G01*
X7750815Y1755213D01*
X7750304Y1570151D02*
G01*
X7750304Y1445155D01*
X7590299Y1570151D02*
G01*
X7590299Y1445155D01*
X7750815Y1630212D02*
G01*
X7750815Y1755213D01*
X7590810Y1630212D02*
G01*
X7590810Y1755213D01*
X7336302Y1445155D02*
G01*
X7496307Y1445155D01*
X7336812Y1755213D02*
G01*
X7496817Y1755213D01*
X7496307Y1570151D02*
G01*
X7496307Y1445155D01*
X7336302Y1570151D02*
G01*
X7336302Y1445155D01*
X7496817Y1630212D02*
G01*
X7496817Y1755213D01*
X7336812Y1630212D02*
G01*
X7336812Y1755213D01*
X6989328Y1755279D02*
G01*
X6829323Y1755279D01*
X6988817Y1445221D02*
G01*
X6828812Y1445221D01*
X6829323Y1630283D02*
G01*
X6829323Y1755279D01*
X6989328Y1630283D02*
G01*
X6989328Y1755279D01*
X6828812Y1570222D02*
G01*
X6828812Y1445221D01*
X6988817Y1570222D02*
G01*
X6988817Y1445221D01*
X7082302Y1445155D02*
G01*
X7242307Y1445155D01*
X7082812Y1755213D02*
G01*
X7242817Y1755213D01*
X7242307Y1570151D02*
G01*
X7242307Y1445155D01*
X7082302Y1570151D02*
G01*
X7082302Y1445155D01*
X7242817Y1630212D02*
G01*
X7242817Y1755213D01*
X7082812Y1630212D02*
G01*
X7082812Y1755213D01*
X8352302Y1445155D02*
G01*
X8512307Y1445155D01*
X8352812Y1755213D02*
G01*
X8512817Y1755213D01*
X8512307Y1570151D02*
G01*
X8512307Y1445155D01*
X8352302Y1570151D02*
G01*
X8352302Y1445155D01*
X8512817Y1630212D02*
G01*
X8512817Y1755213D01*
X8352812Y1630212D02*
G01*
X8352812Y1755213D01*
X2169033Y904110D02*
G01*
X2169033Y744105D01*
X2479090Y903599D02*
G01*
X2479090Y743595D01*
X2294028Y744105D02*
G01*
X2169033Y744105D01*
X2294028Y904110D02*
G01*
X2169033Y904110D01*
X2354089Y743595D02*
G01*
X2479090Y743595D01*
X2354089Y903599D02*
G01*
X2479090Y903599D01*
X2169033Y2174110D02*
G01*
X2169033Y2014105D01*
X2479090Y2173599D02*
G01*
X2479090Y2013595D01*
X2294028Y2014105D02*
G01*
X2169033Y2014105D01*
X2294028Y2174110D02*
G01*
X2169033Y2174110D01*
X2354089Y2013595D02*
G01*
X2479090Y2013595D01*
X2354089Y2173599D02*
G01*
X2479090Y2173599D01*
X2479156Y2267084D02*
G01*
X2479156Y2427089D01*
X2169099Y2267595D02*
G01*
X2169099Y2427599D01*
X2354160Y2427089D02*
G01*
X2479156Y2427089D01*
X2354160Y2267084D02*
G01*
X2479156Y2267084D01*
X2294100Y2427599D02*
G01*
X2169099Y2427599D01*
X2294100Y2267595D02*
G01*
X2169099Y2267595D01*
X2169033Y1920110D02*
G01*
X2169033Y1760105D01*
X2479090Y1919599D02*
G01*
X2479090Y1759595D01*
X2294028Y1760105D02*
G01*
X2169033Y1760105D01*
X2294028Y1920110D02*
G01*
X2169033Y1920110D01*
X2354089Y1759595D02*
G01*
X2479090Y1759595D01*
X2354089Y1919599D02*
G01*
X2479090Y1919599D01*
X2169033Y1666112D02*
G01*
X2169033Y1506108D01*
X2479090Y1665602D02*
G01*
X2479090Y1505597D01*
X2294028Y1506108D02*
G01*
X2169033Y1506108D01*
X2294028Y1666112D02*
G01*
X2169033Y1666112D01*
X2354089Y1505597D02*
G01*
X2479090Y1505597D01*
X2354089Y1665602D02*
G01*
X2479090Y1665602D01*
X2169033Y1412112D02*
G01*
X2169033Y1252108D01*
X2479090Y1411602D02*
G01*
X2479090Y1251597D01*
X2294028Y1252108D02*
G01*
X2169033Y1252108D01*
X2294028Y1412112D02*
G01*
X2169033Y1412112D01*
X2354089Y1251597D02*
G01*
X2479090Y1251597D01*
X2354089Y1411602D02*
G01*
X2479090Y1411602D01*
X2169033Y1158112D02*
G01*
X2169033Y998108D01*
X2479090Y1157602D02*
G01*
X2479090Y997597D01*
X2294028Y998108D02*
G01*
X2169033Y998108D01*
X2294028Y1158112D02*
G01*
X2169033Y1158112D01*
X2354089Y997597D02*
G01*
X2479090Y997597D01*
X2354089Y1157602D02*
G01*
X2479090Y1157602D01*
X2479156Y489087D02*
G01*
X2479156Y649091D01*
X2169099Y489597D02*
G01*
X2169099Y649602D01*
X2354160Y649091D02*
G01*
X2479156Y649091D01*
X2354160Y489087D02*
G01*
X2479156Y489087D01*
X2294100Y649602D02*
G01*
X2169099Y649602D01*
X2294100Y489597D02*
G01*
X2169099Y489597D01*
X2294100Y3398288D02*
G01*
X2169099Y3398288D01*
X2479156Y3397778D02*
G01*
X2479156Y3557783D01*
X2169099Y3398288D02*
G01*
X2169099Y3558293D01*
X2354160Y3557783D02*
G01*
X2479156Y3557783D01*
X2354160Y3397778D02*
G01*
X2479156Y3397778D01*
X2294100Y3558293D02*
G01*
X2169099Y3558293D01*
X2354089Y4066293D02*
G01*
X2479090Y4066293D01*
X2169033Y4066804D02*
G01*
X2169033Y3906799D01*
X2479090Y4066293D02*
G01*
X2479090Y3906288D01*
X2294028Y3906799D02*
G01*
X2169033Y3906799D01*
X2294028Y4066804D02*
G01*
X2169033Y4066804D01*
X2354089Y3906288D02*
G01*
X2479090Y3906288D01*
X2354089Y4320293D02*
G01*
X2479090Y4320293D01*
X2169033Y4320804D02*
G01*
X2169033Y4160799D01*
X2479090Y4320293D02*
G01*
X2479090Y4160288D01*
X2294028Y4160799D02*
G01*
X2169033Y4160799D01*
X2294028Y4320804D02*
G01*
X2169033Y4320804D01*
X2354089Y4160288D02*
G01*
X2479090Y4160288D01*
X2354089Y4574293D02*
G01*
X2479090Y4574293D01*
X2169033Y4574804D02*
G01*
X2169033Y4414799D01*
X2479090Y4574293D02*
G01*
X2479090Y4414288D01*
X2294028Y4414799D02*
G01*
X2169033Y4414799D01*
X2294028Y4574804D02*
G01*
X2169033Y4574804D01*
X2354089Y4414288D02*
G01*
X2479090Y4414288D01*
X2354089Y4828291D02*
G01*
X2479090Y4828291D01*
X2169033Y4828801D02*
G01*
X2169033Y4668796D01*
X2479090Y4828291D02*
G01*
X2479090Y4668286D01*
X2294028Y4668796D02*
G01*
X2169033Y4668796D01*
X2294028Y4828801D02*
G01*
X2169033Y4828801D01*
X2354089Y4668286D02*
G01*
X2479090Y4668286D01*
X2294100Y5176286D02*
G01*
X2169099Y5176286D01*
X2479156Y5175775D02*
G01*
X2479156Y5335780D01*
X2169099Y5176286D02*
G01*
X2169099Y5336291D01*
X2354160Y5335780D02*
G01*
X2479156Y5335780D01*
X2354160Y5175775D02*
G01*
X2479156Y5175775D01*
X2294100Y5336291D02*
G01*
X2169099Y5336291D01*
X2354089Y5082291D02*
G01*
X2479090Y5082291D01*
X2169033Y5082801D02*
G01*
X2169033Y4922796D01*
X2479090Y5082291D02*
G01*
X2479090Y4922286D01*
X2294028Y4922796D02*
G01*
X2169033Y4922796D01*
X2294028Y5082801D02*
G01*
X2169033Y5082801D01*
X2354089Y4922286D02*
G01*
X2479090Y4922286D01*
X2354089Y3812291D02*
G01*
X2479090Y3812291D01*
X2169033Y3812801D02*
G01*
X2169033Y3652796D01*
X2479090Y3812291D02*
G01*
X2479090Y3652286D01*
X2294028Y3652796D02*
G01*
X2169033Y3652796D01*
X2294028Y3812801D02*
G01*
X2169033Y3812801D01*
X2354089Y3652286D02*
G01*
X2479090Y3652286D01*
X10347817Y2430007D02*
G01*
X10347817Y2270003D01*
X10657875Y2429497D02*
G01*
X10657875Y2269492D01*
X10472813Y2270003D02*
G01*
X10347817Y2270003D01*
X10472813Y2430007D02*
G01*
X10347817Y2430007D01*
X10532872Y2269492D02*
G01*
X10657875Y2269492D01*
X10532872Y2429497D02*
G01*
X10657875Y2429497D01*
X10657941Y2014981D02*
G01*
X10657941Y2174986D01*
X10347883Y2015492D02*
G01*
X10347883Y2175497D01*
X10532945Y2174986D02*
G01*
X10657941Y2174986D01*
X10532945Y2014981D02*
G01*
X10657941Y2014981D01*
X10472887Y2175497D02*
G01*
X10347883Y2175497D01*
X10472887Y2015492D02*
G01*
X10347883Y2015492D01*
X10657941Y1760984D02*
G01*
X10657941Y1920989D01*
X10347883Y1761495D02*
G01*
X10347883Y1921499D01*
X10532945Y1920989D02*
G01*
X10657941Y1920989D01*
X10532945Y1760984D02*
G01*
X10657941Y1760984D01*
X10472887Y1921499D02*
G01*
X10347883Y1921499D01*
X10472887Y1761495D02*
G01*
X10347883Y1761495D01*
X10657941Y1506984D02*
G01*
X10657941Y1666989D01*
X10347883Y1507495D02*
G01*
X10347883Y1667499D01*
X10532945Y1666989D02*
G01*
X10657941Y1666989D01*
X10532945Y1506984D02*
G01*
X10657941Y1506984D01*
X10472887Y1667499D02*
G01*
X10347883Y1667499D01*
X10472887Y1507495D02*
G01*
X10347883Y1507495D01*
X10657941Y1252984D02*
G01*
X10657941Y1412989D01*
X10347883Y1253495D02*
G01*
X10347883Y1413499D01*
X10532945Y1412989D02*
G01*
X10657941Y1412989D01*
X10532945Y1252984D02*
G01*
X10657941Y1252984D01*
X10472887Y1413499D02*
G01*
X10347883Y1413499D01*
X10472887Y1253495D02*
G01*
X10347883Y1253495D01*
X10657941Y998984D02*
G01*
X10657941Y1158989D01*
X10347883Y999495D02*
G01*
X10347883Y1159499D01*
X10532945Y1158989D02*
G01*
X10657941Y1158989D01*
X10532945Y998984D02*
G01*
X10657941Y998984D01*
X10472887Y1159499D02*
G01*
X10347883Y1159499D01*
X10472887Y999495D02*
G01*
X10347883Y999495D01*
X10657941Y744984D02*
G01*
X10657941Y904989D01*
X10347883Y745495D02*
G01*
X10347883Y905499D01*
X10532945Y904989D02*
G01*
X10657941Y904989D01*
X10532945Y744984D02*
G01*
X10657941Y744984D01*
X10472887Y905499D02*
G01*
X10347883Y905499D01*
X10472887Y745495D02*
G01*
X10347883Y745495D01*
X10347817Y652012D02*
G01*
X10347817Y492008D01*
X10657875Y651502D02*
G01*
X10657875Y491497D01*
X10472813Y492008D02*
G01*
X10347817Y492008D01*
X10472813Y652012D02*
G01*
X10347817Y652012D01*
X10532872Y491497D02*
G01*
X10657875Y491497D01*
X10532872Y651502D02*
G01*
X10657875Y651502D01*
X10347817Y3560305D02*
G01*
X10347817Y3400300D01*
X10657875Y3559794D02*
G01*
X10657875Y3399789D01*
X10472813Y3400300D02*
G01*
X10347817Y3400300D01*
X10472813Y3560305D02*
G01*
X10347817Y3560305D01*
X10532872Y3399789D02*
G01*
X10657875Y3399789D01*
X10532872Y3559794D02*
G01*
X10657875Y3559794D01*
X10657941Y3653279D02*
G01*
X10657941Y3813284D01*
X10347883Y3653789D02*
G01*
X10347883Y3813794D01*
X10532945Y3813284D02*
G01*
X10657941Y3813284D01*
X10532945Y3653279D02*
G01*
X10657941Y3653279D01*
X10472887Y3813794D02*
G01*
X10347883Y3813794D01*
X10472887Y3653789D02*
G01*
X10347883Y3653789D01*
X10657941Y3907279D02*
G01*
X10657941Y4067284D01*
X10347883Y3907789D02*
G01*
X10347883Y4067794D01*
X10532945Y4067284D02*
G01*
X10657941Y4067284D01*
X10532945Y3907279D02*
G01*
X10657941Y3907279D01*
X10472887Y4067794D02*
G01*
X10347883Y4067794D01*
X10472887Y3907789D02*
G01*
X10347883Y3907789D01*
X10657941Y4161279D02*
G01*
X10657941Y4321284D01*
X10347883Y4161789D02*
G01*
X10347883Y4321794D01*
X10532945Y4321284D02*
G01*
X10657941Y4321284D01*
X10532945Y4161279D02*
G01*
X10657941Y4161279D01*
X10472887Y4321794D02*
G01*
X10347883Y4321794D01*
X10472887Y4161789D02*
G01*
X10347883Y4161789D01*
X10657941Y4415276D02*
G01*
X10657941Y4575281D01*
X10347883Y4415787D02*
G01*
X10347883Y4575792D01*
X10532945Y4575281D02*
G01*
X10657941Y4575281D01*
X10532945Y4415276D02*
G01*
X10657941Y4415276D01*
X10472887Y4575792D02*
G01*
X10347883Y4575792D01*
X10472887Y4415787D02*
G01*
X10347883Y4415787D01*
X10657941Y4669276D02*
G01*
X10657941Y4829281D01*
X10347883Y4669787D02*
G01*
X10347883Y4829792D01*
X10532945Y4829281D02*
G01*
X10657941Y4829281D01*
X10532945Y4669276D02*
G01*
X10657941Y4669276D01*
X10472887Y4829792D02*
G01*
X10347883Y4829792D01*
X10472887Y4669787D02*
G01*
X10347883Y4669787D01*
X10657941Y4923276D02*
G01*
X10657941Y5083281D01*
X10347883Y4923787D02*
G01*
X10347883Y5083792D01*
X10532945Y5083281D02*
G01*
X10657941Y5083281D01*
X10532945Y4923276D02*
G01*
X10657941Y4923276D01*
X10472887Y5083792D02*
G01*
X10347883Y5083792D01*
X10472887Y4923787D02*
G01*
X10347883Y4923787D01*
X10347817Y5338302D02*
G01*
X10347817Y5178297D01*
X10657875Y5337792D02*
G01*
X10657875Y5177787D01*
X10472813Y5178297D02*
G01*
X10347817Y5178297D01*
X10472813Y5338302D02*
G01*
X10347817Y5338302D01*
X10532872Y5177787D02*
G01*
X10657875Y5177787D01*
X10532872Y5337792D02*
G01*
X10657875Y5337792D01*
G75*
G01*
X10452933Y2847256D02*
G03*
X10421950Y2878239I-30983J0D01*
G75*
G01*
X10421950Y2736273D02*
G03*
X10452933Y2767259I0J30983D01*
G75*
G01*
X10204361Y2877657D02*
G03*
X10173378Y2846672I0J-30982D01*
G75*
G01*
X10173378Y2766675D02*
G03*
X10204361Y2735692I30983J0D01*
G75*
G01*
X10452933Y5755549D02*
G03*
X10421950Y5786531I-30983J0D01*
G75*
G01*
X10421950Y5644566D02*
G03*
X10452933Y5675551I0J30983D01*
G75*
G01*
X10204361Y5785950D02*
G03*
X10173378Y5754964I0J-30983D01*
G75*
G01*
X10173378Y5674967D02*
G03*
X10204361Y5643984I30983J0D01*
G75*
G01*
X5102929Y4077543D02*
G03*
X5071946Y4046560I0J-30983D01*
G75*
G01*
X5213911Y4046560D02*
G03*
X5182926Y4077543I-30983J0D01*
G75*
G01*
X5072527Y3828974D02*
G03*
X5103513Y3797991I30983J0D01*
G75*
G01*
X5183510Y3797991D02*
G03*
X5214493Y3828974I0J30983D01*
G75*
G01*
X5561739Y2791534D02*
G03*
X5592722Y2760551I30983J0D01*
G75*
G01*
X5592722Y2902516D02*
G03*
X5561739Y2871531I0J-30982D01*
G75*
G01*
X5810308Y2761132D02*
G03*
X5841291Y2792118I0J30983D01*
G75*
G01*
X5841291Y2872115D02*
G03*
X5810308Y2903098I-30983J0D01*
G75*
G01
X4221099Y2832100D02*
G03X4221099Y2832100I-499999J0D01*
X12151106Y1397000D02*
G01*
X12659106Y1397000D01*
X12659106Y889000D01*
X12151106Y889000D01*
X12151106Y1397000D01*
M02*
