G04 Layer: BottomPasteMaskLayer*
G04 Panelize: , Column: 2, Row: 2, Board Size: 127.89mm x 58.42mm, Panelized Board Size: 257.78mm x 118.84mm*
G04 EasyEDA v6.5.34, 2023-09-01 23:34:49*
G04 d2f9a346f3944a8da2a00f25f54837ea,5a6b42c53f6a479593ecc07194224c93,10*
G04 Gerber Generator version 0.2*
G04 Scale: 100 percent, Rotated: No, Reflected: No *
G04 Dimensions in millimeters *
G04 leading zeros omitted , absolute positions ,4 integer and 5 decimal *
%FSLAX45Y45*%
%MOMM*%

%AMMACRO1*21,1,$1,$2,0,0,$3*%
%ADD10MACRO1,0.7999X0.9X0.0000*%
%ADD11MACRO1,0.8X0.9X0.0000*%
%ADD12MACRO1,0.8X0.9X-90.0000*%
%ADD13MACRO1,1X1.1X0.0000*%
%ADD14MACRO1,1X1.1X-90.0000*%
%ADD15MACRO1,1X1.1X90.0000*%

%LPD*%
D10*
G01*
X10242379Y2806694D03*
D11*
G01*
X10382380Y2806694D03*
D10*
G01*
X10242379Y5714987D03*
D11*
G01*
X10382380Y5714987D03*
D12*
G01*
X5143489Y3866991D03*
G01*
X5143489Y4006990D03*
D11*
G01*
X5772290Y2832094D03*
G01*
X5632291Y2832094D03*
D13*
G01*
X7713304Y3731892D03*
G01*
X7553304Y3731892D03*
G01*
X7713304Y3985892D03*
G01*
X7553304Y3985892D03*
G01*
X7713304Y4239892D03*
G01*
X7553304Y4239892D03*
G01*
X7713304Y4493892D03*
G01*
X7553304Y4493892D03*
G01*
X7713304Y4747892D03*
G01*
X7553304Y4747892D03*
G01*
X7713304Y5001892D03*
G01*
X7553304Y5001892D03*
G01*
X7553289Y5255892D03*
G01*
X7713289Y5255892D03*
G01*
X4098274Y3731905D03*
G01*
X4258274Y3731905D03*
G01*
X4098274Y5001905D03*
G01*
X4258274Y5001905D03*
G01*
X4258289Y5255905D03*
G01*
X4098290Y5255905D03*
G01*
X4098274Y4747905D03*
G01*
X4258274Y4747905D03*
G01*
X4098274Y4493907D03*
G01*
X4258274Y4493907D03*
G01*
X4098274Y4239907D03*
G01*
X4258274Y4239907D03*
G01*
X4098274Y3985907D03*
G01*
X4258274Y3985907D03*
D14*
G01*
X5524124Y1680211D03*
G01*
X5524124Y1520212D03*
G01*
X4254124Y1680211D03*
G01*
X4254124Y1520212D03*
D15*
G01*
X4000124Y1520224D03*
G01*
X4000124Y1680222D03*
D14*
G01*
X4508124Y1680211D03*
G01*
X4508124Y1520212D03*
G01*
X4762121Y1680211D03*
G01*
X4762121Y1520212D03*
G01*
X5016121Y1680211D03*
G01*
X5016121Y1520212D03*
G01*
X5270121Y1680211D03*
G01*
X5270121Y1520212D03*
D15*
G01*
X5778121Y1520224D03*
G01*
X5778121Y1680222D03*
G01*
X8686812Y1680222D03*
G01*
X8686812Y1520224D03*
D14*
G01*
X8178812Y1520212D03*
G01*
X8178812Y1680211D03*
G01*
X7924812Y1520212D03*
G01*
X7924812Y1680211D03*
G01*
X7670812Y1520212D03*
G01*
X7670812Y1680211D03*
G01*
X7416815Y1520212D03*
G01*
X7416815Y1680211D03*
D15*
G01*
X6908815Y1680222D03*
G01*
X6908815Y1520224D03*
D14*
G01*
X7162815Y1520212D03*
G01*
X7162815Y1680211D03*
G01*
X8432815Y1520212D03*
G01*
X8432815Y1680211D03*
D13*
G01*
X2244090Y823597D03*
G01*
X2404088Y823597D03*
G01*
X2244090Y2093597D03*
G01*
X2404088Y2093597D03*
G01*
X2404099Y2347597D03*
G01*
X2244101Y2347597D03*
G01*
X2244090Y1839597D03*
G01*
X2404088Y1839597D03*
G01*
X2244090Y1585600D03*
G01*
X2404088Y1585600D03*
G01*
X2244090Y1331600D03*
G01*
X2404088Y1331600D03*
G01*
X2244090Y1077600D03*
G01*
X2404088Y1077600D03*
G01*
X2404099Y569600D03*
G01*
X2244101Y569600D03*
G01*
X2244101Y3478291D03*
G01*
X2404099Y3478291D03*
G01*
X2404088Y3986291D03*
G01*
X2244090Y3986291D03*
G01*
X2404088Y4240291D03*
G01*
X2244090Y4240291D03*
G01*
X2404088Y4494291D03*
G01*
X2244090Y4494291D03*
G01*
X2404088Y4748288D03*
G01*
X2244090Y4748288D03*
G01*
X2244101Y5256288D03*
G01*
X2404099Y5256288D03*
G01*
X2404088Y5002288D03*
G01*
X2244090Y5002288D03*
G01*
X2404088Y3732288D03*
G01*
X2244090Y3732288D03*
G01*
X10422872Y2349494D03*
G01*
X10582871Y2349494D03*
G01*
X10582887Y2095494D03*
G01*
X10422887Y2095494D03*
G01*
X10582887Y1841497D03*
G01*
X10422887Y1841497D03*
G01*
X10582887Y1587497D03*
G01*
X10422887Y1587497D03*
G01*
X10582887Y1333497D03*
G01*
X10422887Y1333497D03*
G01*
X10582887Y1079497D03*
G01*
X10422887Y1079497D03*
G01*
X10582887Y825497D03*
G01*
X10422887Y825497D03*
G01*
X10422872Y571500D03*
G01*
X10582871Y571500D03*
G01*
X10422872Y3479792D03*
G01*
X10582871Y3479792D03*
G01*
X10582887Y3733792D03*
G01*
X10422887Y3733792D03*
G01*
X10582887Y3987792D03*
G01*
X10422887Y3987792D03*
G01*
X10582887Y4241792D03*
G01*
X10422887Y4241792D03*
G01*
X10582887Y4495789D03*
G01*
X10422887Y4495789D03*
G01*
X10582887Y4749789D03*
G01*
X10422887Y4749789D03*
G01*
X10582887Y5003789D03*
G01*
X10422887Y5003789D03*
G01*
X10422872Y5257789D03*
G01*
X10582871Y5257789D03*
M02*
