G04 Layer: BottomLayer*
G04 Panelize: , Column: 2, Row: 2, Board Size: 58.42mm x 58.42mm, Panelized Board Size: 118.84mm x 118.84mm*
G04 EasyEDA v6.5.34, 2023-09-06 22:34:46*
G04 a2432957869647e6a6caa226728471f4,5a6b42c53f6a479593ecc07194224c93,10*
G04 Gerber Generator version 0.2*
G04 Scale: 100 percent, Rotated: No, Reflected: No *
G04 Dimensions in millimeters *
G04 leading zeros omitted , absolute positions ,4 integer and 5 decimal *
%FSLAX45Y45*%
%MOMM*%

%ADD10C,0.2540*%
%ADD11C,5.0000*%
%ADD12C,2.0000*%
%ADD13C,1.8000*%
%ADD14C,0.6096*%
%ADD15C,0.0122*%

%LPD*%
G36*
X36068Y25908D02*
G01*
X32156Y26670D01*
X28905Y28905D01*
X26670Y32156D01*
X25908Y36068D01*
X25908Y5805932D01*
X26670Y5809792D01*
X28905Y5813094D01*
X32156Y5815330D01*
X36068Y5816092D01*
X5805932Y5815584D01*
X5809843Y5814822D01*
X5813094Y5812637D01*
X5815330Y5809335D01*
X5816092Y5805424D01*
X5816092Y36068D01*
X5815330Y32156D01*
X5813094Y28905D01*
X5809843Y26670D01*
X5805932Y25908D01*
G37*

%LPC*%
G36*
X4660900Y5521604D02*
G01*
X4674717Y5522518D01*
X4688281Y5525211D01*
X4701438Y5529681D01*
X4713833Y5535777D01*
X4725365Y5543499D01*
X4735779Y5552643D01*
X4744923Y5563057D01*
X4752594Y5574538D01*
X4758740Y5586984D01*
X4763160Y5600090D01*
X4765903Y5613654D01*
X4766767Y5627471D01*
X4765903Y5641340D01*
X4763160Y5654903D01*
X4758740Y5668010D01*
X4752594Y5680456D01*
X4744923Y5691936D01*
X4735779Y5702350D01*
X4725365Y5711494D01*
X4713833Y5719216D01*
X4701438Y5725312D01*
X4688281Y5729782D01*
X4674717Y5732475D01*
X4660900Y5733389D01*
X4647082Y5732475D01*
X4633518Y5729782D01*
X4620361Y5725312D01*
X4607966Y5719216D01*
X4596434Y5711494D01*
X4586020Y5702350D01*
X4576876Y5691936D01*
X4569206Y5680456D01*
X4563059Y5668010D01*
X4558639Y5654903D01*
X4555896Y5641340D01*
X4555032Y5627471D01*
X4555896Y5613654D01*
X4558639Y5600090D01*
X4563059Y5586984D01*
X4569206Y5574538D01*
X4576876Y5563057D01*
X4586020Y5552643D01*
X4596434Y5543499D01*
X4607966Y5535777D01*
X4620361Y5529681D01*
X4633518Y5525211D01*
X4647082Y5522518D01*
G37*
G36*
X368300Y105562D02*
G01*
X368300Y368300D01*
X105664Y368300D01*
X106070Y357936D01*
X108966Y334975D01*
X113792Y312369D01*
X120446Y290271D01*
X128981Y268782D01*
X139242Y248107D01*
X151180Y228295D01*
X164795Y209600D01*
X179882Y192125D01*
X196392Y175971D01*
X214172Y161239D01*
X233171Y148031D01*
X253187Y136499D01*
X274066Y126644D01*
X295757Y118618D01*
X318008Y112369D01*
X340715Y108051D01*
X363677Y105664D01*
G37*
G36*
X5448300Y105562D02*
G01*
X5448300Y368300D01*
X5185664Y368300D01*
X5186070Y357936D01*
X5188966Y334975D01*
X5193792Y312369D01*
X5200446Y290271D01*
X5208981Y268782D01*
X5219242Y248107D01*
X5231180Y228295D01*
X5244795Y209600D01*
X5259882Y192125D01*
X5276392Y175971D01*
X5294172Y161239D01*
X5313172Y148031D01*
X5333187Y136499D01*
X5354066Y126644D01*
X5375757Y118618D01*
X5398008Y112369D01*
X5420715Y108051D01*
X5443677Y105664D01*
G37*
G36*
X5473700Y105613D02*
G01*
X5489854Y106629D01*
X5512714Y109982D01*
X5535218Y115265D01*
X5557164Y122428D01*
X5578500Y131368D01*
X5598972Y142087D01*
X5618480Y154432D01*
X5636869Y168402D01*
X5654040Y183896D01*
X5669838Y200710D01*
X5684215Y218846D01*
X5697016Y238099D01*
X5708142Y258317D01*
X5717540Y279450D01*
X5725109Y301244D01*
X5730849Y323646D01*
X5734710Y346405D01*
X5736590Y368300D01*
X5473700Y368300D01*
G37*
G36*
X393700Y105613D02*
G01*
X409854Y106629D01*
X432714Y109982D01*
X455218Y115265D01*
X477164Y122428D01*
X498500Y131368D01*
X518972Y142087D01*
X538480Y154432D01*
X556869Y168402D01*
X574040Y183896D01*
X589838Y200710D01*
X604215Y218846D01*
X617016Y238099D01*
X628142Y258317D01*
X637540Y279450D01*
X645109Y301244D01*
X650849Y323646D01*
X654710Y346405D01*
X656590Y368300D01*
X393700Y368300D01*
G37*
G36*
X1008735Y138328D02*
G01*
X1023264Y138328D01*
X1037691Y140157D01*
X1051814Y143764D01*
X1065326Y149148D01*
X1078077Y156159D01*
X1089863Y164693D01*
X1100480Y174650D01*
X1109776Y185877D01*
X1117549Y198170D01*
X1123746Y211328D01*
X1128268Y225196D01*
X1130960Y239471D01*
X1131874Y254000D01*
X1130960Y268528D01*
X1128268Y282803D01*
X1123746Y296672D01*
X1117549Y309829D01*
X1109776Y322122D01*
X1100480Y333349D01*
X1089863Y343306D01*
X1078077Y351840D01*
X1065326Y358851D01*
X1051814Y364236D01*
X1037691Y367842D01*
X1023264Y369671D01*
X1008735Y369671D01*
X994308Y367842D01*
X980186Y364236D01*
X966673Y358851D01*
X953922Y351840D01*
X942136Y343306D01*
X931519Y333349D01*
X922223Y322122D01*
X914450Y309829D01*
X909066Y298450D01*
X906830Y295351D01*
X903630Y293319D01*
X899871Y292608D01*
X810768Y292608D01*
X806856Y293370D01*
X803605Y295605D01*
X801370Y298856D01*
X800608Y302768D01*
X800608Y653491D01*
X801370Y657402D01*
X803605Y660704D01*
X805180Y662279D01*
X810818Y670306D01*
X814933Y679246D01*
X817473Y688695D01*
X818337Y698500D01*
X817473Y708304D01*
X814933Y717753D01*
X810818Y726694D01*
X805180Y734720D01*
X798220Y741680D01*
X790194Y747318D01*
X781253Y751433D01*
X771804Y753973D01*
X762000Y754837D01*
X752195Y753973D01*
X742746Y751433D01*
X733806Y747318D01*
X725779Y741680D01*
X718820Y734720D01*
X713181Y726694D01*
X709066Y717753D01*
X706526Y708304D01*
X705662Y698500D01*
X706526Y688695D01*
X709066Y679246D01*
X713181Y670306D01*
X718820Y662279D01*
X720394Y660704D01*
X722630Y657402D01*
X723392Y653491D01*
X723392Y299008D01*
X722630Y295097D01*
X720394Y291795D01*
X718820Y290220D01*
X713181Y282194D01*
X709066Y273253D01*
X706526Y263804D01*
X705662Y254000D01*
X706526Y244195D01*
X709066Y234746D01*
X713181Y225806D01*
X718820Y217779D01*
X725779Y210820D01*
X733806Y205181D01*
X742746Y201066D01*
X752195Y198526D01*
X762000Y197662D01*
X771804Y198526D01*
X781253Y201066D01*
X790194Y205181D01*
X798220Y210820D01*
X799795Y212394D01*
X803097Y214629D01*
X807008Y215392D01*
X899871Y215392D01*
X903630Y214680D01*
X906830Y212648D01*
X909066Y209550D01*
X914450Y198170D01*
X922223Y185877D01*
X931519Y174650D01*
X942136Y164693D01*
X953922Y156159D01*
X966673Y149148D01*
X980186Y143764D01*
X994308Y140157D01*
G37*
G36*
X1257300Y139039D02*
G01*
X1257300Y241300D01*
X1154887Y241300D01*
X1155039Y239471D01*
X1157732Y225196D01*
X1162253Y211328D01*
X1168450Y198170D01*
X1176223Y185877D01*
X1185519Y174650D01*
X1196136Y164693D01*
X1207922Y156159D01*
X1220673Y149148D01*
X1234186Y143764D01*
X1248308Y140157D01*
G37*
G36*
X1282700Y139039D02*
G01*
X1291691Y140157D01*
X1305814Y143764D01*
X1319326Y149148D01*
X1332077Y156159D01*
X1343863Y164693D01*
X1354480Y174650D01*
X1363776Y185877D01*
X1371549Y198170D01*
X1377746Y211328D01*
X1382268Y225196D01*
X1384960Y239471D01*
X1385112Y241300D01*
X1282700Y241300D01*
G37*
G36*
X393700Y5473700D02*
G01*
X656590Y5473700D01*
X654710Y5495594D01*
X650849Y5518353D01*
X645109Y5540756D01*
X637540Y5562549D01*
X628142Y5583682D01*
X617016Y5603900D01*
X604215Y5623153D01*
X589838Y5641289D01*
X574040Y5658104D01*
X556869Y5673598D01*
X538480Y5687568D01*
X518972Y5699912D01*
X498500Y5710631D01*
X477164Y5719572D01*
X455218Y5726734D01*
X432714Y5732018D01*
X409854Y5735370D01*
X393700Y5736386D01*
G37*
G36*
X1154887Y266700D02*
G01*
X1257300Y266700D01*
X1257300Y368960D01*
X1248308Y367842D01*
X1234186Y364236D01*
X1220673Y358851D01*
X1207922Y351840D01*
X1196136Y343306D01*
X1185519Y333349D01*
X1176223Y322122D01*
X1168450Y309829D01*
X1162253Y296672D01*
X1157732Y282803D01*
X1155039Y268528D01*
G37*
G36*
X1282700Y266700D02*
G01*
X1385112Y266700D01*
X1384960Y268528D01*
X1382268Y282803D01*
X1377746Y296672D01*
X1371549Y309829D01*
X1363776Y322122D01*
X1354480Y333349D01*
X1343863Y343306D01*
X1332077Y351840D01*
X1319326Y358851D01*
X1305814Y364236D01*
X1291691Y367842D01*
X1282700Y368960D01*
G37*
G36*
X5473700Y5473700D02*
G01*
X5736590Y5473700D01*
X5734710Y5495594D01*
X5730849Y5518353D01*
X5725109Y5540756D01*
X5717540Y5562549D01*
X5708142Y5583682D01*
X5697016Y5603900D01*
X5684215Y5623153D01*
X5669838Y5641289D01*
X5654040Y5658104D01*
X5636869Y5673598D01*
X5618480Y5687568D01*
X5598972Y5699912D01*
X5578500Y5710631D01*
X5557164Y5719572D01*
X5535218Y5726734D01*
X5512714Y5732018D01*
X5489854Y5735370D01*
X5473700Y5736386D01*
G37*
G36*
X1008735Y392328D02*
G01*
X1023264Y392328D01*
X1037691Y394157D01*
X1051814Y397764D01*
X1065326Y403148D01*
X1078077Y410159D01*
X1089863Y418693D01*
X1100480Y428650D01*
X1109776Y439877D01*
X1117549Y452170D01*
X1123746Y465328D01*
X1128268Y479196D01*
X1130960Y493471D01*
X1131874Y508000D01*
X1130960Y522528D01*
X1128268Y536803D01*
X1123746Y550672D01*
X1117549Y563829D01*
X1109776Y576122D01*
X1100480Y587349D01*
X1089863Y597306D01*
X1078077Y605840D01*
X1065326Y612851D01*
X1051814Y618236D01*
X1037691Y621842D01*
X1023264Y623671D01*
X1008735Y623671D01*
X994308Y621842D01*
X980186Y618236D01*
X966673Y612851D01*
X953922Y605840D01*
X942136Y597306D01*
X931519Y587349D01*
X922223Y576122D01*
X914450Y563829D01*
X908253Y550672D01*
X903732Y536803D01*
X901039Y522528D01*
X900125Y508000D01*
X901039Y493471D01*
X903732Y479196D01*
X908253Y465328D01*
X914450Y452170D01*
X922223Y439877D01*
X931519Y428650D01*
X942136Y418693D01*
X953922Y410159D01*
X966673Y403148D01*
X980186Y397764D01*
X994308Y394157D01*
G37*
G36*
X1257300Y393039D02*
G01*
X1257300Y495300D01*
X1154887Y495300D01*
X1155039Y493471D01*
X1157732Y479196D01*
X1162253Y465328D01*
X1168450Y452170D01*
X1176223Y439877D01*
X1185519Y428650D01*
X1196136Y418693D01*
X1207922Y410159D01*
X1220673Y403148D01*
X1234186Y397764D01*
X1248308Y394157D01*
G37*
G36*
X1282700Y393039D02*
G01*
X1291691Y394157D01*
X1305814Y397764D01*
X1319326Y403148D01*
X1332077Y410159D01*
X1343863Y418693D01*
X1354480Y428650D01*
X1363776Y439877D01*
X1371549Y452170D01*
X1377746Y465328D01*
X1382268Y479196D01*
X1384960Y493471D01*
X1385112Y495300D01*
X1282700Y495300D01*
G37*
G36*
X105664Y393700D02*
G01*
X368300Y393700D01*
X368300Y656437D01*
X363677Y656336D01*
X340715Y653948D01*
X318008Y649630D01*
X295757Y643382D01*
X274066Y635355D01*
X253187Y625500D01*
X233171Y613968D01*
X214172Y600760D01*
X196392Y586028D01*
X179882Y569874D01*
X164795Y552348D01*
X151180Y533704D01*
X139242Y513892D01*
X128981Y493217D01*
X120446Y471728D01*
X113792Y449630D01*
X108966Y427024D01*
X106070Y404063D01*
G37*
G36*
X5185664Y393700D02*
G01*
X5448300Y393700D01*
X5448300Y656437D01*
X5443677Y656336D01*
X5420715Y653948D01*
X5398008Y649630D01*
X5375757Y643382D01*
X5354066Y635355D01*
X5333187Y625500D01*
X5313172Y613968D01*
X5294172Y600760D01*
X5276392Y586028D01*
X5259882Y569874D01*
X5244795Y552348D01*
X5231180Y533704D01*
X5219242Y513892D01*
X5208981Y493217D01*
X5200446Y471728D01*
X5193792Y449630D01*
X5188966Y427024D01*
X5186070Y404063D01*
G37*
G36*
X4660900Y92100D02*
G01*
X4674717Y93014D01*
X4688281Y95707D01*
X4701438Y100177D01*
X4713833Y106273D01*
X4725365Y113995D01*
X4735779Y123139D01*
X4744923Y133553D01*
X4752594Y145034D01*
X4758740Y157480D01*
X4763160Y170586D01*
X4765903Y184150D01*
X4766767Y197967D01*
X4765903Y211836D01*
X4763160Y225399D01*
X4758740Y238506D01*
X4752594Y250952D01*
X4744923Y262432D01*
X4735779Y272846D01*
X4725365Y281990D01*
X4713833Y289712D01*
X4701438Y295808D01*
X4688281Y300278D01*
X4674717Y302971D01*
X4660900Y303885D01*
X4647082Y302971D01*
X4633518Y300278D01*
X4620361Y295808D01*
X4607966Y289712D01*
X4596434Y281990D01*
X4586020Y272846D01*
X4576876Y262432D01*
X4569206Y250952D01*
X4563059Y238506D01*
X4558639Y225399D01*
X4555896Y211836D01*
X4555032Y197967D01*
X4555896Y184150D01*
X4558639Y170586D01*
X4563059Y157480D01*
X4569206Y145034D01*
X4576876Y133553D01*
X4586020Y123139D01*
X4596434Y113995D01*
X4607966Y106273D01*
X4620361Y100177D01*
X4633518Y95707D01*
X4647082Y93014D01*
G37*
G36*
X393700Y393700D02*
G01*
X656590Y393700D01*
X654710Y415594D01*
X650849Y438353D01*
X645109Y460756D01*
X637540Y482549D01*
X628142Y503682D01*
X617016Y523900D01*
X604215Y543153D01*
X589838Y561289D01*
X574040Y578104D01*
X556869Y593598D01*
X538480Y607568D01*
X518972Y619912D01*
X498500Y630631D01*
X477164Y639572D01*
X455218Y646734D01*
X432714Y652018D01*
X409854Y655370D01*
X393700Y656386D01*
G37*
G36*
X1905000Y413562D02*
G01*
X1914804Y414426D01*
X1924253Y416966D01*
X1933193Y421081D01*
X1941220Y426720D01*
X1948180Y433679D01*
X1953818Y441706D01*
X1957933Y450646D01*
X1960473Y460095D01*
X1961337Y469900D01*
X1960473Y479704D01*
X1957933Y489153D01*
X1953818Y498093D01*
X1948180Y506120D01*
X1946605Y507695D01*
X1944370Y510997D01*
X1943607Y514908D01*
X1943607Y653491D01*
X1944370Y657402D01*
X1946605Y660704D01*
X1948180Y662279D01*
X1953818Y670306D01*
X1957933Y679246D01*
X1960473Y688695D01*
X1961337Y698500D01*
X1960473Y708304D01*
X1957933Y717753D01*
X1953818Y726694D01*
X1948180Y734720D01*
X1941220Y741680D01*
X1933193Y747318D01*
X1924253Y751433D01*
X1914804Y753973D01*
X1905000Y754837D01*
X1895195Y753973D01*
X1885746Y751433D01*
X1876806Y747318D01*
X1868779Y741680D01*
X1861820Y734720D01*
X1856181Y726694D01*
X1852066Y717753D01*
X1849526Y708304D01*
X1848662Y698500D01*
X1849526Y688695D01*
X1852066Y679246D01*
X1856181Y670306D01*
X1861820Y662279D01*
X1863394Y660704D01*
X1865630Y657402D01*
X1866392Y653491D01*
X1866392Y514908D01*
X1865630Y510997D01*
X1863394Y507695D01*
X1861820Y506120D01*
X1856181Y498093D01*
X1852066Y489153D01*
X1849526Y479704D01*
X1848662Y469900D01*
X1849526Y460095D01*
X1852066Y450646D01*
X1856181Y441706D01*
X1861820Y433679D01*
X1868779Y426720D01*
X1876806Y421081D01*
X1885746Y416966D01*
X1895195Y414426D01*
G37*
G36*
X4885893Y443738D02*
G01*
X4901082Y444652D01*
X4916017Y447395D01*
X4930546Y451916D01*
X4944414Y458114D01*
X4957419Y465988D01*
X4969408Y475386D01*
X4980127Y486105D01*
X4989525Y498093D01*
X4997399Y511098D01*
X5003596Y524967D01*
X5008118Y539496D01*
X5010861Y554431D01*
X5011775Y569620D01*
X5010861Y584758D01*
X5008118Y599744D01*
X5003596Y614222D01*
X4997399Y628091D01*
X4989525Y641096D01*
X4980127Y653084D01*
X4969408Y663854D01*
X4957419Y673201D01*
X4944414Y681075D01*
X4930495Y687324D01*
X4927346Y689559D01*
X4925212Y692810D01*
X4924501Y696620D01*
X4925212Y700379D01*
X4927346Y703630D01*
X4930495Y705866D01*
X4944414Y712114D01*
X4957419Y719988D01*
X4969408Y729386D01*
X4980127Y740105D01*
X4989525Y752094D01*
X4997399Y765098D01*
X5003596Y778967D01*
X5008118Y793496D01*
X5010861Y808431D01*
X5011775Y823620D01*
X5010861Y838758D01*
X5008118Y853744D01*
X5003596Y868222D01*
X4997399Y882091D01*
X4989525Y895096D01*
X4980127Y907084D01*
X4969408Y917854D01*
X4957419Y927201D01*
X4944414Y935075D01*
X4930495Y941324D01*
X4927346Y943559D01*
X4925212Y946810D01*
X4924501Y950620D01*
X4925212Y954379D01*
X4927346Y957630D01*
X4930495Y959866D01*
X4944414Y966114D01*
X4957419Y973988D01*
X4969408Y983386D01*
X4980127Y994105D01*
X4989525Y1006094D01*
X4997399Y1019098D01*
X5003596Y1032967D01*
X5008118Y1047496D01*
X5010861Y1062431D01*
X5011775Y1077620D01*
X5010861Y1092758D01*
X5008118Y1107744D01*
X5003596Y1122222D01*
X4997399Y1136091D01*
X4989525Y1149096D01*
X4980127Y1161084D01*
X4969408Y1171854D01*
X4957419Y1181201D01*
X4944414Y1189075D01*
X4930495Y1195324D01*
X4927346Y1197559D01*
X4925212Y1200810D01*
X4924501Y1204620D01*
X4925212Y1208379D01*
X4927346Y1211630D01*
X4930495Y1213866D01*
X4944414Y1220114D01*
X4957419Y1227988D01*
X4969408Y1237386D01*
X4980127Y1248105D01*
X4989525Y1260094D01*
X4997399Y1273098D01*
X5003596Y1286967D01*
X5008118Y1301496D01*
X5010861Y1316431D01*
X5011775Y1331620D01*
X5010861Y1346758D01*
X5008118Y1361744D01*
X5003596Y1376222D01*
X4997399Y1390091D01*
X4989525Y1403096D01*
X4980127Y1415084D01*
X4969408Y1425854D01*
X4957419Y1435201D01*
X4944414Y1443075D01*
X4930495Y1449324D01*
X4927346Y1451559D01*
X4925212Y1454810D01*
X4924501Y1458620D01*
X4925212Y1462379D01*
X4927346Y1465630D01*
X4930495Y1467866D01*
X4944414Y1474114D01*
X4957419Y1481988D01*
X4969408Y1491386D01*
X4980127Y1502105D01*
X4989525Y1514094D01*
X4997399Y1527098D01*
X5003596Y1540967D01*
X5008118Y1555496D01*
X5010861Y1570431D01*
X5011775Y1585620D01*
X5010861Y1600758D01*
X5008118Y1615744D01*
X5003596Y1630222D01*
X4997399Y1644091D01*
X4989525Y1657096D01*
X4980127Y1669084D01*
X4969408Y1679854D01*
X4957419Y1689201D01*
X4944414Y1697075D01*
X4930495Y1703324D01*
X4927346Y1705559D01*
X4925212Y1708810D01*
X4924501Y1712620D01*
X4925212Y1716379D01*
X4927346Y1719630D01*
X4930495Y1721866D01*
X4944414Y1728114D01*
X4957419Y1735988D01*
X4969408Y1745386D01*
X4980127Y1756105D01*
X4989525Y1768093D01*
X4997399Y1781098D01*
X5003596Y1794967D01*
X5008118Y1809496D01*
X5010861Y1824431D01*
X5011775Y1839620D01*
X5010861Y1854758D01*
X5008118Y1869744D01*
X5003596Y1884222D01*
X4997399Y1898091D01*
X4989525Y1911096D01*
X4980127Y1923084D01*
X4969408Y1933854D01*
X4957419Y1943201D01*
X4944414Y1951075D01*
X4930495Y1957324D01*
X4927346Y1959559D01*
X4925212Y1962810D01*
X4924501Y1966620D01*
X4925212Y1970379D01*
X4927346Y1973630D01*
X4930495Y1975866D01*
X4944414Y1982114D01*
X4957419Y1989988D01*
X4969408Y1999386D01*
X4980127Y2010105D01*
X4989525Y2022093D01*
X4997399Y2035098D01*
X5003596Y2048967D01*
X5008118Y2063496D01*
X5010861Y2078431D01*
X5011775Y2093620D01*
X5010861Y2108758D01*
X5008118Y2123744D01*
X5003596Y2138222D01*
X4997399Y2152091D01*
X4989525Y2165096D01*
X4980127Y2177084D01*
X4969408Y2187854D01*
X4957419Y2197201D01*
X4944414Y2205075D01*
X4930495Y2211324D01*
X4927346Y2213559D01*
X4925212Y2216810D01*
X4924501Y2220620D01*
X4925212Y2224379D01*
X4927346Y2227630D01*
X4930495Y2229866D01*
X4944414Y2236114D01*
X4957419Y2243988D01*
X4969408Y2253386D01*
X4980127Y2264105D01*
X4989525Y2276094D01*
X4997399Y2289098D01*
X5003596Y2302967D01*
X5008118Y2317496D01*
X5010861Y2332431D01*
X5011775Y2347620D01*
X5010861Y2362758D01*
X5008118Y2377744D01*
X5003596Y2392222D01*
X4997399Y2406091D01*
X4989525Y2419096D01*
X4980127Y2431084D01*
X4969408Y2441854D01*
X4957419Y2451201D01*
X4944414Y2459075D01*
X4930546Y2465324D01*
X4916017Y2469845D01*
X4901082Y2472588D01*
X4885893Y2473502D01*
X4870754Y2472588D01*
X4855768Y2469845D01*
X4841290Y2465324D01*
X4827422Y2459075D01*
X4814417Y2451201D01*
X4802428Y2441854D01*
X4791659Y2431084D01*
X4782312Y2419096D01*
X4774438Y2406091D01*
X4768189Y2392222D01*
X4763668Y2377744D01*
X4760925Y2362758D01*
X4760010Y2347620D01*
X4760925Y2332431D01*
X4763668Y2317496D01*
X4768189Y2302967D01*
X4774438Y2289098D01*
X4782312Y2276094D01*
X4791659Y2264105D01*
X4802428Y2253386D01*
X4814417Y2243988D01*
X4827422Y2236114D01*
X4841341Y2229866D01*
X4844491Y2227630D01*
X4846574Y2224379D01*
X4847336Y2220620D01*
X4846574Y2216810D01*
X4844491Y2213559D01*
X4841341Y2211324D01*
X4827422Y2205075D01*
X4814417Y2197201D01*
X4802428Y2187854D01*
X4791659Y2177084D01*
X4782312Y2165096D01*
X4774438Y2152091D01*
X4768189Y2138222D01*
X4763668Y2123744D01*
X4760925Y2108758D01*
X4760010Y2093620D01*
X4760925Y2078431D01*
X4763668Y2063496D01*
X4768189Y2048967D01*
X4774438Y2035098D01*
X4782312Y2022093D01*
X4791659Y2010105D01*
X4802428Y1999386D01*
X4814417Y1989988D01*
X4827422Y1982114D01*
X4841341Y1975866D01*
X4844491Y1973630D01*
X4846574Y1970379D01*
X4847336Y1966620D01*
X4846574Y1962810D01*
X4844491Y1959559D01*
X4841341Y1957324D01*
X4827422Y1951075D01*
X4814417Y1943201D01*
X4802428Y1933854D01*
X4791659Y1923084D01*
X4782312Y1911096D01*
X4774438Y1898091D01*
X4768189Y1884222D01*
X4763668Y1869744D01*
X4760925Y1854758D01*
X4760010Y1839620D01*
X4760925Y1824431D01*
X4763668Y1809496D01*
X4768189Y1794967D01*
X4774438Y1781098D01*
X4782312Y1768093D01*
X4791659Y1756105D01*
X4802428Y1745386D01*
X4814417Y1735988D01*
X4827422Y1728114D01*
X4841341Y1721866D01*
X4844491Y1719630D01*
X4846574Y1716379D01*
X4847336Y1712620D01*
X4846574Y1708810D01*
X4844491Y1705559D01*
X4841341Y1703324D01*
X4827422Y1697075D01*
X4814417Y1689201D01*
X4802428Y1679854D01*
X4791659Y1669084D01*
X4782312Y1657096D01*
X4774438Y1644091D01*
X4768189Y1630222D01*
X4763668Y1615744D01*
X4760925Y1600758D01*
X4760010Y1585620D01*
X4760925Y1570431D01*
X4763668Y1555496D01*
X4768189Y1540967D01*
X4774438Y1527098D01*
X4782312Y1514094D01*
X4791659Y1502105D01*
X4802428Y1491386D01*
X4814417Y1481988D01*
X4827422Y1474114D01*
X4841341Y1467866D01*
X4844491Y1465630D01*
X4846574Y1462379D01*
X4847336Y1458620D01*
X4846574Y1454810D01*
X4844491Y1451559D01*
X4841341Y1449324D01*
X4827422Y1443075D01*
X4814417Y1435201D01*
X4802428Y1425854D01*
X4791659Y1415084D01*
X4782312Y1403096D01*
X4774438Y1390091D01*
X4768189Y1376222D01*
X4763668Y1361744D01*
X4760925Y1346758D01*
X4760010Y1331620D01*
X4760925Y1316431D01*
X4763668Y1301496D01*
X4768189Y1286967D01*
X4774438Y1273098D01*
X4782312Y1260094D01*
X4791659Y1248105D01*
X4802428Y1237386D01*
X4814417Y1227988D01*
X4827422Y1220114D01*
X4841341Y1213866D01*
X4844491Y1211630D01*
X4846574Y1208379D01*
X4847336Y1204620D01*
X4846574Y1200810D01*
X4844491Y1197559D01*
X4841341Y1195324D01*
X4827422Y1189075D01*
X4814417Y1181201D01*
X4802428Y1171854D01*
X4791659Y1161084D01*
X4782312Y1149096D01*
X4774438Y1136091D01*
X4768189Y1122222D01*
X4763668Y1107744D01*
X4760925Y1092758D01*
X4760010Y1077620D01*
X4760925Y1062431D01*
X4763668Y1047496D01*
X4768189Y1032967D01*
X4774438Y1019098D01*
X4782312Y1006094D01*
X4791659Y994105D01*
X4802428Y983386D01*
X4814417Y973988D01*
X4827422Y966114D01*
X4841341Y959866D01*
X4844491Y957630D01*
X4846574Y954379D01*
X4847336Y950620D01*
X4846574Y946810D01*
X4844491Y943559D01*
X4841341Y941324D01*
X4827422Y935075D01*
X4814417Y927201D01*
X4802428Y917854D01*
X4791659Y907084D01*
X4782312Y895096D01*
X4774438Y882091D01*
X4768189Y868222D01*
X4763668Y853744D01*
X4760925Y838758D01*
X4760010Y823620D01*
X4760925Y808431D01*
X4763668Y793496D01*
X4768189Y778967D01*
X4774438Y765098D01*
X4782312Y752094D01*
X4791659Y740105D01*
X4802428Y729386D01*
X4814417Y719988D01*
X4827422Y712114D01*
X4841341Y705866D01*
X4844491Y703630D01*
X4846574Y700379D01*
X4847336Y696620D01*
X4846574Y692810D01*
X4844491Y689559D01*
X4841341Y687324D01*
X4827422Y681075D01*
X4814417Y673201D01*
X4802428Y663854D01*
X4791659Y653084D01*
X4782312Y641096D01*
X4774438Y628091D01*
X4768189Y614222D01*
X4763668Y599744D01*
X4760925Y584758D01*
X4760010Y569620D01*
X4760925Y554431D01*
X4763668Y539496D01*
X4768189Y524967D01*
X4774438Y511098D01*
X4782312Y498093D01*
X4791659Y486105D01*
X4802428Y475386D01*
X4814417Y465988D01*
X4827422Y458114D01*
X4841290Y451916D01*
X4855768Y447395D01*
X4870754Y444652D01*
G37*
G36*
X1154887Y520700D02*
G01*
X1257300Y520700D01*
X1257300Y622960D01*
X1248308Y621842D01*
X1234186Y618236D01*
X1220673Y612851D01*
X1207922Y605840D01*
X1196136Y597306D01*
X1185519Y587349D01*
X1176223Y576122D01*
X1168450Y563829D01*
X1162253Y550672D01*
X1157732Y536803D01*
X1155039Y522528D01*
G37*
G36*
X1282700Y520700D02*
G01*
X1385112Y520700D01*
X1384960Y522528D01*
X1382268Y536803D01*
X1377746Y550672D01*
X1371549Y563829D01*
X1363776Y576122D01*
X1354480Y587349D01*
X1343863Y597306D01*
X1332077Y605840D01*
X1319326Y612851D01*
X1305814Y618236D01*
X1291691Y621842D01*
X1282700Y622960D01*
G37*
G36*
X3441700Y642162D02*
G01*
X3451504Y643026D01*
X3460953Y645566D01*
X3469894Y649681D01*
X3477920Y655320D01*
X3484879Y662279D01*
X3490518Y670306D01*
X3494633Y679246D01*
X3497173Y688695D01*
X3498037Y698500D01*
X3497173Y708304D01*
X3494633Y717753D01*
X3490518Y726694D01*
X3484879Y734720D01*
X3483305Y736295D01*
X3481070Y739597D01*
X3480308Y743508D01*
X3480308Y2139391D01*
X3481070Y2143302D01*
X3483305Y2146604D01*
X3484879Y2148179D01*
X3490518Y2156206D01*
X3494633Y2165146D01*
X3497173Y2174595D01*
X3498037Y2184400D01*
X3497173Y2194204D01*
X3494633Y2203653D01*
X3490518Y2212594D01*
X3484879Y2220620D01*
X3483305Y2222195D01*
X3481070Y2225497D01*
X3480308Y2229408D01*
X3480308Y5047691D01*
X3481070Y5051602D01*
X3483305Y5054904D01*
X3484879Y5056479D01*
X3490518Y5064506D01*
X3494633Y5073446D01*
X3497173Y5082895D01*
X3498037Y5092700D01*
X3497173Y5102504D01*
X3494633Y5111953D01*
X3490518Y5120894D01*
X3484879Y5128920D01*
X3477920Y5135880D01*
X3469894Y5141518D01*
X3460953Y5145633D01*
X3451504Y5148173D01*
X3441700Y5149037D01*
X3431895Y5148173D01*
X3422446Y5145633D01*
X3413506Y5141518D01*
X3405479Y5135880D01*
X3398520Y5128920D01*
X3392881Y5120894D01*
X3388766Y5111953D01*
X3386226Y5102504D01*
X3385362Y5092700D01*
X3386226Y5082895D01*
X3388766Y5073446D01*
X3392881Y5064506D01*
X3398520Y5056479D01*
X3400094Y5054904D01*
X3402329Y5051602D01*
X3403092Y5047691D01*
X3403092Y2229408D01*
X3402329Y2225497D01*
X3400094Y2222195D01*
X3398520Y2220620D01*
X3392881Y2212594D01*
X3388766Y2203653D01*
X3386226Y2194204D01*
X3385362Y2184400D01*
X3386226Y2174595D01*
X3388766Y2165146D01*
X3392881Y2156206D01*
X3398520Y2148179D01*
X3400094Y2146604D01*
X3402329Y2143302D01*
X3403092Y2139391D01*
X3403092Y743508D01*
X3402329Y739597D01*
X3400094Y736295D01*
X3398520Y734720D01*
X3392881Y726694D01*
X3388766Y717753D01*
X3386226Y708304D01*
X3385362Y698500D01*
X3386226Y688695D01*
X3388766Y679246D01*
X3392881Y670306D01*
X3398520Y662279D01*
X3405479Y655320D01*
X3413506Y649681D01*
X3422446Y645566D01*
X3431895Y643026D01*
G37*
G36*
X4660900Y2613304D02*
G01*
X4674717Y2614218D01*
X4688281Y2616911D01*
X4701438Y2621381D01*
X4713833Y2627477D01*
X4725365Y2635199D01*
X4735779Y2644343D01*
X4744923Y2654757D01*
X4752594Y2666238D01*
X4758740Y2678684D01*
X4763160Y2691790D01*
X4765903Y2705354D01*
X4766767Y2719171D01*
X4765903Y2733040D01*
X4763160Y2746603D01*
X4758740Y2759710D01*
X4752594Y2772156D01*
X4744923Y2783636D01*
X4735779Y2794050D01*
X4725365Y2803194D01*
X4713833Y2810916D01*
X4701438Y2817012D01*
X4688281Y2821482D01*
X4674717Y2824175D01*
X4660900Y2825089D01*
X4647082Y2824175D01*
X4633518Y2821482D01*
X4620361Y2817012D01*
X4607966Y2810916D01*
X4596434Y2803194D01*
X4586020Y2794050D01*
X4576876Y2783636D01*
X4569206Y2772156D01*
X4563059Y2759710D01*
X4558639Y2746603D01*
X4555896Y2733040D01*
X4555032Y2719171D01*
X4555896Y2705354D01*
X4558639Y2691790D01*
X4563059Y2678684D01*
X4569206Y2666238D01*
X4576876Y2654757D01*
X4586020Y2644343D01*
X4596434Y2635199D01*
X4607966Y2627477D01*
X4620361Y2621381D01*
X4633518Y2616911D01*
X4647082Y2614218D01*
G37*
G36*
X4660900Y3000400D02*
G01*
X4674717Y3001314D01*
X4688281Y3004007D01*
X4701438Y3008477D01*
X4713833Y3014573D01*
X4725365Y3022295D01*
X4735779Y3031439D01*
X4744923Y3041853D01*
X4752594Y3053334D01*
X4758740Y3065780D01*
X4763160Y3078886D01*
X4765903Y3092450D01*
X4766767Y3106267D01*
X4765903Y3120136D01*
X4763160Y3133699D01*
X4758740Y3146806D01*
X4752594Y3159252D01*
X4744923Y3170732D01*
X4735779Y3181146D01*
X4725365Y3190290D01*
X4713833Y3198012D01*
X4701438Y3204108D01*
X4688281Y3208578D01*
X4674717Y3211271D01*
X4660900Y3212185D01*
X4647082Y3211271D01*
X4633518Y3208578D01*
X4620361Y3204108D01*
X4607966Y3198012D01*
X4596434Y3190290D01*
X4586020Y3181146D01*
X4576876Y3170732D01*
X4569206Y3159252D01*
X4563059Y3146806D01*
X4558639Y3133699D01*
X4555896Y3120136D01*
X4555032Y3106267D01*
X4555896Y3092450D01*
X4558639Y3078886D01*
X4563059Y3065780D01*
X4569206Y3053334D01*
X4576876Y3041853D01*
X4586020Y3031439D01*
X4596434Y3022295D01*
X4607966Y3014573D01*
X4620361Y3008477D01*
X4633518Y3004007D01*
X4647082Y3001314D01*
G37*
G36*
X4885893Y3351987D02*
G01*
X4901082Y3352901D01*
X4916017Y3355644D01*
X4930546Y3360165D01*
X4944414Y3366414D01*
X4957419Y3374288D01*
X4969357Y3383686D01*
X4980127Y3394405D01*
X4989474Y3406394D01*
X4997348Y3419398D01*
X5003596Y3433267D01*
X5008118Y3447745D01*
X5010861Y3462731D01*
X5011775Y3477869D01*
X5010861Y3493058D01*
X5008118Y3508044D01*
X5003596Y3522522D01*
X4997348Y3536391D01*
X4989474Y3549396D01*
X4980127Y3561384D01*
X4969357Y3572103D01*
X4957419Y3581501D01*
X4944414Y3589375D01*
X4930495Y3595624D01*
X4927295Y3597859D01*
X4925212Y3601110D01*
X4924501Y3604869D01*
X4925212Y3608679D01*
X4927295Y3611930D01*
X4930495Y3614165D01*
X4944414Y3620414D01*
X4957419Y3628288D01*
X4969357Y3637686D01*
X4980127Y3648405D01*
X4989474Y3660394D01*
X4997348Y3673398D01*
X5003596Y3687267D01*
X5008118Y3701745D01*
X5010861Y3716731D01*
X5011775Y3731869D01*
X5010861Y3747058D01*
X5008118Y3762044D01*
X5003596Y3776522D01*
X4997348Y3790391D01*
X4989474Y3803396D01*
X4980127Y3815384D01*
X4969357Y3826103D01*
X4957419Y3835501D01*
X4944414Y3843375D01*
X4930495Y3849624D01*
X4927295Y3851859D01*
X4925212Y3855110D01*
X4924501Y3858869D01*
X4925212Y3862679D01*
X4927295Y3865930D01*
X4930495Y3868165D01*
X4944414Y3874414D01*
X4957419Y3882288D01*
X4969357Y3891686D01*
X4980127Y3902405D01*
X4989474Y3914394D01*
X4997348Y3927398D01*
X5003596Y3941267D01*
X5008118Y3955745D01*
X5010861Y3970731D01*
X5011775Y3985869D01*
X5010861Y4001058D01*
X5008118Y4016044D01*
X5003596Y4030522D01*
X4997348Y4044391D01*
X4989474Y4057396D01*
X4980127Y4069384D01*
X4969357Y4080103D01*
X4957419Y4089501D01*
X4944414Y4097375D01*
X4930495Y4103624D01*
X4927295Y4105859D01*
X4925212Y4109110D01*
X4924501Y4112869D01*
X4925212Y4116679D01*
X4927295Y4119930D01*
X4930495Y4122165D01*
X4944414Y4128414D01*
X4957419Y4136288D01*
X4969357Y4145686D01*
X4980127Y4156405D01*
X4989474Y4168394D01*
X4997348Y4181398D01*
X5003596Y4195267D01*
X5008118Y4209745D01*
X5010861Y4224731D01*
X5011775Y4239869D01*
X5010861Y4255058D01*
X5008118Y4270044D01*
X5003596Y4284522D01*
X4997348Y4298391D01*
X4989474Y4311396D01*
X4980127Y4323384D01*
X4969357Y4334103D01*
X4957419Y4343501D01*
X4944414Y4351375D01*
X4930495Y4357624D01*
X4927295Y4359859D01*
X4925212Y4363110D01*
X4924501Y4366869D01*
X4925212Y4370679D01*
X4927295Y4373930D01*
X4930495Y4376166D01*
X4944414Y4382414D01*
X4957419Y4390288D01*
X4969357Y4399686D01*
X4980127Y4410405D01*
X4989474Y4422394D01*
X4997348Y4435398D01*
X5003596Y4449267D01*
X5008118Y4463745D01*
X5010861Y4478731D01*
X5011775Y4493869D01*
X5010861Y4509058D01*
X5008118Y4524044D01*
X5003596Y4538522D01*
X4997348Y4552391D01*
X4989474Y4565396D01*
X4980127Y4577384D01*
X4969357Y4588103D01*
X4957419Y4597501D01*
X4944414Y4605375D01*
X4930495Y4611624D01*
X4927295Y4613859D01*
X4925212Y4617110D01*
X4924501Y4620869D01*
X4925212Y4624679D01*
X4927295Y4627930D01*
X4930495Y4630166D01*
X4944414Y4636414D01*
X4957419Y4644288D01*
X4969357Y4653686D01*
X4980127Y4664405D01*
X4989474Y4676394D01*
X4997348Y4689398D01*
X5003596Y4703267D01*
X5008118Y4717745D01*
X5010861Y4732731D01*
X5011775Y4747869D01*
X5010861Y4763058D01*
X5008118Y4778044D01*
X5003596Y4792522D01*
X4997348Y4806391D01*
X4989474Y4819396D01*
X4980127Y4831384D01*
X4969357Y4842103D01*
X4957419Y4851501D01*
X4944414Y4859375D01*
X4930495Y4865624D01*
X4927295Y4867859D01*
X4925212Y4871110D01*
X4924501Y4874869D01*
X4925212Y4878679D01*
X4927295Y4881930D01*
X4930495Y4884166D01*
X4944414Y4890414D01*
X4957419Y4898288D01*
X4969357Y4907686D01*
X4980127Y4918405D01*
X4989474Y4930394D01*
X4997348Y4943398D01*
X5003596Y4957267D01*
X5008118Y4971745D01*
X5010861Y4986731D01*
X5011775Y5001869D01*
X5010861Y5017058D01*
X5008118Y5032044D01*
X5003596Y5046522D01*
X4997348Y5060391D01*
X4989474Y5073396D01*
X4980127Y5085384D01*
X4969357Y5096103D01*
X4957419Y5105501D01*
X4944414Y5113375D01*
X4930495Y5119624D01*
X4927295Y5121859D01*
X4925212Y5125110D01*
X4924501Y5128869D01*
X4925212Y5132679D01*
X4927295Y5135930D01*
X4930495Y5138166D01*
X4944414Y5144414D01*
X4957419Y5152288D01*
X4969357Y5161686D01*
X4980127Y5172405D01*
X4989474Y5184394D01*
X4997348Y5197398D01*
X5003596Y5211267D01*
X5008118Y5225745D01*
X5010861Y5240731D01*
X5011775Y5255869D01*
X5010861Y5271058D01*
X5008118Y5286044D01*
X5003596Y5300522D01*
X4997348Y5314391D01*
X4989474Y5327396D01*
X4980127Y5339384D01*
X4969357Y5350103D01*
X4957419Y5359501D01*
X4944414Y5367375D01*
X4930546Y5373624D01*
X4916017Y5378145D01*
X4901082Y5380888D01*
X4885893Y5381802D01*
X4870704Y5380888D01*
X4855768Y5378145D01*
X4841240Y5373624D01*
X4827371Y5367375D01*
X4814366Y5359501D01*
X4802428Y5350103D01*
X4791659Y5339384D01*
X4782312Y5327396D01*
X4774438Y5314391D01*
X4768189Y5300522D01*
X4763668Y5286044D01*
X4760925Y5271058D01*
X4760010Y5255869D01*
X4760925Y5240731D01*
X4763668Y5225745D01*
X4768189Y5211267D01*
X4774438Y5197398D01*
X4782312Y5184394D01*
X4791659Y5172405D01*
X4802428Y5161686D01*
X4814366Y5152288D01*
X4827371Y5144414D01*
X4841290Y5138166D01*
X4844491Y5135930D01*
X4846574Y5132679D01*
X4847285Y5128869D01*
X4846574Y5125110D01*
X4844491Y5121859D01*
X4841290Y5119624D01*
X4827371Y5113375D01*
X4814366Y5105501D01*
X4802428Y5096103D01*
X4791659Y5085384D01*
X4782312Y5073396D01*
X4774438Y5060391D01*
X4768189Y5046522D01*
X4763668Y5032044D01*
X4760925Y5017058D01*
X4760010Y5001869D01*
X4760925Y4986731D01*
X4763668Y4971745D01*
X4768189Y4957267D01*
X4774438Y4943398D01*
X4782312Y4930394D01*
X4791659Y4918405D01*
X4802428Y4907686D01*
X4814366Y4898288D01*
X4827371Y4890414D01*
X4841290Y4884166D01*
X4844491Y4881930D01*
X4846574Y4878679D01*
X4847285Y4874869D01*
X4846574Y4871110D01*
X4844491Y4867859D01*
X4841290Y4865624D01*
X4827371Y4859375D01*
X4814366Y4851501D01*
X4802428Y4842103D01*
X4791659Y4831384D01*
X4782312Y4819396D01*
X4774438Y4806391D01*
X4768189Y4792522D01*
X4763668Y4778044D01*
X4760925Y4763058D01*
X4760010Y4747869D01*
X4760925Y4732731D01*
X4763668Y4717745D01*
X4768189Y4703267D01*
X4774438Y4689398D01*
X4782312Y4676394D01*
X4791659Y4664405D01*
X4802428Y4653686D01*
X4814366Y4644288D01*
X4827371Y4636414D01*
X4841290Y4630166D01*
X4844491Y4627930D01*
X4846574Y4624679D01*
X4847285Y4620869D01*
X4846574Y4617110D01*
X4844491Y4613859D01*
X4841290Y4611624D01*
X4827371Y4605375D01*
X4814366Y4597501D01*
X4802428Y4588103D01*
X4791659Y4577384D01*
X4782312Y4565396D01*
X4774438Y4552391D01*
X4768189Y4538522D01*
X4763668Y4524044D01*
X4760925Y4509058D01*
X4760010Y4493869D01*
X4760925Y4478731D01*
X4763668Y4463745D01*
X4768189Y4449267D01*
X4774438Y4435398D01*
X4782312Y4422394D01*
X4791659Y4410405D01*
X4802428Y4399686D01*
X4814366Y4390288D01*
X4827371Y4382414D01*
X4841290Y4376166D01*
X4844491Y4373930D01*
X4846574Y4370679D01*
X4847285Y4366869D01*
X4846574Y4363110D01*
X4844491Y4359859D01*
X4841290Y4357624D01*
X4827371Y4351375D01*
X4814366Y4343501D01*
X4802428Y4334103D01*
X4791659Y4323384D01*
X4782312Y4311396D01*
X4774438Y4298391D01*
X4768189Y4284522D01*
X4763668Y4270044D01*
X4760925Y4255058D01*
X4760010Y4239869D01*
X4760925Y4224731D01*
X4763668Y4209745D01*
X4768189Y4195267D01*
X4774438Y4181398D01*
X4782312Y4168394D01*
X4791659Y4156405D01*
X4802428Y4145686D01*
X4814366Y4136288D01*
X4827371Y4128414D01*
X4841290Y4122165D01*
X4844491Y4119930D01*
X4846574Y4116679D01*
X4847285Y4112869D01*
X4846574Y4109110D01*
X4844491Y4105859D01*
X4841290Y4103624D01*
X4827371Y4097375D01*
X4814366Y4089501D01*
X4802428Y4080103D01*
X4791659Y4069384D01*
X4782312Y4057396D01*
X4774438Y4044391D01*
X4768189Y4030522D01*
X4763668Y4016044D01*
X4760925Y4001058D01*
X4760010Y3985869D01*
X4760925Y3970731D01*
X4763668Y3955745D01*
X4768189Y3941267D01*
X4774438Y3927398D01*
X4782312Y3914394D01*
X4791659Y3902405D01*
X4802428Y3891686D01*
X4814366Y3882288D01*
X4827371Y3874414D01*
X4841290Y3868165D01*
X4844491Y3865930D01*
X4846574Y3862679D01*
X4847285Y3858869D01*
X4846574Y3855110D01*
X4844491Y3851859D01*
X4841290Y3849624D01*
X4827371Y3843375D01*
X4814366Y3835501D01*
X4802428Y3826103D01*
X4791659Y3815384D01*
X4782312Y3803396D01*
X4774438Y3790391D01*
X4768189Y3776522D01*
X4763668Y3762044D01*
X4760925Y3747058D01*
X4760010Y3731869D01*
X4760925Y3716731D01*
X4763668Y3701745D01*
X4768189Y3687267D01*
X4774438Y3673398D01*
X4782312Y3660394D01*
X4791659Y3648405D01*
X4802428Y3637686D01*
X4814366Y3628288D01*
X4827371Y3620414D01*
X4841290Y3614165D01*
X4844491Y3611930D01*
X4846574Y3608679D01*
X4847285Y3604869D01*
X4846574Y3601110D01*
X4844491Y3597859D01*
X4841290Y3595624D01*
X4827371Y3589375D01*
X4814366Y3581501D01*
X4802428Y3572103D01*
X4791659Y3561384D01*
X4782312Y3549396D01*
X4774438Y3536391D01*
X4768189Y3522522D01*
X4763668Y3508044D01*
X4760925Y3493058D01*
X4760010Y3477869D01*
X4760925Y3462731D01*
X4763668Y3447745D01*
X4768189Y3433267D01*
X4774438Y3419398D01*
X4782312Y3406394D01*
X4791659Y3394405D01*
X4802428Y3383686D01*
X4814366Y3374288D01*
X4827371Y3366414D01*
X4841240Y3360165D01*
X4855768Y3355644D01*
X4870704Y3352901D01*
G37*
G36*
X5448300Y5185562D02*
G01*
X5448300Y5448300D01*
X5185664Y5448300D01*
X5186070Y5437936D01*
X5188966Y5414975D01*
X5193792Y5392369D01*
X5200446Y5370271D01*
X5208981Y5348782D01*
X5219242Y5328107D01*
X5231180Y5308295D01*
X5244795Y5289600D01*
X5259882Y5272125D01*
X5276392Y5255971D01*
X5294172Y5241239D01*
X5313172Y5228031D01*
X5333187Y5216499D01*
X5354066Y5206644D01*
X5375757Y5198618D01*
X5398008Y5192369D01*
X5420715Y5188051D01*
X5443677Y5185664D01*
G37*
G36*
X368300Y5185562D02*
G01*
X368300Y5448300D01*
X105664Y5448300D01*
X106070Y5437936D01*
X108966Y5414975D01*
X113792Y5392369D01*
X120446Y5370271D01*
X128981Y5348782D01*
X139242Y5328107D01*
X151180Y5308295D01*
X164795Y5289600D01*
X179882Y5272125D01*
X196392Y5255971D01*
X214172Y5241239D01*
X233171Y5228031D01*
X253187Y5216499D01*
X274066Y5206644D01*
X295757Y5198618D01*
X318008Y5192369D01*
X340715Y5188051D01*
X363677Y5185664D01*
G37*
G36*
X5473700Y5185613D02*
G01*
X5489854Y5186629D01*
X5512714Y5189982D01*
X5535218Y5195265D01*
X5557164Y5202428D01*
X5578500Y5211368D01*
X5598972Y5222087D01*
X5618480Y5234432D01*
X5636869Y5248402D01*
X5654040Y5263896D01*
X5669838Y5280710D01*
X5684215Y5298846D01*
X5697016Y5318099D01*
X5708142Y5338318D01*
X5717540Y5359450D01*
X5725109Y5381244D01*
X5730849Y5403646D01*
X5734710Y5426405D01*
X5736590Y5448300D01*
X5473700Y5448300D01*
G37*
G36*
X393700Y5185613D02*
G01*
X409854Y5186629D01*
X432714Y5189982D01*
X455218Y5195265D01*
X477164Y5202428D01*
X498500Y5211368D01*
X518972Y5222087D01*
X538480Y5234432D01*
X556869Y5248402D01*
X574040Y5263896D01*
X589838Y5280710D01*
X604215Y5298846D01*
X617016Y5318099D01*
X628142Y5338318D01*
X637540Y5359450D01*
X645109Y5381244D01*
X650849Y5403646D01*
X654710Y5426405D01*
X656590Y5448300D01*
X393700Y5448300D01*
G37*
G36*
X105664Y5473700D02*
G01*
X368300Y5473700D01*
X368300Y5736437D01*
X363677Y5736336D01*
X340715Y5733948D01*
X318008Y5729630D01*
X295757Y5723382D01*
X274066Y5715355D01*
X253187Y5705500D01*
X233171Y5693968D01*
X214172Y5680760D01*
X196392Y5666028D01*
X179882Y5649874D01*
X164795Y5632348D01*
X151180Y5613704D01*
X139242Y5593892D01*
X128981Y5573217D01*
X120446Y5551728D01*
X113792Y5529630D01*
X108966Y5507024D01*
X106070Y5484063D01*
G37*
G36*
X5185664Y5473700D02*
G01*
X5448300Y5473700D01*
X5448300Y5736437D01*
X5443677Y5736336D01*
X5420715Y5733948D01*
X5398008Y5729630D01*
X5375757Y5723382D01*
X5354066Y5715355D01*
X5333187Y5705500D01*
X5313172Y5693968D01*
X5294172Y5680760D01*
X5276392Y5666028D01*
X5259882Y5649874D01*
X5244795Y5632348D01*
X5231180Y5613704D01*
X5219242Y5593892D01*
X5208981Y5573217D01*
X5200446Y5551728D01*
X5193792Y5529630D01*
X5188966Y5507024D01*
X5186070Y5484063D01*
G37*
G36*
X5473700Y393700D02*
G01*
X5736590Y393700D01*
X5734710Y415594D01*
X5730849Y438353D01*
X5725109Y460756D01*
X5717540Y482549D01*
X5708142Y503682D01*
X5697016Y523900D01*
X5684215Y543153D01*
X5669838Y561289D01*
X5654040Y578104D01*
X5636869Y593598D01*
X5618480Y607568D01*
X5598972Y619912D01*
X5578500Y630631D01*
X5557164Y639572D01*
X5535218Y646734D01*
X5512714Y652018D01*
X5489854Y655370D01*
X5473700Y656386D01*
G37*

%LPD*%
D10*
X3441700Y2184400D02*
G01*
X3441700Y5092700D01*
X3441700Y698500D02*
G01*
X3441700Y2184400D01*
X1016000Y254000D02*
G01*
X762000Y254000D01*
X762012Y254000D02*
G01*
X762000Y254012D01*
X762000Y698500D01*
X1905000Y469900D02*
G01*
X1905000Y698500D01*
D11*
G01*
X5461000Y381000D03*
G01*
X381000Y381000D03*
G01*
X381000Y5461000D03*
G01*
X5461000Y5461000D03*
D12*
G01*
X4885893Y5255895D03*
G01*
X4885893Y5001895D03*
G01*
X4885893Y4747895D03*
G01*
X4885893Y4493895D03*
G01*
X4885893Y4239895D03*
G01*
X4885893Y3985895D03*
G01*
X4885893Y3731895D03*
G01*
X4885893Y3477895D03*
G01*
X4885918Y569595D03*
G01*
X4885918Y823595D03*
G01*
X4885918Y1077595D03*
G01*
X4885918Y1331595D03*
G01*
X4885918Y1585595D03*
G01*
X4885918Y1839595D03*
G01*
X4885918Y2093595D03*
G01*
X4885918Y2347595D03*
D13*
G01*
X1016000Y254000D03*
G01*
X1016000Y508000D03*
G01*
X1270000Y508000D03*
G01*
X1270000Y254000D03*
D14*
G01*
X762000Y698500D03*
G01*
X762000Y254000D03*
G01*
X1905000Y469900D03*
G01*
X1905000Y698500D03*
G01*
X3441700Y698500D03*
G01*
X3441700Y2184400D03*
G01*
X3441700Y5092700D03*
G01*
X3302000Y4559300D03*
G01*
X3302000Y4432300D03*
G01*
X3302000Y4305300D03*
G01*
X3302000Y4178300D03*
G01*
X3302000Y4051300D03*
G01*
X3302000Y3924300D03*
G01*
X3302000Y3797300D03*
G01*
X3302025Y1651000D03*
G01*
X3302025Y1524000D03*
G01*
X3302025Y1397000D03*
G01*
X3302025Y1270000D03*
G01*
X3302025Y1143000D03*
G01*
X3302025Y1016000D03*
G01*
X3302025Y889000D03*
M02*
