G04 Layer: TopLayer*
G04 Panelize: , Column: 2, Row: 2, Board Size: 58.42mm x 58.42mm, Panelized Board Size: 118.84mm x 118.84mm*
G04 EasyEDA v6.5.34, 2023-09-06 22:34:46*
G04 a2432957869647e6a6caa226728471f4,5a6b42c53f6a479593ecc07194224c93,10*
G04 Gerber Generator version 0.2*
G04 Scale: 100 percent, Rotated: No, Reflected: No *
G04 Dimensions in millimeters *
G04 leading zeros omitted , absolute positions ,4 integer and 5 decimal *
%FSLAX45Y45*%
%MOMM*%

%ADD10C,0.2540*%
%ADD11O,2.3599902X0.5949949999999999*%
%ADD12R,1.0000X1.1000*%
%ADD13R,0.8999X1.0000*%
%ADD14R,0.8000X0.9000*%
%ADD15C,5.0000*%
%ADD16C,2.0000*%
%ADD17C,1.8000*%
%ADD18C,0.6096*%
%ADD19C,0.0127*%

%LPD*%
G36*
X36068Y25908D02*
G01*
X32156Y26670D01*
X28905Y28905D01*
X26670Y32156D01*
X25908Y36068D01*
X25908Y5805932D01*
X26670Y5809792D01*
X28905Y5813094D01*
X32156Y5815330D01*
X36068Y5816092D01*
X5805932Y5815584D01*
X5809843Y5814822D01*
X5813094Y5812637D01*
X5815330Y5809335D01*
X5816092Y5805424D01*
X5816092Y36068D01*
X5815330Y32156D01*
X5813094Y28905D01*
X5809843Y26670D01*
X5805932Y25908D01*
G37*

%LPC*%
G36*
X4660900Y5521604D02*
G01*
X4674717Y5522518D01*
X4688281Y5525211D01*
X4701438Y5529681D01*
X4713833Y5535777D01*
X4725365Y5543499D01*
X4735779Y5552643D01*
X4744923Y5563057D01*
X4752594Y5574538D01*
X4758740Y5586984D01*
X4763160Y5600090D01*
X4765903Y5613654D01*
X4766767Y5627471D01*
X4765903Y5641340D01*
X4763160Y5654903D01*
X4758740Y5668010D01*
X4752594Y5680456D01*
X4744923Y5691936D01*
X4735779Y5702350D01*
X4725365Y5711494D01*
X4713833Y5719216D01*
X4701438Y5725312D01*
X4688281Y5729782D01*
X4674717Y5732475D01*
X4660900Y5733389D01*
X4647082Y5732475D01*
X4633518Y5729782D01*
X4620361Y5725312D01*
X4607966Y5719216D01*
X4596434Y5711494D01*
X4586020Y5702350D01*
X4576876Y5691936D01*
X4569206Y5680456D01*
X4563059Y5668010D01*
X4558639Y5654903D01*
X4555896Y5641340D01*
X4555032Y5627471D01*
X4555896Y5613654D01*
X4558639Y5600090D01*
X4563059Y5586984D01*
X4569206Y5574538D01*
X4576876Y5563057D01*
X4586020Y5552643D01*
X4596434Y5543499D01*
X4607966Y5535777D01*
X4620361Y5529681D01*
X4633518Y5525211D01*
X4647082Y5522518D01*
G37*
G36*
X368300Y105562D02*
G01*
X368300Y368300D01*
X105664Y368300D01*
X106070Y357936D01*
X108966Y334975D01*
X113792Y312369D01*
X120446Y290271D01*
X128981Y268782D01*
X139242Y248107D01*
X151180Y228295D01*
X164795Y209600D01*
X179882Y192125D01*
X196392Y175971D01*
X214172Y161239D01*
X233171Y148031D01*
X253187Y136499D01*
X274066Y126644D01*
X295757Y118618D01*
X318008Y112369D01*
X340715Y108051D01*
X363677Y105664D01*
G37*
G36*
X5448300Y105562D02*
G01*
X5448300Y368300D01*
X5185664Y368300D01*
X5186070Y357936D01*
X5188966Y334975D01*
X5193792Y312369D01*
X5200446Y290271D01*
X5208981Y268782D01*
X5219242Y248107D01*
X5231180Y228295D01*
X5244795Y209600D01*
X5259882Y192125D01*
X5276392Y175971D01*
X5294172Y161239D01*
X5313172Y148031D01*
X5333187Y136499D01*
X5354066Y126644D01*
X5375757Y118618D01*
X5398008Y112369D01*
X5420715Y108051D01*
X5443677Y105664D01*
G37*
G36*
X5473700Y105613D02*
G01*
X5489854Y106629D01*
X5512714Y109982D01*
X5535218Y115265D01*
X5557164Y122428D01*
X5578500Y131368D01*
X5598972Y142087D01*
X5618480Y154432D01*
X5636869Y168402D01*
X5654040Y183896D01*
X5669838Y200710D01*
X5684215Y218846D01*
X5697016Y238099D01*
X5708142Y258317D01*
X5717540Y279450D01*
X5725109Y301244D01*
X5730849Y323646D01*
X5734710Y346405D01*
X5736590Y368300D01*
X5473700Y368300D01*
G37*
G36*
X393700Y105613D02*
G01*
X409854Y106629D01*
X432714Y109982D01*
X455218Y115265D01*
X477164Y122428D01*
X498500Y131368D01*
X518972Y142087D01*
X538480Y154432D01*
X556869Y168402D01*
X574040Y183896D01*
X589838Y200710D01*
X604215Y218846D01*
X617016Y238099D01*
X628142Y258317D01*
X637540Y279450D01*
X645109Y301244D01*
X650849Y323646D01*
X654710Y346405D01*
X656590Y368300D01*
X393700Y368300D01*
G37*
G36*
X1008735Y138328D02*
G01*
X1023264Y138328D01*
X1037691Y140157D01*
X1051814Y143764D01*
X1065326Y149148D01*
X1078077Y156159D01*
X1089863Y164693D01*
X1100480Y174650D01*
X1109776Y185877D01*
X1117549Y198170D01*
X1123746Y211328D01*
X1128268Y225196D01*
X1130960Y239471D01*
X1131874Y254000D01*
X1130960Y268528D01*
X1128268Y282803D01*
X1123746Y296672D01*
X1117549Y309829D01*
X1109776Y322122D01*
X1100480Y333349D01*
X1089863Y343306D01*
X1078077Y351840D01*
X1065326Y358851D01*
X1051814Y364236D01*
X1037691Y367842D01*
X1023264Y369671D01*
X1008735Y369671D01*
X994308Y367842D01*
X980186Y364236D01*
X966673Y358851D01*
X953922Y351840D01*
X942136Y343306D01*
X931519Y333349D01*
X922223Y322122D01*
X914450Y309829D01*
X908253Y296672D01*
X903732Y282803D01*
X901039Y268528D01*
X900125Y254000D01*
X901039Y239471D01*
X903732Y225196D01*
X908253Y211328D01*
X914450Y198170D01*
X922223Y185877D01*
X931519Y174650D01*
X942136Y164693D01*
X953922Y156159D01*
X966673Y149148D01*
X980186Y143764D01*
X994308Y140157D01*
G37*
G36*
X1257300Y139039D02*
G01*
X1257300Y241300D01*
X1154887Y241300D01*
X1155039Y239471D01*
X1157732Y225196D01*
X1162253Y211328D01*
X1168450Y198170D01*
X1176223Y185877D01*
X1185519Y174650D01*
X1196136Y164693D01*
X1207922Y156159D01*
X1220673Y149148D01*
X1234186Y143764D01*
X1248308Y140157D01*
G37*
G36*
X1282700Y139039D02*
G01*
X1291691Y140157D01*
X1305814Y143764D01*
X1319326Y149148D01*
X1332077Y156159D01*
X1343863Y164693D01*
X1354480Y174650D01*
X1363776Y185877D01*
X1371549Y198170D01*
X1377746Y211328D01*
X1382268Y225196D01*
X1384960Y239471D01*
X1385112Y241300D01*
X1282700Y241300D01*
G37*
G36*
X1653489Y190804D02*
G01*
X1685188Y190804D01*
X1685188Y254000D01*
X1627022Y254000D01*
X1627022Y217271D01*
X1627733Y210972D01*
X1629613Y205486D01*
X1632712Y200609D01*
X1636776Y196494D01*
X1641703Y193395D01*
X1647139Y191516D01*
G37*
G36*
X1710588Y190804D02*
G01*
X1742338Y190804D01*
X1748637Y191516D01*
X1754124Y193395D01*
X1759000Y196494D01*
X1763115Y200609D01*
X1766214Y205486D01*
X1768093Y210972D01*
X1768805Y217271D01*
X1768805Y254000D01*
X1710588Y254000D01*
G37*
G36*
X1483461Y190804D02*
G01*
X1572310Y190804D01*
X1578660Y191516D01*
X1584096Y193395D01*
X1589024Y196494D01*
X1593088Y200609D01*
X1596186Y205486D01*
X1598117Y210972D01*
X1598828Y217271D01*
X1598828Y316128D01*
X1598117Y322478D01*
X1596186Y327914D01*
X1593088Y332841D01*
X1589024Y336905D01*
X1584096Y340004D01*
X1578305Y342036D01*
X1574800Y344170D01*
X1572361Y347522D01*
X1571548Y351586D01*
X1571548Y378815D01*
X1572209Y382473D01*
X1574139Y385673D01*
X1577136Y387908D01*
X1580692Y388924D01*
X1588719Y389737D01*
X1594104Y391617D01*
X1599031Y394716D01*
X1603095Y398780D01*
X1604314Y400659D01*
X1607108Y403606D01*
X1610868Y405231D01*
X1614932Y405231D01*
X1618691Y403606D01*
X1621485Y400659D01*
X1622704Y398780D01*
X1626768Y394716D01*
X1631696Y391617D01*
X1637131Y389686D01*
X1643481Y388975D01*
X1742338Y388975D01*
X1748637Y389686D01*
X1754124Y391617D01*
X1759000Y394716D01*
X1763115Y398780D01*
X1766163Y403707D01*
X1768093Y409143D01*
X1768805Y415493D01*
X1768805Y421132D01*
X1769567Y425043D01*
X1771802Y428294D01*
X1775053Y430530D01*
X1778965Y431292D01*
X1859991Y431292D01*
X1863902Y430530D01*
X1867204Y428294D01*
X1868779Y426720D01*
X1876806Y421081D01*
X1885746Y416966D01*
X1895195Y414426D01*
X1905000Y413562D01*
X1914804Y414426D01*
X1924253Y416966D01*
X1933193Y421081D01*
X1941220Y426720D01*
X1948180Y433679D01*
X1953818Y441706D01*
X1957933Y450646D01*
X1960473Y460095D01*
X1961337Y469900D01*
X1960473Y479704D01*
X1957933Y489153D01*
X1953818Y498093D01*
X1948180Y506120D01*
X1941220Y513080D01*
X1933193Y518718D01*
X1924253Y522833D01*
X1914804Y525373D01*
X1905000Y526237D01*
X1895195Y525373D01*
X1885746Y522833D01*
X1876806Y518718D01*
X1868779Y513080D01*
X1867204Y511505D01*
X1863902Y509270D01*
X1859991Y508508D01*
X1778965Y508508D01*
X1775053Y509270D01*
X1771802Y511505D01*
X1769567Y514756D01*
X1768805Y518668D01*
X1768805Y524306D01*
X1768093Y530656D01*
X1766163Y536092D01*
X1763115Y541020D01*
X1759000Y545084D01*
X1754124Y548182D01*
X1748637Y550113D01*
X1742338Y550824D01*
X1643481Y550824D01*
X1637131Y550113D01*
X1631696Y548182D01*
X1626768Y545084D01*
X1622704Y541020D01*
X1621485Y539140D01*
X1618691Y536194D01*
X1614932Y534568D01*
X1610868Y534568D01*
X1607108Y536194D01*
X1604314Y539140D01*
X1603095Y541020D01*
X1599031Y545084D01*
X1594104Y548182D01*
X1588668Y550113D01*
X1582318Y550824D01*
X1483461Y550824D01*
X1477162Y550113D01*
X1471676Y548182D01*
X1466799Y545084D01*
X1462684Y541020D01*
X1459636Y536092D01*
X1457706Y530656D01*
X1456994Y524306D01*
X1456994Y415493D01*
X1457706Y409143D01*
X1459636Y403707D01*
X1462684Y398780D01*
X1466799Y394716D01*
X1471676Y391617D01*
X1477060Y389737D01*
X1485138Y388924D01*
X1488694Y387908D01*
X1491691Y385673D01*
X1493621Y382473D01*
X1494332Y378815D01*
X1494332Y352755D01*
X1493621Y349097D01*
X1491691Y345948D01*
X1488694Y343712D01*
X1485138Y342646D01*
X1477111Y341884D01*
X1471676Y340004D01*
X1466799Y336905D01*
X1462684Y332841D01*
X1459636Y327914D01*
X1457706Y322478D01*
X1456994Y316128D01*
X1456994Y217271D01*
X1457706Y210972D01*
X1459636Y205486D01*
X1462684Y200609D01*
X1466799Y196494D01*
X1471676Y193395D01*
X1477162Y191516D01*
G37*
G36*
X762000Y197662D02*
G01*
X771804Y198526D01*
X781253Y201066D01*
X790194Y205181D01*
X798220Y210820D01*
X805180Y217779D01*
X810818Y225806D01*
X814933Y234746D01*
X817473Y244195D01*
X818337Y254000D01*
X817473Y263804D01*
X814933Y273253D01*
X810818Y282194D01*
X805180Y290220D01*
X798220Y297180D01*
X790194Y302818D01*
X781253Y306933D01*
X771804Y309473D01*
X762000Y310337D01*
X752195Y309473D01*
X742746Y306933D01*
X733806Y302818D01*
X725779Y297180D01*
X718820Y290220D01*
X713181Y282194D01*
X709066Y273253D01*
X706526Y263804D01*
X705662Y254000D01*
X706526Y244195D01*
X709066Y234746D01*
X713181Y225806D01*
X718820Y217779D01*
X725779Y210820D01*
X733806Y205181D01*
X742746Y201066D01*
X752195Y198526D01*
G37*
G36*
X1154887Y266700D02*
G01*
X1257300Y266700D01*
X1257300Y368960D01*
X1248308Y367842D01*
X1234186Y364236D01*
X1220673Y358851D01*
X1207922Y351840D01*
X1196136Y343306D01*
X1185519Y333349D01*
X1176223Y322122D01*
X1168450Y309829D01*
X1162253Y296672D01*
X1157732Y282803D01*
X1155039Y268528D01*
G37*
G36*
X1282700Y266700D02*
G01*
X1385112Y266700D01*
X1384960Y268528D01*
X1382268Y282803D01*
X1377746Y296672D01*
X1371549Y309829D01*
X1363776Y322122D01*
X1354480Y333349D01*
X1343863Y343306D01*
X1332077Y351840D01*
X1319326Y358851D01*
X1305814Y364236D01*
X1291691Y367842D01*
X1282700Y368960D01*
G37*
G36*
X1710588Y279400D02*
G01*
X1768805Y279400D01*
X1768805Y316128D01*
X1768093Y322478D01*
X1766214Y327914D01*
X1763115Y332841D01*
X1759000Y336905D01*
X1754124Y340004D01*
X1748637Y341884D01*
X1742338Y342595D01*
X1710588Y342595D01*
G37*
G36*
X1627022Y279400D02*
G01*
X1685188Y279400D01*
X1685188Y342595D01*
X1653489Y342595D01*
X1647139Y341884D01*
X1641703Y340004D01*
X1636776Y336905D01*
X1632712Y332841D01*
X1629613Y327914D01*
X1627733Y322478D01*
X1627022Y316128D01*
G37*
G36*
X393700Y5473700D02*
G01*
X656590Y5473700D01*
X654710Y5495594D01*
X650849Y5518353D01*
X645109Y5540756D01*
X637540Y5562549D01*
X628142Y5583682D01*
X617016Y5603900D01*
X604215Y5623153D01*
X589838Y5641289D01*
X574040Y5658104D01*
X556869Y5673598D01*
X538480Y5687568D01*
X518972Y5699912D01*
X498500Y5710631D01*
X477164Y5719572D01*
X455218Y5726734D01*
X432714Y5732018D01*
X409854Y5735370D01*
X393700Y5736386D01*
G37*
G36*
X1008735Y392328D02*
G01*
X1023264Y392328D01*
X1037691Y394157D01*
X1051814Y397764D01*
X1065326Y403148D01*
X1078077Y410159D01*
X1089863Y418693D01*
X1100480Y428650D01*
X1109776Y439877D01*
X1117549Y452170D01*
X1123746Y465328D01*
X1128268Y479196D01*
X1130960Y493471D01*
X1131874Y508000D01*
X1130960Y522528D01*
X1128268Y536803D01*
X1123746Y550672D01*
X1117549Y563829D01*
X1109776Y576122D01*
X1100480Y587349D01*
X1089863Y597306D01*
X1078077Y605840D01*
X1065326Y612851D01*
X1051814Y618236D01*
X1037691Y621842D01*
X1023264Y623671D01*
X1008735Y623671D01*
X994308Y621842D01*
X980186Y618236D01*
X966673Y612851D01*
X953922Y605840D01*
X942136Y597306D01*
X931519Y587349D01*
X922223Y576122D01*
X914450Y563829D01*
X908253Y550672D01*
X903732Y536803D01*
X901039Y522528D01*
X900125Y508000D01*
X901039Y493471D01*
X903732Y479196D01*
X908253Y465328D01*
X914450Y452170D01*
X922223Y439877D01*
X931519Y428650D01*
X942136Y418693D01*
X953922Y410159D01*
X966673Y403148D01*
X980186Y397764D01*
X994308Y394157D01*
G37*
G36*
X1257300Y393039D02*
G01*
X1257300Y495300D01*
X1154887Y495300D01*
X1155039Y493471D01*
X1157732Y479196D01*
X1162253Y465328D01*
X1168450Y452170D01*
X1176223Y439877D01*
X1185519Y428650D01*
X1196136Y418693D01*
X1207922Y410159D01*
X1220673Y403148D01*
X1234186Y397764D01*
X1248308Y394157D01*
G37*
G36*
X1282700Y393039D02*
G01*
X1291691Y394157D01*
X1305814Y397764D01*
X1319326Y403148D01*
X1332077Y410159D01*
X1343863Y418693D01*
X1354480Y428650D01*
X1363776Y439877D01*
X1371549Y452170D01*
X1377746Y465328D01*
X1382268Y479196D01*
X1384960Y493471D01*
X1385112Y495300D01*
X1282700Y495300D01*
G37*
G36*
X5185664Y393700D02*
G01*
X5448300Y393700D01*
X5448300Y656437D01*
X5443677Y656336D01*
X5420715Y653948D01*
X5398008Y649630D01*
X5375757Y643382D01*
X5354066Y635355D01*
X5333187Y625500D01*
X5313172Y613968D01*
X5294172Y600760D01*
X5276392Y586028D01*
X5259882Y569874D01*
X5244795Y552348D01*
X5231180Y533704D01*
X5219242Y513892D01*
X5208981Y493217D01*
X5200446Y471728D01*
X5193792Y449630D01*
X5188966Y427024D01*
X5186070Y404063D01*
G37*
G36*
X105664Y393700D02*
G01*
X368300Y393700D01*
X368300Y656437D01*
X363677Y656336D01*
X340715Y653948D01*
X318008Y649630D01*
X295757Y643382D01*
X274066Y635355D01*
X253187Y625500D01*
X233171Y613968D01*
X214172Y600760D01*
X196392Y586028D01*
X179882Y569874D01*
X164795Y552348D01*
X151180Y533704D01*
X139242Y513892D01*
X128981Y493217D01*
X120446Y471728D01*
X113792Y449630D01*
X108966Y427024D01*
X106070Y404063D01*
G37*
G36*
X5473700Y393700D02*
G01*
X5736590Y393700D01*
X5734710Y415594D01*
X5730849Y438353D01*
X5725109Y460756D01*
X5717540Y482549D01*
X5708142Y503682D01*
X5697016Y523900D01*
X5684215Y543153D01*
X5669838Y561289D01*
X5654040Y578104D01*
X5636869Y593598D01*
X5618480Y607568D01*
X5598972Y619912D01*
X5578500Y630631D01*
X5557164Y639572D01*
X5535218Y646734D01*
X5512714Y652018D01*
X5489854Y655370D01*
X5473700Y656386D01*
G37*
G36*
X393700Y393700D02*
G01*
X656590Y393700D01*
X654710Y415594D01*
X650849Y438353D01*
X645109Y460756D01*
X637540Y482549D01*
X628142Y503682D01*
X617016Y523900D01*
X604215Y543153D01*
X589838Y561289D01*
X574040Y578104D01*
X556869Y593598D01*
X538480Y607568D01*
X518972Y619912D01*
X498500Y630631D01*
X477164Y639572D01*
X455218Y646734D01*
X432714Y652018D01*
X409854Y655370D01*
X393700Y656386D01*
G37*
G36*
X5473700Y5473700D02*
G01*
X5736590Y5473700D01*
X5734710Y5495594D01*
X5730849Y5518353D01*
X5725109Y5540756D01*
X5717540Y5562549D01*
X5708142Y5583682D01*
X5697016Y5603900D01*
X5684215Y5623153D01*
X5669838Y5641289D01*
X5654040Y5658104D01*
X5636869Y5673598D01*
X5618480Y5687568D01*
X5598972Y5699912D01*
X5578500Y5710631D01*
X5557164Y5719572D01*
X5535218Y5726734D01*
X5512714Y5732018D01*
X5489854Y5735370D01*
X5473700Y5736386D01*
G37*
G36*
X4885893Y443738D02*
G01*
X4901082Y444652D01*
X4916017Y447395D01*
X4930546Y451916D01*
X4944414Y458114D01*
X4957419Y465988D01*
X4969408Y475386D01*
X4980127Y486105D01*
X4989525Y498093D01*
X4997399Y511098D01*
X5003596Y524967D01*
X5008118Y539496D01*
X5010861Y554431D01*
X5011775Y569620D01*
X5010861Y584758D01*
X5008118Y599744D01*
X5003596Y614222D01*
X4997399Y628091D01*
X4989525Y641096D01*
X4980127Y653084D01*
X4969408Y663854D01*
X4957419Y673201D01*
X4944414Y681075D01*
X4930495Y687324D01*
X4927346Y689559D01*
X4925212Y692810D01*
X4924501Y696620D01*
X4925212Y700379D01*
X4927346Y703630D01*
X4930495Y705866D01*
X4944414Y712114D01*
X4957419Y719988D01*
X4969408Y729386D01*
X4980127Y740105D01*
X4989525Y752094D01*
X4997399Y765098D01*
X5003596Y778967D01*
X5008118Y793496D01*
X5010861Y808431D01*
X5011775Y823620D01*
X5010861Y838758D01*
X5008118Y853744D01*
X5003596Y868222D01*
X4997399Y882091D01*
X4989525Y895096D01*
X4980127Y907084D01*
X4969408Y917854D01*
X4957419Y927201D01*
X4944414Y935075D01*
X4930495Y941324D01*
X4927346Y943559D01*
X4925212Y946810D01*
X4924501Y950620D01*
X4925212Y954379D01*
X4927346Y957630D01*
X4930495Y959866D01*
X4944414Y966114D01*
X4957419Y973988D01*
X4969408Y983386D01*
X4980127Y994105D01*
X4989525Y1006094D01*
X4997399Y1019098D01*
X5003596Y1032967D01*
X5008118Y1047496D01*
X5010861Y1062431D01*
X5011775Y1077620D01*
X5010861Y1092758D01*
X5008118Y1107744D01*
X5003596Y1122222D01*
X4997399Y1136091D01*
X4989525Y1149096D01*
X4980127Y1161084D01*
X4969408Y1171854D01*
X4957419Y1181201D01*
X4944414Y1189075D01*
X4930495Y1195324D01*
X4927346Y1197559D01*
X4925212Y1200810D01*
X4924501Y1204620D01*
X4925212Y1208379D01*
X4927346Y1211630D01*
X4930495Y1213866D01*
X4944414Y1220114D01*
X4957419Y1227988D01*
X4969408Y1237386D01*
X4980127Y1248105D01*
X4989525Y1260094D01*
X4997399Y1273098D01*
X5003596Y1286967D01*
X5008118Y1301496D01*
X5010861Y1316431D01*
X5011775Y1331620D01*
X5010861Y1346758D01*
X5008118Y1361744D01*
X5003596Y1376222D01*
X4997399Y1390091D01*
X4989525Y1403096D01*
X4980127Y1415084D01*
X4969408Y1425854D01*
X4957419Y1435201D01*
X4944414Y1443075D01*
X4930495Y1449324D01*
X4927346Y1451559D01*
X4925212Y1454810D01*
X4924501Y1458620D01*
X4925212Y1462379D01*
X4927346Y1465630D01*
X4930495Y1467866D01*
X4944414Y1474114D01*
X4957419Y1481988D01*
X4969408Y1491386D01*
X4980127Y1502105D01*
X4989525Y1514094D01*
X4997399Y1527098D01*
X5003596Y1540967D01*
X5008118Y1555496D01*
X5010861Y1570431D01*
X5011775Y1585620D01*
X5010861Y1600758D01*
X5008118Y1615744D01*
X5003596Y1630222D01*
X4997399Y1644091D01*
X4989525Y1657096D01*
X4980127Y1669084D01*
X4969408Y1679854D01*
X4957419Y1689201D01*
X4944414Y1697075D01*
X4930495Y1703324D01*
X4927346Y1705559D01*
X4925212Y1708810D01*
X4924501Y1712620D01*
X4925212Y1716379D01*
X4927346Y1719630D01*
X4930495Y1721866D01*
X4944414Y1728114D01*
X4957419Y1735988D01*
X4969408Y1745386D01*
X4980127Y1756105D01*
X4989525Y1768093D01*
X4997399Y1781098D01*
X5003596Y1794967D01*
X5008118Y1809496D01*
X5010861Y1824431D01*
X5011775Y1839620D01*
X5010861Y1854758D01*
X5008118Y1869744D01*
X5003596Y1884222D01*
X4997399Y1898091D01*
X4989525Y1911096D01*
X4980127Y1923084D01*
X4969408Y1933854D01*
X4957419Y1943201D01*
X4944414Y1951075D01*
X4930495Y1957324D01*
X4927346Y1959559D01*
X4925212Y1962810D01*
X4924501Y1966620D01*
X4925212Y1970379D01*
X4927346Y1973630D01*
X4930495Y1975866D01*
X4944414Y1982114D01*
X4957419Y1989988D01*
X4969408Y1999386D01*
X4980127Y2010105D01*
X4989525Y2022093D01*
X4997399Y2035098D01*
X5003596Y2048967D01*
X5008118Y2063496D01*
X5010861Y2078431D01*
X5011775Y2093620D01*
X5010861Y2108758D01*
X5008118Y2123744D01*
X5003596Y2138222D01*
X4997399Y2152091D01*
X4989525Y2165096D01*
X4980127Y2177084D01*
X4969408Y2187854D01*
X4957419Y2197201D01*
X4944414Y2205075D01*
X4930495Y2211324D01*
X4927346Y2213559D01*
X4925212Y2216810D01*
X4924501Y2220620D01*
X4925212Y2224379D01*
X4927346Y2227630D01*
X4930495Y2229866D01*
X4944414Y2236114D01*
X4957419Y2243988D01*
X4969408Y2253386D01*
X4980127Y2264105D01*
X4989525Y2276094D01*
X4997399Y2289098D01*
X5003596Y2302967D01*
X5008118Y2317496D01*
X5010861Y2332431D01*
X5011775Y2347620D01*
X5010861Y2362758D01*
X5008118Y2377744D01*
X5003596Y2392222D01*
X4997399Y2406091D01*
X4989525Y2419096D01*
X4980127Y2431084D01*
X4969408Y2441854D01*
X4957419Y2451201D01*
X4944414Y2459075D01*
X4930546Y2465324D01*
X4916017Y2469845D01*
X4901082Y2472588D01*
X4885893Y2473502D01*
X4870754Y2472588D01*
X4855768Y2469845D01*
X4841290Y2465324D01*
X4827422Y2459075D01*
X4814417Y2451201D01*
X4802428Y2441854D01*
X4791659Y2431084D01*
X4782312Y2419096D01*
X4774438Y2406091D01*
X4768189Y2392222D01*
X4763668Y2377744D01*
X4760925Y2362758D01*
X4760010Y2347620D01*
X4760925Y2332431D01*
X4763668Y2317496D01*
X4768189Y2302967D01*
X4771034Y2296617D01*
X4771948Y2292654D01*
X4771237Y2288641D01*
X4769002Y2285238D01*
X4239818Y1756105D01*
X4236516Y1753870D01*
X4232605Y1753107D01*
X3279495Y1753107D01*
X3275888Y1753768D01*
X3272688Y1755698D01*
X3270453Y1758645D01*
X3269386Y1762201D01*
X3269691Y1765909D01*
X3270351Y1768348D01*
X3271215Y1778000D01*
X3270351Y1787652D01*
X3267862Y1796999D01*
X3263747Y1805787D01*
X3258159Y1813763D01*
X3251301Y1820621D01*
X3243376Y1826158D01*
X3234588Y1830273D01*
X3229305Y1831695D01*
X3225393Y1833727D01*
X3222701Y1837182D01*
X3221786Y1841500D01*
X3222701Y1845818D01*
X3225393Y1849272D01*
X3229305Y1851304D01*
X3234588Y1852726D01*
X3243376Y1856841D01*
X3251301Y1862378D01*
X3258159Y1869236D01*
X3263747Y1877212D01*
X3267862Y1886000D01*
X3269538Y1892300D01*
X3139998Y1892300D01*
X3139998Y1843836D01*
X3139236Y1839925D01*
X3137052Y1836623D01*
X3133750Y1834438D01*
X3129889Y1833676D01*
X3124809Y1833676D01*
X3120898Y1834438D01*
X3117596Y1836623D01*
X3115411Y1839925D01*
X3114598Y1843836D01*
X3114598Y1892300D01*
X2985109Y1892300D01*
X2986786Y1886000D01*
X2990900Y1877212D01*
X2996488Y1869236D01*
X3003346Y1862378D01*
X3011271Y1856841D01*
X3020060Y1852726D01*
X3025343Y1851304D01*
X3029254Y1849272D01*
X3031947Y1845818D01*
X3032861Y1841500D01*
X3031947Y1837182D01*
X3029254Y1833727D01*
X3025343Y1831695D01*
X3020060Y1830273D01*
X3011271Y1826158D01*
X2999028Y1817370D01*
X2995117Y1816607D01*
X2814218Y1816607D01*
X2810357Y1817370D01*
X2807055Y1819605D01*
X2631186Y1995424D01*
X2624937Y2000554D01*
X2618282Y2004110D01*
X2611069Y2006295D01*
X2603042Y2007107D01*
X2333498Y2007107D01*
X2329891Y2007768D01*
X2326690Y2009698D01*
X2324455Y2012645D01*
X2323388Y2016201D01*
X2323642Y2019300D01*
X2194052Y2019300D01*
X2194052Y2017268D01*
X2193239Y2013356D01*
X2191054Y2010105D01*
X2187752Y2007870D01*
X2183892Y2007107D01*
X2178812Y2007107D01*
X2174900Y2007870D01*
X2171598Y2010105D01*
X2169414Y2013356D01*
X2168652Y2017268D01*
X2168652Y2019300D01*
X2040026Y2019300D01*
X2036165Y2020062D01*
X2032863Y2022297D01*
X2027783Y2027377D01*
X2025548Y2030628D01*
X2025345Y2031796D01*
X2024075Y2032101D01*
X2020874Y2034235D01*
X1894586Y2160524D01*
X1888337Y2165654D01*
X1881682Y2169210D01*
X1874469Y2171395D01*
X1866442Y2172208D01*
X1842516Y2172208D01*
X1838604Y2172970D01*
X1835302Y2175205D01*
X1833118Y2178456D01*
X1832356Y2182368D01*
X1832356Y2188006D01*
X1831593Y2194356D01*
X1829714Y2199792D01*
X1826615Y2204720D01*
X1822551Y2208784D01*
X1817624Y2211882D01*
X1812188Y2213813D01*
X1805838Y2214524D01*
X1706981Y2214524D01*
X1700682Y2213813D01*
X1695196Y2211882D01*
X1690319Y2208784D01*
X1686204Y2204720D01*
X1685036Y2202840D01*
X1682191Y2199894D01*
X1678482Y2198268D01*
X1674368Y2198268D01*
X1670659Y2199894D01*
X1667814Y2202840D01*
X1666646Y2204720D01*
X1662531Y2208784D01*
X1657654Y2211882D01*
X1652168Y2213813D01*
X1645869Y2214524D01*
X1547012Y2214524D01*
X1540662Y2213813D01*
X1535226Y2211882D01*
X1530299Y2208784D01*
X1526235Y2204720D01*
X1523136Y2199792D01*
X1521256Y2194356D01*
X1520545Y2188006D01*
X1520545Y2079193D01*
X1521256Y2072843D01*
X1523136Y2067407D01*
X1526235Y2062480D01*
X1530299Y2058416D01*
X1535226Y2055317D01*
X1538173Y2054301D01*
X1541729Y2052167D01*
X1544116Y2048764D01*
X1544980Y2044700D01*
X1544116Y2040636D01*
X1541729Y2037232D01*
X1538173Y2035098D01*
X1535226Y2034082D01*
X1530299Y2030984D01*
X1526235Y2026920D01*
X1523136Y2021992D01*
X1521256Y2016556D01*
X1520545Y2010206D01*
X1520545Y1901393D01*
X1521256Y1895043D01*
X1523136Y1889607D01*
X1526235Y1884680D01*
X1530299Y1880616D01*
X1535226Y1877517D01*
X1538173Y1876501D01*
X1541729Y1874367D01*
X1544116Y1870964D01*
X1544980Y1866900D01*
X1544116Y1862836D01*
X1541729Y1859432D01*
X1538173Y1857298D01*
X1535226Y1856282D01*
X1530299Y1853184D01*
X1526235Y1849120D01*
X1523136Y1844192D01*
X1521256Y1838756D01*
X1520545Y1832406D01*
X1520545Y1723593D01*
X1521256Y1717243D01*
X1523136Y1711807D01*
X1526235Y1706880D01*
X1530299Y1702816D01*
X1535226Y1699717D01*
X1538173Y1698701D01*
X1541729Y1696567D01*
X1544116Y1693164D01*
X1544980Y1689100D01*
X1544116Y1685036D01*
X1541729Y1681632D01*
X1538173Y1679498D01*
X1535226Y1678482D01*
X1530299Y1675384D01*
X1526235Y1671320D01*
X1523136Y1666392D01*
X1521256Y1660956D01*
X1520545Y1654606D01*
X1520545Y1545793D01*
X1521256Y1539443D01*
X1523136Y1534007D01*
X1526235Y1529080D01*
X1530299Y1525016D01*
X1535226Y1521917D01*
X1538173Y1520901D01*
X1541729Y1518767D01*
X1544116Y1515364D01*
X1544980Y1511300D01*
X1544116Y1507236D01*
X1541729Y1503832D01*
X1538173Y1501698D01*
X1535226Y1500682D01*
X1530299Y1497584D01*
X1526235Y1493520D01*
X1523136Y1488592D01*
X1521256Y1483156D01*
X1520545Y1476806D01*
X1520545Y1367993D01*
X1521256Y1361643D01*
X1523136Y1356207D01*
X1526235Y1351280D01*
X1530299Y1347216D01*
X1535226Y1344117D01*
X1538173Y1343101D01*
X1541729Y1340967D01*
X1544116Y1337564D01*
X1544980Y1333500D01*
X1544116Y1329436D01*
X1541729Y1326032D01*
X1538173Y1323898D01*
X1535226Y1322882D01*
X1530299Y1319784D01*
X1526235Y1315720D01*
X1523136Y1310792D01*
X1521256Y1305356D01*
X1520545Y1299006D01*
X1520545Y1190193D01*
X1521256Y1183843D01*
X1523136Y1178407D01*
X1526235Y1173480D01*
X1530299Y1169416D01*
X1535226Y1166317D01*
X1538173Y1165301D01*
X1541729Y1163167D01*
X1544116Y1159764D01*
X1544980Y1155700D01*
X1544116Y1151636D01*
X1541729Y1148232D01*
X1538173Y1146098D01*
X1535226Y1145082D01*
X1530299Y1141984D01*
X1526235Y1137920D01*
X1523136Y1132992D01*
X1521256Y1127556D01*
X1520545Y1121206D01*
X1520545Y1012393D01*
X1521256Y1006043D01*
X1523136Y1000607D01*
X1526235Y995680D01*
X1530299Y991616D01*
X1535226Y988517D01*
X1538173Y987501D01*
X1541729Y985367D01*
X1544116Y981964D01*
X1544980Y977900D01*
X1544116Y973836D01*
X1541729Y970432D01*
X1538173Y968298D01*
X1535226Y967282D01*
X1530299Y964184D01*
X1526235Y960119D01*
X1523136Y955192D01*
X1521256Y949756D01*
X1520545Y943406D01*
X1520545Y834593D01*
X1521256Y828243D01*
X1523136Y822807D01*
X1526235Y817880D01*
X1530299Y813816D01*
X1535226Y810717D01*
X1540662Y808786D01*
X1547012Y808075D01*
X1618538Y808075D01*
X1622450Y807313D01*
X1625752Y805129D01*
X1657705Y773176D01*
X1663903Y768045D01*
X1670608Y764489D01*
X1677822Y762304D01*
X1685848Y761492D01*
X1815642Y761492D01*
X1823669Y762304D01*
X1830882Y764489D01*
X1837537Y768045D01*
X1843786Y773176D01*
X2043480Y972870D01*
X2046376Y974902D01*
X2049780Y975817D01*
X2053336Y975512D01*
X2056536Y973988D01*
X2065274Y967841D01*
X2074062Y963726D01*
X2079345Y962304D01*
X2083257Y960272D01*
X2085949Y956818D01*
X2086914Y952500D01*
X2085949Y948182D01*
X2083257Y944727D01*
X2079345Y942695D01*
X2074062Y941273D01*
X2065274Y937158D01*
X2057349Y931621D01*
X2050491Y924763D01*
X2044903Y916787D01*
X2040788Y907999D01*
X2039112Y901700D01*
X2168652Y901700D01*
X2168652Y950163D01*
X2169414Y954074D01*
X2171598Y957376D01*
X2174900Y959561D01*
X2178812Y960323D01*
X2183892Y960323D01*
X2187752Y959561D01*
X2191054Y957376D01*
X2193239Y954074D01*
X2194052Y950163D01*
X2194052Y901700D01*
X2323541Y901700D01*
X2321864Y907999D01*
X2317750Y916787D01*
X2312162Y924763D01*
X2305304Y931621D01*
X2297379Y937158D01*
X2288590Y941273D01*
X2283307Y942695D01*
X2279396Y944727D01*
X2276703Y948182D01*
X2275738Y952500D01*
X2276703Y956818D01*
X2279396Y960272D01*
X2283307Y962304D01*
X2288590Y963726D01*
X2297379Y967841D01*
X2309622Y976630D01*
X2313533Y977392D01*
X2583332Y977392D01*
X2587193Y976630D01*
X2590495Y974394D01*
X2766364Y798576D01*
X2772613Y793445D01*
X2779268Y789889D01*
X2786481Y787704D01*
X2794508Y786892D01*
X4609795Y786892D01*
X4613706Y786130D01*
X4617008Y783894D01*
X4768951Y631952D01*
X4771237Y628548D01*
X4771948Y624535D01*
X4771034Y620572D01*
X4768189Y614222D01*
X4763668Y599744D01*
X4760925Y584758D01*
X4760010Y569620D01*
X4760925Y554431D01*
X4763668Y539496D01*
X4768189Y524967D01*
X4774438Y511098D01*
X4782312Y498093D01*
X4791659Y486105D01*
X4802428Y475386D01*
X4814417Y465988D01*
X4827422Y458114D01*
X4841290Y451916D01*
X4855768Y447395D01*
X4870754Y444652D01*
G37*
G36*
X5185664Y5473700D02*
G01*
X5448300Y5473700D01*
X5448300Y5736437D01*
X5443677Y5736336D01*
X5420715Y5733948D01*
X5398008Y5729630D01*
X5375757Y5723382D01*
X5354066Y5715355D01*
X5333187Y5705500D01*
X5313172Y5693968D01*
X5294172Y5680760D01*
X5276392Y5666028D01*
X5259882Y5649874D01*
X5244795Y5632348D01*
X5231180Y5613704D01*
X5219242Y5593892D01*
X5208981Y5573217D01*
X5200446Y5551728D01*
X5193792Y5529630D01*
X5188966Y5507024D01*
X5186070Y5484063D01*
G37*
G36*
X1154887Y520700D02*
G01*
X1257300Y520700D01*
X1257300Y622960D01*
X1248308Y621842D01*
X1234186Y618236D01*
X1220673Y612851D01*
X1207922Y605840D01*
X1196136Y597306D01*
X1185519Y587349D01*
X1176223Y576122D01*
X1168450Y563829D01*
X1162253Y550672D01*
X1157732Y536803D01*
X1155039Y522528D01*
G37*
G36*
X1282700Y520700D02*
G01*
X1385112Y520700D01*
X1384960Y522528D01*
X1382268Y536803D01*
X1377746Y550672D01*
X1371549Y563829D01*
X1363776Y576122D01*
X1354480Y587349D01*
X1343863Y597306D01*
X1332077Y605840D01*
X1319326Y612851D01*
X1305814Y618236D01*
X1291691Y621842D01*
X1282700Y622960D01*
G37*
G36*
X105664Y5473700D02*
G01*
X368300Y5473700D01*
X368300Y5736437D01*
X363677Y5736336D01*
X340715Y5733948D01*
X318008Y5729630D01*
X295757Y5723382D01*
X274066Y5715355D01*
X253187Y5705500D01*
X233171Y5693968D01*
X214172Y5680760D01*
X196392Y5666028D01*
X179882Y5649874D01*
X164795Y5632348D01*
X151180Y5613704D01*
X139242Y5593892D01*
X128981Y5573217D01*
X120446Y5551728D01*
X113792Y5529630D01*
X108966Y5507024D01*
X106070Y5484063D01*
G37*
G36*
X762000Y642162D02*
G01*
X771804Y643026D01*
X781253Y645566D01*
X790194Y649681D01*
X798220Y655320D01*
X799795Y656894D01*
X803097Y659130D01*
X807008Y659892D01*
X1859991Y659892D01*
X1863902Y659130D01*
X1867204Y656894D01*
X1868779Y655320D01*
X1876806Y649681D01*
X1885746Y645566D01*
X1895195Y643026D01*
X1905000Y642162D01*
X1914804Y643026D01*
X1924253Y645566D01*
X1933193Y649681D01*
X1941220Y655320D01*
X1942795Y656894D01*
X1946097Y659130D01*
X1950008Y659892D01*
X3396691Y659892D01*
X3400602Y659130D01*
X3403904Y656894D01*
X3405479Y655320D01*
X3413506Y649681D01*
X3422446Y645566D01*
X3431895Y643026D01*
X3441700Y642162D01*
X3451504Y643026D01*
X3460953Y645566D01*
X3469894Y649681D01*
X3477920Y655320D01*
X3484879Y662279D01*
X3490518Y670306D01*
X3494633Y679246D01*
X3497173Y688695D01*
X3498037Y698500D01*
X3497173Y708304D01*
X3494633Y717753D01*
X3490518Y726694D01*
X3484879Y734720D01*
X3477920Y741680D01*
X3469894Y747318D01*
X3460953Y751433D01*
X3451504Y753973D01*
X3441700Y754837D01*
X3431895Y753973D01*
X3422446Y751433D01*
X3413506Y747318D01*
X3405479Y741680D01*
X3403904Y740105D01*
X3400602Y737870D01*
X3396691Y737108D01*
X1950008Y737108D01*
X1946097Y737870D01*
X1942795Y740105D01*
X1941220Y741680D01*
X1933193Y747318D01*
X1924253Y751433D01*
X1914804Y753973D01*
X1905000Y754837D01*
X1895195Y753973D01*
X1885746Y751433D01*
X1876806Y747318D01*
X1868779Y741680D01*
X1867204Y740105D01*
X1863902Y737870D01*
X1859991Y737108D01*
X807008Y737108D01*
X803097Y737870D01*
X799795Y740105D01*
X798220Y741680D01*
X790194Y747318D01*
X781253Y751433D01*
X771804Y753973D01*
X762000Y754837D01*
X752195Y753973D01*
X742746Y751433D01*
X733806Y747318D01*
X725779Y741680D01*
X718820Y734720D01*
X713181Y726694D01*
X709066Y717753D01*
X706526Y708304D01*
X705662Y698500D01*
X706526Y688695D01*
X709066Y679246D01*
X713181Y670306D01*
X718820Y662279D01*
X725779Y655320D01*
X733806Y649681D01*
X742746Y645566D01*
X752195Y643026D01*
G37*
G36*
X393700Y5185613D02*
G01*
X409854Y5186629D01*
X432714Y5189982D01*
X455218Y5195265D01*
X477164Y5202428D01*
X498500Y5211368D01*
X518972Y5222087D01*
X538480Y5234432D01*
X556869Y5248402D01*
X574040Y5263896D01*
X589838Y5280710D01*
X604215Y5298846D01*
X617016Y5318099D01*
X628142Y5338318D01*
X637540Y5359450D01*
X645109Y5381244D01*
X650849Y5403646D01*
X654710Y5426405D01*
X656590Y5448300D01*
X393700Y5448300D01*
G37*
G36*
X5473700Y5185613D02*
G01*
X5489854Y5186629D01*
X5512714Y5189982D01*
X5535218Y5195265D01*
X5557164Y5202428D01*
X5578500Y5211368D01*
X5598972Y5222087D01*
X5618480Y5234432D01*
X5636869Y5248402D01*
X5654040Y5263896D01*
X5669838Y5280710D01*
X5684215Y5298846D01*
X5697016Y5318099D01*
X5708142Y5338318D01*
X5717540Y5359450D01*
X5725109Y5381244D01*
X5730849Y5403646D01*
X5734710Y5426405D01*
X5736590Y5448300D01*
X5473700Y5448300D01*
G37*
G36*
X368300Y5185562D02*
G01*
X368300Y5448300D01*
X105664Y5448300D01*
X106070Y5437936D01*
X108966Y5414975D01*
X113792Y5392369D01*
X120446Y5370271D01*
X128981Y5348782D01*
X139242Y5328107D01*
X151180Y5308295D01*
X164795Y5289600D01*
X179882Y5272125D01*
X196392Y5255971D01*
X214172Y5241239D01*
X233171Y5228031D01*
X253187Y5216499D01*
X274066Y5206644D01*
X295757Y5198618D01*
X318008Y5192369D01*
X340715Y5188051D01*
X363677Y5185664D01*
G37*
G36*
X5448300Y5185562D02*
G01*
X5448300Y5448300D01*
X5185664Y5448300D01*
X5186070Y5437936D01*
X5188966Y5414975D01*
X5193792Y5392369D01*
X5200446Y5370271D01*
X5208981Y5348782D01*
X5219242Y5328107D01*
X5231180Y5308295D01*
X5244795Y5289600D01*
X5259882Y5272125D01*
X5276392Y5255971D01*
X5294172Y5241239D01*
X5313172Y5228031D01*
X5333187Y5216499D01*
X5354066Y5206644D01*
X5375757Y5198618D01*
X5398008Y5192369D01*
X5420715Y5188051D01*
X5443677Y5185664D01*
G37*
G36*
X3089910Y5105400D02*
G01*
X3143097Y5105400D01*
X3143097Y5163616D01*
X3116376Y5163616D01*
X3110077Y5162905D01*
X3104591Y5160975D01*
X3099714Y5157927D01*
X3095599Y5153812D01*
X3092500Y5148935D01*
X3090621Y5143449D01*
X3089910Y5137150D01*
G37*
G36*
X3116376Y5021783D02*
G01*
X3143097Y5021783D01*
X3143097Y5080000D01*
X3089910Y5080000D01*
X3089910Y5048250D01*
X3090621Y5041950D01*
X3092500Y5036464D01*
X3095599Y5031587D01*
X3099714Y5027472D01*
X3104591Y5024424D01*
X3110077Y5022494D01*
G37*
G36*
X2093518Y833323D02*
G01*
X2168652Y833323D01*
X2168652Y876300D01*
X2039112Y876300D01*
X2040788Y870000D01*
X2044903Y861212D01*
X2050491Y853236D01*
X2057349Y846378D01*
X2065274Y840841D01*
X2074062Y836726D01*
X2083409Y834237D01*
G37*
G36*
X2194052Y833323D02*
G01*
X2269134Y833323D01*
X2279243Y834237D01*
X2288590Y836726D01*
X2297379Y840841D01*
X2305304Y846378D01*
X2312162Y853236D01*
X2317750Y861212D01*
X2321864Y870000D01*
X2323541Y876300D01*
X2194052Y876300D01*
G37*
G36*
X2194001Y4953000D02*
G01*
X2323490Y4953000D01*
X2321814Y4959299D01*
X2317699Y4968087D01*
X2312162Y4976063D01*
X2305304Y4982921D01*
X2297379Y4988458D01*
X2288590Y4992573D01*
X2279192Y4995062D01*
X2269083Y4995976D01*
X2194001Y4995976D01*
G37*
G36*
X2039112Y4953000D02*
G01*
X2168601Y4953000D01*
X2168601Y4995976D01*
X2093518Y4995976D01*
X2083409Y4995062D01*
X2074011Y4992573D01*
X2065223Y4988458D01*
X2057298Y4982921D01*
X2050440Y4976063D01*
X2044903Y4968087D01*
X2040788Y4959299D01*
G37*
G36*
X2985109Y4826000D02*
G01*
X3114598Y4826000D01*
X3114598Y4874463D01*
X3115360Y4878374D01*
X3117596Y4881676D01*
X3120847Y4883861D01*
X3124758Y4884623D01*
X3129838Y4884623D01*
X3133750Y4883861D01*
X3137001Y4881676D01*
X3139236Y4878374D01*
X3139998Y4874463D01*
X3139998Y4826000D01*
X3269488Y4826000D01*
X3267811Y4832299D01*
X3263696Y4841087D01*
X3258159Y4849063D01*
X3251301Y4855921D01*
X3243376Y4861458D01*
X3234588Y4865573D01*
X3229254Y4866995D01*
X3225342Y4869027D01*
X3222701Y4872482D01*
X3221736Y4876800D01*
X3222701Y4881118D01*
X3225342Y4884572D01*
X3229254Y4886604D01*
X3234588Y4888026D01*
X3243376Y4892141D01*
X3255619Y4900930D01*
X3259531Y4901692D01*
X3263392Y4901692D01*
X3271418Y4902504D01*
X3278632Y4904689D01*
X3285337Y4908245D01*
X3291535Y4913376D01*
X3322777Y4944567D01*
X3327857Y4950764D01*
X3331413Y4957470D01*
X3333648Y4964684D01*
X3334410Y4972710D01*
X3334410Y5012791D01*
X3335274Y5016855D01*
X3337661Y5020259D01*
X3341217Y5022392D01*
X3347008Y5024424D01*
X3351885Y5027472D01*
X3356000Y5031587D01*
X3359099Y5036464D01*
X3360978Y5041950D01*
X3361334Y5045049D01*
X3362401Y5048605D01*
X3364687Y5051501D01*
X3367786Y5053431D01*
X3371443Y5054092D01*
X3396691Y5054092D01*
X3400602Y5053330D01*
X3403904Y5051094D01*
X3405479Y5049520D01*
X3413506Y5043881D01*
X3422446Y5039766D01*
X3431895Y5037226D01*
X3441700Y5036362D01*
X3451504Y5037226D01*
X3460953Y5039766D01*
X3469894Y5043881D01*
X3477920Y5049520D01*
X3484879Y5056479D01*
X3490518Y5064506D01*
X3494633Y5073446D01*
X3497173Y5082895D01*
X3498037Y5092700D01*
X3497173Y5102504D01*
X3494633Y5111953D01*
X3490518Y5120894D01*
X3484879Y5128920D01*
X3477920Y5135880D01*
X3469894Y5141518D01*
X3460953Y5145633D01*
X3451504Y5148173D01*
X3441700Y5149037D01*
X3431895Y5148173D01*
X3422446Y5145633D01*
X3413506Y5141518D01*
X3405479Y5135880D01*
X3403904Y5134305D01*
X3400602Y5132070D01*
X3396691Y5131308D01*
X3371443Y5131308D01*
X3367786Y5131968D01*
X3364687Y5133898D01*
X3362401Y5136794D01*
X3361334Y5140350D01*
X3360978Y5143449D01*
X3359099Y5148935D01*
X3356000Y5153812D01*
X3351885Y5157927D01*
X3347008Y5160975D01*
X3341522Y5162905D01*
X3335223Y5163616D01*
X3256381Y5163616D01*
X3250031Y5162905D01*
X3244596Y5160975D01*
X3239668Y5157927D01*
X3235604Y5153812D01*
X3234385Y5151932D01*
X3231591Y5148986D01*
X3227832Y5147360D01*
X3223768Y5147360D01*
X3220008Y5148986D01*
X3217214Y5151932D01*
X3215995Y5153812D01*
X3211931Y5157927D01*
X3207004Y5160975D01*
X3201568Y5162905D01*
X3195218Y5163616D01*
X3168497Y5163616D01*
X3168497Y5105400D01*
X3219704Y5105400D01*
X3223615Y5104638D01*
X3226917Y5102402D01*
X3229102Y5099151D01*
X3229864Y5095240D01*
X3229864Y5090160D01*
X3229102Y5086248D01*
X3226917Y5082997D01*
X3223615Y5080762D01*
X3219704Y5080000D01*
X3168497Y5080000D01*
X3168497Y5021783D01*
X3195218Y5021783D01*
X3201568Y5022494D01*
X3207004Y5024424D01*
X3211931Y5027472D01*
X3215995Y5031587D01*
X3217214Y5033467D01*
X3220008Y5036413D01*
X3223768Y5038039D01*
X3227832Y5038039D01*
X3231591Y5036413D01*
X3234385Y5033467D01*
X3235604Y5031587D01*
X3239668Y5027472D01*
X3244596Y5024424D01*
X3250387Y5022392D01*
X3253943Y5020259D01*
X3256330Y5016855D01*
X3257194Y5012791D01*
X3257194Y4997958D01*
X3256381Y4993995D01*
X3254095Y4990642D01*
X3250692Y4988458D01*
X3246678Y4987798D01*
X3242767Y4988763D01*
X3234588Y4992573D01*
X3225190Y4995062D01*
X3215081Y4995976D01*
X3039516Y4995976D01*
X3029407Y4995062D01*
X3020009Y4992573D01*
X3011220Y4988458D01*
X3003296Y4982921D01*
X2996438Y4976063D01*
X2990900Y4968087D01*
X2986786Y4959299D01*
X2984296Y4949952D01*
X2983433Y4940300D01*
X2984296Y4930648D01*
X2986786Y4921300D01*
X2990900Y4912512D01*
X2996438Y4904536D01*
X3003296Y4897678D01*
X3011220Y4892141D01*
X3020009Y4888026D01*
X3025343Y4886604D01*
X3029254Y4884572D01*
X3031896Y4881118D01*
X3032861Y4876800D01*
X3031896Y4872482D01*
X3029254Y4869027D01*
X3025343Y4866995D01*
X3020009Y4865573D01*
X3011220Y4861458D01*
X3003296Y4855921D01*
X2996438Y4849063D01*
X2990900Y4841087D01*
X2986786Y4832299D01*
G37*
G36*
X2194001Y3741623D02*
G01*
X2269083Y3741623D01*
X2279192Y3742537D01*
X2288590Y3745026D01*
X2297379Y3749141D01*
X2305304Y3754678D01*
X2312162Y3761536D01*
X2317699Y3769512D01*
X2321814Y3778300D01*
X2323490Y3784600D01*
X2194001Y3784600D01*
G37*
G36*
X2093518Y3741623D02*
G01*
X2168601Y3741623D01*
X2168601Y3784600D01*
X2039112Y3784600D01*
X2040788Y3778300D01*
X2044903Y3769512D01*
X2050440Y3761536D01*
X2057298Y3754678D01*
X2065223Y3749141D01*
X2074011Y3745026D01*
X2083409Y3742537D01*
G37*
G36*
X4885893Y3351987D02*
G01*
X4901082Y3352901D01*
X4916017Y3355644D01*
X4930546Y3360165D01*
X4944414Y3366414D01*
X4957419Y3374288D01*
X4969357Y3383686D01*
X4980127Y3394405D01*
X4989474Y3406394D01*
X4997348Y3419398D01*
X5003596Y3433267D01*
X5008118Y3447745D01*
X5010861Y3462731D01*
X5011775Y3477869D01*
X5010861Y3493058D01*
X5008118Y3508044D01*
X5003596Y3522522D01*
X4997348Y3536391D01*
X4989474Y3549396D01*
X4980127Y3561384D01*
X4969357Y3572103D01*
X4957419Y3581501D01*
X4944414Y3589375D01*
X4930495Y3595624D01*
X4927295Y3597859D01*
X4925212Y3601110D01*
X4924501Y3604869D01*
X4925212Y3608679D01*
X4927295Y3611930D01*
X4930495Y3614165D01*
X4944414Y3620414D01*
X4957419Y3628288D01*
X4969357Y3637686D01*
X4980127Y3648405D01*
X4989474Y3660394D01*
X4997348Y3673398D01*
X5003596Y3687267D01*
X5008118Y3701745D01*
X5010861Y3716731D01*
X5011775Y3731869D01*
X5010861Y3747058D01*
X5008118Y3762044D01*
X5003596Y3776522D01*
X4997348Y3790391D01*
X4989474Y3803396D01*
X4980127Y3815384D01*
X4969357Y3826103D01*
X4957419Y3835501D01*
X4944414Y3843375D01*
X4930495Y3849624D01*
X4927295Y3851859D01*
X4925212Y3855110D01*
X4924501Y3858869D01*
X4925212Y3862679D01*
X4927295Y3865930D01*
X4930495Y3868165D01*
X4944414Y3874414D01*
X4957419Y3882288D01*
X4969357Y3891686D01*
X4980127Y3902405D01*
X4989474Y3914394D01*
X4997348Y3927398D01*
X5003596Y3941267D01*
X5008118Y3955745D01*
X5010861Y3970731D01*
X5011775Y3985869D01*
X5010861Y4001058D01*
X5008118Y4016044D01*
X5003596Y4030522D01*
X4997348Y4044391D01*
X4989474Y4057396D01*
X4980127Y4069384D01*
X4969357Y4080103D01*
X4957419Y4089501D01*
X4944414Y4097375D01*
X4930495Y4103624D01*
X4927295Y4105859D01*
X4925212Y4109110D01*
X4924501Y4112869D01*
X4925212Y4116679D01*
X4927295Y4119930D01*
X4930495Y4122165D01*
X4944414Y4128414D01*
X4957419Y4136288D01*
X4969357Y4145686D01*
X4980127Y4156405D01*
X4989474Y4168394D01*
X4997348Y4181398D01*
X5003596Y4195267D01*
X5008118Y4209745D01*
X5010861Y4224731D01*
X5011775Y4239869D01*
X5010861Y4255058D01*
X5008118Y4270044D01*
X5003596Y4284522D01*
X4997348Y4298391D01*
X4989474Y4311396D01*
X4980127Y4323384D01*
X4969357Y4334103D01*
X4957419Y4343501D01*
X4944414Y4351375D01*
X4930495Y4357624D01*
X4927295Y4359859D01*
X4925212Y4363110D01*
X4924501Y4366869D01*
X4925212Y4370679D01*
X4927295Y4373930D01*
X4930495Y4376166D01*
X4944414Y4382414D01*
X4957419Y4390288D01*
X4969357Y4399686D01*
X4980127Y4410405D01*
X4989474Y4422394D01*
X4997348Y4435398D01*
X5003596Y4449267D01*
X5008118Y4463745D01*
X5010861Y4478731D01*
X5011775Y4493869D01*
X5010861Y4509058D01*
X5008118Y4524044D01*
X5003596Y4538522D01*
X4997348Y4552391D01*
X4989474Y4565396D01*
X4980127Y4577384D01*
X4969357Y4588103D01*
X4957419Y4597501D01*
X4944414Y4605375D01*
X4930495Y4611624D01*
X4927295Y4613859D01*
X4925212Y4617110D01*
X4924501Y4620869D01*
X4925212Y4624679D01*
X4927295Y4627930D01*
X4930495Y4630166D01*
X4944414Y4636414D01*
X4957419Y4644288D01*
X4969357Y4653686D01*
X4980127Y4664405D01*
X4989474Y4676394D01*
X4997348Y4689398D01*
X5003596Y4703267D01*
X5008118Y4717745D01*
X5010861Y4732731D01*
X5011775Y4747869D01*
X5010861Y4763058D01*
X5008118Y4778044D01*
X5003596Y4792522D01*
X4997348Y4806391D01*
X4989474Y4819396D01*
X4980127Y4831384D01*
X4969357Y4842103D01*
X4957419Y4851501D01*
X4944414Y4859375D01*
X4930495Y4865624D01*
X4927295Y4867859D01*
X4925212Y4871110D01*
X4924501Y4874869D01*
X4925212Y4878679D01*
X4927295Y4881930D01*
X4930495Y4884166D01*
X4944414Y4890414D01*
X4957419Y4898288D01*
X4969357Y4907686D01*
X4980127Y4918405D01*
X4989474Y4930394D01*
X4997348Y4943398D01*
X5003596Y4957267D01*
X5008118Y4971745D01*
X5010861Y4986731D01*
X5011775Y5001869D01*
X5010861Y5017058D01*
X5008118Y5032044D01*
X5003596Y5046522D01*
X4997348Y5060391D01*
X4989474Y5073396D01*
X4980127Y5085384D01*
X4969357Y5096103D01*
X4957419Y5105501D01*
X4944414Y5113375D01*
X4930495Y5119624D01*
X4927295Y5121859D01*
X4925212Y5125110D01*
X4924501Y5128869D01*
X4925212Y5132679D01*
X4927295Y5135930D01*
X4930495Y5138166D01*
X4944414Y5144414D01*
X4957419Y5152288D01*
X4969357Y5161686D01*
X4980127Y5172405D01*
X4989474Y5184394D01*
X4997348Y5197398D01*
X5003596Y5211267D01*
X5008118Y5225745D01*
X5010861Y5240731D01*
X5011775Y5255869D01*
X5010861Y5271058D01*
X5008118Y5286044D01*
X5003596Y5300522D01*
X4997348Y5314391D01*
X4989474Y5327396D01*
X4980127Y5339384D01*
X4969357Y5350103D01*
X4957419Y5359501D01*
X4944414Y5367375D01*
X4930546Y5373624D01*
X4916017Y5378145D01*
X4901082Y5380888D01*
X4885893Y5381802D01*
X4870704Y5380888D01*
X4855768Y5378145D01*
X4841240Y5373624D01*
X4827371Y5367375D01*
X4814366Y5359501D01*
X4802428Y5350103D01*
X4791659Y5339384D01*
X4782312Y5327396D01*
X4774438Y5314391D01*
X4768189Y5300522D01*
X4763668Y5286044D01*
X4760925Y5271058D01*
X4760010Y5255869D01*
X4760925Y5240731D01*
X4763668Y5225745D01*
X4768189Y5211267D01*
X4771034Y5204968D01*
X4771898Y5201005D01*
X4771186Y5196992D01*
X4768951Y5193588D01*
X4239717Y4664405D01*
X4236415Y4662170D01*
X4232503Y4661408D01*
X3279495Y4661408D01*
X3275838Y4662068D01*
X3272688Y4663998D01*
X3270453Y4666945D01*
X3269386Y4670501D01*
X3269691Y4674209D01*
X3270300Y4676648D01*
X3271164Y4686300D01*
X3270300Y4695952D01*
X3267811Y4705299D01*
X3263696Y4714087D01*
X3258159Y4722063D01*
X3251301Y4728921D01*
X3243376Y4734458D01*
X3234588Y4738573D01*
X3229254Y4739995D01*
X3225342Y4742027D01*
X3222701Y4745482D01*
X3221736Y4749800D01*
X3222701Y4754118D01*
X3225342Y4757572D01*
X3229254Y4759604D01*
X3234588Y4761026D01*
X3243376Y4765141D01*
X3251301Y4770678D01*
X3258159Y4777536D01*
X3263696Y4785512D01*
X3267811Y4794300D01*
X3269488Y4800600D01*
X3139998Y4800600D01*
X3139998Y4752136D01*
X3139236Y4748225D01*
X3137001Y4744923D01*
X3133750Y4742738D01*
X3129838Y4741976D01*
X3124758Y4741976D01*
X3120847Y4742738D01*
X3117596Y4744923D01*
X3115360Y4748225D01*
X3114598Y4752136D01*
X3114598Y4800600D01*
X2985109Y4800600D01*
X2986786Y4794300D01*
X2990900Y4785512D01*
X2996438Y4777536D01*
X3003296Y4770678D01*
X3011220Y4765141D01*
X3020009Y4761026D01*
X3025343Y4759604D01*
X3029254Y4757572D01*
X3031896Y4754118D01*
X3032861Y4749800D01*
X3031896Y4745482D01*
X3029254Y4742027D01*
X3025343Y4739995D01*
X3020009Y4738573D01*
X3011220Y4734458D01*
X2998978Y4725670D01*
X2995066Y4724908D01*
X2814218Y4724908D01*
X2810306Y4725670D01*
X2807004Y4727905D01*
X2631135Y4903724D01*
X2624937Y4908854D01*
X2618232Y4912410D01*
X2611018Y4914595D01*
X2602992Y4915408D01*
X2333498Y4915408D01*
X2329840Y4916068D01*
X2326690Y4917998D01*
X2324455Y4920945D01*
X2323388Y4924501D01*
X2323642Y4927600D01*
X2194001Y4927600D01*
X2194001Y4925568D01*
X2193239Y4921656D01*
X2191004Y4918405D01*
X2187752Y4916170D01*
X2183841Y4915408D01*
X2178761Y4915408D01*
X2174849Y4916170D01*
X2171598Y4918405D01*
X2169363Y4921656D01*
X2168601Y4925568D01*
X2168601Y4927600D01*
X2040026Y4927600D01*
X2036114Y4928362D01*
X2032812Y4930597D01*
X2027732Y4935677D01*
X2025548Y4938928D01*
X2025294Y4940096D01*
X2024024Y4940401D01*
X2020874Y4942535D01*
X1894535Y5068824D01*
X1888337Y5073954D01*
X1881632Y5077510D01*
X1874418Y5079695D01*
X1866392Y5080508D01*
X1842465Y5080508D01*
X1838553Y5081270D01*
X1835302Y5083505D01*
X1833067Y5086756D01*
X1832305Y5090668D01*
X1832305Y5096306D01*
X1831593Y5102656D01*
X1829663Y5108092D01*
X1826615Y5113020D01*
X1822500Y5117084D01*
X1817624Y5120182D01*
X1812137Y5122113D01*
X1805838Y5122824D01*
X1706981Y5122824D01*
X1700631Y5122113D01*
X1695196Y5120182D01*
X1690268Y5117084D01*
X1686204Y5113020D01*
X1684985Y5111140D01*
X1682191Y5108194D01*
X1678432Y5106568D01*
X1674368Y5106568D01*
X1670608Y5108194D01*
X1667814Y5111140D01*
X1666595Y5113020D01*
X1662531Y5117084D01*
X1657604Y5120182D01*
X1652168Y5122113D01*
X1645818Y5122824D01*
X1546961Y5122824D01*
X1540662Y5122113D01*
X1535176Y5120182D01*
X1530299Y5117084D01*
X1526184Y5113020D01*
X1523136Y5108092D01*
X1521206Y5102656D01*
X1520494Y5096306D01*
X1520494Y4987493D01*
X1521206Y4981143D01*
X1523136Y4975707D01*
X1526184Y4970780D01*
X1530299Y4966716D01*
X1535176Y4963617D01*
X1538122Y4962601D01*
X1541678Y4960467D01*
X1544066Y4957064D01*
X1544929Y4953000D01*
X1544066Y4948936D01*
X1541678Y4945532D01*
X1538122Y4943398D01*
X1535176Y4942382D01*
X1530299Y4939284D01*
X1526184Y4935220D01*
X1523136Y4930292D01*
X1521206Y4924856D01*
X1520494Y4918506D01*
X1520494Y4809693D01*
X1521206Y4803343D01*
X1523136Y4797907D01*
X1526184Y4792980D01*
X1530299Y4788916D01*
X1535176Y4785817D01*
X1538122Y4784801D01*
X1541678Y4782667D01*
X1544066Y4779264D01*
X1544929Y4775200D01*
X1544066Y4771136D01*
X1541678Y4767732D01*
X1538122Y4765598D01*
X1535176Y4764582D01*
X1530299Y4761484D01*
X1526184Y4757420D01*
X1523136Y4752492D01*
X1521206Y4747056D01*
X1520494Y4740706D01*
X1520494Y4631893D01*
X1521206Y4625543D01*
X1523136Y4620107D01*
X1526184Y4615180D01*
X1530299Y4611116D01*
X1535176Y4608017D01*
X1538122Y4607001D01*
X1541678Y4604867D01*
X1544066Y4601464D01*
X1544929Y4597400D01*
X1544066Y4593336D01*
X1541678Y4589932D01*
X1538122Y4587798D01*
X1535176Y4586782D01*
X1530299Y4583684D01*
X1526184Y4579620D01*
X1523136Y4574692D01*
X1521206Y4569256D01*
X1520494Y4562906D01*
X1520494Y4454093D01*
X1521206Y4447743D01*
X1523136Y4442307D01*
X1526184Y4437380D01*
X1530299Y4433316D01*
X1535176Y4430217D01*
X1538122Y4429201D01*
X1541678Y4427067D01*
X1544066Y4423664D01*
X1544929Y4419600D01*
X1544066Y4415536D01*
X1541678Y4412132D01*
X1538122Y4409998D01*
X1535176Y4408982D01*
X1530299Y4405884D01*
X1526184Y4401820D01*
X1523136Y4396892D01*
X1521206Y4391456D01*
X1520494Y4385106D01*
X1520494Y4276293D01*
X1521206Y4269943D01*
X1523136Y4264507D01*
X1526184Y4259580D01*
X1530299Y4255516D01*
X1535176Y4252417D01*
X1538122Y4251401D01*
X1541678Y4249267D01*
X1544066Y4245864D01*
X1544929Y4241800D01*
X1544066Y4237736D01*
X1541678Y4234332D01*
X1538122Y4232198D01*
X1535176Y4231182D01*
X1530299Y4228084D01*
X1526184Y4224020D01*
X1523136Y4219092D01*
X1521206Y4213656D01*
X1520494Y4207306D01*
X1520494Y4098493D01*
X1521206Y4092143D01*
X1523136Y4086707D01*
X1526184Y4081779D01*
X1530299Y4077715D01*
X1535176Y4074617D01*
X1538122Y4073601D01*
X1541678Y4071467D01*
X1544066Y4068064D01*
X1544929Y4064000D01*
X1544066Y4059936D01*
X1541678Y4056532D01*
X1538122Y4054398D01*
X1535176Y4053382D01*
X1530299Y4050284D01*
X1526184Y4046220D01*
X1523136Y4041292D01*
X1521206Y4035856D01*
X1520494Y4029506D01*
X1520494Y3920693D01*
X1521206Y3914343D01*
X1523136Y3908907D01*
X1526184Y3903979D01*
X1530299Y3899915D01*
X1535176Y3896817D01*
X1538122Y3895801D01*
X1541678Y3893667D01*
X1544066Y3890264D01*
X1544929Y3886200D01*
X1544066Y3882136D01*
X1541678Y3878732D01*
X1538122Y3876598D01*
X1535176Y3875582D01*
X1530299Y3872484D01*
X1526184Y3868420D01*
X1523136Y3863492D01*
X1521206Y3858056D01*
X1520494Y3851706D01*
X1520494Y3742893D01*
X1521206Y3736543D01*
X1523136Y3731107D01*
X1526184Y3726179D01*
X1530299Y3722115D01*
X1535176Y3719017D01*
X1540662Y3717086D01*
X1546961Y3716375D01*
X1618488Y3716375D01*
X1622399Y3715613D01*
X1625650Y3713429D01*
X1657654Y3681476D01*
X1663852Y3676345D01*
X1670557Y3672789D01*
X1677771Y3670604D01*
X1685798Y3669792D01*
X1815592Y3669792D01*
X1823618Y3670604D01*
X1830832Y3672789D01*
X1837537Y3676345D01*
X1843735Y3681476D01*
X2043480Y3881170D01*
X2046376Y3883202D01*
X2049780Y3884117D01*
X2053285Y3883812D01*
X2056485Y3882288D01*
X2065274Y3876141D01*
X2074011Y3872026D01*
X2079345Y3870604D01*
X2083257Y3868572D01*
X2085898Y3865118D01*
X2086864Y3860800D01*
X2085898Y3856482D01*
X2083257Y3853027D01*
X2079345Y3850995D01*
X2074011Y3849573D01*
X2065223Y3845458D01*
X2057298Y3839921D01*
X2050440Y3833063D01*
X2044903Y3825087D01*
X2040788Y3816299D01*
X2039112Y3810000D01*
X2168601Y3810000D01*
X2168601Y3858463D01*
X2169363Y3862374D01*
X2171598Y3865676D01*
X2174849Y3867861D01*
X2178761Y3868623D01*
X2183841Y3868623D01*
X2187752Y3867861D01*
X2191004Y3865676D01*
X2193239Y3862374D01*
X2194001Y3858463D01*
X2194001Y3810000D01*
X2323490Y3810000D01*
X2321814Y3816299D01*
X2317699Y3825087D01*
X2312162Y3833063D01*
X2305304Y3839921D01*
X2297379Y3845458D01*
X2288590Y3849573D01*
X2283256Y3850995D01*
X2279345Y3853027D01*
X2276703Y3856482D01*
X2275738Y3860800D01*
X2276703Y3865118D01*
X2279345Y3868572D01*
X2283256Y3870604D01*
X2288590Y3872026D01*
X2297379Y3876141D01*
X2309622Y3884929D01*
X2313533Y3885692D01*
X2583281Y3885692D01*
X2587193Y3884929D01*
X2590495Y3882694D01*
X2766364Y3706876D01*
X2772562Y3701745D01*
X2779268Y3698189D01*
X2786481Y3696004D01*
X2794508Y3695192D01*
X4609744Y3695192D01*
X4613605Y3694429D01*
X4616907Y3692194D01*
X4769002Y3540302D01*
X4771237Y3536899D01*
X4771948Y3532886D01*
X4771085Y3528923D01*
X4768189Y3522522D01*
X4763668Y3508044D01*
X4760925Y3493058D01*
X4760010Y3477869D01*
X4760925Y3462731D01*
X4763668Y3447745D01*
X4768189Y3433267D01*
X4774438Y3419398D01*
X4782312Y3406394D01*
X4791659Y3394405D01*
X4802428Y3383686D01*
X4814366Y3374288D01*
X4827371Y3366414D01*
X4841240Y3360165D01*
X4855768Y3355644D01*
X4870704Y3352901D01*
G37*
G36*
X4660900Y3000400D02*
G01*
X4674717Y3001314D01*
X4688281Y3004007D01*
X4701438Y3008477D01*
X4713833Y3014573D01*
X4725365Y3022295D01*
X4735779Y3031439D01*
X4744923Y3041853D01*
X4752594Y3053334D01*
X4758740Y3065780D01*
X4763160Y3078886D01*
X4765903Y3092450D01*
X4766767Y3106267D01*
X4765903Y3120136D01*
X4763160Y3133699D01*
X4758740Y3146806D01*
X4752594Y3159252D01*
X4744923Y3170732D01*
X4735779Y3181146D01*
X4725365Y3190290D01*
X4713833Y3198012D01*
X4701438Y3204108D01*
X4688281Y3208578D01*
X4674717Y3211271D01*
X4660900Y3212185D01*
X4647082Y3211271D01*
X4633518Y3208578D01*
X4620361Y3204108D01*
X4607966Y3198012D01*
X4596434Y3190290D01*
X4586020Y3181146D01*
X4576876Y3170732D01*
X4569206Y3159252D01*
X4563059Y3146806D01*
X4558639Y3133699D01*
X4555896Y3120136D01*
X4555032Y3106267D01*
X4555896Y3092450D01*
X4558639Y3078886D01*
X4563059Y3065780D01*
X4569206Y3053334D01*
X4576876Y3041853D01*
X4586020Y3031439D01*
X4596434Y3022295D01*
X4607966Y3014573D01*
X4620361Y3008477D01*
X4633518Y3004007D01*
X4647082Y3001314D01*
G37*
G36*
X4660900Y2613304D02*
G01*
X4674717Y2614218D01*
X4688281Y2616911D01*
X4701438Y2621381D01*
X4713833Y2627477D01*
X4725365Y2635199D01*
X4735779Y2644343D01*
X4744923Y2654757D01*
X4752594Y2666238D01*
X4758740Y2678684D01*
X4763160Y2691790D01*
X4765903Y2705354D01*
X4766767Y2719171D01*
X4765903Y2733040D01*
X4763160Y2746603D01*
X4758740Y2759710D01*
X4752594Y2772156D01*
X4744923Y2783636D01*
X4735779Y2794050D01*
X4725365Y2803194D01*
X4713833Y2810916D01*
X4701438Y2817012D01*
X4688281Y2821482D01*
X4674717Y2824175D01*
X4660900Y2825089D01*
X4647082Y2824175D01*
X4633518Y2821482D01*
X4620361Y2817012D01*
X4607966Y2810916D01*
X4596434Y2803194D01*
X4586020Y2794050D01*
X4576876Y2783636D01*
X4569206Y2772156D01*
X4563059Y2759710D01*
X4558639Y2746603D01*
X4555896Y2733040D01*
X4555032Y2719171D01*
X4555896Y2705354D01*
X4558639Y2691790D01*
X4563059Y2678684D01*
X4569206Y2666238D01*
X4576876Y2654757D01*
X4586020Y2644343D01*
X4596434Y2635199D01*
X4607966Y2627477D01*
X4620361Y2621381D01*
X4633518Y2616911D01*
X4647082Y2614218D01*
G37*
G36*
X3089910Y2197100D02*
G01*
X3143148Y2197100D01*
X3143148Y2255316D01*
X3116427Y2255316D01*
X3110077Y2254605D01*
X3104642Y2252675D01*
X3099714Y2249627D01*
X3095650Y2245512D01*
X3092551Y2240635D01*
X3090621Y2235149D01*
X3089910Y2228850D01*
G37*
G36*
X3116427Y2113483D02*
G01*
X3143148Y2113483D01*
X3143148Y2171700D01*
X3089910Y2171700D01*
X3089910Y2139950D01*
X3090621Y2133650D01*
X3092551Y2128164D01*
X3095650Y2123287D01*
X3099714Y2119172D01*
X3104642Y2116124D01*
X3110077Y2114194D01*
G37*
G36*
X2039112Y2044700D02*
G01*
X2168652Y2044700D01*
X2168652Y2087676D01*
X2093518Y2087676D01*
X2083409Y2086762D01*
X2074062Y2084273D01*
X2065274Y2080158D01*
X2057349Y2074621D01*
X2050491Y2067763D01*
X2044903Y2059787D01*
X2040788Y2050999D01*
G37*
G36*
X2985109Y1917700D02*
G01*
X3114598Y1917700D01*
X3114598Y1966163D01*
X3115411Y1970074D01*
X3117596Y1973376D01*
X3120898Y1975561D01*
X3124809Y1976323D01*
X3129889Y1976323D01*
X3133750Y1975561D01*
X3137052Y1973376D01*
X3139236Y1970074D01*
X3139998Y1966163D01*
X3139998Y1917700D01*
X3269538Y1917700D01*
X3267862Y1923999D01*
X3263747Y1932787D01*
X3258159Y1940763D01*
X3251301Y1947621D01*
X3243376Y1953158D01*
X3234588Y1957273D01*
X3229305Y1958695D01*
X3225393Y1960727D01*
X3222701Y1964182D01*
X3221786Y1968500D01*
X3222701Y1972818D01*
X3225393Y1976272D01*
X3229305Y1978304D01*
X3234588Y1979726D01*
X3243376Y1983841D01*
X3255619Y1992630D01*
X3259531Y1993392D01*
X3263442Y1993392D01*
X3271469Y1994204D01*
X3278682Y1996389D01*
X3285337Y1999945D01*
X3291586Y2005075D01*
X3322777Y2036267D01*
X3327908Y2042464D01*
X3331464Y2049170D01*
X3333648Y2056384D01*
X3334461Y2064410D01*
X3334461Y2104491D01*
X3335274Y2108555D01*
X3337712Y2111959D01*
X3341268Y2114092D01*
X3347008Y2116124D01*
X3351936Y2119172D01*
X3356000Y2123287D01*
X3359099Y2128164D01*
X3361029Y2133650D01*
X3361385Y2136749D01*
X3362451Y2140305D01*
X3364687Y2143201D01*
X3367836Y2145131D01*
X3371443Y2145792D01*
X3396691Y2145792D01*
X3400602Y2145030D01*
X3403904Y2142794D01*
X3405479Y2141220D01*
X3413506Y2135581D01*
X3422446Y2131466D01*
X3431895Y2128926D01*
X3441700Y2128062D01*
X3451504Y2128926D01*
X3460953Y2131466D01*
X3469894Y2135581D01*
X3477920Y2141220D01*
X3484879Y2148179D01*
X3490518Y2156206D01*
X3494633Y2165146D01*
X3497173Y2174595D01*
X3498037Y2184400D01*
X3497173Y2194204D01*
X3494633Y2203653D01*
X3490518Y2212594D01*
X3484879Y2220620D01*
X3477920Y2227580D01*
X3469894Y2233218D01*
X3460953Y2237333D01*
X3451504Y2239873D01*
X3441700Y2240737D01*
X3431895Y2239873D01*
X3422446Y2237333D01*
X3413506Y2233218D01*
X3405479Y2227580D01*
X3403904Y2226005D01*
X3400602Y2223770D01*
X3396691Y2223008D01*
X3371443Y2223008D01*
X3367836Y2223668D01*
X3364687Y2225598D01*
X3362451Y2228494D01*
X3361385Y2232050D01*
X3361029Y2235149D01*
X3359099Y2240635D01*
X3356000Y2245512D01*
X3351936Y2249627D01*
X3347008Y2252675D01*
X3341573Y2254605D01*
X3335223Y2255316D01*
X3256381Y2255316D01*
X3250082Y2254605D01*
X3244596Y2252675D01*
X3239719Y2249627D01*
X3235604Y2245512D01*
X3234436Y2243632D01*
X3231591Y2240686D01*
X3227882Y2239060D01*
X3223768Y2239060D01*
X3220059Y2240686D01*
X3217214Y2243632D01*
X3216046Y2245512D01*
X3211931Y2249627D01*
X3207054Y2252675D01*
X3201568Y2254605D01*
X3195269Y2255316D01*
X3168548Y2255316D01*
X3168548Y2197100D01*
X3219754Y2197100D01*
X3223615Y2196338D01*
X3226917Y2194102D01*
X3229152Y2190851D01*
X3229914Y2186940D01*
X3229914Y2181860D01*
X3229152Y2177948D01*
X3226917Y2174697D01*
X3223615Y2172462D01*
X3219754Y2171700D01*
X3168548Y2171700D01*
X3168548Y2113483D01*
X3195269Y2113483D01*
X3201568Y2114194D01*
X3207054Y2116124D01*
X3211931Y2119172D01*
X3216046Y2123287D01*
X3217214Y2125167D01*
X3220059Y2128113D01*
X3223768Y2129739D01*
X3227882Y2129739D01*
X3231591Y2128113D01*
X3234436Y2125167D01*
X3235604Y2123287D01*
X3239719Y2119172D01*
X3244596Y2116124D01*
X3250438Y2114092D01*
X3253994Y2111959D01*
X3256381Y2108555D01*
X3257245Y2104491D01*
X3257245Y2089657D01*
X3256432Y2085695D01*
X3254146Y2082342D01*
X3250692Y2080158D01*
X3246729Y2079498D01*
X3242767Y2080463D01*
X3234588Y2084273D01*
X3225241Y2086762D01*
X3215132Y2087676D01*
X3039516Y2087676D01*
X3029407Y2086762D01*
X3020060Y2084273D01*
X3011271Y2080158D01*
X3003346Y2074621D01*
X2996488Y2067763D01*
X2990900Y2059787D01*
X2986786Y2050999D01*
X2984296Y2041652D01*
X2983433Y2032000D01*
X2984296Y2022348D01*
X2986786Y2013000D01*
X2990900Y2004212D01*
X2996488Y1996236D01*
X3003346Y1989378D01*
X3011271Y1983841D01*
X3020060Y1979726D01*
X3025343Y1978304D01*
X3029254Y1976272D01*
X3031947Y1972818D01*
X3032861Y1968500D01*
X3031947Y1964182D01*
X3029254Y1960727D01*
X3025343Y1958695D01*
X3020060Y1957273D01*
X3011271Y1953158D01*
X3003346Y1947621D01*
X2996488Y1940763D01*
X2990900Y1932787D01*
X2986786Y1923999D01*
G37*
G36*
X4660900Y92100D02*
G01*
X4674717Y93014D01*
X4688281Y95707D01*
X4701438Y100177D01*
X4713833Y106273D01*
X4725365Y113995D01*
X4735779Y123139D01*
X4744923Y133553D01*
X4752594Y145034D01*
X4758740Y157480D01*
X4763160Y170586D01*
X4765903Y184150D01*
X4766767Y197967D01*
X4765903Y211836D01*
X4763160Y225399D01*
X4758740Y238506D01*
X4752594Y250952D01*
X4744923Y262432D01*
X4735779Y272846D01*
X4725365Y281990D01*
X4713833Y289712D01*
X4701438Y295808D01*
X4688281Y300278D01*
X4674717Y302971D01*
X4660900Y303885D01*
X4647082Y302971D01*
X4633518Y300278D01*
X4620361Y295808D01*
X4607966Y289712D01*
X4596434Y281990D01*
X4586020Y272846D01*
X4576876Y262432D01*
X4569206Y250952D01*
X4563059Y238506D01*
X4558639Y225399D01*
X4555896Y211836D01*
X4555032Y197967D01*
X4555896Y184150D01*
X4558639Y170586D01*
X4563059Y157480D01*
X4569206Y145034D01*
X4576876Y133553D01*
X4586020Y123139D01*
X4596434Y113995D01*
X4607966Y106273D01*
X4620361Y100177D01*
X4633518Y95707D01*
X4647082Y93014D01*
G37*
G36*
X2194052Y2044700D02*
G01*
X2323541Y2044700D01*
X2321864Y2050999D01*
X2317750Y2059787D01*
X2312162Y2067763D01*
X2305304Y2074621D01*
X2297379Y2080158D01*
X2288590Y2084273D01*
X2279243Y2086762D01*
X2269134Y2087676D01*
X2194052Y2087676D01*
G37*

%LPD*%
G36*
X3279495Y4534408D02*
G01*
X3275838Y4535068D01*
X3272688Y4536998D01*
X3270453Y4539945D01*
X3269386Y4543501D01*
X3269691Y4547209D01*
X3270300Y4549648D01*
X3271164Y4559300D01*
X3270300Y4568952D01*
X3269691Y4571390D01*
X3269386Y4575098D01*
X3270453Y4578654D01*
X3272688Y4581601D01*
X3275838Y4583531D01*
X3279495Y4584192D01*
X4252214Y4584192D01*
X4260240Y4585004D01*
X4267454Y4587189D01*
X4274159Y4590745D01*
X4280357Y4595876D01*
X4760366Y5075834D01*
X4763871Y5078120D01*
X4767986Y5078780D01*
X4772050Y5077764D01*
X4775301Y5075174D01*
X4777282Y5071516D01*
X4777638Y5067350D01*
X4776216Y5063388D01*
X4774438Y5060391D01*
X4768189Y5046522D01*
X4763668Y5032044D01*
X4760925Y5017058D01*
X4760010Y5001869D01*
X4760925Y4986731D01*
X4763668Y4971745D01*
X4768189Y4957267D01*
X4771034Y4950968D01*
X4771898Y4947005D01*
X4771186Y4942992D01*
X4768951Y4939588D01*
X4366717Y4537405D01*
X4363415Y4535170D01*
X4359503Y4534408D01*
G37*

%LPD*%
G36*
X3279495Y4407408D02*
G01*
X3275838Y4408068D01*
X3272688Y4409998D01*
X3270453Y4412945D01*
X3269386Y4416501D01*
X3269691Y4420209D01*
X3270300Y4422648D01*
X3271164Y4432300D01*
X3270300Y4441952D01*
X3269691Y4444390D01*
X3269386Y4448098D01*
X3270453Y4451654D01*
X3272688Y4454601D01*
X3275838Y4456531D01*
X3279495Y4457192D01*
X4379214Y4457192D01*
X4387240Y4458004D01*
X4394454Y4460189D01*
X4401159Y4463745D01*
X4407357Y4468876D01*
X4760366Y4821834D01*
X4763871Y4824120D01*
X4767986Y4824780D01*
X4772050Y4823764D01*
X4775301Y4821174D01*
X4777282Y4817516D01*
X4777638Y4813350D01*
X4776216Y4809388D01*
X4774438Y4806391D01*
X4768189Y4792522D01*
X4763668Y4778044D01*
X4760925Y4763058D01*
X4760010Y4747869D01*
X4760925Y4732731D01*
X4763668Y4717745D01*
X4768189Y4703267D01*
X4771034Y4696968D01*
X4771898Y4693005D01*
X4771186Y4688992D01*
X4768951Y4685588D01*
X4493717Y4410405D01*
X4490415Y4408170D01*
X4486503Y4407408D01*
G37*

%LPD*%
G36*
X3279495Y4280408D02*
G01*
X3275838Y4281068D01*
X3272688Y4282998D01*
X3270453Y4285945D01*
X3269386Y4289501D01*
X3269691Y4293209D01*
X3270300Y4295648D01*
X3271164Y4305300D01*
X3270300Y4314952D01*
X3269691Y4317390D01*
X3269386Y4321098D01*
X3270453Y4324654D01*
X3272688Y4327601D01*
X3275838Y4329531D01*
X3279495Y4330192D01*
X4506214Y4330192D01*
X4514240Y4331004D01*
X4521454Y4333189D01*
X4528159Y4336745D01*
X4534357Y4341876D01*
X4760366Y4567834D01*
X4763871Y4570120D01*
X4767986Y4570780D01*
X4772050Y4569764D01*
X4775301Y4567174D01*
X4777282Y4563516D01*
X4777638Y4559350D01*
X4776216Y4555388D01*
X4774438Y4552391D01*
X4768189Y4538522D01*
X4763668Y4524044D01*
X4760925Y4509058D01*
X4760010Y4493869D01*
X4760925Y4478731D01*
X4763668Y4463745D01*
X4768189Y4449267D01*
X4771034Y4442968D01*
X4771898Y4439005D01*
X4771186Y4434992D01*
X4768951Y4431588D01*
X4620717Y4283405D01*
X4617415Y4281170D01*
X4613503Y4280408D01*
G37*

%LPD*%
G36*
X3279495Y4153408D02*
G01*
X3275838Y4154068D01*
X3272688Y4155998D01*
X3270453Y4158945D01*
X3269386Y4162501D01*
X3269691Y4166209D01*
X3270300Y4168648D01*
X3271164Y4178300D01*
X3270300Y4187951D01*
X3269691Y4190390D01*
X3269386Y4194098D01*
X3270453Y4197654D01*
X3272688Y4200601D01*
X3275838Y4202531D01*
X3279495Y4203192D01*
X4633214Y4203192D01*
X4641240Y4204004D01*
X4648454Y4206189D01*
X4655159Y4209745D01*
X4661357Y4214876D01*
X4760366Y4313834D01*
X4763871Y4316120D01*
X4767986Y4316780D01*
X4772050Y4315764D01*
X4775301Y4313174D01*
X4777282Y4309516D01*
X4777638Y4305350D01*
X4776216Y4301388D01*
X4774438Y4298391D01*
X4768189Y4284522D01*
X4763668Y4270044D01*
X4760925Y4255058D01*
X4760010Y4239869D01*
X4760925Y4224731D01*
X4763668Y4209745D01*
X4768189Y4195267D01*
X4771034Y4188968D01*
X4771898Y4185005D01*
X4771186Y4180992D01*
X4768951Y4177588D01*
X4747717Y4156405D01*
X4744415Y4154170D01*
X4740503Y4153408D01*
G37*

%LPD*%
G36*
X3278987Y4024629D02*
G01*
X3275380Y4025290D01*
X3272231Y4027220D01*
X3269945Y4030167D01*
X3268878Y4033723D01*
X3269183Y4037431D01*
X3270300Y4041648D01*
X3271164Y4051300D01*
X3270300Y4060951D01*
X3269691Y4063390D01*
X3269386Y4067098D01*
X3270453Y4070654D01*
X3272688Y4073601D01*
X3275838Y4075531D01*
X3279495Y4076192D01*
X4760214Y4076192D01*
X4768240Y4077004D01*
X4776012Y4079341D01*
X4780229Y4079697D01*
X4784242Y4078274D01*
X4787341Y4075328D01*
X4788916Y4071416D01*
X4788814Y4067149D01*
X4786934Y4063339D01*
X4782312Y4057396D01*
X4774438Y4044391D01*
X4768240Y4030624D01*
X4766005Y4027474D01*
X4762754Y4025341D01*
X4758944Y4024629D01*
G37*

%LPD*%
G36*
X4775403Y3895293D02*
G01*
X4764430Y3898595D01*
X4756404Y3899408D01*
X3279495Y3899408D01*
X3275838Y3900068D01*
X3272688Y3901998D01*
X3270453Y3904945D01*
X3269386Y3908501D01*
X3269691Y3912209D01*
X3270300Y3914648D01*
X3271164Y3924300D01*
X3269843Y3938320D01*
X3270910Y3941876D01*
X3273145Y3944823D01*
X3276295Y3946753D01*
X3279952Y3947414D01*
X4758842Y3947414D01*
X4762652Y3946702D01*
X4765903Y3944569D01*
X4768088Y3941419D01*
X4774438Y3927398D01*
X4782312Y3914394D01*
X4784394Y3911650D01*
X4786172Y3908196D01*
X4786528Y3904284D01*
X4785309Y3900525D01*
X4782820Y3897528D01*
X4779314Y3895699D01*
G37*

%LPD*%
G36*
X4767834Y3655263D02*
G01*
X4763719Y3655923D01*
X4760214Y3658209D01*
X4657547Y3760774D01*
X4651349Y3765854D01*
X4644644Y3769410D01*
X4637430Y3771595D01*
X4629404Y3772408D01*
X3279495Y3772408D01*
X3275838Y3773068D01*
X3272688Y3774998D01*
X3270453Y3777945D01*
X3269386Y3781501D01*
X3269691Y3785209D01*
X3270300Y3787648D01*
X3271164Y3797300D01*
X3270300Y3806951D01*
X3269691Y3809390D01*
X3269386Y3813098D01*
X3270453Y3816654D01*
X3272688Y3819601D01*
X3275838Y3821531D01*
X3279495Y3822192D01*
X4736744Y3822192D01*
X4740605Y3821429D01*
X4743907Y3819245D01*
X4768951Y3794251D01*
X4771186Y3790848D01*
X4771948Y3786835D01*
X4771034Y3782872D01*
X4768189Y3776522D01*
X4763668Y3762044D01*
X4760925Y3747058D01*
X4760010Y3731869D01*
X4760925Y3716731D01*
X4763668Y3701745D01*
X4768189Y3687267D01*
X4774438Y3673398D01*
X4776063Y3670655D01*
X4777435Y3666693D01*
X4777130Y3662527D01*
X4775149Y3658870D01*
X4771847Y3656279D01*
G37*

%LPD*%
G36*
X3279495Y1626107D02*
G01*
X3275888Y1626768D01*
X3272688Y1628698D01*
X3270453Y1631645D01*
X3269386Y1635201D01*
X3269691Y1638909D01*
X3270351Y1641348D01*
X3271215Y1651000D01*
X3270351Y1660652D01*
X3269691Y1663090D01*
X3269386Y1666798D01*
X3270453Y1670354D01*
X3272688Y1673301D01*
X3275888Y1675231D01*
X3279495Y1675892D01*
X4252315Y1675892D01*
X4260342Y1676704D01*
X4267606Y1678889D01*
X4274261Y1682445D01*
X4280458Y1687575D01*
X4760214Y2167280D01*
X4763719Y2169566D01*
X4767834Y2170277D01*
X4771898Y2169261D01*
X4775200Y2166670D01*
X4777181Y2162962D01*
X4777486Y2158796D01*
X4776114Y2154885D01*
X4774438Y2152091D01*
X4768189Y2138222D01*
X4763668Y2123744D01*
X4760925Y2108758D01*
X4760010Y2093620D01*
X4760925Y2078431D01*
X4763668Y2063496D01*
X4768189Y2048967D01*
X4771034Y2042617D01*
X4771948Y2038654D01*
X4771237Y2034641D01*
X4769002Y2031238D01*
X4366818Y1629105D01*
X4363516Y1626870D01*
X4359605Y1626107D01*
G37*

%LPD*%
G36*
X3279495Y1499108D02*
G01*
X3275888Y1499768D01*
X3272688Y1501698D01*
X3270453Y1504645D01*
X3269386Y1508201D01*
X3269691Y1511909D01*
X3270351Y1514348D01*
X3271215Y1524000D01*
X3270351Y1533652D01*
X3269691Y1536090D01*
X3269386Y1539798D01*
X3270453Y1543354D01*
X3272688Y1546301D01*
X3275888Y1548231D01*
X3279495Y1548892D01*
X4379315Y1548892D01*
X4387342Y1549704D01*
X4394606Y1551889D01*
X4401261Y1555445D01*
X4407458Y1560576D01*
X4760214Y1913280D01*
X4763719Y1915566D01*
X4767834Y1916277D01*
X4771898Y1915261D01*
X4775200Y1912670D01*
X4777181Y1908962D01*
X4777486Y1904796D01*
X4776114Y1900885D01*
X4774438Y1898091D01*
X4768189Y1884222D01*
X4763668Y1869744D01*
X4760925Y1854758D01*
X4760010Y1839620D01*
X4760925Y1824431D01*
X4763668Y1809496D01*
X4768189Y1794967D01*
X4771034Y1788617D01*
X4771948Y1784654D01*
X4771237Y1780641D01*
X4769002Y1777238D01*
X4493818Y1502105D01*
X4490516Y1499870D01*
X4486605Y1499108D01*
G37*

%LPD*%
G36*
X3279495Y1372108D02*
G01*
X3275888Y1372768D01*
X3272688Y1374698D01*
X3270453Y1377645D01*
X3269386Y1381201D01*
X3269691Y1384909D01*
X3270351Y1387348D01*
X3271215Y1397000D01*
X3270351Y1406652D01*
X3269691Y1409090D01*
X3269386Y1412798D01*
X3270453Y1416354D01*
X3272688Y1419301D01*
X3275888Y1421231D01*
X3279495Y1421892D01*
X4506315Y1421892D01*
X4514342Y1422704D01*
X4521606Y1424889D01*
X4528261Y1428445D01*
X4534458Y1433576D01*
X4760214Y1659280D01*
X4763719Y1661566D01*
X4767834Y1662277D01*
X4771898Y1661210D01*
X4775200Y1658670D01*
X4777181Y1654962D01*
X4777486Y1650796D01*
X4776114Y1646885D01*
X4774438Y1644091D01*
X4768189Y1630222D01*
X4763668Y1615744D01*
X4760925Y1600758D01*
X4760010Y1585620D01*
X4760925Y1570431D01*
X4763668Y1555496D01*
X4768189Y1540967D01*
X4771034Y1534617D01*
X4771948Y1530654D01*
X4771237Y1526641D01*
X4769002Y1523238D01*
X4620818Y1375105D01*
X4617516Y1372870D01*
X4613605Y1372108D01*
G37*

%LPD*%
G36*
X3279495Y1245108D02*
G01*
X3275888Y1245768D01*
X3272688Y1247698D01*
X3270453Y1250645D01*
X3269386Y1254201D01*
X3269691Y1257909D01*
X3270351Y1260348D01*
X3271215Y1270000D01*
X3270351Y1279652D01*
X3269691Y1282090D01*
X3269386Y1285798D01*
X3270453Y1289354D01*
X3272688Y1292301D01*
X3275888Y1294231D01*
X3279495Y1294892D01*
X4633315Y1294892D01*
X4641342Y1295704D01*
X4648606Y1297889D01*
X4655261Y1301445D01*
X4661458Y1306576D01*
X4760214Y1405280D01*
X4763719Y1407566D01*
X4767834Y1408277D01*
X4771898Y1407210D01*
X4775200Y1404670D01*
X4777181Y1400962D01*
X4777486Y1396796D01*
X4776114Y1392885D01*
X4774438Y1390091D01*
X4768189Y1376222D01*
X4763668Y1361744D01*
X4760925Y1346758D01*
X4760010Y1331620D01*
X4760925Y1316431D01*
X4763668Y1301496D01*
X4768189Y1286967D01*
X4771034Y1280617D01*
X4771948Y1276654D01*
X4771237Y1272641D01*
X4769002Y1269238D01*
X4747818Y1248105D01*
X4744516Y1245870D01*
X4740605Y1245108D01*
G37*

%LPD*%
G36*
X3278987Y1116177D02*
G01*
X3275380Y1116888D01*
X3272180Y1118819D01*
X3269945Y1121765D01*
X3268878Y1125321D01*
X3269183Y1128979D01*
X3270351Y1133348D01*
X3271215Y1143000D01*
X3270351Y1152652D01*
X3269691Y1155090D01*
X3269386Y1158798D01*
X3270453Y1162354D01*
X3272688Y1165301D01*
X3275888Y1167231D01*
X3279495Y1167892D01*
X4760315Y1167892D01*
X4768342Y1168704D01*
X4775962Y1170990D01*
X4780229Y1171346D01*
X4784242Y1169924D01*
X4787290Y1167028D01*
X4788916Y1163066D01*
X4788763Y1158849D01*
X4786934Y1154988D01*
X4782312Y1149096D01*
X4774438Y1136091D01*
X4768189Y1122172D01*
X4765954Y1119022D01*
X4762703Y1116939D01*
X4758893Y1116177D01*
G37*

%LPD*%
G36*
X4776825Y987450D02*
G01*
X4772710Y987856D01*
X4764532Y990295D01*
X4756505Y991108D01*
X3279495Y991108D01*
X3275888Y991768D01*
X3272688Y993698D01*
X3270453Y996645D01*
X3269386Y1000201D01*
X3269691Y1003909D01*
X3270351Y1006348D01*
X3271215Y1016000D01*
X3269894Y1029868D01*
X3270961Y1033424D01*
X3273196Y1036370D01*
X3276396Y1038301D01*
X3280003Y1038961D01*
X4758944Y1038961D01*
X4762703Y1038250D01*
X4765954Y1036167D01*
X4768189Y1033018D01*
X4774438Y1019098D01*
X4784242Y1002995D01*
X4785715Y999185D01*
X4785563Y995121D01*
X4783785Y991412D01*
X4780686Y988720D01*
G37*

%LPD*%
G36*
X4767884Y746912D02*
G01*
X4763770Y747572D01*
X4760264Y749858D01*
X4657648Y852424D01*
X4651451Y857554D01*
X4644796Y861110D01*
X4637532Y863295D01*
X4629505Y864108D01*
X3279495Y864108D01*
X3275888Y864768D01*
X3272688Y866698D01*
X3270453Y869645D01*
X3269386Y873201D01*
X3269691Y876909D01*
X3270351Y879348D01*
X3271215Y889000D01*
X3270351Y898652D01*
X3269691Y901090D01*
X3269386Y904798D01*
X3270453Y908354D01*
X3272688Y911301D01*
X3275888Y913231D01*
X3279495Y913892D01*
X4736795Y913892D01*
X4740706Y913130D01*
X4744008Y910894D01*
X4768951Y885952D01*
X4771237Y882548D01*
X4771948Y878535D01*
X4771034Y874572D01*
X4768189Y868222D01*
X4763668Y853744D01*
X4760925Y838758D01*
X4760010Y823620D01*
X4760925Y808431D01*
X4763668Y793496D01*
X4768189Y778967D01*
X4774438Y765098D01*
X4776114Y762304D01*
X4777486Y758342D01*
X4777181Y754176D01*
X4775200Y750519D01*
X4771898Y747928D01*
G37*

%LPD*%
D10*
X3441700Y5092700D02*
G01*
X3295807Y5092689D01*
X3441700Y2184400D02*
G01*
X3295832Y2184389D01*
X1905000Y698500D02*
G01*
X3441700Y698500D01*
X1756432Y2133600D02*
G01*
X1866925Y2133600D01*
X2032025Y1968500D01*
X2603525Y1968500D01*
X2794025Y1778000D01*
X3127326Y1778000D01*
X1756432Y1955800D02*
G01*
X1917725Y1955800D01*
X2032025Y1841500D01*
X2603525Y1841500D01*
X2794025Y1651000D01*
X3127326Y1651000D01*
X1756432Y1778000D02*
G01*
X1968525Y1778000D01*
X2032025Y1714500D01*
X2603525Y1714500D01*
X2794025Y1524000D01*
X3127326Y1524000D01*
X1756432Y1600200D02*
G01*
X2019325Y1600200D01*
X2032025Y1587500D01*
X2603525Y1587500D01*
X2794025Y1397000D01*
X3127326Y1397000D01*
X1756432Y1422400D02*
G01*
X1993925Y1422400D01*
X2032025Y1460500D01*
X2603525Y1460500D01*
X2794025Y1270000D01*
X3127326Y1270000D01*
X1756432Y1244600D02*
G01*
X1943125Y1244600D01*
X2032025Y1333500D01*
X2603525Y1333500D01*
X2794025Y1143000D01*
X3127326Y1143000D01*
X1756432Y1066800D02*
G01*
X1892325Y1066800D01*
X2032025Y1206500D01*
X2603525Y1206500D01*
X2794025Y1016000D01*
X3127326Y1016000D01*
X1756432Y889000D02*
G01*
X1841525Y889000D01*
X2032025Y1079500D01*
X2603525Y1079500D01*
X2794025Y889000D01*
X3127326Y889000D01*
X1596443Y889000D02*
G01*
X1685343Y800100D01*
X1816125Y800100D01*
X2032025Y1016000D01*
X2181324Y1016000D01*
X2181324Y1016000D02*
G01*
X2603525Y1016000D01*
X2794025Y825500D01*
X4630018Y825500D01*
X4885916Y569595D01*
X1596443Y1066800D02*
G01*
X1685343Y977900D01*
X1866925Y977900D01*
X2032025Y1143000D01*
X2181324Y1143000D01*
X2181324Y1143000D02*
G01*
X2603525Y1143000D01*
X2794025Y952500D01*
X4757018Y952500D01*
X4885916Y823595D01*
X1596443Y1244600D02*
G01*
X1685343Y1155700D01*
X1917725Y1155700D01*
X2032025Y1270000D01*
X2181324Y1270000D01*
X2181324Y1270000D02*
G01*
X2603525Y1270000D01*
X2795935Y1077595D01*
X4885916Y1077595D01*
X1596443Y1422400D02*
G01*
X1685343Y1333500D01*
X1968525Y1333500D01*
X2032025Y1397000D01*
X2181324Y1397000D01*
X2181324Y1397000D02*
G01*
X2603525Y1397000D01*
X2794025Y1206500D01*
X4760826Y1206500D01*
X4885916Y1331595D01*
X1596430Y1600187D02*
G01*
X1600238Y1600187D01*
X1689125Y1511300D01*
X2019325Y1511300D01*
X2032025Y1524000D01*
X2181324Y1524000D01*
X2181324Y1524000D02*
G01*
X2603525Y1524000D01*
X2794025Y1333500D01*
X4633826Y1333500D01*
X4885916Y1585595D01*
X2181324Y1651000D02*
G01*
X2603525Y1651000D01*
X2794025Y1460500D01*
X4506826Y1460500D01*
X4885916Y1839595D01*
X1596430Y1777987D02*
G01*
X1600238Y1777987D01*
X1689125Y1689100D01*
X1993925Y1689100D01*
X2032025Y1651000D01*
X2181324Y1651000D01*
X1596443Y1955800D02*
G01*
X1685343Y1866900D01*
X1943125Y1866900D01*
X2032025Y1778000D01*
X2181324Y1778000D01*
X2181324Y1778000D02*
G01*
X2603525Y1778000D01*
X2794025Y1587500D01*
X4379826Y1587500D01*
X4885916Y2093595D01*
X1596443Y2133600D02*
G01*
X1685343Y2044700D01*
X1892325Y2044700D01*
X2032025Y1905000D01*
X2181324Y1905000D01*
X2181324Y1905000D02*
G01*
X2603525Y1905000D01*
X2794025Y1714500D01*
X4252826Y1714500D01*
X4885916Y2347595D01*
X3127326Y2032000D02*
G01*
X3263925Y2032000D01*
X3295835Y2063904D01*
X3295835Y2184387D01*
X3127298Y4940300D02*
G01*
X3263900Y4940300D01*
X3295807Y4972207D01*
X3295807Y5092689D01*
X1596405Y4508489D02*
G01*
X1600210Y4508489D01*
X1689100Y4419600D01*
X2019300Y4419600D01*
X2032000Y4432300D01*
X2181301Y4432300D01*
X1596405Y4686289D02*
G01*
X1600210Y4686289D01*
X1689100Y4597400D01*
X1993900Y4597400D01*
X2032000Y4559300D01*
X2181301Y4559300D01*
X1596415Y3975100D02*
G01*
X1685315Y3886200D01*
X1866900Y3886200D01*
X2032000Y4051300D01*
X2181298Y4051300D01*
X1596389Y3797300D02*
G01*
X1685289Y3708400D01*
X1816100Y3708400D01*
X2032000Y3924300D01*
X2181352Y3924300D01*
X1596415Y4152900D02*
G01*
X1685315Y4064000D01*
X1917700Y4064000D01*
X2032000Y4178300D01*
X2181298Y4178300D01*
X1596415Y4330700D02*
G01*
X1685315Y4241800D01*
X1968500Y4241800D01*
X2032000Y4305300D01*
X2181298Y4305300D01*
X2181352Y3924300D02*
G01*
X2603500Y3924300D01*
X2794000Y3733800D01*
X4629911Y3733800D01*
X4885943Y3478021D01*
X1756410Y3797300D02*
G01*
X1841500Y3797300D01*
X2032000Y3987800D01*
X2603500Y3987800D01*
X2794000Y3797300D01*
X3127301Y3797300D01*
X2181352Y4051300D02*
G01*
X2603500Y4051300D01*
X2794000Y3860800D01*
X4756911Y3860800D01*
X4885943Y3732021D01*
X1756410Y3975100D02*
G01*
X1892300Y3975100D01*
X2032000Y4114800D01*
X2603500Y4114800D01*
X2794000Y3924300D01*
X3127301Y3924300D01*
X2181352Y4178300D02*
G01*
X2603500Y4178300D01*
X2796031Y3986021D01*
X4885943Y3986021D01*
X1756410Y4152900D02*
G01*
X1943100Y4152900D01*
X2032000Y4241800D01*
X2603500Y4241800D01*
X2794000Y4051300D01*
X3127301Y4051300D01*
X2181352Y4305300D02*
G01*
X2603500Y4305300D01*
X2794000Y4114800D01*
X4760722Y4114800D01*
X4885943Y4240021D01*
X1756410Y4330700D02*
G01*
X1993900Y4330700D01*
X2032000Y4368800D01*
X2603500Y4368800D01*
X2794000Y4178300D01*
X3127301Y4178300D01*
X2181352Y4432300D02*
G01*
X2603500Y4432300D01*
X2794000Y4241800D01*
X4633722Y4241800D01*
X4885943Y4494021D01*
X1756410Y4508500D02*
G01*
X2019300Y4508500D01*
X2032000Y4495800D01*
X2603500Y4495800D01*
X2794000Y4305300D01*
X3127301Y4305300D01*
X2181352Y4559300D02*
G01*
X2603500Y4559300D01*
X2794000Y4368800D01*
X4506722Y4368800D01*
X4885943Y4748021D01*
X1756410Y4686300D02*
G01*
X1968500Y4686300D01*
X2032000Y4622800D01*
X2603500Y4622800D01*
X2794000Y4432300D01*
X3127301Y4432300D01*
X2181352Y4686300D02*
G01*
X2603500Y4686300D01*
X2794000Y4495800D01*
X4379722Y4495800D01*
X4885943Y5002021D01*
X1756410Y4864100D02*
G01*
X1917700Y4864100D01*
X2032000Y4749800D01*
X2603500Y4749800D01*
X2794000Y4559300D01*
X3127301Y4559300D01*
X2181352Y4813300D02*
G01*
X2603500Y4813300D01*
X2794000Y4622800D01*
X4252722Y4622800D01*
X4885943Y5256021D01*
X1756410Y5041900D02*
G01*
X1866900Y5041900D01*
X2032000Y4876800D01*
X2603500Y4876800D01*
X2794000Y4686300D01*
X3127301Y4686300D01*
X1596415Y4864100D02*
G01*
X1685315Y4775200D01*
X1943100Y4775200D01*
X2032000Y4686300D01*
X2181298Y4686300D01*
X1596415Y5041900D02*
G01*
X1685315Y4953000D01*
X1892300Y4953000D01*
X2032000Y4813300D01*
X2181298Y4813300D01*
X1527906Y266700D02*
G01*
X1532917Y271711D01*
X1532917Y469900D01*
X762000Y698500D02*
G01*
X1905000Y698500D01*
X1692907Y469900D02*
G01*
X1905000Y469900D01*
D11*
G01*
X2181301Y4940300D03*
G01*
X2181301Y4813300D03*
G01*
X2181301Y4686300D03*
G01*
X2181301Y4559300D03*
G01*
X2181301Y4432300D03*
G01*
X2181301Y4305300D03*
G01*
X2181301Y4178300D03*
G01*
X2181301Y4051300D03*
G01*
X2181301Y3924300D03*
G01*
X2181301Y3797300D03*
G01*
X3127298Y4940300D03*
G01*
X3127298Y4813300D03*
G01*
X3127298Y4686300D03*
G01*
X3127298Y4559300D03*
G01*
X3127298Y4432300D03*
G01*
X3127298Y4305300D03*
G01*
X3127298Y4178300D03*
G01*
X3127298Y4051300D03*
G01*
X3127298Y3924300D03*
G01*
X3127298Y3797300D03*
G01*
X2181326Y2032000D03*
G01*
X2181326Y1905000D03*
G01*
X2181326Y1778000D03*
G01*
X2181326Y1651000D03*
G01*
X2181326Y1524000D03*
G01*
X2181326Y1397000D03*
G01*
X2181326Y1270000D03*
G01*
X2181326Y1143000D03*
G01*
X2181326Y1016000D03*
G01*
X2181326Y889000D03*
G01*
X3127324Y2032000D03*
G01*
X3127324Y1905000D03*
G01*
X3127324Y1778000D03*
G01*
X3127324Y1651000D03*
G01*
X3127324Y1524000D03*
G01*
X3127324Y1397000D03*
G01*
X3127324Y1270000D03*
G01*
X3127324Y1143000D03*
G01*
X3127324Y1016000D03*
G01*
X3127324Y889000D03*
D12*
G01*
X1692910Y469900D03*
G01*
X1532915Y469900D03*
D13*
G01*
X1697913Y266700D03*
G01*
X1527911Y266700D03*
D14*
G01*
X3295802Y5092700D03*
G01*
X3155797Y5092700D03*
D12*
G01*
X1756410Y5041900D03*
G01*
X1596415Y5041900D03*
G01*
X1756410Y4864100D03*
G01*
X1596415Y4864100D03*
G01*
X1756410Y4686300D03*
G01*
X1596415Y4686300D03*
G01*
X1756410Y4508500D03*
G01*
X1596415Y4508500D03*
G01*
X1756410Y4330700D03*
G01*
X1596415Y4330700D03*
G01*
X1756410Y4152900D03*
G01*
X1596415Y4152900D03*
G01*
X1756410Y3975100D03*
G01*
X1596415Y3975100D03*
G01*
X1756410Y3797300D03*
G01*
X1596415Y3797300D03*
G01*
X1756435Y889000D03*
G01*
X1596440Y889000D03*
G01*
X1756435Y1066800D03*
G01*
X1596440Y1066800D03*
G01*
X1756435Y1244600D03*
G01*
X1596440Y1244600D03*
G01*
X1756435Y1422400D03*
G01*
X1596440Y1422400D03*
G01*
X1756435Y1600200D03*
G01*
X1596440Y1600200D03*
G01*
X1756435Y1778000D03*
G01*
X1596440Y1778000D03*
G01*
X1756435Y1955800D03*
G01*
X1596440Y1955800D03*
G01*
X1756435Y2133600D03*
G01*
X1596440Y2133600D03*
D14*
G01*
X3295827Y2184400D03*
G01*
X3155822Y2184400D03*
D15*
G01*
X5461000Y381000D03*
G01*
X381000Y381000D03*
G01*
X381000Y5461000D03*
G01*
X5461000Y5461000D03*
D16*
G01*
X4885893Y5255895D03*
G01*
X4885893Y5001895D03*
G01*
X4885893Y4747895D03*
G01*
X4885893Y4493895D03*
G01*
X4885893Y4239895D03*
G01*
X4885893Y3985895D03*
G01*
X4885893Y3731895D03*
G01*
X4885893Y3477895D03*
G01*
X4885918Y569595D03*
G01*
X4885918Y823595D03*
G01*
X4885918Y1077595D03*
G01*
X4885918Y1331595D03*
G01*
X4885918Y1585595D03*
G01*
X4885918Y1839595D03*
G01*
X4885918Y2093595D03*
G01*
X4885918Y2347595D03*
D17*
G01*
X1016000Y254000D03*
G01*
X1016000Y508000D03*
G01*
X1270000Y508000D03*
G01*
X1270000Y254000D03*
D18*
G01*
X762000Y698500D03*
G01*
X762000Y254000D03*
G01*
X1905000Y469900D03*
G01*
X1905000Y698500D03*
G01*
X3441700Y698500D03*
G01*
X3441700Y2184400D03*
G01*
X3441700Y5092700D03*
G01*
X3302000Y4559300D03*
G01*
X3302000Y4432300D03*
G01*
X3302000Y4305300D03*
G01*
X3302000Y4178300D03*
G01*
X3302000Y4051300D03*
G01*
X3302000Y3924300D03*
G01*
X3302000Y3797300D03*
G01*
X3302025Y1651000D03*
G01*
X3302025Y1524000D03*
G01*
X3302025Y1397000D03*
G01*
X3302025Y1270000D03*
G01*
X3302025Y1143000D03*
G01*
X3302025Y1016000D03*
G01*
X3302025Y889000D03*
M02*
