M48
METRIC,LZ,000.000
;FILE_FORMAT=3:3
;TYPE=PLATED
;Layer: PTH_Through
;EasyEDA v6.5.34, 2023-09-06 22:56:04
;2fa0d92a81ff4a44aa565c36b1e7baf9,5a6b42c53f6a479593ecc07194224c93,10
;Gerber Generator version 0.2
;Holesize 1 = 0.305 mm
T01C0.305
;Holesize 2 = 1.000 mm
T02C1.000
;Holesize 3 = 3.000 mm
T03C3.000
%
G05
G90
T01
X057074Y267157
X058420Y264617
X059690Y262077
X060951Y259537
X062230Y256997
X063500Y254457
X064777Y251917
X066047Y249377
X082553Y220294
X081290Y222834
X080010Y225374
X078728Y227914
X077473Y230454
X076210Y232994
X074930Y235534
X073663Y238125
X073663Y174625
X074930Y172034
X076210Y169494
X077473Y166954
X078728Y164414
X080010Y161874
X081290Y159334
X082553Y156794
X073663Y111125
X074930Y108534
X076210Y105994
X077473Y103454
X078728Y100914
X080010Y098374
X081290Y095834
X082553Y093294
X073663Y047625
X074930Y045034
X076210Y042494
X077473Y039954
X078728Y037414
X080010Y034874
X081290Y032334
X082550Y029845
X066047Y185877
X064777Y188417
X063500Y190957
X062230Y193497
X060951Y196037
X059690Y198577
X058420Y201117
X057074Y203657
X066047Y122377
X064777Y124917
X063500Y127457
X062230Y129997
X060951Y132537
X059690Y135077
X058420Y137617
X057074Y140157
X066047Y058877
X064777Y061417
X063500Y063957
X062230Y066497
X060951Y069037
X059690Y071577
X058420Y074117
X057074Y076657
X055483Y265835
X055483Y268427
X055483Y263295
X055483Y260755
X055483Y258215
X055483Y255675
X055483Y253135
X055483Y250595
X055483Y248055
X085025Y248106
X085025Y250646
X085025Y253186
X085025Y255726
X085025Y258266
X085025Y260806
X085025Y263346
X085025Y268478
X085025Y265886
X055483Y218972
X055483Y221512
X055483Y224052
X055483Y226592
X055483Y229132
X055483Y231672
X055483Y234212
X055483Y239344
X055483Y236752
X055483Y184555
X055483Y187095
X055483Y189635
X055483Y192175
X055483Y194715
X055483Y197255
X055483Y199795
X055483Y204927
X055483Y202335
X055483Y155472
X055483Y158012
X055483Y160552
X055483Y163092
X055483Y165632
X055483Y168172
X055483Y170712
X055483Y175844
X055483Y173252
X055483Y121055
X055483Y123595
X055483Y126135
X055483Y128675
X055483Y131215
X055483Y133755
X055483Y136295
X055483Y141427
X055483Y138835
X055483Y091972
X055483Y094512
X055483Y097052
X055483Y099592
X055483Y102132
X055483Y104672
X055483Y107212
X055483Y112344
X055483Y109752
X055483Y057555
X055483Y060095
X055483Y062635
X055483Y065175
X055483Y067715
X055483Y070255
X055483Y072795
X055483Y077927
X055483Y075335
X055483Y028472
X055483Y031012
X055483Y033552
X055483Y036092
X055483Y038632
X055483Y041172
X055483Y043712
X055483Y048844
X055483Y046252
X085025Y236803
X085025Y239395
X085025Y234263
X085025Y231723
X085025Y229183
X085025Y226643
X085025Y224103
X085025Y221563
X085025Y219023
X085025Y202386
X085025Y204978
X085025Y199846
X085025Y197306
X085025Y194766
X085025Y192226
X085025Y189686
X085025Y187146
X085025Y184606
X085025Y173303
X085025Y175895
X085025Y170763
X085025Y168223
X085025Y165683
X085025Y163143
X085025Y160603
X085025Y158063
X085025Y155523
X085025Y138886
X085025Y141478
X085025Y136346
X085025Y133806
X085025Y131266
X085025Y128726
X085025Y126186
X085025Y123646
X085025Y121106
X085025Y109803
X085025Y112395
X085025Y107263
X085025Y104723
X085025Y102183
X085025Y099643
X085025Y097103
X085025Y094563
X085025Y092023
X085025Y075386
X085025Y077978
X085025Y072846
X085025Y070306
X085025Y067766
X085025Y065226
X085025Y062686
X085025Y060146
X085025Y057606
X085025Y046303
X085025Y048895
X085025Y043763
X085025Y041223
X085025Y038683
X085025Y036143
X085025Y033603
X085025Y031063
X085025Y028523
T02
X054213Y267157
X054213Y264617
X054213Y262077
X054213Y259537
X054213Y256997
X054213Y254457
X054213Y251917
X054213Y249377
X086295Y238125
X086295Y235585
X086295Y233045
X086295Y230505
X086295Y227965
X086295Y225425
X086295Y222885
X086295Y220345
X054213Y238074
X054213Y235534
X054213Y232994
X054213Y230454
X054213Y227914
X054213Y225374
X054213Y222834
X054213Y220294
X086295Y203708
X086295Y201168
X086295Y198628
X086295Y196088
X086295Y193548
X086295Y191008
X086295Y188468
X086295Y185928
X054213Y174574
X054213Y172034
X054213Y169494
X054213Y166954
X054213Y164414
X054213Y161874
X054213Y159334
X054213Y156794
X086295Y174625
X086295Y172085
X086295Y169545
X086295Y167005
X086295Y164465
X086295Y161925
X086295Y159385
X086295Y156845
X054213Y203657
X054213Y201117
X054213Y198577
X054213Y196037
X054213Y193497
X054213Y190957
X054213Y188417
X054213Y185877
X086295Y140208
X086295Y137668
X086295Y135128
X086295Y132588
X086295Y130048
X086295Y127508
X086295Y124968
X086295Y122428
X054213Y111074
X054213Y108534
X054213Y105994
X054213Y103454
X054213Y100914
X054213Y098374
X054213Y095834
X054213Y093294
X086295Y111125
X086295Y108585
X086295Y106045
X086295Y103505
X086295Y100965
X086295Y098425
X086295Y095885
X086295Y093345
X054213Y140157
X054213Y137617
X054213Y135077
X054213Y132537
X054213Y129997
X054213Y127457
X054213Y124917
X054213Y122377
X086295Y076708
X086295Y074168
X086295Y071628
X086295Y069088
X086295Y066548
X086295Y064008
X086295Y061468
X086295Y058928
X054213Y047574
X054213Y045034
X054213Y042494
X054213Y039954
X054213Y037414
X054213Y034874
X054213Y032334
X054213Y029794
X086295Y047625
X086295Y045085
X086295Y042545
X086295Y040005
X086295Y037465
X086295Y034925
X086295Y032385
X086295Y029845
X054213Y076657
X054213Y074117
X054213Y071577
X054213Y069037
X054213Y066497
X054213Y063957
X054213Y061417
X054213Y058877
X086295Y267208
X086295Y264668
X086295Y262128
X086295Y259588
X086295Y257048
X086295Y254508
X086295Y251968
X086295Y249428
T03
X060960Y027940
X079580Y027991
X079580Y269291
X060960Y269240
M30
