G04 Layer: BottomSilkscreenLayer*
G04 EasyEDA v6.5.34, 2023-09-06 22:56:04*
G04 2fa0d92a81ff4a44aa565c36b1e7baf9,5a6b42c53f6a479593ecc07194224c93,10*
G04 Gerber Generator version 0.2*
G04 Scale: 100 percent, Rotated: No, Reflected: No *
G04 Dimensions in millimeters *
G04 leading zeros omitted , absolute positions ,4 integer and 5 decimal *
%FSLAX45Y45*%
%MOMM*%

%ADD10C,0.1520*%
%ADD11C,0.1524*%
%ADD12C,0.2540*%

%LPD*%
D10*
X7555344Y26340838D02*
G01*
X7555344Y26257712D01*
X7560541Y26242124D01*
X7565735Y26236929D01*
X7576126Y26231735D01*
X7586517Y26231735D01*
X7596908Y26236929D01*
X7602105Y26242124D01*
X7607300Y26257712D01*
X7607300Y26268103D01*
X7521054Y26340838D02*
G01*
X7521054Y26231735D01*
X7521054Y26231735D02*
G01*
X7458709Y26231735D01*
X7346487Y26314862D02*
G01*
X7351684Y26325253D01*
X7362075Y26335644D01*
X7372464Y26340838D01*
X7393246Y26340838D01*
X7403637Y26335644D01*
X7414028Y26325253D01*
X7419225Y26314862D01*
X7424420Y26299274D01*
X7424420Y26273297D01*
X7419225Y26257712D01*
X7414028Y26247321D01*
X7403637Y26236929D01*
X7393246Y26231735D01*
X7372464Y26231735D01*
X7362075Y26236929D01*
X7351684Y26247321D01*
X7346487Y26257712D01*
X7260244Y26340838D02*
G01*
X7260244Y26257712D01*
X7265438Y26242124D01*
X7270635Y26236929D01*
X7281024Y26231735D01*
X7291415Y26231735D01*
X7301806Y26236929D01*
X7307003Y26242124D01*
X7312197Y26257712D01*
X7312197Y26268103D01*
X7225954Y26340838D02*
G01*
X7225954Y26231735D01*
X7225954Y26231735D02*
G01*
X7163607Y26231735D01*
X7051385Y26314862D02*
G01*
X7056582Y26325253D01*
X7066973Y26335644D01*
X7077364Y26340838D01*
X7098144Y26340838D01*
X7108535Y26335644D01*
X7118926Y26325253D01*
X7124123Y26314862D01*
X7129317Y26299274D01*
X7129317Y26273297D01*
X7124123Y26257712D01*
X7118926Y26247321D01*
X7108535Y26236929D01*
X7098144Y26231735D01*
X7077364Y26231735D01*
X7066973Y26236929D01*
X7056582Y26247321D01*
X7051385Y26257712D01*
X6965142Y26340838D02*
G01*
X6965142Y26257712D01*
X6970336Y26242124D01*
X6975533Y26236929D01*
X6985924Y26231735D01*
X6996315Y26231735D01*
X7006704Y26236929D01*
X7011901Y26242124D01*
X7017095Y26257712D01*
X7017095Y26268103D01*
X6930852Y26340838D02*
G01*
X6930852Y26231735D01*
X6930852Y26231735D02*
G01*
X6868505Y26231735D01*
X6756285Y26314862D02*
G01*
X6761479Y26325253D01*
X6771871Y26335644D01*
X6782262Y26340838D01*
X6803044Y26340838D01*
X6813435Y26335644D01*
X6823824Y26325253D01*
X6829021Y26314862D01*
X6834215Y26299274D01*
X6834215Y26273297D01*
X6829021Y26257712D01*
X6823824Y26247321D01*
X6813435Y26236929D01*
X6803044Y26231735D01*
X6782262Y26231735D01*
X6771871Y26236929D01*
X6761479Y26247321D01*
X6756285Y26257712D01*
X6670040Y26340838D02*
G01*
X6670040Y26257712D01*
X6675234Y26242124D01*
X6680431Y26236929D01*
X6690822Y26231735D01*
X6701213Y26231735D01*
X6711604Y26236929D01*
X6716798Y26242124D01*
X6721995Y26257712D01*
X6721995Y26268103D01*
X6635750Y26340838D02*
G01*
X6635750Y26231735D01*
X6635750Y26231735D02*
G01*
X6573405Y26231735D01*
X6461183Y26314862D02*
G01*
X6466377Y26325253D01*
X6476768Y26335644D01*
X6487159Y26340838D01*
X6507942Y26340838D01*
X6518333Y26335644D01*
X6528724Y26325253D01*
X6533918Y26314862D01*
X6539115Y26299274D01*
X6539115Y26273297D01*
X6533918Y26257712D01*
X6528724Y26247321D01*
X6518333Y26236929D01*
X6507942Y26231735D01*
X6487159Y26231735D01*
X6476768Y26236929D01*
X6466377Y26247321D01*
X6461183Y26257712D01*
D11*
X7999267Y26492662D02*
G01*
X8004464Y26503053D01*
X8014855Y26513444D01*
X8025244Y26518638D01*
X8046026Y26518638D01*
X8056417Y26513444D01*
X8066808Y26503053D01*
X8072005Y26492662D01*
X8077200Y26477074D01*
X8077200Y26451097D01*
X8072005Y26435512D01*
X8066808Y26425121D01*
X8056417Y26414729D01*
X8046026Y26409535D01*
X8025244Y26409535D01*
X8014855Y26414729D01*
X8004464Y26425121D01*
X7999267Y26435512D01*
X7933804Y26518638D02*
G01*
X7944195Y26513444D01*
X7954586Y26503053D01*
X7959783Y26492662D01*
X7964977Y26477074D01*
X7964977Y26451097D01*
X7959783Y26435512D01*
X7954586Y26425121D01*
X7944195Y26414729D01*
X7933804Y26409535D01*
X7913024Y26409535D01*
X7902633Y26414729D01*
X7892242Y26425121D01*
X7887045Y26435512D01*
X7881851Y26451097D01*
X7881851Y26477074D01*
X7887045Y26492662D01*
X7892242Y26503053D01*
X7902633Y26513444D01*
X7913024Y26518638D01*
X7933804Y26518638D01*
X7847561Y26518638D02*
G01*
X7847561Y26409535D01*
X7847561Y26518638D02*
G01*
X7800802Y26518638D01*
X7785214Y26513444D01*
X7780020Y26508247D01*
X7774825Y26497856D01*
X7774825Y26482271D01*
X7780020Y26471879D01*
X7785214Y26466685D01*
X7800802Y26461488D01*
X7847561Y26461488D01*
X7740535Y26518638D02*
G01*
X7698971Y26466685D01*
X7698971Y26409535D01*
X7657406Y26518638D02*
G01*
X7698971Y26466685D01*
X7623116Y26518638D02*
G01*
X7623116Y26409535D01*
X7623116Y26518638D02*
G01*
X7576357Y26518638D01*
X7560772Y26513444D01*
X7555575Y26508247D01*
X7550381Y26497856D01*
X7550381Y26487465D01*
X7555575Y26477074D01*
X7560772Y26471879D01*
X7576357Y26466685D01*
X7623116Y26466685D01*
X7586748Y26466685D02*
G01*
X7550381Y26409535D01*
X7516091Y26518638D02*
G01*
X7516091Y26409535D01*
X7403868Y26492662D02*
G01*
X7409065Y26503053D01*
X7419454Y26513444D01*
X7429845Y26518638D01*
X7450627Y26518638D01*
X7461018Y26513444D01*
X7471409Y26503053D01*
X7476604Y26492662D01*
X7481801Y26477074D01*
X7481801Y26451097D01*
X7476604Y26435512D01*
X7471409Y26425121D01*
X7461018Y26414729D01*
X7450627Y26409535D01*
X7429845Y26409535D01*
X7419454Y26414729D01*
X7409065Y26425121D01*
X7403868Y26435512D01*
X7403868Y26451097D01*
X7429845Y26451097D02*
G01*
X7403868Y26451097D01*
X7369578Y26518638D02*
G01*
X7369578Y26409535D01*
X7296843Y26518638D02*
G01*
X7296843Y26409535D01*
X7369578Y26466685D02*
G01*
X7296843Y26466685D01*
X7226185Y26518638D02*
G01*
X7226185Y26409535D01*
X7262553Y26518638D02*
G01*
X7189815Y26518638D01*
X7070321Y26492662D02*
G01*
X7070321Y26497856D01*
X7065124Y26508247D01*
X7059929Y26513444D01*
X7049538Y26518638D01*
X7028756Y26518638D01*
X7018365Y26513444D01*
X7013171Y26508247D01*
X7007974Y26497856D01*
X7007974Y26487465D01*
X7013171Y26477074D01*
X7023562Y26461488D01*
X7075515Y26409535D01*
X7002779Y26409535D01*
X6937316Y26518638D02*
G01*
X6952904Y26513444D01*
X6963295Y26497856D01*
X6968490Y26471879D01*
X6968490Y26456294D01*
X6963295Y26430315D01*
X6952904Y26414729D01*
X6937316Y26409535D01*
X6926925Y26409535D01*
X6911340Y26414729D01*
X6900948Y26430315D01*
X6895754Y26456294D01*
X6895754Y26471879D01*
X6900948Y26497856D01*
X6911340Y26513444D01*
X6926925Y26518638D01*
X6937316Y26518638D01*
X6856267Y26492662D02*
G01*
X6856267Y26497856D01*
X6851073Y26508247D01*
X6845876Y26513444D01*
X6835485Y26518638D01*
X6814705Y26518638D01*
X6804314Y26513444D01*
X6799117Y26508247D01*
X6793923Y26497856D01*
X6793923Y26487465D01*
X6799117Y26477074D01*
X6809508Y26461488D01*
X6861464Y26409535D01*
X6788726Y26409535D01*
X6744045Y26518638D02*
G01*
X6686895Y26518638D01*
X6718068Y26477074D01*
X6702483Y26477074D01*
X6692092Y26471879D01*
X6686895Y26466685D01*
X6681701Y26451097D01*
X6681701Y26440706D01*
X6686895Y26425121D01*
X6697286Y26414729D01*
X6712874Y26409535D01*
X6728459Y26409535D01*
X6744045Y26414729D01*
X6749242Y26419924D01*
X6754436Y26430315D01*
X6567401Y26518638D02*
G01*
X6525836Y26409535D01*
X6484274Y26518638D02*
G01*
X6525836Y26409535D01*
X6449984Y26518638D02*
G01*
X6449984Y26409535D01*
X6449984Y26518638D02*
G01*
X6382443Y26518638D01*
X6449984Y26466685D02*
G01*
X6408420Y26466685D01*
X6449984Y26409535D02*
G01*
X6382443Y26409535D01*
X6275415Y26518638D02*
G01*
X6327371Y26409535D01*
X6348153Y26518638D02*
G01*
X6275415Y26518638D01*
X6241125Y26518638D02*
G01*
X6241125Y26409535D01*
X6241125Y26518638D02*
G01*
X6173584Y26518638D01*
X6241125Y26466685D02*
G01*
X6199563Y26466685D01*
X6139294Y26518638D02*
G01*
X6139294Y26409535D01*
X6105004Y26518638D02*
G01*
X6105004Y26409535D01*
X6105004Y26518638D02*
G01*
X6063442Y26409535D01*
X6021877Y26518638D02*
G01*
X6063442Y26409535D01*
X6021877Y26518638D02*
G01*
X6021877Y26409535D01*
X5549900Y24766038D02*
G01*
X5549900Y24688106D01*
X5544705Y24672521D01*
X5534314Y24662129D01*
X5518726Y24656935D01*
X5508335Y24656935D01*
X5492750Y24662129D01*
X5482358Y24672521D01*
X5477164Y24688106D01*
X5477164Y24766038D01*
X5442874Y24745256D02*
G01*
X5432483Y24750453D01*
X5416895Y24766038D01*
X5416895Y24656935D01*
X8661400Y21857738D02*
G01*
X8661400Y21779806D01*
X8656205Y21764221D01*
X8645814Y21753829D01*
X8630226Y21748635D01*
X8619835Y21748635D01*
X8604250Y21753829D01*
X8593858Y21764221D01*
X8588664Y21779806D01*
X8588664Y21857738D01*
X8502418Y21857738D02*
G01*
X8554374Y21785003D01*
X8476442Y21785003D01*
X8502418Y21857738D02*
G01*
X8502418Y21748635D01*
X5549900Y21845038D02*
G01*
X5549900Y21767106D01*
X5544705Y21751521D01*
X5534314Y21741129D01*
X5518726Y21735935D01*
X5508335Y21735935D01*
X5492750Y21741129D01*
X5482358Y21751521D01*
X5477164Y21767106D01*
X5477164Y21845038D01*
X5432483Y21845038D02*
G01*
X5375333Y21845038D01*
X5406504Y21803474D01*
X5390918Y21803474D01*
X5380527Y21798279D01*
X5375333Y21793085D01*
X5370136Y21777497D01*
X5370136Y21767106D01*
X5375333Y21751521D01*
X5385724Y21741129D01*
X5401309Y21735935D01*
X5416895Y21735935D01*
X5432483Y21741129D01*
X5437677Y21746324D01*
X5442874Y21756715D01*
X8661400Y18416038D02*
G01*
X8661400Y18338106D01*
X8656205Y18322521D01*
X8645814Y18312129D01*
X8630226Y18306935D01*
X8619835Y18306935D01*
X8604250Y18312129D01*
X8593858Y18322521D01*
X8588664Y18338106D01*
X8588664Y18416038D01*
X8492027Y18400453D02*
G01*
X8497224Y18410844D01*
X8512809Y18416038D01*
X8523201Y18416038D01*
X8538786Y18410844D01*
X8549177Y18395256D01*
X8554374Y18369279D01*
X8554374Y18343303D01*
X8549177Y18322521D01*
X8538786Y18312129D01*
X8523201Y18306935D01*
X8518004Y18306935D01*
X8502418Y18312129D01*
X8492027Y18322521D01*
X8486833Y18338106D01*
X8486833Y18343303D01*
X8492027Y18358888D01*
X8502418Y18369279D01*
X8518004Y18374474D01*
X8523201Y18374474D01*
X8538786Y18369279D01*
X8549177Y18358888D01*
X8554374Y18343303D01*
X5549900Y15495038D02*
G01*
X5549900Y15417106D01*
X5544705Y15401521D01*
X5534314Y15391129D01*
X5518726Y15385935D01*
X5508335Y15385935D01*
X5492750Y15391129D01*
X5482358Y15401521D01*
X5477164Y15417106D01*
X5477164Y15495038D01*
X5370136Y15495038D02*
G01*
X5422092Y15385935D01*
X5442874Y15495038D02*
G01*
X5370136Y15495038D01*
X8661400Y15507738D02*
G01*
X8661400Y15429806D01*
X8656205Y15414221D01*
X8645814Y15403829D01*
X8630226Y15398635D01*
X8619835Y15398635D01*
X8604250Y15403829D01*
X8593858Y15414221D01*
X8588664Y15429806D01*
X8588664Y15507738D01*
X8528395Y15507738D02*
G01*
X8543983Y15502544D01*
X8549177Y15492153D01*
X8549177Y15481762D01*
X8543983Y15471371D01*
X8533592Y15466174D01*
X8512809Y15460979D01*
X8497224Y15455785D01*
X8486833Y15445394D01*
X8481636Y15435003D01*
X8481636Y15419415D01*
X8486833Y15409024D01*
X8492027Y15403829D01*
X8507615Y15398635D01*
X8528395Y15398635D01*
X8543983Y15403829D01*
X8549177Y15409024D01*
X8554374Y15419415D01*
X8554374Y15435003D01*
X8549177Y15445394D01*
X8538786Y15455785D01*
X8523201Y15460979D01*
X8502418Y15466174D01*
X8492027Y15471371D01*
X8486833Y15481762D01*
X8486833Y15492153D01*
X8492027Y15502544D01*
X8507615Y15507738D01*
X8528395Y15507738D01*
X5549900Y18403338D02*
G01*
X5549900Y18325406D01*
X5544705Y18309821D01*
X5534314Y18299429D01*
X5518726Y18294235D01*
X5508335Y18294235D01*
X5492750Y18299429D01*
X5482358Y18309821D01*
X5477164Y18325406D01*
X5477164Y18403338D01*
X5380527Y18403338D02*
G01*
X5432483Y18403338D01*
X5437677Y18356579D01*
X5432483Y18361774D01*
X5416895Y18366971D01*
X5401309Y18366971D01*
X5385724Y18361774D01*
X5375333Y18351385D01*
X5370136Y18335797D01*
X5370136Y18325406D01*
X5375333Y18309821D01*
X5385724Y18299429D01*
X5401309Y18294235D01*
X5416895Y18294235D01*
X5432483Y18299429D01*
X5437677Y18304624D01*
X5442874Y18315015D01*
X8737600Y12053338D02*
G01*
X8737600Y11975406D01*
X8732405Y11959821D01*
X8722014Y11949429D01*
X8706426Y11944235D01*
X8696035Y11944235D01*
X8680450Y11949429D01*
X8670058Y11959821D01*
X8664864Y11975406D01*
X8664864Y12053338D01*
X8630574Y12032556D02*
G01*
X8620183Y12037753D01*
X8604595Y12053338D01*
X8604595Y11944235D01*
X8539134Y12053338D02*
G01*
X8554720Y12048144D01*
X8565111Y12032556D01*
X8570305Y12006579D01*
X8570305Y11990994D01*
X8565111Y11965015D01*
X8554720Y11949429D01*
X8539134Y11944235D01*
X8528743Y11944235D01*
X8513155Y11949429D01*
X8502764Y11965015D01*
X8497570Y11990994D01*
X8497570Y12006579D01*
X8502764Y12032556D01*
X8513155Y12048144D01*
X8528743Y12053338D01*
X8539134Y12053338D01*
X5549900Y9145038D02*
G01*
X5549900Y9067106D01*
X5544705Y9051521D01*
X5534314Y9041129D01*
X5518726Y9035935D01*
X5508335Y9035935D01*
X5492750Y9041129D01*
X5482358Y9051521D01*
X5477164Y9067106D01*
X5477164Y9145038D01*
X5442874Y9124256D02*
G01*
X5432483Y9129453D01*
X5416895Y9145038D01*
X5416895Y9035935D01*
X5382605Y9124256D02*
G01*
X5372214Y9129453D01*
X5356628Y9145038D01*
X5356628Y9035935D01*
X8737600Y9145038D02*
G01*
X8737600Y9067106D01*
X8732405Y9051521D01*
X8722014Y9041129D01*
X8706426Y9035935D01*
X8696035Y9035935D01*
X8680450Y9041129D01*
X8670058Y9051521D01*
X8664864Y9067106D01*
X8664864Y9145038D01*
X8630574Y9124256D02*
G01*
X8620183Y9129453D01*
X8604595Y9145038D01*
X8604595Y9035935D01*
X8565111Y9119062D02*
G01*
X8565111Y9124256D01*
X8559914Y9134647D01*
X8554720Y9139844D01*
X8544328Y9145038D01*
X8523546Y9145038D01*
X8513155Y9139844D01*
X8507961Y9134647D01*
X8502764Y9124256D01*
X8502764Y9113865D01*
X8507961Y9103474D01*
X8518352Y9087888D01*
X8570305Y9035935D01*
X8497570Y9035935D01*
X5549900Y12053338D02*
G01*
X5549900Y11975406D01*
X5544705Y11959821D01*
X5534314Y11949429D01*
X5518726Y11944235D01*
X5508335Y11944235D01*
X5492750Y11949429D01*
X5482358Y11959821D01*
X5477164Y11975406D01*
X5477164Y12053338D01*
X5375333Y12016971D02*
G01*
X5380527Y12001385D01*
X5390918Y11990994D01*
X5406504Y11985797D01*
X5411701Y11985797D01*
X5427286Y11990994D01*
X5437677Y12001385D01*
X5442874Y12016971D01*
X5442874Y12022165D01*
X5437677Y12037753D01*
X5427286Y12048144D01*
X5411701Y12053338D01*
X5406504Y12053338D01*
X5390918Y12048144D01*
X5380527Y12037753D01*
X5375333Y12016971D01*
X5375333Y11990994D01*
X5380527Y11965015D01*
X5390918Y11949429D01*
X5406504Y11944235D01*
X5416895Y11944235D01*
X5432483Y11949429D01*
X5437677Y11959821D01*
X8737600Y5716038D02*
G01*
X8737600Y5638106D01*
X8732405Y5622521D01*
X8722014Y5612129D01*
X8706426Y5606935D01*
X8696035Y5606935D01*
X8680450Y5612129D01*
X8670058Y5622521D01*
X8664864Y5638106D01*
X8664864Y5716038D01*
X8630574Y5695256D02*
G01*
X8620183Y5700453D01*
X8604595Y5716038D01*
X8604595Y5606935D01*
X8518352Y5716038D02*
G01*
X8570305Y5643303D01*
X8492375Y5643303D01*
X8518352Y5716038D02*
G01*
X8518352Y5606935D01*
X5549900Y2795038D02*
G01*
X5549900Y2717106D01*
X5544705Y2701521D01*
X5534314Y2691129D01*
X5518726Y2685935D01*
X5508335Y2685935D01*
X5492750Y2691129D01*
X5482358Y2701521D01*
X5477164Y2717106D01*
X5477164Y2795038D01*
X5442874Y2774256D02*
G01*
X5432483Y2779453D01*
X5416895Y2795038D01*
X5416895Y2685935D01*
X5320261Y2795038D02*
G01*
X5372214Y2795038D01*
X5377411Y2748279D01*
X5372214Y2753474D01*
X5356628Y2758671D01*
X5341043Y2758671D01*
X5325455Y2753474D01*
X5315064Y2743085D01*
X5309870Y2727497D01*
X5309870Y2717106D01*
X5315064Y2701521D01*
X5325455Y2691129D01*
X5341043Y2685935D01*
X5356628Y2685935D01*
X5372214Y2691129D01*
X5377411Y2696324D01*
X5382605Y2706715D01*
X8737600Y2807738D02*
G01*
X8737600Y2729806D01*
X8732405Y2714221D01*
X8722014Y2703829D01*
X8706426Y2698635D01*
X8696035Y2698635D01*
X8680450Y2703829D01*
X8670058Y2714221D01*
X8664864Y2729806D01*
X8664864Y2807738D01*
X8630574Y2786956D02*
G01*
X8620183Y2792153D01*
X8604595Y2807738D01*
X8604595Y2698635D01*
X8507961Y2792153D02*
G01*
X8513155Y2802544D01*
X8528743Y2807738D01*
X8539134Y2807738D01*
X8554720Y2802544D01*
X8565111Y2786956D01*
X8570305Y2760979D01*
X8570305Y2735003D01*
X8565111Y2714221D01*
X8554720Y2703829D01*
X8539134Y2698635D01*
X8533937Y2698635D01*
X8518352Y2703829D01*
X8507961Y2714221D01*
X8502764Y2729806D01*
X8502764Y2735003D01*
X8507961Y2750588D01*
X8518352Y2760979D01*
X8533937Y2766174D01*
X8539134Y2766174D01*
X8554720Y2760979D01*
X8565111Y2750588D01*
X8570305Y2735003D01*
X5549900Y5716038D02*
G01*
X5549900Y5638106D01*
X5544705Y5622521D01*
X5534314Y5612129D01*
X5518726Y5606935D01*
X5508335Y5606935D01*
X5492750Y5612129D01*
X5482358Y5622521D01*
X5477164Y5638106D01*
X5477164Y5716038D01*
X5442874Y5695256D02*
G01*
X5432483Y5700453D01*
X5416895Y5716038D01*
X5416895Y5606935D01*
X5372214Y5716038D02*
G01*
X5315064Y5716038D01*
X5346237Y5674474D01*
X5330652Y5674474D01*
X5320261Y5669279D01*
X5315064Y5664085D01*
X5309870Y5648497D01*
X5309870Y5638106D01*
X5315064Y5622521D01*
X5325455Y5612129D01*
X5341043Y5606935D01*
X5356628Y5606935D01*
X5372214Y5612129D01*
X5377411Y5617324D01*
X5382605Y5627715D01*
X8674100Y24766038D02*
G01*
X8674100Y24688106D01*
X8668905Y24672521D01*
X8658514Y24662129D01*
X8642926Y24656935D01*
X8632535Y24656935D01*
X8616950Y24662129D01*
X8606558Y24672521D01*
X8601364Y24688106D01*
X8601364Y24766038D01*
X8561877Y24740062D02*
G01*
X8561877Y24745256D01*
X8556683Y24755647D01*
X8551486Y24760844D01*
X8541095Y24766038D01*
X8520315Y24766038D01*
X8509924Y24760844D01*
X8504727Y24755647D01*
X8499533Y24745256D01*
X8499533Y24734865D01*
X8504727Y24724474D01*
X8515118Y24708888D01*
X8567074Y24656935D01*
X8494336Y24656935D01*
D12*
X5294302Y24810671D02*
G01*
X5548302Y24810671D01*
X5548302Y26842666D01*
X5294302Y26842666D01*
X5294302Y24810671D01*
X5294302Y26586317D02*
G01*
X5548302Y26586317D01*
X8502500Y21907502D02*
G01*
X8756500Y21907502D01*
X8756500Y23939497D01*
X8502500Y23939497D01*
X8502500Y21907502D01*
X8502500Y23683147D02*
G01*
X8756500Y23683147D01*
X5294302Y21902371D02*
G01*
X5548302Y21902371D01*
X5548302Y23934366D01*
X5294302Y23934366D01*
X5294302Y21902371D01*
X5294302Y23678017D02*
G01*
X5548302Y23678017D01*
X8502500Y18465802D02*
G01*
X8756500Y18465802D01*
X8756500Y20497797D01*
X8502500Y20497797D01*
X8502500Y18465802D01*
X8502500Y20241447D02*
G01*
X8756500Y20241447D01*
X5294302Y15552371D02*
G01*
X5548302Y15552371D01*
X5548302Y17584366D01*
X5294302Y17584366D01*
X5294302Y15552371D01*
X5294302Y17328017D02*
G01*
X5548302Y17328017D01*
X8502500Y15557502D02*
G01*
X8756500Y15557502D01*
X8756500Y17589497D01*
X8502500Y17589497D01*
X8502500Y15557502D01*
X8502500Y17333147D02*
G01*
X8756500Y17333147D01*
X5294302Y18460671D02*
G01*
X5548302Y18460671D01*
X5548302Y20492666D01*
X5294302Y20492666D01*
X5294302Y18460671D01*
X5294302Y20236317D02*
G01*
X5548302Y20236317D01*
X8502500Y12115802D02*
G01*
X8756500Y12115802D01*
X8756500Y14147797D01*
X8502500Y14147797D01*
X8502500Y12115802D01*
X8502500Y13891447D02*
G01*
X8756500Y13891447D01*
X5294302Y9202371D02*
G01*
X5548302Y9202371D01*
X5548302Y11234366D01*
X5294302Y11234366D01*
X5294302Y9202371D01*
X5294302Y10978017D02*
G01*
X5548302Y10978017D01*
X8502500Y9207502D02*
G01*
X8756500Y9207502D01*
X8756500Y11239497D01*
X8502500Y11239497D01*
X8502500Y9207502D01*
X8502500Y10983147D02*
G01*
X8756500Y10983147D01*
X5294302Y12110671D02*
G01*
X5548302Y12110671D01*
X5548302Y14142666D01*
X5294302Y14142666D01*
X5294302Y12110671D01*
X5294302Y13886317D02*
G01*
X5548302Y13886317D01*
X8502500Y5765802D02*
G01*
X8756500Y5765802D01*
X8756500Y7797797D01*
X8502500Y7797797D01*
X8502500Y5765802D01*
X8502500Y7541447D02*
G01*
X8756500Y7541447D01*
X5294302Y2852371D02*
G01*
X5548302Y2852371D01*
X5548302Y4884366D01*
X5294302Y4884366D01*
X5294302Y2852371D01*
X5294302Y4628017D02*
G01*
X5548302Y4628017D01*
X8502500Y2857502D02*
G01*
X8756500Y2857502D01*
X8756500Y4889497D01*
X8502500Y4889497D01*
X8502500Y2857502D01*
X8502500Y4633147D02*
G01*
X8756500Y4633147D01*
X5294302Y5760671D02*
G01*
X5548302Y5760671D01*
X5548302Y7792666D01*
X5294302Y7792666D01*
X5294302Y5760671D01*
X5294302Y7536317D02*
G01*
X5548302Y7536317D01*
X8502500Y24815802D02*
G01*
X8756500Y24815802D01*
X8756500Y26847797D01*
X8502500Y26847797D01*
X8502500Y24815802D01*
X8502500Y26591447D02*
G01*
X8756500Y26591447D01*
M02*
