G04 Layer: BottomSolderMaskLayer*
G04 EasyEDA v6.5.34, 2023-09-06 22:56:04*
G04 2fa0d92a81ff4a44aa565c36b1e7baf9,5a6b42c53f6a479593ecc07194224c93,10*
G04 Gerber Generator version 0.2*
G04 Scale: 100 percent, Rotated: No, Reflected: No *
G04 Dimensions in millimeters *
G04 leading zeros omitted , absolute positions ,4 integer and 5 decimal *
%FSLAX45Y45*%
%MOMM*%

%AMMACRO1*1,1,$1,$2,$3*1,1,$1,$4,$5*1,1,$1,0-$2,0-$3*1,1,$1,0-$4,0-$5*20,1,$1,$2,$3,$4,$5,0*20,1,$1,$4,$5,0-$2,0-$3,0*20,1,$1,0-$2,0-$3,0-$4,0-$5,0*20,1,$1,0-$4,0-$5,$2,$3,0*4,1,4,$2,$3,$4,$5,0-$2,0-$3,0-$4,0-$5,$2,$3,0*%
%ADD10MACRO1,0.1016X-0.75X0.75X-0.75X-0.75*%
%ADD11C,1.6016*%
%ADD12C,5.2032*%

%LPD*%
D10*
G01*
X5421302Y26715667D03*
D11*
G01*
X5421299Y26461669D03*
G01*
X5421299Y26207669D03*
G01*
X5421299Y25953669D03*
G01*
X5421299Y25699669D03*
G01*
X5421299Y25445669D03*
G01*
X5421299Y25191669D03*
G01*
X5421299Y24937669D03*
D10*
G01*
X8629500Y23812498D03*
D11*
G01*
X8629497Y23558500D03*
G01*
X8629497Y23304500D03*
G01*
X8629497Y23050500D03*
G01*
X8629497Y22796500D03*
G01*
X8629497Y22542500D03*
G01*
X8629497Y22288500D03*
G01*
X8629497Y22034500D03*
D10*
G01*
X5421302Y23807367D03*
D11*
G01*
X5421299Y23553369D03*
G01*
X5421299Y23299369D03*
G01*
X5421299Y23045369D03*
G01*
X5421299Y22791369D03*
G01*
X5421299Y22537369D03*
G01*
X5421299Y22283369D03*
G01*
X5421299Y22029369D03*
D10*
G01*
X8629500Y20370798D03*
D11*
G01*
X8629497Y20116800D03*
G01*
X8629497Y19862800D03*
G01*
X8629497Y19608800D03*
G01*
X8629497Y19354800D03*
G01*
X8629497Y19100800D03*
G01*
X8629497Y18846800D03*
G01*
X8629497Y18592800D03*
D10*
G01*
X5421302Y17457367D03*
D11*
G01*
X5421299Y17203369D03*
G01*
X5421299Y16949369D03*
G01*
X5421299Y16695369D03*
G01*
X5421299Y16441369D03*
G01*
X5421299Y16187369D03*
G01*
X5421299Y15933369D03*
G01*
X5421299Y15679369D03*
D10*
G01*
X8629500Y17462498D03*
D11*
G01*
X8629497Y17208500D03*
G01*
X8629497Y16954500D03*
G01*
X8629497Y16700500D03*
G01*
X8629497Y16446500D03*
G01*
X8629497Y16192500D03*
G01*
X8629497Y15938500D03*
G01*
X8629497Y15684500D03*
D10*
G01*
X5421302Y20365667D03*
D11*
G01*
X5421299Y20111669D03*
G01*
X5421299Y19857669D03*
G01*
X5421299Y19603669D03*
G01*
X5421299Y19349669D03*
G01*
X5421299Y19095669D03*
G01*
X5421299Y18841669D03*
G01*
X5421299Y18587669D03*
D10*
G01*
X8629500Y14020798D03*
D11*
G01*
X8629497Y13766800D03*
G01*
X8629497Y13512800D03*
G01*
X8629497Y13258800D03*
G01*
X8629497Y13004800D03*
G01*
X8629497Y12750800D03*
G01*
X8629497Y12496800D03*
G01*
X8629497Y12242800D03*
D10*
G01*
X5421302Y11107367D03*
D11*
G01*
X5421299Y10853369D03*
G01*
X5421299Y10599369D03*
G01*
X5421299Y10345369D03*
G01*
X5421299Y10091369D03*
G01*
X5421299Y9837369D03*
G01*
X5421299Y9583369D03*
G01*
X5421299Y9329369D03*
D10*
G01*
X8629500Y11112498D03*
D11*
G01*
X8629497Y10858500D03*
G01*
X8629497Y10604500D03*
G01*
X8629497Y10350500D03*
G01*
X8629497Y10096500D03*
G01*
X8629497Y9842500D03*
G01*
X8629497Y9588500D03*
G01*
X8629497Y9334500D03*
D10*
G01*
X5421302Y14015667D03*
D11*
G01*
X5421299Y13761669D03*
G01*
X5421299Y13507669D03*
G01*
X5421299Y13253669D03*
G01*
X5421299Y12999669D03*
G01*
X5421299Y12745669D03*
G01*
X5421299Y12491669D03*
G01*
X5421299Y12237669D03*
D10*
G01*
X8629500Y7670798D03*
D11*
G01*
X8629497Y7416800D03*
G01*
X8629497Y7162800D03*
G01*
X8629497Y6908800D03*
G01*
X8629497Y6654800D03*
G01*
X8629497Y6400800D03*
G01*
X8629497Y6146800D03*
G01*
X8629497Y5892800D03*
D10*
G01*
X5421302Y4757367D03*
D11*
G01*
X5421299Y4503369D03*
G01*
X5421299Y4249369D03*
G01*
X5421299Y3995369D03*
G01*
X5421299Y3741369D03*
G01*
X5421299Y3487369D03*
G01*
X5421299Y3233369D03*
G01*
X5421299Y2979369D03*
D10*
G01*
X8629500Y4762498D03*
D11*
G01*
X8629497Y4508500D03*
G01*
X8629497Y4254500D03*
G01*
X8629497Y4000500D03*
G01*
X8629497Y3746500D03*
G01*
X8629497Y3492500D03*
G01*
X8629497Y3238500D03*
G01*
X8629497Y2984500D03*
D10*
G01*
X5421302Y7665667D03*
D11*
G01*
X5421299Y7411669D03*
G01*
X5421299Y7157669D03*
G01*
X5421299Y6903669D03*
G01*
X5421299Y6649669D03*
G01*
X5421299Y6395669D03*
G01*
X5421299Y6141669D03*
G01*
X5421299Y5887669D03*
D10*
G01*
X8629500Y26720798D03*
D11*
G01*
X8629497Y26466800D03*
G01*
X8629497Y26212800D03*
G01*
X8629497Y25958800D03*
G01*
X8629497Y25704800D03*
G01*
X8629497Y25450800D03*
G01*
X8629497Y25196800D03*
G01*
X8629497Y24942800D03*
D12*
G01*
X6096000Y2794000D03*
G01*
X7957997Y2799105D03*
G01*
X7957997Y26929105D03*
G01*
X6096000Y26924000D03*
M02*
