M48
METRIC,LZ,000.000
;FILE_FORMAT=3:3
;TYPE=PLATED
;Layer: PTH_Through_Via
;EasyEDA v6.5.34, 2023-09-06 22:38:36
;b9bc4809806445119315d77ae2694b74,5a6b42c53f6a479593ecc07194224c93,10
;Gerber Generator version 0.2
;Holesize 1 = 0.305 mm
T01C0.305
%
G05
G90
T01
X055880Y007620
X053721Y018415
X051054Y012700
X051054Y007620
X051054Y018415
X017780Y018509
X017780Y037465
X016510Y015969
X016510Y032385
X015240Y021049
X015240Y029845
X013970Y023589
X013970Y027305
X021590Y010889
X021590Y024765
X022860Y008349
X022860Y022225
X030480Y013429
X030480Y022225
X031877Y008382
X031877Y019685
X031877Y051435
X031877Y045085
X051054Y032258
X037211Y028575
X037211Y034798
X047371Y038608
X047371Y041148
X047371Y043688
X047371Y046228
X047371Y048768
X011049Y051383
X011049Y048843
X011049Y046303
X011049Y043763
X011049Y041223
X011049Y038683
X011049Y036143
M30
