M48
METRIC,LZ,000.000
;FILE_FORMAT=3:3
;TYPE=PLATED
;Layer: PTH_Through
;EasyEDA v6.5.34, 2023-09-06 22:38:36
;b9bc4809806445119315d77ae2694b74,5a6b42c53f6a479593ecc07194224c93,10
;Gerber Generator version 0.2
;Holesize 1 = 0.305 mm
T01C0.305
;Holesize 2 = 0.901 mm
T02C0.901
;Holesize 3 = 0.915 mm
T03C0.915
;Holesize 4 = 1.101 mm
T04C1.101
;Holesize 5 = 1.301 mm
T05C1.301
;Holesize 6 = 3.000 mm
T06C3.000
%
G05
G90
T01
X055880Y007620
X053721Y018415
X051054Y012700
X051054Y007620
X051054Y018415
X017780Y018509
X017780Y037465
X016510Y015969
X016510Y032385
X015240Y021049
X015240Y029845
X013970Y023589
X013970Y027305
X021590Y010889
X021590Y024765
X022860Y008349
X022860Y022225
X030480Y013429
X030480Y022225
X031877Y008382
X031877Y019685
X031877Y051435
X031877Y045085
X051054Y032258
X037211Y028575
X037211Y034798
X047371Y038608
X047371Y041148
X047371Y043688
X047371Y046228
X047371Y048768
X011049Y051383
X011049Y048843
X011049Y046303
X011049Y043763
X011049Y041223
X011049Y038683
X011049Y036143
T02
X019685Y022225
X019685Y019685
X019685Y017145
X019685Y014605
X019685Y050165
X019685Y047625
X019685Y045085
X019685Y042545
X019685Y040005
X019685Y037465
X019685Y034925
X019685Y024765
X019685Y027305
X019685Y029845
X019685Y032385
X019685Y052705
X034925Y045085
X034925Y034925
X034925Y032385
X034925Y029845
X034925Y027305
X034925Y024765
X034925Y022225
X034925Y019685
X034925Y017145
X034925Y014605
X034925Y037465
X034925Y042545
X034925Y040005
X034925Y047625
X034925Y052705
X034925Y050165
X040894Y055118
X040894Y052578
X040894Y050038
X040894Y047498
X040894Y044958
X040894Y042418
X040894Y039878
X040894Y037338
T03
X040894Y034798
X040894Y032258
T04
X055880Y010160
X053340Y010160
X053340Y012700
X055880Y012700
T05
X048859Y052559
X048859Y050019
X048859Y047479
X048859Y044939
X048859Y042399
X048859Y039859
X048859Y037319
X048859Y034779
X009561Y034892
X009561Y037432
X009561Y039972
X009561Y042512
X009561Y045052
X009561Y047592
X009561Y050132
X009561Y052672
X009561Y023589
X009561Y021049
X009561Y018509
X009561Y015969
X009561Y013429
X009561Y010889
X009561Y008349
X009561Y005809
T06
X054610Y003810
X003810Y003810
X003810Y054610
X054610Y054610
M30
