G04 Layer: TopLayer*
G04 Panelize: , Column: 2, Row: 2, Board Size: 58.42mm x 58.42mm, Panelized Board Size: 118.84mm x 118.84mm*
G04 EasyEDA v6.5.34, 2023-09-06 22:38:36*
G04 b9bc4809806445119315d77ae2694b74,5a6b42c53f6a479593ecc07194224c93,10*
G04 Gerber Generator version 0.2*
G04 Scale: 100 percent, Rotated: No, Reflected: No *
G04 Dimensions in millimeters *
G04 leading zeros omitted , absolute positions ,4 integer and 5 decimal *
%FSLAX45Y45*%
%MOMM*%

%ADD10C,0.2540*%
%ADD11C,0.5000*%
%ADD12R,1.0000X0.8999*%
%ADD13R,1.1000X1.0000*%
%ADD14O,1.9999959999999999X1.524*%
%ADD15O,1.9999959999999999X1.499997*%
%ADD16R,2.0000X1.5000*%
%ADD17R,1.5240X1.5240*%
%ADD18C,1.5240*%
%ADD19C,5.0000*%
%ADD20C,2.0000*%
%ADD21C,1.8000*%
%ADD22C,0.6096*%
%ADD23C,0.0187*%

%LPD*%
G36*
X36068Y25908D02*
G01*
X32156Y26670D01*
X28905Y28905D01*
X26670Y32156D01*
X25908Y36068D01*
X25908Y5805932D01*
X26670Y5809792D01*
X28905Y5813094D01*
X32156Y5815330D01*
X36068Y5816092D01*
X2681833Y5815838D01*
X2685846Y5815025D01*
X2689199Y5812739D01*
X2691333Y5809284D01*
X2691993Y5805271D01*
X2690977Y5801309D01*
X2688539Y5798058D01*
X2678328Y5789117D01*
X2668981Y5778449D01*
X2661107Y5766663D01*
X2654858Y5753963D01*
X2650286Y5740552D01*
X2647543Y5726633D01*
X2646578Y5712460D01*
X2647543Y5698337D01*
X2650286Y5684418D01*
X2654858Y5671007D01*
X2661107Y5658307D01*
X2668981Y5646521D01*
X2678328Y5635853D01*
X2688996Y5626506D01*
X2700782Y5618632D01*
X2713532Y5612333D01*
X2726944Y5607812D01*
X2740863Y5605018D01*
X2754985Y5604103D01*
X2769108Y5605018D01*
X2783027Y5607812D01*
X2796438Y5612333D01*
X2809189Y5618632D01*
X2820974Y5626506D01*
X2831642Y5635853D01*
X2840990Y5646521D01*
X2848864Y5658307D01*
X2855112Y5671007D01*
X2859684Y5684418D01*
X2862427Y5698337D01*
X2863392Y5712460D01*
X2862427Y5726633D01*
X2859684Y5740552D01*
X2855112Y5753963D01*
X2848864Y5766663D01*
X2840990Y5778449D01*
X2831642Y5789117D01*
X2821432Y5798058D01*
X2818993Y5801309D01*
X2817977Y5805220D01*
X2818638Y5809284D01*
X2820822Y5812739D01*
X2824175Y5815025D01*
X2828137Y5815838D01*
X5805932Y5815584D01*
X5809843Y5814822D01*
X5813094Y5812637D01*
X5815330Y5809335D01*
X5816092Y5805424D01*
X5816092Y36068D01*
X5815330Y32156D01*
X5813094Y28905D01*
X5809843Y26670D01*
X5805932Y25908D01*
G37*

%LPC*%
G36*
X1181100Y5532932D02*
G01*
X1194917Y5533796D01*
X1208481Y5536539D01*
X1221638Y5540959D01*
X1234033Y5547106D01*
X1245565Y5554776D01*
X1255979Y5563920D01*
X1265123Y5574334D01*
X1272794Y5585866D01*
X1278940Y5598261D01*
X1283360Y5611418D01*
X1286103Y5624982D01*
X1286967Y5638800D01*
X1286103Y5652617D01*
X1283360Y5666181D01*
X1278940Y5679338D01*
X1272794Y5691733D01*
X1265123Y5703265D01*
X1255979Y5713679D01*
X1245565Y5722823D01*
X1234033Y5730494D01*
X1221638Y5736640D01*
X1208481Y5741060D01*
X1194917Y5743803D01*
X1181100Y5744667D01*
X1167282Y5743803D01*
X1153718Y5741060D01*
X1140561Y5736640D01*
X1128166Y5730494D01*
X1116634Y5722823D01*
X1106220Y5713679D01*
X1097076Y5703265D01*
X1089406Y5691733D01*
X1083259Y5679338D01*
X1078839Y5666181D01*
X1076096Y5652617D01*
X1075232Y5638800D01*
X1076096Y5624982D01*
X1078839Y5611418D01*
X1083259Y5598261D01*
X1089406Y5585866D01*
X1097076Y5574334D01*
X1106220Y5563920D01*
X1116634Y5554776D01*
X1128166Y5547106D01*
X1140561Y5540959D01*
X1153718Y5536539D01*
X1167282Y5533796D01*
G37*
G36*
X5448300Y105562D02*
G01*
X5448300Y368300D01*
X5185664Y368300D01*
X5186070Y357936D01*
X5188966Y334975D01*
X5193792Y312369D01*
X5200446Y290271D01*
X5208981Y268782D01*
X5219242Y248107D01*
X5231180Y228295D01*
X5244795Y209600D01*
X5259882Y192125D01*
X5276392Y175971D01*
X5294172Y161239D01*
X5313172Y148031D01*
X5333187Y136499D01*
X5354066Y126644D01*
X5375757Y118618D01*
X5398008Y112369D01*
X5420715Y108051D01*
X5443677Y105664D01*
G37*
G36*
X5473700Y105613D02*
G01*
X5489854Y106629D01*
X5512714Y109982D01*
X5535218Y115265D01*
X5557164Y122428D01*
X5578500Y131368D01*
X5598972Y142087D01*
X5618480Y154432D01*
X5636869Y168402D01*
X5654040Y183896D01*
X5669838Y200710D01*
X5684215Y218846D01*
X5697016Y238099D01*
X5708142Y258317D01*
X5717540Y279450D01*
X5725109Y301244D01*
X5730849Y323646D01*
X5734710Y346405D01*
X5736590Y368300D01*
X5473700Y368300D01*
G37*
G36*
X393700Y105613D02*
G01*
X409854Y106629D01*
X432714Y109982D01*
X455218Y115265D01*
X477164Y122428D01*
X498500Y131368D01*
X518972Y142087D01*
X538480Y154432D01*
X556869Y168402D01*
X574040Y183896D01*
X589838Y200710D01*
X604215Y218846D01*
X617016Y238099D01*
X628142Y258317D01*
X637540Y279450D01*
X645109Y301244D01*
X650849Y323646D01*
X654710Y346405D01*
X656590Y368300D01*
X393700Y368300D01*
G37*
G36*
X105664Y393700D02*
G01*
X368300Y393700D01*
X368300Y656437D01*
X363677Y656336D01*
X340715Y653948D01*
X318008Y649630D01*
X295757Y643382D01*
X274066Y635355D01*
X253187Y625500D01*
X233171Y613968D01*
X214172Y600760D01*
X196392Y586028D01*
X179882Y569874D01*
X164795Y552348D01*
X151180Y533704D01*
X139242Y513892D01*
X128981Y493217D01*
X120446Y471728D01*
X113792Y449630D01*
X108966Y427024D01*
X106070Y404063D01*
G37*
G36*
X5185664Y393700D02*
G01*
X5448300Y393700D01*
X5448300Y656437D01*
X5443677Y656336D01*
X5420715Y653948D01*
X5398008Y649630D01*
X5375757Y643382D01*
X5354066Y635355D01*
X5333187Y625500D01*
X5313172Y613968D01*
X5294172Y600760D01*
X5276392Y586028D01*
X5259882Y569874D01*
X5244795Y552348D01*
X5231180Y533704D01*
X5219242Y513892D01*
X5208981Y493217D01*
X5200446Y471728D01*
X5193792Y449630D01*
X5188966Y427024D01*
X5186070Y404063D01*
G37*
G36*
X5473700Y393700D02*
G01*
X5736590Y393700D01*
X5734710Y415594D01*
X5730849Y438353D01*
X5725109Y460756D01*
X5717540Y482549D01*
X5708142Y503682D01*
X5697016Y523900D01*
X5684215Y543153D01*
X5669838Y561289D01*
X5654040Y578104D01*
X5636869Y593598D01*
X5618480Y607568D01*
X5598972Y619912D01*
X5578500Y630631D01*
X5557164Y639572D01*
X5535218Y646734D01*
X5512714Y652018D01*
X5489854Y655370D01*
X5473700Y656386D01*
G37*
G36*
X393700Y393700D02*
G01*
X656590Y393700D01*
X654710Y415594D01*
X650849Y438353D01*
X645109Y460756D01*
X637540Y482549D01*
X628142Y503682D01*
X617016Y523900D01*
X604215Y543153D01*
X589838Y561289D01*
X574040Y578104D01*
X556869Y593598D01*
X538480Y607568D01*
X518972Y619912D01*
X498500Y630631D01*
X477164Y639572D01*
X455218Y646734D01*
X432714Y652018D01*
X409854Y655370D01*
X393700Y656386D01*
G37*
G36*
X956106Y455015D02*
G01*
X971296Y455930D01*
X986231Y458673D01*
X1000760Y463194D01*
X1014628Y469442D01*
X1027633Y477316D01*
X1039571Y486664D01*
X1050340Y497433D01*
X1059688Y509371D01*
X1067562Y522376D01*
X1073810Y536295D01*
X1076045Y539445D01*
X1079296Y541578D01*
X1083106Y542290D01*
X2358390Y542290D01*
X2366416Y543102D01*
X2373630Y545287D01*
X2380335Y548843D01*
X2386533Y553974D01*
X2629204Y796594D01*
X2632506Y798830D01*
X2636418Y799592D01*
X3142691Y799592D01*
X3146602Y798830D01*
X3149904Y796594D01*
X3151479Y795020D01*
X3159506Y789381D01*
X3168446Y785266D01*
X3177895Y782726D01*
X3187700Y781862D01*
X3197504Y782726D01*
X3206953Y785266D01*
X3215894Y789381D01*
X3223920Y795020D01*
X3230880Y801979D01*
X3236518Y810006D01*
X3240633Y818946D01*
X3243173Y828395D01*
X3244037Y838200D01*
X3243173Y848004D01*
X3240633Y857453D01*
X3236518Y866394D01*
X3230880Y874420D01*
X3223920Y881380D01*
X3215894Y887018D01*
X3206953Y891133D01*
X3197504Y893673D01*
X3187700Y894537D01*
X3177895Y893673D01*
X3168446Y891133D01*
X3159506Y887018D01*
X3151479Y881380D01*
X3149904Y879805D01*
X3146602Y877569D01*
X3142691Y876808D01*
X2616708Y876808D01*
X2608681Y875995D01*
X2601468Y873810D01*
X2594762Y870254D01*
X2588564Y865124D01*
X2345893Y622503D01*
X2342591Y620268D01*
X2338679Y619506D01*
X1083106Y619506D01*
X1079296Y620217D01*
X1076045Y622350D01*
X1073810Y625500D01*
X1067562Y639419D01*
X1059688Y652424D01*
X1050340Y664362D01*
X1039571Y675132D01*
X1027633Y684479D01*
X1014628Y692353D01*
X1000709Y698652D01*
X997508Y700836D01*
X995426Y704088D01*
X994714Y707898D01*
X995426Y711708D01*
X997508Y714959D01*
X1000709Y717143D01*
X1014628Y723442D01*
X1027633Y731316D01*
X1039571Y740664D01*
X1050340Y751433D01*
X1059688Y763371D01*
X1067562Y776376D01*
X1073810Y790295D01*
X1076045Y793445D01*
X1079296Y795578D01*
X1083106Y796290D01*
X2240991Y796290D01*
X2244902Y795528D01*
X2248204Y793292D01*
X2249779Y791718D01*
X2257806Y786079D01*
X2266746Y781964D01*
X2276195Y779424D01*
X2286000Y778560D01*
X2295804Y779424D01*
X2305253Y781964D01*
X2314194Y786079D01*
X2322220Y791718D01*
X2329180Y798677D01*
X2334818Y806704D01*
X2338933Y815644D01*
X2341473Y825093D01*
X2342337Y834898D01*
X2341473Y844702D01*
X2338933Y854151D01*
X2334818Y863092D01*
X2329180Y871118D01*
X2322220Y878078D01*
X2314194Y883716D01*
X2305253Y887831D01*
X2295804Y890371D01*
X2286000Y891235D01*
X2276195Y890371D01*
X2266746Y887831D01*
X2257806Y883716D01*
X2249779Y878078D01*
X2248204Y876503D01*
X2244902Y874268D01*
X2240991Y873506D01*
X1083106Y873506D01*
X1079296Y874217D01*
X1076045Y876350D01*
X1073810Y879500D01*
X1067562Y893419D01*
X1059688Y906424D01*
X1050340Y918362D01*
X1039571Y929132D01*
X1027633Y938479D01*
X1014628Y946353D01*
X1000709Y952652D01*
X997508Y954836D01*
X995426Y958087D01*
X994714Y961898D01*
X995426Y965708D01*
X997508Y968959D01*
X1000709Y971143D01*
X1014628Y977442D01*
X1027633Y985316D01*
X1039571Y994664D01*
X1050340Y1005433D01*
X1059688Y1017371D01*
X1067562Y1030376D01*
X1073810Y1044295D01*
X1076045Y1047445D01*
X1079296Y1049578D01*
X1083106Y1050290D01*
X2113991Y1050290D01*
X2117902Y1049528D01*
X2121204Y1047292D01*
X2122779Y1045718D01*
X2130806Y1040079D01*
X2139746Y1035964D01*
X2149195Y1033424D01*
X2159000Y1032560D01*
X2168804Y1033424D01*
X2178253Y1035964D01*
X2187194Y1040079D01*
X2195220Y1045718D01*
X2202180Y1052677D01*
X2207818Y1060704D01*
X2211933Y1069644D01*
X2214473Y1079093D01*
X2215337Y1088898D01*
X2214473Y1098702D01*
X2211933Y1108151D01*
X2207818Y1117092D01*
X2202180Y1125118D01*
X2195220Y1132078D01*
X2187194Y1137716D01*
X2178253Y1141831D01*
X2168804Y1144371D01*
X2159000Y1145235D01*
X2149195Y1144371D01*
X2139746Y1141831D01*
X2130806Y1137716D01*
X2122779Y1132078D01*
X2121204Y1130503D01*
X2117902Y1128268D01*
X2113991Y1127506D01*
X1083106Y1127506D01*
X1079296Y1128217D01*
X1076045Y1130350D01*
X1073810Y1133500D01*
X1067562Y1147419D01*
X1059688Y1160424D01*
X1050340Y1172362D01*
X1039571Y1183132D01*
X1027633Y1192479D01*
X1014628Y1200353D01*
X1000709Y1206652D01*
X997508Y1208836D01*
X995426Y1212088D01*
X994714Y1215898D01*
X995426Y1219708D01*
X997508Y1222959D01*
X1000709Y1225143D01*
X1014628Y1231442D01*
X1027633Y1239316D01*
X1039571Y1248664D01*
X1050340Y1259433D01*
X1059688Y1271371D01*
X1067562Y1284376D01*
X1073810Y1298295D01*
X1076045Y1301445D01*
X1079296Y1303578D01*
X1083106Y1304290D01*
X3002991Y1304290D01*
X3006902Y1303528D01*
X3010204Y1301292D01*
X3011779Y1299718D01*
X3019806Y1294079D01*
X3028746Y1289964D01*
X3038195Y1287424D01*
X3048000Y1286560D01*
X3057804Y1287424D01*
X3067253Y1289964D01*
X3076194Y1294079D01*
X3084220Y1299718D01*
X3091180Y1306677D01*
X3096818Y1314704D01*
X3100933Y1323644D01*
X3103473Y1333093D01*
X3104337Y1342898D01*
X3103473Y1352702D01*
X3100933Y1362151D01*
X3096818Y1371092D01*
X3091180Y1379118D01*
X3084220Y1386078D01*
X3077006Y1391107D01*
X3074111Y1394206D01*
X3072739Y1398270D01*
X3073146Y1402486D01*
X3075228Y1406194D01*
X3078683Y1408684D01*
X3082848Y1409598D01*
X3137001Y1409598D01*
X3140913Y1408836D01*
X3144164Y1406601D01*
X3316630Y1234135D01*
X3320084Y1230985D01*
X3323590Y1228293D01*
X3327349Y1225905D01*
X3331311Y1223873D01*
X3335375Y1222146D01*
X3339642Y1220825D01*
X3343960Y1219860D01*
X3348380Y1219301D01*
X3353003Y1219098D01*
X5079492Y1219098D01*
X5083810Y1218133D01*
X5086146Y1217066D01*
X5095595Y1214526D01*
X5105400Y1213662D01*
X5115204Y1214526D01*
X5124653Y1217066D01*
X5133594Y1221181D01*
X5141620Y1226820D01*
X5148580Y1233779D01*
X5154218Y1241806D01*
X5158333Y1250746D01*
X5160873Y1260195D01*
X5161737Y1270000D01*
X5160873Y1279804D01*
X5158333Y1289253D01*
X5154218Y1298194D01*
X5148580Y1306220D01*
X5141620Y1313180D01*
X5133594Y1318818D01*
X5124653Y1322933D01*
X5115204Y1325473D01*
X5105400Y1326337D01*
X5095595Y1325473D01*
X5086146Y1322933D01*
X5083810Y1321866D01*
X5079492Y1320901D01*
X3378098Y1320901D01*
X3374186Y1321663D01*
X3370935Y1323898D01*
X3198469Y1496364D01*
X3195015Y1499514D01*
X3191510Y1502206D01*
X3187750Y1504594D01*
X3183788Y1506626D01*
X3179724Y1508353D01*
X3175457Y1509674D01*
X3171139Y1510639D01*
X3166719Y1511198D01*
X3162096Y1511401D01*
X2086254Y1511401D01*
X2082952Y1511960D01*
X2080056Y1513484D01*
X2077770Y1515922D01*
X2073300Y1522628D01*
X2064461Y1532686D01*
X2054453Y1541475D01*
X2043328Y1548892D01*
X2031390Y1554835D01*
X2018741Y1559102D01*
X2005634Y1561693D01*
X1991969Y1562608D01*
X1945030Y1562608D01*
X1931365Y1561693D01*
X1918258Y1559102D01*
X1905609Y1554835D01*
X1893671Y1548892D01*
X1882546Y1541475D01*
X1872538Y1532686D01*
X1863699Y1522628D01*
X1856282Y1511554D01*
X1850389Y1499565D01*
X1846072Y1486916D01*
X1843481Y1473809D01*
X1842617Y1460500D01*
X1843481Y1447190D01*
X1846072Y1434084D01*
X1850389Y1421434D01*
X1856282Y1409496D01*
X1864461Y1397355D01*
X1866087Y1393291D01*
X1865833Y1388922D01*
X1863801Y1385062D01*
X1860346Y1382420D01*
X1856079Y1381506D01*
X1083106Y1381506D01*
X1079296Y1382217D01*
X1076045Y1384350D01*
X1073810Y1387500D01*
X1067562Y1401419D01*
X1059688Y1414424D01*
X1050340Y1426362D01*
X1039571Y1437132D01*
X1027633Y1446479D01*
X1014628Y1454353D01*
X1000709Y1460652D01*
X997508Y1462836D01*
X995426Y1466088D01*
X994714Y1469898D01*
X995426Y1473708D01*
X997508Y1476959D01*
X1000709Y1479143D01*
X1014628Y1485442D01*
X1027633Y1493316D01*
X1039571Y1502664D01*
X1050340Y1513433D01*
X1059688Y1525371D01*
X1067562Y1538376D01*
X1073810Y1552295D01*
X1076045Y1555445D01*
X1079296Y1557578D01*
X1083106Y1558290D01*
X1605991Y1558290D01*
X1609902Y1557528D01*
X1613204Y1555292D01*
X1614779Y1553718D01*
X1622806Y1548079D01*
X1631746Y1543964D01*
X1641195Y1541424D01*
X1651000Y1540560D01*
X1660804Y1541424D01*
X1670253Y1543964D01*
X1679193Y1548079D01*
X1687220Y1553718D01*
X1694180Y1560677D01*
X1699818Y1568704D01*
X1703933Y1577644D01*
X1706473Y1587093D01*
X1707337Y1596898D01*
X1706473Y1606702D01*
X1703933Y1616151D01*
X1699818Y1625092D01*
X1694180Y1633118D01*
X1687220Y1640078D01*
X1679193Y1645716D01*
X1670253Y1649831D01*
X1660804Y1652371D01*
X1651000Y1653235D01*
X1641195Y1652371D01*
X1631746Y1649831D01*
X1622806Y1645716D01*
X1614779Y1640078D01*
X1613204Y1638503D01*
X1609902Y1636268D01*
X1605991Y1635506D01*
X1083106Y1635506D01*
X1079296Y1636217D01*
X1076045Y1638350D01*
X1073810Y1641500D01*
X1067562Y1655419D01*
X1059688Y1668424D01*
X1050340Y1680362D01*
X1039571Y1691132D01*
X1027633Y1700479D01*
X1014628Y1708353D01*
X1000709Y1714652D01*
X997508Y1716836D01*
X995426Y1720088D01*
X994714Y1723898D01*
X995426Y1727707D01*
X997508Y1730959D01*
X1000709Y1733143D01*
X1014628Y1739442D01*
X1027633Y1747316D01*
X1039571Y1756664D01*
X1050340Y1767433D01*
X1059688Y1779371D01*
X1067562Y1792376D01*
X1073810Y1806295D01*
X1076045Y1809445D01*
X1079296Y1811578D01*
X1083106Y1812289D01*
X1732991Y1812289D01*
X1736902Y1811528D01*
X1740204Y1809292D01*
X1741779Y1807718D01*
X1749806Y1802079D01*
X1758746Y1797964D01*
X1768195Y1795424D01*
X1778000Y1794560D01*
X1787804Y1795424D01*
X1797253Y1797964D01*
X1806193Y1802079D01*
X1814220Y1807718D01*
X1821180Y1814677D01*
X1826818Y1822704D01*
X1830933Y1831644D01*
X1833473Y1841093D01*
X1834337Y1850898D01*
X1833473Y1860702D01*
X1830933Y1870151D01*
X1826818Y1879092D01*
X1821180Y1887118D01*
X1814220Y1894078D01*
X1806193Y1899716D01*
X1797253Y1903831D01*
X1787804Y1906371D01*
X1778000Y1907235D01*
X1768195Y1906371D01*
X1758746Y1903831D01*
X1749806Y1899716D01*
X1741779Y1894078D01*
X1740204Y1892503D01*
X1736902Y1890268D01*
X1732991Y1889506D01*
X1083106Y1889506D01*
X1079296Y1890217D01*
X1076045Y1892350D01*
X1073810Y1895500D01*
X1067562Y1909419D01*
X1059688Y1922424D01*
X1050340Y1934362D01*
X1039571Y1945132D01*
X1027633Y1954479D01*
X1014628Y1962353D01*
X1000709Y1968652D01*
X997508Y1970836D01*
X995426Y1974088D01*
X994714Y1977898D01*
X995426Y1981707D01*
X997508Y1984959D01*
X1000709Y1987143D01*
X1014628Y1993442D01*
X1027633Y2001316D01*
X1039571Y2010664D01*
X1050340Y2021433D01*
X1059688Y2033371D01*
X1067562Y2046376D01*
X1073810Y2060295D01*
X1076045Y2063445D01*
X1079296Y2065578D01*
X1083106Y2066289D01*
X1478991Y2066289D01*
X1482902Y2065528D01*
X1486204Y2063292D01*
X1487779Y2061718D01*
X1495806Y2056079D01*
X1504746Y2051964D01*
X1514195Y2049424D01*
X1524000Y2048560D01*
X1533804Y2049424D01*
X1543253Y2051964D01*
X1552194Y2056079D01*
X1560220Y2061718D01*
X1567180Y2068677D01*
X1572818Y2076704D01*
X1576933Y2085644D01*
X1579473Y2095093D01*
X1580337Y2104898D01*
X1579473Y2114702D01*
X1576933Y2124151D01*
X1572818Y2133092D01*
X1567180Y2141118D01*
X1560220Y2148078D01*
X1552194Y2153716D01*
X1543253Y2157831D01*
X1533804Y2160371D01*
X1524000Y2161235D01*
X1514195Y2160371D01*
X1504746Y2157831D01*
X1495806Y2153716D01*
X1487779Y2148078D01*
X1486204Y2146503D01*
X1482902Y2144268D01*
X1478991Y2143506D01*
X1083106Y2143506D01*
X1079296Y2144217D01*
X1076045Y2146350D01*
X1073810Y2149500D01*
X1067562Y2163419D01*
X1059688Y2176424D01*
X1050340Y2188362D01*
X1039571Y2199132D01*
X1027633Y2208479D01*
X1014628Y2216353D01*
X1000709Y2222652D01*
X997508Y2224836D01*
X995426Y2228088D01*
X994714Y2231898D01*
X995426Y2235708D01*
X997508Y2238959D01*
X1000709Y2241143D01*
X1014628Y2247442D01*
X1027633Y2255316D01*
X1039571Y2264664D01*
X1050340Y2275433D01*
X1059688Y2287371D01*
X1067562Y2300376D01*
X1073810Y2314295D01*
X1076045Y2317445D01*
X1079296Y2319578D01*
X1083106Y2320290D01*
X1351991Y2320290D01*
X1355902Y2319528D01*
X1359204Y2317292D01*
X1360779Y2315718D01*
X1368806Y2310079D01*
X1377746Y2305964D01*
X1387195Y2303424D01*
X1397000Y2302560D01*
X1406804Y2303424D01*
X1416253Y2305964D01*
X1425194Y2310079D01*
X1433220Y2315718D01*
X1440180Y2322677D01*
X1445818Y2330704D01*
X1449933Y2339644D01*
X1452473Y2349093D01*
X1453337Y2358898D01*
X1452473Y2368702D01*
X1449933Y2378151D01*
X1445818Y2387092D01*
X1440180Y2395118D01*
X1433220Y2402078D01*
X1425194Y2407716D01*
X1416253Y2411831D01*
X1406804Y2414371D01*
X1397000Y2415235D01*
X1387195Y2414371D01*
X1377746Y2411831D01*
X1368806Y2407716D01*
X1360779Y2402078D01*
X1359204Y2400503D01*
X1355902Y2398268D01*
X1351991Y2397506D01*
X1083106Y2397506D01*
X1079296Y2398217D01*
X1076045Y2400350D01*
X1073810Y2403500D01*
X1067562Y2417419D01*
X1059688Y2430424D01*
X1050340Y2442362D01*
X1039571Y2453132D01*
X1027633Y2462479D01*
X1014628Y2470353D01*
X1000760Y2476601D01*
X986231Y2481122D01*
X971296Y2483866D01*
X956106Y2484780D01*
X940917Y2483866D01*
X925982Y2481122D01*
X911453Y2476601D01*
X897585Y2470353D01*
X884580Y2462479D01*
X872642Y2453132D01*
X861872Y2442362D01*
X852525Y2430424D01*
X844651Y2417419D01*
X838403Y2403551D01*
X833882Y2389022D01*
X831138Y2374087D01*
X830224Y2358898D01*
X831138Y2343708D01*
X833882Y2328773D01*
X838403Y2314244D01*
X844651Y2300376D01*
X852525Y2287371D01*
X861872Y2275433D01*
X872642Y2264664D01*
X884580Y2255316D01*
X897585Y2247442D01*
X911504Y2241143D01*
X914704Y2238959D01*
X916787Y2235708D01*
X917498Y2231898D01*
X916787Y2228088D01*
X914704Y2224836D01*
X911504Y2222652D01*
X897585Y2216353D01*
X884580Y2208479D01*
X872642Y2199132D01*
X861872Y2188362D01*
X852525Y2176424D01*
X844651Y2163419D01*
X838403Y2149551D01*
X833882Y2135022D01*
X831138Y2120087D01*
X830224Y2104898D01*
X831138Y2089708D01*
X833882Y2074773D01*
X838403Y2060244D01*
X844651Y2046376D01*
X852525Y2033371D01*
X861872Y2021433D01*
X872642Y2010664D01*
X884580Y2001316D01*
X897585Y1993442D01*
X911504Y1987143D01*
X914704Y1984959D01*
X916787Y1981707D01*
X917498Y1977898D01*
X916787Y1974088D01*
X914704Y1970836D01*
X911504Y1968652D01*
X897585Y1962353D01*
X884580Y1954479D01*
X872642Y1945132D01*
X861872Y1934362D01*
X852525Y1922424D01*
X844651Y1909419D01*
X838403Y1895551D01*
X833882Y1881022D01*
X831138Y1866087D01*
X830224Y1850898D01*
X831138Y1835708D01*
X833882Y1820773D01*
X838403Y1806244D01*
X844651Y1792376D01*
X852525Y1779371D01*
X861872Y1767433D01*
X872642Y1756664D01*
X884580Y1747316D01*
X897585Y1739442D01*
X911504Y1733143D01*
X914704Y1730959D01*
X916787Y1727707D01*
X917498Y1723898D01*
X916787Y1720088D01*
X914704Y1716836D01*
X911504Y1714652D01*
X897585Y1708353D01*
X884580Y1700479D01*
X872642Y1691132D01*
X861872Y1680362D01*
X852525Y1668424D01*
X844651Y1655419D01*
X838403Y1641551D01*
X833882Y1627022D01*
X831138Y1612087D01*
X830224Y1596898D01*
X831138Y1581708D01*
X833882Y1566773D01*
X838403Y1552244D01*
X844651Y1538376D01*
X852525Y1525371D01*
X861872Y1513433D01*
X872642Y1502664D01*
X884580Y1493316D01*
X897585Y1485442D01*
X911504Y1479143D01*
X914704Y1476959D01*
X916787Y1473708D01*
X917498Y1469898D01*
X916787Y1466088D01*
X914704Y1462836D01*
X911504Y1460652D01*
X897585Y1454353D01*
X884580Y1446479D01*
X872642Y1437132D01*
X861872Y1426362D01*
X852525Y1414424D01*
X844651Y1401419D01*
X838403Y1387551D01*
X833882Y1373022D01*
X831138Y1358087D01*
X830224Y1342898D01*
X831138Y1327708D01*
X833882Y1312773D01*
X838403Y1298244D01*
X844651Y1284376D01*
X852525Y1271371D01*
X861872Y1259433D01*
X872642Y1248664D01*
X884580Y1239316D01*
X897585Y1231442D01*
X911504Y1225143D01*
X914704Y1222959D01*
X916787Y1219708D01*
X917498Y1215898D01*
X916787Y1212088D01*
X914704Y1208836D01*
X911504Y1206652D01*
X897585Y1200353D01*
X884580Y1192479D01*
X872642Y1183132D01*
X861872Y1172362D01*
X852525Y1160424D01*
X844651Y1147419D01*
X838403Y1133551D01*
X833882Y1119022D01*
X831138Y1104087D01*
X830224Y1088898D01*
X831138Y1073708D01*
X833882Y1058773D01*
X838403Y1044244D01*
X844651Y1030376D01*
X852525Y1017371D01*
X861872Y1005433D01*
X872642Y994664D01*
X884580Y985316D01*
X897585Y977442D01*
X911504Y971143D01*
X914704Y968959D01*
X916787Y965708D01*
X917498Y961898D01*
X916787Y958087D01*
X914704Y954836D01*
X911504Y952652D01*
X897585Y946353D01*
X884580Y938479D01*
X872642Y929132D01*
X861872Y918362D01*
X852525Y906424D01*
X844651Y893419D01*
X838403Y879551D01*
X833882Y865022D01*
X831138Y850087D01*
X830224Y834898D01*
X831138Y819708D01*
X833882Y804773D01*
X838403Y790244D01*
X844651Y776376D01*
X852525Y763371D01*
X861872Y751433D01*
X872642Y740664D01*
X884580Y731316D01*
X897585Y723442D01*
X911504Y717143D01*
X914704Y714959D01*
X916787Y711708D01*
X917498Y707898D01*
X916787Y704088D01*
X914704Y700836D01*
X911504Y698652D01*
X897585Y692353D01*
X884580Y684479D01*
X872642Y675132D01*
X861872Y664362D01*
X852525Y652424D01*
X844651Y639419D01*
X838403Y625551D01*
X833882Y611022D01*
X831138Y596087D01*
X830224Y580898D01*
X831138Y565708D01*
X833882Y550773D01*
X838403Y536244D01*
X844651Y522376D01*
X852525Y509371D01*
X861872Y497433D01*
X872642Y486664D01*
X884580Y477316D01*
X897585Y469442D01*
X911453Y463194D01*
X925982Y458673D01*
X940917Y455930D01*
G37*
G36*
X2754985Y486105D02*
G01*
X2769108Y487070D01*
X2783027Y489813D01*
X2796438Y494385D01*
X2809189Y500634D01*
X2820974Y508508D01*
X2831642Y517855D01*
X2840990Y528523D01*
X2848864Y540308D01*
X2855112Y553059D01*
X2859684Y566470D01*
X2862427Y580390D01*
X2863392Y594512D01*
X2862427Y608634D01*
X2859684Y622554D01*
X2855112Y635965D01*
X2848864Y648716D01*
X2840990Y660501D01*
X2831642Y671169D01*
X2820974Y680516D01*
X2809189Y688390D01*
X2796438Y694639D01*
X2783027Y699211D01*
X2769108Y701954D01*
X2754985Y702919D01*
X2740863Y701954D01*
X2726944Y699211D01*
X2713532Y694639D01*
X2700782Y688390D01*
X2688996Y680516D01*
X2678328Y671169D01*
X2668981Y660501D01*
X2661107Y648716D01*
X2654858Y635965D01*
X2650286Y622554D01*
X2647543Y608634D01*
X2646578Y594512D01*
X2647543Y580390D01*
X2650286Y566470D01*
X2654858Y553059D01*
X2661107Y540308D01*
X2668981Y528523D01*
X2678328Y517855D01*
X2688996Y508508D01*
X2700782Y500634D01*
X2713532Y494385D01*
X2726944Y489813D01*
X2740863Y487070D01*
G37*
G36*
X5105400Y705662D02*
G01*
X5115204Y706526D01*
X5124653Y709066D01*
X5126990Y710133D01*
X5131308Y711098D01*
X5562092Y711098D01*
X5566410Y710133D01*
X5568746Y709066D01*
X5578195Y706526D01*
X5588000Y705662D01*
X5597804Y706526D01*
X5607253Y709066D01*
X5616194Y713181D01*
X5624220Y718820D01*
X5631180Y725779D01*
X5636818Y733806D01*
X5640933Y742746D01*
X5643473Y752195D01*
X5644337Y762000D01*
X5643473Y771804D01*
X5640933Y781253D01*
X5636818Y790194D01*
X5631180Y798220D01*
X5624220Y805180D01*
X5616194Y810818D01*
X5607253Y814933D01*
X5597804Y817473D01*
X5588000Y818337D01*
X5578195Y817473D01*
X5568746Y814933D01*
X5566410Y813866D01*
X5562092Y812901D01*
X5131308Y812901D01*
X5126990Y813866D01*
X5124653Y814933D01*
X5115204Y817473D01*
X5105400Y818337D01*
X5095595Y817473D01*
X5086146Y814933D01*
X5077206Y810818D01*
X5069179Y805180D01*
X5062220Y798220D01*
X5056581Y790194D01*
X5052466Y781253D01*
X5049926Y771804D01*
X5049062Y762000D01*
X5049926Y752195D01*
X5052466Y742746D01*
X5056581Y733806D01*
X5062220Y725779D01*
X5069179Y718820D01*
X5077206Y713181D01*
X5086146Y709066D01*
X5095595Y706526D01*
G37*
G36*
X5334000Y900125D02*
G01*
X5348528Y901039D01*
X5362803Y903732D01*
X5376672Y908253D01*
X5389829Y914450D01*
X5402122Y922223D01*
X5413349Y931519D01*
X5423306Y942136D01*
X5431840Y953922D01*
X5438851Y966673D01*
X5444236Y980186D01*
X5447842Y994308D01*
X5449671Y1008735D01*
X5449671Y1023264D01*
X5447842Y1037691D01*
X5444236Y1051814D01*
X5438851Y1065326D01*
X5431840Y1078077D01*
X5423306Y1089863D01*
X5413349Y1100480D01*
X5402122Y1109776D01*
X5389829Y1117549D01*
X5376672Y1123746D01*
X5362803Y1128268D01*
X5348528Y1130960D01*
X5334000Y1131874D01*
X5319471Y1130960D01*
X5305196Y1128268D01*
X5291328Y1123746D01*
X5278170Y1117549D01*
X5265877Y1109776D01*
X5254650Y1100480D01*
X5244693Y1089863D01*
X5236159Y1078077D01*
X5229148Y1065326D01*
X5223764Y1051814D01*
X5220157Y1037691D01*
X5218328Y1023264D01*
X5218328Y1008735D01*
X5220157Y994308D01*
X5223764Y980186D01*
X5229148Y966673D01*
X5236159Y953922D01*
X5244693Y942136D01*
X5254650Y931519D01*
X5265877Y922223D01*
X5278170Y914450D01*
X5291328Y908253D01*
X5305196Y903732D01*
X5319471Y901039D01*
G37*
G36*
X5588000Y900125D02*
G01*
X5602528Y901039D01*
X5616803Y903732D01*
X5630672Y908253D01*
X5643829Y914450D01*
X5656122Y922223D01*
X5667349Y931519D01*
X5677306Y942136D01*
X5685840Y953922D01*
X5692851Y966673D01*
X5698236Y980186D01*
X5701842Y994308D01*
X5703671Y1008735D01*
X5703671Y1023264D01*
X5701842Y1037691D01*
X5698236Y1051814D01*
X5692851Y1065326D01*
X5685840Y1078077D01*
X5677306Y1089863D01*
X5667349Y1100480D01*
X5656122Y1109776D01*
X5643829Y1117549D01*
X5630672Y1123746D01*
X5616803Y1128268D01*
X5602528Y1130960D01*
X5588000Y1131874D01*
X5573471Y1130960D01*
X5559196Y1128268D01*
X5545328Y1123746D01*
X5532170Y1117549D01*
X5519877Y1109776D01*
X5508650Y1100480D01*
X5498693Y1089863D01*
X5490159Y1078077D01*
X5483148Y1065326D01*
X5477764Y1051814D01*
X5474157Y1037691D01*
X5472328Y1023264D01*
X5472328Y1008735D01*
X5474157Y994308D01*
X5477764Y980186D01*
X5483148Y966673D01*
X5490159Y953922D01*
X5498693Y942136D01*
X5508650Y931519D01*
X5519877Y922223D01*
X5532170Y914450D01*
X5545328Y908253D01*
X5559196Y903732D01*
X5573471Y901039D01*
G37*
G36*
X5346700Y1154887D02*
G01*
X5348528Y1155039D01*
X5362803Y1157732D01*
X5376672Y1162253D01*
X5389829Y1168450D01*
X5402122Y1176223D01*
X5413349Y1185519D01*
X5423306Y1196136D01*
X5431840Y1207922D01*
X5438851Y1220673D01*
X5444236Y1234186D01*
X5447842Y1248308D01*
X5448960Y1257300D01*
X5346700Y1257300D01*
G37*
G36*
X5575300Y1154887D02*
G01*
X5575300Y1257300D01*
X5473039Y1257300D01*
X5474157Y1248308D01*
X5477764Y1234186D01*
X5483148Y1220673D01*
X5490159Y1207922D01*
X5498693Y1196136D01*
X5508650Y1185519D01*
X5519877Y1176223D01*
X5532170Y1168450D01*
X5545328Y1162253D01*
X5559196Y1157732D01*
X5573471Y1155039D01*
G37*
G36*
X5321300Y1154887D02*
G01*
X5321300Y1257300D01*
X5219039Y1257300D01*
X5220157Y1248308D01*
X5223764Y1234186D01*
X5229148Y1220673D01*
X5236159Y1207922D01*
X5244693Y1196136D01*
X5254650Y1185519D01*
X5265877Y1176223D01*
X5278170Y1168450D01*
X5291328Y1162253D01*
X5305196Y1157732D01*
X5319471Y1155039D01*
G37*
G36*
X5600700Y1154887D02*
G01*
X5602528Y1155039D01*
X5616803Y1157732D01*
X5630672Y1162253D01*
X5643829Y1168450D01*
X5656122Y1176223D01*
X5667349Y1185519D01*
X5677306Y1196136D01*
X5685840Y1207922D01*
X5692851Y1220673D01*
X5698236Y1234186D01*
X5701842Y1248308D01*
X5702960Y1257300D01*
X5600700Y1257300D01*
G37*
G36*
X5346700Y1282700D02*
G01*
X5448960Y1282700D01*
X5447842Y1291691D01*
X5444236Y1305814D01*
X5438851Y1319326D01*
X5431840Y1332077D01*
X5423306Y1343863D01*
X5413349Y1354480D01*
X5402122Y1363776D01*
X5389829Y1371549D01*
X5376672Y1377746D01*
X5362803Y1382268D01*
X5348528Y1384960D01*
X5346700Y1385112D01*
G37*
G36*
X5473039Y1282700D02*
G01*
X5575300Y1282700D01*
X5575300Y1385112D01*
X5573471Y1384960D01*
X5559196Y1382268D01*
X5545328Y1377746D01*
X5532170Y1371549D01*
X5519877Y1363776D01*
X5508650Y1354480D01*
X5498693Y1343863D01*
X5490159Y1332077D01*
X5483148Y1319326D01*
X5477764Y1305814D01*
X5474157Y1291691D01*
G37*
G36*
X5600700Y1282700D02*
G01*
X5702960Y1282700D01*
X5701842Y1291691D01*
X5698236Y1305814D01*
X5692851Y1319326D01*
X5685840Y1332077D01*
X5677306Y1343863D01*
X5667349Y1354480D01*
X5656122Y1363776D01*
X5643829Y1371549D01*
X5630672Y1377746D01*
X5616803Y1382268D01*
X5602528Y1384960D01*
X5600700Y1385112D01*
G37*
G36*
X5219039Y1282700D02*
G01*
X5321300Y1282700D01*
X5321300Y1385112D01*
X5319471Y1384960D01*
X5305196Y1382268D01*
X5291328Y1377746D01*
X5278170Y1371549D01*
X5265877Y1363776D01*
X5254650Y1354480D01*
X5244693Y1343863D01*
X5236159Y1332077D01*
X5229148Y1319326D01*
X5223764Y1305814D01*
X5220157Y1291691D01*
G37*
G36*
X3393084Y1359611D02*
G01*
X3591915Y1359611D01*
X3598265Y1360322D01*
X3603701Y1362202D01*
X3608628Y1365300D01*
X3612692Y1369364D01*
X3615791Y1374292D01*
X3617671Y1379728D01*
X3618433Y1386078D01*
X3618433Y1534922D01*
X3617671Y1541272D01*
X3615791Y1546707D01*
X3612692Y1551635D01*
X3608628Y1555699D01*
X3603701Y1558798D01*
X3598265Y1560677D01*
X3591915Y1561388D01*
X3393084Y1561388D01*
X3386734Y1560677D01*
X3381298Y1558798D01*
X3376371Y1555699D01*
X3372307Y1551635D01*
X3369208Y1546707D01*
X3367328Y1541272D01*
X3366566Y1534922D01*
X3366566Y1386078D01*
X3367328Y1379728D01*
X3369208Y1374292D01*
X3372307Y1369364D01*
X3376371Y1365300D01*
X3381298Y1362202D01*
X3386734Y1360322D01*
G37*
G36*
X5317693Y1456994D02*
G01*
X5426506Y1456994D01*
X5432856Y1457706D01*
X5438292Y1459636D01*
X5443220Y1462684D01*
X5447284Y1466799D01*
X5450382Y1471676D01*
X5452313Y1477162D01*
X5452668Y1480261D01*
X5453735Y1483817D01*
X5455970Y1486712D01*
X5459120Y1488643D01*
X5462727Y1489303D01*
X5489651Y1489303D01*
X5493258Y1488643D01*
X5496407Y1486712D01*
X5498693Y1483817D01*
X5499760Y1480261D01*
X5500116Y1477162D01*
X5501995Y1471676D01*
X5505094Y1466799D01*
X5509158Y1462684D01*
X5514086Y1459636D01*
X5519521Y1457706D01*
X5525871Y1456994D01*
X5624728Y1456994D01*
X5631027Y1457706D01*
X5636514Y1459636D01*
X5641390Y1462684D01*
X5645505Y1466799D01*
X5648604Y1471676D01*
X5650484Y1477162D01*
X5651195Y1483461D01*
X5651195Y1572310D01*
X5650484Y1578660D01*
X5648604Y1584096D01*
X5645505Y1589024D01*
X5641390Y1593088D01*
X5636514Y1596186D01*
X5631027Y1598117D01*
X5624728Y1598828D01*
X5525871Y1598828D01*
X5519521Y1598117D01*
X5514086Y1596186D01*
X5509158Y1593088D01*
X5505094Y1589024D01*
X5501995Y1584096D01*
X5500116Y1578660D01*
X5499760Y1575562D01*
X5498693Y1572006D01*
X5496407Y1569110D01*
X5493258Y1567180D01*
X5489651Y1566519D01*
X5463184Y1566519D01*
X5459272Y1567281D01*
X5455970Y1569466D01*
X5453786Y1572768D01*
X5453024Y1576679D01*
X5453024Y1582318D01*
X5452313Y1588668D01*
X5450382Y1594104D01*
X5447284Y1599031D01*
X5443220Y1603095D01*
X5441340Y1604314D01*
X5438394Y1607108D01*
X5436768Y1610868D01*
X5436768Y1614932D01*
X5438394Y1618691D01*
X5441340Y1621485D01*
X5443220Y1622704D01*
X5447284Y1626768D01*
X5450382Y1631696D01*
X5452313Y1637131D01*
X5453024Y1643481D01*
X5453024Y1742338D01*
X5452313Y1748637D01*
X5450382Y1754124D01*
X5447284Y1759000D01*
X5443220Y1763115D01*
X5438292Y1766163D01*
X5432856Y1768093D01*
X5426506Y1768805D01*
X5420868Y1768805D01*
X5416956Y1769567D01*
X5413705Y1771802D01*
X5411470Y1775053D01*
X5410708Y1778965D01*
X5410708Y1796491D01*
X5411470Y1800402D01*
X5413705Y1803704D01*
X5415280Y1805279D01*
X5420918Y1813306D01*
X5425033Y1822246D01*
X5427573Y1831695D01*
X5428437Y1841500D01*
X5427573Y1851304D01*
X5425033Y1860753D01*
X5420918Y1869693D01*
X5415280Y1877720D01*
X5408320Y1884680D01*
X5400294Y1890318D01*
X5391353Y1894433D01*
X5381904Y1896973D01*
X5372100Y1897837D01*
X5362295Y1896973D01*
X5352846Y1894433D01*
X5343906Y1890318D01*
X5335879Y1884680D01*
X5334304Y1883105D01*
X5331002Y1880870D01*
X5327091Y1880107D01*
X5150408Y1880107D01*
X5146497Y1880870D01*
X5143195Y1883105D01*
X5141620Y1884680D01*
X5133594Y1890318D01*
X5124653Y1894433D01*
X5115204Y1896973D01*
X5105400Y1897837D01*
X5095595Y1896973D01*
X5086146Y1894433D01*
X5077206Y1890318D01*
X5069179Y1884680D01*
X5062220Y1877720D01*
X5056581Y1869693D01*
X5052466Y1860753D01*
X5049926Y1851304D01*
X5049062Y1841500D01*
X5049926Y1831695D01*
X5052466Y1822246D01*
X5056581Y1813306D01*
X5062220Y1805279D01*
X5069179Y1798320D01*
X5077206Y1792681D01*
X5086146Y1788566D01*
X5095595Y1786026D01*
X5105400Y1785162D01*
X5115204Y1786026D01*
X5124653Y1788566D01*
X5133594Y1792681D01*
X5141620Y1798320D01*
X5143195Y1799894D01*
X5146497Y1802130D01*
X5150408Y1802892D01*
X5323332Y1802892D01*
X5327243Y1802130D01*
X5330494Y1799894D01*
X5332730Y1796643D01*
X5333492Y1792732D01*
X5333492Y1778965D01*
X5332730Y1775053D01*
X5330494Y1771802D01*
X5327243Y1769567D01*
X5323332Y1768805D01*
X5317693Y1768805D01*
X5311343Y1768093D01*
X5305907Y1766163D01*
X5300980Y1763115D01*
X5296916Y1759000D01*
X5293817Y1754124D01*
X5291886Y1748637D01*
X5291175Y1742338D01*
X5291175Y1643481D01*
X5291886Y1637131D01*
X5293817Y1631696D01*
X5296916Y1626768D01*
X5300980Y1622704D01*
X5302859Y1621485D01*
X5305806Y1618691D01*
X5307431Y1614932D01*
X5307431Y1610868D01*
X5305806Y1607108D01*
X5302859Y1604314D01*
X5300980Y1603095D01*
X5296916Y1599031D01*
X5293817Y1594104D01*
X5291886Y1588668D01*
X5291175Y1582318D01*
X5291175Y1483461D01*
X5291886Y1477162D01*
X5293817Y1471676D01*
X5296916Y1466799D01*
X5300980Y1462684D01*
X5305907Y1459636D01*
X5311343Y1457706D01*
G37*
G36*
X1945030Y1612392D02*
G01*
X1991969Y1612392D01*
X2005634Y1613306D01*
X2018741Y1615897D01*
X2031390Y1620164D01*
X2043328Y1626107D01*
X2054453Y1633524D01*
X2064461Y1642313D01*
X2073300Y1652371D01*
X2080717Y1663446D01*
X2086610Y1675434D01*
X2090928Y1688084D01*
X2093518Y1701190D01*
X2094382Y1714500D01*
X2093518Y1727809D01*
X2090928Y1740916D01*
X2086610Y1753565D01*
X2080717Y1765554D01*
X2073300Y1776628D01*
X2064461Y1786686D01*
X2054453Y1795475D01*
X2043328Y1802892D01*
X2031390Y1808835D01*
X2018741Y1813102D01*
X2005634Y1815693D01*
X1991969Y1816607D01*
X1945030Y1816607D01*
X1931365Y1815693D01*
X1918258Y1813102D01*
X1905609Y1808835D01*
X1893671Y1802892D01*
X1882546Y1795475D01*
X1872538Y1786686D01*
X1863699Y1776628D01*
X1856282Y1765554D01*
X1850389Y1753565D01*
X1846072Y1740916D01*
X1843481Y1727809D01*
X1842617Y1714500D01*
X1843481Y1701190D01*
X1846072Y1688084D01*
X1850389Y1675434D01*
X1856282Y1663446D01*
X1863699Y1652371D01*
X1872538Y1642313D01*
X1882546Y1633524D01*
X1893671Y1626107D01*
X1905609Y1620164D01*
X1918258Y1615897D01*
X1931365Y1613306D01*
G37*
G36*
X3467811Y1613611D02*
G01*
X3479800Y1613611D01*
X3479800Y1701800D01*
X3367430Y1701800D01*
X3370072Y1688388D01*
X3374288Y1675892D01*
X3380130Y1664055D01*
X3387445Y1653082D01*
X3396183Y1643176D01*
X3406089Y1634439D01*
X3417062Y1627124D01*
X3428898Y1621282D01*
X3441395Y1617065D01*
X3454349Y1614474D01*
G37*
G36*
X3505200Y1613611D02*
G01*
X3517188Y1613611D01*
X3530650Y1614474D01*
X3543604Y1617065D01*
X3556101Y1621282D01*
X3567937Y1627124D01*
X3578910Y1634439D01*
X3588816Y1643176D01*
X3597554Y1653082D01*
X3604869Y1664055D01*
X3610711Y1675892D01*
X3614928Y1688388D01*
X3617569Y1701800D01*
X3505200Y1701800D01*
G37*
G36*
X5525871Y1627022D02*
G01*
X5562600Y1627022D01*
X5562600Y1685188D01*
X5499404Y1685188D01*
X5499404Y1653489D01*
X5500116Y1647139D01*
X5501995Y1641703D01*
X5505094Y1636776D01*
X5509158Y1632712D01*
X5514086Y1629613D01*
X5519521Y1627733D01*
G37*
G36*
X5588000Y1627022D02*
G01*
X5624728Y1627022D01*
X5631027Y1627733D01*
X5636514Y1629613D01*
X5641390Y1632712D01*
X5645505Y1636776D01*
X5648604Y1641703D01*
X5650484Y1647139D01*
X5651195Y1653489D01*
X5651195Y1685188D01*
X5588000Y1685188D01*
G37*
G36*
X5588000Y1710588D02*
G01*
X5651195Y1710588D01*
X5651195Y1742338D01*
X5650484Y1748637D01*
X5648604Y1754124D01*
X5645505Y1759000D01*
X5641390Y1763115D01*
X5636514Y1766214D01*
X5631027Y1768093D01*
X5624728Y1768805D01*
X5588000Y1768805D01*
G37*
G36*
X5499404Y1710588D02*
G01*
X5562600Y1710588D01*
X5562600Y1768805D01*
X5525871Y1768805D01*
X5519521Y1768093D01*
X5514086Y1766214D01*
X5509158Y1763115D01*
X5505094Y1759000D01*
X5501995Y1754124D01*
X5500116Y1748637D01*
X5499404Y1742338D01*
G37*
G36*
X3367430Y1727200D02*
G01*
X3479800Y1727200D01*
X3479800Y1815388D01*
X3467811Y1815388D01*
X3454349Y1814525D01*
X3441395Y1811934D01*
X3428898Y1807718D01*
X3417062Y1801875D01*
X3406089Y1794560D01*
X3396183Y1785823D01*
X3387445Y1775917D01*
X3380130Y1764944D01*
X3374288Y1753107D01*
X3370072Y1740611D01*
G37*
G36*
X3505200Y1727200D02*
G01*
X3617569Y1727200D01*
X3614928Y1740611D01*
X3610711Y1753107D01*
X3604869Y1764944D01*
X3597554Y1775917D01*
X3588816Y1785823D01*
X3578910Y1794560D01*
X3567937Y1801875D01*
X3556101Y1807718D01*
X3543604Y1811934D01*
X3530650Y1814525D01*
X3517188Y1815388D01*
X3505200Y1815388D01*
G37*
G36*
X1945030Y1866392D02*
G01*
X1991969Y1866392D01*
X2005634Y1867306D01*
X2018741Y1869897D01*
X2031390Y1874164D01*
X2043328Y1880107D01*
X2054453Y1887524D01*
X2064461Y1896313D01*
X2073300Y1906371D01*
X2080717Y1917446D01*
X2086610Y1929434D01*
X2090928Y1942084D01*
X2093518Y1955190D01*
X2094382Y1968500D01*
X2093518Y1981809D01*
X2090928Y1994916D01*
X2086610Y2007565D01*
X2080717Y2019554D01*
X2073300Y2030628D01*
X2064461Y2040686D01*
X2054453Y2049475D01*
X2043328Y2056892D01*
X2031390Y2062835D01*
X2018741Y2067102D01*
X2005634Y2069693D01*
X1991969Y2070607D01*
X1945030Y2070607D01*
X1931365Y2069693D01*
X1918258Y2067102D01*
X1905609Y2062835D01*
X1893671Y2056892D01*
X1882546Y2049475D01*
X1872538Y2040686D01*
X1863699Y2030628D01*
X1856282Y2019554D01*
X1850389Y2007565D01*
X1846072Y1994916D01*
X1843481Y1981809D01*
X1842617Y1968500D01*
X1843481Y1955190D01*
X1846072Y1942084D01*
X1850389Y1929434D01*
X1856282Y1917446D01*
X1863699Y1906371D01*
X1872538Y1896313D01*
X1882546Y1887524D01*
X1893671Y1880107D01*
X1905609Y1874164D01*
X1918258Y1869897D01*
X1931365Y1867306D01*
G37*
G36*
X3467811Y1867611D02*
G01*
X3517188Y1867611D01*
X3530650Y1868474D01*
X3543604Y1871065D01*
X3556101Y1875282D01*
X3567937Y1881124D01*
X3578910Y1888439D01*
X3588816Y1897176D01*
X3597554Y1907082D01*
X3604869Y1918055D01*
X3610711Y1929892D01*
X3614928Y1942388D01*
X3617518Y1955342D01*
X3618382Y1968500D01*
X3617518Y1981657D01*
X3614928Y1994611D01*
X3610711Y2007107D01*
X3604869Y2018944D01*
X3597554Y2029917D01*
X3588816Y2039823D01*
X3578910Y2048560D01*
X3567937Y2055875D01*
X3556101Y2061718D01*
X3543604Y2065934D01*
X3530650Y2068525D01*
X3517188Y2069388D01*
X3467811Y2069388D01*
X3454349Y2068525D01*
X3441395Y2065934D01*
X3428898Y2061718D01*
X3417062Y2055875D01*
X3406089Y2048560D01*
X3396183Y2039823D01*
X3387445Y2029917D01*
X3380130Y2018944D01*
X3377082Y2012797D01*
X3374847Y2009800D01*
X3371646Y2007819D01*
X3367989Y2007107D01*
X3232708Y2007107D01*
X3228797Y2007870D01*
X3225495Y2010105D01*
X3223920Y2011680D01*
X3215894Y2017318D01*
X3206953Y2021433D01*
X3197504Y2023973D01*
X3187700Y2024837D01*
X3177895Y2023973D01*
X3168446Y2021433D01*
X3159506Y2017318D01*
X3151479Y2011680D01*
X3144520Y2004720D01*
X3138881Y1996693D01*
X3134766Y1987753D01*
X3132226Y1978304D01*
X3131362Y1968500D01*
X3132226Y1958695D01*
X3134766Y1949246D01*
X3138881Y1940306D01*
X3144520Y1932279D01*
X3151479Y1925320D01*
X3159506Y1919681D01*
X3168446Y1915566D01*
X3177895Y1913026D01*
X3187700Y1912162D01*
X3197504Y1913026D01*
X3206953Y1915566D01*
X3215894Y1919681D01*
X3223920Y1925320D01*
X3225495Y1926894D01*
X3228797Y1929130D01*
X3232708Y1929892D01*
X3367989Y1929892D01*
X3371646Y1929180D01*
X3374847Y1927199D01*
X3377082Y1924202D01*
X3380130Y1918055D01*
X3387445Y1907082D01*
X3396183Y1897176D01*
X3406089Y1888439D01*
X3417062Y1881124D01*
X3428898Y1875282D01*
X3441395Y1871065D01*
X3454349Y1868474D01*
G37*
G36*
X368300Y105562D02*
G01*
X368300Y368300D01*
X105664Y368300D01*
X106070Y357936D01*
X108966Y334975D01*
X113792Y312369D01*
X120446Y290271D01*
X128981Y268782D01*
X139242Y248107D01*
X151180Y228295D01*
X164795Y209600D01*
X179882Y192125D01*
X196392Y175971D01*
X214172Y161239D01*
X233171Y148031D01*
X253187Y136499D01*
X274066Y126644D01*
X295757Y118618D01*
X318008Y112369D01*
X340715Y108051D01*
X363677Y105664D01*
G37*
G36*
X3467811Y2121611D02*
G01*
X3517188Y2121611D01*
X3530650Y2122474D01*
X3543604Y2125065D01*
X3556101Y2129282D01*
X3567937Y2135124D01*
X3578910Y2142439D01*
X3588816Y2151176D01*
X3597554Y2161082D01*
X3604869Y2172055D01*
X3610711Y2183892D01*
X3614928Y2196388D01*
X3617518Y2209342D01*
X3618382Y2222500D01*
X3617518Y2235657D01*
X3614928Y2248611D01*
X3610711Y2261108D01*
X3604869Y2272944D01*
X3597554Y2283917D01*
X3588816Y2293823D01*
X3578910Y2302560D01*
X3567937Y2309876D01*
X3556101Y2315718D01*
X3543604Y2319934D01*
X3530650Y2322525D01*
X3517188Y2323388D01*
X3467811Y2323388D01*
X3454349Y2322525D01*
X3441395Y2319934D01*
X3428898Y2315718D01*
X3417062Y2309876D01*
X3406089Y2302560D01*
X3396183Y2293823D01*
X3387445Y2283917D01*
X3380130Y2272944D01*
X3377082Y2266797D01*
X3374847Y2263800D01*
X3371646Y2261819D01*
X3367989Y2261108D01*
X3093008Y2261108D01*
X3089097Y2261870D01*
X3085795Y2264105D01*
X3084220Y2265680D01*
X3076194Y2271318D01*
X3067253Y2275433D01*
X3057804Y2277973D01*
X3048000Y2278837D01*
X3038195Y2277973D01*
X3028746Y2275433D01*
X3019806Y2271318D01*
X3011779Y2265680D01*
X3004820Y2258720D01*
X2999181Y2250694D01*
X2995066Y2241753D01*
X2992526Y2232304D01*
X2991662Y2222500D01*
X2992526Y2212695D01*
X2995066Y2203246D01*
X2999181Y2194306D01*
X3004820Y2186279D01*
X3011779Y2179320D01*
X3019806Y2173681D01*
X3028746Y2169566D01*
X3038195Y2167026D01*
X3048000Y2166162D01*
X3057804Y2167026D01*
X3067253Y2169566D01*
X3076194Y2173681D01*
X3084220Y2179320D01*
X3085795Y2180894D01*
X3089097Y2183130D01*
X3093008Y2183892D01*
X3367989Y2183892D01*
X3371646Y2183180D01*
X3374847Y2181199D01*
X3377082Y2178202D01*
X3380130Y2172055D01*
X3387445Y2161082D01*
X3396183Y2151176D01*
X3406089Y2142439D01*
X3417062Y2135124D01*
X3428898Y2129282D01*
X3441395Y2125065D01*
X3454349Y2122474D01*
G37*
G36*
X1945030Y2374392D02*
G01*
X1991969Y2374392D01*
X2005634Y2375306D01*
X2018741Y2377897D01*
X2031390Y2382164D01*
X2043328Y2388108D01*
X2054453Y2395524D01*
X2064461Y2404313D01*
X2073300Y2414371D01*
X2080717Y2425446D01*
X2084070Y2432202D01*
X2086305Y2435199D01*
X2089454Y2437180D01*
X2093163Y2437892D01*
X2113991Y2437892D01*
X2117902Y2437130D01*
X2121204Y2434894D01*
X2122779Y2433320D01*
X2130806Y2427681D01*
X2139746Y2423566D01*
X2149195Y2421026D01*
X2159000Y2420162D01*
X2168804Y2421026D01*
X2178253Y2423566D01*
X2187194Y2427681D01*
X2195220Y2433320D01*
X2202180Y2440279D01*
X2207818Y2448306D01*
X2211933Y2457246D01*
X2214473Y2466695D01*
X2215337Y2476500D01*
X2214473Y2486304D01*
X2211933Y2495753D01*
X2207818Y2504694D01*
X2202180Y2512720D01*
X2195220Y2519680D01*
X2187194Y2525318D01*
X2178253Y2529433D01*
X2168804Y2531973D01*
X2159000Y2532837D01*
X2149195Y2531973D01*
X2139746Y2529433D01*
X2130806Y2525318D01*
X2122779Y2519680D01*
X2121204Y2518105D01*
X2117902Y2515870D01*
X2113991Y2515108D01*
X2093163Y2515108D01*
X2089454Y2515819D01*
X2086305Y2517800D01*
X2084070Y2520797D01*
X2080717Y2527554D01*
X2073300Y2538628D01*
X2064461Y2548686D01*
X2054453Y2557475D01*
X2043328Y2564892D01*
X2031390Y2570835D01*
X2018741Y2575102D01*
X2005634Y2577693D01*
X1991969Y2578608D01*
X1945030Y2578608D01*
X1931365Y2577693D01*
X1918258Y2575102D01*
X1905609Y2570835D01*
X1893671Y2564892D01*
X1882546Y2557475D01*
X1872538Y2548686D01*
X1863699Y2538628D01*
X1856282Y2527554D01*
X1850389Y2515565D01*
X1846072Y2502916D01*
X1843481Y2489809D01*
X1842617Y2476500D01*
X1843481Y2463190D01*
X1846072Y2450084D01*
X1850389Y2437434D01*
X1856282Y2425446D01*
X1863699Y2414371D01*
X1872538Y2404313D01*
X1882546Y2395524D01*
X1893671Y2388108D01*
X1905609Y2382164D01*
X1918258Y2377897D01*
X1931365Y2375306D01*
G37*
G36*
X3467811Y2375611D02*
G01*
X3517188Y2375611D01*
X3530650Y2376474D01*
X3543604Y2379065D01*
X3556101Y2383282D01*
X3567937Y2389124D01*
X3578910Y2396439D01*
X3588816Y2405176D01*
X3597554Y2415082D01*
X3604869Y2426055D01*
X3610711Y2437892D01*
X3614928Y2450388D01*
X3617518Y2463342D01*
X3618382Y2476500D01*
X3617518Y2489657D01*
X3614928Y2502611D01*
X3610711Y2515108D01*
X3604869Y2526944D01*
X3597554Y2537917D01*
X3588816Y2547823D01*
X3578910Y2556560D01*
X3567937Y2563876D01*
X3556101Y2569718D01*
X3543604Y2573934D01*
X3530650Y2576525D01*
X3517188Y2577388D01*
X3467811Y2577388D01*
X3454349Y2576525D01*
X3441395Y2573934D01*
X3428898Y2569718D01*
X3417062Y2563876D01*
X3406089Y2556560D01*
X3396183Y2547823D01*
X3387445Y2537917D01*
X3380130Y2526944D01*
X3377082Y2520797D01*
X3374847Y2517800D01*
X3371646Y2515819D01*
X3367989Y2515108D01*
X3030118Y2515108D01*
X3026206Y2515870D01*
X3022904Y2518105D01*
X2402535Y3138424D01*
X2396337Y3143554D01*
X2389632Y3147110D01*
X2382418Y3149295D01*
X2374392Y3150108D01*
X2072690Y3150108D01*
X2068931Y3150819D01*
X2065680Y3152952D01*
X2063445Y3156051D01*
X2062530Y3159810D01*
X2063089Y3163620D01*
X2065070Y3166973D01*
X2073300Y3176371D01*
X2080717Y3187446D01*
X2086610Y3199434D01*
X2090928Y3212084D01*
X2093518Y3225190D01*
X2094382Y3238500D01*
X2093518Y3251809D01*
X2090928Y3264915D01*
X2086610Y3277565D01*
X2080717Y3289554D01*
X2073300Y3300628D01*
X2065070Y3310026D01*
X2063089Y3313379D01*
X2062530Y3317189D01*
X2063445Y3320948D01*
X2065680Y3324047D01*
X2068931Y3326180D01*
X2072690Y3326892D01*
X2354681Y3326892D01*
X2358593Y3326129D01*
X2361895Y3323894D01*
X2982264Y2703576D01*
X2988462Y2698445D01*
X2995168Y2694889D01*
X3002381Y2692704D01*
X3010408Y2691892D01*
X3367989Y2691892D01*
X3371646Y2691180D01*
X3374847Y2689199D01*
X3377082Y2686202D01*
X3380130Y2680055D01*
X3387445Y2669082D01*
X3396183Y2659176D01*
X3406089Y2650439D01*
X3417062Y2643124D01*
X3428898Y2637282D01*
X3441395Y2633065D01*
X3454349Y2630474D01*
X3467811Y2629611D01*
X3517188Y2629611D01*
X3530650Y2630474D01*
X3543604Y2633065D01*
X3556101Y2637282D01*
X3567937Y2643124D01*
X3578910Y2650439D01*
X3588816Y2659176D01*
X3597554Y2669082D01*
X3604869Y2680055D01*
X3610711Y2691892D01*
X3614928Y2704388D01*
X3617518Y2717342D01*
X3618382Y2730500D01*
X3617518Y2743657D01*
X3614928Y2756611D01*
X3610711Y2769108D01*
X3604869Y2780944D01*
X3597554Y2791917D01*
X3588664Y2802026D01*
X3586734Y2805379D01*
X3586175Y2809189D01*
X3587038Y2812948D01*
X3589274Y2816047D01*
X3592525Y2818180D01*
X3596284Y2818892D01*
X3676091Y2818892D01*
X3680002Y2818130D01*
X3683304Y2815894D01*
X3684879Y2814320D01*
X3692906Y2808681D01*
X3701846Y2804566D01*
X3711295Y2802026D01*
X3721100Y2801162D01*
X3730904Y2802026D01*
X3740353Y2804566D01*
X3749294Y2808681D01*
X3757320Y2814320D01*
X3764279Y2821279D01*
X3769918Y2829306D01*
X3774033Y2838246D01*
X3776573Y2847695D01*
X3777437Y2857500D01*
X3776573Y2867304D01*
X3774033Y2876753D01*
X3769918Y2885694D01*
X3764279Y2893720D01*
X3757320Y2900680D01*
X3749294Y2906318D01*
X3740353Y2910433D01*
X3730904Y2912973D01*
X3721100Y2913837D01*
X3711295Y2912973D01*
X3701846Y2910433D01*
X3692906Y2906318D01*
X3684879Y2900680D01*
X3683304Y2899105D01*
X3680002Y2896870D01*
X3676091Y2896108D01*
X3596284Y2896108D01*
X3592525Y2896819D01*
X3589274Y2898952D01*
X3587038Y2902051D01*
X3586175Y2905810D01*
X3586734Y2909620D01*
X3588664Y2912973D01*
X3597554Y2923082D01*
X3604869Y2934055D01*
X3610711Y2945892D01*
X3614928Y2958388D01*
X3617518Y2971342D01*
X3618382Y2984500D01*
X3617518Y2997657D01*
X3614928Y3010611D01*
X3610711Y3023108D01*
X3604869Y3034944D01*
X3597554Y3045917D01*
X3588816Y3055823D01*
X3578910Y3064560D01*
X3567937Y3071876D01*
X3556101Y3077718D01*
X3543604Y3081934D01*
X3530650Y3084525D01*
X3517188Y3085388D01*
X3467811Y3085388D01*
X3454349Y3084525D01*
X3441395Y3081934D01*
X3428898Y3077718D01*
X3417062Y3071876D01*
X3406089Y3064560D01*
X3396183Y3055823D01*
X3387445Y3045917D01*
X3380130Y3034944D01*
X3377082Y3028797D01*
X3374847Y3025800D01*
X3371646Y3023819D01*
X3367989Y3023108D01*
X3030118Y3023108D01*
X3026206Y3023870D01*
X3022904Y3026105D01*
X2402535Y3646424D01*
X2396337Y3651554D01*
X2389632Y3655110D01*
X2382418Y3657295D01*
X2374392Y3658108D01*
X2072690Y3658108D01*
X2068931Y3658819D01*
X2065680Y3660952D01*
X2063445Y3664051D01*
X2062530Y3667810D01*
X2063089Y3671620D01*
X2065070Y3674973D01*
X2073300Y3684371D01*
X2080717Y3695446D01*
X2086610Y3707434D01*
X2090928Y3720084D01*
X2093518Y3733190D01*
X2094382Y3746500D01*
X2093518Y3759809D01*
X2090928Y3772915D01*
X2086610Y3785565D01*
X2080717Y3797554D01*
X2073300Y3808628D01*
X2065070Y3818026D01*
X2063089Y3821379D01*
X2062530Y3825189D01*
X2063445Y3828948D01*
X2065680Y3832047D01*
X2068931Y3834180D01*
X2072690Y3834892D01*
X2354681Y3834892D01*
X2358593Y3834129D01*
X2361895Y3831894D01*
X2982264Y3211576D01*
X2988462Y3206445D01*
X2995168Y3202889D01*
X3002381Y3200704D01*
X3010408Y3199892D01*
X3367989Y3199892D01*
X3371646Y3199180D01*
X3374847Y3197199D01*
X3377082Y3194202D01*
X3380130Y3188055D01*
X3387445Y3177082D01*
X3396183Y3167176D01*
X3406089Y3158439D01*
X3417062Y3151124D01*
X3428898Y3145282D01*
X3441395Y3141065D01*
X3454349Y3138474D01*
X3467811Y3137611D01*
X3517188Y3137611D01*
X3530650Y3138474D01*
X3543604Y3141065D01*
X3556101Y3145282D01*
X3567937Y3151124D01*
X3578910Y3158439D01*
X3588816Y3167176D01*
X3597554Y3177082D01*
X3604869Y3188055D01*
X3610711Y3199892D01*
X3614928Y3212388D01*
X3617518Y3225342D01*
X3618382Y3238500D01*
X3617518Y3251657D01*
X3614928Y3264611D01*
X3610711Y3277108D01*
X3604869Y3288944D01*
X3597554Y3299917D01*
X3588816Y3309823D01*
X3578910Y3318560D01*
X3567937Y3325876D01*
X3556101Y3331718D01*
X3543604Y3335934D01*
X3530650Y3338525D01*
X3517188Y3339388D01*
X3467811Y3339388D01*
X3454349Y3338525D01*
X3441395Y3335934D01*
X3428898Y3331718D01*
X3417062Y3325876D01*
X3406089Y3318560D01*
X3396183Y3309823D01*
X3387445Y3299917D01*
X3380130Y3288944D01*
X3377082Y3282797D01*
X3374847Y3279800D01*
X3371646Y3277819D01*
X3367989Y3277108D01*
X3030118Y3277108D01*
X3026206Y3277870D01*
X3022904Y3280105D01*
X2402535Y3900424D01*
X2396337Y3905554D01*
X2389632Y3909110D01*
X2382418Y3911295D01*
X2374392Y3912108D01*
X2072690Y3912108D01*
X2068931Y3912819D01*
X2065680Y3914952D01*
X2063445Y3918051D01*
X2062530Y3921810D01*
X2063089Y3925620D01*
X2065070Y3928973D01*
X2073300Y3938371D01*
X2080717Y3949446D01*
X2086610Y3961434D01*
X2090928Y3974084D01*
X2093569Y3987800D01*
X1981200Y3987800D01*
X1981200Y3922268D01*
X1980438Y3918356D01*
X1978202Y3915105D01*
X1974951Y3912870D01*
X1971039Y3912108D01*
X1965960Y3912108D01*
X1962048Y3912870D01*
X1958797Y3915105D01*
X1956562Y3918356D01*
X1955800Y3922268D01*
X1955800Y3987800D01*
X1843430Y3987800D01*
X1846072Y3974084D01*
X1850389Y3961434D01*
X1856282Y3949446D01*
X1863699Y3938371D01*
X1871929Y3928973D01*
X1873910Y3925620D01*
X1874469Y3921810D01*
X1873554Y3918051D01*
X1871319Y3914952D01*
X1868068Y3912819D01*
X1864309Y3912108D01*
X1620418Y3912108D01*
X1616506Y3912870D01*
X1613204Y3915105D01*
X1250137Y4278122D01*
X1243939Y4283252D01*
X1237234Y4286808D01*
X1230020Y4288993D01*
X1221994Y4289806D01*
X1083056Y4289806D01*
X1079296Y4290517D01*
X1076045Y4292650D01*
X1073810Y4295800D01*
X1067562Y4309668D01*
X1059688Y4322724D01*
X1050340Y4334662D01*
X1039571Y4345432D01*
X1027582Y4354779D01*
X1014577Y4362653D01*
X1000658Y4368901D01*
X997508Y4371136D01*
X995426Y4374388D01*
X994664Y4378198D01*
X995426Y4382008D01*
X997508Y4385208D01*
X1000658Y4387443D01*
X1014577Y4393742D01*
X1027582Y4401566D01*
X1039571Y4410964D01*
X1050340Y4421733D01*
X1059688Y4433671D01*
X1067562Y4446676D01*
X1073810Y4460595D01*
X1076045Y4463745D01*
X1079296Y4465878D01*
X1083106Y4466590D01*
X1202283Y4466590D01*
X1206195Y4465828D01*
X1209497Y4463592D01*
X1572564Y4100576D01*
X1578762Y4095445D01*
X1585468Y4091889D01*
X1592681Y4089704D01*
X1600708Y4088892D01*
X1864309Y4088892D01*
X1868068Y4088180D01*
X1871319Y4086047D01*
X1873554Y4082948D01*
X1874469Y4079189D01*
X1873910Y4075379D01*
X1871929Y4072026D01*
X1863699Y4062628D01*
X1856282Y4051554D01*
X1850389Y4039565D01*
X1846072Y4026915D01*
X1843430Y4013200D01*
X1955800Y4013200D01*
X1955800Y4078732D01*
X1956562Y4082643D01*
X1958797Y4085894D01*
X1962048Y4088129D01*
X1965960Y4088892D01*
X1971039Y4088892D01*
X1974951Y4088129D01*
X1978202Y4085894D01*
X1980438Y4082643D01*
X1981200Y4078732D01*
X1981200Y4013200D01*
X2093569Y4013200D01*
X2090928Y4026915D01*
X2086610Y4039565D01*
X2080717Y4051554D01*
X2073300Y4062628D01*
X2065070Y4072026D01*
X2063089Y4075379D01*
X2062530Y4079189D01*
X2063445Y4082948D01*
X2065680Y4086047D01*
X2068931Y4088180D01*
X2072690Y4088892D01*
X2354681Y4088892D01*
X2358593Y4088129D01*
X2361895Y4085894D01*
X2982264Y3465576D01*
X2988462Y3460445D01*
X2995168Y3456889D01*
X3002381Y3454704D01*
X3010408Y3453892D01*
X3367989Y3453892D01*
X3371646Y3453180D01*
X3374847Y3451199D01*
X3377082Y3448202D01*
X3380130Y3442055D01*
X3387445Y3431082D01*
X3396183Y3421176D01*
X3406089Y3412439D01*
X3417062Y3405124D01*
X3428898Y3399282D01*
X3441395Y3395065D01*
X3454349Y3392474D01*
X3467811Y3391611D01*
X3517188Y3391611D01*
X3530650Y3392474D01*
X3543604Y3395065D01*
X3556101Y3399282D01*
X3567937Y3405124D01*
X3578910Y3412439D01*
X3588816Y3421176D01*
X3597554Y3431082D01*
X3604869Y3442055D01*
X3610711Y3453892D01*
X3614928Y3466388D01*
X3617518Y3479342D01*
X3618382Y3492500D01*
X3617518Y3505657D01*
X3614928Y3518611D01*
X3610711Y3531108D01*
X3604869Y3542944D01*
X3597554Y3553917D01*
X3588816Y3563823D01*
X3578910Y3572560D01*
X3567937Y3579876D01*
X3556101Y3585718D01*
X3543604Y3589934D01*
X3530650Y3592525D01*
X3517188Y3593388D01*
X3467811Y3593388D01*
X3454349Y3592525D01*
X3441395Y3589934D01*
X3428898Y3585718D01*
X3417062Y3579876D01*
X3406089Y3572560D01*
X3396183Y3563823D01*
X3387445Y3553917D01*
X3380130Y3542944D01*
X3377082Y3536797D01*
X3374847Y3533800D01*
X3371646Y3531819D01*
X3367989Y3531108D01*
X3030118Y3531108D01*
X3026206Y3531870D01*
X3022904Y3534105D01*
X2402535Y4154424D01*
X2396337Y4159554D01*
X2389632Y4163110D01*
X2382418Y4165295D01*
X2374392Y4166108D01*
X2072690Y4166108D01*
X2068931Y4166819D01*
X2065680Y4168952D01*
X2063445Y4172051D01*
X2062530Y4175810D01*
X2063089Y4179620D01*
X2065070Y4182973D01*
X2073300Y4192371D01*
X2080717Y4203446D01*
X2086610Y4215434D01*
X2090928Y4228084D01*
X2093518Y4241190D01*
X2094382Y4254500D01*
X2093518Y4267809D01*
X2090928Y4280916D01*
X2086610Y4293565D01*
X2080717Y4305554D01*
X2073300Y4316628D01*
X2065070Y4326026D01*
X2063089Y4329379D01*
X2062530Y4333189D01*
X2063445Y4336948D01*
X2065680Y4340047D01*
X2068931Y4342180D01*
X2072690Y4342892D01*
X2354681Y4342892D01*
X2358593Y4342130D01*
X2361895Y4339894D01*
X2982264Y3719576D01*
X2988462Y3714445D01*
X2995168Y3710889D01*
X3002381Y3708704D01*
X3010408Y3707892D01*
X3367836Y3707892D01*
X3371545Y3707180D01*
X3374694Y3705199D01*
X3376929Y3702202D01*
X3380282Y3695446D01*
X3387699Y3684371D01*
X3396538Y3674313D01*
X3406546Y3665524D01*
X3417671Y3658108D01*
X3429609Y3652164D01*
X3442258Y3647897D01*
X3455365Y3645306D01*
X3469030Y3644392D01*
X3515969Y3644392D01*
X3529634Y3645306D01*
X3542741Y3647897D01*
X3555390Y3652164D01*
X3567328Y3658108D01*
X3578453Y3665524D01*
X3588461Y3674313D01*
X3597300Y3684371D01*
X3604717Y3695446D01*
X3610610Y3707434D01*
X3614928Y3720084D01*
X3617518Y3733190D01*
X3618382Y3746500D01*
X3617518Y3759809D01*
X3615182Y3771493D01*
X3615283Y3775760D01*
X3617112Y3779672D01*
X3620363Y3782415D01*
X3624478Y3783634D01*
X3628745Y3782974D01*
X3632352Y3780637D01*
X3706164Y3706876D01*
X3712362Y3701745D01*
X3719068Y3698189D01*
X3726281Y3696004D01*
X3734308Y3695192D01*
X3988562Y3695192D01*
X3992321Y3694480D01*
X3995521Y3692398D01*
X3997756Y3689299D01*
X3999890Y3684727D01*
X4007205Y3673246D01*
X4015994Y3662832D01*
X4026154Y3653688D01*
X4037380Y3645966D01*
X4049522Y3639820D01*
X4062425Y3635349D01*
X4075785Y3632606D01*
X4089400Y3631692D01*
X4103014Y3632606D01*
X4116374Y3635349D01*
X4129278Y3639820D01*
X4141419Y3645966D01*
X4152646Y3653688D01*
X4162806Y3662832D01*
X4171594Y3673246D01*
X4178909Y3684727D01*
X4181043Y3689299D01*
X4183278Y3692398D01*
X4186478Y3694480D01*
X4190237Y3695192D01*
X4758232Y3695192D01*
X4762398Y3694277D01*
X4765852Y3691788D01*
X4768189Y3687267D01*
X4774438Y3673398D01*
X4782312Y3660394D01*
X4791659Y3648405D01*
X4802428Y3637686D01*
X4814366Y3628288D01*
X4827371Y3620414D01*
X4841290Y3614165D01*
X4844491Y3611930D01*
X4846574Y3608679D01*
X4847285Y3604869D01*
X4846574Y3601110D01*
X4844491Y3597859D01*
X4841290Y3595624D01*
X4827371Y3589375D01*
X4814366Y3581501D01*
X4802428Y3572103D01*
X4791659Y3561384D01*
X4782312Y3549396D01*
X4774438Y3536391D01*
X4769002Y3524402D01*
X4766818Y3521252D01*
X4763566Y3519119D01*
X4759756Y3518408D01*
X4190390Y3518408D01*
X4186885Y3519068D01*
X4183786Y3520897D01*
X4181500Y3523691D01*
X4175455Y3534714D01*
X4167378Y3545687D01*
X4157878Y3555492D01*
X4147159Y3563975D01*
X4135424Y3570935D01*
X4122877Y3576218D01*
X4109720Y3579825D01*
X4096207Y3581654D01*
X4082592Y3581654D01*
X4069079Y3579825D01*
X4055922Y3576218D01*
X4043375Y3570935D01*
X4031640Y3563975D01*
X4020921Y3555492D01*
X4011422Y3545687D01*
X4003344Y3534714D01*
X3997299Y3523691D01*
X3995013Y3520897D01*
X3991914Y3519068D01*
X3988409Y3518408D01*
X3766108Y3518408D01*
X3762197Y3519170D01*
X3758895Y3521405D01*
X3757320Y3522979D01*
X3749294Y3528618D01*
X3740353Y3532733D01*
X3730904Y3535273D01*
X3721100Y3536137D01*
X3711295Y3535273D01*
X3701846Y3532733D01*
X3692906Y3528618D01*
X3684879Y3522979D01*
X3677920Y3516020D01*
X3672281Y3507994D01*
X3668166Y3499053D01*
X3665626Y3489604D01*
X3664762Y3479800D01*
X3665626Y3469995D01*
X3668166Y3460546D01*
X3672281Y3451606D01*
X3677920Y3443579D01*
X3684879Y3436620D01*
X3692906Y3430981D01*
X3701846Y3426866D01*
X3711295Y3424326D01*
X3721100Y3423462D01*
X3730904Y3424326D01*
X3740353Y3426866D01*
X3749294Y3430981D01*
X3757320Y3436620D01*
X3758895Y3438194D01*
X3762197Y3440429D01*
X3766108Y3441192D01*
X3988562Y3441192D01*
X3992321Y3440480D01*
X3995521Y3438398D01*
X3997756Y3435299D01*
X3999890Y3430727D01*
X4007205Y3419246D01*
X4015994Y3408832D01*
X4026154Y3399688D01*
X4037380Y3391966D01*
X4049522Y3385820D01*
X4062425Y3381349D01*
X4075785Y3378606D01*
X4089400Y3377692D01*
X4103014Y3378606D01*
X4116374Y3381349D01*
X4129278Y3385820D01*
X4141419Y3391966D01*
X4152646Y3399688D01*
X4162806Y3408832D01*
X4171594Y3419246D01*
X4178909Y3430727D01*
X4181043Y3435299D01*
X4183278Y3438398D01*
X4186478Y3440480D01*
X4190237Y3441192D01*
X4758232Y3441192D01*
X4762398Y3440277D01*
X4765852Y3437788D01*
X4768189Y3433267D01*
X4774438Y3419398D01*
X4782312Y3406394D01*
X4791659Y3394405D01*
X4802428Y3383686D01*
X4814366Y3374288D01*
X4827371Y3366414D01*
X4841240Y3360165D01*
X4855768Y3355644D01*
X4870704Y3352901D01*
X4885893Y3351987D01*
X4901082Y3352901D01*
X4916017Y3355644D01*
X4930546Y3360165D01*
X4944414Y3366414D01*
X4957419Y3374288D01*
X4969357Y3383686D01*
X4980127Y3394405D01*
X4989474Y3406394D01*
X4997348Y3419398D01*
X5003596Y3433267D01*
X5008118Y3447745D01*
X5010861Y3462731D01*
X5011775Y3477869D01*
X5010861Y3493058D01*
X5008118Y3508044D01*
X5003596Y3522522D01*
X4997348Y3536391D01*
X4989474Y3549396D01*
X4980127Y3561384D01*
X4969357Y3572103D01*
X4957419Y3581501D01*
X4944414Y3589375D01*
X4930495Y3595624D01*
X4927295Y3597859D01*
X4925212Y3601110D01*
X4924501Y3604869D01*
X4925212Y3608679D01*
X4927295Y3611930D01*
X4930495Y3614165D01*
X4944414Y3620414D01*
X4957419Y3628288D01*
X4969357Y3637686D01*
X4980127Y3648405D01*
X4989474Y3660394D01*
X4997348Y3673398D01*
X5003596Y3687267D01*
X5008118Y3701745D01*
X5010861Y3716731D01*
X5011775Y3731869D01*
X5010861Y3747058D01*
X5008118Y3762044D01*
X5003596Y3776522D01*
X4997348Y3790391D01*
X4989474Y3803396D01*
X4980127Y3815384D01*
X4969357Y3826103D01*
X4957419Y3835501D01*
X4944414Y3843375D01*
X4930495Y3849624D01*
X4927295Y3851859D01*
X4925212Y3855110D01*
X4924501Y3858869D01*
X4925212Y3862679D01*
X4927295Y3865930D01*
X4930495Y3868165D01*
X4944414Y3874414D01*
X4957419Y3882288D01*
X4969357Y3891686D01*
X4980127Y3902405D01*
X4989474Y3914394D01*
X4997348Y3927398D01*
X5003596Y3941267D01*
X5008118Y3955745D01*
X5010861Y3970731D01*
X5011775Y3985869D01*
X5010861Y4001058D01*
X5008118Y4016044D01*
X5003596Y4030522D01*
X4997348Y4044391D01*
X4989474Y4057396D01*
X4980127Y4069384D01*
X4969357Y4080103D01*
X4957419Y4089501D01*
X4944414Y4097375D01*
X4930495Y4103624D01*
X4927295Y4105859D01*
X4925212Y4109110D01*
X4924501Y4112869D01*
X4925212Y4116679D01*
X4927295Y4119930D01*
X4930495Y4122165D01*
X4944414Y4128414D01*
X4957419Y4136288D01*
X4969357Y4145686D01*
X4980127Y4156405D01*
X4989474Y4168394D01*
X4997348Y4181398D01*
X5003596Y4195267D01*
X5008118Y4209745D01*
X5010861Y4224731D01*
X5011775Y4239869D01*
X5010861Y4255058D01*
X5008118Y4270044D01*
X5003596Y4284522D01*
X4997348Y4298391D01*
X4989474Y4311396D01*
X4980127Y4323384D01*
X4969357Y4334103D01*
X4957419Y4343501D01*
X4944414Y4351375D01*
X4930495Y4357624D01*
X4927295Y4359859D01*
X4925212Y4363110D01*
X4924501Y4366869D01*
X4925212Y4370679D01*
X4927295Y4373930D01*
X4930495Y4376166D01*
X4944414Y4382414D01*
X4957419Y4390288D01*
X4969357Y4399686D01*
X4980127Y4410405D01*
X4989474Y4422394D01*
X4997348Y4435398D01*
X5003596Y4449267D01*
X5008118Y4463745D01*
X5010861Y4478731D01*
X5011775Y4493869D01*
X5010861Y4509058D01*
X5008118Y4524044D01*
X5003596Y4538522D01*
X4997348Y4552391D01*
X4989474Y4565396D01*
X4980127Y4577384D01*
X4969357Y4588103D01*
X4957419Y4597501D01*
X4944414Y4605375D01*
X4930495Y4611624D01*
X4927295Y4613859D01*
X4925212Y4617110D01*
X4924501Y4620869D01*
X4925212Y4624679D01*
X4927295Y4627930D01*
X4930495Y4630166D01*
X4944414Y4636414D01*
X4957419Y4644288D01*
X4969357Y4653686D01*
X4980127Y4664405D01*
X4989474Y4676394D01*
X4997348Y4689398D01*
X5003596Y4703267D01*
X5008118Y4717745D01*
X5010861Y4732731D01*
X5011775Y4747869D01*
X5010861Y4763058D01*
X5008118Y4778044D01*
X5003596Y4792522D01*
X4997348Y4806391D01*
X4989474Y4819396D01*
X4980127Y4831384D01*
X4969357Y4842103D01*
X4957419Y4851501D01*
X4944414Y4859375D01*
X4930495Y4865624D01*
X4927295Y4867859D01*
X4925212Y4871110D01*
X4924501Y4874869D01*
X4925212Y4878679D01*
X4927295Y4881930D01*
X4930495Y4884166D01*
X4944414Y4890414D01*
X4957419Y4898288D01*
X4969357Y4907686D01*
X4980127Y4918405D01*
X4989474Y4930394D01*
X4997348Y4943398D01*
X5003596Y4957267D01*
X5008118Y4971745D01*
X5010861Y4986731D01*
X5011775Y5001869D01*
X5010861Y5017058D01*
X5008118Y5032044D01*
X5003596Y5046522D01*
X4997348Y5060391D01*
X4989474Y5073396D01*
X4980127Y5085384D01*
X4969357Y5096103D01*
X4957419Y5105501D01*
X4944414Y5113375D01*
X4930495Y5119624D01*
X4927295Y5121859D01*
X4925212Y5125110D01*
X4924501Y5128869D01*
X4925212Y5132679D01*
X4927295Y5135930D01*
X4930495Y5138166D01*
X4944414Y5144414D01*
X4957419Y5152288D01*
X4969357Y5161686D01*
X4980127Y5172405D01*
X4989474Y5184394D01*
X4997348Y5197398D01*
X5003596Y5211267D01*
X5008118Y5225745D01*
X5010861Y5240731D01*
X5011775Y5255869D01*
X5010861Y5271058D01*
X5008118Y5286044D01*
X5003596Y5300522D01*
X4997348Y5314391D01*
X4989474Y5327396D01*
X4980127Y5339384D01*
X4969357Y5350103D01*
X4957419Y5359501D01*
X4944414Y5367375D01*
X4930546Y5373624D01*
X4916017Y5378145D01*
X4901082Y5380888D01*
X4885893Y5381802D01*
X4870704Y5380888D01*
X4855768Y5378145D01*
X4841240Y5373624D01*
X4827371Y5367375D01*
X4814366Y5359501D01*
X4802428Y5350103D01*
X4791659Y5339384D01*
X4782312Y5327396D01*
X4774438Y5314391D01*
X4769002Y5302402D01*
X4766818Y5299252D01*
X4763566Y5297119D01*
X4759756Y5296408D01*
X4190390Y5296408D01*
X4186885Y5297068D01*
X4183786Y5298897D01*
X4181500Y5301691D01*
X4175455Y5312714D01*
X4167378Y5323687D01*
X4157878Y5333492D01*
X4147159Y5341975D01*
X4135424Y5348935D01*
X4122877Y5354218D01*
X4109720Y5357825D01*
X4096207Y5359654D01*
X4082592Y5359654D01*
X4069079Y5357825D01*
X4055922Y5354218D01*
X4043375Y5348935D01*
X4031640Y5341975D01*
X4020921Y5333492D01*
X4011422Y5323687D01*
X4003344Y5312714D01*
X3997299Y5301691D01*
X3995013Y5298897D01*
X3991914Y5297068D01*
X3988409Y5296408D01*
X3772408Y5296408D01*
X3764381Y5295595D01*
X3757168Y5293410D01*
X3750462Y5289854D01*
X3744264Y5284724D01*
X3644595Y5185105D01*
X3641293Y5182870D01*
X3637381Y5182108D01*
X3596690Y5182108D01*
X3592931Y5182819D01*
X3589680Y5184952D01*
X3587445Y5188051D01*
X3586530Y5191810D01*
X3587089Y5195620D01*
X3589070Y5198973D01*
X3597300Y5208371D01*
X3604717Y5219446D01*
X3610610Y5231434D01*
X3614928Y5244084D01*
X3617569Y5257800D01*
X3505200Y5257800D01*
X3505200Y5192268D01*
X3504437Y5188356D01*
X3502202Y5185105D01*
X3498951Y5182870D01*
X3495040Y5182108D01*
X3489960Y5182108D01*
X3486048Y5182870D01*
X3482797Y5185105D01*
X3480562Y5188356D01*
X3479800Y5192268D01*
X3479800Y5257800D01*
X3367430Y5257800D01*
X3370072Y5244084D01*
X3374390Y5231434D01*
X3380282Y5219446D01*
X3387699Y5208371D01*
X3395929Y5198973D01*
X3397910Y5195620D01*
X3398469Y5191810D01*
X3397554Y5188051D01*
X3395319Y5184952D01*
X3392068Y5182819D01*
X3388309Y5182108D01*
X3232708Y5182108D01*
X3228797Y5182870D01*
X3225495Y5185105D01*
X3223920Y5186680D01*
X3215894Y5192318D01*
X3206953Y5196433D01*
X3197504Y5198973D01*
X3187700Y5199837D01*
X3177895Y5198973D01*
X3168446Y5196433D01*
X3159506Y5192318D01*
X3151479Y5186680D01*
X3144520Y5179720D01*
X3138881Y5171694D01*
X3134766Y5162753D01*
X3132226Y5153304D01*
X3131362Y5143500D01*
X3132226Y5133695D01*
X3134766Y5124246D01*
X3138881Y5115306D01*
X3144520Y5107279D01*
X3151479Y5100320D01*
X3159506Y5094681D01*
X3168446Y5090566D01*
X3177895Y5088026D01*
X3187700Y5087162D01*
X3197504Y5088026D01*
X3206953Y5090566D01*
X3215894Y5094681D01*
X3223920Y5100320D01*
X3225495Y5101894D01*
X3228797Y5104130D01*
X3232708Y5104892D01*
X3388309Y5104892D01*
X3392068Y5104180D01*
X3395319Y5102047D01*
X3397554Y5098948D01*
X3398469Y5095189D01*
X3397910Y5091379D01*
X3395929Y5088026D01*
X3387699Y5078628D01*
X3380282Y5067554D01*
X3374390Y5055565D01*
X3370072Y5042916D01*
X3367481Y5029809D01*
X3366617Y5016500D01*
X3367481Y5003190D01*
X3370072Y4990084D01*
X3374390Y4977434D01*
X3380282Y4965446D01*
X3387699Y4954371D01*
X3396538Y4944313D01*
X3406546Y4935524D01*
X3417671Y4928108D01*
X3429609Y4922164D01*
X3442258Y4917897D01*
X3455365Y4915306D01*
X3469030Y4914392D01*
X3515969Y4914392D01*
X3529634Y4915306D01*
X3542741Y4917897D01*
X3555390Y4922164D01*
X3567328Y4928108D01*
X3578453Y4935524D01*
X3588461Y4944313D01*
X3597300Y4954371D01*
X3604717Y4965446D01*
X3610610Y4977434D01*
X3614928Y4990084D01*
X3617518Y5003190D01*
X3618382Y5016500D01*
X3617518Y5029809D01*
X3614928Y5042916D01*
X3610610Y5055565D01*
X3604717Y5067554D01*
X3597300Y5078628D01*
X3589070Y5088026D01*
X3587089Y5091379D01*
X3586530Y5095189D01*
X3587445Y5098948D01*
X3589680Y5102047D01*
X3592931Y5104180D01*
X3596690Y5104892D01*
X3657092Y5104892D01*
X3665118Y5105704D01*
X3672332Y5107889D01*
X3679037Y5111445D01*
X3685235Y5116576D01*
X3784904Y5216194D01*
X3788206Y5218430D01*
X3792118Y5219192D01*
X3988562Y5219192D01*
X3992321Y5218480D01*
X3995521Y5216398D01*
X3997756Y5213299D01*
X3999890Y5208727D01*
X4007205Y5197246D01*
X4015994Y5186832D01*
X4026154Y5177688D01*
X4037380Y5169966D01*
X4049522Y5163820D01*
X4062425Y5159349D01*
X4075785Y5156606D01*
X4089400Y5155692D01*
X4103014Y5156606D01*
X4116374Y5159349D01*
X4129278Y5163820D01*
X4141419Y5169966D01*
X4152646Y5177688D01*
X4162806Y5186832D01*
X4171594Y5197246D01*
X4178909Y5208727D01*
X4181043Y5213299D01*
X4183278Y5216398D01*
X4186478Y5218480D01*
X4190237Y5219192D01*
X4758232Y5219192D01*
X4762398Y5218277D01*
X4765852Y5215788D01*
X4768189Y5211267D01*
X4774438Y5197398D01*
X4782312Y5184394D01*
X4791659Y5172405D01*
X4802428Y5161686D01*
X4814366Y5152288D01*
X4827371Y5144414D01*
X4841290Y5138166D01*
X4844491Y5135930D01*
X4846574Y5132679D01*
X4847285Y5128869D01*
X4846574Y5125110D01*
X4844491Y5121859D01*
X4841290Y5119624D01*
X4827371Y5113375D01*
X4814366Y5105501D01*
X4802428Y5096103D01*
X4791659Y5085384D01*
X4782312Y5073396D01*
X4774438Y5060391D01*
X4769002Y5048402D01*
X4766818Y5045252D01*
X4763566Y5043119D01*
X4759756Y5042408D01*
X4190390Y5042408D01*
X4186885Y5043068D01*
X4183786Y5044897D01*
X4181500Y5047691D01*
X4175455Y5058714D01*
X4167378Y5069687D01*
X4157878Y5079492D01*
X4147159Y5087975D01*
X4135424Y5094935D01*
X4122877Y5100218D01*
X4109720Y5103825D01*
X4096207Y5105654D01*
X4082592Y5105654D01*
X4069079Y5103825D01*
X4055922Y5100218D01*
X4043375Y5094935D01*
X4031640Y5087975D01*
X4020921Y5079492D01*
X4011422Y5069687D01*
X4003344Y5058714D01*
X3996791Y5046776D01*
X3991914Y5034026D01*
X3988714Y5020767D01*
X3987393Y5007203D01*
X3987850Y4993589D01*
X3990086Y4980127D01*
X3993235Y4969916D01*
X3993692Y4966309D01*
X3992829Y4962753D01*
X3990746Y4959756D01*
X3835095Y4804105D01*
X3831793Y4801870D01*
X3827881Y4801108D01*
X3617163Y4801108D01*
X3613454Y4801819D01*
X3610305Y4803800D01*
X3608070Y4806797D01*
X3604717Y4813554D01*
X3597300Y4824628D01*
X3588461Y4834686D01*
X3578453Y4843475D01*
X3567328Y4850892D01*
X3555390Y4856835D01*
X3542741Y4861102D01*
X3529634Y4863693D01*
X3515969Y4864608D01*
X3469030Y4864608D01*
X3455365Y4863693D01*
X3442258Y4861102D01*
X3429609Y4856835D01*
X3417671Y4850892D01*
X3406546Y4843475D01*
X3396538Y4834686D01*
X3387699Y4824628D01*
X3380282Y4813554D01*
X3374390Y4801565D01*
X3370072Y4788916D01*
X3367481Y4775809D01*
X3366617Y4762500D01*
X3367481Y4749190D01*
X3370072Y4736084D01*
X3374390Y4723434D01*
X3380282Y4711446D01*
X3387699Y4700371D01*
X3395929Y4690973D01*
X3397910Y4687620D01*
X3398469Y4683810D01*
X3397554Y4680051D01*
X3395319Y4676952D01*
X3392068Y4674819D01*
X3388309Y4674108D01*
X3042818Y4674108D01*
X3038906Y4674870D01*
X3035604Y4677105D01*
X2415235Y5297424D01*
X2409037Y5302554D01*
X2402332Y5306110D01*
X2395118Y5308295D01*
X2387092Y5309108D01*
X2093163Y5309108D01*
X2089454Y5309819D01*
X2086305Y5311800D01*
X2084070Y5314797D01*
X2080717Y5321554D01*
X2073300Y5332628D01*
X2064461Y5342686D01*
X2054453Y5351475D01*
X2043328Y5358892D01*
X2031390Y5364835D01*
X2018741Y5369102D01*
X2005634Y5371693D01*
X1991969Y5372608D01*
X1945030Y5372608D01*
X1931365Y5371693D01*
X1918258Y5369102D01*
X1905609Y5364835D01*
X1893671Y5358892D01*
X1882546Y5351475D01*
X1872538Y5342686D01*
X1863699Y5332628D01*
X1856282Y5321554D01*
X1850389Y5309565D01*
X1846072Y5296916D01*
X1843481Y5283809D01*
X1842617Y5270500D01*
X1843481Y5257190D01*
X1846072Y5244084D01*
X1850389Y5231434D01*
X1856282Y5219446D01*
X1863699Y5208371D01*
X1872538Y5198313D01*
X1882546Y5189524D01*
X1893671Y5182108D01*
X1905609Y5176164D01*
X1918258Y5171897D01*
X1931365Y5169306D01*
X1945030Y5168392D01*
X1991969Y5168392D01*
X2005634Y5169306D01*
X2018741Y5171897D01*
X2031390Y5176164D01*
X2043328Y5182108D01*
X2054453Y5189524D01*
X2064461Y5198313D01*
X2073300Y5208371D01*
X2080717Y5219446D01*
X2084070Y5226202D01*
X2086305Y5229199D01*
X2089454Y5231180D01*
X2093163Y5231892D01*
X2367381Y5231892D01*
X2371293Y5231130D01*
X2374595Y5228894D01*
X2994964Y4608576D01*
X3001162Y4603445D01*
X3007868Y4599889D01*
X3015081Y4597704D01*
X3023108Y4596892D01*
X3388309Y4596892D01*
X3392068Y4596180D01*
X3395319Y4594047D01*
X3397554Y4590948D01*
X3398469Y4587189D01*
X3397910Y4583379D01*
X3395929Y4580026D01*
X3387699Y4570628D01*
X3380282Y4559554D01*
X3376929Y4552797D01*
X3374694Y4549800D01*
X3371545Y4547819D01*
X3367836Y4547108D01*
X3232708Y4547108D01*
X3228797Y4547870D01*
X3225495Y4550105D01*
X3223920Y4551680D01*
X3215894Y4557318D01*
X3206953Y4561433D01*
X3197504Y4563973D01*
X3187700Y4564837D01*
X3177895Y4563973D01*
X3168446Y4561433D01*
X3159506Y4557318D01*
X3151479Y4551680D01*
X3144520Y4544720D01*
X3138881Y4536694D01*
X3134766Y4527753D01*
X3132226Y4518304D01*
X3131362Y4508500D01*
X3132226Y4498695D01*
X3134766Y4489246D01*
X3138881Y4480306D01*
X3144520Y4472279D01*
X3151479Y4465320D01*
X3159506Y4459681D01*
X3168446Y4455566D01*
X3177895Y4453026D01*
X3187700Y4452162D01*
X3197504Y4453026D01*
X3206953Y4455566D01*
X3215894Y4459681D01*
X3223920Y4465320D01*
X3225495Y4466894D01*
X3228797Y4469130D01*
X3232708Y4469892D01*
X3367836Y4469892D01*
X3371545Y4469180D01*
X3374694Y4467199D01*
X3376929Y4464202D01*
X3380282Y4457446D01*
X3387699Y4446371D01*
X3395929Y4436973D01*
X3397910Y4433620D01*
X3398469Y4429810D01*
X3397554Y4426051D01*
X3395319Y4422952D01*
X3392068Y4420819D01*
X3388309Y4420108D01*
X3042818Y4420108D01*
X3038906Y4420870D01*
X3035604Y4423105D01*
X2415235Y5043424D01*
X2409037Y5048554D01*
X2402332Y5052110D01*
X2395118Y5054295D01*
X2387092Y5055108D01*
X2093163Y5055108D01*
X2089454Y5055819D01*
X2086305Y5057800D01*
X2084070Y5060797D01*
X2080717Y5067554D01*
X2073300Y5078628D01*
X2064461Y5088686D01*
X2054453Y5097475D01*
X2043328Y5104892D01*
X2031390Y5110835D01*
X2018741Y5115102D01*
X2005634Y5117693D01*
X1991969Y5118608D01*
X1945030Y5118608D01*
X1931365Y5117693D01*
X1918258Y5115102D01*
X1905609Y5110835D01*
X1893671Y5104892D01*
X1882546Y5097475D01*
X1872538Y5088686D01*
X1863699Y5078628D01*
X1856282Y5067554D01*
X1850389Y5055565D01*
X1846072Y5042916D01*
X1843481Y5029809D01*
X1842617Y5016500D01*
X1843481Y5003190D01*
X1846072Y4990084D01*
X1850389Y4977434D01*
X1856282Y4965446D01*
X1863699Y4954371D01*
X1871929Y4944973D01*
X1873910Y4941620D01*
X1874469Y4937810D01*
X1873554Y4934051D01*
X1871319Y4930952D01*
X1868068Y4928819D01*
X1864309Y4928108D01*
X1620418Y4928108D01*
X1616506Y4928870D01*
X1613204Y4931105D01*
X1250137Y5294122D01*
X1243939Y5299252D01*
X1237234Y5302808D01*
X1230020Y5304993D01*
X1221994Y5305806D01*
X1083056Y5305806D01*
X1079296Y5306517D01*
X1076045Y5308650D01*
X1073810Y5311800D01*
X1067562Y5325668D01*
X1059688Y5338724D01*
X1050340Y5350662D01*
X1039571Y5361432D01*
X1027582Y5370779D01*
X1014577Y5378653D01*
X1000709Y5384901D01*
X986231Y5389422D01*
X971245Y5392166D01*
X956106Y5393080D01*
X940917Y5392166D01*
X925982Y5389422D01*
X911453Y5384901D01*
X897585Y5378653D01*
X884580Y5370779D01*
X872591Y5361432D01*
X861872Y5350662D01*
X852474Y5338724D01*
X844600Y5325668D01*
X838403Y5311851D01*
X833882Y5297322D01*
X831138Y5282387D01*
X830224Y5267198D01*
X831138Y5252008D01*
X833882Y5237073D01*
X838403Y5222544D01*
X844600Y5208676D01*
X852474Y5195671D01*
X861872Y5183733D01*
X872591Y5172964D01*
X884580Y5163566D01*
X897585Y5155742D01*
X911504Y5149443D01*
X914653Y5147208D01*
X916787Y5144008D01*
X917498Y5140198D01*
X916787Y5136388D01*
X914653Y5133136D01*
X911504Y5130901D01*
X897585Y5124653D01*
X884580Y5116779D01*
X872591Y5107432D01*
X861872Y5096662D01*
X852474Y5084724D01*
X844600Y5071668D01*
X838403Y5057851D01*
X833882Y5043322D01*
X831138Y5028387D01*
X830224Y5013198D01*
X831138Y4998008D01*
X833882Y4983073D01*
X838403Y4968544D01*
X844600Y4954676D01*
X852474Y4941671D01*
X861872Y4929733D01*
X872591Y4918964D01*
X884580Y4909566D01*
X897585Y4901742D01*
X911504Y4895443D01*
X914653Y4893208D01*
X916787Y4890008D01*
X917498Y4886198D01*
X916787Y4882388D01*
X914653Y4879136D01*
X911504Y4876901D01*
X897585Y4870653D01*
X884580Y4862779D01*
X872591Y4853432D01*
X861872Y4842662D01*
X852474Y4830724D01*
X844600Y4817668D01*
X838403Y4803851D01*
X833882Y4789322D01*
X831138Y4774387D01*
X830224Y4759198D01*
X831138Y4744008D01*
X833882Y4729073D01*
X838403Y4714544D01*
X844600Y4700676D01*
X852474Y4687671D01*
X861872Y4675733D01*
X872591Y4664964D01*
X884580Y4655566D01*
X897585Y4647742D01*
X911504Y4641443D01*
X914653Y4639208D01*
X916787Y4636008D01*
X917498Y4632198D01*
X916787Y4628388D01*
X914653Y4625136D01*
X911504Y4622901D01*
X897585Y4616653D01*
X884580Y4608779D01*
X872591Y4599432D01*
X861872Y4588662D01*
X852474Y4576724D01*
X844600Y4563668D01*
X838403Y4549851D01*
X833882Y4535322D01*
X831138Y4520387D01*
X830224Y4505198D01*
X831138Y4490008D01*
X833882Y4475073D01*
X838403Y4460544D01*
X844600Y4446676D01*
X852474Y4433671D01*
X861872Y4421733D01*
X872591Y4410964D01*
X884580Y4401566D01*
X897585Y4393742D01*
X911504Y4387443D01*
X914653Y4385208D01*
X916787Y4382008D01*
X917498Y4378198D01*
X916787Y4374388D01*
X914653Y4371136D01*
X911504Y4368901D01*
X897585Y4362653D01*
X884580Y4354779D01*
X872591Y4345432D01*
X861872Y4334662D01*
X852474Y4322724D01*
X844600Y4309668D01*
X838403Y4295851D01*
X833882Y4281322D01*
X831138Y4266387D01*
X830224Y4251198D01*
X831138Y4236008D01*
X833882Y4221073D01*
X838403Y4206544D01*
X844600Y4192676D01*
X852474Y4179671D01*
X861872Y4167733D01*
X872591Y4156964D01*
X884580Y4147565D01*
X897585Y4139742D01*
X911504Y4133443D01*
X914653Y4131208D01*
X916787Y4128008D01*
X917498Y4124198D01*
X916787Y4120387D01*
X914653Y4117136D01*
X911504Y4114901D01*
X897585Y4108653D01*
X884580Y4100779D01*
X872591Y4091432D01*
X861872Y4080662D01*
X852474Y4068724D01*
X844600Y4055668D01*
X838403Y4041851D01*
X833882Y4027322D01*
X831138Y4012387D01*
X830224Y3997198D01*
X831138Y3982008D01*
X833882Y3967073D01*
X838403Y3952544D01*
X844600Y3938676D01*
X852474Y3925671D01*
X861872Y3913733D01*
X872591Y3902964D01*
X884580Y3893565D01*
X897585Y3885742D01*
X911504Y3879443D01*
X914653Y3877208D01*
X916787Y3874008D01*
X917498Y3870198D01*
X916787Y3866387D01*
X914653Y3863136D01*
X911504Y3860901D01*
X897585Y3854653D01*
X884580Y3846779D01*
X872591Y3837432D01*
X861872Y3826662D01*
X852474Y3814724D01*
X844600Y3801668D01*
X838403Y3787851D01*
X833882Y3773322D01*
X831138Y3758387D01*
X830224Y3743198D01*
X831138Y3728008D01*
X833882Y3713073D01*
X838403Y3698544D01*
X844600Y3684676D01*
X852474Y3671671D01*
X861872Y3659733D01*
X872591Y3648964D01*
X884580Y3639565D01*
X897585Y3631742D01*
X911504Y3625443D01*
X914653Y3623208D01*
X916787Y3620008D01*
X917498Y3616198D01*
X916787Y3612387D01*
X914653Y3609136D01*
X911504Y3606901D01*
X897585Y3600653D01*
X884580Y3592779D01*
X872591Y3583432D01*
X861872Y3572662D01*
X852474Y3560724D01*
X844600Y3547668D01*
X838403Y3533851D01*
X833882Y3519322D01*
X831138Y3504387D01*
X830224Y3489198D01*
X831138Y3474008D01*
X833882Y3459073D01*
X838403Y3444544D01*
X844600Y3430676D01*
X852474Y3417671D01*
X861872Y3405733D01*
X872591Y3394964D01*
X884580Y3385565D01*
X897585Y3377742D01*
X911453Y3371494D01*
X925982Y3366973D01*
X940917Y3364229D01*
X956106Y3363315D01*
X971245Y3364229D01*
X986231Y3366973D01*
X1000709Y3371494D01*
X1014577Y3377742D01*
X1027582Y3385565D01*
X1039571Y3394964D01*
X1050340Y3405733D01*
X1059688Y3417671D01*
X1067562Y3430676D01*
X1073810Y3444595D01*
X1076045Y3447745D01*
X1079296Y3449878D01*
X1083106Y3450590D01*
X1202283Y3450590D01*
X1206195Y3449828D01*
X1209497Y3447592D01*
X1572564Y3084576D01*
X1578762Y3079445D01*
X1585468Y3075889D01*
X1592681Y3073704D01*
X1600708Y3072892D01*
X1864309Y3072892D01*
X1868068Y3072180D01*
X1871319Y3070047D01*
X1873554Y3066948D01*
X1874469Y3063189D01*
X1873910Y3059379D01*
X1871929Y3056026D01*
X1863699Y3046628D01*
X1856282Y3035554D01*
X1852930Y3028797D01*
X1850694Y3025800D01*
X1847545Y3023819D01*
X1843836Y3023108D01*
X1569008Y3023108D01*
X1565097Y3023870D01*
X1561795Y3026105D01*
X1560220Y3027680D01*
X1552194Y3033318D01*
X1543253Y3037433D01*
X1533804Y3039973D01*
X1524000Y3040837D01*
X1514195Y3039973D01*
X1504746Y3037433D01*
X1495806Y3033318D01*
X1487779Y3027680D01*
X1480820Y3020720D01*
X1475181Y3012694D01*
X1471066Y3003753D01*
X1468526Y2994304D01*
X1467662Y2984500D01*
X1468526Y2974695D01*
X1471066Y2965246D01*
X1475181Y2956306D01*
X1480820Y2948279D01*
X1487779Y2941320D01*
X1495806Y2935681D01*
X1504746Y2931566D01*
X1514195Y2929026D01*
X1524000Y2928162D01*
X1533804Y2929026D01*
X1543253Y2931566D01*
X1552194Y2935681D01*
X1560220Y2941320D01*
X1561795Y2942894D01*
X1565097Y2945130D01*
X1569008Y2945892D01*
X1843836Y2945892D01*
X1847545Y2945180D01*
X1850694Y2943199D01*
X1852930Y2940202D01*
X1856282Y2933446D01*
X1863699Y2922371D01*
X1872538Y2912313D01*
X1882546Y2903524D01*
X1893671Y2896108D01*
X1905609Y2890164D01*
X1918258Y2885897D01*
X1931365Y2883306D01*
X1945030Y2882392D01*
X1991969Y2882392D01*
X2005634Y2883306D01*
X2018741Y2885897D01*
X2031390Y2890164D01*
X2043328Y2896108D01*
X2054453Y2903524D01*
X2064461Y2912313D01*
X2073300Y2922371D01*
X2080717Y2933446D01*
X2086610Y2945434D01*
X2090928Y2958084D01*
X2093518Y2971190D01*
X2094382Y2984500D01*
X2093518Y2997809D01*
X2090928Y3010916D01*
X2086610Y3023565D01*
X2080717Y3035554D01*
X2073300Y3046628D01*
X2065070Y3056026D01*
X2063089Y3059379D01*
X2062530Y3063189D01*
X2063445Y3066948D01*
X2065680Y3070047D01*
X2068931Y3072180D01*
X2072690Y3072892D01*
X2354681Y3072892D01*
X2358593Y3072130D01*
X2361895Y3069894D01*
X2982264Y2449576D01*
X2988462Y2444445D01*
X2995168Y2440889D01*
X3002381Y2438704D01*
X3010408Y2437892D01*
X3367989Y2437892D01*
X3371646Y2437180D01*
X3374847Y2435199D01*
X3377082Y2432202D01*
X3380130Y2426055D01*
X3387445Y2415082D01*
X3396183Y2405176D01*
X3406089Y2396439D01*
X3417062Y2389124D01*
X3428898Y2383282D01*
X3441395Y2379065D01*
X3454349Y2376474D01*
G37*
G36*
X1181100Y2624632D02*
G01*
X1194917Y2625496D01*
X1208481Y2628239D01*
X1221638Y2632659D01*
X1234033Y2638806D01*
X1245565Y2646476D01*
X1255979Y2655620D01*
X1265123Y2666034D01*
X1272794Y2677566D01*
X1278940Y2689961D01*
X1283360Y2703118D01*
X1286103Y2716682D01*
X1286967Y2730500D01*
X1286103Y2744317D01*
X1283360Y2757881D01*
X1278940Y2771038D01*
X1272794Y2783433D01*
X1265123Y2794965D01*
X1255979Y2805379D01*
X1245565Y2814523D01*
X1234033Y2822194D01*
X1221638Y2828340D01*
X1208481Y2832760D01*
X1194917Y2835503D01*
X1181100Y2836367D01*
X1167282Y2835503D01*
X1153718Y2832760D01*
X1140561Y2828340D01*
X1128166Y2822194D01*
X1116634Y2814523D01*
X1106220Y2805379D01*
X1097076Y2794965D01*
X1089406Y2783433D01*
X1083259Y2771038D01*
X1078839Y2757881D01*
X1076096Y2744317D01*
X1075232Y2730500D01*
X1076096Y2716682D01*
X1078839Y2703118D01*
X1083259Y2689961D01*
X1089406Y2677566D01*
X1097076Y2666034D01*
X1106220Y2655620D01*
X1116634Y2646476D01*
X1128166Y2638806D01*
X1140561Y2632659D01*
X1153718Y2628239D01*
X1167282Y2625496D01*
G37*
G36*
X1945030Y2628392D02*
G01*
X1991969Y2628392D01*
X2005634Y2629306D01*
X2018741Y2631897D01*
X2031390Y2636164D01*
X2043328Y2642108D01*
X2054453Y2649524D01*
X2064461Y2658313D01*
X2073300Y2668371D01*
X2080717Y2679446D01*
X2086610Y2691434D01*
X2090928Y2704084D01*
X2093518Y2717190D01*
X2094382Y2730500D01*
X2093518Y2743809D01*
X2090928Y2756916D01*
X2086610Y2769565D01*
X2080717Y2781554D01*
X2073300Y2792628D01*
X2064461Y2802686D01*
X2054453Y2811475D01*
X2043328Y2818892D01*
X2031390Y2824835D01*
X2018741Y2829102D01*
X2005634Y2831693D01*
X1991969Y2832608D01*
X1945030Y2832608D01*
X1931365Y2831693D01*
X1918258Y2829102D01*
X1905609Y2824835D01*
X1893671Y2818892D01*
X1882546Y2811475D01*
X1872538Y2802686D01*
X1863699Y2792628D01*
X1856282Y2781554D01*
X1852930Y2774797D01*
X1850694Y2771800D01*
X1847545Y2769819D01*
X1843836Y2769108D01*
X1442008Y2769108D01*
X1438097Y2769870D01*
X1434795Y2772105D01*
X1433220Y2773680D01*
X1425194Y2779318D01*
X1416253Y2783433D01*
X1406804Y2785973D01*
X1397000Y2786837D01*
X1387195Y2785973D01*
X1377746Y2783433D01*
X1368806Y2779318D01*
X1360779Y2773680D01*
X1353820Y2766720D01*
X1348181Y2758694D01*
X1344066Y2749753D01*
X1341526Y2740304D01*
X1340662Y2730500D01*
X1341526Y2720695D01*
X1344066Y2711246D01*
X1348181Y2702306D01*
X1353820Y2694279D01*
X1360779Y2687320D01*
X1368806Y2681681D01*
X1377746Y2677566D01*
X1387195Y2675026D01*
X1397000Y2674162D01*
X1406804Y2675026D01*
X1416253Y2677566D01*
X1425194Y2681681D01*
X1433220Y2687320D01*
X1434795Y2688894D01*
X1438097Y2691130D01*
X1442008Y2691892D01*
X1843836Y2691892D01*
X1847545Y2691180D01*
X1850694Y2689199D01*
X1852930Y2686202D01*
X1856282Y2679446D01*
X1863699Y2668371D01*
X1872538Y2658313D01*
X1882546Y2649524D01*
X1893671Y2642108D01*
X1905609Y2636164D01*
X1918258Y2631897D01*
X1931365Y2629306D01*
G37*
G36*
X1181100Y103428D02*
G01*
X1194917Y104292D01*
X1208481Y107035D01*
X1221638Y111455D01*
X1234033Y117602D01*
X1245565Y125272D01*
X1255979Y134416D01*
X1265123Y144830D01*
X1272794Y156362D01*
X1278940Y168757D01*
X1283360Y181914D01*
X1286103Y195478D01*
X1286967Y209296D01*
X1286103Y223113D01*
X1283360Y236677D01*
X1278940Y249834D01*
X1272794Y262229D01*
X1265123Y273761D01*
X1255979Y284175D01*
X1245565Y293319D01*
X1234033Y300990D01*
X1221638Y307136D01*
X1208481Y311556D01*
X1194917Y314299D01*
X1181100Y315163D01*
X1167282Y314299D01*
X1153718Y311556D01*
X1140561Y307136D01*
X1128166Y300990D01*
X1116634Y293319D01*
X1106220Y284175D01*
X1097076Y273761D01*
X1089406Y262229D01*
X1083259Y249834D01*
X1078839Y236677D01*
X1076096Y223113D01*
X1075232Y209296D01*
X1076096Y195478D01*
X1078839Y181914D01*
X1083259Y168757D01*
X1089406Y156362D01*
X1097076Y144830D01*
X1106220Y134416D01*
X1116634Y125272D01*
X1128166Y117602D01*
X1140561Y111455D01*
X1153718Y107035D01*
X1167282Y104292D01*
G37*
G36*
X4660900Y3000400D02*
G01*
X4674717Y3001314D01*
X4688281Y3004007D01*
X4701438Y3008477D01*
X4713833Y3014573D01*
X4725365Y3022295D01*
X4735779Y3031439D01*
X4744923Y3041853D01*
X4752594Y3053334D01*
X4758740Y3065780D01*
X4763160Y3078886D01*
X4765903Y3092450D01*
X4766767Y3106267D01*
X4765903Y3120136D01*
X4763160Y3133699D01*
X4758740Y3146806D01*
X4752594Y3159252D01*
X4744923Y3170732D01*
X4735779Y3181146D01*
X4725365Y3190290D01*
X4713833Y3198012D01*
X4701438Y3204108D01*
X4688281Y3208578D01*
X4674717Y3211271D01*
X4660900Y3212185D01*
X4647082Y3211271D01*
X4633518Y3208578D01*
X4620361Y3204108D01*
X4607966Y3198012D01*
X4596434Y3190290D01*
X4586020Y3181146D01*
X4576876Y3170732D01*
X4569206Y3159252D01*
X4563059Y3146806D01*
X4558639Y3133699D01*
X4555896Y3120136D01*
X4555032Y3106267D01*
X4555896Y3092450D01*
X4558639Y3078886D01*
X4563059Y3065780D01*
X4569206Y3053334D01*
X4576876Y3041853D01*
X4586020Y3031439D01*
X4596434Y3022295D01*
X4607966Y3014573D01*
X4620361Y3008477D01*
X4633518Y3004007D01*
X4647082Y3001314D01*
G37*
G36*
X1181100Y3011728D02*
G01*
X1194917Y3012592D01*
X1208481Y3015335D01*
X1221638Y3019755D01*
X1234033Y3025902D01*
X1245565Y3033572D01*
X1255979Y3042716D01*
X1265123Y3053130D01*
X1272794Y3064662D01*
X1278940Y3077057D01*
X1283360Y3090214D01*
X1286103Y3103778D01*
X1286967Y3117596D01*
X1286103Y3131413D01*
X1283360Y3144977D01*
X1278940Y3158134D01*
X1272794Y3170529D01*
X1265123Y3182061D01*
X1255979Y3192475D01*
X1245565Y3201619D01*
X1234033Y3209290D01*
X1221638Y3215436D01*
X1208481Y3219856D01*
X1194917Y3222599D01*
X1181100Y3223463D01*
X1167282Y3222599D01*
X1153718Y3219856D01*
X1140561Y3215436D01*
X1128166Y3209290D01*
X1116634Y3201619D01*
X1106220Y3192475D01*
X1097076Y3182061D01*
X1089406Y3170529D01*
X1083259Y3158134D01*
X1078839Y3144977D01*
X1076096Y3131413D01*
X1075232Y3117596D01*
X1076096Y3103778D01*
X1078839Y3090214D01*
X1083259Y3077057D01*
X1089406Y3064662D01*
X1097076Y3053130D01*
X1106220Y3042716D01*
X1116634Y3033572D01*
X1128166Y3025902D01*
X1140561Y3019755D01*
X1153718Y3015335D01*
X1167282Y3012592D01*
G37*
G36*
X4089400Y3123692D02*
G01*
X4103014Y3124606D01*
X4116374Y3127349D01*
X4129278Y3131820D01*
X4141419Y3137966D01*
X4152646Y3145688D01*
X4162806Y3154832D01*
X4171594Y3165246D01*
X4174744Y3170174D01*
X4177029Y3172714D01*
X4179976Y3174339D01*
X4183329Y3174898D01*
X4470196Y3174898D01*
X4474819Y3175101D01*
X4479239Y3175660D01*
X4483557Y3176625D01*
X4487824Y3177946D01*
X4491888Y3179673D01*
X4495850Y3181705D01*
X4499610Y3184093D01*
X4503115Y3186785D01*
X4506569Y3189935D01*
X4552035Y3235401D01*
X4555286Y3237636D01*
X4559198Y3238398D01*
X4749901Y3238398D01*
X4753813Y3237636D01*
X4757064Y3235401D01*
X4802530Y3189935D01*
X4805984Y3186785D01*
X4809490Y3184093D01*
X4813249Y3181705D01*
X4817211Y3179673D01*
X4821275Y3177946D01*
X4825542Y3176625D01*
X4829860Y3175660D01*
X4834280Y3175101D01*
X4838903Y3174898D01*
X5079492Y3174898D01*
X5083810Y3173933D01*
X5086146Y3172866D01*
X5095595Y3170326D01*
X5105400Y3169462D01*
X5115204Y3170326D01*
X5124653Y3172866D01*
X5133594Y3176981D01*
X5141620Y3182620D01*
X5148580Y3189579D01*
X5154218Y3197606D01*
X5158333Y3206546D01*
X5160873Y3215995D01*
X5161737Y3225800D01*
X5160873Y3235604D01*
X5158333Y3245053D01*
X5154218Y3253994D01*
X5148580Y3262020D01*
X5141620Y3268979D01*
X5133594Y3274618D01*
X5124653Y3278733D01*
X5115204Y3281273D01*
X5105400Y3282137D01*
X5095595Y3281273D01*
X5086146Y3278733D01*
X5083810Y3277666D01*
X5079492Y3276701D01*
X4863998Y3276701D01*
X4860086Y3277463D01*
X4856835Y3279698D01*
X4811369Y3325164D01*
X4807915Y3328314D01*
X4804410Y3331006D01*
X4800650Y3333394D01*
X4796688Y3335426D01*
X4792624Y3337153D01*
X4788357Y3338474D01*
X4784039Y3339439D01*
X4779619Y3339998D01*
X4774996Y3340201D01*
X4534103Y3340201D01*
X4529480Y3339998D01*
X4525060Y3339439D01*
X4520742Y3338474D01*
X4516475Y3337153D01*
X4512411Y3335426D01*
X4508449Y3333394D01*
X4504690Y3331006D01*
X4501184Y3328314D01*
X4497730Y3325164D01*
X4452264Y3279698D01*
X4449013Y3277463D01*
X4445101Y3276701D01*
X4183532Y3276701D01*
X4180433Y3277209D01*
X4177588Y3278632D01*
X4175353Y3280816D01*
X4167378Y3291687D01*
X4157878Y3301492D01*
X4147159Y3309975D01*
X4135424Y3316935D01*
X4122877Y3322218D01*
X4109720Y3325825D01*
X4096207Y3327654D01*
X4082592Y3327654D01*
X4069079Y3325825D01*
X4055922Y3322218D01*
X4043375Y3316935D01*
X4031640Y3309975D01*
X4020921Y3301492D01*
X4011422Y3291687D01*
X4003344Y3280714D01*
X3996791Y3268776D01*
X3991914Y3256026D01*
X3988714Y3242767D01*
X3987393Y3229203D01*
X3987850Y3215589D01*
X3990086Y3202127D01*
X3994150Y3189122D01*
X3999890Y3176727D01*
X4007205Y3165246D01*
X4015994Y3154832D01*
X4026154Y3145688D01*
X4037380Y3137966D01*
X4049522Y3131820D01*
X4062425Y3127349D01*
X4075785Y3124606D01*
G37*
G36*
X4102100Y5524500D02*
G01*
X4191508Y5524500D01*
X4191508Y5587441D01*
X4190796Y5593740D01*
X4188866Y5599226D01*
X4185818Y5604103D01*
X4181703Y5608218D01*
X4176826Y5611266D01*
X4171340Y5613196D01*
X4165041Y5613908D01*
X4102100Y5613908D01*
G37*
G36*
X3987292Y5524500D02*
G01*
X4076700Y5524500D01*
X4076700Y5613908D01*
X4013758Y5613908D01*
X4007459Y5613196D01*
X4001973Y5611266D01*
X3997096Y5608218D01*
X3992981Y5604103D01*
X3989933Y5599226D01*
X3988003Y5593740D01*
X3987292Y5587441D01*
G37*
G36*
X4660900Y5521604D02*
G01*
X4674717Y5522518D01*
X4688281Y5525211D01*
X4701438Y5529681D01*
X4713833Y5535777D01*
X4725365Y5543499D01*
X4735779Y5552643D01*
X4744923Y5563057D01*
X4752594Y5574538D01*
X4758740Y5586984D01*
X4763160Y5600090D01*
X4765903Y5613654D01*
X4766767Y5627471D01*
X4765903Y5641340D01*
X4763160Y5654903D01*
X4758740Y5668010D01*
X4752594Y5680456D01*
X4744923Y5691936D01*
X4735779Y5702350D01*
X4725365Y5711494D01*
X4713833Y5719216D01*
X4701438Y5725312D01*
X4688281Y5729782D01*
X4674717Y5732475D01*
X4660900Y5733389D01*
X4647082Y5732475D01*
X4633518Y5729782D01*
X4620361Y5725312D01*
X4607966Y5719216D01*
X4596434Y5711494D01*
X4586020Y5702350D01*
X4576876Y5691936D01*
X4569206Y5680456D01*
X4563059Y5668010D01*
X4558639Y5654903D01*
X4555896Y5641340D01*
X4555032Y5627471D01*
X4555896Y5613654D01*
X4558639Y5600090D01*
X4563059Y5586984D01*
X4569206Y5574538D01*
X4576876Y5563057D01*
X4586020Y5552643D01*
X4596434Y5543499D01*
X4607966Y5535777D01*
X4620361Y5529681D01*
X4633518Y5525211D01*
X4647082Y5522518D01*
G37*
G36*
X393700Y5473700D02*
G01*
X656590Y5473700D01*
X654710Y5495594D01*
X650849Y5518353D01*
X645109Y5540756D01*
X637540Y5562549D01*
X628142Y5583682D01*
X617016Y5603900D01*
X604215Y5623153D01*
X589838Y5641289D01*
X574040Y5658104D01*
X556869Y5673598D01*
X538480Y5687568D01*
X518972Y5699912D01*
X498500Y5710631D01*
X477164Y5719572D01*
X455218Y5726734D01*
X432714Y5732018D01*
X409854Y5735370D01*
X393700Y5736386D01*
G37*
G36*
X5473700Y5473700D02*
G01*
X5736590Y5473700D01*
X5734710Y5495594D01*
X5730849Y5518353D01*
X5725109Y5540756D01*
X5717540Y5562549D01*
X5708142Y5583682D01*
X5697016Y5603900D01*
X5684215Y5623153D01*
X5669838Y5641289D01*
X5654040Y5658104D01*
X5636869Y5673598D01*
X5618480Y5687568D01*
X5598972Y5699912D01*
X5578500Y5710631D01*
X5557164Y5719572D01*
X5535218Y5726734D01*
X5512714Y5732018D01*
X5489854Y5735370D01*
X5473700Y5736386D01*
G37*
G36*
X5185664Y5473700D02*
G01*
X5448300Y5473700D01*
X5448300Y5736437D01*
X5443677Y5736336D01*
X5420715Y5733948D01*
X5398008Y5729630D01*
X5375757Y5723382D01*
X5354066Y5715355D01*
X5333187Y5705500D01*
X5313172Y5693968D01*
X5294172Y5680760D01*
X5276392Y5666028D01*
X5259882Y5649874D01*
X5244795Y5632348D01*
X5231180Y5613704D01*
X5219242Y5593892D01*
X5208981Y5573217D01*
X5200446Y5551728D01*
X5193792Y5529630D01*
X5188966Y5507024D01*
X5186070Y5484063D01*
G37*
G36*
X105664Y5473700D02*
G01*
X368300Y5473700D01*
X368300Y5736437D01*
X363677Y5736336D01*
X340715Y5733948D01*
X318008Y5729630D01*
X295757Y5723382D01*
X274066Y5715355D01*
X253187Y5705500D01*
X233171Y5693968D01*
X214172Y5680760D01*
X196392Y5666028D01*
X179882Y5649874D01*
X164795Y5632348D01*
X151180Y5613704D01*
X139242Y5593892D01*
X128981Y5573217D01*
X120446Y5551728D01*
X113792Y5529630D01*
X108966Y5507024D01*
X106070Y5484063D01*
G37*
G36*
X4102100Y5409692D02*
G01*
X4165041Y5409692D01*
X4171340Y5410403D01*
X4176826Y5412333D01*
X4181703Y5415381D01*
X4185818Y5419496D01*
X4188866Y5424373D01*
X4190796Y5429859D01*
X4191508Y5436158D01*
X4191508Y5499100D01*
X4102100Y5499100D01*
G37*
G36*
X4013758Y5409692D02*
G01*
X4076700Y5409692D01*
X4076700Y5499100D01*
X3987292Y5499100D01*
X3987292Y5436158D01*
X3988003Y5429859D01*
X3989933Y5424373D01*
X3992981Y5419496D01*
X3997096Y5415381D01*
X4001973Y5412333D01*
X4007459Y5410403D01*
G37*
G36*
X3367430Y5283200D02*
G01*
X3479800Y5283200D01*
X3479800Y5372608D01*
X3469030Y5372608D01*
X3455365Y5371693D01*
X3442258Y5369102D01*
X3429609Y5364835D01*
X3417671Y5358892D01*
X3406546Y5351475D01*
X3396538Y5342686D01*
X3387699Y5332628D01*
X3380282Y5321554D01*
X3374390Y5309565D01*
X3370072Y5296916D01*
G37*
G36*
X5448300Y5185562D02*
G01*
X5448300Y5448300D01*
X5185664Y5448300D01*
X5186070Y5437936D01*
X5188966Y5414975D01*
X5193792Y5392369D01*
X5200446Y5370271D01*
X5208981Y5348782D01*
X5219242Y5328107D01*
X5231180Y5308295D01*
X5244795Y5289600D01*
X5259882Y5272125D01*
X5276392Y5255971D01*
X5294172Y5241239D01*
X5313172Y5228031D01*
X5333187Y5216499D01*
X5354066Y5206644D01*
X5375757Y5198618D01*
X5398008Y5192369D01*
X5420715Y5188051D01*
X5443677Y5185664D01*
G37*
G36*
X368300Y5185562D02*
G01*
X368300Y5448300D01*
X105664Y5448300D01*
X106070Y5437936D01*
X108966Y5414975D01*
X113792Y5392369D01*
X120446Y5370271D01*
X128981Y5348782D01*
X139242Y5328107D01*
X151180Y5308295D01*
X164795Y5289600D01*
X179882Y5272125D01*
X196392Y5255971D01*
X214172Y5241239D01*
X233171Y5228031D01*
X253187Y5216499D01*
X274066Y5206644D01*
X295757Y5198618D01*
X318008Y5192369D01*
X340715Y5188051D01*
X363677Y5185664D01*
G37*
G36*
X5473700Y5185613D02*
G01*
X5489854Y5186629D01*
X5512714Y5189982D01*
X5535218Y5195265D01*
X5557164Y5202428D01*
X5578500Y5211368D01*
X5598972Y5222087D01*
X5618480Y5234432D01*
X5636869Y5248402D01*
X5654040Y5263896D01*
X5669838Y5280710D01*
X5684215Y5298846D01*
X5697016Y5318099D01*
X5708142Y5338318D01*
X5717540Y5359450D01*
X5725109Y5381244D01*
X5730849Y5403646D01*
X5734710Y5426405D01*
X5736590Y5448300D01*
X5473700Y5448300D01*
G37*
G36*
X393700Y5185613D02*
G01*
X409854Y5186629D01*
X432714Y5189982D01*
X455218Y5195265D01*
X477164Y5202428D01*
X498500Y5211368D01*
X518972Y5222087D01*
X538480Y5234432D01*
X556869Y5248402D01*
X574040Y5263896D01*
X589838Y5280710D01*
X604215Y5298846D01*
X617016Y5318099D01*
X628142Y5338318D01*
X637540Y5359450D01*
X645109Y5381244D01*
X650849Y5403646D01*
X654710Y5426405D01*
X656590Y5448300D01*
X393700Y5448300D01*
G37*
G36*
X3505200Y5283200D02*
G01*
X3617569Y5283200D01*
X3614928Y5296916D01*
X3610610Y5309565D01*
X3604717Y5321554D01*
X3597300Y5332628D01*
X3588461Y5342686D01*
X3578453Y5351475D01*
X3567328Y5358892D01*
X3555390Y5364835D01*
X3542741Y5369102D01*
X3529634Y5371693D01*
X3515969Y5372608D01*
X3505200Y5372608D01*
G37*
G36*
X1945030Y2120392D02*
G01*
X1991969Y2120392D01*
X2005634Y2121306D01*
X2018741Y2123897D01*
X2031390Y2128164D01*
X2043328Y2134108D01*
X2054453Y2141524D01*
X2064461Y2150313D01*
X2073300Y2160371D01*
X2080717Y2171446D01*
X2084070Y2178202D01*
X2086305Y2181199D01*
X2089454Y2183180D01*
X2093163Y2183892D01*
X2240991Y2183892D01*
X2244902Y2183130D01*
X2248204Y2180894D01*
X2249779Y2179320D01*
X2257806Y2173681D01*
X2266746Y2169566D01*
X2276195Y2167026D01*
X2286000Y2166162D01*
X2295804Y2167026D01*
X2305253Y2169566D01*
X2314194Y2173681D01*
X2322220Y2179320D01*
X2329180Y2186279D01*
X2334818Y2194306D01*
X2338933Y2203246D01*
X2341473Y2212695D01*
X2342337Y2222500D01*
X2341473Y2232304D01*
X2338933Y2241753D01*
X2334818Y2250694D01*
X2329180Y2258720D01*
X2322220Y2265680D01*
X2314194Y2271318D01*
X2305253Y2275433D01*
X2295804Y2277973D01*
X2286000Y2278837D01*
X2276195Y2277973D01*
X2266746Y2275433D01*
X2257806Y2271318D01*
X2249779Y2265680D01*
X2248204Y2264105D01*
X2244902Y2261870D01*
X2240991Y2261108D01*
X2093163Y2261108D01*
X2089454Y2261819D01*
X2086305Y2263800D01*
X2084070Y2266797D01*
X2080717Y2273554D01*
X2073300Y2284628D01*
X2064461Y2294686D01*
X2054453Y2303475D01*
X2043328Y2310892D01*
X2031390Y2316835D01*
X2018741Y2321102D01*
X2005634Y2323693D01*
X1991969Y2324608D01*
X1945030Y2324608D01*
X1931365Y2323693D01*
X1918258Y2321102D01*
X1905609Y2316835D01*
X1893671Y2310892D01*
X1882546Y2303475D01*
X1872538Y2294686D01*
X1863699Y2284628D01*
X1856282Y2273554D01*
X1850389Y2261565D01*
X1846072Y2248916D01*
X1843481Y2235809D01*
X1842617Y2222500D01*
X1843481Y2209190D01*
X1846072Y2196084D01*
X1850389Y2183434D01*
X1856282Y2171446D01*
X1863699Y2160371D01*
X1872538Y2150313D01*
X1882546Y2141524D01*
X1893671Y2134108D01*
X1905609Y2128164D01*
X1918258Y2123897D01*
X1931365Y2121306D01*
G37*

%LPD*%
G36*
X1620418Y4674108D02*
G01*
X1616506Y4674870D01*
X1613204Y4677105D01*
X1250137Y5040122D01*
X1243939Y5045252D01*
X1237234Y5048808D01*
X1230020Y5050993D01*
X1221994Y5051806D01*
X1083056Y5051806D01*
X1079296Y5052517D01*
X1076045Y5054650D01*
X1073810Y5057800D01*
X1067562Y5071668D01*
X1059688Y5084724D01*
X1050340Y5096662D01*
X1039571Y5107432D01*
X1027582Y5116779D01*
X1014577Y5124653D01*
X1000658Y5130901D01*
X997508Y5133136D01*
X995426Y5136388D01*
X994664Y5140198D01*
X995426Y5144008D01*
X997508Y5147208D01*
X1000658Y5149443D01*
X1014577Y5155742D01*
X1027582Y5163566D01*
X1039571Y5172964D01*
X1050340Y5183733D01*
X1059688Y5195671D01*
X1067562Y5208676D01*
X1073810Y5222595D01*
X1076045Y5225745D01*
X1079296Y5227878D01*
X1083106Y5228590D01*
X1202283Y5228590D01*
X1206195Y5227828D01*
X1209497Y5225592D01*
X1572564Y4862576D01*
X1578762Y4857445D01*
X1585468Y4853889D01*
X1592681Y4851704D01*
X1600708Y4850892D01*
X1864309Y4850892D01*
X1868068Y4850180D01*
X1871319Y4848047D01*
X1873554Y4844948D01*
X1874469Y4841189D01*
X1873910Y4837379D01*
X1871929Y4834026D01*
X1863699Y4824628D01*
X1856282Y4813554D01*
X1850389Y4801565D01*
X1846072Y4788916D01*
X1843481Y4775809D01*
X1842617Y4762500D01*
X1843481Y4749190D01*
X1846072Y4736084D01*
X1850389Y4723434D01*
X1856282Y4711446D01*
X1863699Y4700371D01*
X1871929Y4690973D01*
X1873910Y4687620D01*
X1874469Y4683810D01*
X1873554Y4680051D01*
X1871319Y4676952D01*
X1868068Y4674819D01*
X1864309Y4674108D01*
G37*

%LPD*%
G36*
X3754018Y4534408D02*
G01*
X3750106Y4535170D01*
X3746804Y4537405D01*
X3621735Y4662424D01*
X3615537Y4667554D01*
X3608832Y4671110D01*
X3601618Y4673295D01*
X3595471Y4673904D01*
X3591306Y4675276D01*
X3588054Y4678324D01*
X3586479Y4682439D01*
X3586734Y4686858D01*
X3588867Y4690719D01*
X3597300Y4700371D01*
X3604717Y4711446D01*
X3608070Y4718202D01*
X3610305Y4721199D01*
X3613454Y4723180D01*
X3617163Y4723892D01*
X3847592Y4723892D01*
X3855618Y4724704D01*
X3862832Y4726889D01*
X3869537Y4730445D01*
X3875735Y4735576D01*
X4045407Y4905197D01*
X4048506Y4907330D01*
X4052163Y4908143D01*
X4055922Y4907584D01*
X4062425Y4905349D01*
X4075785Y4902606D01*
X4089400Y4901692D01*
X4103014Y4902606D01*
X4116374Y4905349D01*
X4129278Y4909820D01*
X4141419Y4915966D01*
X4152646Y4923688D01*
X4162806Y4932832D01*
X4171594Y4943246D01*
X4178909Y4954727D01*
X4181043Y4959299D01*
X4183278Y4962398D01*
X4186478Y4964480D01*
X4190237Y4965192D01*
X4758232Y4965192D01*
X4762398Y4964277D01*
X4765852Y4961788D01*
X4768189Y4957267D01*
X4774438Y4943398D01*
X4782312Y4930394D01*
X4791659Y4918405D01*
X4802428Y4907686D01*
X4814366Y4898288D01*
X4827371Y4890414D01*
X4841290Y4884166D01*
X4844491Y4881930D01*
X4846574Y4878679D01*
X4847285Y4874869D01*
X4846574Y4871110D01*
X4844491Y4867859D01*
X4841290Y4865624D01*
X4827371Y4859375D01*
X4814366Y4851501D01*
X4802428Y4842103D01*
X4791659Y4831384D01*
X4782312Y4819396D01*
X4774438Y4806391D01*
X4769002Y4794402D01*
X4766818Y4791252D01*
X4763566Y4789119D01*
X4759756Y4788408D01*
X4190390Y4788408D01*
X4186885Y4789068D01*
X4183786Y4790897D01*
X4181500Y4793691D01*
X4175455Y4804714D01*
X4167378Y4815687D01*
X4157878Y4825492D01*
X4147159Y4833975D01*
X4135424Y4840935D01*
X4122877Y4846218D01*
X4109720Y4849825D01*
X4096207Y4851654D01*
X4082592Y4851654D01*
X4069079Y4849825D01*
X4055922Y4846218D01*
X4043375Y4840935D01*
X4031640Y4833975D01*
X4020921Y4825492D01*
X4011422Y4815687D01*
X4003344Y4804714D01*
X3996791Y4792776D01*
X3991914Y4780026D01*
X3988714Y4766767D01*
X3987393Y4753203D01*
X3987850Y4739589D01*
X3990086Y4726127D01*
X3994150Y4713122D01*
X3999890Y4700727D01*
X4007205Y4689246D01*
X4015994Y4678832D01*
X4026154Y4669688D01*
X4037380Y4661966D01*
X4049522Y4655820D01*
X4062425Y4651349D01*
X4075785Y4648606D01*
X4089400Y4647692D01*
X4103014Y4648606D01*
X4116374Y4651349D01*
X4129278Y4655820D01*
X4141419Y4661966D01*
X4152646Y4669688D01*
X4162806Y4678832D01*
X4171594Y4689246D01*
X4178909Y4700727D01*
X4181043Y4705299D01*
X4183278Y4708398D01*
X4186478Y4710480D01*
X4190237Y4711192D01*
X4758232Y4711192D01*
X4762398Y4710277D01*
X4765852Y4707788D01*
X4768189Y4703267D01*
X4774438Y4689398D01*
X4782312Y4676394D01*
X4791659Y4664405D01*
X4802428Y4653686D01*
X4814366Y4644288D01*
X4827371Y4636414D01*
X4841290Y4630166D01*
X4844491Y4627930D01*
X4846574Y4624679D01*
X4847285Y4620869D01*
X4846574Y4617110D01*
X4844491Y4613859D01*
X4841290Y4611624D01*
X4827371Y4605375D01*
X4814366Y4597501D01*
X4802428Y4588103D01*
X4791659Y4577384D01*
X4782312Y4565396D01*
X4774438Y4552391D01*
X4769002Y4540402D01*
X4766818Y4537252D01*
X4763566Y4535119D01*
X4759756Y4534408D01*
X4190390Y4534408D01*
X4186885Y4535068D01*
X4183786Y4536897D01*
X4181500Y4539691D01*
X4175455Y4550714D01*
X4167378Y4561687D01*
X4157878Y4571492D01*
X4147159Y4579975D01*
X4135424Y4586935D01*
X4122877Y4592218D01*
X4109720Y4595825D01*
X4096207Y4597654D01*
X4082592Y4597654D01*
X4069079Y4595825D01*
X4055922Y4592218D01*
X4043375Y4586935D01*
X4031640Y4579975D01*
X4020921Y4571492D01*
X4011422Y4561687D01*
X4003344Y4550714D01*
X3997299Y4539691D01*
X3995013Y4536897D01*
X3991914Y4535068D01*
X3988409Y4534408D01*
G37*

%LPD*%
G36*
X1620418Y4420108D02*
G01*
X1616506Y4420870D01*
X1613204Y4423105D01*
X1250137Y4786122D01*
X1243939Y4791252D01*
X1237234Y4794808D01*
X1230020Y4796993D01*
X1221994Y4797806D01*
X1083056Y4797806D01*
X1079296Y4798517D01*
X1076045Y4800650D01*
X1073810Y4803800D01*
X1067562Y4817668D01*
X1059688Y4830724D01*
X1050340Y4842662D01*
X1039571Y4853432D01*
X1027582Y4862779D01*
X1014577Y4870653D01*
X1000658Y4876901D01*
X997508Y4879136D01*
X995426Y4882388D01*
X994664Y4886198D01*
X995426Y4890008D01*
X997508Y4893208D01*
X1000658Y4895443D01*
X1014577Y4901742D01*
X1027582Y4909566D01*
X1039571Y4918964D01*
X1050340Y4929733D01*
X1059688Y4941671D01*
X1067562Y4954676D01*
X1073810Y4968595D01*
X1076045Y4971745D01*
X1079296Y4973878D01*
X1083106Y4974590D01*
X1202283Y4974590D01*
X1206195Y4973828D01*
X1209497Y4971592D01*
X1572564Y4608576D01*
X1578762Y4603445D01*
X1585468Y4599889D01*
X1592681Y4597704D01*
X1600708Y4596892D01*
X1864309Y4596892D01*
X1868068Y4596180D01*
X1871319Y4594047D01*
X1873554Y4590948D01*
X1874469Y4587189D01*
X1873910Y4583379D01*
X1871929Y4580026D01*
X1863699Y4570628D01*
X1856282Y4559554D01*
X1850389Y4547565D01*
X1846072Y4534916D01*
X1843481Y4521809D01*
X1842617Y4508500D01*
X1843481Y4495190D01*
X1846072Y4482084D01*
X1850389Y4469434D01*
X1856282Y4457446D01*
X1863699Y4446371D01*
X1871929Y4436973D01*
X1873910Y4433620D01*
X1874469Y4429810D01*
X1873554Y4426051D01*
X1871319Y4422952D01*
X1868068Y4420819D01*
X1864309Y4420108D01*
G37*

%LPD*%
G36*
X3754018Y4280408D02*
G01*
X3750106Y4281170D01*
X3746804Y4283405D01*
X3621735Y4408424D01*
X3615537Y4413554D01*
X3608832Y4417110D01*
X3601618Y4419295D01*
X3595471Y4419904D01*
X3591306Y4421276D01*
X3588054Y4424324D01*
X3586479Y4428439D01*
X3586734Y4432858D01*
X3588867Y4436719D01*
X3597300Y4446371D01*
X3604717Y4457446D01*
X3610610Y4469434D01*
X3614928Y4482084D01*
X3617518Y4495190D01*
X3618382Y4508500D01*
X3617518Y4521809D01*
X3615182Y4533493D01*
X3615283Y4537760D01*
X3617112Y4541672D01*
X3620363Y4544415D01*
X3624478Y4545634D01*
X3628745Y4544974D01*
X3632352Y4542637D01*
X3706164Y4468876D01*
X3712362Y4463745D01*
X3719068Y4460189D01*
X3726281Y4458004D01*
X3734308Y4457192D01*
X3988562Y4457192D01*
X3992321Y4456480D01*
X3995521Y4454398D01*
X3997756Y4451299D01*
X3999890Y4446727D01*
X4007205Y4435246D01*
X4015994Y4424832D01*
X4026154Y4415688D01*
X4037380Y4407966D01*
X4049522Y4401820D01*
X4062425Y4397349D01*
X4075785Y4394606D01*
X4089400Y4393692D01*
X4103014Y4394606D01*
X4116374Y4397349D01*
X4129278Y4401820D01*
X4141419Y4407966D01*
X4152646Y4415688D01*
X4162806Y4424832D01*
X4171594Y4435246D01*
X4178909Y4446727D01*
X4181043Y4451299D01*
X4183278Y4454398D01*
X4186478Y4456480D01*
X4190237Y4457192D01*
X4758232Y4457192D01*
X4762398Y4456277D01*
X4765852Y4453788D01*
X4768189Y4449267D01*
X4774438Y4435398D01*
X4782312Y4422394D01*
X4791659Y4410405D01*
X4802428Y4399686D01*
X4814366Y4390288D01*
X4827371Y4382414D01*
X4841290Y4376166D01*
X4844491Y4373930D01*
X4846574Y4370679D01*
X4847285Y4366869D01*
X4846574Y4363110D01*
X4844491Y4359859D01*
X4841290Y4357624D01*
X4827371Y4351375D01*
X4814366Y4343501D01*
X4802428Y4334103D01*
X4791659Y4323384D01*
X4782312Y4311396D01*
X4774438Y4298391D01*
X4769002Y4286402D01*
X4766818Y4283252D01*
X4763566Y4281119D01*
X4759756Y4280408D01*
X4190390Y4280408D01*
X4186885Y4281068D01*
X4183786Y4282897D01*
X4181500Y4285691D01*
X4175455Y4296714D01*
X4167378Y4307687D01*
X4157878Y4317492D01*
X4147159Y4325975D01*
X4135424Y4332935D01*
X4122877Y4338218D01*
X4109720Y4341825D01*
X4096207Y4343654D01*
X4082592Y4343654D01*
X4069079Y4341825D01*
X4055922Y4338218D01*
X4043375Y4332935D01*
X4031640Y4325975D01*
X4020921Y4317492D01*
X4011422Y4307687D01*
X4003344Y4296714D01*
X3997299Y4285691D01*
X3995013Y4282897D01*
X3991914Y4281068D01*
X3988409Y4280408D01*
G37*

%LPD*%
G36*
X1620418Y4166108D02*
G01*
X1616506Y4166870D01*
X1613204Y4169105D01*
X1250137Y4532122D01*
X1243939Y4537252D01*
X1237234Y4540808D01*
X1230020Y4542993D01*
X1221994Y4543806D01*
X1083056Y4543806D01*
X1079296Y4544517D01*
X1076045Y4546650D01*
X1073810Y4549800D01*
X1067562Y4563668D01*
X1059688Y4576724D01*
X1050340Y4588662D01*
X1039571Y4599432D01*
X1027582Y4608779D01*
X1014577Y4616653D01*
X1000658Y4622901D01*
X997508Y4625136D01*
X995426Y4628388D01*
X994664Y4632198D01*
X995426Y4636008D01*
X997508Y4639208D01*
X1000658Y4641443D01*
X1014577Y4647742D01*
X1027582Y4655566D01*
X1039571Y4664964D01*
X1050340Y4675733D01*
X1059688Y4687671D01*
X1067562Y4700676D01*
X1073810Y4714595D01*
X1076045Y4717745D01*
X1079296Y4719878D01*
X1083106Y4720590D01*
X1202283Y4720590D01*
X1206195Y4719828D01*
X1209497Y4717592D01*
X1572564Y4354576D01*
X1578762Y4349445D01*
X1585468Y4345889D01*
X1592681Y4343704D01*
X1600708Y4342892D01*
X1864309Y4342892D01*
X1868068Y4342180D01*
X1871319Y4340047D01*
X1873554Y4336948D01*
X1874469Y4333189D01*
X1873910Y4329379D01*
X1871929Y4326026D01*
X1863699Y4316628D01*
X1856282Y4305554D01*
X1850389Y4293565D01*
X1846072Y4280916D01*
X1843481Y4267809D01*
X1842617Y4254500D01*
X1843481Y4241190D01*
X1846072Y4228084D01*
X1850389Y4215434D01*
X1856282Y4203446D01*
X1863699Y4192371D01*
X1871929Y4182973D01*
X1873910Y4179620D01*
X1874469Y4175810D01*
X1873554Y4172051D01*
X1871319Y4168952D01*
X1868068Y4166819D01*
X1864309Y4166108D01*
G37*

%LPD*%
G36*
X3754018Y4026408D02*
G01*
X3750106Y4027170D01*
X3746804Y4029405D01*
X3621735Y4154424D01*
X3615537Y4159554D01*
X3608832Y4163110D01*
X3601618Y4165295D01*
X3595471Y4165904D01*
X3591306Y4167276D01*
X3588054Y4170324D01*
X3586479Y4174439D01*
X3586734Y4178858D01*
X3588867Y4182719D01*
X3597300Y4192371D01*
X3604717Y4203446D01*
X3610610Y4215434D01*
X3614928Y4228084D01*
X3617518Y4241190D01*
X3618382Y4254500D01*
X3617518Y4267809D01*
X3615182Y4279493D01*
X3615283Y4283760D01*
X3617112Y4287672D01*
X3620363Y4290415D01*
X3624478Y4291634D01*
X3628745Y4290974D01*
X3632352Y4288637D01*
X3706164Y4214876D01*
X3712362Y4209745D01*
X3719068Y4206189D01*
X3726281Y4204004D01*
X3734308Y4203192D01*
X3988562Y4203192D01*
X3992321Y4202480D01*
X3995521Y4200398D01*
X3997756Y4197299D01*
X3999890Y4192727D01*
X4007205Y4181246D01*
X4015994Y4170832D01*
X4026154Y4161688D01*
X4037380Y4153966D01*
X4049522Y4147820D01*
X4062425Y4143349D01*
X4075785Y4140606D01*
X4089400Y4139692D01*
X4103014Y4140606D01*
X4116374Y4143349D01*
X4129278Y4147820D01*
X4141419Y4153966D01*
X4152646Y4161688D01*
X4162806Y4170832D01*
X4171594Y4181246D01*
X4178909Y4192727D01*
X4181043Y4197299D01*
X4183278Y4200398D01*
X4186478Y4202480D01*
X4190237Y4203192D01*
X4758232Y4203192D01*
X4762398Y4202277D01*
X4765852Y4199788D01*
X4768189Y4195267D01*
X4774438Y4181398D01*
X4782312Y4168394D01*
X4791659Y4156405D01*
X4802428Y4145686D01*
X4814366Y4136288D01*
X4827371Y4128414D01*
X4841290Y4122165D01*
X4844491Y4119930D01*
X4846574Y4116679D01*
X4847285Y4112869D01*
X4846574Y4109110D01*
X4844491Y4105859D01*
X4841290Y4103624D01*
X4827371Y4097375D01*
X4814366Y4089501D01*
X4802428Y4080103D01*
X4791659Y4069384D01*
X4782312Y4057396D01*
X4774438Y4044391D01*
X4769002Y4032402D01*
X4766818Y4029252D01*
X4763566Y4027119D01*
X4759756Y4026408D01*
X4190390Y4026408D01*
X4186885Y4027068D01*
X4183786Y4028897D01*
X4181500Y4031691D01*
X4175455Y4042714D01*
X4167378Y4053687D01*
X4157878Y4063492D01*
X4147159Y4071975D01*
X4135424Y4078935D01*
X4122877Y4084218D01*
X4109720Y4087825D01*
X4096207Y4089654D01*
X4082592Y4089654D01*
X4069079Y4087825D01*
X4055922Y4084218D01*
X4043375Y4078935D01*
X4031640Y4071975D01*
X4020921Y4063492D01*
X4011422Y4053687D01*
X4003344Y4042714D01*
X3997299Y4031691D01*
X3995013Y4028897D01*
X3991914Y4027068D01*
X3988409Y4026408D01*
G37*

%LPD*%
G36*
X3754018Y3772408D02*
G01*
X3750106Y3773170D01*
X3746804Y3775405D01*
X3621735Y3900424D01*
X3615537Y3905554D01*
X3608832Y3909110D01*
X3601618Y3911295D01*
X3595115Y3911955D01*
X3590950Y3913327D01*
X3587699Y3916375D01*
X3586073Y3920490D01*
X3586378Y3924909D01*
X3588512Y3928770D01*
X3597554Y3939082D01*
X3604869Y3950055D01*
X3610711Y3961892D01*
X3614928Y3974388D01*
X3617518Y3987342D01*
X3618382Y4000500D01*
X3617518Y4013657D01*
X3615182Y4025493D01*
X3615232Y4029811D01*
X3617061Y4033672D01*
X3620363Y4036466D01*
X3624478Y4037634D01*
X3628694Y4037025D01*
X3632301Y4034688D01*
X3706164Y3960876D01*
X3712362Y3955745D01*
X3719068Y3952189D01*
X3726281Y3950004D01*
X3734308Y3949192D01*
X3988562Y3949192D01*
X3992321Y3948480D01*
X3995521Y3946398D01*
X3997756Y3943299D01*
X3999890Y3938727D01*
X4007205Y3927246D01*
X4015994Y3916832D01*
X4026154Y3907688D01*
X4037380Y3899966D01*
X4049522Y3893820D01*
X4062425Y3889349D01*
X4075785Y3886606D01*
X4089400Y3885692D01*
X4103014Y3886606D01*
X4116374Y3889349D01*
X4129278Y3893820D01*
X4141419Y3899966D01*
X4152646Y3907688D01*
X4162806Y3916832D01*
X4171594Y3927246D01*
X4178909Y3938727D01*
X4181043Y3943299D01*
X4183278Y3946398D01*
X4186478Y3948480D01*
X4190237Y3949192D01*
X4758232Y3949192D01*
X4762398Y3948277D01*
X4765852Y3945788D01*
X4768189Y3941267D01*
X4774438Y3927398D01*
X4782312Y3914394D01*
X4791659Y3902405D01*
X4802428Y3891686D01*
X4814366Y3882288D01*
X4827371Y3874414D01*
X4841290Y3868165D01*
X4844491Y3865930D01*
X4846574Y3862679D01*
X4847285Y3858869D01*
X4846574Y3855110D01*
X4844491Y3851859D01*
X4841290Y3849624D01*
X4827371Y3843375D01*
X4814366Y3835501D01*
X4802428Y3826103D01*
X4791659Y3815384D01*
X4782312Y3803396D01*
X4774438Y3790391D01*
X4769002Y3778402D01*
X4766818Y3775252D01*
X4763566Y3773119D01*
X4759756Y3772408D01*
X4190390Y3772408D01*
X4186885Y3773068D01*
X4183786Y3774897D01*
X4181500Y3777691D01*
X4175455Y3788714D01*
X4167378Y3799687D01*
X4157878Y3809492D01*
X4147159Y3817975D01*
X4135424Y3824935D01*
X4122877Y3830218D01*
X4109720Y3833825D01*
X4096207Y3835654D01*
X4082592Y3835654D01*
X4069079Y3833825D01*
X4055922Y3830218D01*
X4043375Y3824935D01*
X4031640Y3817975D01*
X4020921Y3809492D01*
X4011422Y3799687D01*
X4003344Y3788714D01*
X3997299Y3777691D01*
X3995013Y3774897D01*
X3991914Y3773068D01*
X3988409Y3772408D01*
G37*

%LPD*%
G36*
X1620418Y3658108D02*
G01*
X1616506Y3658870D01*
X1613204Y3661105D01*
X1250137Y4024122D01*
X1243939Y4029252D01*
X1237234Y4032808D01*
X1230020Y4034993D01*
X1221994Y4035806D01*
X1083056Y4035806D01*
X1079296Y4036517D01*
X1076045Y4038650D01*
X1073810Y4041800D01*
X1067562Y4055668D01*
X1059688Y4068724D01*
X1050340Y4080662D01*
X1039571Y4091432D01*
X1027582Y4100779D01*
X1014577Y4108653D01*
X1000658Y4114901D01*
X997508Y4117136D01*
X995426Y4120387D01*
X994664Y4124198D01*
X995426Y4128008D01*
X997508Y4131208D01*
X1000658Y4133443D01*
X1014577Y4139742D01*
X1027582Y4147565D01*
X1039571Y4156964D01*
X1050340Y4167733D01*
X1059688Y4179671D01*
X1067562Y4192676D01*
X1073810Y4206595D01*
X1076045Y4209745D01*
X1079296Y4211878D01*
X1083106Y4212590D01*
X1202283Y4212590D01*
X1206195Y4211828D01*
X1209497Y4209592D01*
X1572564Y3846576D01*
X1578762Y3841445D01*
X1585468Y3837889D01*
X1592681Y3835704D01*
X1600708Y3834892D01*
X1864309Y3834892D01*
X1868068Y3834180D01*
X1871319Y3832047D01*
X1873554Y3828948D01*
X1874469Y3825189D01*
X1873910Y3821379D01*
X1871929Y3818026D01*
X1863699Y3808628D01*
X1856282Y3797554D01*
X1852930Y3790797D01*
X1850694Y3787800D01*
X1847545Y3785819D01*
X1843836Y3785108D01*
X1823008Y3785108D01*
X1819097Y3785870D01*
X1815795Y3788105D01*
X1814220Y3789679D01*
X1806193Y3795318D01*
X1797253Y3799433D01*
X1787804Y3801973D01*
X1778000Y3802837D01*
X1768195Y3801973D01*
X1758746Y3799433D01*
X1749806Y3795318D01*
X1741779Y3789679D01*
X1734820Y3782720D01*
X1729181Y3774694D01*
X1725066Y3765753D01*
X1722526Y3756304D01*
X1721662Y3746500D01*
X1722526Y3736695D01*
X1725066Y3727246D01*
X1729181Y3718306D01*
X1734820Y3710279D01*
X1741779Y3703320D01*
X1749806Y3697681D01*
X1758746Y3693566D01*
X1768195Y3691026D01*
X1778000Y3690162D01*
X1787804Y3691026D01*
X1797253Y3693566D01*
X1806193Y3697681D01*
X1814220Y3703320D01*
X1815795Y3704894D01*
X1819097Y3707129D01*
X1823008Y3707892D01*
X1843836Y3707892D01*
X1847545Y3707180D01*
X1850694Y3705199D01*
X1852930Y3702202D01*
X1856282Y3695446D01*
X1863699Y3684371D01*
X1871929Y3674973D01*
X1873910Y3671620D01*
X1874469Y3667810D01*
X1873554Y3664051D01*
X1871319Y3660952D01*
X1868068Y3658819D01*
X1864309Y3658108D01*
G37*

%LPD*%
G36*
X1620418Y3404108D02*
G01*
X1616506Y3404870D01*
X1613204Y3407105D01*
X1250137Y3770122D01*
X1243939Y3775252D01*
X1237234Y3778808D01*
X1230020Y3780993D01*
X1221994Y3781806D01*
X1083056Y3781806D01*
X1079296Y3782517D01*
X1076045Y3784650D01*
X1073810Y3787800D01*
X1067562Y3801668D01*
X1059688Y3814724D01*
X1050340Y3826662D01*
X1039571Y3837432D01*
X1027582Y3846779D01*
X1014577Y3854653D01*
X1000658Y3860901D01*
X997508Y3863136D01*
X995426Y3866387D01*
X994664Y3870198D01*
X995426Y3874008D01*
X997508Y3877208D01*
X1000658Y3879443D01*
X1014577Y3885742D01*
X1027582Y3893565D01*
X1039571Y3902964D01*
X1050340Y3913733D01*
X1059688Y3925671D01*
X1067562Y3938676D01*
X1073810Y3952595D01*
X1076045Y3955745D01*
X1079296Y3957878D01*
X1083106Y3958590D01*
X1202283Y3958590D01*
X1206195Y3957828D01*
X1209497Y3955592D01*
X1572564Y3592576D01*
X1578762Y3587445D01*
X1585468Y3583889D01*
X1592681Y3581704D01*
X1600708Y3580892D01*
X1864309Y3580892D01*
X1868068Y3580180D01*
X1871319Y3578047D01*
X1873554Y3574948D01*
X1874469Y3571189D01*
X1873910Y3567379D01*
X1871929Y3564026D01*
X1863699Y3554628D01*
X1856282Y3543554D01*
X1850389Y3531565D01*
X1846072Y3518915D01*
X1843481Y3505809D01*
X1842617Y3492500D01*
X1843481Y3479190D01*
X1846072Y3466084D01*
X1850389Y3453434D01*
X1856282Y3441446D01*
X1863699Y3430371D01*
X1871929Y3420973D01*
X1873910Y3417620D01*
X1874469Y3413810D01*
X1873554Y3410051D01*
X1871319Y3406952D01*
X1868068Y3404819D01*
X1864309Y3404108D01*
G37*

%LPD*%
G36*
X1620418Y3150108D02*
G01*
X1616506Y3150870D01*
X1613204Y3153105D01*
X1250137Y3516122D01*
X1243939Y3521252D01*
X1237234Y3524808D01*
X1230020Y3526993D01*
X1221994Y3527806D01*
X1083056Y3527806D01*
X1079296Y3528517D01*
X1076045Y3530650D01*
X1073810Y3533800D01*
X1067562Y3547668D01*
X1059688Y3560724D01*
X1050340Y3572662D01*
X1039571Y3583432D01*
X1027582Y3592779D01*
X1014577Y3600653D01*
X1000658Y3606901D01*
X997508Y3609136D01*
X995426Y3612387D01*
X994664Y3616198D01*
X995426Y3620008D01*
X997508Y3623208D01*
X1000658Y3625443D01*
X1014577Y3631742D01*
X1027582Y3639565D01*
X1039571Y3648964D01*
X1050340Y3659733D01*
X1059688Y3671671D01*
X1067562Y3684676D01*
X1073810Y3698595D01*
X1076045Y3701745D01*
X1079296Y3703878D01*
X1083106Y3704590D01*
X1202283Y3704590D01*
X1206195Y3703828D01*
X1209497Y3701592D01*
X1572564Y3338576D01*
X1578762Y3333445D01*
X1585468Y3329889D01*
X1592681Y3327704D01*
X1600708Y3326892D01*
X1864309Y3326892D01*
X1868068Y3326180D01*
X1871319Y3324047D01*
X1873554Y3320948D01*
X1874469Y3317189D01*
X1873910Y3313379D01*
X1871929Y3310026D01*
X1863699Y3300628D01*
X1856282Y3289554D01*
X1852930Y3282797D01*
X1850694Y3279800D01*
X1847545Y3277819D01*
X1843836Y3277108D01*
X1696008Y3277108D01*
X1692097Y3277870D01*
X1688795Y3280105D01*
X1687220Y3281679D01*
X1679193Y3287318D01*
X1670253Y3291433D01*
X1660804Y3293973D01*
X1651000Y3294837D01*
X1641195Y3293973D01*
X1631746Y3291433D01*
X1622806Y3287318D01*
X1614779Y3281679D01*
X1607820Y3274720D01*
X1602181Y3266694D01*
X1598066Y3257753D01*
X1595526Y3248304D01*
X1594662Y3238500D01*
X1595526Y3228695D01*
X1598066Y3219246D01*
X1602181Y3210306D01*
X1607820Y3202279D01*
X1614779Y3195320D01*
X1622806Y3189681D01*
X1631746Y3185566D01*
X1641195Y3183026D01*
X1651000Y3182162D01*
X1660804Y3183026D01*
X1670253Y3185566D01*
X1679193Y3189681D01*
X1687220Y3195320D01*
X1688795Y3196894D01*
X1692097Y3199130D01*
X1696008Y3199892D01*
X1843836Y3199892D01*
X1847545Y3199180D01*
X1850694Y3197199D01*
X1852930Y3194202D01*
X1856282Y3187446D01*
X1863699Y3176371D01*
X1871929Y3166973D01*
X1873910Y3163620D01*
X1874469Y3159810D01*
X1873554Y3156051D01*
X1871319Y3152952D01*
X1868068Y3150819D01*
X1864309Y3150108D01*
G37*

%LPD*%
D10*
X3187700Y4508500D02*
G01*
X3492500Y4508500D01*
X4089400Y5257800D02*
G01*
X3771900Y5257800D01*
X3657600Y5143500D01*
X3187700Y5143500D01*
X4089400Y5003800D02*
G01*
X3848100Y4762500D01*
X3492500Y4762500D01*
X4089400Y4495800D02*
G01*
X3733800Y4495800D01*
X3594100Y4635500D01*
X3022600Y4635500D01*
X2387600Y5270500D01*
X1968500Y5270500D01*
X4089400Y4241800D02*
G01*
X3733800Y4241800D01*
X3594100Y4381500D01*
X3022600Y4381500D01*
X2387600Y5016500D01*
X1968500Y5016500D01*
X4089400Y3987800D02*
G01*
X3733800Y3987800D01*
X3594100Y4127500D01*
X3022600Y4127500D01*
X2387600Y4762500D01*
X1968500Y4762500D01*
X4089400Y3733800D02*
G01*
X3733800Y3733800D01*
X3594100Y3873500D01*
X3022600Y3873500D01*
X2387600Y4508500D01*
X1968500Y4508500D01*
X3187700Y1968500D02*
G01*
X3492500Y1968500D01*
X3048000Y2222500D02*
G01*
X3492500Y2222500D01*
X956106Y1342897D02*
G01*
X3048000Y1342897D01*
X2286000Y2222500D02*
G01*
X1968500Y2222500D01*
X956055Y834897D02*
G01*
X2286000Y834897D01*
X2159000Y2476500D02*
G01*
X1968500Y2476500D01*
X956055Y1088897D02*
G01*
X2159000Y1088897D01*
X1397000Y2730500D02*
G01*
X1968500Y2730500D01*
X1524000Y2984500D02*
G01*
X1968500Y2984500D01*
X956055Y2104897D02*
G01*
X1524000Y2104897D01*
X1651000Y3238500D02*
G01*
X1968500Y3238500D01*
X1778000Y3746500D02*
G01*
X1968500Y3746500D01*
X956055Y1850897D02*
G01*
X1778000Y1850897D01*
X956055Y5267197D02*
G01*
X1222502Y5267197D01*
X1600200Y4889500D01*
X2374900Y4889500D01*
X3009900Y4254500D01*
X3492500Y4254500D01*
X956055Y5013197D02*
G01*
X1222502Y5013197D01*
X1600200Y4635500D01*
X2374900Y4635500D01*
X3009900Y4000500D01*
X3492500Y4000500D01*
X956055Y4759197D02*
G01*
X1222502Y4759197D01*
X1600200Y4381500D01*
X2374900Y4381500D01*
X3009900Y3746500D01*
X3492500Y3746500D01*
X956055Y4505197D02*
G01*
X1222502Y4505197D01*
X1600200Y4127500D01*
X2374900Y4127500D01*
X3009900Y3492500D01*
X3492500Y3492500D01*
X956055Y4251197D02*
G01*
X1222502Y4251197D01*
X1600200Y3873500D01*
X2374900Y3873500D01*
X3009900Y3238500D01*
X3492500Y3238500D01*
X956055Y3997197D02*
G01*
X1222502Y3997197D01*
X1600200Y3619500D01*
X2374900Y3619500D01*
X3009900Y2984500D01*
X3492500Y2984500D01*
X956055Y3743197D02*
G01*
X1222502Y3743197D01*
X1600200Y3365500D01*
X2374900Y3365500D01*
X3009900Y2730500D01*
X3492500Y2730500D01*
X956055Y3489197D02*
G01*
X1222502Y3489197D01*
X1600200Y3111500D01*
X2374900Y3111500D01*
X3009900Y2476500D01*
X3492500Y2476500D01*
X5372100Y1532917D02*
G01*
X5377103Y1527906D01*
X5575300Y1527906D01*
X5372100Y1688231D02*
G01*
X5372100Y1841500D01*
D11*
X5105400Y762000D02*
G01*
X5588000Y762000D01*
D10*
X5105400Y1841500D02*
G01*
X5372100Y1841500D01*
X4885941Y3986019D02*
G01*
X4884160Y3987800D01*
X4089400Y3987800D01*
X4885941Y4240019D02*
G01*
X4884160Y4241800D01*
X4089400Y4241800D01*
X4885941Y4494019D02*
G01*
X4884160Y4495800D01*
X4089400Y4495800D01*
X4885941Y4748019D02*
G01*
X4884160Y4749800D01*
X4089400Y4749800D01*
X4885941Y5002019D02*
G01*
X4884160Y5003800D01*
X4089400Y5003800D01*
X4885941Y5256019D02*
G01*
X4884160Y5257800D01*
X4089400Y5257800D01*
D11*
X1968500Y1460500D02*
G01*
X3162300Y1460500D01*
X3352800Y1270000D01*
X5105400Y1270000D01*
D10*
X4885941Y3732019D02*
G01*
X4884160Y3733800D01*
X4089400Y3733800D01*
X956055Y580897D02*
G01*
X2358897Y580897D01*
X2616200Y838200D01*
X3187700Y838200D01*
X956055Y2358897D02*
G01*
X1396997Y2358897D01*
X956055Y1596897D02*
G01*
X1650997Y1596897D01*
X4885941Y3478019D02*
G01*
X4884160Y3479800D01*
X4089400Y3479800D01*
X1968500Y3492500D02*
G01*
X2387600Y3492500D01*
X3022600Y2857500D01*
X3721100Y2857500D01*
X3721100Y3479800D02*
G01*
X4089400Y3479800D01*
D11*
X5105400Y3225800D02*
G01*
X4838700Y3225800D01*
X4775200Y3289300D01*
X4533900Y3289300D01*
X4470400Y3225800D01*
X4089400Y3225800D01*
D12*
G01*
X5575300Y1697913D03*
G01*
X5575300Y1527911D03*
D13*
G01*
X5372100Y1692910D03*
G01*
X5372100Y1532915D03*
D14*
G01*
X1968500Y2222500D03*
G01*
X1968500Y1968500D03*
G01*
X1968500Y1714500D03*
G01*
X1968500Y1460500D03*
G01*
X1968500Y5016500D03*
G01*
X1968500Y4762500D03*
G01*
X1968500Y4508500D03*
G01*
X1968500Y4254500D03*
G01*
X1968500Y4000500D03*
G01*
X1968500Y3746500D03*
G01*
X1968500Y3492500D03*
G01*
X1968500Y2476500D03*
G01*
X1968500Y2730500D03*
G01*
X1968500Y2984500D03*
G01*
X1968500Y3238500D03*
G01*
X1968500Y5270500D03*
G01*
X3492500Y4508500D03*
D15*
G01*
X3492500Y3492500D03*
G01*
X3492500Y3238500D03*
G01*
X3492500Y2984500D03*
G01*
X3492500Y2730500D03*
G01*
X3492500Y2476500D03*
G01*
X3492500Y2222500D03*
G01*
X3492500Y1968500D03*
G01*
X3492500Y1714500D03*
D16*
G01*
X3492500Y1460500D03*
D14*
G01*
X3492500Y3746500D03*
G01*
X3492500Y4254500D03*
D15*
G01*
X3492500Y4000500D03*
D14*
G01*
X3492500Y4762500D03*
G01*
X3492500Y5270500D03*
G01*
X3492500Y5016500D03*
D17*
G01*
X4089400Y5511800D03*
D18*
G01*
X4089400Y5257800D03*
G01*
X4089400Y5003800D03*
G01*
X4089400Y4749800D03*
G01*
X4089400Y4495800D03*
G01*
X4089400Y4241800D03*
G01*
X4089400Y3987800D03*
G01*
X4089400Y3733800D03*
G01*
X4089400Y3479800D03*
G01*
X4089400Y3225800D03*
D19*
G01*
X5461000Y381000D03*
G01*
X381000Y381000D03*
G01*
X381000Y5461000D03*
G01*
X5461000Y5461000D03*
D20*
G01*
X4885893Y5255895D03*
G01*
X4885893Y5001895D03*
G01*
X4885893Y4747895D03*
G01*
X4885893Y4493895D03*
G01*
X4885893Y4239895D03*
G01*
X4885893Y3985895D03*
G01*
X4885893Y3731895D03*
G01*
X4885893Y3477895D03*
G01*
X956081Y3489197D03*
G01*
X956081Y3743197D03*
G01*
X956081Y3997197D03*
G01*
X956081Y4251197D03*
G01*
X956081Y4505197D03*
G01*
X956081Y4759197D03*
G01*
X956081Y5013197D03*
G01*
X956081Y5267197D03*
G01*
X956106Y2358897D03*
G01*
X956106Y2104897D03*
G01*
X956106Y1850897D03*
G01*
X956106Y1596897D03*
G01*
X956106Y1342897D03*
G01*
X956106Y1088897D03*
G01*
X956106Y834897D03*
G01*
X956106Y580897D03*
D21*
G01*
X5588000Y1016000D03*
G01*
X5334000Y1016000D03*
G01*
X5334000Y1270000D03*
G01*
X5588000Y1270000D03*
D22*
G01*
X5588000Y762000D03*
G01*
X5372100Y1841500D03*
G01*
X5105400Y1270000D03*
G01*
X5105400Y762000D03*
G01*
X5105400Y1841500D03*
G01*
X1778000Y1850897D03*
G01*
X1778000Y3746500D03*
G01*
X1651000Y1596897D03*
G01*
X1651000Y3238500D03*
G01*
X1524000Y2104897D03*
G01*
X1524000Y2984500D03*
G01*
X1397000Y2358897D03*
G01*
X1397000Y2730500D03*
G01*
X2159000Y1088897D03*
G01*
X2159000Y2476500D03*
G01*
X2286000Y834897D03*
G01*
X2286000Y2222500D03*
G01*
X3048000Y1342897D03*
G01*
X3048000Y2222500D03*
G01*
X3187700Y838200D03*
G01*
X3187700Y1968500D03*
G01*
X3187700Y5143500D03*
G01*
X3187700Y4508500D03*
G01*
X5105400Y3225800D03*
G01*
X3721100Y2857500D03*
G01*
X3721100Y3479800D03*
G01*
X4737100Y3860800D03*
G01*
X4737100Y4114800D03*
G01*
X4737100Y4368800D03*
G01*
X4737100Y4622800D03*
G01*
X4737100Y4876800D03*
G01*
X1104874Y5138293D03*
G01*
X1104874Y4884293D03*
G01*
X1104874Y4630293D03*
G01*
X1104874Y4376293D03*
G01*
X1104874Y4122293D03*
G01*
X1104874Y3868293D03*
G01*
X1104874Y3614293D03*
M02*
