M48
METRIC,LZ,000.000
;FILE_FORMAT=3:3
;TYPE=PLATED
;Layer: PTH_Through_Via
;EasyEDA v6.5.34, 2023-09-06 22:53:46
;8447068ee38c4666810ae06fb5c4ba43,5a6b42c53f6a479593ecc07194224c93,10
;Gerber Generator version 0.2
;Holesize 1 = 0.305 mm
T01C0.305
%
G05
G90
T01
X050800Y055880
X048260Y057277
X019685Y033401
X023368Y028575
X029210Y028575
X037084Y034925
X046990Y010160
X039370Y010160
X031750Y010160
X024130Y010160
X016510Y010160
X044450Y031750
X027686Y038481
X027686Y033655
X027686Y029845
X032766Y031115
X032766Y032385
X046957Y050800
X050800Y050800
X042418Y038481
X042418Y021590
X046990Y018551
X019685Y011430
X031496Y027305
X031496Y033655
X015875Y037846
X015875Y034925
X031496Y037846
X016699Y034925
X016764Y050800
X046990Y027305
X046990Y036195
X017780Y042037
X017780Y031115
X038354Y040259
X038354Y042037
X034290Y042037
X018542Y042799
X018542Y033655
X036797Y042799
X011938Y043434
X011938Y032385
X024097Y043434
X012700Y044069
X012700Y034925
X026637Y044069
X037719Y037084
X029464Y033655
X023241Y037084
X016699Y027305
X028194Y043434
X028194Y040259
X019177Y036449
X046990Y044069
X032766Y044069
X023368Y011430
X019304Y034544
X018669Y032512
M30
