G04 Layer: TopSilkscreenLayer*
G04 Panelize: , Column: 2, Row: 2, Board Size: 58.42mm x 58.42mm, Panelized Board Size: 118.84mm x 118.84mm*
G04 EasyEDA v6.5.34, 2023-09-06 22:53:46*
G04 8447068ee38c4666810ae06fb5c4ba43,5a6b42c53f6a479593ecc07194224c93,10*
G04 Gerber Generator version 0.2*
G04 Scale: 100 percent, Rotated: No, Reflected: No *
G04 Dimensions in millimeters *
G04 leading zeros omitted , absolute positions ,4 integer and 5 decimal *
%FSLAX45Y45*%
%MOMM*%

%ADD10C,0.1524*%
%ADD11C,0.1520*%
%ADD12C,0.2540*%
%ADD13C,0.1500*%
%ADD14C,0.2000*%
%ADD15C,0.3000*%
%ADD16C,0.6000*%
%ADD17C,0.0176*%

%LPD*%
D10*
X5036565Y5511037D02*
G01*
X5036565Y5438394D01*
X5031993Y5424678D01*
X5027422Y5420105D01*
X5018277Y5415534D01*
X5009388Y5415534D01*
X5000243Y5420105D01*
X4995672Y5424678D01*
X4991100Y5438394D01*
X4991100Y5447537D01*
X5066538Y5493004D02*
G01*
X5075681Y5497576D01*
X5089397Y5511037D01*
X5089397Y5415534D01*
X5045709Y5726937D02*
G01*
X5000243Y5726937D01*
X4995672Y5686044D01*
X5000243Y5690615D01*
X5013706Y5695187D01*
X5027422Y5695187D01*
X5041138Y5690615D01*
X5050281Y5681471D01*
X5054854Y5668010D01*
X5054854Y5658865D01*
X5050281Y5645150D01*
X5041138Y5636005D01*
X5027422Y5631434D01*
X5013706Y5631434D01*
X5000243Y5636005D01*
X4995672Y5640578D01*
X4991100Y5649721D01*
X5084825Y5726937D02*
G01*
X5121147Y5631434D01*
X5157470Y5726937D02*
G01*
X5121147Y5631434D01*
X774700Y5703315D02*
G01*
X774700Y5594350D01*
X774700Y5703315D02*
G01*
X821436Y5703315D01*
X836929Y5698236D01*
X842263Y5692902D01*
X847344Y5682487D01*
X847344Y5666994D01*
X842263Y5656579D01*
X836929Y5651500D01*
X821436Y5646165D01*
X774700Y5646165D01*
X881634Y5703315D02*
G01*
X881634Y5594350D01*
X881634Y5703315D02*
G01*
X928370Y5703315D01*
X944118Y5698236D01*
X949197Y5692902D01*
X954531Y5682487D01*
X954531Y5672073D01*
X949197Y5661660D01*
X944118Y5656579D01*
X928370Y5651500D01*
X881634Y5651500D01*
X918210Y5651500D02*
G01*
X954531Y5594350D01*
X1019810Y5703315D02*
G01*
X1009650Y5698236D01*
X999236Y5687821D01*
X993902Y5677407D01*
X988821Y5661660D01*
X988821Y5635752D01*
X993902Y5620257D01*
X999236Y5609844D01*
X1009650Y5599429D01*
X1019810Y5594350D01*
X1040637Y5594350D01*
X1051052Y5599429D01*
X1061465Y5609844D01*
X1066800Y5620257D01*
X1071879Y5635752D01*
X1071879Y5661660D01*
X1066800Y5677407D01*
X1061465Y5687821D01*
X1051052Y5698236D01*
X1040637Y5703315D01*
X1019810Y5703315D01*
X1142492Y5703315D02*
G01*
X1142492Y5594350D01*
X1106170Y5703315D02*
G01*
X1178813Y5703315D01*
X1244345Y5703315D02*
G01*
X1233931Y5698236D01*
X1223518Y5687821D01*
X1218437Y5677407D01*
X1213104Y5661660D01*
X1213104Y5635752D01*
X1218437Y5620257D01*
X1223518Y5609844D01*
X1233931Y5599429D01*
X1244345Y5594350D01*
X1265173Y5594350D01*
X1275587Y5599429D01*
X1286002Y5609844D01*
X1291081Y5620257D01*
X1296415Y5635752D01*
X1296415Y5661660D01*
X1291081Y5677407D01*
X1286002Y5687821D01*
X1275587Y5698236D01*
X1265173Y5703315D01*
X1244345Y5703315D01*
X1330705Y5703315D02*
G01*
X1330705Y5594350D01*
X1330705Y5703315D02*
G01*
X1403350Y5594350D01*
X1403350Y5703315D02*
G01*
X1403350Y5594350D01*
X1437639Y5703315D02*
G01*
X1437639Y5594350D01*
X1437639Y5703315D02*
G01*
X1505204Y5703315D01*
X1437639Y5651500D02*
G01*
X1479295Y5651500D01*
X1437639Y5594350D02*
G01*
X1505204Y5594350D01*
X1539494Y5703315D02*
G01*
X1539494Y5594350D01*
X1539494Y5703315D02*
G01*
X1581150Y5594350D01*
X1622552Y5703315D02*
G01*
X1581150Y5594350D01*
X1622552Y5703315D02*
G01*
X1622552Y5594350D01*
X1698497Y5703315D02*
G01*
X1656842Y5594350D01*
X1698497Y5703315D02*
G01*
X1739900Y5594350D01*
X1672589Y5630671D02*
G01*
X1724405Y5630671D01*
X1927097Y5687821D02*
G01*
X1916684Y5698236D01*
X1901189Y5703315D01*
X1880362Y5703315D01*
X1864613Y5698236D01*
X1854200Y5687821D01*
X1854200Y5677407D01*
X1859534Y5666994D01*
X1864613Y5661660D01*
X1875028Y5656579D01*
X1906270Y5646165D01*
X1916684Y5641086D01*
X1921763Y5635752D01*
X1927097Y5625337D01*
X1927097Y5609844D01*
X1916684Y5599429D01*
X1901189Y5594350D01*
X1880362Y5594350D01*
X1864613Y5599429D01*
X1854200Y5609844D01*
X1997709Y5703315D02*
G01*
X1997709Y5594350D01*
X1961388Y5703315D02*
G01*
X2034031Y5703315D01*
X2109977Y5703315D02*
G01*
X2068322Y5594350D01*
X2109977Y5703315D02*
G01*
X2151379Y5594350D01*
X2084070Y5630671D02*
G01*
X2135886Y5630671D01*
X2185670Y5703315D02*
G01*
X2185670Y5594350D01*
X2185670Y5703315D02*
G01*
X2227325Y5594350D01*
X2268981Y5703315D02*
G01*
X2227325Y5594350D01*
X2268981Y5703315D02*
G01*
X2268981Y5594350D01*
X2303272Y5703315D02*
G01*
X2303272Y5594350D01*
X2303272Y5703315D02*
G01*
X2350008Y5703315D01*
X2365502Y5698236D01*
X2370836Y5692902D01*
X2375915Y5682487D01*
X2375915Y5666994D01*
X2370836Y5656579D01*
X2365502Y5651500D01*
X2350008Y5646165D01*
X2303272Y5646165D01*
X811021Y5512815D02*
G01*
X811021Y5403850D01*
X774700Y5512815D02*
G01*
X847344Y5512815D01*
X918210Y5512815D02*
G01*
X918210Y5403850D01*
X881634Y5512815D02*
G01*
X954531Y5512815D01*
X1030223Y5512815D02*
G01*
X988821Y5403850D01*
X1030223Y5512815D02*
G01*
X1071879Y5403850D01*
X1004315Y5440171D02*
G01*
X1056386Y5440171D01*
X1106170Y5512815D02*
G01*
X1106170Y5403850D01*
X1106170Y5512815D02*
G01*
X1147826Y5403850D01*
X1189228Y5512815D02*
G01*
X1147826Y5403850D01*
X1189228Y5512815D02*
G01*
X1189228Y5403850D01*
X1381505Y5486907D02*
G01*
X1376426Y5497321D01*
X1366012Y5507736D01*
X1355597Y5512815D01*
X1334770Y5512815D01*
X1324355Y5507736D01*
X1313942Y5497321D01*
X1308862Y5486907D01*
X1303528Y5471160D01*
X1303528Y5445252D01*
X1308862Y5429757D01*
X1313942Y5419344D01*
X1324355Y5408929D01*
X1334770Y5403850D01*
X1355597Y5403850D01*
X1366012Y5408929D01*
X1376426Y5419344D01*
X1381505Y5429757D01*
X1415795Y5512815D02*
G01*
X1415795Y5403850D01*
X1415795Y5512815D02*
G01*
X1462531Y5512815D01*
X1478279Y5507736D01*
X1483360Y5502402D01*
X1488439Y5491987D01*
X1488439Y5476494D01*
X1483360Y5466079D01*
X1478279Y5461000D01*
X1462531Y5455665D01*
X1415795Y5455665D01*
X1522729Y5512815D02*
G01*
X1522729Y5434837D01*
X1528063Y5419344D01*
X1538478Y5408929D01*
X1553971Y5403850D01*
X1564386Y5403850D01*
X1579879Y5408929D01*
X1590294Y5419344D01*
X1595628Y5434837D01*
X1595628Y5512815D01*
X1787905Y5486907D02*
G01*
X1782571Y5497321D01*
X1772157Y5507736D01*
X1761744Y5512815D01*
X1741170Y5512815D01*
X1730755Y5507736D01*
X1720342Y5497321D01*
X1715007Y5486907D01*
X1709928Y5471160D01*
X1709928Y5445252D01*
X1715007Y5429757D01*
X1720342Y5419344D01*
X1730755Y5408929D01*
X1741170Y5403850D01*
X1761744Y5403850D01*
X1772157Y5408929D01*
X1782571Y5419344D01*
X1787905Y5429757D01*
X1822195Y5512815D02*
G01*
X1822195Y5403850D01*
X1822195Y5403850D02*
G01*
X1884426Y5403850D01*
X1949958Y5512815D02*
G01*
X1939543Y5507736D01*
X1929129Y5497321D01*
X1924050Y5486907D01*
X1918715Y5471160D01*
X1918715Y5445252D01*
X1924050Y5429757D01*
X1929129Y5419344D01*
X1939543Y5408929D01*
X1949958Y5403850D01*
X1970786Y5403850D01*
X1981200Y5408929D01*
X1991359Y5419344D01*
X1996693Y5429757D01*
X2001774Y5445252D01*
X2001774Y5471160D01*
X1996693Y5486907D01*
X1991359Y5497321D01*
X1981200Y5507736D01*
X1970786Y5512815D01*
X1949958Y5512815D01*
X2114041Y5486907D02*
G01*
X2108961Y5497321D01*
X2098547Y5507736D01*
X2088134Y5512815D01*
X2067306Y5512815D01*
X2056891Y5507736D01*
X2046477Y5497321D01*
X2041397Y5486907D01*
X2036063Y5471160D01*
X2036063Y5445252D01*
X2041397Y5429757D01*
X2046477Y5419344D01*
X2056891Y5408929D01*
X2067306Y5403850D01*
X2088134Y5403850D01*
X2098547Y5408929D01*
X2108961Y5419344D01*
X2114041Y5429757D01*
X2148331Y5512815D02*
G01*
X2148331Y5403850D01*
X2221229Y5512815D02*
G01*
X2148331Y5440171D01*
X2174240Y5466079D02*
G01*
X2221229Y5403850D01*
X774700Y5322315D02*
G01*
X774700Y5213350D01*
X774700Y5322315D02*
G01*
X821436Y5322315D01*
X836929Y5317236D01*
X842263Y5311902D01*
X847344Y5301487D01*
X847344Y5285994D01*
X842263Y5275579D01*
X836929Y5270500D01*
X821436Y5265165D01*
X774700Y5265165D01*
X923289Y5322315D02*
G01*
X881634Y5213350D01*
X923289Y5322315D02*
G01*
X964945Y5213350D01*
X897381Y5249671D02*
G01*
X949197Y5249671D01*
X999236Y5322315D02*
G01*
X999236Y5213350D01*
X999236Y5322315D02*
G01*
X1045971Y5322315D01*
X1061465Y5317236D01*
X1066800Y5311902D01*
X1071879Y5301487D01*
X1071879Y5291073D01*
X1066800Y5280660D01*
X1061465Y5275579D01*
X1045971Y5270500D01*
X999236Y5270500D01*
X1035557Y5270500D02*
G01*
X1071879Y5213350D01*
X1142492Y5322315D02*
G01*
X1142492Y5213350D01*
X1106170Y5322315D02*
G01*
X1178813Y5322315D01*
X1293113Y5322315D02*
G01*
X1293113Y5213350D01*
X1293113Y5322315D02*
G01*
X1366012Y5213350D01*
X1366012Y5322315D02*
G01*
X1366012Y5213350D01*
X1400302Y5322315D02*
G01*
X1400302Y5244337D01*
X1405381Y5228844D01*
X1415795Y5218429D01*
X1431289Y5213350D01*
X1441704Y5213350D01*
X1457452Y5218429D01*
X1467865Y5228844D01*
X1472945Y5244337D01*
X1472945Y5322315D01*
X1507236Y5322315D02*
G01*
X1507236Y5213350D01*
X1507236Y5322315D02*
G01*
X1548892Y5213350D01*
X1590294Y5322315D02*
G01*
X1548892Y5213350D01*
X1590294Y5322315D02*
G01*
X1590294Y5213350D01*
X1704594Y5301487D02*
G01*
X1715007Y5306821D01*
X1730755Y5322315D01*
X1730755Y5213350D01*
X1796034Y5322315D02*
G01*
X1780539Y5317236D01*
X1770126Y5301487D01*
X1765045Y5275579D01*
X1765045Y5260086D01*
X1770126Y5233923D01*
X1780539Y5218429D01*
X1796034Y5213350D01*
X1806447Y5213350D01*
X1822195Y5218429D01*
X1832610Y5233923D01*
X1837689Y5260086D01*
X1837689Y5275579D01*
X1832610Y5301487D01*
X1822195Y5317236D01*
X1806447Y5322315D01*
X1796034Y5322315D01*
X1944624Y5322315D02*
G01*
X1892807Y5213350D01*
X1871979Y5322315D02*
G01*
X1944624Y5322315D01*
X2046477Y5285994D02*
G01*
X2041397Y5270500D01*
X2030984Y5260086D01*
X2015490Y5254752D01*
X2010156Y5254752D01*
X1994661Y5260086D01*
X1984247Y5270500D01*
X1978913Y5285994D01*
X1978913Y5291073D01*
X1984247Y5306821D01*
X1994661Y5317236D01*
X2010156Y5322315D01*
X2015490Y5322315D01*
X2030984Y5317236D01*
X2041397Y5306821D01*
X2046477Y5285994D01*
X2046477Y5260086D01*
X2041397Y5233923D01*
X2030984Y5218429D01*
X2015490Y5213350D01*
X2005075Y5213350D01*
X1989327Y5218429D01*
X1984247Y5228844D01*
X2080768Y5260086D02*
G01*
X2174240Y5260086D01*
X2239772Y5322315D02*
G01*
X2224277Y5317236D01*
X2213863Y5301487D01*
X2208529Y5275579D01*
X2208529Y5260086D01*
X2213863Y5233923D01*
X2224277Y5218429D01*
X2239772Y5213350D01*
X2250186Y5213350D01*
X2265679Y5218429D01*
X2276093Y5233923D01*
X2281427Y5260086D01*
X2281427Y5275579D01*
X2276093Y5301487D01*
X2265679Y5317236D01*
X2250186Y5322315D01*
X2239772Y5322315D01*
X2315718Y5301487D02*
G01*
X2326131Y5306821D01*
X2341625Y5322315D01*
X2341625Y5213350D01*
X2407158Y5322315D02*
G01*
X2391409Y5317236D01*
X2381250Y5301487D01*
X2375915Y5275579D01*
X2375915Y5260086D01*
X2381250Y5233923D01*
X2391409Y5218429D01*
X2407158Y5213350D01*
X2417572Y5213350D01*
X2433065Y5218429D01*
X2443479Y5233923D01*
X2448559Y5260086D01*
X2448559Y5275579D01*
X2443479Y5301487D01*
X2433065Y5317236D01*
X2417572Y5322315D01*
X2407158Y5322315D01*
X2482850Y5301487D02*
G01*
X2493263Y5306821D01*
X2509011Y5322315D01*
X2509011Y5213350D01*
X2623311Y5322315D02*
G01*
X2664713Y5213350D01*
X2706370Y5322315D02*
G01*
X2664713Y5213350D01*
X2771902Y5322315D02*
G01*
X2756154Y5317236D01*
X2745740Y5301487D01*
X2740659Y5275579D01*
X2740659Y5260086D01*
X2745740Y5233923D01*
X2756154Y5218429D01*
X2771902Y5213350D01*
X2782315Y5213350D01*
X2797809Y5218429D01*
X2808224Y5233923D01*
X2813304Y5260086D01*
X2813304Y5275579D01*
X2808224Y5301487D01*
X2797809Y5317236D01*
X2782315Y5322315D01*
X2771902Y5322315D01*
X2852927Y5239257D02*
G01*
X2847593Y5233923D01*
X2852927Y5228844D01*
X2858008Y5233923D01*
X2852927Y5239257D01*
X2892297Y5301487D02*
G01*
X2902711Y5306821D01*
X2918459Y5322315D01*
X2918459Y5213350D01*
X2322322Y2452115D02*
G01*
X2322322Y2343150D01*
X2286000Y2452115D02*
G01*
X2358643Y2452115D01*
X2434590Y2452115D02*
G01*
X2392934Y2343150D01*
X2434590Y2452115D02*
G01*
X2476245Y2343150D01*
X2408681Y2379471D02*
G01*
X2460497Y2379471D01*
X1725421Y1944115D02*
G01*
X1725421Y1835150D01*
X1689100Y1944115D02*
G01*
X1761744Y1944115D01*
X1796034Y1944115D02*
G01*
X1796034Y1835150D01*
X1796034Y1944115D02*
G01*
X1842770Y1944115D01*
X1858518Y1939036D01*
X1863597Y1933702D01*
X1868931Y1923287D01*
X1868931Y1912873D01*
X1863597Y1902460D01*
X1858518Y1897379D01*
X1842770Y1892300D01*
X1796034Y1892300D02*
G01*
X1842770Y1892300D01*
X1858518Y1886965D01*
X1863597Y1881886D01*
X1868931Y1871471D01*
X1868931Y1855723D01*
X1863597Y1845310D01*
X1858518Y1840229D01*
X1842770Y1835150D01*
X1796034Y1835150D01*
X2398522Y1944115D02*
G01*
X2398522Y1835150D01*
X2362200Y1944115D02*
G01*
X2434843Y1944115D01*
X2547111Y1918207D02*
G01*
X2542031Y1928621D01*
X2531618Y1939036D01*
X2521204Y1944115D01*
X2500375Y1944115D01*
X2489961Y1939036D01*
X2479547Y1928621D01*
X2474468Y1918207D01*
X2469134Y1902460D01*
X2469134Y1876552D01*
X2474468Y1861057D01*
X2479547Y1850644D01*
X2489961Y1840229D01*
X2500375Y1835150D01*
X2521204Y1835150D01*
X2531618Y1840229D01*
X2542031Y1850644D01*
X2547111Y1861057D01*
X3274822Y1944115D02*
G01*
X3274822Y1835150D01*
X3238500Y1944115D02*
G01*
X3311143Y1944115D01*
X3345434Y1944115D02*
G01*
X3345434Y1835150D01*
X3345434Y1944115D02*
G01*
X3382009Y1944115D01*
X3397504Y1939036D01*
X3407918Y1928621D01*
X3412997Y1918207D01*
X3418331Y1902460D01*
X3418331Y1876552D01*
X3412997Y1861057D01*
X3407918Y1850644D01*
X3397504Y1840229D01*
X3382009Y1835150D01*
X3345434Y1835150D01*
X1344421Y1410715D02*
G01*
X1344421Y1301750D01*
X1308100Y1410715D02*
G01*
X1380744Y1410715D01*
X1456689Y1410715D02*
G01*
X1415034Y1301750D01*
X1456689Y1410715D02*
G01*
X1498345Y1301750D01*
X1430781Y1338071D02*
G01*
X1482597Y1338071D01*
X2106422Y1410715D02*
G01*
X2106422Y1301750D01*
X2070100Y1410715D02*
G01*
X2142743Y1410715D01*
X2177034Y1410715D02*
G01*
X2177034Y1301750D01*
X2177034Y1410715D02*
G01*
X2223770Y1410715D01*
X2239518Y1405636D01*
X2244597Y1400302D01*
X2249931Y1389887D01*
X2249931Y1379473D01*
X2244597Y1369060D01*
X2239518Y1363979D01*
X2223770Y1358900D01*
X2177034Y1358900D02*
G01*
X2223770Y1358900D01*
X2239518Y1353565D01*
X2244597Y1348486D01*
X2249931Y1338071D01*
X2249931Y1322323D01*
X2244597Y1311910D01*
X2239518Y1306829D01*
X2223770Y1301750D01*
X2177034Y1301750D01*
X2868422Y1410715D02*
G01*
X2868422Y1301750D01*
X2832100Y1410715D02*
G01*
X2904743Y1410715D01*
X3017011Y1384807D02*
G01*
X3011931Y1395221D01*
X3001518Y1405636D01*
X2991104Y1410715D01*
X2970275Y1410715D01*
X2959861Y1405636D01*
X2949447Y1395221D01*
X2944368Y1384807D01*
X2939034Y1369060D01*
X2939034Y1343152D01*
X2944368Y1327657D01*
X2949447Y1317244D01*
X2959861Y1306829D01*
X2970275Y1301750D01*
X2991104Y1301750D01*
X3001518Y1306829D01*
X3011931Y1317244D01*
X3017011Y1327657D01*
X3630422Y1410715D02*
G01*
X3630422Y1301750D01*
X3594100Y1410715D02*
G01*
X3666743Y1410715D01*
X3701034Y1410715D02*
G01*
X3701034Y1301750D01*
X3701034Y1410715D02*
G01*
X3737609Y1410715D01*
X3753104Y1405636D01*
X3763518Y1395221D01*
X3768597Y1384807D01*
X3773931Y1369060D01*
X3773931Y1343152D01*
X3768597Y1327657D01*
X3763518Y1317244D01*
X3753104Y1306829D01*
X3737609Y1301750D01*
X3701034Y1301750D01*
X4254500Y1410715D02*
G01*
X4254500Y1301750D01*
X4254500Y1410715D02*
G01*
X4322063Y1410715D01*
X4254500Y1358900D02*
G01*
X4296156Y1358900D01*
X4356354Y1410715D02*
G01*
X4356354Y1301750D01*
X4356354Y1410715D02*
G01*
X4403090Y1410715D01*
X4418584Y1405636D01*
X4423918Y1400302D01*
X4428997Y1389887D01*
X4428997Y1379473D01*
X4423918Y1369060D01*
X4418584Y1363979D01*
X4403090Y1358900D01*
X4356354Y1358900D01*
X4392675Y1358900D02*
G01*
X4428997Y1301750D01*
X4463288Y1410715D02*
G01*
X4463288Y1301750D01*
X4463288Y1410715D02*
G01*
X4530852Y1410715D01*
X4463288Y1358900D02*
G01*
X4504943Y1358900D01*
X4463288Y1301750D02*
G01*
X4530852Y1301750D01*
X4596384Y1410715D02*
G01*
X4585970Y1405636D01*
X4575556Y1395221D01*
X4570475Y1384807D01*
X4565141Y1369060D01*
X4565141Y1343152D01*
X4570475Y1327657D01*
X4575556Y1317244D01*
X4585970Y1306829D01*
X4596384Y1301750D01*
X4617211Y1301750D01*
X4627625Y1306829D01*
X4638040Y1317244D01*
X4643120Y1327657D01*
X4648200Y1343152D01*
X4648200Y1369060D01*
X4643120Y1384807D01*
X4638040Y1395221D01*
X4627625Y1405636D01*
X4617211Y1410715D01*
X4596384Y1410715D01*
X4611877Y1322323D02*
G01*
X4643120Y1291336D01*
X5534913Y4042918D02*
G01*
X5529834Y4053331D01*
X5519420Y4063745D01*
X5509006Y4068826D01*
X5488177Y4068826D01*
X5477763Y4063745D01*
X5467350Y4053331D01*
X5462270Y4042918D01*
X5456936Y4027423D01*
X5456936Y4001262D01*
X5462270Y3985768D01*
X5467350Y3975354D01*
X5477763Y3964939D01*
X5488177Y3959860D01*
X5509006Y3959860D01*
X5519420Y3964939D01*
X5529834Y3975354D01*
X5534913Y3985768D01*
X5517134Y3456431D02*
G01*
X5506720Y3466845D01*
X5490972Y3471926D01*
X5470397Y3471926D01*
X5454650Y3466845D01*
X5444236Y3456431D01*
X5444236Y3446018D01*
X5449570Y3435604D01*
X5454650Y3430523D01*
X5465063Y3425189D01*
X5496306Y3414776D01*
X5506720Y3409695D01*
X5511800Y3404362D01*
X5517134Y3393947D01*
X5517134Y3378454D01*
X5506720Y3368039D01*
X5490972Y3362960D01*
X5470397Y3362960D01*
X5454650Y3368039D01*
X5444236Y3378454D01*
X5624068Y3456431D02*
G01*
X5613654Y3466845D01*
X5598159Y3471926D01*
X5577331Y3471926D01*
X5561838Y3466845D01*
X5551424Y3456431D01*
X5551424Y3446018D01*
X5556504Y3435604D01*
X5561838Y3430523D01*
X5571997Y3425189D01*
X5603240Y3414776D01*
X5613654Y3409695D01*
X5618988Y3404362D01*
X5624068Y3393947D01*
X5624068Y3378454D01*
X5613654Y3368039D01*
X5598159Y3362960D01*
X5577331Y3362960D01*
X5561838Y3368039D01*
X5551424Y3378454D01*
X5012715Y3101093D02*
G01*
X5003571Y3109983D01*
X4989855Y3114555D01*
X4971821Y3114555D01*
X4958105Y3109983D01*
X4948961Y3101093D01*
X4948961Y3091949D01*
X4953533Y3082805D01*
X4958105Y3078233D01*
X4967249Y3073661D01*
X4994427Y3064517D01*
X5003571Y3060199D01*
X5008143Y3055627D01*
X5012715Y3046483D01*
X5012715Y3032767D01*
X5003571Y3023623D01*
X4989855Y3019051D01*
X4971821Y3019051D01*
X4958105Y3023623D01*
X4948961Y3032767D01*
X5042687Y3114555D02*
G01*
X5065293Y3019051D01*
X5088153Y3114555D02*
G01*
X5065293Y3019051D01*
X5088153Y3114555D02*
G01*
X5110759Y3019051D01*
X5133619Y3114555D02*
G01*
X5110759Y3019051D01*
X5163591Y3096521D02*
G01*
X5172735Y3101093D01*
X5186197Y3114555D01*
X5186197Y3019051D01*
X3895206Y5054493D02*
G01*
X3936354Y5127391D01*
X3977248Y5054493D01*
X3641206Y5054493D02*
G01*
X3682354Y5127391D01*
X3723248Y5054493D01*
X3387206Y5054493D02*
G01*
X3428354Y5127391D01*
X3469248Y5054493D01*
X3133206Y5054493D02*
G01*
X3174354Y5127391D01*
X3215248Y5054493D01*
X2879206Y5054493D02*
G01*
X2920354Y5127391D01*
X2961248Y5054493D01*
X2625206Y5054493D02*
G01*
X2666354Y5127391D01*
X2707248Y5054493D01*
X2371206Y5054493D02*
G01*
X2412354Y5127391D01*
X2453248Y5054493D01*
X2117206Y5054493D02*
G01*
X2158354Y5127391D01*
X2199248Y5054493D01*
X4566665Y4964937D02*
G01*
X4566665Y4892294D01*
X4562093Y4878578D01*
X4557522Y4874005D01*
X4548377Y4869434D01*
X4539488Y4869434D01*
X4530343Y4874005D01*
X4525772Y4878578D01*
X4521200Y4892294D01*
X4521200Y4901437D01*
X4601209Y4942331D02*
G01*
X4601209Y4946904D01*
X4605781Y4955794D01*
X4610354Y4960365D01*
X4619497Y4964937D01*
X4637531Y4964937D01*
X4646675Y4960365D01*
X4651247Y4955794D01*
X4655820Y4946904D01*
X4655820Y4937760D01*
X4651247Y4928615D01*
X4642104Y4914900D01*
X4596638Y4869434D01*
X4660391Y4869434D01*
X5008118Y1534921D02*
G01*
X4998974Y1544065D01*
X4985258Y1548637D01*
X4967224Y1548637D01*
X4953508Y1544065D01*
X4944363Y1534921D01*
X4944363Y1526031D01*
X4948936Y1516887D01*
X4953508Y1512315D01*
X4962652Y1507744D01*
X4989829Y1498600D01*
X4998974Y1494028D01*
X5003545Y1489710D01*
X5008118Y1480565D01*
X5008118Y1466850D01*
X4998974Y1457705D01*
X4985258Y1453134D01*
X4967224Y1453134D01*
X4953508Y1457705D01*
X4944363Y1466850D01*
X5038090Y1548637D02*
G01*
X5060695Y1453134D01*
X5083556Y1548637D02*
G01*
X5060695Y1453134D01*
X5083556Y1548637D02*
G01*
X5106161Y1453134D01*
X5129022Y1548637D02*
G01*
X5106161Y1453134D01*
X5163565Y1526031D02*
G01*
X5163565Y1530604D01*
X5168138Y1539494D01*
X5172709Y1544065D01*
X5181600Y1548637D01*
X5199888Y1548637D01*
X5209031Y1544065D01*
X5213604Y1539494D01*
X5218175Y1530604D01*
X5218175Y1521460D01*
X5213604Y1512315D01*
X5204459Y1498600D01*
X5158993Y1453134D01*
X5222747Y1453134D01*
X5525261Y2487421D02*
G01*
X5514847Y2497836D01*
X5499100Y2502915D01*
X5478525Y2502915D01*
X5462777Y2497836D01*
X5452363Y2487421D01*
X5452363Y2477007D01*
X5457697Y2466594D01*
X5462777Y2461260D01*
X5473191Y2456179D01*
X5504434Y2445765D01*
X5514847Y2440686D01*
X5519927Y2435352D01*
X5525261Y2424937D01*
X5525261Y2409444D01*
X5514847Y2399029D01*
X5499100Y2393695D01*
X5478525Y2393695D01*
X5462777Y2399029D01*
X5452363Y2409444D01*
X5595874Y2502915D02*
G01*
X5595874Y2393695D01*
X5559552Y2502915D02*
G01*
X5632195Y2502915D01*
D11*
X948944Y2731515D02*
G01*
X897128Y2622550D01*
X876300Y2731515D02*
G01*
X948944Y2731515D01*
X1035304Y2731515D02*
G01*
X983234Y2658871D01*
X1061212Y2658871D01*
X1035304Y2731515D02*
G01*
X1035304Y2622550D01*
X1095502Y2731515D02*
G01*
X1095502Y2622550D01*
X1168400Y2731515D02*
G01*
X1168400Y2622550D01*
X1095502Y2679700D02*
G01*
X1168400Y2679700D01*
X1280413Y2705607D02*
G01*
X1275334Y2716021D01*
X1264920Y2726436D01*
X1254505Y2731515D01*
X1233678Y2731515D01*
X1223263Y2726436D01*
X1212850Y2716021D01*
X1207770Y2705607D01*
X1202689Y2689860D01*
X1202689Y2663952D01*
X1207770Y2648457D01*
X1212850Y2638044D01*
X1223263Y2627629D01*
X1233678Y2622550D01*
X1254505Y2622550D01*
X1264920Y2627629D01*
X1275334Y2638044D01*
X1280413Y2648457D01*
X1314704Y2710687D02*
G01*
X1325118Y2716021D01*
X1340865Y2731515D01*
X1340865Y2622550D01*
X1426971Y2731515D02*
G01*
X1375155Y2658871D01*
X1452879Y2658871D01*
X1426971Y2731515D02*
G01*
X1426971Y2622550D01*
X2755900Y2604515D02*
G01*
X2755900Y2495550D01*
X2755900Y2604515D02*
G01*
X2828543Y2495550D01*
X2828543Y2604515D02*
G01*
X2828543Y2495550D01*
X2862834Y2604515D02*
G01*
X2862834Y2495550D01*
X2862834Y2604515D02*
G01*
X2930397Y2604515D01*
X2862834Y2552700D02*
G01*
X2904490Y2552700D01*
X2862834Y2495550D02*
G01*
X2930397Y2495550D01*
X3027172Y2604515D02*
G01*
X2975102Y2604515D01*
X2970022Y2557779D01*
X2975102Y2562860D01*
X2990850Y2568194D01*
X3006343Y2568194D01*
X3021838Y2562860D01*
X3032252Y2552700D01*
X3037586Y2536952D01*
X3037586Y2526537D01*
X3032252Y2511044D01*
X3021838Y2500629D01*
X3006343Y2495550D01*
X2990850Y2495550D01*
X2975102Y2500629D01*
X2970022Y2505710D01*
X2964688Y2516123D01*
X3134106Y2604515D02*
G01*
X3082290Y2604515D01*
X3076956Y2557779D01*
X3082290Y2562860D01*
X3097784Y2568194D01*
X3113277Y2568194D01*
X3129025Y2562860D01*
X3139440Y2552700D01*
X3144520Y2536952D01*
X3144520Y2526537D01*
X3139440Y2511044D01*
X3129025Y2500629D01*
X3113277Y2495550D01*
X3097784Y2495550D01*
X3082290Y2500629D01*
X3076956Y2505710D01*
X3071875Y2516123D01*
X3204718Y2604515D02*
G01*
X3189224Y2599436D01*
X3183890Y2589021D01*
X3183890Y2578607D01*
X3189224Y2568194D01*
X3199638Y2562860D01*
X3220465Y2557779D01*
X3235959Y2552700D01*
X3246374Y2542286D01*
X3251454Y2531871D01*
X3251454Y2516123D01*
X3246374Y2505710D01*
X3241040Y2500629D01*
X3225545Y2495550D01*
X3204718Y2495550D01*
X3189224Y2500629D01*
X3183890Y2505710D01*
X3178809Y2516123D01*
X3178809Y2531871D01*
X3183890Y2542286D01*
X3194304Y2552700D01*
X3210052Y2557779D01*
X3230879Y2562860D01*
X3241040Y2568194D01*
X3246374Y2578607D01*
X3246374Y2589021D01*
X3241040Y2599436D01*
X3225545Y2604515D01*
X3204718Y2604515D01*
X3285743Y2604515D02*
G01*
X3285743Y2495550D01*
X3285743Y2604515D02*
G01*
X3322320Y2604515D01*
X3337813Y2599436D01*
X3348227Y2589021D01*
X3353308Y2578607D01*
X3358641Y2562860D01*
X3358641Y2536952D01*
X3353308Y2521457D01*
X3348227Y2511044D01*
X3337813Y2500629D01*
X3322320Y2495550D01*
X3285743Y2495550D01*
D10*
X4597400Y4623815D02*
G01*
X4597400Y4514850D01*
X4597400Y4623815D02*
G01*
X4644136Y4623815D01*
X4659629Y4618736D01*
X4664963Y4613402D01*
X4670043Y4602987D01*
X4670043Y4592573D01*
X4664963Y4582160D01*
X4659629Y4577079D01*
X4644136Y4572000D01*
X4597400Y4572000D01*
X4633722Y4572000D02*
G01*
X4670043Y4514850D01*
X4704334Y4623815D02*
G01*
X4704334Y4514850D01*
X4704334Y4623815D02*
G01*
X4771897Y4623815D01*
X4704334Y4572000D02*
G01*
X4745990Y4572000D01*
X4704334Y4514850D02*
G01*
X4771897Y4514850D01*
X4847843Y4623815D02*
G01*
X4806188Y4514850D01*
X4847843Y4623815D02*
G01*
X4889500Y4514850D01*
X4821936Y4551171D02*
G01*
X4873752Y4551171D01*
X4923790Y4623815D02*
G01*
X4923790Y4514850D01*
X4923790Y4623815D02*
G01*
X4960111Y4623815D01*
X4975606Y4618736D01*
X4986020Y4608321D01*
X4991100Y4597907D01*
X4996434Y4582160D01*
X4996434Y4556252D01*
X4991100Y4540757D01*
X4986020Y4530344D01*
X4975606Y4519929D01*
X4960111Y4514850D01*
X4923790Y4514850D01*
X5188711Y4597907D02*
G01*
X5183377Y4608321D01*
X5172963Y4618736D01*
X5162550Y4623815D01*
X5141975Y4623815D01*
X5131561Y4618736D01*
X5121147Y4608321D01*
X5115813Y4597907D01*
X5110734Y4582160D01*
X5110734Y4556252D01*
X5115813Y4540757D01*
X5121147Y4530344D01*
X5131561Y4519929D01*
X5141975Y4514850D01*
X5162550Y4514850D01*
X5172963Y4519929D01*
X5183377Y4530344D01*
X5188711Y4540757D01*
X5223002Y4623815D02*
G01*
X5223002Y4514850D01*
X5223002Y4514850D02*
G01*
X5285231Y4514850D01*
X5350763Y4623815D02*
G01*
X5340350Y4618736D01*
X5329936Y4608321D01*
X5324856Y4597907D01*
X5319522Y4582160D01*
X5319522Y4556252D01*
X5324856Y4540757D01*
X5329936Y4530344D01*
X5340350Y4519929D01*
X5350763Y4514850D01*
X5371591Y4514850D01*
X5382006Y4519929D01*
X5392420Y4530344D01*
X5397500Y4540757D01*
X5402579Y4556252D01*
X5402579Y4582160D01*
X5397500Y4597907D01*
X5392420Y4608321D01*
X5382006Y4618736D01*
X5371591Y4623815D01*
X5350763Y4623815D01*
X5514847Y4597907D02*
G01*
X5509768Y4608321D01*
X5499354Y4618736D01*
X5488940Y4623815D01*
X5468111Y4623815D01*
X5457697Y4618736D01*
X5447284Y4608321D01*
X5442204Y4597907D01*
X5436870Y4582160D01*
X5436870Y4556252D01*
X5442204Y4540757D01*
X5447284Y4530344D01*
X5457697Y4519929D01*
X5468111Y4514850D01*
X5488940Y4514850D01*
X5499354Y4519929D01*
X5509768Y4530344D01*
X5514847Y4540757D01*
X5549138Y4623815D02*
G01*
X5549138Y4514850D01*
X5622036Y4623815D02*
G01*
X5549138Y4551171D01*
X5575300Y4577079D02*
G01*
X5622036Y4514850D01*
X406400Y4623815D02*
G01*
X432307Y4514850D01*
X458470Y4623815D02*
G01*
X432307Y4514850D01*
X458470Y4623815D02*
G01*
X484378Y4514850D01*
X510286Y4623815D02*
G01*
X484378Y4514850D01*
X544576Y4623815D02*
G01*
X544576Y4514850D01*
X544576Y4623815D02*
G01*
X591312Y4623815D01*
X607060Y4618736D01*
X612139Y4613402D01*
X617220Y4602987D01*
X617220Y4592573D01*
X612139Y4582160D01*
X607060Y4577079D01*
X591312Y4572000D01*
X544576Y4572000D01*
X580897Y4572000D02*
G01*
X617220Y4514850D01*
X651510Y4623815D02*
G01*
X651510Y4514850D01*
X722376Y4623815D02*
G01*
X722376Y4514850D01*
X685800Y4623815D02*
G01*
X758697Y4623815D01*
X792987Y4623815D02*
G01*
X792987Y4514850D01*
X792987Y4623815D02*
G01*
X860552Y4623815D01*
X792987Y4572000D02*
G01*
X834389Y4572000D01*
X792987Y4514850D02*
G01*
X860552Y4514850D01*
X1052829Y4597907D02*
G01*
X1047495Y4608321D01*
X1037081Y4618736D01*
X1026668Y4623815D01*
X1005839Y4623815D01*
X995679Y4618736D01*
X985265Y4608321D01*
X979931Y4597907D01*
X974852Y4582160D01*
X974852Y4556252D01*
X979931Y4540757D01*
X985265Y4530344D01*
X995679Y4519929D01*
X1005839Y4514850D01*
X1026668Y4514850D01*
X1037081Y4519929D01*
X1047495Y4530344D01*
X1052829Y4540757D01*
X1087120Y4623815D02*
G01*
X1087120Y4514850D01*
X1087120Y4514850D02*
G01*
X1149350Y4514850D01*
X1214881Y4623815D02*
G01*
X1204468Y4618736D01*
X1194054Y4608321D01*
X1188720Y4597907D01*
X1183639Y4582160D01*
X1183639Y4556252D01*
X1188720Y4540757D01*
X1194054Y4530344D01*
X1204468Y4519929D01*
X1214881Y4514850D01*
X1235710Y4514850D01*
X1245870Y4519929D01*
X1256284Y4530344D01*
X1261618Y4540757D01*
X1266697Y4556252D01*
X1266697Y4582160D01*
X1261618Y4597907D01*
X1256284Y4608321D01*
X1245870Y4618736D01*
X1235710Y4623815D01*
X1214881Y4623815D01*
X1378965Y4597907D02*
G01*
X1373886Y4608321D01*
X1363471Y4618736D01*
X1353057Y4623815D01*
X1332229Y4623815D01*
X1321815Y4618736D01*
X1311402Y4608321D01*
X1306321Y4597907D01*
X1300987Y4582160D01*
X1300987Y4556252D01*
X1306321Y4540757D01*
X1311402Y4530344D01*
X1321815Y4519929D01*
X1332229Y4514850D01*
X1353057Y4514850D01*
X1363471Y4519929D01*
X1373886Y4530344D01*
X1378965Y4540757D01*
X1413255Y4623815D02*
G01*
X1413255Y4514850D01*
X1485900Y4623815D02*
G01*
X1413255Y4551171D01*
X1439163Y4577079D02*
G01*
X1485900Y4514850D01*
X127000Y2223515D02*
G01*
X152907Y2114550D01*
X179070Y2223515D02*
G01*
X152907Y2114550D01*
X179070Y2223515D02*
G01*
X204978Y2114550D01*
X230886Y2223515D02*
G01*
X204978Y2114550D01*
X265176Y2223515D02*
G01*
X265176Y2114550D01*
X265176Y2223515D02*
G01*
X311912Y2223515D01*
X327660Y2218436D01*
X332739Y2213102D01*
X337820Y2202687D01*
X337820Y2192273D01*
X332739Y2181860D01*
X327660Y2176779D01*
X311912Y2171700D01*
X265176Y2171700D01*
X301497Y2171700D02*
G01*
X337820Y2114550D01*
X372110Y2223515D02*
G01*
X372110Y2114550D01*
X442976Y2223515D02*
G01*
X442976Y2114550D01*
X406400Y2223515D02*
G01*
X479297Y2223515D01*
X513587Y2223515D02*
G01*
X513587Y2114550D01*
X513587Y2223515D02*
G01*
X581152Y2223515D01*
X513587Y2171700D02*
G01*
X554989Y2171700D01*
X513587Y2114550D02*
G01*
X581152Y2114550D01*
X773429Y2197607D02*
G01*
X768095Y2208021D01*
X757681Y2218436D01*
X747268Y2223515D01*
X726439Y2223515D01*
X716279Y2218436D01*
X705865Y2208021D01*
X700531Y2197607D01*
X695452Y2181860D01*
X695452Y2155952D01*
X700531Y2140457D01*
X705865Y2130044D01*
X716279Y2119629D01*
X726439Y2114550D01*
X747268Y2114550D01*
X757681Y2119629D01*
X768095Y2130044D01*
X773429Y2140457D01*
X807720Y2223515D02*
G01*
X807720Y2114550D01*
X807720Y2114550D02*
G01*
X869950Y2114550D01*
X935481Y2223515D02*
G01*
X925068Y2218436D01*
X914654Y2208021D01*
X909320Y2197607D01*
X904239Y2181860D01*
X904239Y2155952D01*
X909320Y2140457D01*
X914654Y2130044D01*
X925068Y2119629D01*
X935481Y2114550D01*
X956310Y2114550D01*
X966470Y2119629D01*
X976884Y2130044D01*
X982218Y2140457D01*
X987297Y2155952D01*
X987297Y2181860D01*
X982218Y2197607D01*
X976884Y2208021D01*
X966470Y2218436D01*
X956310Y2223515D01*
X935481Y2223515D01*
X1099565Y2197607D02*
G01*
X1094486Y2208021D01*
X1084071Y2218436D01*
X1073657Y2223515D01*
X1052829Y2223515D01*
X1042415Y2218436D01*
X1032002Y2208021D01*
X1026921Y2197607D01*
X1021587Y2181860D01*
X1021587Y2155952D01*
X1026921Y2140457D01*
X1032002Y2130044D01*
X1042415Y2119629D01*
X1052829Y2114550D01*
X1073657Y2114550D01*
X1084071Y2119629D01*
X1094486Y2130044D01*
X1099565Y2140457D01*
X1133855Y2223515D02*
G01*
X1133855Y2114550D01*
X1206500Y2223515D02*
G01*
X1133855Y2150871D01*
X1159763Y2176779D02*
G01*
X1206500Y2114550D01*
X139700Y1715515D02*
G01*
X139700Y1606550D01*
X139700Y1715515D02*
G01*
X186436Y1715515D01*
X201929Y1710436D01*
X207263Y1705102D01*
X212344Y1694687D01*
X212344Y1684273D01*
X207263Y1673860D01*
X201929Y1668779D01*
X186436Y1663700D01*
X139700Y1663700D01*
X176021Y1663700D02*
G01*
X212344Y1606550D01*
X246634Y1715515D02*
G01*
X246634Y1606550D01*
X246634Y1715515D02*
G01*
X314197Y1715515D01*
X246634Y1663700D02*
G01*
X288289Y1663700D01*
X246634Y1606550D02*
G01*
X314197Y1606550D01*
X390144Y1715515D02*
G01*
X348487Y1606550D01*
X390144Y1715515D02*
G01*
X431800Y1606550D01*
X364236Y1642871D02*
G01*
X416052Y1642871D01*
X466089Y1715515D02*
G01*
X466089Y1606550D01*
X466089Y1715515D02*
G01*
X502412Y1715515D01*
X517905Y1710436D01*
X528320Y1700021D01*
X533400Y1689607D01*
X538734Y1673860D01*
X538734Y1647952D01*
X533400Y1632457D01*
X528320Y1622044D01*
X517905Y1611629D01*
X502412Y1606550D01*
X466089Y1606550D01*
X731012Y1689607D02*
G01*
X725678Y1700021D01*
X715263Y1710436D01*
X704850Y1715515D01*
X684276Y1715515D01*
X673862Y1710436D01*
X663447Y1700021D01*
X658113Y1689607D01*
X653034Y1673860D01*
X653034Y1647952D01*
X658113Y1632457D01*
X663447Y1622044D01*
X673862Y1611629D01*
X684276Y1606550D01*
X704850Y1606550D01*
X715263Y1611629D01*
X725678Y1622044D01*
X731012Y1632457D01*
X765302Y1715515D02*
G01*
X765302Y1606550D01*
X765302Y1606550D02*
G01*
X827531Y1606550D01*
X893063Y1715515D02*
G01*
X882650Y1710436D01*
X872236Y1700021D01*
X867155Y1689607D01*
X861821Y1673860D01*
X861821Y1647952D01*
X867155Y1632457D01*
X872236Y1622044D01*
X882650Y1611629D01*
X893063Y1606550D01*
X913892Y1606550D01*
X924305Y1611629D01*
X934720Y1622044D01*
X939800Y1632457D01*
X944879Y1647952D01*
X944879Y1673860D01*
X939800Y1689607D01*
X934720Y1700021D01*
X924305Y1710436D01*
X913892Y1715515D01*
X893063Y1715515D01*
X1057147Y1689607D02*
G01*
X1052068Y1700021D01*
X1041654Y1710436D01*
X1031239Y1715515D01*
X1010412Y1715515D01*
X999997Y1710436D01*
X989584Y1700021D01*
X984504Y1689607D01*
X979170Y1673860D01*
X979170Y1647952D01*
X984504Y1632457D01*
X989584Y1622044D01*
X999997Y1611629D01*
X1010412Y1606550D01*
X1031239Y1606550D01*
X1041654Y1611629D01*
X1052068Y1622044D01*
X1057147Y1632457D01*
X1091437Y1715515D02*
G01*
X1091437Y1606550D01*
X1164336Y1715515D02*
G01*
X1091437Y1642871D01*
X1117600Y1668779D02*
G01*
X1164336Y1606550D01*
X152400Y2076450D02*
G01*
X145287Y2069084D01*
X137921Y2058415D01*
X130555Y2043684D01*
X127000Y2025650D01*
X127000Y2010918D01*
X130555Y1992884D01*
X137921Y1978405D01*
X145287Y1967484D01*
X152400Y1960118D01*
X201929Y2061971D02*
G01*
X201929Y1985518D01*
X176529Y2061971D02*
G01*
X227329Y2061971D01*
X273304Y2061971D02*
G01*
X265937Y2058415D01*
X258571Y2051050D01*
X255015Y2043684D01*
X251460Y2032762D01*
X251460Y2014728D01*
X255015Y2003805D01*
X258571Y1996439D01*
X265937Y1989073D01*
X273304Y1985518D01*
X287781Y1985518D01*
X294894Y1989073D01*
X302260Y1996439D01*
X305815Y2003805D01*
X309626Y2014728D01*
X309626Y2032762D01*
X305815Y2043684D01*
X302260Y2051050D01*
X294894Y2058415D01*
X287781Y2061971D01*
X273304Y2061971D01*
X389636Y2061971D02*
G01*
X389636Y1985518D01*
X389636Y2061971D02*
G01*
X415036Y2061971D01*
X425957Y2058415D01*
X433070Y2051050D01*
X436879Y2043684D01*
X440436Y2032762D01*
X440436Y2014728D01*
X436879Y2003805D01*
X433070Y1996439D01*
X425957Y1989073D01*
X415036Y1985518D01*
X389636Y1985518D01*
X493521Y2061971D02*
G01*
X464565Y1985518D01*
X493521Y2061971D02*
G01*
X522731Y1985518D01*
X475487Y2010918D02*
G01*
X511810Y2010918D01*
X572007Y2061971D02*
G01*
X572007Y1985518D01*
X546607Y2061971D02*
G01*
X597662Y2061971D01*
X650747Y2061971D02*
G01*
X621537Y1985518D01*
X650747Y2061971D02*
G01*
X679704Y1985518D01*
X632460Y2010918D02*
G01*
X668781Y2010918D01*
X759713Y2061971D02*
G01*
X759713Y1985518D01*
X759713Y2061971D02*
G01*
X792479Y2061971D01*
X803402Y2058415D01*
X806957Y2054605D01*
X810513Y2047494D01*
X810513Y2040128D01*
X806957Y2032762D01*
X803402Y2029205D01*
X792479Y2025650D01*
X759713Y2025650D02*
G01*
X792479Y2025650D01*
X803402Y2021839D01*
X806957Y2018284D01*
X810513Y2010918D01*
X810513Y1999995D01*
X806957Y1992884D01*
X803402Y1989073D01*
X792479Y1985518D01*
X759713Y1985518D01*
X834644Y2061971D02*
G01*
X834644Y2007362D01*
X838200Y1996439D01*
X845565Y1989073D01*
X856487Y1985518D01*
X863600Y1985518D01*
X874521Y1989073D01*
X881887Y1996439D01*
X885444Y2007362D01*
X885444Y2061971D01*
X960373Y2051050D02*
G01*
X953262Y2058415D01*
X942339Y2061971D01*
X927607Y2061971D01*
X916939Y2058415D01*
X909573Y2051050D01*
X909573Y2043684D01*
X913129Y2036571D01*
X916939Y2032762D01*
X924052Y2029205D01*
X945895Y2021839D01*
X953262Y2018284D01*
X956818Y2014728D01*
X960373Y2007362D01*
X960373Y1996439D01*
X953262Y1989073D01*
X942339Y1985518D01*
X927607Y1985518D01*
X916939Y1989073D01*
X909573Y1996439D01*
X984504Y2076450D02*
G01*
X991615Y2069084D01*
X998981Y2058415D01*
X1006347Y2043684D01*
X1009904Y2025650D01*
X1009904Y2010918D01*
X1006347Y1992884D01*
X998981Y1978405D01*
X991615Y1967484D01*
X984504Y1960118D01*
X152400Y1568450D02*
G01*
X145287Y1561084D01*
X137921Y1550415D01*
X130555Y1535684D01*
X127000Y1517650D01*
X127000Y1502918D01*
X130555Y1484884D01*
X137921Y1470405D01*
X145287Y1459484D01*
X152400Y1452118D01*
X176529Y1553971D02*
G01*
X176529Y1477518D01*
X176529Y1553971D02*
G01*
X223773Y1553971D01*
X176529Y1517650D02*
G01*
X205486Y1517650D01*
X247650Y1553971D02*
G01*
X247650Y1477518D01*
X247650Y1553971D02*
G01*
X280415Y1553971D01*
X291337Y1550415D01*
X294894Y1546605D01*
X298704Y1539494D01*
X298704Y1532128D01*
X294894Y1524762D01*
X291337Y1521205D01*
X280415Y1517650D01*
X247650Y1517650D01*
X273304Y1517650D02*
G01*
X298704Y1477518D01*
X344423Y1553971D02*
G01*
X337057Y1550415D01*
X329945Y1543050D01*
X326389Y1535684D01*
X322579Y1524762D01*
X322579Y1506728D01*
X326389Y1495805D01*
X329945Y1488439D01*
X337057Y1481073D01*
X344423Y1477518D01*
X358902Y1477518D01*
X366268Y1481073D01*
X373634Y1488439D01*
X377189Y1495805D01*
X380745Y1506728D01*
X380745Y1524762D01*
X377189Y1535684D01*
X373634Y1543050D01*
X366268Y1550415D01*
X358902Y1553971D01*
X344423Y1553971D01*
X404876Y1553971D02*
G01*
X404876Y1477518D01*
X404876Y1553971D02*
G01*
X433831Y1477518D01*
X463042Y1553971D02*
G01*
X433831Y1477518D01*
X463042Y1553971D02*
G01*
X463042Y1477518D01*
X543052Y1553971D02*
G01*
X543052Y1477518D01*
X543052Y1553971D02*
G01*
X568452Y1553971D01*
X579373Y1550415D01*
X586739Y1543050D01*
X590295Y1535684D01*
X593852Y1524762D01*
X593852Y1506728D01*
X590295Y1495805D01*
X586739Y1488439D01*
X579373Y1481073D01*
X568452Y1477518D01*
X543052Y1477518D01*
X646937Y1553971D02*
G01*
X617981Y1477518D01*
X646937Y1553971D02*
G01*
X676147Y1477518D01*
X628904Y1502918D02*
G01*
X665226Y1502918D01*
X725423Y1553971D02*
G01*
X725423Y1477518D01*
X700023Y1553971D02*
G01*
X751078Y1553971D01*
X804163Y1553971D02*
G01*
X774954Y1477518D01*
X804163Y1553971D02*
G01*
X833120Y1477518D01*
X785876Y1502918D02*
G01*
X822197Y1502918D01*
X913129Y1553971D02*
G01*
X913129Y1477518D01*
X913129Y1553971D02*
G01*
X945895Y1553971D01*
X956818Y1550415D01*
X960373Y1546605D01*
X964184Y1539494D01*
X964184Y1532128D01*
X960373Y1524762D01*
X956818Y1521205D01*
X945895Y1517650D01*
X913129Y1517650D02*
G01*
X945895Y1517650D01*
X956818Y1513839D01*
X960373Y1510284D01*
X964184Y1502918D01*
X964184Y1491995D01*
X960373Y1484884D01*
X956818Y1481073D01*
X945895Y1477518D01*
X913129Y1477518D01*
X988060Y1553971D02*
G01*
X988060Y1499362D01*
X991615Y1488439D01*
X998981Y1481073D01*
X1009904Y1477518D01*
X1017270Y1477518D01*
X1028192Y1481073D01*
X1035304Y1488439D01*
X1039113Y1499362D01*
X1039113Y1553971D01*
X1113789Y1543050D02*
G01*
X1106678Y1550415D01*
X1095755Y1553971D01*
X1081278Y1553971D01*
X1070355Y1550415D01*
X1062989Y1543050D01*
X1062989Y1535684D01*
X1066545Y1528571D01*
X1070355Y1524762D01*
X1077468Y1521205D01*
X1099312Y1513839D01*
X1106678Y1510284D01*
X1110234Y1506728D01*
X1113789Y1499362D01*
X1113789Y1488439D01*
X1106678Y1481073D01*
X1095755Y1477518D01*
X1081278Y1477518D01*
X1070355Y1481073D01*
X1062989Y1488439D01*
X1137920Y1568450D02*
G01*
X1145286Y1561084D01*
X1152397Y1550415D01*
X1159763Y1535684D01*
X1163320Y1517650D01*
X1163320Y1502918D01*
X1159763Y1484884D01*
X1152397Y1470405D01*
X1145286Y1459484D01*
X1137920Y1452118D01*
X2959100Y1619115D02*
G01*
X2951988Y1626481D01*
X2941065Y1630037D01*
X2926588Y1630037D01*
X2915665Y1626481D01*
X2908300Y1619115D01*
X2908300Y1612003D01*
X2911856Y1604637D01*
X2915665Y1601081D01*
X2922777Y1597525D01*
X2944622Y1590159D01*
X2951988Y1586603D01*
X2955543Y1582793D01*
X2959100Y1575681D01*
X2959100Y1564759D01*
X2951988Y1557393D01*
X2941065Y1553837D01*
X2926588Y1553837D01*
X2915665Y1557393D01*
X2908300Y1564759D01*
X3008629Y1630037D02*
G01*
X3008629Y1553837D01*
X2983229Y1630037D02*
G01*
X3034029Y1630037D01*
X3080004Y1630037D02*
G01*
X3072638Y1626481D01*
X3065272Y1619115D01*
X3061715Y1612003D01*
X3058159Y1601081D01*
X3058159Y1582793D01*
X3061715Y1571871D01*
X3065272Y1564759D01*
X3072638Y1557393D01*
X3080004Y1553837D01*
X3094481Y1553837D01*
X3101847Y1557393D01*
X3108959Y1564759D01*
X3112770Y1571871D01*
X3116325Y1582793D01*
X3116325Y1601081D01*
X3112770Y1612003D01*
X3108959Y1619115D01*
X3101847Y1626481D01*
X3094481Y1630037D01*
X3080004Y1630037D01*
X3140202Y1630037D02*
G01*
X3140202Y1553837D01*
X3140202Y1630037D02*
G01*
X3172968Y1630037D01*
X3183890Y1626481D01*
X3187445Y1622925D01*
X3191256Y1615559D01*
X3191256Y1608193D01*
X3187445Y1601081D01*
X3183890Y1597525D01*
X3172968Y1593715D01*
X3140202Y1593715D01*
X3165856Y1593715D02*
G01*
X3191256Y1553837D01*
X3215131Y1630037D02*
G01*
X3215131Y1553837D01*
X3215131Y1630037D02*
G01*
X3262375Y1630037D01*
X3215131Y1593715D02*
G01*
X3244341Y1593715D01*
X3215131Y1553837D02*
G01*
X3262375Y1553837D01*
X1562100Y2252471D02*
G01*
X1562100Y2176018D01*
X1562100Y2176018D02*
G01*
X1605787Y2176018D01*
X1651507Y2252471D02*
G01*
X1644395Y2248915D01*
X1637029Y2241550D01*
X1633473Y2234184D01*
X1629663Y2223262D01*
X1629663Y2205228D01*
X1633473Y2194305D01*
X1637029Y2186939D01*
X1644395Y2179573D01*
X1651507Y2176018D01*
X1665986Y2176018D01*
X1673352Y2179573D01*
X1680718Y2186939D01*
X1684273Y2194305D01*
X1687829Y2205228D01*
X1687829Y2223262D01*
X1684273Y2234184D01*
X1680718Y2241550D01*
X1673352Y2248915D01*
X1665986Y2252471D01*
X1651507Y2252471D01*
X1740915Y2252471D02*
G01*
X1711960Y2176018D01*
X1740915Y2252471D02*
G01*
X1770126Y2176018D01*
X1722881Y2201418D02*
G01*
X1759204Y2201418D01*
X1794002Y2252471D02*
G01*
X1794002Y2176018D01*
X1794002Y2252471D02*
G01*
X1819655Y2252471D01*
X1830578Y2248915D01*
X1837689Y2241550D01*
X1841245Y2234184D01*
X1845055Y2223262D01*
X1845055Y2205228D01*
X1841245Y2194305D01*
X1837689Y2186939D01*
X1830578Y2179573D01*
X1819655Y2176018D01*
X1794002Y2176018D01*
X3263900Y2138171D02*
G01*
X3263900Y2061718D01*
X3263900Y2138171D02*
G01*
X3296665Y2138171D01*
X3307588Y2134615D01*
X3311143Y2130805D01*
X3314700Y2123694D01*
X3314700Y2112771D01*
X3311143Y2105405D01*
X3307588Y2101850D01*
X3296665Y2098039D01*
X3263900Y2098039D01*
X3393440Y2119884D02*
G01*
X3389629Y2127250D01*
X3382518Y2134615D01*
X3375152Y2138171D01*
X3360674Y2138171D01*
X3353308Y2134615D01*
X3346195Y2127250D01*
X3342386Y2119884D01*
X3338829Y2108962D01*
X3338829Y2090928D01*
X3342386Y2080005D01*
X3346195Y2072639D01*
X3353308Y2065273D01*
X3360674Y2061718D01*
X3375152Y2061718D01*
X3382518Y2065273D01*
X3389629Y2072639D01*
X3393440Y2080005D01*
X3473450Y2138171D02*
G01*
X3473450Y2061718D01*
X3497325Y2138171D02*
G01*
X3497325Y2061718D01*
X3497325Y2138171D02*
G01*
X3548379Y2061718D01*
X3548379Y2138171D02*
G01*
X3548379Y2061718D01*
X3626865Y2119884D02*
G01*
X3623056Y2127250D01*
X3615943Y2134615D01*
X3608577Y2138171D01*
X3594100Y2138171D01*
X3586734Y2134615D01*
X3579622Y2127250D01*
X3575811Y2119884D01*
X3572256Y2108962D01*
X3572256Y2090928D01*
X3575811Y2080005D01*
X3579622Y2072639D01*
X3586734Y2065273D01*
X3594100Y2061718D01*
X3608577Y2061718D01*
X3615943Y2065273D01*
X3623056Y2072639D01*
X3626865Y2080005D01*
X622300Y3821937D02*
G01*
X622300Y3753865D01*
X626871Y3740150D01*
X636015Y3731005D01*
X649478Y3726434D01*
X658621Y3726434D01*
X672337Y3731005D01*
X681481Y3740150D01*
X686054Y3753865D01*
X686054Y3821937D01*
X720597Y3799331D02*
G01*
X720597Y3803904D01*
X724915Y3813047D01*
X729487Y3817365D01*
X738631Y3821937D01*
X756920Y3821937D01*
X766063Y3817365D01*
X770381Y3813047D01*
X774954Y3803904D01*
X774954Y3794760D01*
X770381Y3785615D01*
X761492Y3771900D01*
X716026Y3726434D01*
X779526Y3726434D01*
X1930400Y4075937D02*
G01*
X1930400Y3980434D01*
X1930400Y4075937D02*
G01*
X1962150Y4075937D01*
X1975865Y4071365D01*
X1985009Y4062476D01*
X1989581Y4053331D01*
X1994154Y4039615D01*
X1994154Y4017010D01*
X1989581Y4003294D01*
X1985009Y3994150D01*
X1975865Y3985005D01*
X1962150Y3980434D01*
X1930400Y3980434D01*
X2028697Y4053331D02*
G01*
X2028697Y4057904D01*
X2033015Y4066794D01*
X2037588Y4071365D01*
X2046731Y4075937D01*
X2065020Y4075937D01*
X2073909Y4071365D01*
X2078481Y4066794D01*
X2083054Y4057904D01*
X2083054Y4048760D01*
X2078481Y4039615D01*
X2069591Y4025900D01*
X2024125Y3980434D01*
X2087625Y3980434D01*
X2946400Y4075937D02*
G01*
X2946400Y3980434D01*
X2946400Y4075937D02*
G01*
X2978150Y4075937D01*
X2991865Y4071365D01*
X3001009Y4062476D01*
X3005581Y4053331D01*
X3010154Y4039615D01*
X3010154Y4017010D01*
X3005581Y4003294D01*
X3001009Y3994150D01*
X2991865Y3985005D01*
X2978150Y3980434D01*
X2946400Y3980434D01*
X3049015Y4075937D02*
G01*
X3099054Y4075937D01*
X3071875Y4039615D01*
X3085591Y4039615D01*
X3094481Y4035044D01*
X3099054Y4030471D01*
X3103625Y4017010D01*
X3103625Y4007865D01*
X3099054Y3994150D01*
X3089909Y3985005D01*
X3076447Y3980434D01*
X3062731Y3980434D01*
X3049015Y3985005D01*
X3044697Y3989578D01*
X3040125Y3998721D01*
X4064005Y5536437D02*
G01*
X4064005Y5440934D01*
X4064005Y5536437D02*
G01*
X4104893Y5536437D01*
X4118609Y5531865D01*
X4123181Y5527294D01*
X4127756Y5518404D01*
X4127756Y5509260D01*
X4123181Y5500115D01*
X4118609Y5495544D01*
X4104893Y5490971D01*
X4064005Y5490971D01*
X4095755Y5490971D02*
G01*
X4127756Y5440934D01*
X4157725Y5518404D02*
G01*
X4166615Y5522976D01*
X4180331Y5536437D01*
X4180331Y5440934D01*
X3695700Y5536437D02*
G01*
X3695700Y5440934D01*
X3695700Y5536437D02*
G01*
X3727450Y5536437D01*
X3741165Y5531865D01*
X3750309Y5522976D01*
X3754881Y5513831D01*
X3759454Y5500115D01*
X3759454Y5477510D01*
X3754881Y5463794D01*
X3750309Y5454650D01*
X3741165Y5445505D01*
X3727450Y5440934D01*
X3695700Y5440934D01*
X3789425Y5518404D02*
G01*
X3798315Y5522976D01*
X3812031Y5536437D01*
X3812031Y5440934D01*
X2456301Y3874515D02*
G01*
X2456301Y3796537D01*
X2461381Y3781044D01*
X2471795Y3770629D01*
X2487543Y3765550D01*
X2497957Y3765550D01*
X2513451Y3770629D01*
X2523865Y3781044D01*
X2528945Y3796537D01*
X2528945Y3874515D01*
X2563235Y3853687D02*
G01*
X2573649Y3859021D01*
X2589397Y3874515D01*
X2589397Y3765550D01*
X1066840Y494553D02*
G01*
X1066840Y399049D01*
X1066840Y494553D02*
G01*
X1107734Y494553D01*
X1121450Y489981D01*
X1126022Y485409D01*
X1130340Y476519D01*
X1130340Y467375D01*
X1126022Y458231D01*
X1121450Y453659D01*
X1107734Y449087D01*
X1066840Y449087D01*
X1098590Y449087D02*
G01*
X1130340Y399049D01*
X1224066Y494553D02*
G01*
X1178600Y399049D01*
X1160566Y494553D02*
G01*
X1224066Y494553D01*
X1828820Y494545D02*
G01*
X1828820Y399295D01*
X1828820Y494545D02*
G01*
X1869714Y494545D01*
X1883430Y489973D01*
X1888002Y485655D01*
X1892574Y476511D01*
X1892574Y467367D01*
X1888002Y458223D01*
X1883430Y453651D01*
X1869714Y449079D01*
X1828820Y449079D01*
X1860570Y449079D02*
G01*
X1892574Y399295D01*
X1945152Y494545D02*
G01*
X1931436Y489973D01*
X1927118Y481083D01*
X1927118Y471939D01*
X1931436Y462795D01*
X1940580Y458223D01*
X1958868Y453651D01*
X1972330Y449079D01*
X1981474Y440189D01*
X1986046Y431045D01*
X1986046Y417329D01*
X1981474Y408185D01*
X1976902Y403613D01*
X1963440Y399295D01*
X1945152Y399295D01*
X1931436Y403613D01*
X1927118Y408185D01*
X1922546Y417329D01*
X1922546Y431045D01*
X1927118Y440189D01*
X1936008Y449079D01*
X1949724Y453651D01*
X1968012Y458223D01*
X1976902Y462795D01*
X1981474Y471939D01*
X1981474Y481083D01*
X1976902Y489973D01*
X1963440Y494545D01*
X1945152Y494545D01*
X2590820Y494545D02*
G01*
X2590820Y399295D01*
X2590820Y494545D02*
G01*
X2631714Y494545D01*
X2645430Y489973D01*
X2650002Y485655D01*
X2654574Y476511D01*
X2654574Y467367D01*
X2650002Y458223D01*
X2645430Y453651D01*
X2631714Y449079D01*
X2590820Y449079D01*
X2622570Y449079D02*
G01*
X2654574Y399295D01*
X2743474Y462795D02*
G01*
X2738902Y449079D01*
X2730012Y440189D01*
X2716296Y435617D01*
X2711724Y435617D01*
X2698008Y440189D01*
X2689118Y449079D01*
X2684546Y462795D01*
X2684546Y467367D01*
X2689118Y481083D01*
X2698008Y489973D01*
X2711724Y494545D01*
X2716296Y494545D01*
X2730012Y489973D01*
X2738902Y481083D01*
X2743474Y462795D01*
X2743474Y440189D01*
X2738902Y417329D01*
X2730012Y403613D01*
X2716296Y399295D01*
X2707152Y399295D01*
X2693436Y403613D01*
X2689118Y412757D01*
X3352820Y494545D02*
G01*
X3352820Y399295D01*
X3352820Y494545D02*
G01*
X3393714Y494545D01*
X3407430Y489973D01*
X3412002Y485655D01*
X3416574Y476511D01*
X3416574Y467367D01*
X3412002Y458223D01*
X3407430Y453651D01*
X3393714Y449079D01*
X3352820Y449079D01*
X3384570Y449079D02*
G01*
X3416574Y399295D01*
X3446546Y476511D02*
G01*
X3455436Y481083D01*
X3469152Y494545D01*
X3469152Y399295D01*
X3526556Y494545D02*
G01*
X3512840Y489973D01*
X3503696Y476511D01*
X3499124Y453651D01*
X3499124Y440189D01*
X3503696Y417329D01*
X3512840Y403613D01*
X3526556Y399295D01*
X3535446Y399295D01*
X3549162Y403613D01*
X3558306Y417329D01*
X3562878Y440189D01*
X3562878Y453651D01*
X3558306Y476511D01*
X3549162Y489973D01*
X3535446Y494545D01*
X3526556Y494545D01*
X4114820Y494545D02*
G01*
X4114820Y399295D01*
X4114820Y494545D02*
G01*
X4155714Y494545D01*
X4169430Y489973D01*
X4174002Y485655D01*
X4178574Y476511D01*
X4178574Y467367D01*
X4174002Y458223D01*
X4169430Y453651D01*
X4155714Y449079D01*
X4114820Y449079D01*
X4146570Y449079D02*
G01*
X4178574Y399295D01*
X4208546Y476511D02*
G01*
X4217436Y481083D01*
X4231152Y494545D01*
X4231152Y399295D01*
X4261124Y476511D02*
G01*
X4270268Y481083D01*
X4283984Y494545D01*
X4283984Y399295D01*
X4208272Y3481831D02*
G01*
X4203954Y3490976D01*
X4194809Y3499865D01*
X4185665Y3504437D01*
X4167377Y3504437D01*
X4158488Y3499865D01*
X4149343Y3490976D01*
X4144772Y3481831D01*
X4140200Y3468115D01*
X4140200Y3445510D01*
X4144772Y3431794D01*
X4149343Y3422650D01*
X4158488Y3413505D01*
X4167377Y3408934D01*
X4185665Y3408934D01*
X4194809Y3413505D01*
X4203954Y3422650D01*
X4208272Y3431794D01*
X4247388Y3504437D02*
G01*
X4297425Y3504437D01*
X4270247Y3468115D01*
X4283709Y3468115D01*
X4292854Y3463544D01*
X4297425Y3458971D01*
X4301997Y3445510D01*
X4301997Y3436365D01*
X4297425Y3422650D01*
X4288281Y3413505D01*
X4274820Y3408934D01*
X4261104Y3408934D01*
X4247388Y3413505D01*
X4242815Y3418078D01*
X4238497Y3427221D01*
X4216400Y3898137D02*
G01*
X4216400Y3802634D01*
X4216400Y3898137D02*
G01*
X4248150Y3898137D01*
X4261865Y3893565D01*
X4271009Y3884676D01*
X4275581Y3875531D01*
X4280154Y3861815D01*
X4280154Y3839210D01*
X4275581Y3825494D01*
X4271009Y3816350D01*
X4261865Y3807205D01*
X4248150Y3802634D01*
X4216400Y3802634D01*
X4355591Y3898137D02*
G01*
X4310125Y3834637D01*
X4378197Y3834637D01*
X4355591Y3898137D02*
G01*
X4355591Y3802634D01*
X4208272Y2923031D02*
G01*
X4203954Y2932176D01*
X4194809Y2941065D01*
X4185665Y2945637D01*
X4167377Y2945637D01*
X4158488Y2941065D01*
X4149343Y2932176D01*
X4144772Y2923031D01*
X4140200Y2909315D01*
X4140200Y2886710D01*
X4144772Y2872994D01*
X4149343Y2863850D01*
X4158488Y2854705D01*
X4167377Y2850134D01*
X4185665Y2850134D01*
X4194809Y2854705D01*
X4203954Y2863850D01*
X4208272Y2872994D01*
X4283709Y2945637D02*
G01*
X4238497Y2882137D01*
X4306570Y2882137D01*
X4283709Y2945637D02*
G01*
X4283709Y2850134D01*
X1858771Y3469131D02*
G01*
X1854454Y3478276D01*
X1845310Y3487165D01*
X1836165Y3491737D01*
X1817878Y3491737D01*
X1808987Y3487165D01*
X1799844Y3478276D01*
X1795271Y3469131D01*
X1790700Y3455415D01*
X1790700Y3432810D01*
X1795271Y3419094D01*
X1799844Y3409950D01*
X1808987Y3400805D01*
X1817878Y3396234D01*
X1836165Y3396234D01*
X1845310Y3400805D01*
X1854454Y3409950D01*
X1858771Y3419094D01*
X1888997Y3473704D02*
G01*
X1897887Y3478276D01*
X1911604Y3491737D01*
X1911604Y3396234D01*
X1858771Y2923031D02*
G01*
X1854454Y2932176D01*
X1845310Y2941065D01*
X1836165Y2945637D01*
X1817878Y2945637D01*
X1808987Y2941065D01*
X1799844Y2932176D01*
X1795271Y2923031D01*
X1790700Y2909315D01*
X1790700Y2886710D01*
X1795271Y2872994D01*
X1799844Y2863850D01*
X1808987Y2854705D01*
X1817878Y2850134D01*
X1836165Y2850134D01*
X1845310Y2854705D01*
X1854454Y2863850D01*
X1858771Y2872994D01*
X1893315Y2923031D02*
G01*
X1893315Y2927604D01*
X1897887Y2936494D01*
X1902460Y2941065D01*
X1911604Y2945637D01*
X1929892Y2945637D01*
X1938781Y2941065D01*
X1943354Y2936494D01*
X1947925Y2927604D01*
X1947925Y2918460D01*
X1943354Y2909315D01*
X1934209Y2895600D01*
X1888997Y2850134D01*
X1952497Y2850134D01*
X4546600Y4215637D02*
G01*
X4546600Y4120134D01*
X4546600Y4215637D02*
G01*
X4587493Y4215637D01*
X4601209Y4211065D01*
X4605781Y4206494D01*
X4610354Y4197604D01*
X4610354Y4188460D01*
X4605781Y4179315D01*
X4601209Y4174744D01*
X4587493Y4170171D01*
X4546600Y4170171D01*
X4578350Y4170171D02*
G01*
X4610354Y4120134D01*
X4694681Y4202176D02*
G01*
X4690109Y4211065D01*
X4676647Y4215637D01*
X4667504Y4215637D01*
X4653788Y4211065D01*
X4644897Y4197604D01*
X4640325Y4174744D01*
X4640325Y4152137D01*
X4644897Y4133850D01*
X4653788Y4124705D01*
X4667504Y4120134D01*
X4672075Y4120134D01*
X4685791Y4124705D01*
X4694681Y4133850D01*
X4699254Y4147565D01*
X4699254Y4152137D01*
X4694681Y4165600D01*
X4685791Y4174744D01*
X4672075Y4179315D01*
X4667504Y4179315D01*
X4653788Y4174744D01*
X4644897Y4165600D01*
X4640325Y4152137D01*
X1731771Y3799331D02*
G01*
X1727454Y3808476D01*
X1718310Y3817365D01*
X1709165Y3821937D01*
X1690878Y3821937D01*
X1681987Y3817365D01*
X1672844Y3808476D01*
X1668271Y3799331D01*
X1663700Y3785615D01*
X1663700Y3763010D01*
X1668271Y3749294D01*
X1672844Y3740150D01*
X1681987Y3731005D01*
X1690878Y3726434D01*
X1709165Y3726434D01*
X1718310Y3731005D01*
X1727454Y3740150D01*
X1731771Y3749294D01*
X1816354Y3821937D02*
G01*
X1770887Y3821937D01*
X1766315Y3781044D01*
X1770887Y3785615D01*
X1784604Y3790187D01*
X1798320Y3790187D01*
X1811781Y3785615D01*
X1820926Y3776471D01*
X1825497Y3763010D01*
X1825497Y3753865D01*
X1820926Y3740150D01*
X1811781Y3731005D01*
X1798320Y3726434D01*
X1784604Y3726434D01*
X1770887Y3731005D01*
X1766315Y3735578D01*
X1761997Y3744721D01*
X2667000Y3936237D02*
G01*
X2667000Y3840734D01*
X2667000Y3936237D02*
G01*
X2707893Y3936237D01*
X2721609Y3931665D01*
X2726181Y3927094D01*
X2730754Y3918204D01*
X2730754Y3909060D01*
X2726181Y3899915D01*
X2721609Y3895344D01*
X2707893Y3890771D01*
X2667000Y3890771D01*
X2698750Y3890771D02*
G01*
X2730754Y3840734D01*
X2760725Y3918204D02*
G01*
X2769615Y3922776D01*
X2783331Y3936237D01*
X2783331Y3840734D01*
X2817875Y3913631D02*
G01*
X2817875Y3918204D01*
X2822447Y3927094D01*
X2827020Y3931665D01*
X2836163Y3936237D01*
X2854197Y3936237D01*
X2863341Y3931665D01*
X2867913Y3927094D01*
X2872486Y3918204D01*
X2872486Y3909060D01*
X2867913Y3899915D01*
X2858770Y3886200D01*
X2813304Y3840734D01*
X2877058Y3840734D01*
X3483609Y3923537D02*
G01*
X3483609Y3828034D01*
X3483609Y3923537D02*
G01*
X3524504Y3923537D01*
X3538220Y3918965D01*
X3542791Y3914394D01*
X3547363Y3905504D01*
X3547363Y3896360D01*
X3542791Y3887215D01*
X3538220Y3882644D01*
X3524504Y3878071D01*
X3483609Y3878071D01*
X3515613Y3878071D02*
G01*
X3547363Y3828034D01*
X3577336Y3905504D02*
G01*
X3586479Y3910076D01*
X3600195Y3923537D01*
X3600195Y3828034D01*
X3639058Y3923537D02*
G01*
X3689095Y3923537D01*
X3661918Y3887215D01*
X3675634Y3887215D01*
X3684524Y3882644D01*
X3689095Y3878071D01*
X3693668Y3864610D01*
X3693668Y3855465D01*
X3689095Y3841750D01*
X3679952Y3832605D01*
X3666490Y3828034D01*
X3652774Y3828034D01*
X3639058Y3832605D01*
X3634740Y3837178D01*
X3630168Y3846321D01*
X2057400Y3821937D02*
G01*
X2057400Y3726434D01*
X2057400Y3821937D02*
G01*
X2098293Y3821937D01*
X2112009Y3817365D01*
X2116581Y3812794D01*
X2121154Y3803904D01*
X2121154Y3794760D01*
X2116581Y3785615D01*
X2112009Y3781044D01*
X2098293Y3776471D01*
X2057400Y3776471D01*
X2089150Y3776471D02*
G01*
X2121154Y3726434D01*
X2155697Y3799331D02*
G01*
X2155697Y3803904D01*
X2160015Y3812794D01*
X2164588Y3817365D01*
X2173731Y3821937D01*
X2192020Y3821937D01*
X2200909Y3817365D01*
X2205481Y3812794D01*
X2210054Y3803904D01*
X2210054Y3794760D01*
X2205481Y3785615D01*
X2196591Y3771900D01*
X2151125Y3726434D01*
X2214625Y3726434D01*
X1790700Y2780537D02*
G01*
X1790700Y2685034D01*
X1790700Y2780537D02*
G01*
X1831594Y2780537D01*
X1845310Y2775965D01*
X1849881Y2771394D01*
X1854454Y2762504D01*
X1854454Y2753360D01*
X1849881Y2744215D01*
X1845310Y2739644D01*
X1831594Y2735071D01*
X1790700Y2735071D01*
X1822450Y2735071D02*
G01*
X1854454Y2685034D01*
X1893315Y2780537D02*
G01*
X1943354Y2780537D01*
X1916176Y2744215D01*
X1929892Y2744215D01*
X1938781Y2739644D01*
X1943354Y2735071D01*
X1947925Y2721610D01*
X1947925Y2712465D01*
X1943354Y2698750D01*
X1934209Y2689605D01*
X1920747Y2685034D01*
X1907031Y2685034D01*
X1893315Y2689605D01*
X1888997Y2694178D01*
X1884426Y2703321D01*
X4152900Y3669537D02*
G01*
X4152900Y3574034D01*
X4152900Y3669537D02*
G01*
X4193793Y3669537D01*
X4207509Y3664965D01*
X4212081Y3660394D01*
X4216654Y3651504D01*
X4216654Y3642360D01*
X4212081Y3633215D01*
X4207509Y3628644D01*
X4193793Y3624071D01*
X4152900Y3624071D01*
X4184650Y3624071D02*
G01*
X4216654Y3574034D01*
X4292091Y3669537D02*
G01*
X4246625Y3606037D01*
X4314697Y3606037D01*
X4292091Y3669537D02*
G01*
X4292091Y3574034D01*
X4152900Y2780537D02*
G01*
X4152900Y2685034D01*
X4152900Y2780537D02*
G01*
X4193793Y2780537D01*
X4207509Y2775965D01*
X4212081Y2771394D01*
X4216654Y2762504D01*
X4216654Y2753360D01*
X4212081Y2744215D01*
X4207509Y2739644D01*
X4193793Y2735071D01*
X4152900Y2735071D01*
X4184650Y2735071D02*
G01*
X4216654Y2685034D01*
X4300981Y2780537D02*
G01*
X4255515Y2780537D01*
X4251197Y2739644D01*
X4255515Y2744215D01*
X4269231Y2748787D01*
X4282947Y2748787D01*
X4296409Y2744215D01*
X4305554Y2735071D01*
X4310125Y2721610D01*
X4310125Y2712465D01*
X4305554Y2698750D01*
X4296409Y2689605D01*
X4282947Y2685034D01*
X4269231Y2685034D01*
X4255515Y2689605D01*
X4251197Y2694178D01*
X4246625Y2703321D01*
G36*
X0Y5842000D02*
G01*
X0Y5588000D01*
X254000Y5842000D01*
G37*
G36*
X0Y254000D02*
G01*
X0Y0D01*
X254000Y0D01*
G37*
G36*
X5842000Y254000D02*
G01*
X5588000Y0D01*
X5842000Y0D01*
G37*
G36*
X5588000Y5842000D02*
G01*
X5842000Y5588000D01*
X5842000Y5842000D01*
G37*
G36*
X3798925Y3942334D02*
G01*
X3798925Y3912819D01*
X3829405Y3912819D01*
X3829405Y3942334D01*
G37*
G36*
X3798925Y3783380D02*
G01*
X3798925Y3753865D01*
X3829405Y3753865D01*
X3829405Y3783380D01*
G37*
D12*
X4066540Y1524000D02*
G01*
X4216400Y1524000D01*
X4216400Y1778000D01*
X4318000Y1778000D01*
X3784600Y1892300D02*
G01*
X3479800Y1892300D01*
X3175000Y1892300D02*
G01*
X2870200Y1892300D01*
X2870200Y1943100D02*
G01*
X2870200Y1841500D01*
X2870200Y1892300D02*
G01*
X2578100Y1892300D01*
X2324100Y1892300D02*
G01*
X2032000Y1892300D01*
X1270000Y1524000D02*
G01*
X2032000Y1524000D01*
X2032000Y1778000D01*
X2870200Y1778000D01*
X2870200Y1524000D01*
X4064000Y1524000D01*
X1270000Y2032000D02*
G01*
X1524000Y2032000D01*
X1524000Y2286000D01*
X3225800Y2286000D01*
X3225800Y2032000D01*
X3556000Y2032000D01*
X3797300Y1943100D02*
G01*
X3797300Y1841500D01*
X2032000Y1943100D02*
G01*
X2032000Y1841500D01*
X1638300Y1892300D02*
G01*
X1524000Y1892300D01*
X2032000Y1892300D02*
G01*
X1917700Y1892300D01*
X1524000Y1943100D02*
G01*
X1524000Y1841500D01*
X3225800Y2400053D02*
G01*
X2527300Y2400053D01*
X2222500Y2400300D02*
G01*
X1524000Y2400300D01*
X3225800Y2451100D02*
G01*
X3225800Y2349500D01*
X1524000Y2451100D02*
G01*
X1524000Y2349500D01*
X3556000Y2032000D02*
G01*
X3797300Y2032000D01*
X3797300Y2286000D01*
X4318000Y2286000D01*
X3898900Y5156200D02*
G01*
X3975100Y5156200D01*
X3644900Y5156200D02*
G01*
X3721100Y5156200D01*
X2882900Y5156200D02*
G01*
X2959100Y5156200D01*
X2628900Y5156200D02*
G01*
X2705100Y5156200D01*
X1226820Y3672839D02*
G01*
X1333500Y3672839D01*
X1333500Y2798500D01*
X1333500Y2798500D02*
G01*
X953348Y2798500D01*
X953348Y2798500D02*
G01*
X953348Y3670300D01*
X1061720Y3670300D01*
D13*
X2302995Y4026123D02*
G01*
X2268994Y4026123D01*
X2110988Y3990896D02*
G01*
X2110988Y3980893D01*
X2140983Y3950891D01*
X2325989Y4100898D02*
G01*
X2440993Y4100898D01*
X2325989Y3950891D02*
G01*
X2440993Y3950891D01*
X2245992Y4100898D02*
G01*
X2140983Y4100898D01*
X2245992Y3950891D02*
G01*
X2140983Y3950891D01*
X2440993Y4100885D02*
G01*
X2440993Y3952895D01*
X2110988Y4060888D02*
G01*
X2110988Y3990896D01*
X2110988Y4060888D02*
G01*
X2110988Y4070903D01*
X2140983Y4100898D01*
X2302995Y4060896D02*
G01*
X2302995Y3992897D01*
X3318995Y4026123D02*
G01*
X3284994Y4026123D01*
X3126988Y3990896D02*
G01*
X3126988Y3980893D01*
X3156983Y3950891D01*
X3341989Y4100898D02*
G01*
X3456993Y4100898D01*
X3341989Y3950891D02*
G01*
X3456993Y3950891D01*
X3261992Y4100898D02*
G01*
X3156983Y4100898D01*
X3261992Y3950891D02*
G01*
X3156983Y3950891D01*
X3456993Y4100885D02*
G01*
X3456993Y3952895D01*
X3126988Y4060888D02*
G01*
X3126988Y3990896D01*
X3126988Y4060888D02*
G01*
X3126988Y4070903D01*
X3156983Y4100898D01*
X3318995Y4060896D02*
G01*
X3318995Y3992897D01*
D12*
X4074033Y5570987D02*
G01*
X4074033Y5730991D01*
X4384093Y5571497D02*
G01*
X4384093Y5731502D01*
X4199028Y5730991D02*
G01*
X4074033Y5730991D01*
X4199028Y5570987D02*
G01*
X4074033Y5570987D01*
X4259092Y5731502D02*
G01*
X4384093Y5731502D01*
X4259092Y5571497D02*
G01*
X4384093Y5571497D01*
D13*
X3890495Y5651723D02*
G01*
X3856494Y5651723D01*
X3698488Y5616496D02*
G01*
X3698488Y5606493D01*
X3728483Y5576491D01*
X3913489Y5726498D02*
G01*
X4028493Y5726498D01*
X3913489Y5576491D02*
G01*
X4028493Y5576491D01*
X3833492Y5726498D02*
G01*
X3728483Y5726498D01*
X3833492Y5576491D02*
G01*
X3728483Y5576491D01*
X4028493Y5726485D02*
G01*
X4028493Y5578495D01*
X3698488Y5686488D02*
G01*
X3698488Y5616496D01*
X3698488Y5686488D02*
G01*
X3698488Y5696503D01*
X3728483Y5726498D01*
X3890495Y5686496D02*
G01*
X3890495Y5618497D01*
D14*
X3347999Y3685006D02*
G01*
X2707995Y3685006D01*
X2707995Y2664993D01*
X3377996Y2664993D01*
X3377996Y3685006D01*
X3347999Y3685006D01*
D12*
X1401000Y988999D02*
G01*
X1401000Y789000D01*
X1301000Y889000D02*
G01*
X1501000Y889000D01*
X1051001Y1238986D02*
G01*
X1750999Y1238986D01*
X1750999Y538987D01*
X1051001Y538987D01*
X1051001Y1238986D01*
X2163000Y988999D02*
G01*
X2163000Y789000D01*
X2063000Y889000D02*
G01*
X2263000Y889000D01*
X1813001Y1238986D02*
G01*
X2512999Y1238986D01*
X2512999Y538987D01*
X1813001Y538987D01*
X1813001Y1238986D01*
X2925000Y988999D02*
G01*
X2925000Y789000D01*
X2825000Y889000D02*
G01*
X3025000Y889000D01*
X2575001Y1238986D02*
G01*
X3274999Y1238986D01*
X3274999Y538987D01*
X2575001Y538987D01*
X2575001Y1238986D01*
X3687000Y988999D02*
G01*
X3687000Y789000D01*
X3587000Y889000D02*
G01*
X3787000Y889000D01*
X3337001Y1238986D02*
G01*
X4036999Y1238986D01*
X4036999Y538987D01*
X3337001Y538987D01*
X3337001Y1238986D01*
X4449000Y988999D02*
G01*
X4449000Y789000D01*
X4349000Y889000D02*
G01*
X4549000Y889000D01*
X4099001Y1238986D02*
G01*
X4798999Y1238986D01*
X4798999Y538987D01*
X4099001Y538987D01*
X4099001Y1238986D01*
X3823398Y3414422D02*
G01*
X3823398Y3494425D01*
X3934373Y3383437D02*
G01*
X3854376Y3383437D01*
X3934373Y3525403D02*
G01*
X3854376Y3525403D01*
X3991963Y3382855D02*
G01*
X4071960Y3382855D01*
X4102945Y3413838D02*
G01*
X4102945Y3493836D01*
X3991963Y3524816D02*
G01*
X4071960Y3524816D01*
D10*
X3821780Y3934719D02*
G01*
X4103019Y3934719D01*
X4103019Y3934719D02*
G01*
X4103019Y3917919D01*
X3821780Y3761480D02*
G01*
X4103019Y3761480D01*
X4103019Y3761480D02*
G01*
X4103019Y3778280D01*
X3857470Y3934719D02*
G01*
X3857470Y3761480D01*
D12*
X4101401Y2935577D02*
G01*
X4101401Y2855574D01*
X3990426Y2966562D02*
G01*
X4070423Y2966562D01*
X3990426Y2824596D02*
G01*
X4070423Y2824596D01*
X3932836Y2967144D02*
G01*
X3852839Y2967144D01*
X3821854Y2936161D02*
G01*
X3821854Y2856163D01*
X3932836Y2825183D02*
G01*
X3852839Y2825183D01*
X1994598Y3414422D02*
G01*
X1994598Y3494425D01*
X2105573Y3383437D02*
G01*
X2025576Y3383437D01*
X2105573Y3525403D02*
G01*
X2025576Y3525403D01*
X2163163Y3382855D02*
G01*
X2243160Y3382855D01*
X2274145Y3413838D02*
G01*
X2274145Y3493836D01*
X2163163Y3524816D02*
G01*
X2243160Y3524816D01*
X2272601Y2935577D02*
G01*
X2272601Y2855574D01*
X2161626Y2966562D02*
G01*
X2241623Y2966562D01*
X2161626Y2824596D02*
G01*
X2241623Y2824596D01*
X2104036Y2967144D02*
G01*
X2024039Y2967144D01*
X1993054Y2936161D02*
G01*
X1993054Y2856163D01*
X2104036Y2825183D02*
G01*
X2024039Y2825183D01*
D10*
X4589221Y3959839D02*
G01*
X4685108Y3959839D01*
X4685108Y4091960D01*
X4589221Y4091960D01*
X4503978Y3959839D02*
G01*
X4408091Y3959839D01*
X4408091Y4091960D01*
X4503978Y4091960D01*
D12*
X1600898Y3579522D02*
G01*
X1600898Y3659525D01*
X1711873Y3548537D02*
G01*
X1631876Y3548537D01*
X1711873Y3690503D02*
G01*
X1631876Y3690503D01*
X1769463Y3547955D02*
G01*
X1849460Y3547955D01*
X1880445Y3578938D02*
G01*
X1880445Y3658936D01*
X1769463Y3689916D02*
G01*
X1849460Y3689916D01*
D10*
X2586278Y4091960D02*
G01*
X2490391Y4091960D01*
X2490391Y3959839D01*
X2586278Y3959839D01*
X2671521Y4091960D02*
G01*
X2767408Y4091960D01*
X2767408Y3959839D01*
X2671521Y3959839D01*
X3602278Y4091960D02*
G01*
X3506391Y4091960D01*
X3506391Y3959839D01*
X3602278Y3959839D01*
X3687521Y4091960D02*
G01*
X3783408Y4091960D01*
X3783408Y3959839D01*
X3687521Y3959839D01*
X2090978Y3685560D02*
G01*
X1995091Y3685560D01*
X1995091Y3553439D01*
X2090978Y3553439D01*
X2176221Y3685560D02*
G01*
X2272108Y3685560D01*
X2272108Y3553439D01*
X2176221Y3553439D01*
X2090978Y2796560D02*
G01*
X1995091Y2796560D01*
X1995091Y2664439D01*
X2090978Y2664439D01*
X2176221Y2796560D02*
G01*
X2272108Y2796560D01*
X2272108Y2664439D01*
X2176221Y2664439D01*
X4005026Y3553444D02*
G01*
X4100913Y3553444D01*
X4100913Y3685565D01*
X4005026Y3685565D01*
X3919783Y3553444D02*
G01*
X3823896Y3553444D01*
X3823896Y3685565D01*
X3919783Y3685565D01*
X4005026Y2664444D02*
G01*
X4100913Y2664444D01*
X4100913Y2796565D01*
X4005026Y2796565D01*
X3919783Y2664444D02*
G01*
X3823896Y2664444D01*
X3823896Y2796565D01*
X3919783Y2796565D01*
D12*
G75*
G01*
X1226820Y3672840D02*
G02*
X1066800Y3670300I-79971J-3742D01*
D15*
G75*
G01*
X2552954Y3705098D02*
G03*
X2552954Y3704844I-14999J-127D01*
D16*
G75*
G01*
X2828000Y3594999D02*
G03*
X2828000Y3594237I-29997J-381D01*
D12*
G75*
G01*
X4102951Y3413839D02*
G02*
X4071968Y3382856I-30983J0D01*
G75*
G01*
X4071968Y3524822D02*
G02*
X4102951Y3493836I0J-30983D01*
G75*
G01*
X3854381Y3383437D02*
G02*
X3823399Y3414423I0J30983D01*
G75*
G01*
X3823399Y3494420D02*
G02*
X3854381Y3525403I30982J0D01*
G75*
G01*
X3821849Y2936161D02*
G02*
X3852832Y2967144I30983J0D01*
G75*
G01*
X3852832Y2825178D02*
G02*
X3821849Y2856164I0J30983D01*
G75*
G01*
X4070419Y2966563D02*
G02*
X4101401Y2935577I0J-30983D01*
G75*
G01*
X4101401Y2855580D02*
G02*
X4070419Y2824597I-30982J0D01*
G75*
G01*
X2274151Y3413839D02*
G02*
X2243168Y3382856I-30983J0D01*
G75*
G01*
X2243168Y3524822D02*
G02*
X2274151Y3493836I0J-30983D01*
G75*
G01*
X2025581Y3383437D02*
G02*
X1994599Y3414423I0J30983D01*
G75*
G01*
X1994599Y3494420D02*
G02*
X2025581Y3525403I30982J0D01*
G75*
G01*
X1993049Y2936161D02*
G02*
X2024032Y2967144I30983J0D01*
G75*
G01*
X2024032Y2825178D02*
G02*
X1993049Y2856164I0J30983D01*
G75*
G01*
X2241619Y2966563D02*
G02*
X2272601Y2935577I0J-30983D01*
G75*
G01*
X2272601Y2855580D02*
G02*
X2241619Y2824597I-30982J0D01*
G75*
G01*
X1880451Y3578939D02*
G02*
X1849468Y3547956I-30983J0D01*
G75*
G01*
X1849468Y3689922D02*
G02*
X1880451Y3658936I0J-30983D01*
G75*
G01*
X1631881Y3548537D02*
G02*
X1600899Y3579523I0J30983D01*
G75*
G01*
X1600899Y3659520D02*
G02*
X1631881Y3690503I30982J0D01*
G75*
G01
X879297Y3746500D02*
G03X879297Y3746500I-28397J0D01*
X4445000Y5715000D02*
G01*
X4953000Y5715000D01*
X4953000Y5207000D01*
X4445000Y5207000D01*
X4445000Y5715000D01*
X4792472Y4271060D02*
G01*
X5367477Y4271060D01*
X5367477Y3171063D01*
X4792472Y3171063D01*
X4792472Y4271060D01*
X1617090Y4984292D02*
G01*
X4467097Y4984292D01*
X4467097Y4134281D01*
X1617090Y4134281D01*
X1617090Y4984292D01*
X4787900Y2705100D02*
G01*
X5362905Y2705100D01*
X5362905Y1605102D01*
X4787900Y1605102D01*
X4787900Y2705100D01*
M02*
