G04 Layer: BottomSolderMaskLayer*
G04 Panelize: , Column: 2, Row: 2, Board Size: 127.89mm x 58.42mm, Panelized Board Size: 257.78mm x 118.84mm*
G04 EasyEDA v6.5.34, 2023-09-01 23:34:49*
G04 d2f9a346f3944a8da2a00f25f54837ea,5a6b42c53f6a479593ecc07194224c93,10*
G04 Gerber Generator version 0.2*
G04 Scale: 100 percent, Rotated: No, Reflected: No *
G04 Dimensions in millimeters *
G04 leading zeros omitted , absolute positions ,4 integer and 5 decimal *
%FSLAX45Y45*%
%MOMM*%

%AMMACRO1*1,1,$1,$2,$3*1,1,$1,$4,$5*1,1,$1,0-$2,0-$3*1,1,$1,0-$4,0-$5*20,1,$1,$2,$3,$4,$5,0*20,1,$1,$4,$5,0-$2,0-$3,0*20,1,$1,0-$2,0-$3,0-$4,0-$5,0*20,1,$1,0-$4,0-$5,$2,$3,0*4,1,4,$2,$3,$4,$5,0-$2,0-$3,0-$4,0-$5,$2,$3,0*%
%ADD10MACRO1,0.1016X0.4X0.45X-0.4X0.45*%
%ADD11MACRO1,0.1016X-0.45X0.4X-0.45X-0.4*%
%ADD12MACRO1,0.1016X-0.4X-0.45X0.4X-0.45*%
%ADD13MACRO1,0.2032X-0.5X-0.55X0.5X-0.55*%
%ADD14MACRO1,0.2032X0.5X0.55X-0.5X0.55*%
%ADD15MACRO1,0.2032X-0.55X0.5X-0.55X-0.5*%
%ADD16R,1.3032X1.2032*%
%ADD17MACRO1,0.2032X0.55X-0.5X0.55X0.5*%
%ADD18O,2.1015960000000002X1.6015970000000002*%
%ADD19MACRO1,0.1016X-1X0.75X1X0.75*%
%ADD20O,2.1015960000000002X1.6256000000000002*%
%ADD21C,1.5240*%
%ADD22C,5.2032*%
%ADD23C,1.6256*%
%ADD24C,2.0016*%
%ADD25C,1.9016*%
%ADD26C,0.0193*%

%LPD*%
D10*
G01*
X10242379Y2806694D03*
G01*
X10382380Y2806694D03*
G01*
X10242379Y5714987D03*
G01*
X10382380Y5714987D03*
D11*
G01*
X5143489Y3866991D03*
G01*
X5143489Y4006990D03*
D12*
G01*
X5772290Y2832094D03*
G01*
X5632291Y2832094D03*
D13*
G01*
X7713304Y3731892D03*
G01*
X7553304Y3731892D03*
G01*
X7713304Y3985892D03*
G01*
X7553304Y3985892D03*
G01*
X7713304Y4239892D03*
G01*
X7553304Y4239892D03*
G01*
X7713304Y4493892D03*
G01*
X7553304Y4493892D03*
G01*
X7713304Y4747892D03*
G01*
X7553304Y4747892D03*
G01*
X7713304Y5001892D03*
G01*
X7553304Y5001892D03*
D14*
G01*
X7553289Y5255892D03*
G01*
X7713289Y5255892D03*
G01*
X4098274Y3731905D03*
G01*
X4258274Y3731905D03*
G01*
X4098274Y5001905D03*
G01*
X4258274Y5001905D03*
D13*
G01*
X4258289Y5255905D03*
G01*
X4098290Y5255905D03*
D14*
G01*
X4098274Y4747905D03*
G01*
X4258274Y4747905D03*
G01*
X4098274Y4493907D03*
G01*
X4258274Y4493907D03*
G01*
X4098274Y4239907D03*
G01*
X4258274Y4239907D03*
G01*
X4098274Y3985907D03*
G01*
X4258274Y3985907D03*
D15*
G01*
X5524124Y1680211D03*
D16*
G01*
X5524118Y1520215D03*
D15*
G01*
X4254124Y1680211D03*
D16*
G01*
X4254118Y1520215D03*
D17*
G01*
X4000124Y1520224D03*
G01*
X4000124Y1680222D03*
D15*
G01*
X4508124Y1680211D03*
D16*
G01*
X4508118Y1520215D03*
D15*
G01*
X4762121Y1680211D03*
D16*
G01*
X4762118Y1520215D03*
D15*
G01*
X5016121Y1680211D03*
D16*
G01*
X5016118Y1520215D03*
D15*
G01*
X5270121Y1680211D03*
D16*
G01*
X5270118Y1520215D03*
D17*
G01*
X5778121Y1520224D03*
G01*
X5778121Y1680222D03*
G01*
X8686812Y1680222D03*
G01*
X8686812Y1520224D03*
D15*
G01*
X8178812Y1520212D03*
G01*
X8178812Y1680211D03*
G01*
X7924812Y1520212D03*
G01*
X7924812Y1680211D03*
G01*
X7670812Y1520212D03*
G01*
X7670812Y1680211D03*
G01*
X7416815Y1520212D03*
G01*
X7416815Y1680211D03*
D17*
G01*
X6908815Y1680222D03*
G01*
X6908815Y1520224D03*
D15*
G01*
X7162815Y1520212D03*
G01*
X7162815Y1680211D03*
G01*
X8432815Y1520212D03*
G01*
X8432815Y1680211D03*
D14*
G01*
X2244090Y823597D03*
G01*
X2404088Y823597D03*
G01*
X2244090Y2093597D03*
G01*
X2404088Y2093597D03*
D13*
G01*
X2404099Y2347597D03*
G01*
X2244101Y2347597D03*
D14*
G01*
X2244090Y1839597D03*
G01*
X2404088Y1839597D03*
G01*
X2244090Y1585600D03*
G01*
X2404088Y1585600D03*
G01*
X2244090Y1331600D03*
G01*
X2404088Y1331600D03*
G01*
X2244090Y1077600D03*
G01*
X2404088Y1077600D03*
D13*
G01*
X2404099Y569600D03*
G01*
X2244101Y569600D03*
G01*
X2244101Y3478291D03*
G01*
X2404099Y3478291D03*
D14*
G01*
X2404088Y3986291D03*
G01*
X2244090Y3986291D03*
G01*
X2404088Y4240291D03*
G01*
X2244090Y4240291D03*
G01*
X2404088Y4494291D03*
G01*
X2244090Y4494291D03*
G01*
X2404088Y4748288D03*
G01*
X2244090Y4748288D03*
D13*
G01*
X2244101Y5256288D03*
G01*
X2404099Y5256288D03*
D14*
G01*
X2404088Y5002288D03*
G01*
X2244090Y5002288D03*
G01*
X2404088Y3732288D03*
G01*
X2244090Y3732288D03*
G01*
X10422872Y2349494D03*
G01*
X10582871Y2349494D03*
D13*
G01*
X10582887Y2095494D03*
G01*
X10422887Y2095494D03*
G01*
X10582887Y1841497D03*
G01*
X10422887Y1841497D03*
G01*
X10582887Y1587497D03*
G01*
X10422887Y1587497D03*
G01*
X10582887Y1333497D03*
G01*
X10422887Y1333497D03*
G01*
X10582887Y1079497D03*
G01*
X10422887Y1079497D03*
G01*
X10582887Y825497D03*
G01*
X10422887Y825497D03*
D14*
G01*
X10422872Y571500D03*
G01*
X10582871Y571500D03*
G01*
X10422872Y3479792D03*
G01*
X10582871Y3479792D03*
D13*
G01*
X10582887Y3733792D03*
G01*
X10422887Y3733792D03*
G01*
X10582887Y3987792D03*
G01*
X10422887Y3987792D03*
G01*
X10582887Y4241792D03*
G01*
X10422887Y4241792D03*
G01*
X10582887Y4495789D03*
G01*
X10422887Y4495789D03*
G01*
X10582887Y4749789D03*
G01*
X10422887Y4749789D03*
G01*
X10582887Y5003789D03*
G01*
X10422887Y5003789D03*
D14*
G01*
X10422872Y5257789D03*
G01*
X10582871Y5257789D03*
D18*
G01*
X9474174Y3479800D03*
G01*
X9474174Y3733800D03*
G01*
X9474174Y3987800D03*
G01*
X9474174Y4241800D03*
G01*
X9474174Y4495800D03*
G01*
X9474174Y4749800D03*
G01*
X9474174Y5003800D03*
G01*
X9474174Y5257800D03*
D19*
G01*
X9474179Y5511792D03*
D20*
G01*
X9474174Y3225800D03*
G01*
X10236174Y3225800D03*
G01*
X10236174Y3479800D03*
G01*
X10236174Y3733800D03*
G01*
X10236174Y3987800D03*
G01*
X10236174Y4241800D03*
G01*
X10236174Y4495800D03*
G01*
X10236174Y4749800D03*
G01*
X10236174Y5003800D03*
G01*
X10236174Y5257800D03*
G01*
X10236174Y5511800D03*
D18*
G01*
X9474174Y571500D03*
G01*
X9474174Y825500D03*
G01*
X9474174Y1079500D03*
G01*
X9474174Y1333500D03*
G01*
X9474174Y1587500D03*
G01*
X9474174Y1841500D03*
G01*
X9474174Y2095500D03*
G01*
X9474174Y2349500D03*
D19*
G01*
X9474179Y2603497D03*
D20*
G01*
X9474174Y317500D03*
G01*
X10236174Y317500D03*
G01*
X10236174Y571500D03*
G01*
X10236174Y825500D03*
G01*
X10236174Y1079500D03*
G01*
X10236174Y1333500D03*
G01*
X10236174Y1587500D03*
G01*
X10236174Y1841500D03*
G01*
X10236174Y2095500D03*
G01*
X10236174Y2349500D03*
G01*
X10236174Y2603500D03*
D21*
G01*
X4889500Y2374900D03*
G01*
X5143500Y2374900D03*
G01*
X5397500Y2374900D03*
G01*
X5651500Y2374900D03*
G01*
X5905500Y2374900D03*
G01*
X6159500Y2374900D03*
G01*
X6413500Y2374900D03*
G01*
X6667500Y2374900D03*
G01*
X6921500Y2374900D03*
G01*
X4635500Y2628900D03*
G01*
X4635500Y2882900D03*
G01*
X4635500Y3136900D03*
G01*
X4635500Y3390900D03*
G01*
X4635500Y3644900D03*
G01*
X4635500Y3898900D03*
G01*
X4635500Y4152900D03*
G01*
X4635500Y4406900D03*
G01*
X4635500Y4660900D03*
G01*
X4889500Y4914900D03*
G01*
X5143500Y4914900D03*
G01*
X5397500Y4914900D03*
G01*
X5651500Y4914900D03*
G01*
X5905500Y4914900D03*
G01*
X6159500Y4914900D03*
G01*
X6413500Y4914900D03*
G01*
X6667500Y4914900D03*
G01*
X6921500Y4914900D03*
G01*
X7175500Y4660900D03*
G01*
X7175500Y4406900D03*
G01*
X7175500Y4152900D03*
G01*
X7175500Y3898900D03*
G01*
X7175500Y3644900D03*
G01*
X7175500Y3390900D03*
G01*
X7175500Y3136900D03*
G01*
X7175500Y2882900D03*
G01*
X7175500Y2628900D03*
G01*
X4889500Y4660900D03*
G01*
X5143500Y4660900D03*
G01*
X5397500Y4660900D03*
G01*
X5651500Y4660900D03*
G01*
X5905500Y4660900D03*
G01*
X6159500Y4660900D03*
G01*
X6413500Y4660900D03*
G01*
X6667500Y4660900D03*
G01*
X6921500Y4660900D03*
G01*
X4889500Y4406900D03*
G01*
X4889500Y4152900D03*
G01*
X4889500Y3898900D03*
G01*
X4889500Y3644900D03*
G01*
X4889500Y3390900D03*
G01*
X4889500Y3136900D03*
G01*
X4889500Y2882900D03*
G01*
X4889500Y2628900D03*
G01*
X5143500Y2628900D03*
G01*
X5397500Y2628900D03*
G01*
X5651500Y2628900D03*
G01*
X5905500Y2628900D03*
G01*
X6159500Y2628900D03*
G01*
X6413500Y2628900D03*
G01*
X6667500Y2628900D03*
G01*
X6921500Y2628900D03*
G01*
X6921500Y2882900D03*
G01*
X6921500Y3136900D03*
G01*
X6921500Y3390900D03*
G01*
X6921500Y3644900D03*
G01*
X6921500Y3898900D03*
G01*
X6921500Y4152900D03*
G01*
X6921500Y4406900D03*
D22*
G01*
X381000Y5461000D03*
D23*
G01*
X2044674Y5255920D03*
G01*
X2044674Y4493920D03*
G01*
X1790674Y4491126D03*
G01*
X2044674Y4747920D03*
G01*
X1790674Y4745126D03*
G01*
X1790674Y3475126D03*
G01*
X2044674Y3477920D03*
G01*
X2044674Y3985920D03*
G01*
X1790674Y3983126D03*
G01*
X2044674Y4239920D03*
G01*
X1790674Y4237126D03*
G01*
X1790674Y4999126D03*
G01*
X2044674Y5001920D03*
G01*
X1790674Y3729126D03*
G01*
X2044674Y3731920D03*
G01*
X1787880Y5255920D03*
G01*
X1787905Y2347620D03*
G01*
X2044700Y823620D03*
G01*
X1790700Y820826D03*
G01*
X2044700Y2093620D03*
G01*
X1790700Y2090826D03*
G01*
X1790700Y1328826D03*
G01*
X2044700Y1331620D03*
G01*
X1790700Y1074826D03*
G01*
X2044700Y1077620D03*
G01*
X2044700Y569620D03*
G01*
X1790700Y566826D03*
G01*
X1790700Y1836826D03*
G01*
X2044700Y1839620D03*
G01*
X1790700Y1582826D03*
G01*
X2044700Y1585620D03*
G01*
X2044700Y2347620D03*
D24*
G01*
X956081Y3477920D03*
G01*
X956081Y3731920D03*
G01*
X956081Y3985920D03*
G01*
X956081Y4239920D03*
G01*
X956081Y4493920D03*
G01*
X956081Y4747920D03*
G01*
X956081Y5001920D03*
G01*
X956081Y5255920D03*
G01*
X956106Y2347620D03*
G01*
X956106Y2093620D03*
G01*
X956106Y1839620D03*
G01*
X956106Y1585620D03*
G01*
X956106Y1331620D03*
G01*
X956106Y1077620D03*
G01*
X956106Y823620D03*
G01*
X956106Y569620D03*
D23*
G01*
X10741431Y2347595D03*
G01*
X10998250Y2347595D03*
G01*
X10998250Y2093595D03*
G01*
X10741431Y2093595D03*
G01*
X10741431Y1839595D03*
G01*
X10998250Y1839595D03*
G01*
X10998250Y1585595D03*
G01*
X10741431Y1585595D03*
G01*
X10998250Y1331595D03*
G01*
X10741431Y1331595D03*
G01*
X10998250Y1077595D03*
G01*
X10741431Y1077595D03*
G01*
X10998250Y823595D03*
G01*
X10741431Y823595D03*
G01*
X10998250Y569595D03*
G01*
X10741431Y569595D03*
G01*
X10741406Y3477895D03*
G01*
X10998225Y3477895D03*
G01*
X10741406Y3731895D03*
G01*
X10998225Y3731895D03*
G01*
X10741406Y3985895D03*
G01*
X10998225Y3985895D03*
G01*
X10741406Y4239895D03*
G01*
X10998225Y4239895D03*
G01*
X10741406Y4493895D03*
G01*
X10998225Y4493895D03*
G01*
X10998225Y4747895D03*
G01*
X10741406Y4747895D03*
G01*
X10741406Y5001895D03*
G01*
X10998225Y5001895D03*
G01*
X10998225Y5255895D03*
G01*
X10741406Y5255895D03*
D24*
G01*
X11829999Y5255895D03*
G01*
X11829999Y5001895D03*
G01*
X11829999Y4747895D03*
G01*
X11829999Y4493895D03*
G01*
X11829999Y4239895D03*
G01*
X11829999Y3985895D03*
G01*
X11829999Y3731895D03*
G01*
X11829999Y3477895D03*
G01*
X11830024Y569595D03*
G01*
X11830024Y823595D03*
G01*
X11830024Y1077595D03*
G01*
X11830024Y1331595D03*
G01*
X11830024Y1585595D03*
G01*
X11830024Y1839595D03*
G01*
X11830024Y2093595D03*
G01*
X11830024Y2347595D03*
D22*
G01*
X12405106Y5461000D03*
G01*
X12405106Y381000D03*
G01*
X381000Y381000D03*
D25*
G01*
X12532106Y1016000D03*
G01*
X12278106Y1016000D03*
G01*
X12278106Y1270000D03*
G01*
X12532106Y1270000D03*
D24*
G01*
X8686800Y232232D03*
G01*
X8432800Y232232D03*
G01*
X8178800Y232232D03*
G01*
X7924800Y232232D03*
G01*
X7670800Y232232D03*
G01*
X7416800Y232232D03*
G01*
X7162800Y232232D03*
G01*
X6908800Y232232D03*
G01*
X4000500Y232206D03*
G01*
X4254500Y232206D03*
G01*
X4508500Y232206D03*
G01*
X4762500Y232206D03*
G01*
X5016500Y232206D03*
G01*
X5270500Y232206D03*
G01*
X5524500Y232206D03*
G01*
X5778500Y232206D03*
D23*
G01*
X6908800Y1320825D03*
G01*
X7670800Y1320825D03*
G01*
X7673593Y1066825D03*
G01*
X7416800Y1320825D03*
G01*
X7419593Y1066825D03*
G01*
X8689593Y1066825D03*
G01*
X8686800Y1320825D03*
G01*
X8178800Y1320825D03*
G01*
X8181593Y1066825D03*
G01*
X7924800Y1320825D03*
G01*
X7927593Y1066825D03*
G01*
X7165593Y1066825D03*
G01*
X7162800Y1320825D03*
G01*
X8435593Y1066825D03*
G01*
X8432800Y1320825D03*
G01*
X6908800Y1064031D03*
G01*
X4000500Y1064005D03*
G01*
X5524500Y1320800D03*
G01*
X5527293Y1066800D03*
G01*
X4254500Y1320800D03*
G01*
X4257293Y1066800D03*
G01*
X5019293Y1066800D03*
G01*
X5016500Y1320800D03*
G01*
X5273293Y1066800D03*
G01*
X5270500Y1320800D03*
G01*
X5778500Y1320800D03*
G01*
X5781293Y1066800D03*
G01*
X4511293Y1066800D03*
G01*
X4508500Y1320800D03*
G01*
X4765293Y1066800D03*
G01*
X4762500Y1320800D03*
G01*
X4000500Y1320800D03*
D24*
G01*
X2807487Y5255920D03*
G01*
X2807487Y5001920D03*
G01*
X2807487Y4747920D03*
G01*
X2807487Y4493920D03*
G01*
X2807487Y4239920D03*
G01*
X2807487Y3985920D03*
G01*
X2807487Y3731920D03*
G01*
X2807487Y3477920D03*
D23*
G01*
X3639261Y5255920D03*
G01*
X3896080Y3731920D03*
G01*
X3642080Y3729126D03*
G01*
X3896080Y5001920D03*
G01*
X3642080Y4999126D03*
G01*
X3642080Y4237126D03*
G01*
X3896080Y4239920D03*
G01*
X3642080Y3983126D03*
G01*
X3896080Y3985920D03*
G01*
X3642080Y4745126D03*
G01*
X3896080Y4747920D03*
G01*
X3642080Y4491126D03*
G01*
X3896080Y4493920D03*
G01*
X3896080Y5255920D03*
G01*
X7912684Y3731895D03*
G01*
X8169503Y3731869D03*
G01*
X7912684Y3985895D03*
G01*
X8169503Y3985869D03*
G01*
X7912684Y4239895D03*
G01*
X8169503Y4239869D03*
G01*
X7912684Y4493895D03*
G01*
X8169503Y4493869D03*
G01*
X8169503Y4747869D03*
G01*
X7912684Y4747895D03*
G01*
X7912684Y5001895D03*
G01*
X8169503Y5001869D03*
G01*
X8169503Y5255869D03*
G01*
X7912684Y5255895D03*
D24*
G01*
X9001277Y5255895D03*
G01*
X9001277Y5001895D03*
G01*
X9001277Y4747895D03*
G01*
X9001277Y4493895D03*
G01*
X9001277Y4239895D03*
G01*
X9001277Y3985895D03*
G01*
X9001277Y3731895D03*
G01*
X9001277Y3477895D03*
M02*
