M48
METRIC,LZ,000.000
;FILE_FORMAT=3:3
;TYPE=PLATED
;Layer: PTH_Through_Via
;EasyEDA v6.5.34, 2023-09-06 22:34:46
;a2432957869647e6a6caa226728471f4,5a6b42c53f6a479593ecc07194224c93,10
;Gerber Generator version 0.2
;Holesize 1 = 0.305 mm
T01C0.305
%
G05
G90
T01
X007620Y006985
X007620Y002540
X019050Y004699
X019050Y006985
X034417Y006985
X034417Y021844
X034417Y050927
X033020Y045593
X033020Y044323
X033020Y043053
X033020Y041783
X033020Y040513
X033020Y039243
X033020Y037973
X033020Y016510
X033020Y015240
X033020Y013970
X033020Y012700
X033020Y011430
X033020Y010160
X033020Y008890
M30
