G04 Layer: TopSolderMaskLayer*
G04 Panelize: , Column: 2, Row: 2, Board Size: 58.42mm x 58.42mm, Panelized Board Size: 118.84mm x 118.84mm*
G04 EasyEDA v6.5.34, 2023-09-06 22:34:46*
G04 a2432957869647e6a6caa226728471f4,5a6b42c53f6a479593ecc07194224c93,10*
G04 Gerber Generator version 0.2*
G04 Scale: 100 percent, Rotated: No, Reflected: No *
G04 Dimensions in millimeters *
G04 leading zeros omitted , absolute positions ,4 integer and 5 decimal *
%FSLAX45Y45*%
%MOMM*%

%AMMACRO1*1,1,$1,$2,$3*1,1,$1,$4,$5*1,1,$1,0-$2,0-$3*1,1,$1,0-$4,0-$5*20,1,$1,$2,$3,$4,$5,0*20,1,$1,$4,$5,0-$2,0-$3,0*20,1,$1,0-$2,0-$3,0-$4,0-$5,0*20,1,$1,0-$4,0-$5,$2,$3,0*4,1,4,$2,$3,$4,$5,0-$2,0-$3,0-$4,0-$5,$2,$3,0*%
%ADD10O,2.4615902X0.696595*%
%ADD11MACRO1,0.2032X-0.5X0.55X0.5X0.55*%
%ADD12MACRO1,0.2032X0.45X0.5X0.45X-0.5*%
%ADD13MACRO1,0.1016X-0.4X0.45X0.4X0.45*%
%ADD14C,5.2032*%
%ADD15C,2.1016*%
%ADD16C,1.9016*%

%LPD*%
D10*
G01*
X2181301Y4940300D03*
G01*
X2181301Y4813300D03*
G01*
X2181301Y4686300D03*
G01*
X2181301Y4559300D03*
G01*
X2181301Y4432300D03*
G01*
X2181301Y4305300D03*
G01*
X2181301Y4178300D03*
G01*
X2181301Y4051300D03*
G01*
X2181301Y3924300D03*
G01*
X2181301Y3797300D03*
G01*
X3127298Y4940300D03*
G01*
X3127298Y4813300D03*
G01*
X3127298Y4686300D03*
G01*
X3127298Y4559300D03*
G01*
X3127298Y4432300D03*
G01*
X3127298Y4305300D03*
G01*
X3127298Y4178300D03*
G01*
X3127298Y4051300D03*
G01*
X3127298Y3924300D03*
G01*
X3127298Y3797300D03*
G01*
X2181326Y2032000D03*
G01*
X2181326Y1905000D03*
G01*
X2181326Y1778000D03*
G01*
X2181326Y1651000D03*
G01*
X2181326Y1524000D03*
G01*
X2181326Y1397000D03*
G01*
X2181326Y1270000D03*
G01*
X2181326Y1143000D03*
G01*
X2181326Y1016000D03*
G01*
X2181326Y889000D03*
G01*
X3127324Y2032000D03*
G01*
X3127324Y1905000D03*
G01*
X3127324Y1778000D03*
G01*
X3127324Y1651000D03*
G01*
X3127324Y1524000D03*
G01*
X3127324Y1397000D03*
G01*
X3127324Y1270000D03*
G01*
X3127324Y1143000D03*
G01*
X3127324Y1016000D03*
G01*
X3127324Y889000D03*
D11*
G01*
X1692907Y469900D03*
G01*
X1532907Y469900D03*
D12*
G01*
X1697908Y266707D03*
G01*
X1527909Y266707D03*
D13*
G01*
X3295799Y5092700D03*
G01*
X3155800Y5092700D03*
D11*
G01*
X1756407Y5041900D03*
G01*
X1596407Y5041900D03*
G01*
X1756407Y4864100D03*
G01*
X1596407Y4864100D03*
G01*
X1756407Y4686300D03*
G01*
X1596407Y4686300D03*
G01*
X1756407Y4508500D03*
G01*
X1596407Y4508500D03*
G01*
X1756407Y4330700D03*
G01*
X1596407Y4330700D03*
G01*
X1756407Y4152900D03*
G01*
X1596407Y4152900D03*
G01*
X1756407Y3975100D03*
G01*
X1596407Y3975100D03*
G01*
X1756407Y3797300D03*
G01*
X1596407Y3797300D03*
G01*
X1756432Y889000D03*
G01*
X1596433Y889000D03*
G01*
X1756432Y1066800D03*
G01*
X1596433Y1066800D03*
G01*
X1756432Y1244600D03*
G01*
X1596433Y1244600D03*
G01*
X1756432Y1422400D03*
G01*
X1596433Y1422400D03*
G01*
X1756432Y1600200D03*
G01*
X1596433Y1600200D03*
G01*
X1756432Y1778000D03*
G01*
X1596433Y1778000D03*
G01*
X1756432Y1955800D03*
G01*
X1596433Y1955800D03*
G01*
X1756432Y2133600D03*
G01*
X1596433Y2133600D03*
D13*
G01*
X3295825Y2184400D03*
G01*
X3155825Y2184400D03*
D14*
G01*
X5461000Y381000D03*
G01*
X381000Y381000D03*
G01*
X381000Y5461000D03*
G01*
X5461000Y5461000D03*
D15*
G01*
X4885893Y5255895D03*
G01*
X4885893Y5001895D03*
G01*
X4885893Y4747895D03*
G01*
X4885893Y4493895D03*
G01*
X4885893Y4239895D03*
G01*
X4885893Y3985895D03*
G01*
X4885893Y3731895D03*
G01*
X4885893Y3477895D03*
G01*
X4885918Y569595D03*
G01*
X4885918Y823595D03*
G01*
X4885918Y1077595D03*
G01*
X4885918Y1331595D03*
G01*
X4885918Y1585595D03*
G01*
X4885918Y1839595D03*
G01*
X4885918Y2093595D03*
G01*
X4885918Y2347595D03*
D16*
G01*
X1016000Y254000D03*
G01*
X1016000Y508000D03*
G01*
X1270000Y508000D03*
G01*
X1270000Y254000D03*
M02*
