M48
METRIC,LZ,000.000
;FILE_FORMAT=3:3
;TYPE=PLATED
;Layer: PTH_Through
;EasyEDA v6.5.34, 2023-09-05 23:37:52
;71e8e7d8462e44579d9289b60e05a131,5a6b42c53f6a479593ecc07194224c93,10
;Gerber Generator version 0.2
;Holesize 1 = 0.305 mm
T01C0.305
;Holesize 2 = 0.915 mm
T02C0.915
;Holesize 3 = 1.101 mm
T03C1.101
;Holesize 4 = 1.301 mm
T04C1.301
;Holesize 5 = 3.000 mm
T05C3.000
%
G05
G90
T01
X027940Y051308
X030480Y049403
X027940Y048768
X030480Y048133
X027940Y046228
X030480Y046863
X027940Y043688
X030480Y045593
X026416Y041148
X030480Y044323
X026035Y038608
X030480Y043053
X026289Y036068
X032004Y041783
X025019Y033528
X032004Y040513
X031242Y050673
X026797Y037973
X026924Y050673
X032512Y037084
X019177Y054610
X026924Y054610
X019177Y031369
X027940Y022225
X027940Y019685
X027940Y017145
X027940Y014605
X026416Y012065
X026035Y009525
X026289Y006985
X025019Y004445
X031242Y021590
X030480Y020320
X030480Y019050
X030480Y017780
X030480Y016510
X030480Y015240
X030480Y013970
X032004Y012700
X032004Y011430
X032385Y008128
X026924Y021590
X050800Y018415
X050800Y007620
X055880Y007620
X053721Y018415
X050800Y025400
X031242Y025400
X026797Y008890
X050800Y054610
X031242Y054610
X029210Y036576
X029210Y007493
X032385Y002794
X019177Y001397
X031750Y008890
X031750Y037973
T02
X020447Y052559
X020447Y044939
X017907Y044911
X020447Y047479
X017907Y047451
X017907Y034751
X020447Y034779
X020447Y039859
X017907Y039831
X020447Y042399
X017907Y042371
X017907Y049991
X020447Y050019
X017907Y037291
X020447Y037319
X017879Y052559
X017879Y023476
X020447Y008236
X017907Y008208
X020447Y020936
X017907Y020908
X017907Y013288
X020447Y013316
X017907Y010748
X020447Y010776
X020447Y005696
X017907Y005668
X017907Y018368
X020447Y018396
X017907Y015828
X020447Y015856
X020447Y023476
X037973Y052559
X040541Y052559
X040541Y050019
X037973Y050019
X037973Y047479
X040541Y047479
X040541Y044939
X037973Y044939
X040541Y042399
X037973Y042399
X040541Y039859
X037973Y039859
X040541Y037319
X037973Y037319
X040541Y034779
X037973Y034779
X037973Y005696
X040541Y005696
X037973Y008236
X040541Y008236
X037973Y010776
X040541Y010776
X037973Y013316
X040541Y013316
X037973Y015856
X040541Y015856
X040541Y018396
X037973Y018396
X037973Y020936
X040541Y020936
X040541Y023476
X037973Y023476
T03
X055880Y010160
X053340Y010160
X053340Y012700
X055880Y012700
T04
X009561Y034779
X009561Y037319
X009561Y039859
X009561Y042399
X009561Y044939
X009561Y047479
X009561Y050019
X009561Y052559
X009561Y023476
X009561Y020936
X009561Y018396
X009561Y015856
X009561Y013316
X009561Y010776
X009561Y008236
X009561Y005696
X048859Y023476
X048859Y020936
X048859Y018396
X048859Y015856
X048859Y013316
X048859Y010776
X048859Y008236
X048859Y005696
X048859Y034779
X048859Y037319
X048859Y039859
X048859Y042399
X048859Y044939
X048859Y047479
X048859Y050019
X048859Y052559
X032893Y031369
X025273Y031369
X027813Y031369
X030353Y031369
T05
X054610Y003810
X003810Y003810
X003810Y054610
X054610Y054610
M30
