M48
METRIC,LZ,000.000
;FILE_FORMAT=3:3
;TYPE=PLATED
;Layer: PTH_Through_Via
;EasyEDA v6.5.34, 2023-09-05 23:37:52
;71e8e7d8462e44579d9289b60e05a131,5a6b42c53f6a479593ecc07194224c93,10
;Gerber Generator version 0.2
;Holesize 1 = 0.305 mm
T01C0.305
%
G05
G90
T01
X027940Y051308
X030480Y049403
X027940Y048768
X030480Y048133
X027940Y046228
X030480Y046863
X027940Y043688
X030480Y045593
X026416Y041148
X030480Y044323
X026035Y038608
X030480Y043053
X026289Y036068
X032004Y041783
X025019Y033528
X032004Y040513
X031242Y050673
X026797Y037973
X026924Y050673
X032512Y037084
X019177Y054610
X026924Y054610
X019177Y031369
X027940Y022225
X027940Y019685
X027940Y017145
X027940Y014605
X026416Y012065
X026035Y009525
X026289Y006985
X025019Y004445
X031242Y021590
X030480Y020320
X030480Y019050
X030480Y017780
X030480Y016510
X030480Y015240
X030480Y013970
X032004Y012700
X032004Y011430
X032385Y008128
X026924Y021590
X050800Y018415
X050800Y007620
X055880Y007620
X053721Y018415
X050800Y025400
X031242Y025400
X026797Y008890
X050800Y054610
X031242Y054610
X029210Y036576
X029210Y007493
X032385Y002794
X019177Y001397
X031750Y008890
X031750Y037973
M30
