G04 Layer: TopSolderMaskLayer*
G04 Panelize: , Column: 2, Row: 2, Board Size: 58.42mm x 58.42mm, Panelized Board Size: 118.84mm x 118.84mm*
G04 EasyEDA v6.5.34, 2023-09-05 23:37:52*
G04 71e8e7d8462e44579d9289b60e05a131,5a6b42c53f6a479593ecc07194224c93,10*
G04 Gerber Generator version 0.2*
G04 Scale: 100 percent, Rotated: No, Reflected: No *
G04 Dimensions in millimeters *
G04 leading zeros omitted , absolute positions ,4 integer and 5 decimal *
%FSLAX45Y45*%
%MOMM*%

%AMMACRO1*1,1,$1,$2,$3*1,1,$1,$4,$5*1,1,$1,0-$2,0-$3*1,1,$1,0-$4,0-$5*20,1,$1,$2,$3,$4,$5,0*20,1,$1,$4,$5,0-$2,0-$3,0*20,1,$1,0-$2,0-$3,0-$4,0-$5,0*20,1,$1,0-$4,0-$5,$2,$3,0*4,1,4,$2,$3,$4,$5,0-$2,0-$3,0-$4,0-$5,$2,$3,0*%
%ADD10MACRO1,0.2032X0.45X0.5X0.45X-0.5*%
%ADD11MACRO1,0.2032X-0.45X-0.5X-0.45X0.5*%
%ADD12MACRO1,0.2032X-0.55X-0.5X-0.55X0.5*%
%ADD13MACRO1,0.2032X-0.5X0.45X0.5X0.45*%
%ADD14O,2.4896064X0.6755891999999999*%
%ADD15MACRO1,0.2032X-0.5X0.55X0.5X0.55*%
%ADD16MACRO1,0.2032X0.5X-0.55X-0.5X-0.55*%
%ADD17C,5.2032*%
%ADD18C,1.6256*%
%ADD19C,2.0016*%
%ADD20C,2.1016*%
%ADD21C,1.9016*%

%LPD*%
D10*
G01*
X2599613Y139707D03*
G01*
X2429614Y139707D03*
D11*
G01*
X3242386Y139692D03*
G01*
X3412385Y139692D03*
D12*
G01*
X5372100Y1692912D03*
G01*
X5372100Y1532907D03*
D13*
G01*
X5575292Y1697913D03*
G01*
X5575292Y1527914D03*
D14*
G01*
X2446629Y2159000D03*
G01*
X2446629Y2032000D03*
G01*
X2446629Y1905000D03*
G01*
X2446629Y1778000D03*
G01*
X2446629Y1651000D03*
G01*
X2446629Y1524000D03*
G01*
X2446629Y1397000D03*
G01*
X2446629Y1270000D03*
G01*
X2446629Y1143000D03*
G01*
X2446629Y1016000D03*
G01*
X2446629Y889000D03*
G01*
X2446629Y762000D03*
G01*
X3395421Y2159000D03*
G01*
X3395421Y2032000D03*
G01*
X3395421Y1905000D03*
G01*
X3395421Y1778000D03*
G01*
X3395421Y1651000D03*
G01*
X3395421Y1524000D03*
G01*
X3395421Y1397000D03*
G01*
X3395421Y1270000D03*
G01*
X3395421Y1143000D03*
G01*
X3395421Y1016000D03*
G01*
X3395421Y889000D03*
G01*
X3395421Y762000D03*
G01*
X2446604Y5067300D03*
G01*
X2446604Y4940300D03*
G01*
X2446604Y4813300D03*
G01*
X2446604Y4686300D03*
G01*
X2446604Y4559300D03*
G01*
X2446604Y4432300D03*
G01*
X2446604Y4305300D03*
G01*
X2446604Y4178300D03*
G01*
X2446604Y4051300D03*
G01*
X2446604Y3924300D03*
G01*
X2446604Y3797300D03*
G01*
X2446604Y3670300D03*
G01*
X3395395Y5067300D03*
G01*
X3395395Y4940300D03*
G01*
X3395395Y4813300D03*
G01*
X3395395Y4686300D03*
G01*
X3395395Y4559300D03*
G01*
X3395395Y4432300D03*
G01*
X3395395Y4305300D03*
G01*
X3395395Y4178300D03*
G01*
X3395395Y4051300D03*
G01*
X3395395Y3924300D03*
G01*
X3395395Y3797300D03*
G01*
X3395395Y3670300D03*
D15*
G01*
X2251707Y139700D03*
G01*
X2091707Y139700D03*
D16*
G01*
X3590292Y139700D03*
G01*
X3750292Y139700D03*
D17*
G01*
X5461000Y381000D03*
G01*
X381000Y381000D03*
G01*
X381000Y5461000D03*
G01*
X5461000Y5461000D03*
D18*
G01*
X2044674Y5255920D03*
G01*
X2044674Y4493920D03*
G01*
X1790674Y4491126D03*
G01*
X2044674Y4747920D03*
G01*
X1790674Y4745126D03*
G01*
X1790674Y3475126D03*
G01*
X2044674Y3477920D03*
G01*
X2044674Y3985920D03*
G01*
X1790674Y3983126D03*
G01*
X2044674Y4239920D03*
G01*
X1790674Y4237126D03*
G01*
X1790674Y4999126D03*
G01*
X2044674Y5001920D03*
G01*
X1790674Y3729126D03*
G01*
X2044674Y3731920D03*
G01*
X1787880Y5255920D03*
G01*
X1787905Y2347620D03*
G01*
X2044700Y823620D03*
G01*
X1790700Y820826D03*
G01*
X2044700Y2093620D03*
G01*
X1790700Y2090826D03*
G01*
X1790700Y1328826D03*
G01*
X2044700Y1331620D03*
G01*
X1790700Y1074826D03*
G01*
X2044700Y1077620D03*
G01*
X2044700Y569620D03*
G01*
X1790700Y566826D03*
G01*
X1790700Y1836826D03*
G01*
X2044700Y1839620D03*
G01*
X1790700Y1582826D03*
G01*
X2044700Y1585620D03*
G01*
X2044700Y2347620D03*
D19*
G01*
X956081Y3477920D03*
G01*
X956081Y3731920D03*
G01*
X956081Y3985920D03*
G01*
X956081Y4239920D03*
G01*
X956081Y4493920D03*
G01*
X956081Y4747920D03*
G01*
X956081Y5001920D03*
G01*
X956081Y5255920D03*
G01*
X956106Y2347620D03*
G01*
X956106Y2093620D03*
G01*
X956106Y1839620D03*
G01*
X956106Y1585620D03*
G01*
X956106Y1331620D03*
G01*
X956106Y1077620D03*
G01*
X956106Y823620D03*
G01*
X956106Y569620D03*
G01*
X4885918Y2347595D03*
G01*
X4885918Y2093595D03*
G01*
X4885918Y1839595D03*
G01*
X4885918Y1585595D03*
G01*
X4885918Y1331595D03*
G01*
X4885918Y1077595D03*
G01*
X4885918Y823595D03*
G01*
X4885918Y569595D03*
G01*
X4885893Y3477895D03*
G01*
X4885893Y3731895D03*
G01*
X4885893Y3985895D03*
G01*
X4885893Y4239895D03*
G01*
X4885893Y4493895D03*
G01*
X4885893Y4747895D03*
G01*
X4885893Y5001895D03*
G01*
X4885893Y5255895D03*
D18*
G01*
X3797300Y5255895D03*
G01*
X4054119Y5255895D03*
G01*
X4054119Y5001895D03*
G01*
X3797300Y5001895D03*
G01*
X3797300Y4747895D03*
G01*
X4054119Y4747895D03*
G01*
X4054119Y4493895D03*
G01*
X3797300Y4493895D03*
G01*
X4054119Y4239895D03*
G01*
X3797300Y4239895D03*
G01*
X4054119Y3985895D03*
G01*
X3797300Y3985895D03*
G01*
X4054119Y3731895D03*
G01*
X3797300Y3731895D03*
G01*
X4054119Y3477895D03*
G01*
X3797300Y3477895D03*
G01*
X3797325Y569595D03*
G01*
X4054144Y569595D03*
G01*
X3797325Y823595D03*
G01*
X4054144Y823595D03*
G01*
X3797325Y1077595D03*
G01*
X4054144Y1077595D03*
G01*
X3797325Y1331595D03*
G01*
X4054144Y1331595D03*
G01*
X3797325Y1585595D03*
G01*
X4054144Y1585595D03*
G01*
X4054144Y1839595D03*
G01*
X3797325Y1839595D03*
G01*
X3797325Y2093595D03*
G01*
X4054144Y2093595D03*
G01*
X4054144Y2347595D03*
G01*
X3797325Y2347595D03*
D20*
G01*
X3289300Y3136900D03*
G01*
X2527300Y3136900D03*
G01*
X2781300Y3136900D03*
G01*
X3035300Y3136900D03*
D21*
G01*
X5588000Y1016000D03*
G01*
X5334000Y1016000D03*
G01*
X5334000Y1270000D03*
G01*
X5588000Y1270000D03*
M02*
