G04 Layer: BottomSolderMaskLayer*
G04 Panelize: , Column: 2, Row: 2, Board Size: 58.42mm x 58.42mm, Panelized Board Size: 118.84mm x 118.84mm*
G04 EasyEDA v6.5.34, 2023-09-05 23:37:52*
G04 71e8e7d8462e44579d9289b60e05a131,5a6b42c53f6a479593ecc07194224c93,10*
G04 Gerber Generator version 0.2*
G04 Scale: 100 percent, Rotated: No, Reflected: No *
G04 Dimensions in millimeters *
G04 leading zeros omitted , absolute positions ,4 integer and 5 decimal *
%FSLAX45Y45*%
%MOMM*%

%AMMACRO1*1,1,$1,$2,$3*1,1,$1,$4,$5*1,1,$1,0-$2,0-$3*1,1,$1,0-$4,0-$5*20,1,$1,$2,$3,$4,$5,0*20,1,$1,$4,$5,0-$2,0-$3,0*20,1,$1,0-$2,0-$3,0-$4,0-$5,0*20,1,$1,0-$4,0-$5,$2,$3,0*4,1,4,$2,$3,$4,$5,0-$2,0-$3,0-$4,0-$5,$2,$3,0*%
%ADD10MACRO1,0.2032X0.5X0.55X-0.5X0.55*%
%ADD11MACRO1,0.1016X-0.4X-0.45X0.4X-0.45*%
%ADD12MACRO1,0.2032X-0.5X-0.55X0.5X-0.55*%
%ADD13C,5.2032*%
%ADD14C,1.6256*%
%ADD15C,2.0016*%
%ADD16C,2.1016*%
%ADD17C,1.9016*%

%LPD*%
D10*
G01*
X2142517Y330200D03*
G01*
X2302517Y330200D03*
G01*
X2142492Y3238500D03*
G01*
X2302492Y3238500D03*
D11*
G01*
X3118001Y2247900D03*
G01*
X2978001Y2247900D03*
G01*
X3117975Y5156200D03*
G01*
X2977976Y5156200D03*
D10*
G01*
X2244090Y823597D03*
G01*
X2404088Y823597D03*
G01*
X2244090Y2093597D03*
G01*
X2404088Y2093597D03*
D12*
G01*
X2404099Y2347597D03*
G01*
X2244101Y2347597D03*
D10*
G01*
X2244090Y1839597D03*
G01*
X2404088Y1839597D03*
G01*
X2244090Y1585600D03*
G01*
X2404088Y1585600D03*
G01*
X2244090Y1331600D03*
G01*
X2404088Y1331600D03*
G01*
X2244090Y1077600D03*
G01*
X2404088Y1077600D03*
D12*
G01*
X2404099Y569600D03*
G01*
X2244101Y569600D03*
G01*
X2244101Y3478291D03*
G01*
X2404099Y3478291D03*
D10*
G01*
X2404088Y3986291D03*
G01*
X2244090Y3986291D03*
G01*
X2404088Y4240291D03*
G01*
X2244090Y4240291D03*
G01*
X2404088Y4494291D03*
G01*
X2244090Y4494291D03*
G01*
X2404088Y4748288D03*
G01*
X2244090Y4748288D03*
D12*
G01*
X2244101Y5256288D03*
G01*
X2404099Y5256288D03*
D10*
G01*
X2404088Y5002288D03*
G01*
X2244090Y5002288D03*
G01*
X2404088Y3732288D03*
G01*
X2244090Y3732288D03*
G01*
X3440666Y5255892D03*
G01*
X3600665Y5255892D03*
D12*
G01*
X3600681Y5001892D03*
G01*
X3440681Y5001892D03*
G01*
X3600681Y4747892D03*
G01*
X3440681Y4747892D03*
G01*
X3600681Y4493892D03*
G01*
X3440681Y4493892D03*
G01*
X3600681Y4239892D03*
G01*
X3440681Y4239892D03*
G01*
X3600681Y3985892D03*
G01*
X3440681Y3985892D03*
G01*
X3600681Y3731892D03*
G01*
X3440681Y3731892D03*
D10*
G01*
X3440666Y3477892D03*
G01*
X3600665Y3477892D03*
G01*
X3440666Y569594D03*
G01*
X3600665Y569594D03*
D12*
G01*
X3600681Y823594D03*
G01*
X3440681Y823594D03*
G01*
X3600681Y1077594D03*
G01*
X3440681Y1077594D03*
G01*
X3600681Y1331594D03*
G01*
X3440681Y1331594D03*
G01*
X3600681Y1585594D03*
G01*
X3440681Y1585594D03*
G01*
X3600681Y1839594D03*
G01*
X3440681Y1839594D03*
G01*
X3600681Y2093594D03*
G01*
X3440681Y2093594D03*
D10*
G01*
X3440666Y2347594D03*
G01*
X3600665Y2347594D03*
D13*
G01*
X5461000Y381000D03*
G01*
X381000Y381000D03*
G01*
X381000Y5461000D03*
G01*
X5461000Y5461000D03*
D14*
G01*
X2044674Y5255920D03*
G01*
X2044674Y4493920D03*
G01*
X1790674Y4491126D03*
G01*
X2044674Y4747920D03*
G01*
X1790674Y4745126D03*
G01*
X1790674Y3475126D03*
G01*
X2044674Y3477920D03*
G01*
X2044674Y3985920D03*
G01*
X1790674Y3983126D03*
G01*
X2044674Y4239920D03*
G01*
X1790674Y4237126D03*
G01*
X1790674Y4999126D03*
G01*
X2044674Y5001920D03*
G01*
X1790674Y3729126D03*
G01*
X2044674Y3731920D03*
G01*
X1787880Y5255920D03*
G01*
X1787905Y2347620D03*
G01*
X2044700Y823620D03*
G01*
X1790700Y820826D03*
G01*
X2044700Y2093620D03*
G01*
X1790700Y2090826D03*
G01*
X1790700Y1328826D03*
G01*
X2044700Y1331620D03*
G01*
X1790700Y1074826D03*
G01*
X2044700Y1077620D03*
G01*
X2044700Y569620D03*
G01*
X1790700Y566826D03*
G01*
X1790700Y1836826D03*
G01*
X2044700Y1839620D03*
G01*
X1790700Y1582826D03*
G01*
X2044700Y1585620D03*
G01*
X2044700Y2347620D03*
D15*
G01*
X956081Y3477920D03*
G01*
X956081Y3731920D03*
G01*
X956081Y3985920D03*
G01*
X956081Y4239920D03*
G01*
X956081Y4493920D03*
G01*
X956081Y4747920D03*
G01*
X956081Y5001920D03*
G01*
X956081Y5255920D03*
G01*
X956106Y2347620D03*
G01*
X956106Y2093620D03*
G01*
X956106Y1839620D03*
G01*
X956106Y1585620D03*
G01*
X956106Y1331620D03*
G01*
X956106Y1077620D03*
G01*
X956106Y823620D03*
G01*
X956106Y569620D03*
G01*
X4885918Y2347595D03*
G01*
X4885918Y2093595D03*
G01*
X4885918Y1839595D03*
G01*
X4885918Y1585595D03*
G01*
X4885918Y1331595D03*
G01*
X4885918Y1077595D03*
G01*
X4885918Y823595D03*
G01*
X4885918Y569595D03*
G01*
X4885893Y3477895D03*
G01*
X4885893Y3731895D03*
G01*
X4885893Y3985895D03*
G01*
X4885893Y4239895D03*
G01*
X4885893Y4493895D03*
G01*
X4885893Y4747895D03*
G01*
X4885893Y5001895D03*
G01*
X4885893Y5255895D03*
D14*
G01*
X3797300Y5255895D03*
G01*
X4054119Y5255895D03*
G01*
X4054119Y5001895D03*
G01*
X3797300Y5001895D03*
G01*
X3797300Y4747895D03*
G01*
X4054119Y4747895D03*
G01*
X4054119Y4493895D03*
G01*
X3797300Y4493895D03*
G01*
X4054119Y4239895D03*
G01*
X3797300Y4239895D03*
G01*
X4054119Y3985895D03*
G01*
X3797300Y3985895D03*
G01*
X4054119Y3731895D03*
G01*
X3797300Y3731895D03*
G01*
X4054119Y3477895D03*
G01*
X3797300Y3477895D03*
G01*
X3797325Y569595D03*
G01*
X4054144Y569595D03*
G01*
X3797325Y823595D03*
G01*
X4054144Y823595D03*
G01*
X3797325Y1077595D03*
G01*
X4054144Y1077595D03*
G01*
X3797325Y1331595D03*
G01*
X4054144Y1331595D03*
G01*
X3797325Y1585595D03*
G01*
X4054144Y1585595D03*
G01*
X4054144Y1839595D03*
G01*
X3797325Y1839595D03*
G01*
X3797325Y2093595D03*
G01*
X4054144Y2093595D03*
G01*
X4054144Y2347595D03*
G01*
X3797325Y2347595D03*
D16*
G01*
X3289300Y3136900D03*
G01*
X2527300Y3136900D03*
G01*
X2781300Y3136900D03*
G01*
X3035300Y3136900D03*
D17*
G01*
X5588000Y1016000D03*
G01*
X5334000Y1016000D03*
G01*
X5334000Y1270000D03*
G01*
X5588000Y1270000D03*
M02*
