G04 Layer: BottomSilkscreenLayer*
G04 Panelize: , Column: 2, Row: 2, Board Size: 127.89mm x 58.42mm, Panelized Board Size: 257.78mm x 118.84mm*
G04 EasyEDA v6.5.34, 2023-09-05 23:47:00*
G04 23034ade622943b09ef3a65bf2e35728,5a6b42c53f6a479593ecc07194224c93,10*
G04 Gerber Generator version 0.2*
G04 Scale: 100 percent, Rotated: No, Reflected: No *
G04 Dimensions in millimeters *
G04 leading zeros omitted , absolute positions ,4 integer and 5 decimal *
%FSLAX45Y45*%
%MOMM*%

%ADD10C,0.1524*%
%ADD11C,0.1520*%
%ADD12C,0.2540*%

%LPD*%
D10*
X6741955Y3619954D02*
G01*
X6747151Y3630345D01*
X6757543Y3640736D01*
X6767931Y3645931D01*
X6788713Y3645931D01*
X6799105Y3640736D01*
X6809496Y3630345D01*
X6814693Y3619954D01*
X6819887Y3604366D01*
X6819887Y3578390D01*
X6814693Y3562804D01*
X6809496Y3552413D01*
X6799105Y3542022D01*
X6788713Y3536828D01*
X6767931Y3536828D01*
X6757543Y3542022D01*
X6747151Y3552413D01*
X6741955Y3562804D01*
X6676491Y3645931D02*
G01*
X6686882Y3640736D01*
X6697273Y3630345D01*
X6702470Y3619954D01*
X6707665Y3604366D01*
X6707665Y3578390D01*
X6702470Y3562804D01*
X6697273Y3552413D01*
X6686882Y3542022D01*
X6676491Y3536828D01*
X6655711Y3536828D01*
X6645320Y3542022D01*
X6634929Y3552413D01*
X6629732Y3562804D01*
X6624538Y3578390D01*
X6624538Y3604366D01*
X6629732Y3619954D01*
X6634929Y3630345D01*
X6645320Y3640736D01*
X6655711Y3645931D01*
X6676491Y3645931D01*
X6590248Y3645931D02*
G01*
X6590248Y3536828D01*
X6590248Y3645931D02*
G01*
X6543489Y3645931D01*
X6527901Y3640736D01*
X6522707Y3635540D01*
X6517513Y3625148D01*
X6517513Y3609563D01*
X6522707Y3599172D01*
X6527901Y3593978D01*
X6543489Y3588781D01*
X6590248Y3588781D01*
X6483222Y3645931D02*
G01*
X6441658Y3593978D01*
X6441658Y3536828D01*
X6400093Y3645931D02*
G01*
X6441658Y3593978D01*
X6365803Y3645931D02*
G01*
X6365803Y3536828D01*
X6365803Y3645931D02*
G01*
X6319045Y3645931D01*
X6303459Y3640736D01*
X6298262Y3635540D01*
X6293068Y3625148D01*
X6293068Y3614757D01*
X6298262Y3604366D01*
X6303459Y3599172D01*
X6319045Y3593978D01*
X6365803Y3593978D01*
X6329436Y3593978D02*
G01*
X6293068Y3536828D01*
X6258778Y3645931D02*
G01*
X6258778Y3536828D01*
X6146556Y3619954D02*
G01*
X6151752Y3630345D01*
X6162141Y3640736D01*
X6172532Y3645931D01*
X6193315Y3645931D01*
X6203706Y3640736D01*
X6214097Y3630345D01*
X6219291Y3619954D01*
X6224488Y3604366D01*
X6224488Y3578390D01*
X6219291Y3562804D01*
X6214097Y3552413D01*
X6203706Y3542022D01*
X6193315Y3536828D01*
X6172532Y3536828D01*
X6162141Y3542022D01*
X6151752Y3552413D01*
X6146556Y3562804D01*
X6146556Y3578390D01*
X6172532Y3578390D02*
G01*
X6146556Y3578390D01*
X6112266Y3645931D02*
G01*
X6112266Y3536828D01*
X6039530Y3645931D02*
G01*
X6039530Y3536828D01*
X6112266Y3593978D02*
G01*
X6039530Y3593978D01*
X5968872Y3645931D02*
G01*
X5968872Y3536828D01*
X6005240Y3645931D02*
G01*
X5932502Y3645931D01*
X5813008Y3619954D02*
G01*
X5813008Y3625148D01*
X5807811Y3635540D01*
X5802617Y3640736D01*
X5792226Y3645931D01*
X5771443Y3645931D01*
X5761052Y3640736D01*
X5755858Y3635540D01*
X5750661Y3625148D01*
X5750661Y3614757D01*
X5755858Y3604366D01*
X5766249Y3588781D01*
X5818202Y3536828D01*
X5745467Y3536828D01*
X5680003Y3645931D02*
G01*
X5695591Y3640736D01*
X5705983Y3625148D01*
X5711177Y3599172D01*
X5711177Y3583586D01*
X5705983Y3557607D01*
X5695591Y3542022D01*
X5680003Y3536828D01*
X5669612Y3536828D01*
X5654027Y3542022D01*
X5643636Y3557607D01*
X5638441Y3583586D01*
X5638441Y3599172D01*
X5643636Y3625148D01*
X5654027Y3640736D01*
X5669612Y3645931D01*
X5680003Y3645931D01*
X5598955Y3619954D02*
G01*
X5598955Y3625148D01*
X5593760Y3635540D01*
X5588563Y3640736D01*
X5578172Y3645931D01*
X5557393Y3645931D01*
X5547001Y3640736D01*
X5541805Y3635540D01*
X5536610Y3625148D01*
X5536610Y3614757D01*
X5541805Y3604366D01*
X5552196Y3588781D01*
X5604151Y3536828D01*
X5531413Y3536828D01*
X5486732Y3645931D02*
G01*
X5429582Y3645931D01*
X5460756Y3604366D01*
X5445170Y3604366D01*
X5434779Y3599172D01*
X5429582Y3593978D01*
X5424388Y3578390D01*
X5424388Y3567998D01*
X5429582Y3552413D01*
X5439973Y3542022D01*
X5455561Y3536828D01*
X5471147Y3536828D01*
X5486732Y3542022D01*
X5491929Y3547216D01*
X5497123Y3557607D01*
X5310088Y3645931D02*
G01*
X5268523Y3536828D01*
X5226961Y3645931D02*
G01*
X5268523Y3536828D01*
X5192671Y3645931D02*
G01*
X5192671Y3536828D01*
X5192671Y3645931D02*
G01*
X5125130Y3645931D01*
X5192671Y3593978D02*
G01*
X5151107Y3593978D01*
X5192671Y3536828D02*
G01*
X5125130Y3536828D01*
X5018102Y3645931D02*
G01*
X5070058Y3536828D01*
X5090840Y3645931D02*
G01*
X5018102Y3645931D01*
X4983812Y3645931D02*
G01*
X4983812Y3536828D01*
X4983812Y3645931D02*
G01*
X4916271Y3645931D01*
X4983812Y3593978D02*
G01*
X4942250Y3593978D01*
X4881981Y3645931D02*
G01*
X4881981Y3536828D01*
X4847691Y3645931D02*
G01*
X4847691Y3536828D01*
X4847691Y3645931D02*
G01*
X4806129Y3536828D01*
X4764565Y3645931D02*
G01*
X4806129Y3536828D01*
X4764565Y3645931D02*
G01*
X4764565Y3536828D01*
D11*
X6348796Y3468103D02*
G01*
X6348796Y3384976D01*
X6353992Y3369388D01*
X6359187Y3364194D01*
X6369578Y3359000D01*
X6379969Y3359000D01*
X6390360Y3364194D01*
X6395557Y3369388D01*
X6400751Y3384976D01*
X6400751Y3395367D01*
X6314506Y3468103D02*
G01*
X6314506Y3359000D01*
X6314506Y3359000D02*
G01*
X6252161Y3359000D01*
X6139939Y3442126D02*
G01*
X6145136Y3452517D01*
X6155527Y3462909D01*
X6165916Y3468103D01*
X6186698Y3468103D01*
X6197089Y3462909D01*
X6207480Y3452517D01*
X6212677Y3442126D01*
X6217871Y3426538D01*
X6217871Y3400562D01*
X6212677Y3384976D01*
X6207480Y3374585D01*
X6197089Y3364194D01*
X6186698Y3359000D01*
X6165916Y3359000D01*
X6155527Y3364194D01*
X6145136Y3374585D01*
X6139939Y3384976D01*
X6053696Y3468103D02*
G01*
X6053696Y3384976D01*
X6058890Y3369388D01*
X6064087Y3364194D01*
X6074476Y3359000D01*
X6084867Y3359000D01*
X6095258Y3364194D01*
X6100455Y3369388D01*
X6105649Y3384976D01*
X6105649Y3395367D01*
X6019406Y3468103D02*
G01*
X6019406Y3359000D01*
X6019406Y3359000D02*
G01*
X5957059Y3359000D01*
X5844837Y3442126D02*
G01*
X5850034Y3452517D01*
X5860425Y3462909D01*
X5870816Y3468103D01*
X5891596Y3468103D01*
X5901987Y3462909D01*
X5912378Y3452517D01*
X5917575Y3442126D01*
X5922769Y3426538D01*
X5922769Y3400562D01*
X5917575Y3384976D01*
X5912378Y3374585D01*
X5901987Y3364194D01*
X5891596Y3359000D01*
X5870816Y3359000D01*
X5860425Y3364194D01*
X5850034Y3374585D01*
X5844837Y3384976D01*
X5758594Y3468103D02*
G01*
X5758594Y3384976D01*
X5763788Y3369388D01*
X5768985Y3364194D01*
X5779376Y3359000D01*
X5789767Y3359000D01*
X5800156Y3364194D01*
X5805352Y3369388D01*
X5810547Y3384976D01*
X5810547Y3395367D01*
X5724304Y3468103D02*
G01*
X5724304Y3359000D01*
X5724304Y3359000D02*
G01*
X5661957Y3359000D01*
X5549737Y3442126D02*
G01*
X5554931Y3452517D01*
X5565322Y3462909D01*
X5575714Y3468103D01*
X5596496Y3468103D01*
X5606887Y3462909D01*
X5617276Y3452517D01*
X5622472Y3442126D01*
X5627667Y3426538D01*
X5627667Y3400562D01*
X5622472Y3384976D01*
X5617276Y3374585D01*
X5606887Y3364194D01*
X5596496Y3359000D01*
X5575714Y3359000D01*
X5565322Y3364194D01*
X5554931Y3374585D01*
X5549737Y3384976D01*
X5463491Y3468103D02*
G01*
X5463491Y3384976D01*
X5468686Y3369388D01*
X5473882Y3364194D01*
X5484274Y3359000D01*
X5494665Y3359000D01*
X5505056Y3364194D01*
X5510250Y3369388D01*
X5515447Y3384976D01*
X5515447Y3395367D01*
X5429201Y3468103D02*
G01*
X5429201Y3359000D01*
X5429201Y3359000D02*
G01*
X5366857Y3359000D01*
X5254635Y3442126D02*
G01*
X5259829Y3452517D01*
X5270220Y3462909D01*
X5280611Y3468103D01*
X5301394Y3468103D01*
X5311785Y3462909D01*
X5322176Y3452517D01*
X5327370Y3442126D01*
X5332567Y3426538D01*
X5332567Y3400562D01*
X5327370Y3384976D01*
X5322176Y3374585D01*
X5311785Y3364194D01*
X5301394Y3359000D01*
X5280611Y3359000D01*
X5270220Y3364194D01*
X5259829Y3374585D01*
X5254635Y3384976D01*
D10*
X2852803Y5539216D02*
G01*
X2857347Y5548307D01*
X2866438Y5557398D01*
X2875531Y5561944D01*
X2893712Y5561944D01*
X2902803Y5557398D01*
X2911894Y5548307D01*
X2916438Y5539216D01*
X2920984Y5525582D01*
X2920984Y5502854D01*
X2916438Y5489216D01*
X2911894Y5480126D01*
X2902803Y5471035D01*
X2893712Y5466488D01*
X2875531Y5466488D01*
X2866438Y5471035D01*
X2857347Y5480126D01*
X2852803Y5489216D01*
X2822803Y5543763D02*
G01*
X2813712Y5548307D01*
X2800075Y5561944D01*
X2800075Y5466488D01*
X3576711Y2935676D02*
G01*
X3581255Y2944766D01*
X3590345Y2953857D01*
X3599439Y2958404D01*
X3617620Y2958404D01*
X3626711Y2953857D01*
X3635801Y2944766D01*
X3640345Y2935676D01*
X3644892Y2922041D01*
X3644892Y2899313D01*
X3640345Y2885676D01*
X3635801Y2876585D01*
X3626711Y2867494D01*
X3617620Y2862948D01*
X3599439Y2862948D01*
X3590345Y2867494D01*
X3581255Y2876585D01*
X3576711Y2885676D01*
X3542164Y2935676D02*
G01*
X3542164Y2940222D01*
X3537620Y2949313D01*
X3533073Y2953857D01*
X3523983Y2958404D01*
X3505801Y2958404D01*
X3496711Y2953857D01*
X3492164Y2949313D01*
X3487620Y2940222D01*
X3487620Y2931132D01*
X3492164Y2922041D01*
X3501255Y2908404D01*
X3546711Y2862948D01*
X3483074Y2862948D01*
X4719708Y2922976D02*
G01*
X4724252Y2932066D01*
X4733343Y2941157D01*
X4742436Y2945704D01*
X4760617Y2945704D01*
X4769708Y2941157D01*
X4778799Y2932066D01*
X4783343Y2922976D01*
X4787889Y2909341D01*
X4787889Y2886613D01*
X4783343Y2872976D01*
X4778799Y2863885D01*
X4769708Y2854794D01*
X4760617Y2850248D01*
X4742436Y2850248D01*
X4733343Y2854794D01*
X4724252Y2863885D01*
X4719708Y2872976D01*
X4680618Y2945704D02*
G01*
X4630618Y2945704D01*
X4657890Y2909341D01*
X4644252Y2909341D01*
X4635162Y2904794D01*
X4630618Y2900248D01*
X4626071Y2886613D01*
X4626071Y2877522D01*
X4630618Y2863885D01*
X4639708Y2854794D01*
X4653343Y2850248D01*
X4666980Y2850248D01*
X4680618Y2854794D01*
X4685162Y2859341D01*
X4689708Y2868432D01*
X5837308Y2922976D02*
G01*
X5841852Y2932066D01*
X5850943Y2941157D01*
X5860036Y2945704D01*
X5878217Y2945704D01*
X5887308Y2941157D01*
X5896399Y2932066D01*
X5900943Y2922976D01*
X5905489Y2909341D01*
X5905489Y2886613D01*
X5900943Y2872976D01*
X5896399Y2863885D01*
X5887308Y2854794D01*
X5878217Y2850248D01*
X5860036Y2850248D01*
X5850943Y2854794D01*
X5841852Y2863885D01*
X5837308Y2872976D01*
X5761852Y2945704D02*
G01*
X5807308Y2882066D01*
X5739127Y2882066D01*
X5761852Y2945704D02*
G01*
X5761852Y2850248D01*
X6822252Y2480790D02*
G01*
X6826796Y2489880D01*
X6835886Y2498971D01*
X6844979Y2503517D01*
X6863161Y2503517D01*
X6872251Y2498971D01*
X6881342Y2489880D01*
X6885886Y2480790D01*
X6890433Y2467155D01*
X6890433Y2444427D01*
X6885886Y2430790D01*
X6881342Y2421699D01*
X6872251Y2412608D01*
X6863161Y2408062D01*
X6844979Y2408062D01*
X6835886Y2412608D01*
X6826796Y2421699D01*
X6822252Y2430790D01*
X6737705Y2503517D02*
G01*
X6783161Y2503517D01*
X6787705Y2462608D01*
X6783161Y2467155D01*
X6769524Y2471699D01*
X6755886Y2471699D01*
X6742252Y2467155D01*
X6733161Y2458062D01*
X6728614Y2444427D01*
X6728614Y2435336D01*
X6733161Y2421699D01*
X6742252Y2412608D01*
X6755886Y2408062D01*
X6769524Y2408062D01*
X6783161Y2412608D01*
X6787705Y2417155D01*
X6792252Y2426246D01*
X7977926Y2480790D02*
G01*
X7982470Y2489880D01*
X7991561Y2498971D01*
X8000654Y2503517D01*
X8018835Y2503517D01*
X8027926Y2498971D01*
X8037017Y2489880D01*
X8041561Y2480790D01*
X8046107Y2467155D01*
X8046107Y2444427D01*
X8041561Y2430790D01*
X8037017Y2421699D01*
X8027926Y2412608D01*
X8018835Y2408062D01*
X8000654Y2408062D01*
X7991561Y2412608D01*
X7982470Y2421699D01*
X7977926Y2430790D01*
X7893380Y2489880D02*
G01*
X7897926Y2498971D01*
X7911561Y2503517D01*
X7920654Y2503517D01*
X7934289Y2498971D01*
X7943380Y2485336D01*
X7947926Y2462608D01*
X7947926Y2439880D01*
X7943380Y2421699D01*
X7934289Y2412608D01*
X7920654Y2408062D01*
X7916108Y2408062D01*
X7902470Y2412608D01*
X7893380Y2421699D01*
X7888836Y2435336D01*
X7888836Y2439880D01*
X7893380Y2453518D01*
X7902470Y2462608D01*
X7916108Y2467155D01*
X7920654Y2467155D01*
X7934289Y2462608D01*
X7943380Y2453518D01*
X7947926Y2439880D01*
X8313778Y4751816D02*
G01*
X8318322Y4760907D01*
X8327412Y4769998D01*
X8336506Y4774544D01*
X8354687Y4774544D01*
X8363778Y4769998D01*
X8372868Y4760907D01*
X8377412Y4751816D01*
X8381959Y4738182D01*
X8381959Y4715454D01*
X8377412Y4701816D01*
X8372868Y4692726D01*
X8363778Y4683635D01*
X8354687Y4679088D01*
X8336506Y4679088D01*
X8327412Y4683635D01*
X8318322Y4692726D01*
X8313778Y4701816D01*
X8220141Y4774544D02*
G01*
X8265596Y4679088D01*
X8283778Y4774544D02*
G01*
X8220141Y4774544D01*
X9355188Y4751816D02*
G01*
X9359732Y4760907D01*
X9368823Y4769998D01*
X9377913Y4774544D01*
X9396097Y4774544D01*
X9405188Y4769998D01*
X9414278Y4760907D01*
X9418822Y4751816D01*
X9423369Y4738182D01*
X9423369Y4715454D01*
X9418822Y4701816D01*
X9414278Y4692726D01*
X9405188Y4683635D01*
X9396097Y4679088D01*
X9377913Y4679088D01*
X9368823Y4683635D01*
X9359732Y4692726D01*
X9355188Y4701816D01*
X9302460Y4774544D02*
G01*
X9316097Y4769998D01*
X9320641Y4760907D01*
X9320641Y4751816D01*
X9316097Y4742726D01*
X9307007Y4738182D01*
X9288823Y4733635D01*
X9275188Y4729088D01*
X9266097Y4719998D01*
X9261551Y4710907D01*
X9261551Y4697272D01*
X9266097Y4688182D01*
X9270641Y4683635D01*
X9284279Y4679088D01*
X9302460Y4679088D01*
X9316097Y4683635D01*
X9320641Y4688182D01*
X9325188Y4697272D01*
X9325188Y4710907D01*
X9320641Y4719998D01*
X9311551Y4729088D01*
X9297913Y4733635D01*
X9279732Y4738182D01*
X9270641Y4742726D01*
X9266097Y4751816D01*
X9266097Y4760907D01*
X9270641Y4769998D01*
X9284279Y4774544D01*
X9302460Y4774544D01*
X10409278Y4751816D02*
G01*
X10413822Y4760907D01*
X10422915Y4769998D01*
X10432006Y4774544D01*
X10450187Y4774544D01*
X10459278Y4769998D01*
X10468368Y4760907D01*
X10472915Y4751816D01*
X10477459Y4738179D01*
X10477459Y4715454D01*
X10472915Y4701816D01*
X10468368Y4692726D01*
X10459278Y4683635D01*
X10450187Y4679088D01*
X10432006Y4679088D01*
X10422915Y4683635D01*
X10413822Y4692726D01*
X10409278Y4701816D01*
X10320187Y4742726D02*
G01*
X10324731Y4729088D01*
X10333822Y4719998D01*
X10347459Y4715454D01*
X10352006Y4715454D01*
X10365640Y4719998D01*
X10374731Y4729088D01*
X10379278Y4742726D01*
X10379278Y4747272D01*
X10374731Y4760907D01*
X10365640Y4769998D01*
X10352006Y4774544D01*
X10347459Y4774544D01*
X10333822Y4769998D01*
X10324731Y4760907D01*
X10320187Y4742726D01*
X10320187Y4719998D01*
X10324731Y4697272D01*
X10333822Y4683635D01*
X10347459Y4679088D01*
X10356550Y4679088D01*
X10370187Y4683635D01*
X10374731Y4692726D01*
X3956969Y4054068D02*
G01*
X4052425Y4054068D01*
X3956969Y4054068D02*
G01*
X3956969Y4013159D01*
X3961516Y3999522D01*
X3966060Y3994978D01*
X3975150Y3990431D01*
X3984241Y3990431D01*
X3993332Y3994978D01*
X3997878Y3999522D01*
X4002425Y4013159D01*
X4002425Y4054068D01*
X4002425Y4022250D02*
G01*
X4052425Y3990431D01*
X3975150Y3960431D02*
G01*
X3970606Y3951340D01*
X3956969Y3937706D01*
X4052425Y3937706D01*
X3956969Y3884978D02*
G01*
X3961516Y3898615D01*
X3970606Y3903159D01*
X3979697Y3903159D01*
X3988788Y3898615D01*
X3993332Y3889522D01*
X3997878Y3871340D01*
X4002425Y3857706D01*
X4011515Y3848615D01*
X4020606Y3844069D01*
X4034241Y3844069D01*
X4043332Y3848615D01*
X4047878Y3853159D01*
X4052425Y3866796D01*
X4052425Y3884978D01*
X4047878Y3898615D01*
X4043332Y3903159D01*
X4034241Y3907706D01*
X4020606Y3907706D01*
X4011515Y3903159D01*
X4002425Y3894068D01*
X3997878Y3880431D01*
X3993332Y3862250D01*
X3988788Y3853159D01*
X3979697Y3848615D01*
X3970606Y3848615D01*
X3961516Y3853159D01*
X3956969Y3866796D01*
X3956969Y3884978D01*
X4210969Y4054068D02*
G01*
X4306425Y4054068D01*
X4210969Y4054068D02*
G01*
X4210969Y4013159D01*
X4215516Y3999522D01*
X4220060Y3994978D01*
X4229150Y3990431D01*
X4238241Y3990431D01*
X4247332Y3994978D01*
X4251878Y3999522D01*
X4256425Y4013159D01*
X4256425Y4054068D01*
X4256425Y4022250D02*
G01*
X4306425Y3990431D01*
X4229150Y3960431D02*
G01*
X4224606Y3951340D01*
X4210969Y3937706D01*
X4306425Y3937706D01*
X4242788Y3848615D02*
G01*
X4256425Y3853159D01*
X4265515Y3862250D01*
X4270060Y3875887D01*
X4270060Y3880431D01*
X4265515Y3894068D01*
X4256425Y3903159D01*
X4242788Y3907706D01*
X4238241Y3907706D01*
X4224606Y3903159D01*
X4215516Y3894068D01*
X4210969Y3880431D01*
X4210969Y3875887D01*
X4215516Y3862250D01*
X4224606Y3853159D01*
X4242788Y3848615D01*
X4265515Y3848615D01*
X4288241Y3853159D01*
X4301878Y3862250D01*
X4306425Y3875887D01*
X4306425Y3884978D01*
X4301878Y3898615D01*
X4292787Y3903159D01*
X4464969Y4054068D02*
G01*
X4560425Y4054068D01*
X4464969Y4054068D02*
G01*
X4464969Y4013159D01*
X4469516Y3999522D01*
X4474060Y3994978D01*
X4483150Y3990431D01*
X4492241Y3990431D01*
X4501332Y3994978D01*
X4505878Y3999522D01*
X4510425Y4013159D01*
X4510425Y4054068D01*
X4510425Y4022250D02*
G01*
X4560425Y3990431D01*
X4487697Y3955887D02*
G01*
X4483150Y3955887D01*
X4474060Y3951340D01*
X4469516Y3946796D01*
X4464969Y3937706D01*
X4464969Y3919522D01*
X4469516Y3910431D01*
X4474060Y3905887D01*
X4483150Y3901340D01*
X4492241Y3901340D01*
X4501332Y3905887D01*
X4514969Y3914978D01*
X4560425Y3960431D01*
X4560425Y3896796D01*
X4464969Y3839522D02*
G01*
X4469516Y3853159D01*
X4483150Y3862250D01*
X4505878Y3866796D01*
X4519515Y3866796D01*
X4542241Y3862250D01*
X4555878Y3853159D01*
X4560425Y3839522D01*
X4560425Y3830431D01*
X4555878Y3816797D01*
X4542241Y3807706D01*
X4519515Y3803159D01*
X4505878Y3803159D01*
X4483150Y3807706D01*
X4469516Y3816797D01*
X4464969Y3830431D01*
X4464969Y3839522D01*
X4718969Y4054068D02*
G01*
X4814425Y4054068D01*
X4718969Y4054068D02*
G01*
X4718969Y4013159D01*
X4723516Y3999522D01*
X4728060Y3994978D01*
X4737150Y3990431D01*
X4746241Y3990431D01*
X4755332Y3994978D01*
X4759878Y3999522D01*
X4764425Y4013159D01*
X4764425Y4054068D01*
X4764425Y4022250D02*
G01*
X4814425Y3990431D01*
X4741697Y3955887D02*
G01*
X4737150Y3955887D01*
X4728060Y3951340D01*
X4723516Y3946796D01*
X4718969Y3937706D01*
X4718969Y3919522D01*
X4723516Y3910431D01*
X4728060Y3905887D01*
X4737150Y3901340D01*
X4746241Y3901340D01*
X4755332Y3905887D01*
X4768969Y3914978D01*
X4814425Y3960431D01*
X4814425Y3896796D01*
X4737150Y3866796D02*
G01*
X4732606Y3857706D01*
X4718969Y3844069D01*
X4814425Y3844069D01*
X4972969Y4054068D02*
G01*
X5068425Y4054068D01*
X4972969Y4054068D02*
G01*
X4972969Y4013159D01*
X4977516Y3999522D01*
X4982060Y3994978D01*
X4991150Y3990431D01*
X5000241Y3990431D01*
X5009332Y3994978D01*
X5013878Y3999522D01*
X5018425Y4013159D01*
X5018425Y4054068D01*
X5018425Y4022250D02*
G01*
X5068425Y3990431D01*
X4995697Y3955887D02*
G01*
X4991150Y3955887D01*
X4982060Y3951340D01*
X4977516Y3946796D01*
X4972969Y3937706D01*
X4972969Y3919522D01*
X4977516Y3910431D01*
X4982060Y3905887D01*
X4991150Y3901340D01*
X5000241Y3901340D01*
X5009332Y3905887D01*
X5022969Y3914978D01*
X5068425Y3960431D01*
X5068425Y3896796D01*
X4995697Y3862250D02*
G01*
X4991150Y3862250D01*
X4982060Y3857706D01*
X4977516Y3853159D01*
X4972969Y3844069D01*
X4972969Y3825887D01*
X4977516Y3816797D01*
X4982060Y3812250D01*
X4991150Y3807706D01*
X5000241Y3807706D01*
X5009332Y3812250D01*
X5022969Y3821341D01*
X5068425Y3866796D01*
X5068425Y3803159D01*
X5226969Y4054068D02*
G01*
X5322425Y4054068D01*
X5226969Y4054068D02*
G01*
X5226969Y4013159D01*
X5231516Y3999522D01*
X5236060Y3994978D01*
X5245150Y3990431D01*
X5254241Y3990431D01*
X5263332Y3994978D01*
X5267878Y3999522D01*
X5272425Y4013159D01*
X5272425Y4054068D01*
X5272425Y4022250D02*
G01*
X5322425Y3990431D01*
X5249697Y3955887D02*
G01*
X5245150Y3955887D01*
X5236060Y3951340D01*
X5231516Y3946796D01*
X5226969Y3937706D01*
X5226969Y3919522D01*
X5231516Y3910431D01*
X5236060Y3905887D01*
X5245150Y3901340D01*
X5254241Y3901340D01*
X5263332Y3905887D01*
X5276969Y3914978D01*
X5322425Y3960431D01*
X5322425Y3896796D01*
X5226969Y3857706D02*
G01*
X5226969Y3807706D01*
X5263332Y3834978D01*
X5263332Y3821341D01*
X5267878Y3812250D01*
X5272425Y3807706D01*
X5286060Y3803159D01*
X5295150Y3803159D01*
X5308787Y3807706D01*
X5317878Y3816797D01*
X5322425Y3830431D01*
X5322425Y3844069D01*
X5317878Y3857706D01*
X5313332Y3862250D01*
X5304241Y3866796D01*
X5480969Y4054068D02*
G01*
X5576425Y4054068D01*
X5480969Y4054068D02*
G01*
X5480969Y4013159D01*
X5485516Y3999522D01*
X5490060Y3994978D01*
X5499150Y3990431D01*
X5508241Y3990431D01*
X5517332Y3994978D01*
X5521878Y3999522D01*
X5526425Y4013159D01*
X5526425Y4054068D01*
X5526425Y4022250D02*
G01*
X5576425Y3990431D01*
X5503697Y3955887D02*
G01*
X5499150Y3955887D01*
X5490060Y3951340D01*
X5485516Y3946796D01*
X5480969Y3937706D01*
X5480969Y3919522D01*
X5485516Y3910431D01*
X5490060Y3905887D01*
X5499150Y3901340D01*
X5508241Y3901340D01*
X5517332Y3905887D01*
X5530969Y3914978D01*
X5576425Y3960431D01*
X5576425Y3896796D01*
X5480969Y3821341D02*
G01*
X5544606Y3866796D01*
X5544606Y3798615D01*
X5480969Y3821341D02*
G01*
X5576425Y3821341D01*
X5734969Y4054068D02*
G01*
X5830425Y4054068D01*
X5734969Y4054068D02*
G01*
X5734969Y4013159D01*
X5739516Y3999522D01*
X5744060Y3994978D01*
X5753150Y3990431D01*
X5762241Y3990431D01*
X5771332Y3994978D01*
X5775878Y3999522D01*
X5780425Y4013159D01*
X5780425Y4054068D01*
X5780425Y4022250D02*
G01*
X5830425Y3990431D01*
X5757697Y3955887D02*
G01*
X5753150Y3955887D01*
X5744060Y3951340D01*
X5739516Y3946796D01*
X5734969Y3937706D01*
X5734969Y3919522D01*
X5739516Y3910431D01*
X5744060Y3905887D01*
X5753150Y3901340D01*
X5762241Y3901340D01*
X5771332Y3905887D01*
X5784969Y3914978D01*
X5830425Y3960431D01*
X5830425Y3896796D01*
X5734969Y3812250D02*
G01*
X5734969Y3857706D01*
X5775878Y3862250D01*
X5771332Y3857706D01*
X5766788Y3844069D01*
X5766788Y3830431D01*
X5771332Y3816797D01*
X5780425Y3807706D01*
X5794060Y3803159D01*
X5803150Y3803159D01*
X5816787Y3807706D01*
X5825878Y3816797D01*
X5830425Y3830431D01*
X5830425Y3844069D01*
X5825878Y3857706D01*
X5821332Y3862250D01*
X5812241Y3866796D01*
X10249540Y2082774D02*
G01*
X10344995Y2082774D01*
X10249540Y2082774D02*
G01*
X10249540Y2041865D01*
X10254086Y2028228D01*
X10258630Y2023684D01*
X10267721Y2019137D01*
X10276812Y2019137D01*
X10285902Y2023684D01*
X10290449Y2028228D01*
X10294995Y2041865D01*
X10294995Y2082774D01*
X10294995Y2050956D02*
G01*
X10344995Y2019137D01*
X10249540Y1980046D02*
G01*
X10249540Y1930046D01*
X10285902Y1957321D01*
X10285902Y1943684D01*
X10290449Y1934593D01*
X10294995Y1930046D01*
X10308630Y1925502D01*
X10317721Y1925502D01*
X10331358Y1930046D01*
X10340449Y1939137D01*
X10344995Y1952774D01*
X10344995Y1966412D01*
X10340449Y1980046D01*
X10335902Y1984593D01*
X10326811Y1989137D01*
X10272268Y1890956D02*
G01*
X10267721Y1890956D01*
X10258630Y1886412D01*
X10254086Y1881865D01*
X10249540Y1872775D01*
X10249540Y1854593D01*
X10254086Y1845503D01*
X10258630Y1840956D01*
X10267721Y1836412D01*
X10276812Y1836412D01*
X10285902Y1840956D01*
X10299539Y1850047D01*
X10344995Y1895502D01*
X10344995Y1831865D01*
X8979540Y2082774D02*
G01*
X9074995Y2082774D01*
X8979540Y2082774D02*
G01*
X8979540Y2041865D01*
X8984086Y2028228D01*
X8988630Y2023684D01*
X8997721Y2019137D01*
X9006812Y2019137D01*
X9015902Y2023684D01*
X9020449Y2028228D01*
X9024995Y2041865D01*
X9024995Y2082774D01*
X9024995Y2050956D02*
G01*
X9074995Y2019137D01*
X9002268Y1984593D02*
G01*
X8997721Y1984593D01*
X8988630Y1980046D01*
X8984086Y1975502D01*
X8979540Y1966412D01*
X8979540Y1948228D01*
X8984086Y1939137D01*
X8988630Y1934593D01*
X8997721Y1930046D01*
X9006812Y1930046D01*
X9015902Y1934593D01*
X9029539Y1943684D01*
X9074995Y1989137D01*
X9074995Y1925502D01*
X8979540Y1831865D02*
G01*
X9074995Y1877321D01*
X8979540Y1895502D02*
G01*
X8979540Y1831865D01*
X8725565Y2082774D02*
G01*
X8821021Y2082774D01*
X8725565Y2082774D02*
G01*
X8725565Y2041865D01*
X8730112Y2028228D01*
X8734656Y2023684D01*
X8743746Y2019137D01*
X8752837Y2019137D01*
X8761928Y2023684D01*
X8766474Y2028228D01*
X8771021Y2041865D01*
X8771021Y2082774D01*
X8771021Y2050956D02*
G01*
X8821021Y2019137D01*
X8748293Y1984593D02*
G01*
X8743746Y1984593D01*
X8734656Y1980046D01*
X8730112Y1975502D01*
X8725565Y1966412D01*
X8725565Y1948228D01*
X8730112Y1939137D01*
X8734656Y1934593D01*
X8743746Y1930046D01*
X8752837Y1930046D01*
X8761928Y1934593D01*
X8775565Y1943684D01*
X8821021Y1989137D01*
X8821021Y1925502D01*
X8739202Y1840956D02*
G01*
X8730112Y1845503D01*
X8725565Y1859137D01*
X8725565Y1868228D01*
X8730112Y1881865D01*
X8743746Y1890956D01*
X8766474Y1895502D01*
X8789202Y1895502D01*
X8807383Y1890956D01*
X8816474Y1881865D01*
X8821021Y1868228D01*
X8821021Y1863684D01*
X8816474Y1850047D01*
X8807383Y1840956D01*
X8793746Y1836412D01*
X8789202Y1836412D01*
X8775565Y1840956D01*
X8766474Y1850047D01*
X8761928Y1863684D01*
X8761928Y1868228D01*
X8766474Y1881865D01*
X8775565Y1890956D01*
X8789202Y1895502D01*
X9233540Y2082774D02*
G01*
X9328995Y2082774D01*
X9233540Y2082774D02*
G01*
X9233540Y2041865D01*
X9238086Y2028228D01*
X9242630Y2023684D01*
X9251721Y2019137D01*
X9260812Y2019137D01*
X9269902Y2023684D01*
X9274449Y2028228D01*
X9278995Y2041865D01*
X9278995Y2082774D01*
X9278995Y2050956D02*
G01*
X9328995Y2019137D01*
X9256268Y1984593D02*
G01*
X9251721Y1984593D01*
X9242630Y1980046D01*
X9238086Y1975502D01*
X9233540Y1966412D01*
X9233540Y1948228D01*
X9238086Y1939137D01*
X9242630Y1934593D01*
X9251721Y1930046D01*
X9260812Y1930046D01*
X9269902Y1934593D01*
X9283539Y1943684D01*
X9328995Y1989137D01*
X9328995Y1925502D01*
X9233540Y1872775D02*
G01*
X9238086Y1886412D01*
X9247177Y1890956D01*
X9256268Y1890956D01*
X9265358Y1886412D01*
X9269902Y1877321D01*
X9274449Y1859137D01*
X9278995Y1845503D01*
X9288086Y1836412D01*
X9297177Y1831865D01*
X9310811Y1831865D01*
X9319902Y1836412D01*
X9324449Y1840956D01*
X9328995Y1854593D01*
X9328995Y1872775D01*
X9324449Y1886412D01*
X9319902Y1890956D01*
X9310811Y1895502D01*
X9297177Y1895502D01*
X9288086Y1890956D01*
X9278995Y1881865D01*
X9274449Y1868228D01*
X9269902Y1850047D01*
X9265358Y1840956D01*
X9256268Y1836412D01*
X9247177Y1836412D01*
X9238086Y1840956D01*
X9233540Y1854593D01*
X9233540Y1872775D01*
X9487540Y2082774D02*
G01*
X9582995Y2082774D01*
X9487540Y2082774D02*
G01*
X9487540Y2041865D01*
X9492086Y2028228D01*
X9496630Y2023684D01*
X9505721Y2019137D01*
X9514812Y2019137D01*
X9523902Y2023684D01*
X9528449Y2028228D01*
X9532995Y2041865D01*
X9532995Y2082774D01*
X9532995Y2050956D02*
G01*
X9582995Y2019137D01*
X9510268Y1984593D02*
G01*
X9505721Y1984593D01*
X9496630Y1980046D01*
X9492086Y1975502D01*
X9487540Y1966412D01*
X9487540Y1948228D01*
X9492086Y1939137D01*
X9496630Y1934593D01*
X9505721Y1930046D01*
X9514812Y1930046D01*
X9523902Y1934593D01*
X9537539Y1943684D01*
X9582995Y1989137D01*
X9582995Y1925502D01*
X9519358Y1836412D02*
G01*
X9532995Y1840956D01*
X9542086Y1850047D01*
X9546630Y1863684D01*
X9546630Y1868228D01*
X9542086Y1881865D01*
X9532995Y1890956D01*
X9519358Y1895502D01*
X9514812Y1895502D01*
X9501177Y1890956D01*
X9492086Y1881865D01*
X9487540Y1868228D01*
X9487540Y1863684D01*
X9492086Y1850047D01*
X9501177Y1840956D01*
X9519358Y1836412D01*
X9542086Y1836412D01*
X9564811Y1840956D01*
X9578449Y1850047D01*
X9582995Y1863684D01*
X9582995Y1872775D01*
X9578449Y1886412D01*
X9569358Y1890956D01*
X9741540Y2082774D02*
G01*
X9836995Y2082774D01*
X9741540Y2082774D02*
G01*
X9741540Y2041865D01*
X9746086Y2028228D01*
X9750630Y2023684D01*
X9759721Y2019137D01*
X9768812Y2019137D01*
X9777902Y2023684D01*
X9782449Y2028228D01*
X9786995Y2041865D01*
X9786995Y2082774D01*
X9786995Y2050956D02*
G01*
X9836995Y2019137D01*
X9741540Y1980046D02*
G01*
X9741540Y1930046D01*
X9777902Y1957321D01*
X9777902Y1943684D01*
X9782449Y1934593D01*
X9786995Y1930046D01*
X9800630Y1925502D01*
X9809721Y1925502D01*
X9823358Y1930046D01*
X9832449Y1939137D01*
X9836995Y1952774D01*
X9836995Y1966412D01*
X9832449Y1980046D01*
X9827902Y1984593D01*
X9818811Y1989137D01*
X9741540Y1868228D02*
G01*
X9746086Y1881865D01*
X9759721Y1890956D01*
X9782449Y1895502D01*
X9796086Y1895502D01*
X9818811Y1890956D01*
X9832449Y1881865D01*
X9836995Y1868228D01*
X9836995Y1859137D01*
X9832449Y1845503D01*
X9818811Y1836412D01*
X9796086Y1831865D01*
X9782449Y1831865D01*
X9759721Y1836412D01*
X9746086Y1845503D01*
X9741540Y1859137D01*
X9741540Y1868228D01*
X9995570Y2082794D02*
G01*
X10091026Y2082794D01*
X9995570Y2082794D02*
G01*
X9995570Y2041885D01*
X10000117Y2028248D01*
X10004661Y2023704D01*
X10013751Y2019157D01*
X10022842Y2019157D01*
X10031933Y2023704D01*
X10036479Y2028248D01*
X10041026Y2041885D01*
X10041026Y2082794D01*
X10041026Y2050976D02*
G01*
X10091026Y2019157D01*
X9995570Y1980067D02*
G01*
X9995570Y1930067D01*
X10031933Y1957341D01*
X10031933Y1943704D01*
X10036479Y1934613D01*
X10041026Y1930067D01*
X10054661Y1925523D01*
X10063751Y1925523D01*
X10077389Y1930067D01*
X10086479Y1939157D01*
X10091026Y1952795D01*
X10091026Y1966432D01*
X10086479Y1980067D01*
X10081933Y1984613D01*
X10072842Y1989157D01*
X10013751Y1895523D02*
G01*
X10009207Y1886432D01*
X9995570Y1872795D01*
X10091026Y1872795D01*
X10503540Y2070074D02*
G01*
X10598995Y2070074D01*
X10503540Y2070074D02*
G01*
X10503540Y2029165D01*
X10508086Y2015528D01*
X10512630Y2010984D01*
X10521721Y2006437D01*
X10530812Y2006437D01*
X10539902Y2010984D01*
X10544449Y2015528D01*
X10548995Y2029165D01*
X10548995Y2070074D01*
X10548995Y2038256D02*
G01*
X10598995Y2006437D01*
X10503540Y1967346D02*
G01*
X10503540Y1917346D01*
X10539902Y1944621D01*
X10539902Y1930984D01*
X10544449Y1921893D01*
X10548995Y1917346D01*
X10562630Y1912802D01*
X10571721Y1912802D01*
X10585358Y1917346D01*
X10594449Y1926437D01*
X10598995Y1940074D01*
X10598995Y1953712D01*
X10594449Y1967346D01*
X10589902Y1971893D01*
X10580811Y1976437D01*
X10503540Y1873712D02*
G01*
X10503540Y1823712D01*
X10539902Y1850984D01*
X10539902Y1837347D01*
X10544449Y1828256D01*
X10548995Y1823712D01*
X10562630Y1819165D01*
X10571721Y1819165D01*
X10585358Y1823712D01*
X10594449Y1832803D01*
X10598995Y1846437D01*
X10598995Y1860075D01*
X10594449Y1873712D01*
X10589902Y1878256D01*
X10580811Y1882802D01*
X2412979Y2564693D02*
G01*
X2412979Y2469238D01*
X2412979Y2564693D02*
G01*
X2372070Y2564693D01*
X2358433Y2560147D01*
X2353889Y2555603D01*
X2349342Y2546512D01*
X2349342Y2537421D01*
X2353889Y2528331D01*
X2358433Y2523784D01*
X2372070Y2519238D01*
X2412979Y2519238D01*
X2381161Y2519238D02*
G01*
X2349342Y2469238D01*
X2319342Y2546512D02*
G01*
X2310251Y2551056D01*
X2296617Y2564693D01*
X2296617Y2469238D01*
X2239342Y2564693D02*
G01*
X2252985Y2560147D01*
X2262075Y2546512D01*
X2266619Y2523784D01*
X2266619Y2510147D01*
X2262075Y2487421D01*
X2252985Y2473784D01*
X2239342Y2469238D01*
X2230257Y2469238D01*
X2216619Y2473784D01*
X2207529Y2487421D01*
X2202982Y2510147D01*
X2202982Y2523784D01*
X2207529Y2546512D01*
X2216619Y2560147D01*
X2230257Y2564693D01*
X2239342Y2564693D01*
X2425679Y456504D02*
G01*
X2425679Y361048D01*
X2425679Y456504D02*
G01*
X2384770Y456504D01*
X2371133Y451957D01*
X2366589Y447413D01*
X2362042Y438322D01*
X2362042Y429232D01*
X2366589Y420141D01*
X2371133Y415594D01*
X2384770Y411048D01*
X2425679Y411048D01*
X2393861Y411048D02*
G01*
X2362042Y361048D01*
X2332042Y438322D02*
G01*
X2322951Y442866D01*
X2309317Y456504D01*
X2309317Y361048D01*
X2215682Y456504D02*
G01*
X2261133Y361048D01*
X2279319Y456504D02*
G01*
X2215682Y456504D01*
X2400279Y3364804D02*
G01*
X2400279Y3269348D01*
X2400279Y3364804D02*
G01*
X2359370Y3364804D01*
X2345733Y3360257D01*
X2341189Y3355713D01*
X2336642Y3346622D01*
X2336642Y3337532D01*
X2341189Y3328441D01*
X2345733Y3323894D01*
X2359370Y3319348D01*
X2400279Y3319348D01*
X2368461Y3319348D02*
G01*
X2336642Y3269348D01*
X2247552Y3332985D02*
G01*
X2252098Y3319348D01*
X2261189Y3310257D01*
X2274826Y3305713D01*
X2279370Y3305713D01*
X2293007Y3310257D01*
X2302098Y3319348D01*
X2306642Y3332985D01*
X2306642Y3337532D01*
X2302098Y3351166D01*
X2293007Y3360257D01*
X2279370Y3364804D01*
X2274826Y3364804D01*
X2261189Y3360257D01*
X2252098Y3351166D01*
X2247552Y3332985D01*
X2247552Y3310257D01*
X2252098Y3287532D01*
X2261189Y3273894D01*
X2274826Y3269348D01*
X2283917Y3269348D01*
X2297551Y3273894D01*
X2302098Y3282985D01*
X2400279Y5472998D02*
G01*
X2400279Y5377543D01*
X2400279Y5472998D02*
G01*
X2359370Y5472998D01*
X2345733Y5468452D01*
X2341189Y5463908D01*
X2336642Y5454817D01*
X2336642Y5445726D01*
X2341189Y5436636D01*
X2345733Y5432089D01*
X2359370Y5427543D01*
X2400279Y5427543D01*
X2368461Y5427543D02*
G01*
X2336642Y5377543D01*
X2302098Y5450271D02*
G01*
X2302098Y5454817D01*
X2297551Y5463908D01*
X2293007Y5468452D01*
X2283917Y5472998D01*
X2265733Y5472998D01*
X2256642Y5468452D01*
X2252098Y5463908D01*
X2247552Y5454817D01*
X2247552Y5445726D01*
X2252098Y5436636D01*
X2261189Y5422999D01*
X2306642Y5377543D01*
X2243007Y5377543D01*
D12*
X3237796Y5471812D02*
G01*
X3237796Y5551815D01*
X3126821Y5440827D02*
G01*
X3206818Y5440827D01*
X3126821Y5582793D02*
G01*
X3206818Y5582793D01*
X3069231Y5440245D02*
G01*
X2989234Y5440245D01*
X2958249Y5471228D02*
G01*
X2958249Y5551225D01*
X3069231Y5582206D02*
G01*
X2989234Y5582206D01*
X3338215Y2769318D02*
G01*
X3418217Y2769318D01*
X3307229Y2880293D02*
G01*
X3307229Y2800296D01*
X3449195Y2880293D02*
G01*
X3449195Y2800296D01*
X3306648Y2937883D02*
G01*
X3306648Y3017880D01*
X3337631Y3048866D02*
G01*
X3417628Y3048866D01*
X3448608Y2937883D02*
G01*
X3448608Y3017880D01*
X4481215Y2769318D02*
G01*
X4561217Y2769318D01*
X4450229Y2880293D02*
G01*
X4450229Y2800296D01*
X4592195Y2880293D02*
G01*
X4592195Y2800296D01*
X4449648Y2937883D02*
G01*
X4449648Y3017880D01*
X4480631Y3048866D02*
G01*
X4560628Y3048866D01*
X4591608Y2937883D02*
G01*
X4591608Y3017880D01*
X5598815Y2769318D02*
G01*
X5678817Y2769318D01*
X5567829Y2880293D02*
G01*
X5567829Y2800296D01*
X5709795Y2880293D02*
G01*
X5709795Y2800296D01*
X5567248Y2937883D02*
G01*
X5567248Y3017880D01*
X5598231Y3048866D02*
G01*
X5678228Y3048866D01*
X5709208Y2937883D02*
G01*
X5709208Y3017880D01*
X6668185Y2338671D02*
G01*
X6668185Y2258669D01*
X6779160Y2369657D02*
G01*
X6699163Y2369657D01*
X6779160Y2227691D02*
G01*
X6699163Y2227691D01*
X6836750Y2370239D02*
G01*
X6916747Y2370239D01*
X6947733Y2339256D02*
G01*
X6947733Y2259258D01*
X6836750Y2228278D02*
G01*
X6916747Y2228278D01*
X7823860Y2338671D02*
G01*
X7823860Y2258669D01*
X7934835Y2369657D02*
G01*
X7854838Y2369657D01*
X7934835Y2227691D02*
G01*
X7854838Y2227691D01*
X7992424Y2370239D02*
G01*
X8072422Y2370239D01*
X8103407Y2339256D02*
G01*
X8103407Y2259258D01*
X7992424Y2228278D02*
G01*
X8072422Y2228278D01*
X8698771Y4684412D02*
G01*
X8698771Y4764415D01*
X8587795Y4653427D02*
G01*
X8667793Y4653427D01*
X8587795Y4795393D02*
G01*
X8667793Y4795393D01*
X8530206Y4652845D02*
G01*
X8450209Y4652845D01*
X8419223Y4683828D02*
G01*
X8419223Y4763825D01*
X8530206Y4794806D02*
G01*
X8450209Y4794806D01*
X9740181Y4684412D02*
G01*
X9740181Y4764415D01*
X9629206Y4653427D02*
G01*
X9709203Y4653427D01*
X9629206Y4795393D02*
G01*
X9709203Y4795393D01*
X9571616Y4652845D02*
G01*
X9491619Y4652845D01*
X9460633Y4683828D02*
G01*
X9460633Y4763825D01*
X9571616Y4794806D02*
G01*
X9491619Y4794806D01*
X10794271Y4684412D02*
G01*
X10794271Y4764415D01*
X10683295Y4653427D02*
G01*
X10763293Y4653427D01*
X10683295Y4795393D02*
G01*
X10763293Y4795393D01*
X10625706Y4652845D02*
G01*
X10545709Y4652845D01*
X10514723Y4683828D02*
G01*
X10514723Y4763825D01*
X10625706Y4794806D02*
G01*
X10545709Y4794806D01*
X3928478Y4089504D02*
G01*
X4088483Y4089504D01*
X3928988Y4399561D02*
G01*
X4088993Y4399561D01*
X4088483Y4214500D02*
G01*
X4088483Y4089504D01*
X3928478Y4214500D02*
G01*
X3928478Y4089504D01*
X4088993Y4274558D02*
G01*
X4088993Y4399561D01*
X3928988Y4274558D02*
G01*
X3928988Y4399561D01*
X4182478Y4089504D02*
G01*
X4342483Y4089504D01*
X4182988Y4399561D02*
G01*
X4342993Y4399561D01*
X4342483Y4214500D02*
G01*
X4342483Y4089504D01*
X4182478Y4214500D02*
G01*
X4182478Y4089504D01*
X4342993Y4274558D02*
G01*
X4342993Y4399561D01*
X4182988Y4274558D02*
G01*
X4182988Y4399561D01*
X4436478Y4089504D02*
G01*
X4596483Y4089504D01*
X4436988Y4399561D02*
G01*
X4596993Y4399561D01*
X4596483Y4214500D02*
G01*
X4596483Y4089504D01*
X4436478Y4214500D02*
G01*
X4436478Y4089504D01*
X4596993Y4274558D02*
G01*
X4596993Y4399561D01*
X4436988Y4274558D02*
G01*
X4436988Y4399561D01*
X4690478Y4089504D02*
G01*
X4850483Y4089504D01*
X4690988Y4399561D02*
G01*
X4850993Y4399561D01*
X4850483Y4214500D02*
G01*
X4850483Y4089504D01*
X4690478Y4214500D02*
G01*
X4690478Y4089504D01*
X4850993Y4274558D02*
G01*
X4850993Y4399561D01*
X4690988Y4274558D02*
G01*
X4690988Y4399561D01*
X4944478Y4089504D02*
G01*
X5104483Y4089504D01*
X4944988Y4399561D02*
G01*
X5104993Y4399561D01*
X5104483Y4214500D02*
G01*
X5104483Y4089504D01*
X4944478Y4214500D02*
G01*
X4944478Y4089504D01*
X5104993Y4274558D02*
G01*
X5104993Y4399561D01*
X4944988Y4274558D02*
G01*
X4944988Y4399561D01*
X5198478Y4089504D02*
G01*
X5358483Y4089504D01*
X5198988Y4399561D02*
G01*
X5358993Y4399561D01*
X5358483Y4214500D02*
G01*
X5358483Y4089504D01*
X5198478Y4214500D02*
G01*
X5198478Y4089504D01*
X5358993Y4274558D02*
G01*
X5358993Y4399561D01*
X5198988Y4274558D02*
G01*
X5198988Y4399561D01*
X5452478Y4089504D02*
G01*
X5612483Y4089504D01*
X5452988Y4399561D02*
G01*
X5612993Y4399561D01*
X5612483Y4214500D02*
G01*
X5612483Y4089504D01*
X5452478Y4214500D02*
G01*
X5452478Y4089504D01*
X5612993Y4274558D02*
G01*
X5612993Y4399561D01*
X5452988Y4274558D02*
G01*
X5452988Y4399561D01*
X5706478Y4089504D02*
G01*
X5866483Y4089504D01*
X5706988Y4399561D02*
G01*
X5866993Y4399561D01*
X5866483Y4214500D02*
G01*
X5866483Y4089504D01*
X5706478Y4214500D02*
G01*
X5706478Y4089504D01*
X5866993Y4274558D02*
G01*
X5866993Y4399561D01*
X5706988Y4274558D02*
G01*
X5706988Y4399561D01*
X10219184Y1445127D02*
G01*
X10379189Y1445127D01*
X10219695Y1755185D02*
G01*
X10379699Y1755185D01*
X10379189Y1570123D02*
G01*
X10379189Y1445127D01*
X10219184Y1570123D02*
G01*
X10219184Y1445127D01*
X10379699Y1630184D02*
G01*
X10379699Y1755185D01*
X10219695Y1630184D02*
G01*
X10219695Y1755185D01*
X8949184Y1445127D02*
G01*
X9109189Y1445127D01*
X8949695Y1755185D02*
G01*
X9109699Y1755185D01*
X9109189Y1570123D02*
G01*
X9109189Y1445127D01*
X8949184Y1570123D02*
G01*
X8949184Y1445127D01*
X9109699Y1630184D02*
G01*
X9109699Y1755185D01*
X8949695Y1630184D02*
G01*
X8949695Y1755185D01*
X8856210Y1755251D02*
G01*
X8696205Y1755251D01*
X8855699Y1445193D02*
G01*
X8695695Y1445193D01*
X8696205Y1630255D02*
G01*
X8696205Y1755251D01*
X8856210Y1630255D02*
G01*
X8856210Y1755251D01*
X8695695Y1570194D02*
G01*
X8695695Y1445193D01*
X8855699Y1570194D02*
G01*
X8855699Y1445193D01*
X9203184Y1445127D02*
G01*
X9363189Y1445127D01*
X9203695Y1755185D02*
G01*
X9363699Y1755185D01*
X9363189Y1570123D02*
G01*
X9363189Y1445127D01*
X9203184Y1570123D02*
G01*
X9203184Y1445127D01*
X9363699Y1630184D02*
G01*
X9363699Y1755185D01*
X9203695Y1630184D02*
G01*
X9203695Y1755185D01*
X9457181Y1445127D02*
G01*
X9617186Y1445127D01*
X9457692Y1755185D02*
G01*
X9617697Y1755185D01*
X9617186Y1570123D02*
G01*
X9617186Y1445127D01*
X9457181Y1570123D02*
G01*
X9457181Y1445127D01*
X9617697Y1630184D02*
G01*
X9617697Y1755185D01*
X9457692Y1630184D02*
G01*
X9457692Y1755185D01*
X9711181Y1445127D02*
G01*
X9871186Y1445127D01*
X9711692Y1755185D02*
G01*
X9871697Y1755185D01*
X9871186Y1570123D02*
G01*
X9871186Y1445127D01*
X9711181Y1570123D02*
G01*
X9711181Y1445127D01*
X9871697Y1630184D02*
G01*
X9871697Y1755185D01*
X9711692Y1630184D02*
G01*
X9711692Y1755185D01*
X9965181Y1445127D02*
G01*
X10125186Y1445127D01*
X9965692Y1755185D02*
G01*
X10125697Y1755185D01*
X10125186Y1570123D02*
G01*
X10125186Y1445127D01*
X9965181Y1570123D02*
G01*
X9965181Y1445127D01*
X10125697Y1630184D02*
G01*
X10125697Y1755185D01*
X9965692Y1630184D02*
G01*
X9965692Y1755185D01*
X10634207Y1755251D02*
G01*
X10474203Y1755251D01*
X10633697Y1445193D02*
G01*
X10473692Y1445193D01*
X10474203Y1630255D02*
G01*
X10474203Y1755251D01*
X10634207Y1630255D02*
G01*
X10634207Y1755251D01*
X10473692Y1570194D02*
G01*
X10473692Y1445193D01*
X10633697Y1570194D02*
G01*
X10633697Y1445193D01*
X2169035Y904110D02*
G01*
X2169035Y744105D01*
X2479090Y903599D02*
G01*
X2479090Y743595D01*
X2294028Y744105D02*
G01*
X2169035Y744105D01*
X2294028Y904110D02*
G01*
X2169035Y904110D01*
X2354089Y743595D02*
G01*
X2479090Y743595D01*
X2354089Y903599D02*
G01*
X2479090Y903599D01*
X2169035Y2174110D02*
G01*
X2169035Y2014105D01*
X2479090Y2173599D02*
G01*
X2479090Y2013595D01*
X2294028Y2014105D02*
G01*
X2169035Y2014105D01*
X2294028Y2174110D02*
G01*
X2169035Y2174110D01*
X2354089Y2013595D02*
G01*
X2479090Y2013595D01*
X2354089Y2173599D02*
G01*
X2479090Y2173599D01*
X2479156Y2267084D02*
G01*
X2479156Y2427089D01*
X2169104Y2267595D02*
G01*
X2169104Y2427599D01*
X2354160Y2427089D02*
G01*
X2479156Y2427089D01*
X2354160Y2267084D02*
G01*
X2479156Y2267084D01*
X2294105Y2427599D02*
G01*
X2169104Y2427599D01*
X2294105Y2267595D02*
G01*
X2169104Y2267595D01*
X2169035Y1920110D02*
G01*
X2169035Y1760105D01*
X2479090Y1919599D02*
G01*
X2479090Y1759595D01*
X2294028Y1760105D02*
G01*
X2169035Y1760105D01*
X2294028Y1920110D02*
G01*
X2169035Y1920110D01*
X2354089Y1759595D02*
G01*
X2479090Y1759595D01*
X2354089Y1919599D02*
G01*
X2479090Y1919599D01*
X2169035Y1666112D02*
G01*
X2169035Y1506108D01*
X2479090Y1665602D02*
G01*
X2479090Y1505597D01*
X2294028Y1506108D02*
G01*
X2169035Y1506108D01*
X2294028Y1666112D02*
G01*
X2169035Y1666112D01*
X2354089Y1505597D02*
G01*
X2479090Y1505597D01*
X2354089Y1665602D02*
G01*
X2479090Y1665602D01*
X2169035Y1412112D02*
G01*
X2169035Y1252108D01*
X2479090Y1411602D02*
G01*
X2479090Y1251597D01*
X2294028Y1252108D02*
G01*
X2169035Y1252108D01*
X2294028Y1412112D02*
G01*
X2169035Y1412112D01*
X2354089Y1251597D02*
G01*
X2479090Y1251597D01*
X2354089Y1411602D02*
G01*
X2479090Y1411602D01*
X2169035Y1158112D02*
G01*
X2169035Y998108D01*
X2479090Y1157602D02*
G01*
X2479090Y997597D01*
X2294028Y998108D02*
G01*
X2169035Y998108D01*
X2294028Y1158112D02*
G01*
X2169035Y1158112D01*
X2354089Y997597D02*
G01*
X2479090Y997597D01*
X2354089Y1157602D02*
G01*
X2479090Y1157602D01*
X2479156Y489087D02*
G01*
X2479156Y649091D01*
X2169104Y489597D02*
G01*
X2169104Y649602D01*
X2354160Y649091D02*
G01*
X2479156Y649091D01*
X2354160Y489087D02*
G01*
X2479156Y489087D01*
X2294105Y649602D02*
G01*
X2169104Y649602D01*
X2294105Y489597D02*
G01*
X2169104Y489597D01*
X2294105Y3398288D02*
G01*
X2169104Y3398288D01*
X2479156Y3397778D02*
G01*
X2479156Y3557783D01*
X2169104Y3398288D02*
G01*
X2169104Y3558293D01*
X2354160Y3557783D02*
G01*
X2479156Y3557783D01*
X2354160Y3397778D02*
G01*
X2479156Y3397778D01*
X2294105Y3558293D02*
G01*
X2169104Y3558293D01*
X2354089Y4066293D02*
G01*
X2479090Y4066293D01*
X2169035Y4066804D02*
G01*
X2169035Y3906799D01*
X2479090Y4066293D02*
G01*
X2479090Y3906288D01*
X2294028Y3906799D02*
G01*
X2169035Y3906799D01*
X2294028Y4066804D02*
G01*
X2169035Y4066804D01*
X2354089Y3906288D02*
G01*
X2479090Y3906288D01*
X2354089Y4320293D02*
G01*
X2479090Y4320293D01*
X2169035Y4320804D02*
G01*
X2169035Y4160799D01*
X2479090Y4320293D02*
G01*
X2479090Y4160288D01*
X2294028Y4160799D02*
G01*
X2169035Y4160799D01*
X2294028Y4320804D02*
G01*
X2169035Y4320804D01*
X2354089Y4160288D02*
G01*
X2479090Y4160288D01*
X2354089Y4574293D02*
G01*
X2479090Y4574293D01*
X2169035Y4574804D02*
G01*
X2169035Y4414799D01*
X2479090Y4574293D02*
G01*
X2479090Y4414288D01*
X2294028Y4414799D02*
G01*
X2169035Y4414799D01*
X2294028Y4574804D02*
G01*
X2169035Y4574804D01*
X2354089Y4414288D02*
G01*
X2479090Y4414288D01*
X2354089Y4828291D02*
G01*
X2479090Y4828291D01*
X2169035Y4828801D02*
G01*
X2169035Y4668796D01*
X2479090Y4828291D02*
G01*
X2479090Y4668286D01*
X2294028Y4668796D02*
G01*
X2169035Y4668796D01*
X2294028Y4828801D02*
G01*
X2169035Y4828801D01*
X2354089Y4668286D02*
G01*
X2479090Y4668286D01*
X2294105Y5176286D02*
G01*
X2169104Y5176286D01*
X2479156Y5175775D02*
G01*
X2479156Y5335780D01*
X2169104Y5176286D02*
G01*
X2169104Y5336291D01*
X2354160Y5335780D02*
G01*
X2479156Y5335780D01*
X2354160Y5175775D02*
G01*
X2479156Y5175775D01*
X2294105Y5336291D02*
G01*
X2169104Y5336291D01*
X2354089Y5082291D02*
G01*
X2479090Y5082291D01*
X2169035Y5082801D02*
G01*
X2169035Y4922796D01*
X2479090Y5082291D02*
G01*
X2479090Y4922286D01*
X2294028Y4922796D02*
G01*
X2169035Y4922796D01*
X2294028Y5082801D02*
G01*
X2169035Y5082801D01*
X2354089Y4922286D02*
G01*
X2479090Y4922286D01*
X2354089Y3812291D02*
G01*
X2479090Y3812291D01*
X2169035Y3812801D02*
G01*
X2169035Y3652796D01*
X2479090Y3812291D02*
G01*
X2479090Y3652286D01*
X2294028Y3652796D02*
G01*
X2169035Y3652796D01*
X2294028Y3812801D02*
G01*
X2169035Y3812801D01*
X2354089Y3652286D02*
G01*
X2479090Y3652286D01*
G75*
G01*
X2958244Y5471229D02*
G03*
X2989227Y5440246I30983J0D01*
G75*
G01*
X2989227Y5582211D02*
G03*
X2958244Y5551226I0J-30983D01*
G75*
G01*
X3206813Y5440827D02*
G03*
X3237796Y5471813I1J30983D01*
G75*
G01*
X3237796Y5551810D02*
G03*
X3206813Y5582793I-30982J0D01*
G75*
G01*
X3337631Y3048871D02*
G03*
X3306648Y3017888I0J-30983D01*
G75*
G01*
X3448614Y3017888D02*
G03*
X3417628Y3048871I-30983J0D01*
G75*
G01*
X3307230Y2800302D02*
G03*
X3338215Y2769319I30983J0D01*
G75*
G01*
X3418213Y2769319D02*
G03*
X3449196Y2800302I0J30983D01*
G75*
G01*
X4480631Y3048871D02*
G03*
X4449648Y3017888I0J-30983D01*
G75*
G01*
X4591614Y3017888D02*
G03*
X4560628Y3048871I-30983J0D01*
G75*
G01*
X4450230Y2800302D02*
G03*
X4481215Y2769319I30983J0D01*
G75*
G01*
X4561213Y2769319D02*
G03*
X4592196Y2800302I0J30983D01*
G75*
G01*
X5598231Y3048871D02*
G03*
X5567248Y3017888I0J-30983D01*
G75*
G01*
X5709214Y3017888D02*
G03*
X5678228Y3048871I-30983J0D01*
G75*
G01*
X5567830Y2800302D02*
G03*
X5598815Y2769319I30983J0D01*
G75*
G01*
X5678813Y2769319D02*
G03*
X5709796Y2800302I0J30983D01*
G75*
G01*
X6947738Y2339256D02*
G03*
X6916755Y2370239I-30983J0D01*
G75*
G01*
X6916755Y2228273D02*
G03*
X6947738Y2259259I0J30983D01*
G75*
G01*
X6699169Y2369657D02*
G03*
X6668186Y2338672I0J-30982D01*
G75*
G01*
X6668186Y2258675D02*
G03*
X6699169Y2227692I30983J0D01*
G75*
G01*
X8103413Y2339256D02*
G03*
X8072430Y2370239I-30983J0D01*
G75*
G01*
X8072430Y2228273D02*
G03*
X8103413Y2259259I0J30983D01*
G75*
G01*
X7854843Y2369657D02*
G03*
X7823860Y2338672I0J-30982D01*
G75*
G01*
X7823860Y2258675D02*
G03*
X7854843Y2227692I30983J0D01*
G75*
G01*
X8419219Y4683829D02*
G03*
X8450202Y4652846I30983J0D01*
G75*
G01*
X8450202Y4794811D02*
G03*
X8419219Y4763826I0J-30983D01*
G75*
G01*
X8667788Y4653427D02*
G03*
X8698771Y4684413I0J30983D01*
G75*
G01*
X8698771Y4764410D02*
G03*
X8667788Y4795393I-30983J0D01*
G75*
G01*
X9460629Y4683829D02*
G03*
X9491612Y4652846I30983J0D01*
G75*
G01*
X9491612Y4794811D02*
G03*
X9460629Y4763826I0J-30983D01*
G75*
G01*
X9709198Y4653427D02*
G03*
X9740181Y4684413I0J30983D01*
G75*
G01*
X9740181Y4764410D02*
G03*
X9709198Y4795393I-30983J0D01*
G75*
G01*
X10514719Y4683829D02*
G03*
X10545702Y4652846I30983J0D01*
G75*
G01*
X10545702Y4794811D02*
G03*
X10514719Y4763826I0J-30983D01*
G75*
G01*
X10763288Y4653427D02*
G03*
X10794271Y4684413I0J30983D01*
G75*
G01*
X10794271Y4764410D02*
G03*
X10763288Y4795393I-30983J0D01*
G75*
G01
X7535774Y4572000D02*
G03X7535774Y4572000I-499999J0D01*
X12151106Y1397000D02*
G01*
X12659106Y1397000D01*
X12659106Y889000D01*
X12151106Y889000D01*
X12151106Y1397000D01*
M02*
