G04 Layer: BottomPasteMaskLayer*
G04 Panelize: , Column: 2, Row: 2, Board Size: 127.89mm x 58.42mm, Panelized Board Size: 257.78mm x 118.84mm*
G04 EasyEDA v6.5.34, 2023-09-05 23:47:00*
G04 23034ade622943b09ef3a65bf2e35728,5a6b42c53f6a479593ecc07194224c93,10*
G04 Gerber Generator version 0.2*
G04 Scale: 100 percent, Rotated: No, Reflected: No *
G04 Dimensions in millimeters *
G04 leading zeros omitted , absolute positions ,4 integer and 5 decimal *
%FSLAX45Y45*%
%MOMM*%

%AMMACRO1*21,1,$1,$2,0,0,$3*%
%ADD10MACRO1,0.8X0.9X0.0000*%
%ADD11MACRO1,0.8X0.9X-90.0000*%
%ADD12MACRO1,1X1.1X-90.0000*%
%ADD13MACRO1,1X1.1X90.0000*%
%ADD14MACRO1,1X1.1X0.0000*%

%LPD*%
D10*
G01*
X3168796Y5511789D03*
G01*
X3028796Y5511789D03*
D11*
G01*
X3378192Y2838319D03*
G01*
X3378192Y2978318D03*
G01*
X4521192Y2838319D03*
G01*
X4521192Y2978318D03*
G01*
X5638792Y2838319D03*
G01*
X5638792Y2978318D03*
D10*
G01*
X6737186Y2298694D03*
G01*
X6877185Y2298694D03*
G01*
X7892860Y2298694D03*
G01*
X8032860Y2298694D03*
G01*
X8629770Y4724389D03*
G01*
X8489770Y4724389D03*
G01*
X9671180Y4724389D03*
G01*
X9531181Y4724389D03*
G01*
X10725270Y4724389D03*
G01*
X10585270Y4724389D03*
D12*
G01*
X4008991Y4164558D03*
G01*
X4008991Y4324558D03*
G01*
X4262991Y4164558D03*
G01*
X4262991Y4324558D03*
G01*
X4516991Y4164558D03*
G01*
X4516991Y4324558D03*
G01*
X4770991Y4164558D03*
G01*
X4770991Y4324558D03*
G01*
X5024991Y4164558D03*
G01*
X5024991Y4324558D03*
G01*
X5278991Y4164558D03*
G01*
X5278991Y4324558D03*
G01*
X5532991Y4164558D03*
G01*
X5532991Y4324558D03*
G01*
X5786991Y4164558D03*
G01*
X5786991Y4324558D03*
G01*
X10299697Y1520184D03*
G01*
X10299697Y1680183D03*
G01*
X9029697Y1520184D03*
G01*
X9029697Y1680183D03*
D13*
G01*
X8775697Y1680194D03*
G01*
X8775697Y1520196D03*
D12*
G01*
X9283697Y1520184D03*
G01*
X9283697Y1680183D03*
G01*
X9537694Y1520184D03*
G01*
X9537694Y1680183D03*
G01*
X9791694Y1520184D03*
G01*
X9791694Y1680183D03*
G01*
X10045694Y1520184D03*
G01*
X10045694Y1680183D03*
D13*
G01*
X10553694Y1680194D03*
G01*
X10553694Y1520196D03*
D14*
G01*
X2244092Y823597D03*
G01*
X2404088Y823597D03*
G01*
X2244092Y2093597D03*
G01*
X2404088Y2093597D03*
G01*
X2404099Y2347597D03*
G01*
X2244103Y2347597D03*
G01*
X2244092Y1839597D03*
G01*
X2404088Y1839597D03*
G01*
X2244092Y1585600D03*
G01*
X2404088Y1585600D03*
G01*
X2244092Y1331600D03*
G01*
X2404088Y1331600D03*
G01*
X2244092Y1077600D03*
G01*
X2404088Y1077600D03*
G01*
X2404099Y569600D03*
G01*
X2244103Y569600D03*
G01*
X2244103Y3478291D03*
G01*
X2404099Y3478291D03*
G01*
X2404088Y3986291D03*
G01*
X2244092Y3986291D03*
G01*
X2404088Y4240291D03*
G01*
X2244092Y4240291D03*
G01*
X2404088Y4494291D03*
G01*
X2244092Y4494291D03*
G01*
X2404088Y4748288D03*
G01*
X2244092Y4748288D03*
G01*
X2244103Y5256288D03*
G01*
X2404099Y5256288D03*
G01*
X2404088Y5002288D03*
G01*
X2244092Y5002288D03*
G01*
X2404088Y3732288D03*
G01*
X2244092Y3732288D03*
M02*
