G04 Layer: TopSolderMaskLayer*
G04 Panelize: , Column: 2, Row: 2, Board Size: 127.89mm x 58.42mm, Panelized Board Size: 257.78mm x 118.84mm*
G04 EasyEDA v6.5.34, 2023-09-05 23:47:00*
G04 23034ade622943b09ef3a65bf2e35728,5a6b42c53f6a479593ecc07194224c93,10*
G04 Gerber Generator version 0.2*
G04 Scale: 100 percent, Rotated: No, Reflected: No *
G04 Dimensions in millimeters *
G04 leading zeros omitted , absolute positions ,4 integer and 5 decimal *
%FSLAX45Y45*%
%MOMM*%

%AMMACRO1*1,1,$1,$2,$3*1,1,$1,$4,$5*1,1,$1,0-$2,0-$3*1,1,$1,0-$4,0-$5*20,1,$1,$2,$3,$4,$5,0*20,1,$1,$4,$5,0-$2,0-$3,0*20,1,$1,0-$2,0-$3,0-$4,0-$5,0*20,1,$1,0-$4,0-$5,$2,$3,0*4,1,4,$2,$3,$4,$5,0-$2,0-$3,0-$4,0-$5,$2,$3,0*%
%ADD10MACRO1,0.1016X-0.4X0.4X0.4X0.4*%
%ADD11MACRO1,0.1016X0.432X-0.4032X-0.432X-0.4032*%
%ADD12MACRO1,0.1016X0.432X0.4032X-0.432X0.4032*%
%ADD13MACRO1,0.1016X-0.85X0.85X0.85X0.85*%
%ADD14C,1.8016*%
%ADD15O,2.1015960000000002X1.6015970000000002*%
%ADD16MACRO1,0.1016X-1X0.75X1X0.75*%
%ADD17O,2.1015960000000002X1.6256000000000002*%
%ADD18C,5.2032*%
%ADD19C,1.6256*%
%ADD20C,2.0016*%
%ADD21C,1.9016*%
%ADD22C,2.1016*%
%ADD23C,0.0187*%

%LPD*%
D10*
G01*
X12509474Y1527807D03*
G01*
X12509474Y1697987D03*
D11*
G01*
X12306274Y1688222D03*
D12*
G01*
X12306274Y1537572D03*
D13*
G01*
X5952981Y2095496D03*
D14*
G01*
X5952997Y1841500D03*
G01*
X5952997Y571500D03*
G01*
X5952997Y317500D03*
G01*
X5952997Y1587500D03*
G01*
X5952997Y1333500D03*
G01*
X5952997Y825500D03*
G01*
X5952997Y1079500D03*
G01*
X6747002Y317500D03*
G01*
X6747002Y571500D03*
G01*
X6747002Y825500D03*
G01*
X6747002Y1079500D03*
G01*
X6747002Y1333500D03*
G01*
X6747002Y1587500D03*
G01*
X6747002Y1841500D03*
G01*
X6747002Y2095500D03*
D13*
G01*
X7108678Y2095496D03*
D14*
G01*
X7108672Y1841500D03*
G01*
X7108672Y571500D03*
G01*
X7108672Y317500D03*
G01*
X7108672Y1587500D03*
G01*
X7108672Y1333500D03*
G01*
X7108672Y825500D03*
G01*
X7108672Y1079500D03*
G01*
X7902676Y317500D03*
G01*
X7902676Y571500D03*
G01*
X7902676Y825500D03*
G01*
X7902676Y1079500D03*
G01*
X7902676Y1333500D03*
G01*
X7902676Y1587500D03*
G01*
X7902676Y1841500D03*
G01*
X7902676Y2095500D03*
D15*
G01*
X4876800Y571500D03*
G01*
X4876800Y825500D03*
G01*
X4876800Y1079500D03*
G01*
X4876800Y1333500D03*
G01*
X4876800Y1587500D03*
G01*
X4876800Y1841500D03*
G01*
X4876800Y2095500D03*
G01*
X4876800Y2349500D03*
D16*
G01*
X4876789Y2603497D03*
D17*
G01*
X4876800Y317500D03*
G01*
X5638800Y317500D03*
G01*
X5638800Y571500D03*
G01*
X5638800Y825500D03*
G01*
X5638800Y1079500D03*
G01*
X5638800Y1333500D03*
G01*
X5638800Y1587500D03*
G01*
X5638800Y1841500D03*
G01*
X5638800Y2095500D03*
G01*
X5638800Y2349500D03*
G01*
X5638800Y2603500D03*
D15*
G01*
X3759200Y571500D03*
G01*
X3759200Y825500D03*
G01*
X3759200Y1079500D03*
G01*
X3759200Y1333500D03*
G01*
X3759200Y1587500D03*
G01*
X3759200Y1841500D03*
G01*
X3759200Y2095500D03*
G01*
X3759200Y2349500D03*
D16*
G01*
X3759192Y2603497D03*
D17*
G01*
X3759200Y317500D03*
G01*
X4521200Y317500D03*
G01*
X4521200Y571500D03*
G01*
X4521200Y825500D03*
G01*
X4521200Y1079500D03*
G01*
X4521200Y1333500D03*
G01*
X4521200Y1587500D03*
G01*
X4521200Y1841500D03*
G01*
X4521200Y2095500D03*
G01*
X4521200Y2349500D03*
G01*
X4521200Y2603500D03*
D13*
G01*
X8077173Y4724391D03*
D14*
G01*
X8077174Y4470400D03*
G01*
X8077174Y3200400D03*
G01*
X8077174Y2946400D03*
G01*
X8077174Y4216400D03*
G01*
X8077174Y3962400D03*
G01*
X8077174Y3454400D03*
G01*
X8077174Y3708400D03*
G01*
X8839174Y2946400D03*
G01*
X8839174Y3200400D03*
G01*
X8839174Y3454400D03*
G01*
X8839174Y3708400D03*
G01*
X8839174Y3962400D03*
G01*
X8839174Y4216400D03*
G01*
X8839174Y4470400D03*
G01*
X8839174Y4724400D03*
D13*
G01*
X9124928Y4724391D03*
D14*
G01*
X9124950Y4470400D03*
G01*
X9124950Y3200400D03*
G01*
X9124950Y2946400D03*
G01*
X9124950Y4216400D03*
G01*
X9124950Y3962400D03*
G01*
X9124950Y3454400D03*
G01*
X9124950Y3708400D03*
G01*
X9886950Y2946400D03*
G01*
X9886950Y3200400D03*
G01*
X9886950Y3454400D03*
G01*
X9886950Y3708400D03*
G01*
X9886950Y3962400D03*
G01*
X9886950Y4216400D03*
G01*
X9886950Y4470400D03*
G01*
X9886950Y4724400D03*
D13*
G01*
X10172670Y4724391D03*
D14*
G01*
X10172674Y4470400D03*
G01*
X10172674Y3200400D03*
G01*
X10172674Y2946400D03*
G01*
X10172674Y4216400D03*
G01*
X10172674Y3962400D03*
G01*
X10172674Y3454400D03*
G01*
X10172674Y3708400D03*
G01*
X10934674Y2946400D03*
G01*
X10934674Y3200400D03*
G01*
X10934674Y3454400D03*
G01*
X10934674Y3708400D03*
G01*
X10934674Y3962400D03*
G01*
X10934674Y4216400D03*
G01*
X10934674Y4470400D03*
G01*
X10934674Y4724400D03*
D15*
G01*
X2616200Y571500D03*
G01*
X2616200Y825500D03*
G01*
X2616200Y1079500D03*
G01*
X2616200Y1333500D03*
G01*
X2616200Y1587500D03*
G01*
X2616200Y1841500D03*
G01*
X2616200Y2095500D03*
G01*
X2616200Y2349500D03*
D16*
G01*
X2616194Y2603497D03*
D17*
G01*
X2616200Y317500D03*
G01*
X3378200Y317500D03*
G01*
X3378200Y571500D03*
G01*
X3378200Y825500D03*
G01*
X3378200Y1079500D03*
G01*
X3378200Y1333500D03*
G01*
X3378200Y1587500D03*
G01*
X3378200Y1841500D03*
G01*
X3378200Y2095500D03*
G01*
X3378200Y2349500D03*
G01*
X3378200Y2603500D03*
D15*
G01*
X2616200Y3479800D03*
G01*
X2616200Y3733800D03*
G01*
X2616200Y3987800D03*
G01*
X2616200Y4241800D03*
G01*
X2616200Y4495800D03*
G01*
X2616200Y4749800D03*
G01*
X2616200Y5003800D03*
G01*
X2616200Y5257800D03*
D16*
G01*
X2616194Y5511792D03*
D17*
G01*
X2616200Y3225800D03*
G01*
X3378200Y3225800D03*
G01*
X3378200Y3479800D03*
G01*
X3378200Y3733800D03*
G01*
X3378200Y3987800D03*
G01*
X3378200Y4241800D03*
G01*
X3378200Y4495800D03*
G01*
X3378200Y4749800D03*
G01*
X3378200Y5003800D03*
G01*
X3378200Y5257800D03*
G01*
X3378200Y5511800D03*
D18*
G01*
X381000Y5461000D03*
G01*
X12405106Y5461000D03*
G01*
X12405106Y381000D03*
G01*
X381000Y381000D03*
D19*
G01*
X2044674Y5255920D03*
G01*
X2044674Y4493920D03*
G01*
X1790700Y4491126D03*
G01*
X2044674Y4747920D03*
G01*
X1790700Y4745126D03*
G01*
X1790700Y3475126D03*
G01*
X2044674Y3477920D03*
G01*
X2044674Y3985920D03*
G01*
X1790700Y3983126D03*
G01*
X2044674Y4239920D03*
G01*
X1790700Y4237126D03*
G01*
X1790700Y4999126D03*
G01*
X2044674Y5001920D03*
G01*
X1790700Y3729126D03*
G01*
X2044674Y3731920D03*
G01*
X1787905Y5255920D03*
G01*
X1787931Y2347620D03*
G01*
X2044700Y823620D03*
G01*
X1790725Y820826D03*
G01*
X2044700Y2093620D03*
G01*
X1790725Y2090826D03*
G01*
X1790725Y1328826D03*
G01*
X2044700Y1331620D03*
G01*
X1790725Y1074826D03*
G01*
X2044700Y1077620D03*
G01*
X2044700Y569620D03*
G01*
X1790725Y566826D03*
G01*
X1790725Y1836826D03*
G01*
X2044700Y1839620D03*
G01*
X1790725Y1582826D03*
G01*
X2044700Y1585620D03*
G01*
X2044700Y2347620D03*
D20*
G01*
X956106Y3477920D03*
G01*
X956106Y3731920D03*
G01*
X956106Y3985920D03*
G01*
X956106Y4239920D03*
G01*
X956106Y4493920D03*
G01*
X956106Y4747920D03*
G01*
X956106Y5001920D03*
G01*
X956106Y5255920D03*
G01*
X956132Y2347620D03*
G01*
X956132Y2093620D03*
G01*
X956132Y1839620D03*
G01*
X956132Y1585620D03*
G01*
X956132Y1331620D03*
G01*
X956132Y1077620D03*
G01*
X956132Y823620D03*
G01*
X956132Y569620D03*
G01*
X11829999Y5255895D03*
G01*
X11829999Y5001895D03*
G01*
X11829999Y4747895D03*
G01*
X11829999Y4493895D03*
G01*
X11829999Y4239895D03*
G01*
X11829999Y3985895D03*
G01*
X11829999Y3731895D03*
G01*
X11829999Y3477895D03*
G01*
X11830024Y569595D03*
G01*
X11830024Y823595D03*
G01*
X11830024Y1077595D03*
G01*
X11830024Y1331595D03*
G01*
X11830024Y1585595D03*
G01*
X11830024Y1839595D03*
G01*
X11830024Y2093595D03*
G01*
X11830024Y2347595D03*
D21*
G01*
X12532106Y1016000D03*
G01*
X12278106Y1016000D03*
G01*
X12278106Y1270000D03*
G01*
X12532106Y1270000D03*
D20*
G01*
X4008983Y5609793D03*
G01*
X4262983Y5609793D03*
G01*
X4516983Y5609793D03*
G01*
X4770983Y5609793D03*
G01*
X5024983Y5609793D03*
G01*
X5278983Y5609793D03*
G01*
X5532983Y5609793D03*
G01*
X5786983Y5609793D03*
G01*
X8695283Y5609818D03*
G01*
X8441283Y5609818D03*
G01*
X8187283Y5609818D03*
G01*
X7933283Y5609818D03*
G01*
X7679283Y5609818D03*
G01*
X7425283Y5609818D03*
G01*
X7171283Y5609818D03*
G01*
X6917283Y5609818D03*
G01*
X8775674Y232206D03*
G01*
X9029674Y232206D03*
G01*
X9283674Y232206D03*
G01*
X9537674Y232206D03*
G01*
X9791674Y232206D03*
G01*
X10045674Y232206D03*
G01*
X10299674Y232206D03*
G01*
X10553674Y232206D03*
D19*
G01*
X8775674Y1064005D03*
G01*
X10299674Y1320800D03*
G01*
X10302468Y1066800D03*
G01*
X9029674Y1320800D03*
G01*
X9032468Y1066800D03*
G01*
X9794468Y1066800D03*
G01*
X9791674Y1320800D03*
G01*
X10048468Y1066800D03*
G01*
X10045674Y1320800D03*
G01*
X10553674Y1320800D03*
G01*
X10556468Y1066800D03*
G01*
X9286468Y1066800D03*
G01*
X9283674Y1320800D03*
G01*
X9540468Y1066800D03*
G01*
X9537674Y1320800D03*
G01*
X8775674Y1320800D03*
G01*
X4008983Y4521200D03*
G01*
X4008983Y4778019D03*
G01*
X4262983Y4521200D03*
G01*
X4262983Y4778019D03*
G01*
X4516983Y4778019D03*
G01*
X4516983Y4521200D03*
G01*
X4770983Y4778019D03*
G01*
X4770983Y4521200D03*
G01*
X5024983Y4778019D03*
G01*
X5024983Y4521200D03*
G01*
X5278983Y4778019D03*
G01*
X5278983Y4521200D03*
G01*
X5532983Y4778019D03*
G01*
X5532983Y4521200D03*
G01*
X5786983Y4778019D03*
G01*
X5786983Y4521200D03*
D22*
G01*
X10312374Y5613400D03*
G01*
X10058374Y5613400D03*
G01*
X9804374Y5613400D03*
G01*
X10566374Y5613400D03*
M02*
