G04 Layer: TopSilkscreenLayer*
G04 Panelize: , Column: 2, Row: 2, Board Size: 127.89mm x 58.42mm, Panelized Board Size: 257.78mm x 118.84mm*
G04 EasyEDA v6.5.34, 2023-09-05 23:47:00*
G04 23034ade622943b09ef3a65bf2e35728,5a6b42c53f6a479593ecc07194224c93,10*
G04 Gerber Generator version 0.2*
G04 Scale: 100 percent, Rotated: No, Reflected: No *
G04 Dimensions in millimeters *
G04 leading zeros omitted , absolute positions ,4 integer and 5 decimal *
%FSLAX45Y45*%
%MOMM*%

%ADD10C,0.1524*%
%ADD11C,0.2540*%
%ADD12C,0.2030*%
%ADD13C,0.1500*%
%ADD14C,0.2500*%
%ADD15C,0.0114*%

%LPD*%
D10*
X4760722Y3645915D02*
G01*
X4760722Y3536950D01*
X4724400Y3645915D02*
G01*
X4797043Y3645915D01*
X4867909Y3645915D02*
G01*
X4867909Y3536950D01*
X4831334Y3645915D02*
G01*
X4904231Y3645915D01*
X4979924Y3645915D02*
G01*
X4938522Y3536950D01*
X4979924Y3645915D02*
G01*
X5021579Y3536950D01*
X4954015Y3573271D02*
G01*
X5006086Y3573271D01*
X5055870Y3645915D02*
G01*
X5055870Y3536950D01*
X5055870Y3645915D02*
G01*
X5097525Y3536950D01*
X5138927Y3645915D02*
G01*
X5097525Y3536950D01*
X5138927Y3645915D02*
G01*
X5138927Y3536950D01*
X5253227Y3645915D02*
G01*
X5253227Y3536950D01*
X5253227Y3645915D02*
G01*
X5299963Y3645915D01*
X5315711Y3640836D01*
X5320791Y3635502D01*
X5326125Y3625087D01*
X5326125Y3609594D01*
X5320791Y3599179D01*
X5315711Y3594100D01*
X5299963Y3588765D01*
X5253227Y3588765D01*
X5360415Y3645915D02*
G01*
X5360415Y3536950D01*
X5360415Y3645915D02*
G01*
X5407152Y3645915D01*
X5422645Y3640836D01*
X5427979Y3635502D01*
X5433059Y3625087D01*
X5433059Y3614673D01*
X5427979Y3604260D01*
X5422645Y3599179D01*
X5407152Y3594100D01*
X5360415Y3594100D01*
X5396738Y3594100D02*
G01*
X5433059Y3536950D01*
X5498591Y3645915D02*
G01*
X5488177Y3640836D01*
X5477763Y3630421D01*
X5472429Y3620007D01*
X5467350Y3604260D01*
X5467350Y3578352D01*
X5472429Y3562857D01*
X5477763Y3552444D01*
X5488177Y3542029D01*
X5498591Y3536950D01*
X5519420Y3536950D01*
X5529579Y3542029D01*
X5539993Y3552444D01*
X5545327Y3562857D01*
X5550408Y3578352D01*
X5550408Y3604260D01*
X5545327Y3620007D01*
X5539993Y3630421D01*
X5529579Y3640836D01*
X5519420Y3645915D01*
X5498591Y3645915D01*
X5662675Y3620007D02*
G01*
X5657595Y3630421D01*
X5647181Y3640836D01*
X5636768Y3645915D01*
X5615940Y3645915D01*
X5605525Y3640836D01*
X5595111Y3630421D01*
X5590031Y3620007D01*
X5584697Y3604260D01*
X5584697Y3578352D01*
X5590031Y3562857D01*
X5595111Y3552444D01*
X5605525Y3542029D01*
X5615940Y3536950D01*
X5636768Y3536950D01*
X5647181Y3542029D01*
X5657595Y3552444D01*
X5662675Y3562857D01*
X5662675Y3578352D01*
X5636768Y3578352D02*
G01*
X5662675Y3578352D01*
X5696965Y3645915D02*
G01*
X5696965Y3536950D01*
X5696965Y3645915D02*
G01*
X5743702Y3645915D01*
X5759450Y3640836D01*
X5764529Y3635502D01*
X5769609Y3625087D01*
X5769609Y3614673D01*
X5764529Y3604260D01*
X5759450Y3599179D01*
X5743702Y3594100D01*
X5696965Y3594100D01*
X5733288Y3594100D02*
G01*
X5769609Y3536950D01*
X5845556Y3645915D02*
G01*
X5803900Y3536950D01*
X5845556Y3645915D02*
G01*
X5887211Y3536950D01*
X5819647Y3573271D02*
G01*
X5871463Y3573271D01*
X5921502Y3645915D02*
G01*
X5921502Y3536950D01*
X5921502Y3645915D02*
G01*
X5962904Y3536950D01*
X6004559Y3645915D02*
G01*
X5962904Y3536950D01*
X6004559Y3645915D02*
G01*
X6004559Y3536950D01*
X6196838Y3620007D02*
G01*
X6191504Y3630421D01*
X6181090Y3640836D01*
X6170929Y3645915D01*
X6150102Y3645915D01*
X6139688Y3640836D01*
X6129274Y3630421D01*
X6123940Y3620007D01*
X6118859Y3604260D01*
X6118859Y3578352D01*
X6123940Y3562857D01*
X6129274Y3552444D01*
X6139688Y3542029D01*
X6150102Y3536950D01*
X6170929Y3536950D01*
X6181090Y3542029D01*
X6191504Y3552444D01*
X6196838Y3562857D01*
X6262370Y3645915D02*
G01*
X6251956Y3640836D01*
X6241541Y3630421D01*
X6236208Y3620007D01*
X6231127Y3604260D01*
X6231127Y3578352D01*
X6236208Y3562857D01*
X6241541Y3552444D01*
X6251956Y3542029D01*
X6262370Y3536950D01*
X6282943Y3536950D01*
X6293358Y3542029D01*
X6303772Y3552444D01*
X6309106Y3562857D01*
X6314186Y3578352D01*
X6314186Y3604260D01*
X6309106Y3620007D01*
X6303772Y3630421D01*
X6293358Y3640836D01*
X6282943Y3645915D01*
X6262370Y3645915D01*
X6348475Y3645915D02*
G01*
X6348475Y3567937D01*
X6353809Y3552444D01*
X6363970Y3542029D01*
X6379718Y3536950D01*
X6390131Y3536950D01*
X6405625Y3542029D01*
X6416040Y3552444D01*
X6421120Y3567937D01*
X6421120Y3645915D01*
X6455409Y3645915D02*
G01*
X6455409Y3536950D01*
X6455409Y3645915D02*
G01*
X6528308Y3536950D01*
X6528308Y3645915D02*
G01*
X6528308Y3536950D01*
X6598920Y3645915D02*
G01*
X6598920Y3536950D01*
X6562597Y3645915D02*
G01*
X6635241Y3645915D01*
X6669531Y3645915D02*
G01*
X6669531Y3536950D01*
X6669531Y3645915D02*
G01*
X6737095Y3645915D01*
X6669531Y3594100D02*
G01*
X6711188Y3594100D01*
X6669531Y3536950D02*
G01*
X6737095Y3536950D01*
X6771386Y3645915D02*
G01*
X6771386Y3536950D01*
X6771386Y3645915D02*
G01*
X6818122Y3645915D01*
X6833870Y3640836D01*
X6838950Y3635502D01*
X6844029Y3625087D01*
X6844029Y3614673D01*
X6838950Y3604260D01*
X6833870Y3599179D01*
X6818122Y3594100D01*
X6771386Y3594100D01*
X6807708Y3594100D02*
G01*
X6844029Y3536950D01*
X4546600Y3468115D02*
G01*
X4546600Y3359150D01*
X4546600Y3468115D02*
G01*
X4593336Y3468115D01*
X4608829Y3463036D01*
X4614163Y3457702D01*
X4619243Y3447287D01*
X4619243Y3431794D01*
X4614163Y3421379D01*
X4608829Y3416300D01*
X4593336Y3410965D01*
X4546600Y3410965D01*
X4695190Y3468115D02*
G01*
X4653534Y3359150D01*
X4695190Y3468115D02*
G01*
X4736845Y3359150D01*
X4669281Y3395471D02*
G01*
X4721097Y3395471D01*
X4771136Y3468115D02*
G01*
X4771136Y3359150D01*
X4771136Y3468115D02*
G01*
X4817872Y3468115D01*
X4833365Y3463036D01*
X4838700Y3457702D01*
X4843779Y3447287D01*
X4843779Y3436873D01*
X4838700Y3426460D01*
X4833365Y3421379D01*
X4817872Y3416300D01*
X4771136Y3416300D01*
X4807458Y3416300D02*
G01*
X4843779Y3359150D01*
X4914391Y3468115D02*
G01*
X4914391Y3359150D01*
X4878070Y3468115D02*
G01*
X4950713Y3468115D01*
X5065013Y3468115D02*
G01*
X5065013Y3359150D01*
X5065013Y3468115D02*
G01*
X5137911Y3359150D01*
X5137911Y3468115D02*
G01*
X5137911Y3359150D01*
X5172202Y3468115D02*
G01*
X5172202Y3390137D01*
X5177281Y3374644D01*
X5187695Y3364229D01*
X5203190Y3359150D01*
X5213604Y3359150D01*
X5229352Y3364229D01*
X5239765Y3374644D01*
X5244845Y3390137D01*
X5244845Y3468115D01*
X5279136Y3468115D02*
G01*
X5279136Y3359150D01*
X5279136Y3468115D02*
G01*
X5320791Y3359150D01*
X5362193Y3468115D02*
G01*
X5320791Y3359150D01*
X5362193Y3468115D02*
G01*
X5362193Y3359150D01*
X5396484Y3468115D02*
G01*
X5396484Y3359150D01*
X5396484Y3468115D02*
G01*
X5443220Y3468115D01*
X5458968Y3463036D01*
X5464047Y3457702D01*
X5469381Y3447287D01*
X5469381Y3436873D01*
X5464047Y3426460D01*
X5458968Y3421379D01*
X5443220Y3416300D01*
X5396484Y3416300D02*
G01*
X5443220Y3416300D01*
X5458968Y3410965D01*
X5464047Y3405886D01*
X5469381Y3395471D01*
X5469381Y3379723D01*
X5464047Y3369310D01*
X5458968Y3364229D01*
X5443220Y3359150D01*
X5396484Y3359150D01*
X5503672Y3468115D02*
G01*
X5503672Y3359150D01*
X5503672Y3468115D02*
G01*
X5571236Y3468115D01*
X5503672Y3416300D02*
G01*
X5545074Y3416300D01*
X5503672Y3359150D02*
G01*
X5571236Y3359150D01*
X5605525Y3468115D02*
G01*
X5605525Y3359150D01*
X5605525Y3468115D02*
G01*
X5652261Y3468115D01*
X5667756Y3463036D01*
X5673090Y3457702D01*
X5678170Y3447287D01*
X5678170Y3436873D01*
X5673090Y3426460D01*
X5667756Y3421379D01*
X5652261Y3416300D01*
X5605525Y3416300D01*
X5641847Y3416300D02*
G01*
X5678170Y3359150D01*
X5792470Y3447287D02*
G01*
X5802884Y3452621D01*
X5818377Y3468115D01*
X5818377Y3359150D01*
X5883909Y3468115D02*
G01*
X5868415Y3463036D01*
X5858002Y3447287D01*
X5852668Y3421379D01*
X5852668Y3405886D01*
X5858002Y3379723D01*
X5868415Y3364229D01*
X5883909Y3359150D01*
X5894324Y3359150D01*
X5909818Y3364229D01*
X5920231Y3379723D01*
X5925565Y3405886D01*
X5925565Y3421379D01*
X5920231Y3447287D01*
X5909818Y3463036D01*
X5894324Y3468115D01*
X5883909Y3468115D01*
X6032500Y3468115D02*
G01*
X5980429Y3359150D01*
X5959856Y3468115D02*
G01*
X6032500Y3468115D01*
X6129020Y3468115D02*
G01*
X6077204Y3468115D01*
X6071870Y3421379D01*
X6077204Y3426460D01*
X6092697Y3431794D01*
X6108445Y3431794D01*
X6123940Y3426460D01*
X6134354Y3416300D01*
X6139434Y3400552D01*
X6139434Y3390137D01*
X6134354Y3374644D01*
X6123940Y3364229D01*
X6108445Y3359150D01*
X6092697Y3359150D01*
X6077204Y3364229D01*
X6071870Y3369310D01*
X6066790Y3379723D01*
X6173724Y3405886D02*
G01*
X6267450Y3405886D01*
X6332727Y3468115D02*
G01*
X6317234Y3463036D01*
X6306820Y3447287D01*
X6301740Y3421379D01*
X6301740Y3405886D01*
X6306820Y3379723D01*
X6317234Y3364229D01*
X6332727Y3359150D01*
X6343141Y3359150D01*
X6358890Y3364229D01*
X6369050Y3379723D01*
X6374384Y3405886D01*
X6374384Y3421379D01*
X6369050Y3447287D01*
X6358890Y3463036D01*
X6343141Y3468115D01*
X6332727Y3468115D01*
X6408674Y3447287D02*
G01*
X6419088Y3452621D01*
X6434581Y3468115D01*
X6434581Y3359150D01*
X6500113Y3468115D02*
G01*
X6484620Y3463036D01*
X6474206Y3447287D01*
X6468872Y3421379D01*
X6468872Y3405886D01*
X6474206Y3379723D01*
X6484620Y3364229D01*
X6500113Y3359150D01*
X6510527Y3359150D01*
X6526022Y3364229D01*
X6536436Y3379723D01*
X6541770Y3405886D01*
X6541770Y3421379D01*
X6536436Y3447287D01*
X6526022Y3463036D01*
X6510527Y3468115D01*
X6500113Y3468115D01*
X6576059Y3447287D02*
G01*
X6586220Y3452621D01*
X6601968Y3468115D01*
X6601968Y3359150D01*
X6716268Y3468115D02*
G01*
X6757670Y3359150D01*
X6799325Y3468115D02*
G01*
X6757670Y3359150D01*
X6864858Y3468115D02*
G01*
X6849109Y3463036D01*
X6838950Y3447287D01*
X6833615Y3421379D01*
X6833615Y3405886D01*
X6838950Y3379723D01*
X6849109Y3364229D01*
X6864858Y3359150D01*
X6875272Y3359150D01*
X6890765Y3364229D01*
X6901179Y3379723D01*
X6906259Y3405886D01*
X6906259Y3421379D01*
X6901179Y3447287D01*
X6890765Y3463036D01*
X6875272Y3468115D01*
X6864858Y3468115D01*
X6945884Y3385057D02*
G01*
X6940550Y3379723D01*
X6945884Y3374644D01*
X6950963Y3379723D01*
X6945884Y3385057D01*
X6990588Y3442207D02*
G01*
X6990588Y3447287D01*
X6995668Y3457702D01*
X7001002Y3463036D01*
X7011415Y3468115D01*
X7031990Y3468115D01*
X7042404Y3463036D01*
X7047738Y3457702D01*
X7052818Y3447287D01*
X7052818Y3436873D01*
X7047738Y3426460D01*
X7037324Y3410965D01*
X6985254Y3359150D01*
X7058152Y3359150D01*
X2184400Y629157D02*
G01*
X2184400Y514604D01*
X2184400Y629157D02*
G01*
X2222500Y629157D01*
X2239009Y623570D01*
X2249931Y612647D01*
X2255265Y601726D01*
X2260859Y585470D01*
X2260859Y558292D01*
X2255265Y541781D01*
X2249931Y530860D01*
X2239009Y519937D01*
X2222500Y514604D01*
X2184400Y514604D01*
X2296668Y607313D02*
G01*
X2307592Y612647D01*
X2324100Y629157D01*
X2324100Y514604D01*
X2425445Y629157D02*
G01*
X2370836Y629157D01*
X2365502Y580136D01*
X2370836Y585470D01*
X2387345Y591057D01*
X2403602Y591057D01*
X2420111Y585470D01*
X2431034Y574547D01*
X2436368Y558292D01*
X2436368Y547370D01*
X2431034Y530860D01*
X2420111Y519937D01*
X2403602Y514604D01*
X2387345Y514604D01*
X2370836Y519937D01*
X2365502Y525526D01*
X2359913Y536447D01*
X2184400Y1137157D02*
G01*
X2184400Y1022604D01*
X2184400Y1137157D02*
G01*
X2222500Y1137157D01*
X2239009Y1131570D01*
X2249931Y1120647D01*
X2255265Y1109726D01*
X2260859Y1093470D01*
X2260859Y1066292D01*
X2255265Y1049781D01*
X2249931Y1038860D01*
X2239009Y1027937D01*
X2222500Y1022604D01*
X2184400Y1022604D01*
X2296668Y1115313D02*
G01*
X2307592Y1120647D01*
X2324100Y1137157D01*
X2324100Y1022604D01*
X2370836Y1137157D02*
G01*
X2431034Y1137157D01*
X2398268Y1093470D01*
X2414526Y1093470D01*
X2425445Y1088136D01*
X2431034Y1082547D01*
X2436368Y1066292D01*
X2436368Y1055370D01*
X2431034Y1038860D01*
X2420111Y1027937D01*
X2403602Y1022604D01*
X2387345Y1022604D01*
X2370836Y1027937D01*
X2365502Y1033526D01*
X2359913Y1044447D01*
X2184400Y2407157D02*
G01*
X2184400Y2292604D01*
X2184400Y2407157D02*
G01*
X2222500Y2407157D01*
X2239009Y2401570D01*
X2249931Y2390647D01*
X2255265Y2379726D01*
X2260859Y2363470D01*
X2260859Y2336292D01*
X2255265Y2319781D01*
X2249931Y2308860D01*
X2239009Y2297937D01*
X2222500Y2292604D01*
X2184400Y2292604D01*
X2324100Y2407157D02*
G01*
X2307592Y2401570D01*
X2302258Y2390647D01*
X2302258Y2379726D01*
X2307592Y2369057D01*
X2318511Y2363470D01*
X2340358Y2358136D01*
X2356865Y2352547D01*
X2367790Y2341626D01*
X2373124Y2330704D01*
X2373124Y2314447D01*
X2367790Y2303526D01*
X2362200Y2297937D01*
X2345943Y2292604D01*
X2324100Y2292604D01*
X2307592Y2297937D01*
X2302258Y2303526D01*
X2296668Y2314447D01*
X2296668Y2330704D01*
X2302258Y2341626D01*
X2313177Y2352547D01*
X2329434Y2358136D01*
X2351277Y2363470D01*
X2362200Y2369057D01*
X2367790Y2379726D01*
X2367790Y2390647D01*
X2362200Y2401570D01*
X2345943Y2407157D01*
X2324100Y2407157D01*
X2184400Y1391157D02*
G01*
X2184400Y1276604D01*
X2184400Y1391157D02*
G01*
X2222500Y1391157D01*
X2239009Y1385570D01*
X2249931Y1374647D01*
X2255265Y1363726D01*
X2260859Y1347470D01*
X2260859Y1320292D01*
X2255265Y1303781D01*
X2249931Y1292860D01*
X2239009Y1281937D01*
X2222500Y1276604D01*
X2184400Y1276604D01*
X2296668Y1369313D02*
G01*
X2307592Y1374647D01*
X2324100Y1391157D01*
X2324100Y1276604D01*
X2365502Y1363726D02*
G01*
X2365502Y1369313D01*
X2370836Y1380236D01*
X2376426Y1385570D01*
X2387345Y1391157D01*
X2409192Y1391157D01*
X2420111Y1385570D01*
X2425445Y1380236D01*
X2431034Y1369313D01*
X2431034Y1358392D01*
X2425445Y1347470D01*
X2414526Y1331213D01*
X2359913Y1276604D01*
X2436368Y1276604D01*
X2184400Y1645157D02*
G01*
X2184400Y1530604D01*
X2184400Y1645157D02*
G01*
X2222500Y1645157D01*
X2239009Y1639570D01*
X2249931Y1628647D01*
X2255265Y1617726D01*
X2260859Y1601470D01*
X2260859Y1574292D01*
X2255265Y1557781D01*
X2249931Y1546860D01*
X2239009Y1535937D01*
X2222500Y1530604D01*
X2184400Y1530604D01*
X2296668Y1623313D02*
G01*
X2307592Y1628647D01*
X2324100Y1645157D01*
X2324100Y1530604D01*
X2359913Y1623313D02*
G01*
X2370836Y1628647D01*
X2387345Y1645157D01*
X2387345Y1530604D01*
X2184400Y1899157D02*
G01*
X2184400Y1784604D01*
X2184400Y1899157D02*
G01*
X2222500Y1899157D01*
X2239009Y1893570D01*
X2249931Y1882647D01*
X2255265Y1871726D01*
X2260859Y1855470D01*
X2260859Y1828292D01*
X2255265Y1811781D01*
X2249931Y1800860D01*
X2239009Y1789937D01*
X2222500Y1784604D01*
X2184400Y1784604D01*
X2296668Y1877313D02*
G01*
X2307592Y1882647D01*
X2324100Y1899157D01*
X2324100Y1784604D01*
X2392679Y1899157D02*
G01*
X2376426Y1893570D01*
X2365502Y1877313D01*
X2359913Y1850136D01*
X2359913Y1833626D01*
X2365502Y1806447D01*
X2376426Y1789937D01*
X2392679Y1784604D01*
X2403602Y1784604D01*
X2420111Y1789937D01*
X2431034Y1806447D01*
X2436368Y1833626D01*
X2436368Y1850136D01*
X2431034Y1877313D01*
X2420111Y1893570D01*
X2403602Y1899157D01*
X2392679Y1899157D01*
X2184400Y2153157D02*
G01*
X2184400Y2038604D01*
X2184400Y2153157D02*
G01*
X2222500Y2153157D01*
X2239009Y2147570D01*
X2249931Y2136647D01*
X2255265Y2125726D01*
X2260859Y2109470D01*
X2260859Y2082292D01*
X2255265Y2065781D01*
X2249931Y2054860D01*
X2239009Y2043937D01*
X2222500Y2038604D01*
X2184400Y2038604D01*
X2367790Y2115057D02*
G01*
X2362200Y2098547D01*
X2351277Y2087626D01*
X2335024Y2082292D01*
X2329434Y2082292D01*
X2313177Y2087626D01*
X2302258Y2098547D01*
X2296668Y2115057D01*
X2296668Y2120392D01*
X2302258Y2136647D01*
X2313177Y2147570D01*
X2329434Y2153157D01*
X2335024Y2153157D01*
X2351277Y2147570D01*
X2362200Y2136647D01*
X2367790Y2115057D01*
X2367790Y2087626D01*
X2362200Y2060447D01*
X2351277Y2043937D01*
X2335024Y2038604D01*
X2324100Y2038604D01*
X2307592Y2043937D01*
X2302258Y2054860D01*
X2184400Y883157D02*
G01*
X2184400Y768604D01*
X2184400Y883157D02*
G01*
X2222500Y883157D01*
X2239009Y877570D01*
X2249931Y866647D01*
X2255265Y855726D01*
X2260859Y839470D01*
X2260859Y812292D01*
X2255265Y795781D01*
X2249931Y784860D01*
X2239009Y773937D01*
X2222500Y768604D01*
X2184400Y768604D01*
X2296668Y861313D02*
G01*
X2307592Y866647D01*
X2324100Y883157D01*
X2324100Y768604D01*
X2414526Y883157D02*
G01*
X2359913Y806704D01*
X2441958Y806704D01*
X2414526Y883157D02*
G01*
X2414526Y768604D01*
X2184394Y3791424D02*
G01*
X2184394Y3676870D01*
X2184394Y3791424D02*
G01*
X2222494Y3791424D01*
X2239004Y3785836D01*
X2249926Y3774914D01*
X2255260Y3763992D01*
X2260854Y3747736D01*
X2260854Y3720558D01*
X2255260Y3704048D01*
X2249926Y3693126D01*
X2239004Y3682204D01*
X2222494Y3676870D01*
X2184394Y3676870D01*
X2362194Y3774914D02*
G01*
X2356860Y3785836D01*
X2340353Y3791424D01*
X2329428Y3791424D01*
X2313172Y3785836D01*
X2302253Y3769580D01*
X2296662Y3742402D01*
X2296662Y3714970D01*
X2302253Y3693126D01*
X2313172Y3682204D01*
X2329428Y3676870D01*
X2335019Y3676870D01*
X2351272Y3682204D01*
X2362194Y3693126D01*
X2367785Y3709636D01*
X2367785Y3714970D01*
X2362194Y3731480D01*
X2351272Y3742402D01*
X2335019Y3747736D01*
X2329428Y3747736D01*
X2313172Y3742402D01*
X2302253Y3731480D01*
X2296662Y3714970D01*
X2184394Y5061424D02*
G01*
X2184394Y4946870D01*
X2184394Y5061424D02*
G01*
X2222494Y5061424D01*
X2239004Y5055836D01*
X2249926Y5044914D01*
X2255260Y5033992D01*
X2260854Y5017736D01*
X2260854Y4990558D01*
X2255260Y4974048D01*
X2249926Y4963126D01*
X2239004Y4952204D01*
X2222494Y4946870D01*
X2184394Y4946870D01*
X2296662Y5039580D02*
G01*
X2307587Y5044914D01*
X2324094Y5061424D01*
X2324094Y4946870D01*
X2184394Y4807424D02*
G01*
X2184394Y4692870D01*
X2184394Y4807424D02*
G01*
X2222494Y4807424D01*
X2239004Y4801836D01*
X2249926Y4790914D01*
X2255260Y4779992D01*
X2260854Y4763736D01*
X2260854Y4736558D01*
X2255260Y4720048D01*
X2249926Y4709126D01*
X2239004Y4698204D01*
X2222494Y4692870D01*
X2184394Y4692870D01*
X2302253Y4779992D02*
G01*
X2302253Y4785580D01*
X2307587Y4796502D01*
X2313172Y4801836D01*
X2324094Y4807424D01*
X2345938Y4807424D01*
X2356860Y4801836D01*
X2362194Y4796502D01*
X2367785Y4785580D01*
X2367785Y4774658D01*
X2362194Y4763736D01*
X2351272Y4747480D01*
X2296662Y4692870D01*
X2373119Y4692870D01*
X2184394Y4553424D02*
G01*
X2184394Y4438870D01*
X2184394Y4553424D02*
G01*
X2222494Y4553424D01*
X2239004Y4547836D01*
X2249926Y4536914D01*
X2255260Y4525992D01*
X2260854Y4509736D01*
X2260854Y4482558D01*
X2255260Y4466048D01*
X2249926Y4455126D01*
X2239004Y4444204D01*
X2222494Y4438870D01*
X2184394Y4438870D01*
X2307587Y4553424D02*
G01*
X2367785Y4553424D01*
X2335019Y4509736D01*
X2351272Y4509736D01*
X2362194Y4504402D01*
X2367785Y4498814D01*
X2373119Y4482558D01*
X2373119Y4471636D01*
X2367785Y4455126D01*
X2356860Y4444204D01*
X2340353Y4438870D01*
X2324094Y4438870D01*
X2307587Y4444204D01*
X2302253Y4449792D01*
X2296662Y4460714D01*
X2184394Y4299424D02*
G01*
X2184394Y4184870D01*
X2184394Y4299424D02*
G01*
X2222494Y4299424D01*
X2239004Y4293836D01*
X2249926Y4282914D01*
X2255260Y4271992D01*
X2260854Y4255736D01*
X2260854Y4228558D01*
X2255260Y4212048D01*
X2249926Y4201126D01*
X2239004Y4190204D01*
X2222494Y4184870D01*
X2184394Y4184870D01*
X2351272Y4299424D02*
G01*
X2296662Y4222970D01*
X2378453Y4222970D01*
X2351272Y4299424D02*
G01*
X2351272Y4184870D01*
X2184394Y5315424D02*
G01*
X2184394Y5200870D01*
X2184394Y5315424D02*
G01*
X2222494Y5315424D01*
X2239004Y5309836D01*
X2249926Y5298914D01*
X2255260Y5287992D01*
X2260854Y5271736D01*
X2260854Y5244558D01*
X2255260Y5228048D01*
X2249926Y5217126D01*
X2239004Y5206204D01*
X2222494Y5200870D01*
X2184394Y5200870D01*
X2329428Y5315424D02*
G01*
X2313172Y5309836D01*
X2302253Y5293580D01*
X2296662Y5266402D01*
X2296662Y5249892D01*
X2302253Y5222714D01*
X2313172Y5206204D01*
X2329428Y5200870D01*
X2340353Y5200870D01*
X2356860Y5206204D01*
X2367785Y5222714D01*
X2373119Y5249892D01*
X2373119Y5266402D01*
X2367785Y5293580D01*
X2356860Y5309836D01*
X2340353Y5315424D01*
X2329428Y5315424D01*
X2184394Y4045424D02*
G01*
X2184394Y3930870D01*
X2184394Y4045424D02*
G01*
X2222494Y4045424D01*
X2239004Y4039836D01*
X2249926Y4028914D01*
X2255260Y4017992D01*
X2260854Y4001736D01*
X2260854Y3974558D01*
X2255260Y3958048D01*
X2249926Y3947126D01*
X2239004Y3936204D01*
X2222494Y3930870D01*
X2184394Y3930870D01*
X2362194Y4045424D02*
G01*
X2307587Y4045424D01*
X2302253Y3996402D01*
X2307587Y4001736D01*
X2324094Y4007324D01*
X2340353Y4007324D01*
X2356860Y4001736D01*
X2367785Y3990814D01*
X2373119Y3974558D01*
X2373119Y3963636D01*
X2367785Y3947126D01*
X2356860Y3936204D01*
X2340353Y3930870D01*
X2324094Y3930870D01*
X2307587Y3936204D01*
X2302253Y3941792D01*
X2296662Y3952714D01*
X2184394Y3537424D02*
G01*
X2184394Y3422870D01*
X2184394Y3537424D02*
G01*
X2222494Y3537424D01*
X2239004Y3531836D01*
X2249926Y3520914D01*
X2255260Y3509992D01*
X2260854Y3493736D01*
X2260854Y3466558D01*
X2255260Y3450048D01*
X2249926Y3439126D01*
X2239004Y3428204D01*
X2222494Y3422870D01*
X2184394Y3422870D01*
X2373119Y3537424D02*
G01*
X2318506Y3422870D01*
X2296662Y3537424D02*
G01*
X2373119Y3537424D01*
X1803443Y5498457D02*
G01*
X1803443Y5402953D01*
X1803443Y5498457D02*
G01*
X1835193Y5498457D01*
X1848909Y5493885D01*
X1858050Y5484741D01*
X1862625Y5475597D01*
X1866943Y5462135D01*
X1866943Y5439275D01*
X1862625Y5425559D01*
X1858050Y5416669D01*
X1848909Y5407525D01*
X1835193Y5402953D01*
X1803443Y5402953D01*
X1960653Y5484741D02*
G01*
X1951512Y5493885D01*
X1938047Y5498457D01*
X1919765Y5498457D01*
X1906049Y5493885D01*
X1897153Y5484741D01*
X1897153Y5475597D01*
X1901471Y5466707D01*
X1906049Y5462135D01*
X1915187Y5457563D01*
X1942622Y5448419D01*
X1951512Y5443847D01*
X1956081Y5439275D01*
X1960653Y5430131D01*
X1960653Y5416669D01*
X1951512Y5407525D01*
X1938047Y5402953D01*
X1919765Y5402953D01*
X1906049Y5407525D01*
X1897153Y5416669D01*
X1990628Y5480169D02*
G01*
X1999772Y5484741D01*
X2013488Y5498457D01*
X2013488Y5402953D01*
X1790717Y2590147D02*
G01*
X1790717Y2494643D01*
X1790717Y2590147D02*
G01*
X1822467Y2590147D01*
X1836183Y2585575D01*
X1845325Y2576431D01*
X1849899Y2567287D01*
X1854469Y2553825D01*
X1854469Y2530965D01*
X1849899Y2517249D01*
X1845325Y2508359D01*
X1836183Y2499215D01*
X1822467Y2494643D01*
X1790717Y2494643D01*
X1947928Y2576431D02*
G01*
X1938789Y2585575D01*
X1925327Y2590147D01*
X1907042Y2590147D01*
X1893326Y2585575D01*
X1884441Y2576431D01*
X1884441Y2567287D01*
X1889015Y2558397D01*
X1893326Y2553825D01*
X1902462Y2549253D01*
X1929897Y2540109D01*
X1938789Y2535537D01*
X1943359Y2530965D01*
X1947928Y2521821D01*
X1947928Y2508359D01*
X1938789Y2499215D01*
X1925327Y2494643D01*
X1907042Y2494643D01*
X1893326Y2499215D01*
X1884441Y2508359D01*
X1982475Y2567287D02*
G01*
X1982475Y2571859D01*
X1987047Y2581003D01*
X1991621Y2585575D01*
X2000763Y2590147D01*
X2018797Y2590147D01*
X2027941Y2585575D01*
X2032513Y2581003D01*
X2037090Y2571859D01*
X2037090Y2562715D01*
X2032513Y2553825D01*
X2023371Y2540109D01*
X1977905Y2494643D01*
X2041657Y2494643D01*
X613171Y531119D02*
G01*
X685817Y572013D01*
X613171Y613161D01*
X583201Y531119D02*
G01*
X510303Y572013D01*
X583201Y613161D01*
X1721886Y2856750D02*
G01*
X1721886Y2784106D01*
X1717311Y2770390D01*
X1712742Y2765818D01*
X1703595Y2761246D01*
X1694708Y2761246D01*
X1685561Y2765818D01*
X1680992Y2770390D01*
X1676420Y2784106D01*
X1676420Y2793250D01*
X1761002Y2856750D02*
G01*
X1811037Y2856750D01*
X1783608Y2820428D01*
X1797321Y2820428D01*
X1806468Y2815856D01*
X1811037Y2811284D01*
X1815612Y2797822D01*
X1815612Y2788678D01*
X1811037Y2774962D01*
X1801893Y2765818D01*
X1788177Y2761246D01*
X1774718Y2761246D01*
X1761002Y2765818D01*
X1756427Y2770390D01*
X1751858Y2779534D01*
X1721886Y5752350D02*
G01*
X1721886Y5679706D01*
X1717311Y5665990D01*
X1712742Y5661418D01*
X1703595Y5656846D01*
X1694708Y5656846D01*
X1685561Y5661418D01*
X1680992Y5665990D01*
X1676420Y5679706D01*
X1676420Y5688850D01*
X1756427Y5729744D02*
G01*
X1756427Y5734316D01*
X1761002Y5743206D01*
X1765571Y5747778D01*
X1774718Y5752350D01*
X1792752Y5752350D01*
X1801893Y5747778D01*
X1806468Y5743206D01*
X1811037Y5734316D01*
X1811037Y5725172D01*
X1806468Y5716028D01*
X1797321Y5702312D01*
X1751858Y5656846D01*
X1815612Y5656846D01*
X613171Y785119D02*
G01*
X685817Y826013D01*
X613171Y867161D01*
X583201Y785119D02*
G01*
X510303Y826013D01*
X583201Y867161D01*
X613171Y1039119D02*
G01*
X685817Y1080013D01*
X613171Y1121161D01*
X583201Y1039119D02*
G01*
X510303Y1080013D01*
X583201Y1121161D01*
X613171Y1293119D02*
G01*
X685817Y1334013D01*
X613171Y1375161D01*
X583201Y1293119D02*
G01*
X510303Y1334013D01*
X583201Y1375161D01*
X613171Y1547119D02*
G01*
X685817Y1588013D01*
X613171Y1629161D01*
X583201Y1547119D02*
G01*
X510303Y1588013D01*
X583201Y1629161D01*
X613171Y1801119D02*
G01*
X685817Y1842013D01*
X613171Y1883161D01*
X583201Y1801119D02*
G01*
X510303Y1842013D01*
X583201Y1883161D01*
X613171Y2055119D02*
G01*
X685817Y2096013D01*
X613171Y2137161D01*
X583201Y2055119D02*
G01*
X510303Y2096013D01*
X583201Y2137161D01*
X613171Y2309119D02*
G01*
X685817Y2350013D01*
X613171Y2391161D01*
X583201Y2309119D02*
G01*
X510303Y2350013D01*
X583201Y2391161D01*
X613148Y3439419D02*
G01*
X685789Y3480313D01*
X613148Y3521461D01*
X583173Y3439419D02*
G01*
X510275Y3480313D01*
X583173Y3521461D01*
X613148Y3693419D02*
G01*
X685789Y3734313D01*
X613148Y3775461D01*
X583173Y3693419D02*
G01*
X510275Y3734313D01*
X583173Y3775461D01*
X613148Y3947419D02*
G01*
X685789Y3988313D01*
X613148Y4029461D01*
X583173Y3947419D02*
G01*
X510275Y3988313D01*
X583173Y4029461D01*
X613148Y4201419D02*
G01*
X685789Y4242313D01*
X613148Y4283461D01*
X583173Y4201419D02*
G01*
X510275Y4242313D01*
X583173Y4283461D01*
X613148Y4455419D02*
G01*
X685789Y4496313D01*
X613148Y4537461D01*
X583173Y4455419D02*
G01*
X510275Y4496313D01*
X583173Y4537461D01*
X613148Y4709419D02*
G01*
X685789Y4750313D01*
X613148Y4791461D01*
X583173Y4709419D02*
G01*
X510275Y4750313D01*
X583173Y4791461D01*
X613148Y4963419D02*
G01*
X685789Y5004313D01*
X613148Y5045461D01*
X583173Y4963419D02*
G01*
X510275Y5004313D01*
X583173Y5045461D01*
X613148Y5217419D02*
G01*
X685789Y5258313D01*
X613148Y5299461D01*
X583173Y5217419D02*
G01*
X510275Y5258313D01*
X583173Y5299461D01*
X11002772Y2856737D02*
G01*
X11002772Y2784094D01*
X10998200Y2770378D01*
X10993627Y2765805D01*
X10984484Y2761234D01*
X10975593Y2761234D01*
X10966450Y2765805D01*
X10961877Y2770378D01*
X10957306Y2784094D01*
X10957306Y2793237D01*
X11055604Y2856737D02*
G01*
X11041888Y2852165D01*
X11037315Y2843276D01*
X11037315Y2834131D01*
X11041888Y2824987D01*
X11051031Y2820415D01*
X11069065Y2815844D01*
X11082781Y2811271D01*
X11091925Y2802381D01*
X11096497Y2793237D01*
X11096497Y2779521D01*
X11091925Y2770378D01*
X11087354Y2765805D01*
X11073638Y2761234D01*
X11055604Y2761234D01*
X11041888Y2765805D01*
X11037315Y2770378D01*
X11032743Y2779521D01*
X11032743Y2793237D01*
X11037315Y2802381D01*
X11046459Y2811271D01*
X11059922Y2815844D01*
X11078209Y2820415D01*
X11087354Y2824987D01*
X11091925Y2834131D01*
X11091925Y2843276D01*
X11087354Y2852165D01*
X11073638Y2856737D01*
X11055604Y2856737D01*
X11040872Y4902200D02*
G01*
X11040872Y4829555D01*
X11036300Y4815839D01*
X11031727Y4811521D01*
X11022584Y4806950D01*
X11013693Y4806950D01*
X11004550Y4811521D01*
X10999977Y4815839D01*
X10995406Y4829555D01*
X10995406Y4838700D01*
X11134597Y4902200D02*
G01*
X11089131Y4806950D01*
X11070843Y4902200D02*
G01*
X11134597Y4902200D01*
X12172950Y5294376D02*
G01*
X12100306Y5253481D01*
X12172950Y5212334D01*
X12580340Y837440D02*
G01*
X12580340Y764796D01*
X12575768Y751080D01*
X12571196Y746508D01*
X12562052Y741936D01*
X12553162Y741936D01*
X12544018Y746508D01*
X12539446Y751080D01*
X12534874Y764796D01*
X12534874Y773940D01*
X12610312Y819406D02*
G01*
X12619456Y823978D01*
X12633172Y837440D01*
X12633172Y741936D01*
X12734533Y1647207D02*
G01*
X12734533Y1692673D01*
X12693639Y1697245D01*
X12698211Y1692673D01*
X12702783Y1679211D01*
X12702783Y1665495D01*
X12698211Y1651779D01*
X12689067Y1642635D01*
X12675605Y1638063D01*
X12666461Y1638063D01*
X12652745Y1642635D01*
X12643601Y1651779D01*
X12639029Y1665495D01*
X12639029Y1679211D01*
X12643601Y1692673D01*
X12648173Y1697245D01*
X12657317Y1701817D01*
X12734533Y1608091D02*
G01*
X12639029Y1571769D01*
X12734533Y1535447D02*
G01*
X12639029Y1571769D01*
X12172950Y5040376D02*
G01*
X12100306Y4999481D01*
X12172950Y4958334D01*
X12172950Y4786376D02*
G01*
X12100306Y4745481D01*
X12172950Y4704334D01*
X12172950Y4532376D02*
G01*
X12100306Y4491481D01*
X12172950Y4450334D01*
X12172950Y4278376D02*
G01*
X12100306Y4237481D01*
X12172950Y4196334D01*
X12172950Y2386076D02*
G01*
X12100306Y2345181D01*
X12172950Y2304034D01*
X12172950Y2132076D02*
G01*
X12100306Y2091181D01*
X12172950Y2050034D01*
X12172950Y1878076D02*
G01*
X12100306Y1837181D01*
X12172950Y1796034D01*
X9323831Y4931155D02*
G01*
X9323831Y4858512D01*
X9319259Y4844795D01*
X9314688Y4840223D01*
X9305797Y4835905D01*
X9296654Y4835905D01*
X9287509Y4840223D01*
X9282938Y4844795D01*
X9278365Y4858512D01*
X9278365Y4867655D01*
X9408413Y4917694D02*
G01*
X9403841Y4926584D01*
X9390379Y4931155D01*
X9381236Y4931155D01*
X9367520Y4926584D01*
X9358375Y4913121D01*
X9353804Y4890262D01*
X9353804Y4867655D01*
X9358375Y4849368D01*
X9367520Y4840223D01*
X9381236Y4835905D01*
X9385808Y4835905D01*
X9399270Y4840223D01*
X9408413Y4849368D01*
X9412986Y4863084D01*
X9412986Y4867655D01*
X9408413Y4881371D01*
X9399270Y4890262D01*
X9385808Y4894834D01*
X9381236Y4894834D01*
X9367520Y4890262D01*
X9358375Y4881371D01*
X9353804Y4867655D01*
X3532631Y4917694D02*
G01*
X3532631Y4845050D01*
X3528313Y4831334D01*
X3523741Y4826762D01*
X3514597Y4822189D01*
X3505454Y4822189D01*
X3496309Y4826762D01*
X3491738Y4831334D01*
X3487165Y4845050D01*
X3487165Y4854194D01*
X3608070Y4917694D02*
G01*
X3562858Y4854194D01*
X3630929Y4854194D01*
X3608070Y4917694D02*
G01*
X3608070Y4822189D01*
X8325873Y1040635D02*
G01*
X8325873Y967991D01*
X8321301Y954275D01*
X8316729Y949703D01*
X8307585Y945131D01*
X8298695Y945131D01*
X8289551Y949703D01*
X8284979Y954275D01*
X8280407Y967991D01*
X8280407Y977135D01*
X8415027Y1008885D02*
G01*
X8410455Y995169D01*
X8401311Y986279D01*
X8387595Y981707D01*
X8383023Y981707D01*
X8369561Y986279D01*
X8360417Y995169D01*
X8355845Y1008885D01*
X8355845Y1013457D01*
X8360417Y1027173D01*
X8369561Y1036063D01*
X8383023Y1040635D01*
X8387595Y1040635D01*
X8401311Y1036063D01*
X8410455Y1027173D01*
X8415027Y1008885D01*
X8415027Y986279D01*
X8410455Y963419D01*
X8401311Y949703D01*
X8387595Y945131D01*
X8378451Y945131D01*
X8364989Y949703D01*
X8360417Y958847D01*
X10494116Y1460388D02*
G01*
X10608670Y1487820D01*
X10494116Y1514998D02*
G01*
X10608670Y1487820D01*
X10494116Y1514998D02*
G01*
X10608670Y1542430D01*
X10494116Y1569608D02*
G01*
X10608670Y1542430D01*
X10521548Y1687464D02*
G01*
X10510626Y1681876D01*
X10499704Y1670954D01*
X10494116Y1660032D01*
X10494116Y1638442D01*
X10499704Y1627520D01*
X10510626Y1616598D01*
X10521548Y1611010D01*
X10537804Y1605676D01*
X10564982Y1605676D01*
X10581492Y1611010D01*
X10592414Y1616598D01*
X10603336Y1627520D01*
X10608670Y1638442D01*
X10608670Y1660032D01*
X10603336Y1670954D01*
X10592414Y1681876D01*
X10581492Y1687464D01*
X10494116Y1723532D02*
G01*
X10608670Y1723532D01*
X10608670Y1723532D02*
G01*
X10608670Y1788810D01*
X10494116Y1824878D02*
G01*
X10608670Y1824878D01*
X10494116Y1901332D02*
G01*
X10570570Y1824878D01*
X10543392Y1852056D02*
G01*
X10608670Y1901332D01*
X9986116Y1460388D02*
G01*
X10100670Y1460388D01*
X9986116Y1460388D02*
G01*
X9986116Y1509664D01*
X9991704Y1525920D01*
X9997038Y1531508D01*
X10007960Y1536842D01*
X10024470Y1536842D01*
X10035392Y1531508D01*
X10040726Y1525920D01*
X10046060Y1509664D01*
X10046060Y1460388D01*
X10013548Y1654698D02*
G01*
X10002626Y1649110D01*
X9991704Y1638442D01*
X9986116Y1627520D01*
X9986116Y1605676D01*
X9991704Y1594754D01*
X10002626Y1583832D01*
X10013548Y1578244D01*
X10029804Y1572910D01*
X10056982Y1572910D01*
X10073492Y1578244D01*
X10084414Y1583832D01*
X10095336Y1594754D01*
X10100670Y1605676D01*
X10100670Y1627520D01*
X10095336Y1638442D01*
X10084414Y1649110D01*
X10073492Y1654698D01*
X9986116Y1774586D02*
G01*
X10100670Y1774586D01*
X9986116Y1774586D02*
G01*
X9986116Y1823862D01*
X9991704Y1840118D01*
X9997038Y1845706D01*
X10007960Y1851040D01*
X10018882Y1851040D01*
X10029804Y1845706D01*
X10035392Y1840118D01*
X10040726Y1823862D01*
X10040726Y1774586D01*
X10040726Y1812940D02*
G01*
X10100670Y1851040D01*
X9986116Y1887108D02*
G01*
X10100670Y1887108D01*
X9986116Y1887108D02*
G01*
X9986116Y1957974D01*
X10040726Y1887108D02*
G01*
X10040726Y1930796D01*
X10100670Y1887108D02*
G01*
X10100670Y1957974D01*
X10002626Y2070242D02*
G01*
X9991704Y2059320D01*
X9986116Y2043064D01*
X9986116Y2021220D01*
X9991704Y2004964D01*
X10002626Y1994042D01*
X10013548Y1994042D01*
X10024470Y1999376D01*
X10029804Y2004964D01*
X10035392Y2015886D01*
X10046060Y2048398D01*
X10051648Y2059320D01*
X10056982Y2064908D01*
X10067904Y2070242D01*
X10084414Y2070242D01*
X10095336Y2059320D01*
X10100670Y2043064D01*
X10100670Y2021220D01*
X10095336Y2004964D01*
X10084414Y1994042D01*
X9986116Y2106310D02*
G01*
X10100670Y2106310D01*
X9986116Y2106310D02*
G01*
X9986116Y2177176D01*
X10040726Y2106310D02*
G01*
X10040726Y2149998D01*
X10100670Y2106310D02*
G01*
X10100670Y2177176D01*
X9986116Y2251344D02*
G01*
X10100670Y2251344D01*
X9986116Y2213244D02*
G01*
X9986116Y2289698D01*
X8716144Y1460624D02*
G01*
X8830698Y1460624D01*
X8716144Y1460624D02*
G01*
X8716144Y1509646D01*
X8721732Y1525902D01*
X8727066Y1531490D01*
X8737988Y1536824D01*
X8754244Y1536824D01*
X8765166Y1531490D01*
X8770754Y1525902D01*
X8776088Y1509646D01*
X8776088Y1460624D01*
X8743576Y1654680D02*
G01*
X8732654Y1649346D01*
X8721732Y1638424D01*
X8716144Y1627502D01*
X8716144Y1605658D01*
X8721732Y1594736D01*
X8732654Y1583814D01*
X8743576Y1578226D01*
X8759832Y1572892D01*
X8787010Y1572892D01*
X8803520Y1578226D01*
X8814442Y1583814D01*
X8825364Y1594736D01*
X8830698Y1605658D01*
X8830698Y1627502D01*
X8825364Y1638424D01*
X8814442Y1649346D01*
X8803520Y1654680D01*
X8716144Y1774568D02*
G01*
X8830698Y1774568D01*
X8716144Y1774568D02*
G01*
X8716144Y1823844D01*
X8721732Y1840100D01*
X8727066Y1845688D01*
X8737988Y1851022D01*
X8748910Y1851022D01*
X8759832Y1845688D01*
X8765166Y1840100D01*
X8770754Y1823844D01*
X8770754Y1774568D01*
X8770754Y1812922D02*
G01*
X8830698Y1851022D01*
X8716144Y1887090D02*
G01*
X8830698Y1887090D01*
X8716144Y1887090D02*
G01*
X8716144Y1957956D01*
X8770754Y1887090D02*
G01*
X8770754Y1930778D01*
X8830698Y1887090D02*
G01*
X8830698Y1957956D01*
X8716144Y2037712D02*
G01*
X8830698Y1994024D01*
X8716144Y2037712D02*
G01*
X8830698Y2081146D01*
X8792598Y2010280D02*
G01*
X8792598Y2064890D01*
X8716144Y2117214D02*
G01*
X8830698Y2117214D01*
X8716144Y2117214D02*
G01*
X8716144Y2155314D01*
X8721732Y2171824D01*
X8732654Y2182746D01*
X8743576Y2188080D01*
X8759832Y2193668D01*
X8787010Y2193668D01*
X8803520Y2188080D01*
X8814442Y2182746D01*
X8825364Y2171824D01*
X8830698Y2155314D01*
X8830698Y2117214D01*
X9732144Y1460624D02*
G01*
X9846698Y1460624D01*
X9732144Y1460624D02*
G01*
X9732144Y1509646D01*
X9737732Y1525902D01*
X9743066Y1531490D01*
X9753988Y1536824D01*
X9770244Y1536824D01*
X9781166Y1531490D01*
X9786754Y1525902D01*
X9792088Y1509646D01*
X9792088Y1460624D01*
X9759576Y1654680D02*
G01*
X9748654Y1649346D01*
X9737732Y1638424D01*
X9732144Y1627502D01*
X9732144Y1605658D01*
X9737732Y1594736D01*
X9748654Y1583814D01*
X9759576Y1578226D01*
X9775832Y1572892D01*
X9803010Y1572892D01*
X9819520Y1578226D01*
X9830442Y1583814D01*
X9841364Y1594736D01*
X9846698Y1605658D01*
X9846698Y1627502D01*
X9841364Y1638424D01*
X9830442Y1649346D01*
X9819520Y1654680D01*
X9732144Y1690748D02*
G01*
X9846698Y1690748D01*
X9478144Y1460624D02*
G01*
X9592698Y1460624D01*
X9478144Y1496438D02*
G01*
X9592698Y1496438D01*
X9478144Y1496438D02*
G01*
X9592698Y1572892D01*
X9478144Y1572892D02*
G01*
X9592698Y1572892D01*
X9494654Y1685160D02*
G01*
X9483732Y1674238D01*
X9478144Y1657982D01*
X9478144Y1636138D01*
X9483732Y1619882D01*
X9494654Y1608960D01*
X9505576Y1608960D01*
X9516244Y1614294D01*
X9521832Y1619882D01*
X9527166Y1630804D01*
X9538088Y1663316D01*
X9543676Y1674238D01*
X9549010Y1679826D01*
X9559932Y1685160D01*
X9576442Y1685160D01*
X9587364Y1674238D01*
X9592698Y1657982D01*
X9592698Y1636138D01*
X9587364Y1619882D01*
X9576442Y1608960D01*
X9478144Y1759328D02*
G01*
X9592698Y1759328D01*
X9478144Y1721228D02*
G01*
X9478144Y1797682D01*
X9478144Y1917570D02*
G01*
X9592698Y1944748D01*
X9478144Y1972180D02*
G01*
X9592698Y1944748D01*
X9478144Y1972180D02*
G01*
X9592698Y1999358D01*
X9478144Y2026790D02*
G01*
X9592698Y1999358D01*
X9478144Y2062604D02*
G01*
X9592698Y2062604D01*
X9478144Y2062604D02*
G01*
X9478144Y2111880D01*
X9483732Y2128136D01*
X9489066Y2133470D01*
X9499988Y2139058D01*
X9510910Y2139058D01*
X9521832Y2133470D01*
X9527166Y2128136D01*
X9532754Y2111880D01*
X9532754Y2062604D01*
X9532754Y2100958D02*
G01*
X9592698Y2139058D01*
X9478144Y2175126D02*
G01*
X9592698Y2175126D01*
X9478144Y2249294D02*
G01*
X9592698Y2249294D01*
X9478144Y2210940D02*
G01*
X9478144Y2287394D01*
X9478144Y2323462D02*
G01*
X9592698Y2323462D01*
X9478144Y2323462D02*
G01*
X9478144Y2394328D01*
X9532754Y2323462D02*
G01*
X9532754Y2367150D01*
X9592698Y2323462D02*
G01*
X9592698Y2394328D01*
X9224144Y1460624D02*
G01*
X9338698Y1460624D01*
X9224144Y1496438D02*
G01*
X9338698Y1496438D01*
X9224144Y1496438D02*
G01*
X9338698Y1572892D01*
X9224144Y1572892D02*
G01*
X9338698Y1572892D01*
X9240654Y1685160D02*
G01*
X9229732Y1674238D01*
X9224144Y1657982D01*
X9224144Y1636138D01*
X9229732Y1619882D01*
X9240654Y1608960D01*
X9251576Y1608960D01*
X9262244Y1614294D01*
X9267832Y1619882D01*
X9273166Y1630804D01*
X9284088Y1663316D01*
X9289676Y1674238D01*
X9295010Y1679826D01*
X9305932Y1685160D01*
X9322442Y1685160D01*
X9333364Y1674238D01*
X9338698Y1657982D01*
X9338698Y1636138D01*
X9333364Y1619882D01*
X9322442Y1608960D01*
X9224144Y1759328D02*
G01*
X9338698Y1759328D01*
X9224144Y1721228D02*
G01*
X9224144Y1797682D01*
X9224144Y1917570D02*
G01*
X9338698Y1917570D01*
X9224144Y1917570D02*
G01*
X9224144Y1966592D01*
X9229732Y1983102D01*
X9235066Y1988436D01*
X9245988Y1994024D01*
X9256910Y1994024D01*
X9267832Y1988436D01*
X9273166Y1983102D01*
X9278754Y1966592D01*
X9278754Y1917570D01*
X9278754Y1955670D02*
G01*
X9338698Y1994024D01*
X9224144Y2029838D02*
G01*
X9338698Y2029838D01*
X9224144Y2029838D02*
G01*
X9224144Y2100958D01*
X9278754Y2029838D02*
G01*
X9278754Y2073526D01*
X9338698Y2029838D02*
G01*
X9338698Y2100958D01*
X9224144Y2180460D02*
G01*
X9338698Y2136772D01*
X9224144Y2180460D02*
G01*
X9338698Y2224148D01*
X9300598Y2153282D02*
G01*
X9300598Y2207892D01*
X9224144Y2260216D02*
G01*
X9338698Y2260216D01*
X9224144Y2260216D02*
G01*
X9224144Y2298316D01*
X9229732Y2314572D01*
X9240654Y2325494D01*
X9251576Y2331082D01*
X9267832Y2336416D01*
X9295010Y2336416D01*
X9311520Y2331082D01*
X9322442Y2325494D01*
X9333364Y2314572D01*
X9338698Y2298316D01*
X9338698Y2260216D01*
X8970144Y1460624D02*
G01*
X9084698Y1460624D01*
X8970144Y1460624D02*
G01*
X8970144Y1509646D01*
X8975732Y1525902D01*
X8981066Y1531490D01*
X8991988Y1536824D01*
X9008244Y1536824D01*
X9019166Y1531490D01*
X9024754Y1525902D01*
X9030088Y1509646D01*
X9030088Y1460624D01*
X8997576Y1654680D02*
G01*
X8986654Y1649346D01*
X8975732Y1638424D01*
X8970144Y1627502D01*
X8970144Y1605658D01*
X8975732Y1594736D01*
X8986654Y1583814D01*
X8997576Y1578226D01*
X9013832Y1572892D01*
X9041010Y1572892D01*
X9057520Y1578226D01*
X9068442Y1583814D01*
X9079364Y1594736D01*
X9084698Y1605658D01*
X9084698Y1627502D01*
X9079364Y1638424D01*
X9068442Y1649346D01*
X9057520Y1654680D01*
X8970144Y1774568D02*
G01*
X9084698Y1802000D01*
X8970144Y1829178D02*
G01*
X9084698Y1802000D01*
X8970144Y1829178D02*
G01*
X9084698Y1856610D01*
X8970144Y1883788D02*
G01*
X9084698Y1856610D01*
X8970144Y1919856D02*
G01*
X9084698Y1919856D01*
X8970144Y1919856D02*
G01*
X8970144Y1968878D01*
X8975732Y1985134D01*
X8981066Y1990722D01*
X8991988Y1996056D01*
X9002910Y1996056D01*
X9013832Y1990722D01*
X9019166Y1985134D01*
X9024754Y1968878D01*
X9024754Y1919856D01*
X9024754Y1957956D02*
G01*
X9084698Y1996056D01*
X8970144Y2032124D02*
G01*
X9084698Y2032124D01*
X8970144Y2106292D02*
G01*
X9084698Y2106292D01*
X8970144Y2068192D02*
G01*
X8970144Y2144392D01*
X8970144Y2180460D02*
G01*
X9084698Y2180460D01*
X8970144Y2180460D02*
G01*
X8970144Y2251326D01*
X9024754Y2180460D02*
G01*
X9024754Y2224148D01*
X9084698Y2180460D02*
G01*
X9084698Y2251326D01*
X10240116Y1493154D02*
G01*
X10245704Y1482232D01*
X10256626Y1471310D01*
X10267548Y1465976D01*
X10283804Y1460388D01*
X10310982Y1460388D01*
X10327492Y1465976D01*
X10338414Y1471310D01*
X10349336Y1482232D01*
X10354670Y1493154D01*
X10354670Y1514998D01*
X10349336Y1525920D01*
X10338414Y1536842D01*
X10327492Y1542430D01*
X10310982Y1547764D01*
X10283804Y1547764D01*
X10267548Y1542430D01*
X10256626Y1536842D01*
X10245704Y1525920D01*
X10240116Y1514998D01*
X10240116Y1493154D01*
X10240116Y1583832D02*
G01*
X10354670Y1627520D01*
X10240116Y1670954D02*
G01*
X10354670Y1627520D01*
X10240116Y1707022D02*
G01*
X10354670Y1707022D01*
X10240116Y1707022D02*
G01*
X10240116Y1777888D01*
X10294726Y1707022D02*
G01*
X10294726Y1750710D01*
X10354670Y1707022D02*
G01*
X10354670Y1777888D01*
X10240116Y1813956D02*
G01*
X10354670Y1813956D01*
X10240116Y1813956D02*
G01*
X10240116Y1862978D01*
X10245704Y1879488D01*
X10251038Y1884822D01*
X10261960Y1890410D01*
X10272882Y1890410D01*
X10283804Y1884822D01*
X10289392Y1879488D01*
X10294726Y1862978D01*
X10294726Y1813956D01*
X10294726Y1852056D02*
G01*
X10354670Y1890410D01*
X10240116Y1926224D02*
G01*
X10354670Y1926224D01*
X10240116Y1926224D02*
G01*
X10240116Y1997344D01*
X10294726Y1926224D02*
G01*
X10294726Y1969912D01*
X10240116Y2033158D02*
G01*
X10354670Y2033158D01*
X10354670Y2033158D02*
G01*
X10354670Y2098690D01*
X10240116Y2167524D02*
G01*
X10245704Y2156602D01*
X10256626Y2145680D01*
X10267548Y2140092D01*
X10283804Y2134758D01*
X10310982Y2134758D01*
X10327492Y2140092D01*
X10338414Y2145680D01*
X10349336Y2156602D01*
X10354670Y2167524D01*
X10354670Y2189114D01*
X10349336Y2200036D01*
X10338414Y2210958D01*
X10327492Y2216546D01*
X10310982Y2221880D01*
X10283804Y2221880D01*
X10267548Y2216546D01*
X10256626Y2210958D01*
X10245704Y2200036D01*
X10240116Y2189114D01*
X10240116Y2167524D01*
X10240116Y2257948D02*
G01*
X10354670Y2285126D01*
X10240116Y2312558D02*
G01*
X10354670Y2285126D01*
X10240116Y2312558D02*
G01*
X10354670Y2339736D01*
X10240116Y2366914D02*
G01*
X10354670Y2339736D01*
X3955506Y4089397D02*
G01*
X4070060Y4089397D01*
X4070060Y4089397D02*
G01*
X4070060Y4154929D01*
X3955506Y4234431D02*
G01*
X4070060Y4190743D01*
X3955506Y4234431D02*
G01*
X4070060Y4278119D01*
X4031960Y4207253D02*
G01*
X4031960Y4261863D01*
X3955506Y4346953D02*
G01*
X3961094Y4330443D01*
X3977350Y4319521D01*
X4004782Y4314187D01*
X4021038Y4314187D01*
X4048216Y4319521D01*
X4064726Y4330443D01*
X4070060Y4346953D01*
X4070060Y4357875D01*
X4064726Y4374131D01*
X4048216Y4385053D01*
X4021038Y4390387D01*
X4004782Y4390387D01*
X3977350Y4385053D01*
X3961094Y4374131D01*
X3955506Y4357875D01*
X3955506Y4346953D01*
X4209506Y4089397D02*
G01*
X4324060Y4089397D01*
X4324060Y4089397D02*
G01*
X4324060Y4154929D01*
X4209506Y4234431D02*
G01*
X4324060Y4190743D01*
X4209506Y4234431D02*
G01*
X4324060Y4278119D01*
X4285960Y4207253D02*
G01*
X4285960Y4261863D01*
X4231350Y4314187D02*
G01*
X4226016Y4325109D01*
X4209506Y4341365D01*
X4324060Y4341365D01*
X4463524Y4089400D02*
G01*
X4578078Y4089400D01*
X4578078Y4089400D02*
G01*
X4578078Y4154931D01*
X4463524Y4234434D02*
G01*
X4578078Y4190745D01*
X4463524Y4234434D02*
G01*
X4578078Y4278121D01*
X4539978Y4207255D02*
G01*
X4539978Y4261865D01*
X4490956Y4319523D02*
G01*
X4485368Y4319523D01*
X4474446Y4325112D01*
X4469112Y4330445D01*
X4463524Y4341368D01*
X4463524Y4363212D01*
X4469112Y4374134D01*
X4474446Y4379468D01*
X4485368Y4385055D01*
X4496290Y4385055D01*
X4507212Y4379468D01*
X4523722Y4368545D01*
X4578078Y4314189D01*
X4578078Y4390389D01*
X4717524Y4089400D02*
G01*
X4832078Y4089400D01*
X4832078Y4089400D02*
G01*
X4832078Y4154931D01*
X4717524Y4234434D02*
G01*
X4832078Y4190745D01*
X4717524Y4234434D02*
G01*
X4832078Y4278121D01*
X4793978Y4207255D02*
G01*
X4793978Y4261865D01*
X4717524Y4325112D02*
G01*
X4717524Y4385055D01*
X4761212Y4352289D01*
X4761212Y4368545D01*
X4766800Y4379468D01*
X4772134Y4385055D01*
X4788390Y4390389D01*
X4799312Y4390389D01*
X4815822Y4385055D01*
X4826744Y4374134D01*
X4832078Y4357878D01*
X4832078Y4341368D01*
X4826744Y4325112D01*
X4821156Y4319523D01*
X4810234Y4314189D01*
X4971524Y4089400D02*
G01*
X5086078Y4089400D01*
X5086078Y4089400D02*
G01*
X5086078Y4154931D01*
X4971524Y4234434D02*
G01*
X5086078Y4190745D01*
X4971524Y4234434D02*
G01*
X5086078Y4278121D01*
X5047978Y4207255D02*
G01*
X5047978Y4261865D01*
X4971524Y4368545D02*
G01*
X5047978Y4314189D01*
X5047978Y4395978D01*
X4971524Y4368545D02*
G01*
X5086078Y4368545D01*
X5225524Y4223765D02*
G01*
X5231112Y4212844D01*
X5242034Y4201921D01*
X5252956Y4196334D01*
X5269212Y4191000D01*
X5296390Y4191000D01*
X5312900Y4196334D01*
X5323822Y4201921D01*
X5334744Y4212844D01*
X5340078Y4223765D01*
X5340078Y4245610D01*
X5334744Y4256531D01*
X5323822Y4267454D01*
X5312900Y4272787D01*
X5296390Y4278376D01*
X5269212Y4278376D01*
X5252956Y4272787D01*
X5242034Y4267454D01*
X5231112Y4256531D01*
X5225524Y4245610D01*
X5225524Y4223765D01*
X5225524Y4314189D02*
G01*
X5340078Y4314189D01*
X5225524Y4314189D02*
G01*
X5225524Y4385055D01*
X5280134Y4314189D02*
G01*
X5280134Y4357878D01*
X5340078Y4314189D02*
G01*
X5340078Y4385055D01*
X5479524Y4038600D02*
G01*
X5594078Y4038600D01*
X5479524Y4038600D02*
G01*
X5479524Y4087621D01*
X5485112Y4104131D01*
X5490446Y4109465D01*
X5501368Y4115054D01*
X5512290Y4115054D01*
X5523212Y4109465D01*
X5528800Y4104131D01*
X5534134Y4087621D01*
X5534134Y4038600D01*
X5534134Y4076700D02*
G01*
X5594078Y4115054D01*
X5457680Y4249165D02*
G01*
X5632432Y4150868D01*
X5479524Y4285234D02*
G01*
X5594078Y4312412D01*
X5479524Y4339589D02*
G01*
X5594078Y4312412D01*
X5479524Y4339589D02*
G01*
X5594078Y4367021D01*
X5479524Y4394200D02*
G01*
X5594078Y4367021D01*
X5733521Y4256531D02*
G01*
X5733521Y4201921D01*
X5782797Y4196334D01*
X5777209Y4201921D01*
X5771875Y4218178D01*
X5771875Y4234687D01*
X5777209Y4250944D01*
X5788131Y4261865D01*
X5804387Y4267454D01*
X5815309Y4267454D01*
X5831819Y4261865D01*
X5842741Y4250944D01*
X5848075Y4234687D01*
X5848075Y4218178D01*
X5842741Y4201921D01*
X5837153Y4196334D01*
X5826231Y4191000D01*
X5733521Y4303268D02*
G01*
X5848075Y4346955D01*
X5733521Y4390644D02*
G01*
X5848075Y4346955D01*
X6446265Y4914137D02*
G01*
X6446265Y4841494D01*
X6441693Y4827778D01*
X6437122Y4823205D01*
X6427977Y4818634D01*
X6419088Y4818634D01*
X6409943Y4823205D01*
X6405372Y4827778D01*
X6400800Y4841494D01*
X6400800Y4850637D01*
X6530847Y4914137D02*
G01*
X6485381Y4914137D01*
X6480809Y4873244D01*
X6485381Y4877815D01*
X6498843Y4882387D01*
X6512559Y4882387D01*
X6526275Y4877815D01*
X6535420Y4868671D01*
X6539991Y4855210D01*
X6539991Y4846065D01*
X6535420Y4832350D01*
X6526275Y4823205D01*
X6512559Y4818634D01*
X6498843Y4818634D01*
X6485381Y4823205D01*
X6480809Y4827778D01*
X6476238Y4836921D01*
X7606134Y4237004D02*
G01*
X7611468Y4242338D01*
X7606134Y4247926D01*
X7600546Y4242338D01*
X7606134Y4237004D01*
X7475070Y4237004D02*
G01*
X7480658Y4242338D01*
X7475070Y4247926D01*
X7469736Y4242338D01*
X7475070Y4237004D01*
X7344260Y4237004D02*
G01*
X7349594Y4242338D01*
X7344260Y4247926D01*
X7338672Y4242338D01*
X7344260Y4237004D01*
X12172950Y1624076D02*
G01*
X12100306Y1583181D01*
X12172950Y1542034D01*
X12172950Y1370076D02*
G01*
X12100306Y1329181D01*
X12172950Y1288034D01*
X6863847Y4089405D02*
G01*
X6978401Y4089405D01*
X6863847Y4089405D02*
G01*
X6863847Y4138427D01*
X6869435Y4154937D01*
X6874769Y4160271D01*
X6885691Y4165859D01*
X6902201Y4165859D01*
X6912869Y4160271D01*
X6918457Y4154937D01*
X6923791Y4138427D01*
X6923791Y4089405D01*
X6891279Y4283461D02*
G01*
X6880357Y4278127D01*
X6869435Y4267205D01*
X6863847Y4256283D01*
X6863847Y4234439D01*
X6869435Y4223517D01*
X6880357Y4212595D01*
X6891279Y4207261D01*
X6907535Y4201673D01*
X6934713Y4201673D01*
X6951223Y4207261D01*
X6962145Y4212595D01*
X6973067Y4223517D01*
X6978401Y4234439D01*
X6978401Y4256283D01*
X6973067Y4267205D01*
X6962145Y4278127D01*
X6951223Y4283461D01*
X6863847Y4352295D02*
G01*
X6869435Y4336039D01*
X6885691Y4325117D01*
X6912869Y4319529D01*
X6929379Y4319529D01*
X6956557Y4325117D01*
X6973067Y4336039D01*
X6978401Y4352295D01*
X6978401Y4363217D01*
X6973067Y4379473D01*
X6956557Y4390395D01*
X6929379Y4395983D01*
X6912869Y4395983D01*
X6885691Y4390395D01*
X6869435Y4379473D01*
X6863847Y4363217D01*
X6863847Y4352295D01*
X7117821Y4089405D02*
G01*
X7232375Y4089405D01*
X7117821Y4089405D02*
G01*
X7117821Y4138427D01*
X7123409Y4154937D01*
X7128743Y4160271D01*
X7139665Y4165859D01*
X7156175Y4165859D01*
X7167097Y4160271D01*
X7172431Y4154937D01*
X7178019Y4138427D01*
X7178019Y4089405D01*
X7145253Y4283461D02*
G01*
X7134331Y4278127D01*
X7123409Y4267205D01*
X7117821Y4256283D01*
X7117821Y4234439D01*
X7123409Y4223517D01*
X7134331Y4212595D01*
X7145253Y4207261D01*
X7161509Y4201673D01*
X7188687Y4201673D01*
X7205197Y4207261D01*
X7216119Y4212595D01*
X7227041Y4223517D01*
X7232375Y4234439D01*
X7232375Y4256283D01*
X7227041Y4267205D01*
X7216119Y4278127D01*
X7205197Y4283461D01*
X7139665Y4319529D02*
G01*
X7134331Y4330451D01*
X7117821Y4346961D01*
X7232375Y4346961D01*
X8496300Y2545587D02*
G01*
X8506713Y2550921D01*
X8522208Y2566415D01*
X8522208Y2457450D01*
X8561831Y2540507D02*
G01*
X8561831Y2545587D01*
X8566911Y2556002D01*
X8572245Y2561336D01*
X8582406Y2566415D01*
X8603234Y2566415D01*
X8613647Y2561336D01*
X8618981Y2556002D01*
X8624061Y2545587D01*
X8624061Y2535173D01*
X8618981Y2524760D01*
X8608568Y2509265D01*
X8556497Y2457450D01*
X8629395Y2457450D01*
X8663686Y2504186D02*
G01*
X8757158Y2504186D01*
X8791447Y2566415D02*
G01*
X8791447Y2457450D01*
X8791447Y2566415D02*
G01*
X8838184Y2566415D01*
X8853677Y2561336D01*
X8859011Y2556002D01*
X8864091Y2545587D01*
X8864091Y2535173D01*
X8859011Y2524760D01*
X8853677Y2519679D01*
X8838184Y2514600D01*
X8791447Y2514600D02*
G01*
X8838184Y2514600D01*
X8853677Y2509265D01*
X8859011Y2504186D01*
X8864091Y2493771D01*
X8864091Y2478023D01*
X8859011Y2467610D01*
X8853677Y2462529D01*
X8838184Y2457450D01*
X8791447Y2457450D01*
X8898381Y2566415D02*
G01*
X8898381Y2457450D01*
X8968993Y2566415D02*
G01*
X8968993Y2457450D01*
X8932672Y2566415D02*
G01*
X9005315Y2566415D01*
X9119615Y2566415D02*
G01*
X9119615Y2457450D01*
X9119615Y2566415D02*
G01*
X9166606Y2566415D01*
X9182100Y2561336D01*
X9187179Y2556002D01*
X9192513Y2545587D01*
X9192513Y2530094D01*
X9187179Y2519679D01*
X9182100Y2514600D01*
X9166606Y2509265D01*
X9119615Y2509265D01*
X9304781Y2540507D02*
G01*
X9299447Y2550921D01*
X9289034Y2561336D01*
X9278620Y2566415D01*
X9258045Y2566415D01*
X9247631Y2561336D01*
X9237218Y2550921D01*
X9231884Y2540507D01*
X9226804Y2524760D01*
X9226804Y2498852D01*
X9231884Y2483357D01*
X9237218Y2472944D01*
X9247631Y2462529D01*
X9258045Y2457450D01*
X9278620Y2457450D01*
X9289034Y2462529D01*
X9299447Y2472944D01*
X9304781Y2483357D01*
X9496806Y2540507D02*
G01*
X9491725Y2550921D01*
X9481311Y2561336D01*
X9470897Y2566415D01*
X9450070Y2566415D01*
X9439656Y2561336D01*
X9429495Y2550921D01*
X9424161Y2540507D01*
X9419081Y2524760D01*
X9419081Y2498852D01*
X9424161Y2483357D01*
X9429495Y2472944D01*
X9439656Y2462529D01*
X9450070Y2457450D01*
X9470897Y2457450D01*
X9481311Y2462529D01*
X9491725Y2472944D01*
X9496806Y2483357D01*
X9562338Y2566415D02*
G01*
X9551924Y2561336D01*
X9541509Y2550921D01*
X9536429Y2540507D01*
X9531095Y2524760D01*
X9531095Y2498852D01*
X9536429Y2483357D01*
X9541509Y2472944D01*
X9551924Y2462529D01*
X9562338Y2457450D01*
X9583165Y2457450D01*
X9593579Y2462529D01*
X9603993Y2472944D01*
X9609074Y2483357D01*
X9614408Y2498852D01*
X9614408Y2524760D01*
X9609074Y2540507D01*
X9603993Y2550921D01*
X9593579Y2561336D01*
X9583165Y2566415D01*
X9562338Y2566415D01*
X9648697Y2566415D02*
G01*
X9648697Y2488437D01*
X9653777Y2472944D01*
X9664191Y2462529D01*
X9679686Y2457450D01*
X9690100Y2457450D01*
X9705847Y2462529D01*
X9716261Y2472944D01*
X9721341Y2488437D01*
X9721341Y2566415D01*
X9755631Y2566415D02*
G01*
X9755631Y2457450D01*
X9755631Y2566415D02*
G01*
X9828275Y2457450D01*
X9828275Y2566415D02*
G01*
X9828275Y2457450D01*
X9899141Y2566415D02*
G01*
X9899141Y2457450D01*
X9862565Y2566415D02*
G01*
X9935463Y2566415D01*
X9969754Y2566415D02*
G01*
X9969754Y2457450D01*
X9969754Y2566415D02*
G01*
X10037318Y2566415D01*
X9969754Y2514600D02*
G01*
X10011156Y2514600D01*
X9969754Y2457450D02*
G01*
X10037318Y2457450D01*
X10071608Y2566415D02*
G01*
X10071608Y2457450D01*
X10071608Y2566415D02*
G01*
X10118343Y2566415D01*
X10133838Y2561336D01*
X10139172Y2556002D01*
X10144252Y2545587D01*
X10144252Y2535173D01*
X10139172Y2524760D01*
X10133838Y2519679D01*
X10118343Y2514600D01*
X10071608Y2514600D01*
X10107929Y2514600D02*
G01*
X10144252Y2457450D01*
X10268965Y2581910D02*
G01*
X10268965Y2550921D01*
X10292841Y2545587D02*
G01*
X10303256Y2550921D01*
X10318750Y2566415D01*
X10318750Y2457450D01*
X10420604Y2530094D02*
G01*
X10415524Y2514600D01*
X10405109Y2504186D01*
X10389615Y2498852D01*
X10384281Y2498852D01*
X10368788Y2504186D01*
X10358374Y2514600D01*
X10353040Y2530094D01*
X10353040Y2535173D01*
X10358374Y2550921D01*
X10368788Y2561336D01*
X10384281Y2566415D01*
X10389615Y2566415D01*
X10405109Y2561336D01*
X10415524Y2550921D01*
X10420604Y2530094D01*
X10420604Y2504186D01*
X10415524Y2478023D01*
X10405109Y2462529D01*
X10389615Y2457450D01*
X10379202Y2457450D01*
X10363454Y2462529D01*
X10358374Y2472944D01*
X10465308Y2566415D02*
G01*
X10522458Y2566415D01*
X10491215Y2524760D01*
X10506963Y2524760D01*
X10517377Y2519679D01*
X10522458Y2514600D01*
X10527791Y2498852D01*
X10527791Y2488437D01*
X10522458Y2472944D01*
X10512043Y2462529D01*
X10496550Y2457450D01*
X10481056Y2457450D01*
X10465308Y2462529D01*
X10460227Y2467610D01*
X10454893Y2478023D01*
X5829300Y2566415D02*
G01*
X5829300Y2457450D01*
X5829300Y2566415D02*
G01*
X5876036Y2566415D01*
X5891529Y2561336D01*
X5896863Y2556002D01*
X5901943Y2545587D01*
X5901943Y2535173D01*
X5896863Y2524760D01*
X5891529Y2519679D01*
X5876036Y2514600D01*
X5829300Y2514600D01*
X5865622Y2514600D02*
G01*
X5901943Y2457450D01*
X6029706Y2587244D02*
G01*
X5936234Y2420873D01*
X6063995Y2566415D02*
G01*
X6090158Y2457450D01*
X6116065Y2566415D02*
G01*
X6090158Y2457450D01*
X6116065Y2566415D02*
G01*
X6141974Y2457450D01*
X6168136Y2566415D02*
G01*
X6141974Y2457450D01*
X6323838Y2566415D02*
G01*
X6282436Y2457450D01*
X6323838Y2566415D02*
G01*
X6365493Y2457450D01*
X6297929Y2493771D02*
G01*
X6349745Y2493771D01*
X6399784Y2566415D02*
G01*
X6399784Y2457450D01*
X6399784Y2566415D02*
G01*
X6436106Y2566415D01*
X6451600Y2561336D01*
X6462013Y2550921D01*
X6467347Y2540507D01*
X6472427Y2524760D01*
X6472427Y2498852D01*
X6467347Y2483357D01*
X6462013Y2472944D01*
X6451600Y2462529D01*
X6436106Y2457450D01*
X6399784Y2457450D01*
X6506718Y2566415D02*
G01*
X6506718Y2457450D01*
X6506718Y2566415D02*
G01*
X6543040Y2566415D01*
X6558788Y2561336D01*
X6569202Y2550921D01*
X6574281Y2540507D01*
X6579615Y2524760D01*
X6579615Y2498852D01*
X6574281Y2483357D01*
X6569202Y2472944D01*
X6558788Y2462529D01*
X6543040Y2457450D01*
X6506718Y2457450D01*
X6613906Y2566415D02*
G01*
X6613906Y2457450D01*
X6613906Y2566415D02*
G01*
X6660641Y2566415D01*
X6676136Y2561336D01*
X6681215Y2556002D01*
X6686550Y2545587D01*
X6686550Y2535173D01*
X6681215Y2524760D01*
X6676136Y2519679D01*
X6660641Y2514600D01*
X6613906Y2514600D01*
X6650227Y2514600D02*
G01*
X6686550Y2457450D01*
X6720840Y2566415D02*
G01*
X6720840Y2457450D01*
X6720840Y2566415D02*
G01*
X6788404Y2566415D01*
X6720840Y2514600D02*
G01*
X6762495Y2514600D01*
X6720840Y2457450D02*
G01*
X6788404Y2457450D01*
X6895338Y2550921D02*
G01*
X6884924Y2561336D01*
X6869429Y2566415D01*
X6848602Y2566415D01*
X6833108Y2561336D01*
X6822693Y2550921D01*
X6822693Y2540507D01*
X6827774Y2530094D01*
X6833108Y2524760D01*
X6843522Y2519679D01*
X6874509Y2509265D01*
X6884924Y2504186D01*
X6890258Y2498852D01*
X6895338Y2488437D01*
X6895338Y2472944D01*
X6884924Y2462529D01*
X6869429Y2457450D01*
X6848602Y2457450D01*
X6833108Y2462529D01*
X6822693Y2472944D01*
X7002525Y2550921D02*
G01*
X6992111Y2561336D01*
X6976363Y2566415D01*
X6955536Y2566415D01*
X6940041Y2561336D01*
X6929627Y2550921D01*
X6929627Y2540507D01*
X6934961Y2530094D01*
X6940041Y2524760D01*
X6950456Y2519679D01*
X6981697Y2509265D01*
X6992111Y2504186D01*
X6997191Y2498852D01*
X7002525Y2488437D01*
X7002525Y2472944D01*
X6992111Y2462529D01*
X6976363Y2457450D01*
X6955536Y2457450D01*
X6940041Y2462529D01*
X6929627Y2472944D01*
X7189470Y2550921D02*
G01*
X7179056Y2561336D01*
X7163561Y2566415D01*
X7142734Y2566415D01*
X7126986Y2561336D01*
X7116825Y2550921D01*
X7116825Y2540507D01*
X7121906Y2530094D01*
X7126986Y2524760D01*
X7137400Y2519679D01*
X7168641Y2509265D01*
X7179056Y2504186D01*
X7184136Y2498852D01*
X7189470Y2488437D01*
X7189470Y2472944D01*
X7179056Y2462529D01*
X7163561Y2457450D01*
X7142734Y2457450D01*
X7126986Y2462529D01*
X7116825Y2472944D01*
X7223759Y2566415D02*
G01*
X7249668Y2457450D01*
X7275575Y2566415D02*
G01*
X7249668Y2457450D01*
X7275575Y2566415D02*
G01*
X7301738Y2457450D01*
X7327645Y2566415D02*
G01*
X7301738Y2457450D01*
X7398258Y2566415D02*
G01*
X7398258Y2457450D01*
X7361936Y2566415D02*
G01*
X7434579Y2566415D01*
X7468870Y2566415D02*
G01*
X7468870Y2457450D01*
X7581138Y2540507D02*
G01*
X7576058Y2550921D01*
X7565643Y2561336D01*
X7555229Y2566415D01*
X7534402Y2566415D01*
X7523988Y2561336D01*
X7513574Y2550921D01*
X7508493Y2540507D01*
X7503159Y2524760D01*
X7503159Y2498852D01*
X7508493Y2483357D01*
X7513574Y2472944D01*
X7523988Y2462529D01*
X7534402Y2457450D01*
X7555229Y2457450D01*
X7565643Y2462529D01*
X7576058Y2472944D01*
X7581138Y2483357D01*
X7615427Y2566415D02*
G01*
X7615427Y2457450D01*
X7688325Y2566415D02*
G01*
X7688325Y2457450D01*
X7615427Y2514600D02*
G01*
X7688325Y2514600D01*
X7812786Y2581910D02*
G01*
X7812786Y2550921D01*
X7836915Y2545587D02*
G01*
X7847075Y2550921D01*
X7862824Y2566415D01*
X7862824Y2457450D01*
X7959343Y2566415D02*
G01*
X7907527Y2566415D01*
X7902193Y2519679D01*
X7907527Y2524760D01*
X7923022Y2530094D01*
X7938515Y2530094D01*
X7954263Y2524760D01*
X7964677Y2514600D01*
X7969758Y2498852D01*
X7969758Y2488437D01*
X7964677Y2472944D01*
X7954263Y2462529D01*
X7938515Y2457450D01*
X7923022Y2457450D01*
X7907527Y2462529D01*
X7902193Y2467610D01*
X7897113Y2478023D01*
X8076945Y2566415D02*
G01*
X8024875Y2457450D01*
X8004047Y2566415D02*
G01*
X8076945Y2566415D01*
X3467100Y3061715D02*
G01*
X3467100Y2952750D01*
X3467100Y3061715D02*
G01*
X3503422Y3061715D01*
X3519170Y3056636D01*
X3529329Y3046221D01*
X3534663Y3035807D01*
X3539743Y3020060D01*
X3539743Y2994152D01*
X3534663Y2978657D01*
X3529329Y2968244D01*
X3519170Y2957829D01*
X3503422Y2952750D01*
X3467100Y2952750D01*
X3615690Y3061715D02*
G01*
X3574034Y2952750D01*
X3615690Y3061715D02*
G01*
X3657345Y2952750D01*
X3589781Y2989071D02*
G01*
X3641597Y2989071D01*
X3727958Y3061715D02*
G01*
X3727958Y2952750D01*
X3691636Y3061715D02*
G01*
X3764279Y3061715D01*
X3840225Y3061715D02*
G01*
X3798570Y2952750D01*
X3840225Y3061715D02*
G01*
X3881627Y2952750D01*
X3814063Y2989071D02*
G01*
X3866134Y2989071D01*
X3995927Y3061715D02*
G01*
X3995927Y2952750D01*
X3995927Y3061715D02*
G01*
X4042663Y3061715D01*
X4058411Y3056636D01*
X4063491Y3051302D01*
X4068825Y3040887D01*
X4068825Y3030473D01*
X4063491Y3020060D01*
X4058411Y3014979D01*
X4042663Y3009900D01*
X3995927Y3009900D02*
G01*
X4042663Y3009900D01*
X4058411Y3004565D01*
X4063491Y2999486D01*
X4068825Y2989071D01*
X4068825Y2973323D01*
X4063491Y2962910D01*
X4058411Y2957829D01*
X4042663Y2952750D01*
X3995927Y2952750D01*
X4103115Y3061715D02*
G01*
X4103115Y2983737D01*
X4108195Y2968244D01*
X4118609Y2957829D01*
X4134104Y2952750D01*
X4144518Y2952750D01*
X4160265Y2957829D01*
X4170679Y2968244D01*
X4175759Y2983737D01*
X4175759Y3061715D01*
X4282693Y3046221D02*
G01*
X4272279Y3056636D01*
X4256786Y3061715D01*
X4235958Y3061715D01*
X4220463Y3056636D01*
X4210050Y3046221D01*
X4210050Y3035807D01*
X4215129Y3025394D01*
X4220463Y3020060D01*
X4230877Y3014979D01*
X4262120Y3004565D01*
X4272279Y2999486D01*
X4277613Y2994152D01*
X4282693Y2983737D01*
X4282693Y2968244D01*
X4272279Y2957829D01*
X4256786Y2952750D01*
X4235958Y2952750D01*
X4220463Y2957829D01*
X4210050Y2968244D01*
X4469891Y3046221D02*
G01*
X4459477Y3056636D01*
X4443729Y3061715D01*
X4423156Y3061715D01*
X4407408Y3056636D01*
X4396993Y3046221D01*
X4396993Y3035807D01*
X4402327Y3025394D01*
X4407408Y3020060D01*
X4417822Y3014979D01*
X4449063Y3004565D01*
X4459477Y2999486D01*
X4464558Y2994152D01*
X4469891Y2983737D01*
X4469891Y2968244D01*
X4459477Y2957829D01*
X4443729Y2952750D01*
X4423156Y2952750D01*
X4407408Y2957829D01*
X4396993Y2968244D01*
X4504181Y3061715D02*
G01*
X4530090Y2952750D01*
X4555997Y3061715D02*
G01*
X4530090Y2952750D01*
X4555997Y3061715D02*
G01*
X4582159Y2952750D01*
X4608068Y3061715D02*
G01*
X4582159Y2952750D01*
X4642358Y3061715D02*
G01*
X4642358Y2952750D01*
X4712970Y3061715D02*
G01*
X4712970Y2952750D01*
X4676647Y3061715D02*
G01*
X4749291Y3061715D01*
X4861559Y3035807D02*
G01*
X4856479Y3046221D01*
X4846065Y3056636D01*
X4835652Y3061715D01*
X4814824Y3061715D01*
X4804409Y3056636D01*
X4793995Y3046221D01*
X4788915Y3035807D01*
X4783581Y3020060D01*
X4783581Y2994152D01*
X4788915Y2978657D01*
X4793995Y2968244D01*
X4804409Y2957829D01*
X4814824Y2952750D01*
X4835652Y2952750D01*
X4846065Y2957829D01*
X4856479Y2968244D01*
X4861559Y2978657D01*
X4895850Y3061715D02*
G01*
X4895850Y2952750D01*
X4968493Y3061715D02*
G01*
X4968493Y2952750D01*
X4895850Y3009900D02*
G01*
X4968493Y3009900D01*
X5002784Y3061715D02*
G01*
X5002784Y2952750D01*
X5002784Y3061715D02*
G01*
X5070347Y3061715D01*
X5002784Y3009900D02*
G01*
X5044440Y3009900D01*
X5002784Y2952750D02*
G01*
X5070347Y2952750D01*
X5177536Y3046221D02*
G01*
X5167122Y3056636D01*
X5151374Y3061715D01*
X5130800Y3061715D01*
X5115052Y3056636D01*
X5104638Y3046221D01*
X5104638Y3035807D01*
X5109972Y3025394D01*
X5115052Y3020060D01*
X5125465Y3014979D01*
X5156708Y3004565D01*
X5167122Y2999486D01*
X5172202Y2994152D01*
X5177536Y2983737D01*
X5177536Y2968244D01*
X5167122Y2957829D01*
X5151374Y2952750D01*
X5130800Y2952750D01*
X5115052Y2957829D01*
X5104638Y2968244D01*
X5302250Y3077210D02*
G01*
X5302250Y3046221D01*
X5331206Y3035807D02*
G01*
X5331206Y3040887D01*
X5336540Y3051302D01*
X5341620Y3056636D01*
X5352034Y3061715D01*
X5372861Y3061715D01*
X5383275Y3056636D01*
X5388356Y3051302D01*
X5393690Y3040887D01*
X5393690Y3030473D01*
X5388356Y3020060D01*
X5377941Y3004565D01*
X5326125Y2952750D01*
X5398770Y2952750D01*
X5485129Y3061715D02*
G01*
X5433059Y2989071D01*
X5511038Y2989071D01*
X5485129Y3061715D02*
G01*
X5485129Y2952750D01*
X5607558Y3061715D02*
G01*
X5555741Y3061715D01*
X5550408Y3014979D01*
X5555741Y3020060D01*
X5571236Y3025394D01*
X5586729Y3025394D01*
X5602477Y3020060D01*
X5612891Y3009900D01*
X5617972Y2994152D01*
X5617972Y2983737D01*
X5612891Y2968244D01*
X5602477Y2957829D01*
X5586729Y2952750D01*
X5571236Y2952750D01*
X5555741Y2957829D01*
X5550408Y2962910D01*
X5545327Y2973323D01*
X10718800Y1256537D02*
G01*
X10718800Y1161034D01*
X10718800Y1256537D02*
G01*
X10750550Y1256537D01*
X10764265Y1251965D01*
X10773409Y1243076D01*
X10777981Y1233931D01*
X10782300Y1220215D01*
X10782300Y1197610D01*
X10777981Y1183894D01*
X10773409Y1174750D01*
X10764265Y1165605D01*
X10750550Y1161034D01*
X10718800Y1161034D01*
X10876025Y1243076D02*
G01*
X10866881Y1251965D01*
X10853420Y1256537D01*
X10835131Y1256537D01*
X10821415Y1251965D01*
X10812525Y1243076D01*
X10812525Y1233931D01*
X10816843Y1224787D01*
X10821415Y1220215D01*
X10830559Y1215644D01*
X10857991Y1206500D01*
X10866881Y1202181D01*
X10871454Y1197610D01*
X10876025Y1188465D01*
X10876025Y1174750D01*
X10866881Y1165605D01*
X10853420Y1161034D01*
X10835131Y1161034D01*
X10821415Y1165605D01*
X10812525Y1174750D01*
X10951463Y1256537D02*
G01*
X10905997Y1193037D01*
X10974324Y1193037D01*
X10951463Y1256537D02*
G01*
X10951463Y1161034D01*
X5943600Y4698237D02*
G01*
X5943600Y4602734D01*
X5943600Y4698237D02*
G01*
X5975350Y4698237D01*
X5989065Y4693665D01*
X5998209Y4684776D01*
X6002781Y4675631D01*
X6007100Y4661915D01*
X6007100Y4639310D01*
X6002781Y4625594D01*
X5998209Y4616450D01*
X5989065Y4607305D01*
X5975350Y4602734D01*
X5943600Y4602734D01*
X6100825Y4684776D02*
G01*
X6091681Y4693665D01*
X6078220Y4698237D01*
X6059931Y4698237D01*
X6046215Y4693665D01*
X6037325Y4684776D01*
X6037325Y4675631D01*
X6041643Y4666487D01*
X6046215Y4661915D01*
X6055359Y4657344D01*
X6082791Y4648200D01*
X6091681Y4643628D01*
X6096254Y4639310D01*
X6100825Y4630165D01*
X6100825Y4616450D01*
X6091681Y4607305D01*
X6078220Y4602734D01*
X6059931Y4602734D01*
X6046215Y4607305D01*
X6037325Y4616450D01*
X6139941Y4698237D02*
G01*
X6189979Y4698237D01*
X6162802Y4661915D01*
X6176263Y4661915D01*
X6185408Y4657344D01*
X6189979Y4652771D01*
X6194552Y4639310D01*
X6194552Y4630165D01*
X6189979Y4616450D01*
X6180836Y4607305D01*
X6167120Y4602734D01*
X6153658Y4602734D01*
X6139941Y4607305D01*
X6135370Y4611878D01*
X6130797Y4621021D01*
X329196Y2514594D02*
G01*
X438162Y2514594D01*
X329196Y2514594D02*
G01*
X329196Y2550916D01*
X334276Y2566664D01*
X344690Y2576824D01*
X355104Y2582158D01*
X370852Y2587238D01*
X396760Y2587238D01*
X412254Y2582158D01*
X422668Y2576824D01*
X433082Y2566664D01*
X438162Y2550916D01*
X438162Y2514594D01*
X329196Y2663184D02*
G01*
X438162Y2621528D01*
X329196Y2663184D02*
G01*
X438162Y2704840D01*
X401840Y2637276D02*
G01*
X401840Y2689092D01*
X329196Y2775452D02*
G01*
X438162Y2775452D01*
X329196Y2739130D02*
G01*
X329196Y2811774D01*
X329196Y2887720D02*
G01*
X438162Y2846064D01*
X329196Y2887720D02*
G01*
X438162Y2929122D01*
X401840Y2861558D02*
G01*
X401840Y2913628D01*
X329196Y3043422D02*
G01*
X438162Y3043422D01*
X329196Y3043422D02*
G01*
X329196Y3090158D01*
X334276Y3105906D01*
X339610Y3110986D01*
X350024Y3116320D01*
X360438Y3116320D01*
X370852Y3110986D01*
X375932Y3105906D01*
X381012Y3090158D01*
X381012Y3043422D02*
G01*
X381012Y3090158D01*
X386346Y3105906D01*
X391426Y3110986D01*
X401840Y3116320D01*
X417588Y3116320D01*
X428002Y3110986D01*
X433082Y3105906D01*
X438162Y3090158D01*
X438162Y3043422D01*
X329196Y3150610D02*
G01*
X407174Y3150610D01*
X422668Y3155690D01*
X433082Y3166104D01*
X438162Y3181598D01*
X438162Y3192012D01*
X433082Y3207760D01*
X422668Y3218174D01*
X407174Y3223254D01*
X329196Y3223254D01*
X344690Y3330188D02*
G01*
X334276Y3319774D01*
X329196Y3304280D01*
X329196Y3283452D01*
X334276Y3267958D01*
X344690Y3257544D01*
X355104Y3257544D01*
X365518Y3262624D01*
X370852Y3267958D01*
X375932Y3278372D01*
X386346Y3309614D01*
X391426Y3319774D01*
X396760Y3325108D01*
X407174Y3330188D01*
X422668Y3330188D01*
X433082Y3319774D01*
X438162Y3304280D01*
X438162Y3283452D01*
X433082Y3267958D01*
X422668Y3257544D01*
X12356058Y2378450D02*
G01*
X12465024Y2336794D01*
X12356058Y2378450D02*
G01*
X12465024Y2419852D01*
X12428702Y2352288D02*
G01*
X12428702Y2404358D01*
X12356058Y2454142D02*
G01*
X12465024Y2454142D01*
X12356058Y2454142D02*
G01*
X12356058Y2490464D01*
X12361138Y2506212D01*
X12371552Y2516626D01*
X12381961Y2521706D01*
X12397712Y2527040D01*
X12423622Y2527040D01*
X12439111Y2521706D01*
X12449528Y2516626D01*
X12459944Y2506212D01*
X12465024Y2490464D01*
X12465024Y2454142D01*
X12356058Y2561330D02*
G01*
X12465024Y2561330D01*
X12356058Y2561330D02*
G01*
X12356058Y2597652D01*
X12361138Y2613146D01*
X12371552Y2623560D01*
X12381961Y2628894D01*
X12397712Y2633974D01*
X12423622Y2633974D01*
X12439111Y2628894D01*
X12449528Y2623560D01*
X12459944Y2613146D01*
X12465024Y2597652D01*
X12465024Y2561330D01*
X12356058Y2668264D02*
G01*
X12465024Y2668264D01*
X12356058Y2668264D02*
G01*
X12356058Y2715000D01*
X12361138Y2730494D01*
X12366472Y2735828D01*
X12376886Y2740908D01*
X12387295Y2740908D01*
X12397712Y2735828D01*
X12402794Y2730494D01*
X12407874Y2715000D01*
X12407874Y2668264D01*
X12407874Y2704586D02*
G01*
X12465024Y2740908D01*
X12356058Y2775198D02*
G01*
X12465024Y2775198D01*
X12356058Y2775198D02*
G01*
X12356058Y2842762D01*
X12407874Y2775198D02*
G01*
X12407874Y2816854D01*
X12465024Y2775198D02*
G01*
X12465024Y2842762D01*
X12371552Y2949950D02*
G01*
X12361138Y2939536D01*
X12356058Y2923788D01*
X12356058Y2903214D01*
X12361138Y2887466D01*
X12371552Y2877052D01*
X12381961Y2877052D01*
X12392378Y2882386D01*
X12397712Y2887466D01*
X12402794Y2897880D01*
X12413208Y2929122D01*
X12418288Y2939536D01*
X12423622Y2944616D01*
X12434036Y2949950D01*
X12449528Y2949950D01*
X12459944Y2939536D01*
X12465024Y2923788D01*
X12465024Y2903214D01*
X12459944Y2887466D01*
X12449528Y2877052D01*
X12371552Y3056884D02*
G01*
X12361138Y3046470D01*
X12356058Y3030976D01*
X12356058Y3010148D01*
X12361138Y2994654D01*
X12371552Y2984240D01*
X12381961Y2984240D01*
X12392378Y2989320D01*
X12397712Y2994654D01*
X12402794Y3004814D01*
X12413208Y3036056D01*
X12418288Y3046470D01*
X12423622Y3051804D01*
X12434036Y3056884D01*
X12449528Y3056884D01*
X12459944Y3046470D01*
X12465024Y3030976D01*
X12465024Y3010148D01*
X12459944Y2994654D01*
X12449528Y2984240D01*
X12356058Y3171184D02*
G01*
X12465024Y3171184D01*
X12356058Y3171184D02*
G01*
X12356058Y3217920D01*
X12361138Y3233414D01*
X12366472Y3238748D01*
X12376886Y3243828D01*
X12387295Y3243828D01*
X12397712Y3238748D01*
X12402794Y3233414D01*
X12407874Y3217920D01*
X12407874Y3171184D02*
G01*
X12407874Y3217920D01*
X12413208Y3233414D01*
X12418288Y3238748D01*
X12428702Y3243828D01*
X12444445Y3243828D01*
X12454862Y3238748D01*
X12459944Y3233414D01*
X12465024Y3217920D01*
X12465024Y3171184D01*
X12356058Y3278118D02*
G01*
X12434036Y3278118D01*
X12449528Y3283452D01*
X12459944Y3293866D01*
X12465024Y3309360D01*
X12465024Y3319774D01*
X12459944Y3335268D01*
X12449528Y3345682D01*
X12434036Y3351016D01*
X12356058Y3351016D01*
X12371552Y3457950D02*
G01*
X12361138Y3447536D01*
X12356058Y3432042D01*
X12356058Y3411214D01*
X12361138Y3395720D01*
X12371552Y3385306D01*
X12381961Y3385306D01*
X12392378Y3390386D01*
X12397712Y3395720D01*
X12402794Y3406134D01*
X12413208Y3437122D01*
X12418288Y3447536D01*
X12423622Y3452870D01*
X12434036Y3457950D01*
X12449528Y3457950D01*
X12459944Y3447536D01*
X12465024Y3432042D01*
X12465024Y3411214D01*
X12459944Y3395720D01*
X12449528Y3385306D01*
X12446000Y1942337D02*
G01*
X12446000Y1846834D01*
X12446000Y1942337D02*
G01*
X12477750Y1942337D01*
X12491465Y1937765D01*
X12500609Y1928876D01*
X12505181Y1919731D01*
X12509500Y1906015D01*
X12509500Y1883410D01*
X12505181Y1869694D01*
X12500609Y1860550D01*
X12491465Y1851405D01*
X12477750Y1846834D01*
X12446000Y1846834D01*
X12539725Y1924304D02*
G01*
X12548615Y1928876D01*
X12562331Y1942337D01*
X12562331Y1846834D01*
X12242802Y1942337D02*
G01*
X12242802Y1846834D01*
X12242802Y1942337D02*
G01*
X12283696Y1942337D01*
X12297412Y1937765D01*
X12301984Y1933194D01*
X12306302Y1924304D01*
X12306302Y1915160D01*
X12301984Y1906015D01*
X12297412Y1901444D01*
X12283696Y1896871D01*
X12242802Y1896871D01*
X12274552Y1896871D02*
G01*
X12306302Y1846834D01*
X12336528Y1924304D02*
G01*
X12345418Y1928876D01*
X12359134Y1942337D01*
X12359134Y1846834D01*
X6261087Y2375910D02*
G01*
X6261087Y2297932D01*
X6266167Y2282438D01*
X6276581Y2272024D01*
X6292329Y2266944D01*
X6302743Y2266944D01*
X6318237Y2272024D01*
X6328651Y2282438D01*
X6333731Y2297932D01*
X6333731Y2375910D01*
X6430505Y2375910D02*
G01*
X6378435Y2375910D01*
X6373355Y2329174D01*
X6378435Y2334254D01*
X6394183Y2339588D01*
X6409677Y2339588D01*
X6425171Y2334254D01*
X6435585Y2324094D01*
X6440919Y2308346D01*
X6440919Y2297932D01*
X6435585Y2282438D01*
X6425171Y2272024D01*
X6409677Y2266944D01*
X6394183Y2266944D01*
X6378435Y2272024D01*
X6373355Y2277104D01*
X6368021Y2287518D01*
X7416810Y2375910D02*
G01*
X7416810Y2297932D01*
X7421890Y2282438D01*
X7432304Y2272024D01*
X7448052Y2266944D01*
X7458466Y2266944D01*
X7473960Y2272024D01*
X7484374Y2282438D01*
X7489454Y2297932D01*
X7489454Y2375910D01*
X7586228Y2360416D02*
G01*
X7580894Y2370830D01*
X7565400Y2375910D01*
X7554986Y2375910D01*
X7539492Y2370830D01*
X7529078Y2355082D01*
X7523744Y2329174D01*
X7523744Y2303266D01*
X7529078Y2282438D01*
X7539492Y2272024D01*
X7554986Y2266944D01*
X7560066Y2266944D01*
X7575814Y2272024D01*
X7586228Y2282438D01*
X7591308Y2297932D01*
X7591308Y2303266D01*
X7586228Y2318760D01*
X7575814Y2329174D01*
X7560066Y2334254D01*
X7554986Y2334254D01*
X7539492Y2329174D01*
X7529078Y2318760D01*
X7523744Y2303266D01*
X4648189Y2871210D02*
G01*
X4648189Y2793232D01*
X4653269Y2777738D01*
X4663683Y2767324D01*
X4679431Y2762244D01*
X4689845Y2762244D01*
X4705339Y2767324D01*
X4715753Y2777738D01*
X4720833Y2793232D01*
X4720833Y2871210D01*
X4807193Y2871210D02*
G01*
X4755123Y2798566D01*
X4833101Y2798566D01*
X4807193Y2871210D02*
G01*
X4807193Y2762244D01*
X3530592Y2871210D02*
G01*
X3530592Y2793232D01*
X3535672Y2777738D01*
X3546086Y2767324D01*
X3561834Y2762244D01*
X3572248Y2762244D01*
X3587742Y2767324D01*
X3598156Y2777738D01*
X3603236Y2793232D01*
X3603236Y2871210D01*
X3647940Y2871210D02*
G01*
X3705090Y2871210D01*
X3674102Y2829554D01*
X3689596Y2829554D01*
X3700010Y2824474D01*
X3705090Y2819394D01*
X3710424Y2803646D01*
X3710424Y2793232D01*
X3705090Y2777738D01*
X3694676Y2767324D01*
X3679182Y2762244D01*
X3663688Y2762244D01*
X3647940Y2767324D01*
X3642860Y2772404D01*
X3637526Y2782818D01*
X8369307Y2744210D02*
G01*
X8369307Y2666232D01*
X8374387Y2650738D01*
X8384801Y2640324D01*
X8400549Y2635244D01*
X8410963Y2635244D01*
X8426457Y2640324D01*
X8436871Y2650738D01*
X8441951Y2666232D01*
X8441951Y2744210D01*
X8549139Y2744210D02*
G01*
X8497069Y2635244D01*
X8476241Y2744210D02*
G01*
X8549139Y2744210D01*
X9436107Y2744210D02*
G01*
X9436107Y2666232D01*
X9441187Y2650738D01*
X9451601Y2640324D01*
X9467349Y2635244D01*
X9477763Y2635244D01*
X9493257Y2640324D01*
X9503671Y2650738D01*
X9508751Y2666232D01*
X9508751Y2744210D01*
X9569203Y2744210D02*
G01*
X9553455Y2739130D01*
X9548375Y2728716D01*
X9548375Y2718302D01*
X9553455Y2707888D01*
X9563869Y2702554D01*
X9584697Y2697474D01*
X9600191Y2692394D01*
X9610605Y2681980D01*
X9615939Y2671566D01*
X9615939Y2655818D01*
X9610605Y2645404D01*
X9605525Y2640324D01*
X9589777Y2635244D01*
X9569203Y2635244D01*
X9553455Y2640324D01*
X9548375Y2645404D01*
X9543041Y2655818D01*
X9543041Y2671566D01*
X9548375Y2681980D01*
X9558789Y2692394D01*
X9574283Y2697474D01*
X9595111Y2702554D01*
X9605525Y2707888D01*
X9610605Y2718302D01*
X9610605Y2728716D01*
X9605525Y2739130D01*
X9589777Y2744210D01*
X9569203Y2744210D01*
X10490205Y2744210D02*
G01*
X10490205Y2666232D01*
X10495285Y2650738D01*
X10505699Y2640324D01*
X10521447Y2635244D01*
X10531861Y2635244D01*
X10547355Y2640324D01*
X10557769Y2650738D01*
X10562849Y2666232D01*
X10562849Y2744210D01*
X10664703Y2707888D02*
G01*
X10659623Y2692394D01*
X10649209Y2681980D01*
X10633461Y2676646D01*
X10628381Y2676646D01*
X10612887Y2681980D01*
X10602473Y2692394D01*
X10597139Y2707888D01*
X10597139Y2712968D01*
X10602473Y2728716D01*
X10612887Y2739130D01*
X10628381Y2744210D01*
X10633461Y2744210D01*
X10649209Y2739130D01*
X10659623Y2728716D01*
X10664703Y2707888D01*
X10664703Y2681980D01*
X10659623Y2655818D01*
X10649209Y2640324D01*
X10633461Y2635244D01*
X10623301Y2635244D01*
X10607553Y2640324D01*
X10602473Y2650738D01*
X2375021Y2871185D02*
G01*
X2375021Y2793207D01*
X2380101Y2777713D01*
X2390515Y2767299D01*
X2406009Y2762219D01*
X2416423Y2762219D01*
X2432171Y2767299D01*
X2442331Y2777713D01*
X2447665Y2793207D01*
X2447665Y2871185D01*
X2487035Y2845277D02*
G01*
X2487035Y2850357D01*
X2492369Y2860771D01*
X2497449Y2866105D01*
X2507863Y2871185D01*
X2528691Y2871185D01*
X2539105Y2866105D01*
X2544185Y2860771D01*
X2549519Y2850357D01*
X2549519Y2839943D01*
X2544185Y2829783D01*
X2533771Y2814035D01*
X2481955Y2762219D01*
X2554599Y2762219D01*
X2387594Y5779505D02*
G01*
X2387594Y5701527D01*
X2392674Y5686033D01*
X2403088Y5675619D01*
X2418836Y5670539D01*
X2429250Y5670539D01*
X2444744Y5675619D01*
X2455158Y5686033D01*
X2460238Y5701527D01*
X2460238Y5779505D01*
X2494528Y5758677D02*
G01*
X2504942Y5764011D01*
X2520690Y5779505D01*
X2520690Y5670539D01*
G36*
X0Y5842000D02*
G01*
X0Y5588000D01*
X254000Y5842000D01*
G37*
G36*
X12786106Y254000D02*
G01*
X12532106Y0D01*
X12786106Y0D01*
G37*
D11*
X5435589Y4267192D02*
G01*
X5435589Y4406889D01*
X5194289Y4190992D02*
G01*
X5194289Y4406892D01*
X12423114Y1436367D02*
G01*
X12595834Y1436367D01*
X12595834Y1436367D02*
G01*
X12595834Y1583687D01*
X12423114Y1436367D02*
G01*
X12423114Y1583687D01*
X12595834Y1642107D02*
G01*
X12595834Y1758947D01*
X12423114Y1644647D02*
G01*
X12423114Y1758947D01*
X12423114Y1758947D02*
G01*
X12458674Y1794507D01*
X12560274Y1794507D01*
X12595834Y1758947D01*
D12*
X12468834Y1605277D02*
G01*
X12547574Y1605277D01*
X12508679Y1605277D02*
G01*
X12508679Y1622813D01*
D10*
X12372334Y1655518D02*
G01*
X12372334Y1751406D01*
X12240214Y1751406D01*
X12240214Y1655518D01*
X12372334Y1570276D02*
G01*
X12372334Y1474388D01*
X12240214Y1474388D01*
X12240214Y1570276D01*
D13*
X6669976Y2171494D02*
G01*
X6669976Y241500D01*
X6029972Y241500D01*
X6029972Y2171494D01*
X6669976Y2171494D01*
X7825673Y2171494D02*
G01*
X7825673Y241500D01*
X7185670Y241500D01*
X7185670Y2171494D01*
X7825673Y2171494D01*
D11*
X4937790Y2800497D02*
G01*
X5197789Y2800497D01*
X5317789Y2800497D02*
G01*
X5577789Y2800497D01*
X5577789Y120497D02*
G01*
X4937790Y120497D01*
X4937790Y2800497D02*
G01*
X4937790Y2701612D01*
X4937790Y2505382D02*
G01*
X4937790Y2440749D01*
X4937790Y2258245D02*
G01*
X4937790Y2186749D01*
X4937790Y2004245D02*
G01*
X4937790Y1932749D01*
X4937790Y1750245D02*
G01*
X4937790Y1678749D01*
X4937790Y1496245D02*
G01*
X4937790Y1424749D01*
X4937790Y1242245D02*
G01*
X4937790Y1170749D01*
X4937790Y988245D02*
G01*
X4937790Y916749D01*
X4937790Y734245D02*
G01*
X4937790Y662749D01*
X4937790Y480245D02*
G01*
X4937790Y409559D01*
X4937790Y225435D02*
G01*
X4937790Y120497D01*
X5577789Y2800497D02*
G01*
X5577789Y2695559D01*
X5577789Y2511435D02*
G01*
X5577789Y2441559D01*
X5577789Y2257435D02*
G01*
X5577789Y2187559D01*
X5577789Y2003435D02*
G01*
X5577789Y1933559D01*
X5577789Y1749435D02*
G01*
X5577789Y1679559D01*
X5577789Y1495435D02*
G01*
X5577789Y1425559D01*
X5577789Y1241435D02*
G01*
X5577789Y1171559D01*
X5577789Y987435D02*
G01*
X5577789Y917559D01*
X5577789Y733435D02*
G01*
X5577789Y663559D01*
X5577789Y479435D02*
G01*
X5577789Y409559D01*
X5577789Y225435D02*
G01*
X5577789Y120497D01*
X3820193Y2800497D02*
G01*
X4080192Y2800497D01*
X4200192Y2800497D02*
G01*
X4460191Y2800497D01*
X4460191Y120497D02*
G01*
X3820193Y120497D01*
X3820193Y2800497D02*
G01*
X3820193Y2701612D01*
X3820193Y2505382D02*
G01*
X3820193Y2440749D01*
X3820193Y2258245D02*
G01*
X3820193Y2186749D01*
X3820193Y2004245D02*
G01*
X3820193Y1932749D01*
X3820193Y1750245D02*
G01*
X3820193Y1678749D01*
X3820193Y1496245D02*
G01*
X3820193Y1424749D01*
X3820193Y1242245D02*
G01*
X3820193Y1170749D01*
X3820193Y988245D02*
G01*
X3820193Y916749D01*
X3820193Y734245D02*
G01*
X3820193Y662749D01*
X3820193Y480245D02*
G01*
X3820193Y409559D01*
X3820193Y225435D02*
G01*
X3820193Y120497D01*
X4460191Y2800497D02*
G01*
X4460191Y2695559D01*
X4460191Y2511435D02*
G01*
X4460191Y2441559D01*
X4460191Y2257435D02*
G01*
X4460191Y2187559D01*
X4460191Y2003435D02*
G01*
X4460191Y1933559D01*
X4460191Y1749435D02*
G01*
X4460191Y1679559D01*
X4460191Y1495435D02*
G01*
X4460191Y1425559D01*
X4460191Y1241435D02*
G01*
X4460191Y1171559D01*
X4460191Y987435D02*
G01*
X4460191Y917559D01*
X4460191Y733435D02*
G01*
X4460191Y663559D01*
X4460191Y479435D02*
G01*
X4460191Y409559D01*
X4460191Y225435D02*
G01*
X4460191Y120497D01*
X8778181Y2835391D02*
G01*
X8138182Y2835391D01*
X8778181Y4835392D02*
G01*
X8778181Y4806706D01*
X8778181Y4642078D02*
G01*
X8778181Y4552706D01*
X8778181Y4388078D02*
G01*
X8778181Y4298706D01*
X8778181Y4134078D02*
G01*
X8778181Y4044706D01*
X8778181Y3880078D02*
G01*
X8778181Y3790706D01*
X8778181Y3626078D02*
G01*
X8778181Y3536706D01*
X8778181Y3372078D02*
G01*
X8778181Y3282706D01*
X8778181Y3118078D02*
G01*
X8778181Y3028706D01*
X8778181Y2864078D02*
G01*
X8778181Y2835391D01*
X8138185Y4835392D02*
G01*
X8138185Y4832504D01*
X8138185Y4616277D02*
G01*
X8138185Y4552703D01*
X8138185Y4388081D02*
G01*
X8138185Y4298703D01*
X8138185Y4134081D02*
G01*
X8138185Y4044703D01*
X8138185Y3880081D02*
G01*
X8138185Y3790703D01*
X8138185Y3626081D02*
G01*
X8138185Y3536703D01*
X8138185Y3372081D02*
G01*
X8138185Y3282703D01*
X8138185Y3118081D02*
G01*
X8138185Y3028703D01*
X8138185Y2864081D02*
G01*
X8138185Y2835391D01*
X8138185Y4835392D02*
G01*
X8383181Y4835392D01*
X8778181Y4835392D02*
G01*
X8533183Y4835392D01*
X9825936Y2835391D02*
G01*
X9185937Y2835391D01*
X9825936Y4835392D02*
G01*
X9825936Y4806706D01*
X9825936Y4642078D02*
G01*
X9825936Y4552706D01*
X9825936Y4388078D02*
G01*
X9825936Y4298706D01*
X9825936Y4134078D02*
G01*
X9825936Y4044706D01*
X9825936Y3880078D02*
G01*
X9825936Y3790706D01*
X9825936Y3626078D02*
G01*
X9825936Y3536706D01*
X9825936Y3372078D02*
G01*
X9825936Y3282706D01*
X9825936Y3118078D02*
G01*
X9825936Y3028706D01*
X9825936Y2864078D02*
G01*
X9825936Y2835391D01*
X9185940Y4835392D02*
G01*
X9185940Y4832504D01*
X9185940Y4616277D02*
G01*
X9185940Y4552703D01*
X9185940Y4388081D02*
G01*
X9185940Y4298703D01*
X9185940Y4134081D02*
G01*
X9185940Y4044703D01*
X9185940Y3880081D02*
G01*
X9185940Y3790703D01*
X9185940Y3626081D02*
G01*
X9185940Y3536703D01*
X9185940Y3372081D02*
G01*
X9185940Y3282703D01*
X9185940Y3118081D02*
G01*
X9185940Y3028703D01*
X9185940Y2864081D02*
G01*
X9185940Y2835391D01*
X9185940Y4835392D02*
G01*
X9430936Y4835392D01*
X9825936Y4835392D02*
G01*
X9580938Y4835392D01*
X10873679Y2835391D02*
G01*
X10233680Y2835391D01*
X10873679Y4835392D02*
G01*
X10873679Y4806706D01*
X10873679Y4642078D02*
G01*
X10873679Y4552706D01*
X10873679Y4388078D02*
G01*
X10873679Y4298706D01*
X10873679Y4134078D02*
G01*
X10873679Y4044706D01*
X10873679Y3880078D02*
G01*
X10873679Y3790706D01*
X10873679Y3626078D02*
G01*
X10873679Y3536706D01*
X10873679Y3372078D02*
G01*
X10873679Y3282706D01*
X10873679Y3118078D02*
G01*
X10873679Y3028706D01*
X10873679Y2864078D02*
G01*
X10873679Y2835391D01*
X10233682Y4835392D02*
G01*
X10233682Y4832504D01*
X10233682Y4616277D02*
G01*
X10233682Y4552703D01*
X10233682Y4388081D02*
G01*
X10233682Y4298703D01*
X10233682Y4134081D02*
G01*
X10233682Y4044703D01*
X10233682Y3880081D02*
G01*
X10233682Y3790703D01*
X10233682Y3626081D02*
G01*
X10233682Y3536703D01*
X10233682Y3372081D02*
G01*
X10233682Y3282703D01*
X10233682Y3118081D02*
G01*
X10233682Y3028703D01*
X10233682Y2864081D02*
G01*
X10233682Y2835391D01*
X10233682Y4835392D02*
G01*
X10478678Y4835392D01*
X10873679Y4835392D02*
G01*
X10628680Y4835392D01*
X2677195Y2800497D02*
G01*
X2937195Y2800497D01*
X3057194Y2800497D02*
G01*
X3317194Y2800497D01*
X3317194Y120497D02*
G01*
X2677195Y120497D01*
X2677195Y2800497D02*
G01*
X2677195Y2701612D01*
X2677195Y2505382D02*
G01*
X2677195Y2440749D01*
X2677195Y2258245D02*
G01*
X2677195Y2186749D01*
X2677195Y2004245D02*
G01*
X2677195Y1932749D01*
X2677195Y1750245D02*
G01*
X2677195Y1678749D01*
X2677195Y1496245D02*
G01*
X2677195Y1424749D01*
X2677195Y1242245D02*
G01*
X2677195Y1170749D01*
X2677195Y988245D02*
G01*
X2677195Y916749D01*
X2677195Y734245D02*
G01*
X2677195Y662749D01*
X2677195Y480245D02*
G01*
X2677195Y409559D01*
X2677195Y225435D02*
G01*
X2677195Y120497D01*
X3317194Y2800497D02*
G01*
X3317194Y2695559D01*
X3317194Y2511435D02*
G01*
X3317194Y2441559D01*
X3317194Y2257435D02*
G01*
X3317194Y2187559D01*
X3317194Y2003435D02*
G01*
X3317194Y1933559D01*
X3317194Y1749435D02*
G01*
X3317194Y1679559D01*
X3317194Y1495435D02*
G01*
X3317194Y1425559D01*
X3317194Y1241435D02*
G01*
X3317194Y1171559D01*
X3317194Y987435D02*
G01*
X3317194Y917559D01*
X3317194Y733435D02*
G01*
X3317194Y663559D01*
X3317194Y479435D02*
G01*
X3317194Y409559D01*
X3317194Y225435D02*
G01*
X3317194Y120497D01*
X2677195Y5708792D02*
G01*
X2937195Y5708792D01*
X3057194Y5708792D02*
G01*
X3317194Y5708792D01*
X3317194Y3028792D02*
G01*
X2677195Y3028792D01*
X2677195Y5708792D02*
G01*
X2677195Y5609907D01*
X2677195Y5413677D02*
G01*
X2677195Y5349044D01*
X2677195Y5166540D02*
G01*
X2677195Y5095044D01*
X2677195Y4912540D02*
G01*
X2677195Y4841044D01*
X2677195Y4658540D02*
G01*
X2677195Y4587044D01*
X2677195Y4404540D02*
G01*
X2677195Y4333044D01*
X2677195Y4150540D02*
G01*
X2677195Y4079044D01*
X2677195Y3896540D02*
G01*
X2677195Y3825044D01*
X2677195Y3642540D02*
G01*
X2677195Y3571044D01*
X2677195Y3388540D02*
G01*
X2677195Y3317854D01*
X2677195Y3133730D02*
G01*
X2677195Y3028792D01*
X3317194Y5708792D02*
G01*
X3317194Y5603854D01*
X3317194Y5419730D02*
G01*
X3317194Y5349854D01*
X3317194Y5165730D02*
G01*
X3317194Y5095854D01*
X3317194Y4911730D02*
G01*
X3317194Y4841854D01*
X3317194Y4657730D02*
G01*
X3317194Y4587854D01*
X3317194Y4403730D02*
G01*
X3317194Y4333854D01*
X3317194Y4149730D02*
G01*
X3317194Y4079854D01*
X3317194Y3895730D02*
G01*
X3317194Y3825854D01*
X3317194Y3641730D02*
G01*
X3317194Y3571854D01*
X3317194Y3387730D02*
G01*
X3317194Y3317854D01*
X3317194Y3133730D02*
G01*
X3317194Y3028792D01*
D13*
G75*
G01*
X6424927Y2171499D02*
G02*
X6275047Y2171497I-74940J-1D01*
G75*
G01*
X7580625Y2171499D02*
G02*
X7430745Y2171497I-74940J-1D01*
D14*
G75*
G01*
X4876790Y2745991D02*
G03*
X4877044Y2745991I127J-12498D01*
D11*
G75*
G01*
X5317762Y2796355D02*
G02*
X5197818Y2796250I-59976J4634D01*
D14*
G75*
G01*
X3759192Y2745991D02*
G03*
X3759446Y2745991I127J-12498D01*
D11*
G75*
G01*
X4200164Y2796355D02*
G02*
X4080220Y2796250I-59976J4634D01*
G75*
G01*
X8533183Y4835393D02*
G02*
X8383303Y4835390I-74940J-1D01*
G75*
G01*
X9580938Y4835393D02*
G02*
X9431058Y4835390I-74940J-1D01*
G75*
G01*
X10628681Y4835393D02*
G02*
X10478800Y4835390I-74940J-1D01*
D14*
G75*
G01*
X2616195Y2745991D02*
G03*
X2616449Y2745991I127J-12498D01*
D11*
G75*
G01*
X3057167Y2796355D02*
G02*
X2937223Y2796250I-59976J4634D01*
D14*
G75*
G01*
X2616195Y5654286D02*
G03*
X2616449Y5654286I127J-12498D01*
D11*
G75*
G01*
X3057167Y5704650D02*
G02*
X2937223Y5704545I-59976J4634D01*
G75*
G01
X5960008Y2242490D02*
G03X5960008Y2242490I-10008J0D01*
G75*
G01
X7115683Y2242490D02*
G03X7115683Y2242490I-10008J0D01*
G75*
G01
X8052181Y4871390D02*
G03X8052181Y4871390I-10008J0D01*
G75*
G01
X9099956Y4871390D02*
G03X9099956Y4871390I-10008J0D01*
G75*
G01
X10147681Y4871390D02*
G03X10147681Y4871390I-10008J0D01*
X756081Y5789320D02*
G01*
X1606092Y5789320D01*
X1606092Y2939313D01*
X756081Y2939313D01*
X756081Y5789320D01*
X756107Y2881020D02*
G01*
X1606118Y2881020D01*
X1606118Y31013D01*
X756107Y31013D01*
X756107Y2881020D01*
X11179987Y5794502D02*
G01*
X12029998Y5794502D01*
X12029998Y2944495D01*
X11179987Y2944495D01*
X11179987Y5794502D01*
X11180013Y2886202D02*
G01*
X12030024Y2886202D01*
X12030024Y36195D01*
X11180013Y36195D01*
X11180013Y2886202D01*
X12151106Y1397000D02*
G01*
X12659106Y1397000D01*
X12659106Y889000D01*
X12151106Y889000D01*
X12151106Y1397000D01*
X3470376Y5809792D02*
G01*
X6320383Y5809792D01*
X6320383Y4959781D01*
X3470376Y4959781D01*
X3470376Y5809792D01*
X6378676Y5809818D02*
G01*
X9228683Y5809818D01*
X9228683Y4959807D01*
X6378676Y4959807D01*
X6378676Y5809818D01*
X8242274Y882218D02*
G01*
X11092281Y882218D01*
X11092281Y32207D01*
X8242274Y32207D01*
X8242274Y882218D01*
X9287103Y5813399D02*
G01*
X11087100Y5813399D01*
X11087100Y4963388D01*
X9287103Y4963388D01*
X9287103Y5813399D01*
M02*
