M48
METRIC,LZ,000.000
;FILE_FORMAT=3:3
;TYPE=PLATED
;Layer: PTH_Through
;EasyEDA v6.5.34, 2023-09-06 22:53:46
;8447068ee38c4666810ae06fb5c4ba43,5a6b42c53f6a479593ecc07194224c93,10
;Gerber Generator version 0.2
;Holesize 1 = 0.305 mm
T01C0.305
;Holesize 2 = 0.551 mm
T02C0.551
;Holesize 3 = 0.800 mm
T03C0.800
;Holesize 4 = 1.101 mm
T04C1.101
;Holesize 5 = 1.301 mm
T05C1.301
;Holesize 6 = 3.000 mm
T06C3.000
%
G05
G90
T01
X050800Y055880
X048260Y057277
X019685Y033401
X023368Y028575
X029210Y028575
X037084Y034925
X046990Y010160
X039370Y010160
X031750Y010160
X024130Y010160
X016510Y010160
X044450Y031750
X027686Y038481
X027686Y033655
X027686Y029845
X032766Y031115
X032766Y032385
X046957Y050800
X050800Y050800
X042418Y038481
X042418Y021590
X046990Y018551
X019685Y011430
X031496Y027305
X031496Y033655
X015875Y037846
X015875Y034925
X031496Y037846
X016699Y034925
X016764Y050800
X046990Y027305
X046990Y036195
X017780Y042037
X017780Y031115
X038354Y040259
X038354Y042037
X034290Y042037
X018542Y042799
X018542Y033655
X036797Y042799
X011938Y043434
X011938Y032385
X024097Y043434
X012700Y044069
X012700Y034925
X026637Y044069
X037719Y037084
X029464Y033655
X023241Y037084
X016699Y027305
X028194Y043434
X028194Y040259
X019177Y036449
X046990Y044069
X032766Y044069
X023368Y011430
X019304Y034544
X018669Y032512
T02
X016510Y008890
X013970Y011430
X011430Y008890
X024130Y008890
X021590Y011430
X019050Y008890
X031750Y008890
X029210Y011430
X026670Y008890
X039370Y008890
X036830Y011430
X034290Y008890
X046990Y008890
X044450Y011430
X041910Y008890
T03
X050800Y034211
X050800Y040211
X050800Y037211
X050754Y021551
X050754Y024551
X050754Y018551
T04
X048260Y055880
X048260Y053340
X045720Y053340
X045720Y055880
T05
X039337Y047843
X036797Y047843
X031717Y047843
X029177Y047843
X026637Y047843
X024097Y047843
X021557Y047843
X034257Y047843
T06
X054610Y003810
X003810Y003810
X003810Y054610
X054610Y054610
M30
