G04 Layer: BottomLayer*
G04 Panelize: , Column: 2, Row: 2, Board Size: 58.42mm x 58.42mm, Panelized Board Size: 118.84mm x 118.84mm*
G04 EasyEDA v6.5.34, 2023-09-06 22:53:46*
G04 8447068ee38c4666810ae06fb5c4ba43,5a6b42c53f6a479593ecc07194224c93,10*
G04 Gerber Generator version 0.2*
G04 Scale: 100 percent, Rotated: No, Reflected: No *
G04 Dimensions in millimeters *
G04 leading zeros omitted , absolute positions ,4 integer and 5 decimal *
%FSLAX45Y45*%
%MOMM*%

%ADD10C,0.1524*%
%ADD11C,0.2540*%
%ADD12C,0.5000*%
%ADD13C,1.0000*%
%ADD14C,5.0000*%
%ADD15C,1.8000*%
%ADD16C,1.5240*%
%ADD17C,2.0000*%
%ADD18C,0.6096*%
%ADD19C,0.0112*%

%LPD*%
G36*
X36068Y25908D02*
G01*
X32156Y26670D01*
X28905Y28905D01*
X26670Y32156D01*
X25908Y36068D01*
X25908Y5805932D01*
X26670Y5809792D01*
X28905Y5813094D01*
X32156Y5815330D01*
X36068Y5816092D01*
X2555240Y5815888D01*
X2559151Y5815076D01*
X2562402Y5812891D01*
X2564638Y5809589D01*
X2565400Y5805728D01*
X2566162Y5809589D01*
X2568397Y5812891D01*
X2571648Y5815076D01*
X2575560Y5815888D01*
X5805932Y5815584D01*
X5809843Y5814822D01*
X5813094Y5812637D01*
X5815330Y5809335D01*
X5816092Y5805424D01*
X5816092Y36068D01*
X5815330Y32156D01*
X5813094Y28905D01*
X5809843Y26670D01*
X5805932Y25908D01*
G37*

%LPC*%
G36*
X5073192Y3619195D02*
G01*
X5086807Y3619195D01*
X5100320Y3621024D01*
X5113477Y3624630D01*
X5126024Y3629964D01*
X5137759Y3636873D01*
X5148478Y3645357D01*
X5157978Y3655161D01*
X5166055Y3666134D01*
X5172608Y3678072D01*
X5177485Y3690823D01*
X5180685Y3704082D01*
X5182006Y3717645D01*
X5181549Y3731260D01*
X5179314Y3744722D01*
X5175250Y3757726D01*
X5169509Y3770122D01*
X5162194Y3781602D01*
X5153406Y3792016D01*
X5143246Y3801160D01*
X5132019Y3808882D01*
X5119878Y3815029D01*
X5106974Y3819499D01*
X5093614Y3822242D01*
X5080000Y3823157D01*
X5066385Y3822242D01*
X5053025Y3819499D01*
X5040122Y3815029D01*
X5027980Y3808882D01*
X5016754Y3801160D01*
X5006594Y3792016D01*
X4997805Y3781602D01*
X4990490Y3770122D01*
X4984750Y3757726D01*
X4980686Y3744722D01*
X4978450Y3731260D01*
X4977993Y3717645D01*
X4979314Y3704082D01*
X4982514Y3690823D01*
X4987391Y3678072D01*
X4993944Y3666134D01*
X5002022Y3655161D01*
X5011521Y3645357D01*
X5022240Y3636873D01*
X5033975Y3629964D01*
X5046522Y3624630D01*
X5059680Y3621024D01*
G37*
G36*
X368300Y105562D02*
G01*
X368300Y368300D01*
X105664Y368300D01*
X106070Y357936D01*
X108966Y334975D01*
X113792Y312369D01*
X120446Y290271D01*
X128981Y268782D01*
X139242Y248107D01*
X151180Y228295D01*
X164795Y209600D01*
X179882Y192125D01*
X196392Y175971D01*
X214172Y161239D01*
X233171Y148031D01*
X253187Y136499D01*
X274066Y126644D01*
X295757Y118618D01*
X318008Y112369D01*
X340715Y108051D01*
X363677Y105664D01*
G37*
G36*
X5473700Y105613D02*
G01*
X5489854Y106629D01*
X5512714Y109982D01*
X5535218Y115265D01*
X5557164Y122428D01*
X5578500Y131368D01*
X5598972Y142087D01*
X5618480Y154432D01*
X5636869Y168402D01*
X5654040Y183896D01*
X5669838Y200710D01*
X5684215Y218846D01*
X5697016Y238099D01*
X5708142Y258317D01*
X5717540Y279450D01*
X5725109Y301244D01*
X5730849Y323646D01*
X5734710Y346405D01*
X5736590Y368300D01*
X5473700Y368300D01*
G37*
G36*
X393700Y105613D02*
G01*
X409854Y106629D01*
X432714Y109982D01*
X455218Y115265D01*
X477164Y122428D01*
X498500Y131368D01*
X518972Y142087D01*
X538480Y154432D01*
X556869Y168402D01*
X574040Y183896D01*
X589838Y200710D01*
X604215Y218846D01*
X617016Y238099D01*
X628142Y258317D01*
X637540Y279450D01*
X645109Y301244D01*
X650849Y323646D01*
X654710Y346405D01*
X656590Y368300D01*
X393700Y368300D01*
G37*
G36*
X105664Y393700D02*
G01*
X368300Y393700D01*
X368300Y656437D01*
X363677Y656336D01*
X340715Y653948D01*
X318008Y649630D01*
X295757Y643382D01*
X274066Y635355D01*
X253187Y625500D01*
X233171Y613968D01*
X214172Y600760D01*
X196392Y586028D01*
X179882Y569874D01*
X164795Y552348D01*
X151180Y533704D01*
X139242Y513892D01*
X128981Y493217D01*
X120446Y471728D01*
X113792Y449630D01*
X108966Y427024D01*
X106070Y404063D01*
G37*
G36*
X5185664Y393700D02*
G01*
X5448300Y393700D01*
X5448300Y656437D01*
X5443677Y656336D01*
X5420715Y653948D01*
X5398008Y649630D01*
X5375757Y643382D01*
X5354066Y635355D01*
X5333187Y625500D01*
X5313172Y613968D01*
X5294172Y600760D01*
X5276392Y586028D01*
X5259882Y569874D01*
X5244795Y552348D01*
X5231180Y533704D01*
X5219242Y513892D01*
X5208981Y493217D01*
X5200446Y471728D01*
X5193792Y449630D01*
X5188966Y427024D01*
X5186070Y404063D01*
G37*
G36*
X5473700Y393700D02*
G01*
X5736590Y393700D01*
X5734710Y415594D01*
X5730849Y438353D01*
X5725109Y460756D01*
X5717540Y482549D01*
X5708142Y503682D01*
X5697016Y523900D01*
X5684215Y543153D01*
X5669838Y561289D01*
X5654040Y578104D01*
X5636869Y593598D01*
X5618480Y607568D01*
X5598972Y619912D01*
X5578500Y630631D01*
X5557164Y639572D01*
X5535218Y646734D01*
X5512714Y652018D01*
X5489854Y655370D01*
X5473700Y656386D01*
G37*
G36*
X393700Y393700D02*
G01*
X656590Y393700D01*
X654710Y415594D01*
X650849Y438353D01*
X645109Y460756D01*
X637540Y482549D01*
X628142Y503682D01*
X617016Y523900D01*
X604215Y543153D01*
X589838Y561289D01*
X574040Y578104D01*
X556869Y593598D01*
X538480Y607568D01*
X518972Y619912D01*
X498500Y630631D01*
X477164Y639572D01*
X455218Y646734D01*
X432714Y652018D01*
X409854Y655370D01*
X393700Y656386D01*
G37*
G36*
X1907895Y813155D02*
G01*
X1919427Y814527D01*
X1930654Y817575D01*
X1941271Y822350D01*
X1950974Y828649D01*
X1959660Y836371D01*
X1967077Y845362D01*
X1973021Y855319D01*
X1977339Y866089D01*
X1979980Y877417D01*
X1980895Y889000D01*
X1979980Y900582D01*
X1977339Y911910D01*
X1973021Y922680D01*
X1967077Y932637D01*
X1959660Y941628D01*
X1950974Y949350D01*
X1941271Y955649D01*
X1930654Y960424D01*
X1919427Y963472D01*
X1907895Y964844D01*
X1896313Y964387D01*
X1884883Y962152D01*
X1873961Y958240D01*
X1863750Y952703D01*
X1854504Y945642D01*
X1846478Y937260D01*
X1839772Y927760D01*
X1834642Y917346D01*
X1831136Y906271D01*
X1829358Y894791D01*
X1829358Y883208D01*
X1831136Y871728D01*
X1834642Y860653D01*
X1839772Y850239D01*
X1846478Y840740D01*
X1854504Y832358D01*
X1863750Y825296D01*
X1873961Y819759D01*
X1884883Y815848D01*
X1896313Y813612D01*
G37*
G36*
X3431895Y813155D02*
G01*
X3443427Y814527D01*
X3454654Y817575D01*
X3465271Y822350D01*
X3474974Y828649D01*
X3483660Y836371D01*
X3491077Y845362D01*
X3497021Y855319D01*
X3501339Y866089D01*
X3503980Y877417D01*
X3504895Y889000D01*
X3503980Y900582D01*
X3501339Y911910D01*
X3497021Y922680D01*
X3491077Y932637D01*
X3483660Y941628D01*
X3474974Y949350D01*
X3465271Y955649D01*
X3454654Y960424D01*
X3443427Y963472D01*
X3431895Y964844D01*
X3420313Y964387D01*
X3408883Y962152D01*
X3397961Y958240D01*
X3387750Y952703D01*
X3378504Y945642D01*
X3370478Y937260D01*
X3363772Y927760D01*
X3358642Y917346D01*
X3355136Y906271D01*
X3353358Y894791D01*
X3353358Y883208D01*
X3355136Y871728D01*
X3358642Y860653D01*
X3363772Y850239D01*
X3370478Y840740D01*
X3378504Y832358D01*
X3387750Y825296D01*
X3397961Y819759D01*
X3408883Y815848D01*
X3420313Y813612D01*
G37*
G36*
X2669895Y813155D02*
G01*
X2681427Y814527D01*
X2692654Y817575D01*
X2703271Y822350D01*
X2712974Y828649D01*
X2721660Y836371D01*
X2729077Y845362D01*
X2735021Y855319D01*
X2739339Y866089D01*
X2741980Y877417D01*
X2742895Y889000D01*
X2741980Y900582D01*
X2739339Y911910D01*
X2735021Y922680D01*
X2729077Y932637D01*
X2721660Y941628D01*
X2712974Y949350D01*
X2703271Y955649D01*
X2692654Y960424D01*
X2681427Y963472D01*
X2669895Y964844D01*
X2658313Y964387D01*
X2646883Y962152D01*
X2635961Y958240D01*
X2625750Y952703D01*
X2616504Y945642D01*
X2608478Y937260D01*
X2601772Y927760D01*
X2596642Y917346D01*
X2593136Y906271D01*
X2591358Y894791D01*
X2591358Y883208D01*
X2593136Y871728D01*
X2596642Y860653D01*
X2601772Y850239D01*
X2608478Y840740D01*
X2616504Y832358D01*
X2625750Y825296D01*
X2635961Y819759D01*
X2646883Y815848D01*
X2658313Y813612D01*
G37*
G36*
X1145895Y813155D02*
G01*
X1157427Y814527D01*
X1168654Y817575D01*
X1179271Y822350D01*
X1188974Y828649D01*
X1197660Y836371D01*
X1205077Y845362D01*
X1211021Y855319D01*
X1215339Y866089D01*
X1217980Y877417D01*
X1218895Y889000D01*
X1217980Y900582D01*
X1215339Y911910D01*
X1211021Y922680D01*
X1205077Y932637D01*
X1197660Y941628D01*
X1188974Y949350D01*
X1179271Y955649D01*
X1168654Y960424D01*
X1157427Y963472D01*
X1145895Y964844D01*
X1134313Y964387D01*
X1122883Y962152D01*
X1111961Y958240D01*
X1101750Y952703D01*
X1092504Y945642D01*
X1084478Y937260D01*
X1077772Y927760D01*
X1072642Y917346D01*
X1069136Y906271D01*
X1067358Y894791D01*
X1067358Y883208D01*
X1069136Y871728D01*
X1072642Y860653D01*
X1077772Y850239D01*
X1084478Y840740D01*
X1092504Y832358D01*
X1101750Y825296D01*
X1111961Y819759D01*
X1122883Y815848D01*
X1134313Y813612D01*
G37*
G36*
X3177895Y813155D02*
G01*
X3189427Y814527D01*
X3200654Y817575D01*
X3211271Y822350D01*
X3220974Y828649D01*
X3229660Y836371D01*
X3237077Y845362D01*
X3243021Y855319D01*
X3247339Y866089D01*
X3249980Y877417D01*
X3250895Y889000D01*
X3249980Y900582D01*
X3247339Y911910D01*
X3243021Y922680D01*
X3237077Y932637D01*
X3229660Y941628D01*
X3220974Y949350D01*
X3218230Y951128D01*
X3215792Y953414D01*
X3214166Y956360D01*
X3213608Y959662D01*
X3213608Y970991D01*
X3214370Y974902D01*
X3216605Y978204D01*
X3218180Y979779D01*
X3223818Y987806D01*
X3227933Y996746D01*
X3230473Y1006195D01*
X3231337Y1016000D01*
X3230473Y1025804D01*
X3227933Y1035253D01*
X3223818Y1044194D01*
X3218180Y1052220D01*
X3211220Y1059180D01*
X3203194Y1064818D01*
X3194253Y1068933D01*
X3184804Y1071473D01*
X3175000Y1072337D01*
X3165195Y1071473D01*
X3155746Y1068933D01*
X3146806Y1064818D01*
X3138779Y1059180D01*
X3131820Y1052220D01*
X3126181Y1044194D01*
X3122066Y1035253D01*
X3119526Y1025804D01*
X3118662Y1016000D01*
X3119526Y1006195D01*
X3122066Y996746D01*
X3126181Y987806D01*
X3131820Y979779D01*
X3133394Y978204D01*
X3135630Y974902D01*
X3136392Y970991D01*
X3136392Y959713D01*
X3135934Y956665D01*
X3134563Y953871D01*
X3132378Y951636D01*
X3124504Y945642D01*
X3116478Y937260D01*
X3109772Y927760D01*
X3104642Y917346D01*
X3101136Y906271D01*
X3099358Y894791D01*
X3099358Y883208D01*
X3101136Y871728D01*
X3104642Y860653D01*
X3109772Y850239D01*
X3116478Y840740D01*
X3124504Y832358D01*
X3133750Y825296D01*
X3143961Y819759D01*
X3154883Y815848D01*
X3166313Y813612D01*
G37*
G36*
X2415895Y813155D02*
G01*
X2427427Y814527D01*
X2438654Y817575D01*
X2449271Y822350D01*
X2458974Y828649D01*
X2467660Y836371D01*
X2475077Y845362D01*
X2481021Y855319D01*
X2485339Y866089D01*
X2487980Y877417D01*
X2488895Y889000D01*
X2487980Y900582D01*
X2485339Y911910D01*
X2481021Y922680D01*
X2475077Y932637D01*
X2467660Y941628D01*
X2458974Y949350D01*
X2456230Y951128D01*
X2453792Y953414D01*
X2452166Y956360D01*
X2451608Y959662D01*
X2451608Y970991D01*
X2452370Y974902D01*
X2454605Y978204D01*
X2456180Y979779D01*
X2461818Y987806D01*
X2465933Y996746D01*
X2468473Y1006195D01*
X2469337Y1016000D01*
X2468473Y1025804D01*
X2465933Y1035253D01*
X2461818Y1044194D01*
X2456180Y1052220D01*
X2449220Y1059180D01*
X2441194Y1064818D01*
X2432253Y1068933D01*
X2422804Y1071473D01*
X2413000Y1072337D01*
X2403195Y1071473D01*
X2393746Y1068933D01*
X2384806Y1064818D01*
X2376779Y1059180D01*
X2369820Y1052220D01*
X2364181Y1044194D01*
X2360066Y1035253D01*
X2357526Y1025804D01*
X2356662Y1016000D01*
X2357526Y1006195D01*
X2360066Y996746D01*
X2364181Y987806D01*
X2369820Y979779D01*
X2371394Y978204D01*
X2373630Y974902D01*
X2374392Y970991D01*
X2374392Y959713D01*
X2373934Y956665D01*
X2372563Y953871D01*
X2370378Y951636D01*
X2362504Y945642D01*
X2354478Y937260D01*
X2347772Y927760D01*
X2342642Y917346D01*
X2339136Y906271D01*
X2337358Y894791D01*
X2337358Y883208D01*
X2339136Y871728D01*
X2342642Y860653D01*
X2347772Y850239D01*
X2354478Y840740D01*
X2362504Y832358D01*
X2371750Y825296D01*
X2381961Y819759D01*
X2392883Y815848D01*
X2404313Y813612D01*
G37*
G36*
X3939895Y813155D02*
G01*
X3951427Y814527D01*
X3962654Y817575D01*
X3973271Y822350D01*
X3982974Y828649D01*
X3991660Y836371D01*
X3999077Y845362D01*
X4005021Y855319D01*
X4009339Y866089D01*
X4011980Y877417D01*
X4012895Y889000D01*
X4011980Y900582D01*
X4009339Y911910D01*
X4005021Y922680D01*
X3999077Y932637D01*
X3991660Y941628D01*
X3982974Y949350D01*
X3980230Y951128D01*
X3977792Y953414D01*
X3976166Y956360D01*
X3975608Y959662D01*
X3975608Y970991D01*
X3976370Y974902D01*
X3978605Y978204D01*
X3980179Y979779D01*
X3985818Y987806D01*
X3989933Y996746D01*
X3992473Y1006195D01*
X3993337Y1016000D01*
X3992473Y1025804D01*
X3989933Y1035253D01*
X3985818Y1044194D01*
X3980179Y1052220D01*
X3973220Y1059180D01*
X3965194Y1064818D01*
X3956253Y1068933D01*
X3946804Y1071473D01*
X3937000Y1072337D01*
X3927195Y1071473D01*
X3917746Y1068933D01*
X3908806Y1064818D01*
X3900779Y1059180D01*
X3893820Y1052220D01*
X3888181Y1044194D01*
X3884066Y1035253D01*
X3881526Y1025804D01*
X3880662Y1016000D01*
X3881526Y1006195D01*
X3884066Y996746D01*
X3888181Y987806D01*
X3893820Y979779D01*
X3895394Y978204D01*
X3897629Y974902D01*
X3898392Y970991D01*
X3898392Y959713D01*
X3897934Y956665D01*
X3896563Y953871D01*
X3894378Y951636D01*
X3886504Y945642D01*
X3878478Y937260D01*
X3871772Y927760D01*
X3866642Y917346D01*
X3863136Y906271D01*
X3861358Y894791D01*
X3861358Y883208D01*
X3863136Y871728D01*
X3866642Y860653D01*
X3871772Y850239D01*
X3878478Y840740D01*
X3886504Y832358D01*
X3895750Y825296D01*
X3905961Y819759D01*
X3916883Y815848D01*
X3928313Y813612D01*
G37*
G36*
X1653895Y813155D02*
G01*
X1665427Y814527D01*
X1676654Y817575D01*
X1687271Y822350D01*
X1696974Y828649D01*
X1705660Y836371D01*
X1713077Y845362D01*
X1719021Y855319D01*
X1723339Y866089D01*
X1725980Y877417D01*
X1726895Y889000D01*
X1725980Y900582D01*
X1723339Y911910D01*
X1719021Y922680D01*
X1713077Y932637D01*
X1705660Y941628D01*
X1696974Y949350D01*
X1694230Y951128D01*
X1691741Y953414D01*
X1690166Y956360D01*
X1689607Y959662D01*
X1689607Y970991D01*
X1690370Y974902D01*
X1692605Y978204D01*
X1694180Y979779D01*
X1699818Y987806D01*
X1703933Y996746D01*
X1706473Y1006195D01*
X1707337Y1016000D01*
X1706473Y1025804D01*
X1703933Y1035253D01*
X1699818Y1044194D01*
X1694180Y1052220D01*
X1687220Y1059180D01*
X1679193Y1064818D01*
X1670253Y1068933D01*
X1660804Y1071473D01*
X1651000Y1072337D01*
X1641195Y1071473D01*
X1631746Y1068933D01*
X1622806Y1064818D01*
X1614779Y1059180D01*
X1607820Y1052220D01*
X1602181Y1044194D01*
X1598066Y1035253D01*
X1595526Y1025804D01*
X1594662Y1016000D01*
X1595526Y1006195D01*
X1598066Y996746D01*
X1602181Y987806D01*
X1607820Y979779D01*
X1609394Y978204D01*
X1611630Y974902D01*
X1612392Y970991D01*
X1612392Y959713D01*
X1611934Y956665D01*
X1610563Y953871D01*
X1608378Y951636D01*
X1600504Y945642D01*
X1592478Y937260D01*
X1585772Y927760D01*
X1580642Y917346D01*
X1577136Y906271D01*
X1575358Y894791D01*
X1575358Y883208D01*
X1577136Y871728D01*
X1580642Y860653D01*
X1585772Y850239D01*
X1592478Y840740D01*
X1600504Y832358D01*
X1609750Y825296D01*
X1619961Y819759D01*
X1630883Y815848D01*
X1642313Y813612D01*
G37*
G36*
X4701895Y813155D02*
G01*
X4713427Y814527D01*
X4724654Y817575D01*
X4735271Y822350D01*
X4744974Y828649D01*
X4753660Y836371D01*
X4761077Y845362D01*
X4767021Y855319D01*
X4771339Y866089D01*
X4773980Y877417D01*
X4774895Y889000D01*
X4773980Y900582D01*
X4771339Y911910D01*
X4767021Y922680D01*
X4761077Y932637D01*
X4753660Y941628D01*
X4744974Y949350D01*
X4742230Y951128D01*
X4739792Y953414D01*
X4738166Y956360D01*
X4737608Y959662D01*
X4737608Y970991D01*
X4738370Y974902D01*
X4740605Y978204D01*
X4742180Y979779D01*
X4747818Y987806D01*
X4751933Y996746D01*
X4754473Y1006195D01*
X4755337Y1016000D01*
X4754473Y1025804D01*
X4751933Y1035253D01*
X4750866Y1037590D01*
X4749901Y1041908D01*
X4749901Y1829257D01*
X4750866Y1833524D01*
X4751933Y1835861D01*
X4754473Y1845360D01*
X4755337Y1855114D01*
X4754473Y1864918D01*
X4751933Y1874418D01*
X4750866Y1876755D01*
X4749901Y1881022D01*
X4749901Y2704592D01*
X4750866Y2708910D01*
X4751933Y2711246D01*
X4754473Y2720695D01*
X4755337Y2730500D01*
X4754473Y2740304D01*
X4751933Y2749753D01*
X4750866Y2752090D01*
X4749901Y2756408D01*
X4749901Y3593592D01*
X4750866Y3597910D01*
X4751933Y3600246D01*
X4754473Y3609695D01*
X4755337Y3619500D01*
X4754473Y3629304D01*
X4751933Y3638753D01*
X4750866Y3641140D01*
X4749901Y3645408D01*
X4749901Y4380992D01*
X4750866Y4385310D01*
X4751933Y4387646D01*
X4754473Y4397095D01*
X4755337Y4406900D01*
X4754473Y4416704D01*
X4751933Y4426153D01*
X4750866Y4428490D01*
X4749901Y4432808D01*
X4749901Y5064048D01*
X4751222Y5070195D01*
X4752035Y5080000D01*
X4751222Y5089804D01*
X4748682Y5099253D01*
X4744516Y5108194D01*
X4738878Y5116220D01*
X4731918Y5123180D01*
X4723892Y5128818D01*
X4715002Y5132933D01*
X4705502Y5135473D01*
X4695698Y5136337D01*
X4685944Y5135473D01*
X4676444Y5132933D01*
X4667554Y5128818D01*
X4659477Y5123180D01*
X4652518Y5116220D01*
X4646930Y5108194D01*
X4642764Y5099253D01*
X4640224Y5089804D01*
X4639360Y5080000D01*
X4640224Y5070195D01*
X4642764Y5060746D01*
X4647133Y5051348D01*
X4648098Y5047030D01*
X4648098Y4432808D01*
X4647133Y4428490D01*
X4646066Y4426153D01*
X4643526Y4416704D01*
X4642662Y4406900D01*
X4643526Y4397095D01*
X4646066Y4387646D01*
X4647133Y4385310D01*
X4648098Y4380992D01*
X4648098Y3645408D01*
X4647133Y3641140D01*
X4646066Y3638753D01*
X4643526Y3629304D01*
X4642662Y3619500D01*
X4643526Y3609695D01*
X4646066Y3600246D01*
X4647133Y3597910D01*
X4648098Y3593592D01*
X4648098Y2756408D01*
X4647133Y2752090D01*
X4646066Y2749753D01*
X4643526Y2740304D01*
X4642662Y2730500D01*
X4643526Y2720695D01*
X4646066Y2711246D01*
X4647133Y2708910D01*
X4648098Y2704592D01*
X4648098Y1881022D01*
X4647133Y1876755D01*
X4646066Y1874418D01*
X4643526Y1864918D01*
X4642662Y1855114D01*
X4643526Y1845360D01*
X4646066Y1835861D01*
X4647133Y1833524D01*
X4648098Y1829257D01*
X4648098Y1041908D01*
X4647133Y1037590D01*
X4646066Y1035253D01*
X4643526Y1025804D01*
X4642662Y1016000D01*
X4643526Y1006195D01*
X4646066Y996746D01*
X4650181Y987806D01*
X4655820Y979779D01*
X4657394Y978204D01*
X4659630Y974902D01*
X4660392Y970991D01*
X4660392Y959713D01*
X4659934Y956665D01*
X4658563Y953871D01*
X4656378Y951636D01*
X4648504Y945642D01*
X4640478Y937260D01*
X4633772Y927760D01*
X4628642Y917346D01*
X4625136Y906271D01*
X4623358Y894791D01*
X4623358Y883208D01*
X4625136Y871728D01*
X4628642Y860653D01*
X4633772Y850239D01*
X4640478Y840740D01*
X4648504Y832358D01*
X4657750Y825296D01*
X4667961Y819759D01*
X4678883Y815848D01*
X4690313Y813612D01*
G37*
G36*
X4203700Y814324D02*
G01*
X4205427Y814527D01*
X4216654Y817575D01*
X4227271Y822350D01*
X4236974Y828649D01*
X4245660Y836371D01*
X4253077Y845362D01*
X4259021Y855319D01*
X4263339Y866089D01*
X4265726Y876300D01*
X4203700Y876300D01*
G37*
G36*
X4178300Y814374D02*
G01*
X4178300Y876300D01*
X4116425Y876300D01*
X4117136Y871728D01*
X4120642Y860653D01*
X4125772Y850239D01*
X4132478Y840740D01*
X4140504Y832358D01*
X4149750Y825296D01*
X4159961Y819759D01*
X4170883Y815848D01*
G37*
G36*
X4116425Y901700D02*
G01*
X4178300Y901700D01*
X4178300Y963625D01*
X4170883Y962152D01*
X4159961Y958240D01*
X4149750Y952703D01*
X4140504Y945642D01*
X4132478Y937260D01*
X4125772Y927760D01*
X4120642Y917346D01*
X4117136Y906271D01*
G37*
G36*
X4203700Y901700D02*
G01*
X4265726Y901700D01*
X4263339Y911910D01*
X4259021Y922680D01*
X4253077Y932637D01*
X4245660Y941628D01*
X4236974Y949350D01*
X4227271Y955649D01*
X4216654Y960424D01*
X4205427Y963472D01*
X4203700Y963676D01*
G37*
G36*
X2161895Y1067155D02*
G01*
X2173427Y1068527D01*
X2184654Y1071575D01*
X2195271Y1076350D01*
X2204974Y1082649D01*
X2213660Y1090371D01*
X2221077Y1099362D01*
X2227021Y1109319D01*
X2231339Y1120089D01*
X2233980Y1131417D01*
X2234895Y1143000D01*
X2233980Y1154582D01*
X2231339Y1165910D01*
X2227021Y1176680D01*
X2221077Y1186637D01*
X2213660Y1195628D01*
X2204974Y1203350D01*
X2195271Y1209649D01*
X2184654Y1214424D01*
X2173427Y1217472D01*
X2161895Y1218844D01*
X2150313Y1218387D01*
X2138883Y1216152D01*
X2127961Y1212240D01*
X2117750Y1206703D01*
X2108504Y1199642D01*
X2100478Y1191260D01*
X2093772Y1181760D01*
X2088642Y1171346D01*
X2085136Y1160272D01*
X2083358Y1148791D01*
X2083358Y1137208D01*
X2085136Y1125728D01*
X2088642Y1114653D01*
X2093772Y1104239D01*
X2100478Y1094740D01*
X2108504Y1086358D01*
X2117750Y1079296D01*
X2127961Y1073759D01*
X2138883Y1069848D01*
X2150313Y1067612D01*
G37*
G36*
X1399895Y1067155D02*
G01*
X1411427Y1068527D01*
X1422654Y1071575D01*
X1433271Y1076350D01*
X1442974Y1082649D01*
X1451660Y1090371D01*
X1459077Y1099362D01*
X1465021Y1109319D01*
X1469339Y1120089D01*
X1471980Y1131417D01*
X1472895Y1143000D01*
X1471980Y1154582D01*
X1469339Y1165910D01*
X1465021Y1176680D01*
X1459077Y1186637D01*
X1451660Y1195628D01*
X1442974Y1203350D01*
X1433271Y1209649D01*
X1422654Y1214424D01*
X1411427Y1217472D01*
X1399895Y1218844D01*
X1388313Y1218387D01*
X1376883Y1216152D01*
X1365961Y1212240D01*
X1355750Y1206703D01*
X1346504Y1199642D01*
X1338478Y1191260D01*
X1331772Y1181760D01*
X1326642Y1171346D01*
X1323136Y1160272D01*
X1321358Y1148791D01*
X1321358Y1137208D01*
X1323136Y1125728D01*
X1326642Y1114653D01*
X1331772Y1104239D01*
X1338478Y1094740D01*
X1346504Y1086358D01*
X1355750Y1079296D01*
X1365961Y1073759D01*
X1376883Y1069848D01*
X1388313Y1067612D01*
G37*
G36*
X2923895Y1067155D02*
G01*
X2935427Y1068527D01*
X2946654Y1071575D01*
X2957271Y1076350D01*
X2966974Y1082649D01*
X2975660Y1090371D01*
X2983077Y1099362D01*
X2989021Y1109319D01*
X2993339Y1120089D01*
X2995980Y1131417D01*
X2996895Y1143000D01*
X2995980Y1154582D01*
X2993339Y1165910D01*
X2989021Y1176680D01*
X2983077Y1186637D01*
X2975660Y1195628D01*
X2966974Y1203350D01*
X2964230Y1205128D01*
X2961792Y1207414D01*
X2960166Y1210360D01*
X2959608Y1213662D01*
X2959608Y2812491D01*
X2960370Y2816402D01*
X2962605Y2819704D01*
X2964180Y2821279D01*
X2969818Y2829306D01*
X2973933Y2838246D01*
X2976473Y2847695D01*
X2977337Y2857500D01*
X2976473Y2867304D01*
X2973933Y2876753D01*
X2969818Y2885694D01*
X2964180Y2893720D01*
X2957220Y2900680D01*
X2949194Y2906318D01*
X2940253Y2910433D01*
X2930804Y2912973D01*
X2921000Y2913837D01*
X2911195Y2912973D01*
X2901746Y2910433D01*
X2892806Y2906318D01*
X2884779Y2900680D01*
X2877820Y2893720D01*
X2872181Y2885694D01*
X2868066Y2876753D01*
X2865526Y2867304D01*
X2864662Y2857500D01*
X2865526Y2847695D01*
X2868066Y2838246D01*
X2872181Y2829306D01*
X2877820Y2821279D01*
X2879394Y2819704D01*
X2881630Y2816402D01*
X2882392Y2812491D01*
X2882392Y1213713D01*
X2881934Y1210665D01*
X2880563Y1207871D01*
X2878378Y1205636D01*
X2870504Y1199642D01*
X2862478Y1191260D01*
X2855772Y1181760D01*
X2850642Y1171346D01*
X2847136Y1160272D01*
X2845358Y1148791D01*
X2845358Y1137208D01*
X2847136Y1125728D01*
X2850642Y1114653D01*
X2855772Y1104239D01*
X2862478Y1094740D01*
X2870504Y1086358D01*
X2879750Y1079296D01*
X2889961Y1073759D01*
X2900883Y1069848D01*
X2912313Y1067612D01*
G37*
G36*
X4447895Y1067155D02*
G01*
X4459427Y1068527D01*
X4470654Y1071575D01*
X4481271Y1076350D01*
X4490974Y1082649D01*
X4499660Y1090371D01*
X4507077Y1099362D01*
X4513021Y1109319D01*
X4517339Y1120089D01*
X4519980Y1131417D01*
X4520895Y1143000D01*
X4519980Y1154582D01*
X4517339Y1165910D01*
X4513021Y1176680D01*
X4507077Y1186637D01*
X4499660Y1195628D01*
X4490974Y1203350D01*
X4488230Y1205128D01*
X4485792Y1207414D01*
X4484166Y1210360D01*
X4483608Y1213662D01*
X4483608Y3129991D01*
X4484370Y3133902D01*
X4486605Y3137204D01*
X4488180Y3138779D01*
X4493818Y3146806D01*
X4497933Y3155746D01*
X4500473Y3165195D01*
X4501337Y3175000D01*
X4500473Y3184804D01*
X4497933Y3194253D01*
X4493818Y3203194D01*
X4488180Y3211220D01*
X4481220Y3218180D01*
X4473194Y3223818D01*
X4464253Y3227933D01*
X4454804Y3230473D01*
X4445000Y3231337D01*
X4435195Y3230473D01*
X4425746Y3227933D01*
X4416806Y3223818D01*
X4408779Y3218180D01*
X4401820Y3211220D01*
X4396181Y3203194D01*
X4392066Y3194253D01*
X4389526Y3184804D01*
X4388662Y3175000D01*
X4389526Y3165195D01*
X4392066Y3155746D01*
X4396181Y3146806D01*
X4401820Y3138779D01*
X4403394Y3137204D01*
X4405630Y3133902D01*
X4406392Y3129991D01*
X4406392Y1213713D01*
X4405934Y1210665D01*
X4404563Y1207871D01*
X4402378Y1205636D01*
X4394504Y1199642D01*
X4386478Y1191260D01*
X4379772Y1181760D01*
X4374642Y1171346D01*
X4371136Y1160272D01*
X4369358Y1148791D01*
X4369358Y1137208D01*
X4371136Y1125728D01*
X4374642Y1114653D01*
X4379772Y1104239D01*
X4386478Y1094740D01*
X4394504Y1086358D01*
X4403750Y1079296D01*
X4413961Y1073759D01*
X4424883Y1069848D01*
X4436313Y1067612D01*
G37*
G36*
X3685895Y1067155D02*
G01*
X3697427Y1068527D01*
X3708654Y1071575D01*
X3719271Y1076350D01*
X3728974Y1082649D01*
X3737660Y1090371D01*
X3745077Y1099362D01*
X3751021Y1109319D01*
X3755339Y1120089D01*
X3757980Y1131417D01*
X3758895Y1143000D01*
X3757980Y1154582D01*
X3755339Y1165910D01*
X3751021Y1176680D01*
X3748430Y1180998D01*
X3747363Y1183487D01*
X3747008Y1186180D01*
X3747008Y3447491D01*
X3747770Y3451402D01*
X3750005Y3454704D01*
X3751579Y3456279D01*
X3757218Y3464306D01*
X3761333Y3473246D01*
X3763873Y3482695D01*
X3764737Y3492500D01*
X3763873Y3502304D01*
X3761333Y3511753D01*
X3757218Y3520694D01*
X3751579Y3528720D01*
X3744620Y3535679D01*
X3736594Y3541318D01*
X3727653Y3545433D01*
X3718204Y3547973D01*
X3708400Y3548837D01*
X3698595Y3547973D01*
X3689146Y3545433D01*
X3680206Y3541318D01*
X3672179Y3535679D01*
X3665220Y3528720D01*
X3659581Y3520694D01*
X3655466Y3511753D01*
X3652926Y3502304D01*
X3652062Y3492500D01*
X3652926Y3482695D01*
X3655466Y3473246D01*
X3659581Y3464306D01*
X3665220Y3456279D01*
X3666794Y3454704D01*
X3669029Y3451402D01*
X3669792Y3447491D01*
X3669792Y1225804D01*
X3668979Y1221740D01*
X3666591Y1218387D01*
X3663086Y1216202D01*
X3651961Y1212240D01*
X3641750Y1206703D01*
X3632504Y1199642D01*
X3624478Y1191260D01*
X3617772Y1181760D01*
X3612642Y1171346D01*
X3609136Y1160272D01*
X3607358Y1148791D01*
X3607358Y1137208D01*
X3609136Y1125728D01*
X3612642Y1114653D01*
X3617772Y1104239D01*
X3624478Y1094740D01*
X3632504Y1086358D01*
X3641750Y1079296D01*
X3651961Y1073759D01*
X3662883Y1069848D01*
X3674313Y1067612D01*
G37*
G36*
X2336800Y1086662D02*
G01*
X2346604Y1087526D01*
X2356053Y1090066D01*
X2364994Y1094181D01*
X2373020Y1099820D01*
X2379980Y1106779D01*
X2385618Y1114806D01*
X2389733Y1123746D01*
X2392273Y1133195D01*
X2393137Y1143000D01*
X2392273Y1152804D01*
X2389733Y1162253D01*
X2385618Y1171194D01*
X2379980Y1179220D01*
X2378405Y1180795D01*
X2376170Y1184097D01*
X2375408Y1188008D01*
X2375408Y2812491D01*
X2376170Y2816402D01*
X2378405Y2819704D01*
X2379980Y2821279D01*
X2385618Y2829306D01*
X2389733Y2838246D01*
X2392273Y2847695D01*
X2393137Y2857500D01*
X2392273Y2867304D01*
X2389733Y2876753D01*
X2385618Y2885694D01*
X2379980Y2893720D01*
X2373020Y2900680D01*
X2364994Y2906318D01*
X2356053Y2910433D01*
X2346604Y2912973D01*
X2336800Y2913837D01*
X2326995Y2912973D01*
X2317546Y2910433D01*
X2308606Y2906318D01*
X2300579Y2900680D01*
X2293620Y2893720D01*
X2287981Y2885694D01*
X2283866Y2876753D01*
X2281326Y2867304D01*
X2280462Y2857500D01*
X2281326Y2847695D01*
X2283866Y2838246D01*
X2287981Y2829306D01*
X2293620Y2821279D01*
X2295194Y2819704D01*
X2297430Y2816402D01*
X2298192Y2812491D01*
X2298192Y1188008D01*
X2297430Y1184097D01*
X2295194Y1180795D01*
X2293620Y1179220D01*
X2287981Y1171194D01*
X2283866Y1162253D01*
X2281326Y1152804D01*
X2280462Y1143000D01*
X2281326Y1133195D01*
X2283866Y1123746D01*
X2287981Y1114806D01*
X2293620Y1106779D01*
X2300579Y1099820D01*
X2308606Y1094181D01*
X2317546Y1090066D01*
X2326995Y1087526D01*
G37*
G36*
X1968500Y1086662D02*
G01*
X1978304Y1087526D01*
X1987753Y1090066D01*
X1996693Y1094181D01*
X2004720Y1099820D01*
X2011680Y1106779D01*
X2017318Y1114806D01*
X2021433Y1123746D01*
X2023973Y1133195D01*
X2024837Y1143000D01*
X2023973Y1152804D01*
X2021433Y1162253D01*
X2017318Y1171194D01*
X2011680Y1179220D01*
X2010105Y1180795D01*
X2007870Y1184097D01*
X2007107Y1188008D01*
X2007107Y3295091D01*
X2007870Y3299002D01*
X2010105Y3302304D01*
X2011680Y3303879D01*
X2017318Y3311906D01*
X2021433Y3320846D01*
X2023973Y3330295D01*
X2024837Y3340100D01*
X2023973Y3349904D01*
X2021433Y3359353D01*
X2017318Y3368294D01*
X2011680Y3376320D01*
X2004720Y3383279D01*
X1996693Y3388918D01*
X1987753Y3393033D01*
X1978304Y3395573D01*
X1968500Y3396437D01*
X1958695Y3395573D01*
X1949246Y3393033D01*
X1940306Y3388918D01*
X1932279Y3383279D01*
X1925218Y3376218D01*
X1921662Y3373932D01*
X1917496Y3373272D01*
X1913432Y3374339D01*
X1910130Y3376980D01*
X1908200Y3380740D01*
X1907133Y3384753D01*
X1903018Y3393694D01*
X1897380Y3401720D01*
X1895805Y3403295D01*
X1893570Y3406597D01*
X1892807Y3410508D01*
X1892807Y4234891D01*
X1893570Y4238802D01*
X1895805Y4242104D01*
X1897380Y4243679D01*
X1903018Y4251706D01*
X1907133Y4260646D01*
X1909673Y4270095D01*
X1910537Y4279900D01*
X1909673Y4289704D01*
X1907133Y4299153D01*
X1903018Y4308094D01*
X1897380Y4316120D01*
X1890420Y4323080D01*
X1882393Y4328718D01*
X1873453Y4332833D01*
X1864004Y4335373D01*
X1854200Y4336237D01*
X1844395Y4335373D01*
X1834946Y4332833D01*
X1826006Y4328718D01*
X1817979Y4323080D01*
X1811020Y4316120D01*
X1805381Y4308094D01*
X1801266Y4299153D01*
X1798726Y4289704D01*
X1797862Y4279900D01*
X1798675Y4270197D01*
X1798116Y4265828D01*
X1795780Y4262120D01*
X1792071Y4259783D01*
X1787702Y4259224D01*
X1778000Y4260037D01*
X1768195Y4259173D01*
X1758746Y4256633D01*
X1749806Y4252518D01*
X1741779Y4246880D01*
X1734820Y4239920D01*
X1729181Y4231894D01*
X1727860Y4229049D01*
X1725574Y4225899D01*
X1722272Y4223816D01*
X1718411Y4223156D01*
X1714601Y4224020D01*
X1711401Y4226204D01*
X1709267Y4229506D01*
X1708505Y4233316D01*
X1708505Y4387494D01*
X1707692Y4395520D01*
X1705508Y4402734D01*
X1701952Y4409440D01*
X1696821Y4415637D01*
X1641805Y4470704D01*
X1639570Y4474006D01*
X1638807Y4477918D01*
X1638807Y4615281D01*
X1639570Y4619193D01*
X1641805Y4622495D01*
X1703324Y4684064D01*
X1708454Y4690262D01*
X1712010Y4696968D01*
X1714195Y4704181D01*
X1715007Y4712208D01*
X1715007Y5034991D01*
X1715770Y5038902D01*
X1718005Y5042204D01*
X1719580Y5043779D01*
X1725218Y5051806D01*
X1729333Y5060746D01*
X1731873Y5070195D01*
X1732737Y5080000D01*
X1731873Y5089804D01*
X1729333Y5099253D01*
X1725218Y5108194D01*
X1719580Y5116220D01*
X1712620Y5123180D01*
X1704593Y5128818D01*
X1695653Y5132933D01*
X1686204Y5135473D01*
X1676400Y5136337D01*
X1666595Y5135473D01*
X1657146Y5132933D01*
X1648206Y5128818D01*
X1640179Y5123180D01*
X1633220Y5116220D01*
X1627581Y5108194D01*
X1623466Y5099253D01*
X1620926Y5089804D01*
X1620062Y5080000D01*
X1620926Y5070195D01*
X1623466Y5060746D01*
X1627581Y5051806D01*
X1633220Y5043779D01*
X1634794Y5042204D01*
X1637030Y5038902D01*
X1637792Y5034991D01*
X1637792Y4731918D01*
X1637030Y4728006D01*
X1634794Y4724704D01*
X1573276Y4663135D01*
X1568145Y4656937D01*
X1564589Y4650232D01*
X1562404Y4643018D01*
X1561592Y4634992D01*
X1561592Y4458208D01*
X1562404Y4450181D01*
X1564589Y4442968D01*
X1568145Y4436262D01*
X1573276Y4430064D01*
X1628292Y4374997D01*
X1630527Y4371695D01*
X1631289Y4367784D01*
X1631289Y3842004D01*
X1630476Y3837990D01*
X1628190Y3834637D01*
X1624736Y3832504D01*
X1620723Y3831844D01*
X1616760Y3832809D01*
X1606753Y3837584D01*
X1597304Y3840073D01*
X1587500Y3840937D01*
X1577695Y3840073D01*
X1568246Y3837533D01*
X1559306Y3833418D01*
X1551279Y3827779D01*
X1544320Y3820820D01*
X1538681Y3812794D01*
X1534566Y3803853D01*
X1532026Y3794404D01*
X1531162Y3784600D01*
X1532026Y3774795D01*
X1534566Y3765346D01*
X1538681Y3756406D01*
X1544320Y3748379D01*
X1545894Y3746804D01*
X1548130Y3743502D01*
X1548892Y3739591D01*
X1548892Y3537508D01*
X1548130Y3533597D01*
X1545894Y3530295D01*
X1544320Y3528720D01*
X1538681Y3520694D01*
X1534566Y3511753D01*
X1532026Y3502304D01*
X1531162Y3492500D01*
X1532026Y3482695D01*
X1534566Y3473246D01*
X1538681Y3464306D01*
X1544320Y3456279D01*
X1551279Y3449320D01*
X1559306Y3443681D01*
X1568246Y3439566D01*
X1577695Y3437026D01*
X1587500Y3436162D01*
X1597304Y3437026D01*
X1606753Y3439566D01*
X1616760Y3444290D01*
X1620723Y3445256D01*
X1624736Y3444595D01*
X1628190Y3442462D01*
X1630476Y3439109D01*
X1631289Y3435096D01*
X1631289Y2775508D01*
X1630527Y2771597D01*
X1628292Y2768295D01*
X1626717Y2766720D01*
X1621078Y2758694D01*
X1616964Y2749753D01*
X1614424Y2740304D01*
X1613560Y2730500D01*
X1614424Y2720695D01*
X1616964Y2711246D01*
X1621078Y2702306D01*
X1626717Y2694279D01*
X1633677Y2687320D01*
X1641703Y2681681D01*
X1650644Y2677566D01*
X1660093Y2675026D01*
X1669897Y2674162D01*
X1679702Y2675026D01*
X1689150Y2677566D01*
X1698091Y2681681D01*
X1706118Y2687320D01*
X1713077Y2694279D01*
X1718716Y2702306D01*
X1722831Y2711246D01*
X1725371Y2720695D01*
X1726234Y2730500D01*
X1725371Y2740304D01*
X1722831Y2749753D01*
X1718716Y2758694D01*
X1713077Y2766720D01*
X1711502Y2768295D01*
X1709267Y2771597D01*
X1708505Y2775508D01*
X1708505Y3081883D01*
X1709267Y3085693D01*
X1711401Y3088944D01*
X1714601Y3091180D01*
X1718411Y3092043D01*
X1722272Y3091383D01*
X1725574Y3089300D01*
X1727860Y3086150D01*
X1729181Y3083306D01*
X1734820Y3075279D01*
X1741779Y3068320D01*
X1749806Y3062681D01*
X1758746Y3058566D01*
X1768195Y3056026D01*
X1778000Y3055162D01*
X1787804Y3056026D01*
X1797253Y3058566D01*
X1806193Y3062681D01*
X1814220Y3068320D01*
X1821180Y3075279D01*
X1826818Y3083306D01*
X1830933Y3092246D01*
X1833473Y3101695D01*
X1834337Y3111500D01*
X1833473Y3121304D01*
X1830933Y3130753D01*
X1826818Y3139694D01*
X1821180Y3147720D01*
X1819605Y3149295D01*
X1817370Y3152597D01*
X1816607Y3156508D01*
X1816607Y3305149D01*
X1817420Y3309112D01*
X1819706Y3312464D01*
X1823110Y3314649D01*
X1827123Y3315309D01*
X1831086Y3314344D01*
X1834946Y3312566D01*
X1844395Y3310026D01*
X1854200Y3309162D01*
X1864004Y3310026D01*
X1873453Y3312566D01*
X1882393Y3316681D01*
X1890420Y3322320D01*
X1897481Y3329381D01*
X1901037Y3331667D01*
X1905203Y3332327D01*
X1909267Y3331260D01*
X1912569Y3328619D01*
X1914499Y3324860D01*
X1915566Y3320846D01*
X1919681Y3311906D01*
X1925320Y3303879D01*
X1926894Y3302304D01*
X1929130Y3299002D01*
X1929892Y3295091D01*
X1929892Y1188008D01*
X1929130Y1184097D01*
X1926894Y1180795D01*
X1925320Y1179220D01*
X1919681Y1171194D01*
X1915566Y1162253D01*
X1913026Y1152804D01*
X1912162Y1143000D01*
X1913026Y1133195D01*
X1915566Y1123746D01*
X1919681Y1114806D01*
X1925320Y1106779D01*
X1932279Y1099820D01*
X1940306Y1094181D01*
X1949246Y1090066D01*
X1958695Y1087526D01*
G37*
G36*
X5068620Y1753260D02*
G01*
X5082235Y1753260D01*
X5095748Y1755038D01*
X5108905Y1758645D01*
X5121452Y1763979D01*
X5133187Y1770938D01*
X5143906Y1779371D01*
X5153406Y1789175D01*
X5161483Y1800148D01*
X5168036Y1812137D01*
X5172913Y1824837D01*
X5176113Y1838096D01*
X5177434Y1851710D01*
X5176977Y1865325D01*
X5174742Y1878787D01*
X5170678Y1891792D01*
X5164937Y1904187D01*
X5157622Y1915668D01*
X5148834Y1926082D01*
X5138674Y1935225D01*
X5127447Y1942947D01*
X5115306Y1949094D01*
X5102402Y1953564D01*
X5089042Y1956257D01*
X5075428Y1957171D01*
X5061813Y1956257D01*
X5048453Y1953564D01*
X5035550Y1949094D01*
X5023408Y1942947D01*
X5012182Y1935225D01*
X5002022Y1926082D01*
X4993233Y1915668D01*
X4985918Y1904187D01*
X4980178Y1891792D01*
X4976114Y1878787D01*
X4973878Y1865325D01*
X4973421Y1851710D01*
X4974742Y1838096D01*
X4977942Y1824837D01*
X4982819Y1812137D01*
X4989372Y1800148D01*
X4997450Y1789175D01*
X5006949Y1779371D01*
X5017668Y1770938D01*
X5029403Y1763979D01*
X5041950Y1758645D01*
X5055108Y1755038D01*
G37*
G36*
X5068620Y2053234D02*
G01*
X5082235Y2053234D01*
X5095748Y2055063D01*
X5108905Y2058670D01*
X5121452Y2064004D01*
X5133187Y2070912D01*
X5143906Y2079396D01*
X5153406Y2089200D01*
X5161483Y2100173D01*
X5168036Y2112111D01*
X5172913Y2124862D01*
X5176113Y2138121D01*
X5177434Y2151684D01*
X5176977Y2165299D01*
X5174742Y2178761D01*
X5170678Y2191766D01*
X5164937Y2204161D01*
X5157622Y2215642D01*
X5148834Y2226056D01*
X5138674Y2235200D01*
X5127447Y2242921D01*
X5115306Y2249068D01*
X5102402Y2253538D01*
X5089042Y2256282D01*
X5075428Y2257196D01*
X5061813Y2256282D01*
X5048453Y2253538D01*
X5035550Y2249068D01*
X5023408Y2242921D01*
X5012182Y2235200D01*
X5002022Y2226056D01*
X4993233Y2215642D01*
X4985918Y2204161D01*
X4980178Y2191766D01*
X4976114Y2178761D01*
X4973878Y2165299D01*
X4973421Y2151684D01*
X4974742Y2138121D01*
X4977942Y2124862D01*
X4982819Y2112111D01*
X4989372Y2100173D01*
X4997450Y2089200D01*
X5006949Y2079396D01*
X5017668Y2070912D01*
X5029403Y2064004D01*
X5041950Y2058670D01*
X5055108Y2055063D01*
G37*
G36*
X4241800Y2102662D02*
G01*
X4251604Y2103526D01*
X4261053Y2106066D01*
X4269994Y2110181D01*
X4278020Y2115820D01*
X4284980Y2122779D01*
X4290618Y2130806D01*
X4294733Y2139746D01*
X4297273Y2149195D01*
X4298137Y2159000D01*
X4297273Y2168804D01*
X4294733Y2178253D01*
X4290618Y2187194D01*
X4284980Y2195220D01*
X4283405Y2196795D01*
X4281170Y2200097D01*
X4280408Y2204008D01*
X4280408Y3803091D01*
X4281170Y3807002D01*
X4283405Y3810304D01*
X4284980Y3811879D01*
X4290618Y3819906D01*
X4294733Y3828846D01*
X4297273Y3838295D01*
X4298137Y3848100D01*
X4297273Y3857904D01*
X4294733Y3867353D01*
X4290618Y3876294D01*
X4284980Y3884320D01*
X4278020Y3891279D01*
X4269994Y3896918D01*
X4261053Y3901033D01*
X4251604Y3903573D01*
X4241800Y3904437D01*
X4231995Y3903573D01*
X4222546Y3901033D01*
X4213606Y3896918D01*
X4205579Y3891279D01*
X4198620Y3884320D01*
X4192981Y3876294D01*
X4188866Y3867353D01*
X4186326Y3857904D01*
X4185462Y3848100D01*
X4186326Y3838295D01*
X4188866Y3828846D01*
X4192981Y3819906D01*
X4198620Y3811879D01*
X4200194Y3810304D01*
X4202430Y3807002D01*
X4203192Y3803091D01*
X4203192Y2204008D01*
X4202430Y2200097D01*
X4200194Y2196795D01*
X4198620Y2195220D01*
X4192981Y2187194D01*
X4188866Y2178253D01*
X4186326Y2168804D01*
X4185462Y2159000D01*
X4186326Y2149195D01*
X4188866Y2139746D01*
X4192981Y2130806D01*
X4198620Y2122779D01*
X4205579Y2115820D01*
X4213606Y2110181D01*
X4222546Y2106066D01*
X4231995Y2103526D01*
G37*
G36*
X5062728Y2354021D02*
G01*
X5062728Y2442413D01*
X4974336Y2442413D01*
X4974742Y2438095D01*
X4977942Y2424836D01*
X4982819Y2412136D01*
X4989372Y2400147D01*
X4997450Y2389174D01*
X5006949Y2379370D01*
X5017668Y2370937D01*
X5029403Y2363978D01*
X5041950Y2358644D01*
X5055108Y2355037D01*
G37*
G36*
X5088128Y2354021D02*
G01*
X5095748Y2355037D01*
X5108905Y2358644D01*
X5121452Y2363978D01*
X5133187Y2370937D01*
X5143906Y2379370D01*
X5153406Y2389174D01*
X5161483Y2400147D01*
X5168036Y2412136D01*
X5172913Y2424836D01*
X5176113Y2438095D01*
X5176520Y2442413D01*
X5088128Y2442413D01*
G37*
G36*
X4974285Y2467813D02*
G01*
X5062728Y2467813D01*
X5062728Y2556357D01*
X5048453Y2553563D01*
X5035550Y2549093D01*
X5023408Y2542946D01*
X5012182Y2535224D01*
X5002022Y2526080D01*
X4993233Y2515666D01*
X4985918Y2504186D01*
X4980178Y2491790D01*
X4976114Y2478786D01*
G37*
G36*
X5088128Y2467813D02*
G01*
X5176570Y2467813D01*
X5174742Y2478786D01*
X5170678Y2491790D01*
X5164937Y2504186D01*
X5157622Y2515666D01*
X5148834Y2526080D01*
X5138674Y2535224D01*
X5127447Y2542946D01*
X5115306Y2549093D01*
X5102402Y2553563D01*
X5088128Y2556357D01*
G37*
G36*
X3149600Y2674162D02*
G01*
X3159404Y2675026D01*
X3168853Y2677566D01*
X3177794Y2681681D01*
X3185820Y2687320D01*
X3192780Y2694279D01*
X3198418Y2702306D01*
X3202533Y2711246D01*
X3205073Y2720695D01*
X3205937Y2730500D01*
X3205073Y2740304D01*
X3202533Y2749753D01*
X3198418Y2758694D01*
X3192780Y2766720D01*
X3191205Y2768295D01*
X3188970Y2771597D01*
X3188208Y2775508D01*
X3188208Y3320491D01*
X3188970Y3324402D01*
X3191205Y3327704D01*
X3192780Y3329279D01*
X3198418Y3337306D01*
X3202533Y3346246D01*
X3205073Y3355695D01*
X3205429Y3359353D01*
X3206750Y3363518D01*
X3208528Y3365500D01*
X3206750Y3367481D01*
X3205429Y3371646D01*
X3205073Y3375304D01*
X3202533Y3384753D01*
X3198418Y3393694D01*
X3192780Y3401720D01*
X3191205Y3403295D01*
X3188970Y3406597D01*
X3188208Y3410508D01*
X3188208Y3739591D01*
X3188970Y3743502D01*
X3191205Y3746804D01*
X3192780Y3748379D01*
X3198418Y3756406D01*
X3202533Y3765346D01*
X3205073Y3774795D01*
X3205429Y3778453D01*
X3206750Y3782618D01*
X3208528Y3784600D01*
X3206750Y3786581D01*
X3205429Y3790746D01*
X3205073Y3794404D01*
X3202533Y3803853D01*
X3198418Y3812794D01*
X3192780Y3820820D01*
X3185820Y3827779D01*
X3177794Y3833418D01*
X3168853Y3837533D01*
X3159404Y3840073D01*
X3149600Y3840937D01*
X3139795Y3840073D01*
X3130346Y3837533D01*
X3121406Y3833418D01*
X3113379Y3827779D01*
X3106420Y3820820D01*
X3100781Y3812794D01*
X3096666Y3803853D01*
X3094126Y3794404D01*
X3093262Y3784600D01*
X3094126Y3774795D01*
X3096666Y3765346D01*
X3100781Y3756406D01*
X3106420Y3748379D01*
X3107994Y3746804D01*
X3110230Y3743502D01*
X3110992Y3739591D01*
X3110992Y3410508D01*
X3110230Y3406597D01*
X3107994Y3403295D01*
X3106420Y3401720D01*
X3100781Y3393694D01*
X3096666Y3384753D01*
X3094126Y3375304D01*
X3093262Y3365500D01*
X3094126Y3355695D01*
X3096666Y3346246D01*
X3100781Y3337306D01*
X3106420Y3329279D01*
X3107994Y3327704D01*
X3110230Y3324402D01*
X3110992Y3320491D01*
X3110992Y2775508D01*
X3110230Y2771597D01*
X3107994Y2768295D01*
X3106420Y2766720D01*
X3100781Y2758694D01*
X3096666Y2749753D01*
X3094126Y2740304D01*
X3093262Y2730500D01*
X3094126Y2720695D01*
X3096666Y2711246D01*
X3100781Y2702306D01*
X3106420Y2694279D01*
X3113379Y2687320D01*
X3121406Y2681681D01*
X3130346Y2677566D01*
X3139795Y2675026D01*
G37*
G36*
X4584700Y5600700D02*
G01*
X4687112Y5600700D01*
X4686960Y5602528D01*
X4684268Y5616803D01*
X4679746Y5630672D01*
X4673549Y5643829D01*
X4665776Y5656122D01*
X4656480Y5667349D01*
X4645863Y5677306D01*
X4634077Y5685840D01*
X4621326Y5692851D01*
X4607814Y5698236D01*
X4593691Y5701842D01*
X4584700Y5702960D01*
G37*
G36*
X2768600Y2928162D02*
G01*
X2778404Y2929026D01*
X2787853Y2931566D01*
X2796794Y2935681D01*
X2804820Y2941320D01*
X2811780Y2948279D01*
X2817418Y2956306D01*
X2821533Y2965246D01*
X2824073Y2974695D01*
X2824937Y2984500D01*
X2824073Y2994304D01*
X2821533Y3003753D01*
X2817418Y3012694D01*
X2811780Y3020720D01*
X2810205Y3022295D01*
X2807970Y3025597D01*
X2807208Y3029508D01*
X2807208Y3320491D01*
X2807970Y3324402D01*
X2810205Y3327704D01*
X2811780Y3329279D01*
X2817418Y3337306D01*
X2821533Y3346246D01*
X2824073Y3355695D01*
X2824937Y3365500D01*
X2824073Y3375304D01*
X2821533Y3384753D01*
X2817418Y3393694D01*
X2811780Y3401720D01*
X2810205Y3403295D01*
X2807970Y3406597D01*
X2807208Y3410508D01*
X2807208Y3803091D01*
X2807970Y3807002D01*
X2810205Y3810304D01*
X2811780Y3811879D01*
X2817418Y3819906D01*
X2821533Y3828846D01*
X2824073Y3838295D01*
X2824937Y3848100D01*
X2824073Y3857904D01*
X2821533Y3867353D01*
X2817418Y3876294D01*
X2811780Y3884320D01*
X2804820Y3891279D01*
X2796794Y3896918D01*
X2787853Y3901033D01*
X2778404Y3903573D01*
X2768600Y3904437D01*
X2758795Y3903573D01*
X2749346Y3901033D01*
X2740406Y3896918D01*
X2732379Y3891279D01*
X2725420Y3884320D01*
X2719781Y3876294D01*
X2715666Y3867353D01*
X2713126Y3857904D01*
X2712262Y3848100D01*
X2713126Y3838295D01*
X2715666Y3828846D01*
X2719781Y3819906D01*
X2725420Y3811879D01*
X2726994Y3810304D01*
X2729230Y3807002D01*
X2729992Y3803091D01*
X2729992Y3410508D01*
X2729230Y3406597D01*
X2726994Y3403295D01*
X2725420Y3401720D01*
X2719781Y3393694D01*
X2715666Y3384753D01*
X2713126Y3375304D01*
X2712262Y3365500D01*
X2713126Y3355695D01*
X2715666Y3346246D01*
X2719781Y3337306D01*
X2725420Y3329279D01*
X2726994Y3327704D01*
X2729230Y3324402D01*
X2729992Y3320491D01*
X2729992Y3029508D01*
X2729230Y3025597D01*
X2726994Y3022295D01*
X2725420Y3020720D01*
X2719781Y3012694D01*
X2715666Y3003753D01*
X2713126Y2994304D01*
X2712262Y2984500D01*
X2713126Y2974695D01*
X2715666Y2965246D01*
X2719781Y2956306D01*
X2725420Y2948279D01*
X2732379Y2941320D01*
X2740406Y2935681D01*
X2749346Y2931566D01*
X2758795Y2929026D01*
G37*
G36*
X3276600Y3055162D02*
G01*
X3286404Y3056026D01*
X3295853Y3058566D01*
X3304794Y3062681D01*
X3312820Y3068320D01*
X3319779Y3075279D01*
X3325418Y3083306D01*
X3329533Y3092246D01*
X3332073Y3101695D01*
X3332937Y3111500D01*
X3332073Y3121304D01*
X3329533Y3130753D01*
X3325418Y3139694D01*
X3319779Y3147720D01*
X3318205Y3149295D01*
X3315970Y3152597D01*
X3315208Y3156508D01*
X3315208Y3193491D01*
X3315970Y3197402D01*
X3318205Y3200704D01*
X3319779Y3202279D01*
X3325418Y3210306D01*
X3329533Y3219246D01*
X3332073Y3228695D01*
X3332937Y3238500D01*
X3332073Y3248304D01*
X3329533Y3257753D01*
X3328466Y3260090D01*
X3327501Y3264408D01*
X3327501Y4380992D01*
X3328466Y4385310D01*
X3329533Y4387646D01*
X3332073Y4397095D01*
X3332937Y4406900D01*
X3332073Y4416704D01*
X3329533Y4426153D01*
X3325418Y4435094D01*
X3319779Y4443120D01*
X3312820Y4450080D01*
X3304794Y4455718D01*
X3295853Y4459833D01*
X3286404Y4462373D01*
X3276600Y4463237D01*
X3266795Y4462373D01*
X3257346Y4459833D01*
X3248406Y4455718D01*
X3240379Y4450080D01*
X3233420Y4443120D01*
X3227781Y4435094D01*
X3223666Y4426153D01*
X3221126Y4416704D01*
X3220262Y4406900D01*
X3221126Y4397095D01*
X3223666Y4387646D01*
X3224733Y4385310D01*
X3225698Y4380992D01*
X3225698Y3791661D01*
X3224733Y3787343D01*
X3222650Y3784600D01*
X3224733Y3781856D01*
X3225698Y3777538D01*
X3225698Y3372561D01*
X3224733Y3368243D01*
X3222650Y3365500D01*
X3224733Y3362756D01*
X3225698Y3358438D01*
X3225698Y3264408D01*
X3224733Y3260090D01*
X3223666Y3257753D01*
X3221126Y3248304D01*
X3220262Y3238500D01*
X3221126Y3228695D01*
X3223666Y3219246D01*
X3227781Y3210306D01*
X3233420Y3202279D01*
X3234994Y3200704D01*
X3237230Y3197402D01*
X3237992Y3193491D01*
X3237992Y3156508D01*
X3237230Y3152597D01*
X3234994Y3149295D01*
X3233420Y3147720D01*
X3227781Y3139694D01*
X3223666Y3130753D01*
X3221126Y3121304D01*
X3220262Y3111500D01*
X3221126Y3101695D01*
X3223666Y3092246D01*
X3227781Y3083306D01*
X3233420Y3075279D01*
X3240379Y3068320D01*
X3248406Y3062681D01*
X3257346Y3058566D01*
X3266795Y3056026D01*
G37*
G36*
X4456887Y5600700D02*
G01*
X4559300Y5600700D01*
X4559300Y5702960D01*
X4550308Y5701842D01*
X4536186Y5698236D01*
X4522673Y5692851D01*
X4509922Y5685840D01*
X4498136Y5677306D01*
X4487519Y5667349D01*
X4478223Y5656122D01*
X4470450Y5643829D01*
X4464253Y5630672D01*
X4459732Y5616803D01*
X4457039Y5602528D01*
G37*
G36*
X1193800Y3182162D02*
G01*
X1203604Y3183026D01*
X1213053Y3185566D01*
X1221994Y3189681D01*
X1230020Y3195320D01*
X1236980Y3202279D01*
X1242618Y3210306D01*
X1246733Y3219246D01*
X1249273Y3228695D01*
X1250137Y3238500D01*
X1249273Y3248304D01*
X1246733Y3257753D01*
X1242618Y3266694D01*
X1236980Y3274720D01*
X1235405Y3276295D01*
X1233170Y3279597D01*
X1232408Y3283508D01*
X1232408Y3432149D01*
X1233220Y3436112D01*
X1235506Y3439464D01*
X1238910Y3441649D01*
X1242923Y3442309D01*
X1246886Y3441344D01*
X1250746Y3439566D01*
X1260195Y3437026D01*
X1270000Y3436162D01*
X1279804Y3437026D01*
X1289253Y3439566D01*
X1298194Y3443681D01*
X1306220Y3449320D01*
X1313180Y3456279D01*
X1318818Y3464306D01*
X1322933Y3473246D01*
X1325473Y3482695D01*
X1326337Y3492500D01*
X1325473Y3502304D01*
X1322933Y3511753D01*
X1318818Y3520694D01*
X1313180Y3528720D01*
X1311605Y3530295D01*
X1309370Y3533597D01*
X1308608Y3537508D01*
X1308608Y4361891D01*
X1309370Y4365802D01*
X1311605Y4369104D01*
X1313180Y4370679D01*
X1318818Y4378706D01*
X1322933Y4387646D01*
X1325473Y4397095D01*
X1326337Y4406900D01*
X1325473Y4416704D01*
X1322933Y4426153D01*
X1318818Y4435094D01*
X1313180Y4443120D01*
X1306220Y4450080D01*
X1298194Y4455718D01*
X1289253Y4459833D01*
X1279804Y4462373D01*
X1270000Y4463237D01*
X1260195Y4462373D01*
X1250746Y4459833D01*
X1241806Y4455718D01*
X1233779Y4450080D01*
X1226820Y4443120D01*
X1221181Y4435094D01*
X1217066Y4426153D01*
X1214526Y4416704D01*
X1213764Y4408220D01*
X1212646Y4404410D01*
X1210157Y4401312D01*
X1206703Y4399381D01*
X1202740Y4398975D01*
X1193800Y4399737D01*
X1183995Y4398873D01*
X1174546Y4396333D01*
X1165606Y4392218D01*
X1157579Y4386580D01*
X1150620Y4379620D01*
X1144981Y4371594D01*
X1140866Y4362653D01*
X1138326Y4353204D01*
X1137462Y4343400D01*
X1138326Y4333595D01*
X1140866Y4324146D01*
X1144981Y4315206D01*
X1150620Y4307179D01*
X1152194Y4305604D01*
X1154430Y4302302D01*
X1155192Y4298391D01*
X1155192Y3283508D01*
X1154430Y3279597D01*
X1152194Y3276295D01*
X1150620Y3274720D01*
X1144981Y3266694D01*
X1140866Y3257753D01*
X1138326Y3248304D01*
X1137462Y3238500D01*
X1138326Y3228695D01*
X1140866Y3219246D01*
X1144981Y3210306D01*
X1150620Y3202279D01*
X1157579Y3195320D01*
X1165606Y3189681D01*
X1174546Y3185566D01*
X1183995Y3183026D01*
G37*
G36*
X2691688Y5583682D02*
G01*
X2750261Y5583682D01*
X2756560Y5584393D01*
X2764840Y5587593D01*
X2767634Y5588000D01*
X2970784Y5588000D01*
X2971800Y5589016D01*
X2971800Y5713984D01*
X2970784Y5715000D01*
X2763520Y5715000D01*
X2760167Y5715558D01*
X2756560Y5716828D01*
X2750261Y5717540D01*
X2691688Y5717540D01*
X2685389Y5716828D01*
X2681782Y5715558D01*
X2678430Y5715000D01*
X2575560Y5715000D01*
X2571648Y5715762D01*
X2568397Y5717997D01*
X2566162Y5721248D01*
X2565400Y5725160D01*
X2565400Y5589016D01*
X2566416Y5588000D01*
X2674315Y5588000D01*
X2677109Y5587593D01*
X2679903Y5586323D01*
X2685389Y5584393D01*
G37*
G36*
X5073192Y3319221D02*
G01*
X5086807Y3319221D01*
X5100320Y3320999D01*
X5113477Y3324606D01*
X5126024Y3329940D01*
X5137759Y3336899D01*
X5148478Y3345332D01*
X5157978Y3355136D01*
X5166055Y3366109D01*
X5172608Y3378098D01*
X5177485Y3390798D01*
X5180685Y3404057D01*
X5182006Y3417671D01*
X5181549Y3431286D01*
X5179314Y3444748D01*
X5175250Y3457752D01*
X5169509Y3470148D01*
X5162194Y3481628D01*
X5153406Y3492042D01*
X5143246Y3501186D01*
X5132019Y3508908D01*
X5119878Y3515055D01*
X5106974Y3519525D01*
X5093614Y3522218D01*
X5080000Y3523132D01*
X5066385Y3522218D01*
X5053025Y3519525D01*
X5040122Y3515055D01*
X5027980Y3508908D01*
X5016754Y3501186D01*
X5006594Y3492042D01*
X4997805Y3481628D01*
X4990490Y3470148D01*
X4984750Y3457752D01*
X4980686Y3444748D01*
X4978450Y3431286D01*
X4977993Y3417671D01*
X4979314Y3404057D01*
X4982514Y3390798D01*
X4987391Y3378098D01*
X4993944Y3366109D01*
X5002022Y3355136D01*
X5011521Y3345332D01*
X5022240Y3336899D01*
X5033975Y3329940D01*
X5046522Y3324606D01*
X5059680Y3320999D01*
G37*
G36*
X393700Y5473700D02*
G01*
X656590Y5473700D01*
X654710Y5495594D01*
X650849Y5518353D01*
X645109Y5540756D01*
X637540Y5562549D01*
X628142Y5583682D01*
X617016Y5603900D01*
X604215Y5623153D01*
X589838Y5641289D01*
X574040Y5658104D01*
X556869Y5673598D01*
X538480Y5687568D01*
X518972Y5699912D01*
X498500Y5710631D01*
X477164Y5719572D01*
X455218Y5726734D01*
X432714Y5732018D01*
X409854Y5735370D01*
X393700Y5736386D01*
G37*
G36*
X5473700Y5473700D02*
G01*
X5736590Y5473700D01*
X5734710Y5495594D01*
X5730849Y5518353D01*
X5725109Y5540756D01*
X5717540Y5562549D01*
X5708142Y5583682D01*
X5697016Y5603900D01*
X5684215Y5623153D01*
X5669838Y5641289D01*
X5654040Y5658104D01*
X5636869Y5673598D01*
X5618480Y5687568D01*
X5598972Y5699912D01*
X5578500Y5710631D01*
X5557164Y5719572D01*
X5535218Y5726734D01*
X5512714Y5732018D01*
X5489854Y5735370D01*
X5473700Y5736386D01*
G37*
G36*
X105664Y5473700D02*
G01*
X368300Y5473700D01*
X368300Y5736437D01*
X363677Y5736336D01*
X340715Y5733948D01*
X318008Y5729630D01*
X295757Y5723382D01*
X274066Y5715355D01*
X253187Y5705500D01*
X233171Y5693968D01*
X214172Y5680760D01*
X196392Y5666028D01*
X179882Y5649874D01*
X164795Y5632348D01*
X151180Y5613704D01*
X139242Y5593892D01*
X128981Y5573217D01*
X120446Y5551728D01*
X113792Y5529630D01*
X108966Y5507024D01*
X106070Y5484063D01*
G37*
G36*
X5448300Y105562D02*
G01*
X5448300Y368300D01*
X5185664Y368300D01*
X5186070Y357936D01*
X5188966Y334975D01*
X5193792Y312369D01*
X5200446Y290271D01*
X5208981Y268782D01*
X5219242Y248107D01*
X5231180Y228295D01*
X5244795Y209600D01*
X5259882Y192125D01*
X5276392Y175971D01*
X5294172Y161239D01*
X5313172Y148031D01*
X5333187Y136499D01*
X5354066Y126644D01*
X5375757Y118618D01*
X5398008Y112369D01*
X5420715Y108051D01*
X5443677Y105664D01*
G37*
G36*
X5185664Y5473700D02*
G01*
X5448300Y5473700D01*
X5448300Y5736437D01*
X5443677Y5736336D01*
X5420715Y5733948D01*
X5398008Y5729630D01*
X5375757Y5723382D01*
X5354066Y5715355D01*
X5333187Y5705500D01*
X5313172Y5693968D01*
X5294172Y5680760D01*
X5276392Y5666028D01*
X5259882Y5649874D01*
X5244795Y5632348D01*
X5231180Y5613704D01*
X5219242Y5593892D01*
X5208981Y5573217D01*
X5200446Y5551728D01*
X5193792Y5529630D01*
X5188966Y5507024D01*
X5186070Y5484063D01*
G37*
G36*
X5073192Y3919220D02*
G01*
X5086807Y3919220D01*
X5100320Y3920998D01*
X5113477Y3924604D01*
X5126024Y3929938D01*
X5137759Y3936898D01*
X5148478Y3945331D01*
X5157978Y3955135D01*
X5166055Y3966108D01*
X5172608Y3978097D01*
X5177485Y3990797D01*
X5180685Y4004056D01*
X5182006Y4017670D01*
X5181549Y4031284D01*
X5179314Y4044746D01*
X5175250Y4057751D01*
X5169509Y4070146D01*
X5162194Y4081627D01*
X5153406Y4092041D01*
X5143246Y4101185D01*
X5132019Y4108907D01*
X5119878Y4115054D01*
X5106974Y4119524D01*
X5093614Y4122216D01*
X5080000Y4123131D01*
X5066385Y4122216D01*
X5053025Y4119524D01*
X5040122Y4115054D01*
X5027980Y4108907D01*
X5016754Y4101185D01*
X5006594Y4092041D01*
X4997805Y4081627D01*
X4990490Y4070146D01*
X4984750Y4057751D01*
X4980686Y4044746D01*
X4978450Y4031284D01*
X4977993Y4017670D01*
X4979314Y4004056D01*
X4982514Y3990797D01*
X4987391Y3978097D01*
X4993944Y3966108D01*
X5002022Y3955135D01*
X5011521Y3945331D01*
X5022240Y3936898D01*
X5033975Y3929938D01*
X5046522Y3924604D01*
X5059680Y3920998D01*
G37*
G36*
X3835400Y3969562D02*
G01*
X3845204Y3970426D01*
X3854653Y3972966D01*
X3863594Y3977081D01*
X3871620Y3982720D01*
X3878579Y3989679D01*
X3884218Y3997706D01*
X3888333Y4006646D01*
X3890873Y4016095D01*
X3891737Y4025900D01*
X3890873Y4035704D01*
X3888333Y4045153D01*
X3884218Y4054094D01*
X3878579Y4062120D01*
X3877005Y4063695D01*
X3874770Y4066997D01*
X3874008Y4070908D01*
X3874008Y4158691D01*
X3874770Y4162602D01*
X3877005Y4165904D01*
X3878579Y4167479D01*
X3884218Y4175506D01*
X3888333Y4184446D01*
X3890873Y4193895D01*
X3891737Y4203700D01*
X3890873Y4213504D01*
X3888333Y4222953D01*
X3884218Y4231894D01*
X3878579Y4239920D01*
X3871620Y4246880D01*
X3863594Y4252518D01*
X3854653Y4256633D01*
X3845204Y4259173D01*
X3835400Y4260037D01*
X3825595Y4259173D01*
X3816146Y4256633D01*
X3807206Y4252518D01*
X3799179Y4246880D01*
X3792220Y4239920D01*
X3786581Y4231894D01*
X3782466Y4222953D01*
X3779926Y4213504D01*
X3779062Y4203700D01*
X3779926Y4193895D01*
X3782466Y4184446D01*
X3786581Y4175506D01*
X3792220Y4167479D01*
X3793794Y4165904D01*
X3796029Y4162602D01*
X3796792Y4158691D01*
X3796792Y4070908D01*
X3796029Y4066997D01*
X3793794Y4063695D01*
X3792220Y4062120D01*
X3786581Y4054094D01*
X3782466Y4045153D01*
X3779926Y4035704D01*
X3779062Y4025900D01*
X3779926Y4016095D01*
X3782466Y4006646D01*
X3786581Y3997706D01*
X3792220Y3989679D01*
X3799179Y3982720D01*
X3807206Y3977081D01*
X3816146Y3972966D01*
X3825595Y3970426D01*
G37*
G36*
X2819400Y3969562D02*
G01*
X2829204Y3970426D01*
X2838653Y3972966D01*
X2847594Y3977081D01*
X2855620Y3982720D01*
X2862580Y3989679D01*
X2868218Y3997706D01*
X2872333Y4006646D01*
X2874873Y4016095D01*
X2875737Y4025900D01*
X2874873Y4035704D01*
X2872333Y4045153D01*
X2868218Y4054094D01*
X2862580Y4062120D01*
X2861005Y4063695D01*
X2858770Y4066997D01*
X2858008Y4070908D01*
X2858008Y4298391D01*
X2858770Y4302302D01*
X2861005Y4305604D01*
X2862580Y4307179D01*
X2868218Y4315206D01*
X2872333Y4324146D01*
X2874873Y4333595D01*
X2875737Y4343400D01*
X2874873Y4353204D01*
X2872333Y4362653D01*
X2868218Y4371594D01*
X2862580Y4379620D01*
X2855620Y4386580D01*
X2847594Y4392218D01*
X2838653Y4396333D01*
X2829204Y4398873D01*
X2819400Y4399737D01*
X2809595Y4398873D01*
X2800146Y4396333D01*
X2791206Y4392218D01*
X2783179Y4386580D01*
X2776220Y4379620D01*
X2770581Y4371594D01*
X2766466Y4362653D01*
X2763926Y4353204D01*
X2763062Y4343400D01*
X2763926Y4333595D01*
X2766466Y4324146D01*
X2770581Y4315206D01*
X2776220Y4307179D01*
X2777794Y4305604D01*
X2780030Y4302302D01*
X2780792Y4298391D01*
X2780792Y4070908D01*
X2780030Y4066997D01*
X2777794Y4063695D01*
X2776220Y4062120D01*
X2770581Y4054094D01*
X2766466Y4045153D01*
X2763926Y4035704D01*
X2763062Y4025900D01*
X2763926Y4016095D01*
X2766466Y4006646D01*
X2770581Y3997706D01*
X2776220Y3989679D01*
X2783179Y3982720D01*
X2791206Y3977081D01*
X2800146Y3972966D01*
X2809595Y3970426D01*
G37*
G36*
X3429000Y4147362D02*
G01*
X3438804Y4148226D01*
X3448253Y4150766D01*
X3457194Y4154881D01*
X3465220Y4160520D01*
X3472179Y4167479D01*
X3477818Y4175506D01*
X3481933Y4184446D01*
X3484473Y4193895D01*
X3485337Y4203700D01*
X3484473Y4213504D01*
X3481933Y4222953D01*
X3477818Y4231894D01*
X3472179Y4239920D01*
X3467303Y4244797D01*
X3465068Y4248099D01*
X3464306Y4252010D01*
X3464306Y4657293D01*
X3465068Y4661103D01*
X3467150Y4664354D01*
X3470300Y4666589D01*
X3484219Y4672838D01*
X3497224Y4680712D01*
X3509162Y4690059D01*
X3519932Y4700828D01*
X3529279Y4712766D01*
X3537153Y4725771D01*
X3543452Y4739690D01*
X3545636Y4742891D01*
X3548887Y4744974D01*
X3552698Y4745685D01*
X3556508Y4744974D01*
X3559759Y4742891D01*
X3561943Y4739690D01*
X3568242Y4725771D01*
X3576116Y4712766D01*
X3585464Y4700828D01*
X3596233Y4690059D01*
X3608171Y4680712D01*
X3621176Y4672838D01*
X3635095Y4666589D01*
X3638245Y4664354D01*
X3640378Y4661103D01*
X3641090Y4657293D01*
X3641090Y4324908D01*
X3640328Y4320997D01*
X3638092Y4317695D01*
X3636518Y4316120D01*
X3630879Y4308094D01*
X3626764Y4299153D01*
X3624224Y4289704D01*
X3623360Y4279900D01*
X3624224Y4270095D01*
X3626764Y4260646D01*
X3630879Y4251706D01*
X3636518Y4243679D01*
X3643477Y4236720D01*
X3651504Y4231081D01*
X3660444Y4226966D01*
X3669893Y4224426D01*
X3679698Y4223562D01*
X3689502Y4224426D01*
X3698951Y4226966D01*
X3707892Y4231081D01*
X3715918Y4236720D01*
X3722878Y4243679D01*
X3728516Y4251706D01*
X3732631Y4260646D01*
X3735171Y4270095D01*
X3736035Y4279900D01*
X3735171Y4289704D01*
X3732631Y4299153D01*
X3728516Y4308094D01*
X3722878Y4316120D01*
X3721303Y4317695D01*
X3719068Y4320997D01*
X3718306Y4324908D01*
X3718306Y4657293D01*
X3719068Y4661103D01*
X3721150Y4664354D01*
X3724300Y4666589D01*
X3738219Y4672838D01*
X3751224Y4680712D01*
X3763162Y4690059D01*
X3773932Y4700828D01*
X3783279Y4712766D01*
X3791153Y4725771D01*
X3797452Y4739690D01*
X3799636Y4742891D01*
X3802887Y4744974D01*
X3806698Y4745685D01*
X3810508Y4744974D01*
X3813759Y4742891D01*
X3815943Y4739690D01*
X3822242Y4725771D01*
X3830116Y4712766D01*
X3839464Y4700828D01*
X3850233Y4690059D01*
X3862171Y4680712D01*
X3875176Y4672838D01*
X3889044Y4666589D01*
X3903573Y4662068D01*
X3918508Y4659325D01*
X3933698Y4658410D01*
X3948887Y4659325D01*
X3963822Y4662068D01*
X3978351Y4666589D01*
X3992219Y4672838D01*
X4005224Y4680712D01*
X4017162Y4690059D01*
X4027932Y4700828D01*
X4037279Y4712766D01*
X4045153Y4725771D01*
X4051401Y4739640D01*
X4055922Y4754168D01*
X4058665Y4769104D01*
X4059580Y4784293D01*
X4058665Y4799482D01*
X4055922Y4814417D01*
X4051401Y4828946D01*
X4045153Y4842814D01*
X4037279Y4855819D01*
X4027932Y4867757D01*
X4017162Y4878527D01*
X4005224Y4887874D01*
X3992219Y4895748D01*
X3978351Y4901996D01*
X3963822Y4906518D01*
X3948887Y4909261D01*
X3933698Y4910175D01*
X3918508Y4909261D01*
X3903573Y4906518D01*
X3889044Y4901996D01*
X3875176Y4895748D01*
X3862171Y4887874D01*
X3850233Y4878527D01*
X3839464Y4867757D01*
X3830116Y4855819D01*
X3822242Y4842814D01*
X3815943Y4828895D01*
X3813759Y4825695D01*
X3810508Y4823612D01*
X3806698Y4822901D01*
X3802887Y4823612D01*
X3799636Y4825695D01*
X3797452Y4828895D01*
X3791153Y4842814D01*
X3783279Y4855819D01*
X3773932Y4867757D01*
X3763162Y4878527D01*
X3751224Y4887874D01*
X3738219Y4895748D01*
X3724351Y4901996D01*
X3709822Y4906518D01*
X3694887Y4909261D01*
X3679698Y4910175D01*
X3664508Y4909261D01*
X3649573Y4906518D01*
X3635044Y4901996D01*
X3621176Y4895748D01*
X3608171Y4887874D01*
X3596233Y4878527D01*
X3585464Y4867757D01*
X3576116Y4855819D01*
X3568242Y4842814D01*
X3561943Y4828895D01*
X3559759Y4825695D01*
X3556508Y4823612D01*
X3552698Y4822901D01*
X3548887Y4823612D01*
X3545636Y4825695D01*
X3543452Y4828895D01*
X3537153Y4842814D01*
X3529279Y4855819D01*
X3519932Y4867757D01*
X3509162Y4878527D01*
X3497224Y4887874D01*
X3484219Y4895748D01*
X3470351Y4901996D01*
X3455822Y4906518D01*
X3440887Y4909261D01*
X3425698Y4910175D01*
X3410508Y4909261D01*
X3395573Y4906518D01*
X3381044Y4901996D01*
X3367176Y4895748D01*
X3354171Y4887874D01*
X3342233Y4878527D01*
X3331464Y4867757D01*
X3322116Y4855819D01*
X3314242Y4842814D01*
X3307943Y4828895D01*
X3305759Y4825695D01*
X3302508Y4823612D01*
X3298698Y4822901D01*
X3294887Y4823612D01*
X3291636Y4825695D01*
X3289452Y4828895D01*
X3283153Y4842814D01*
X3275279Y4855819D01*
X3265932Y4867757D01*
X3255162Y4878527D01*
X3243224Y4887874D01*
X3230219Y4895748D01*
X3216351Y4901996D01*
X3201822Y4906518D01*
X3186887Y4909261D01*
X3171698Y4910175D01*
X3156508Y4909261D01*
X3141573Y4906518D01*
X3127044Y4901996D01*
X3113176Y4895748D01*
X3100171Y4887874D01*
X3088233Y4878527D01*
X3077464Y4867757D01*
X3068116Y4855819D01*
X3060242Y4842814D01*
X3053943Y4828895D01*
X3051759Y4825695D01*
X3048508Y4823612D01*
X3044698Y4822901D01*
X3040888Y4823612D01*
X3037636Y4825695D01*
X3035452Y4828895D01*
X3029153Y4842814D01*
X3021279Y4855819D01*
X3011932Y4867757D01*
X3001162Y4878527D01*
X2989224Y4887874D01*
X2976219Y4895748D01*
X2962351Y4901996D01*
X2947822Y4906518D01*
X2932887Y4909261D01*
X2917698Y4910175D01*
X2902508Y4909261D01*
X2887573Y4906518D01*
X2873044Y4901996D01*
X2859176Y4895748D01*
X2846171Y4887874D01*
X2834233Y4878527D01*
X2823464Y4867757D01*
X2814116Y4855819D01*
X2806242Y4842814D01*
X2799943Y4828895D01*
X2797759Y4825695D01*
X2794508Y4823612D01*
X2790698Y4822901D01*
X2786888Y4823612D01*
X2783636Y4825695D01*
X2781452Y4828895D01*
X2775153Y4842814D01*
X2767279Y4855819D01*
X2757932Y4867757D01*
X2747162Y4878527D01*
X2735224Y4887874D01*
X2722219Y4895748D01*
X2708351Y4901996D01*
X2693822Y4906518D01*
X2678887Y4909261D01*
X2663698Y4910175D01*
X2648508Y4909261D01*
X2633573Y4906518D01*
X2619044Y4901996D01*
X2605176Y4895748D01*
X2592171Y4887874D01*
X2580233Y4878527D01*
X2569464Y4867757D01*
X2560116Y4855819D01*
X2552242Y4842814D01*
X2545943Y4828895D01*
X2543759Y4825695D01*
X2540508Y4823612D01*
X2536698Y4822901D01*
X2532888Y4823612D01*
X2529636Y4825695D01*
X2527452Y4828895D01*
X2521153Y4842814D01*
X2513279Y4855819D01*
X2503932Y4867757D01*
X2493162Y4878527D01*
X2481224Y4887874D01*
X2468219Y4895748D01*
X2454351Y4901996D01*
X2439822Y4906518D01*
X2424887Y4909261D01*
X2409698Y4910175D01*
X2394508Y4909261D01*
X2379573Y4906518D01*
X2365044Y4901996D01*
X2351176Y4895748D01*
X2338171Y4887874D01*
X2326233Y4878527D01*
X2315464Y4867757D01*
X2306116Y4855819D01*
X2298242Y4842814D01*
X2291943Y4828895D01*
X2289759Y4825695D01*
X2286508Y4823612D01*
X2282698Y4822901D01*
X2278888Y4823612D01*
X2275636Y4825695D01*
X2273452Y4828895D01*
X2267153Y4842814D01*
X2259279Y4855819D01*
X2249932Y4867757D01*
X2239162Y4878527D01*
X2227224Y4887874D01*
X2214219Y4895748D01*
X2200351Y4901996D01*
X2185822Y4906518D01*
X2170887Y4909261D01*
X2155698Y4910175D01*
X2140508Y4909261D01*
X2125573Y4906518D01*
X2111044Y4901996D01*
X2097176Y4895748D01*
X2084171Y4887874D01*
X2072233Y4878527D01*
X2061464Y4867757D01*
X2052116Y4855819D01*
X2044242Y4842814D01*
X2037994Y4828946D01*
X2033473Y4814417D01*
X2030730Y4799482D01*
X2029815Y4784293D01*
X2030730Y4769104D01*
X2033473Y4754168D01*
X2037994Y4739640D01*
X2044242Y4725771D01*
X2052116Y4712766D01*
X2061464Y4700828D01*
X2072233Y4690059D01*
X2084171Y4680712D01*
X2097176Y4672838D01*
X2111044Y4666589D01*
X2125573Y4662068D01*
X2140508Y4659325D01*
X2155698Y4658410D01*
X2170887Y4659325D01*
X2185822Y4662068D01*
X2200351Y4666589D01*
X2214219Y4672838D01*
X2227224Y4680712D01*
X2239162Y4690059D01*
X2249932Y4700828D01*
X2259279Y4712766D01*
X2267153Y4725771D01*
X2273452Y4739690D01*
X2275636Y4742891D01*
X2278888Y4744974D01*
X2282698Y4745685D01*
X2286508Y4744974D01*
X2289759Y4742891D01*
X2291943Y4739690D01*
X2298242Y4725771D01*
X2306116Y4712766D01*
X2315464Y4700828D01*
X2326233Y4690059D01*
X2338171Y4680712D01*
X2351176Y4672838D01*
X2365095Y4666589D01*
X2368245Y4664354D01*
X2370378Y4661103D01*
X2371090Y4657293D01*
X2371090Y4388408D01*
X2370328Y4384497D01*
X2368092Y4381195D01*
X2366518Y4379620D01*
X2360879Y4371594D01*
X2356764Y4362653D01*
X2354224Y4353204D01*
X2353360Y4343400D01*
X2354224Y4333595D01*
X2356764Y4324146D01*
X2360879Y4315206D01*
X2366518Y4307179D01*
X2373477Y4300220D01*
X2381504Y4294581D01*
X2390444Y4290466D01*
X2399893Y4287926D01*
X2409698Y4287062D01*
X2419502Y4287926D01*
X2428951Y4290466D01*
X2437892Y4294581D01*
X2445918Y4300220D01*
X2452878Y4307179D01*
X2458516Y4315206D01*
X2462631Y4324146D01*
X2465171Y4333595D01*
X2466035Y4343400D01*
X2465171Y4353204D01*
X2462631Y4362653D01*
X2458516Y4371594D01*
X2452878Y4379620D01*
X2451303Y4381195D01*
X2449068Y4384497D01*
X2448306Y4388408D01*
X2448306Y4657293D01*
X2449068Y4661103D01*
X2451150Y4664354D01*
X2454300Y4666589D01*
X2468219Y4672838D01*
X2481224Y4680712D01*
X2493162Y4690059D01*
X2503932Y4700828D01*
X2513279Y4712766D01*
X2521153Y4725771D01*
X2527452Y4739690D01*
X2529636Y4742891D01*
X2532888Y4744974D01*
X2536698Y4745685D01*
X2540508Y4744974D01*
X2543759Y4742891D01*
X2545943Y4739690D01*
X2552242Y4725771D01*
X2560116Y4712766D01*
X2569464Y4700828D01*
X2580233Y4690059D01*
X2592171Y4680712D01*
X2605176Y4672838D01*
X2619095Y4666589D01*
X2622245Y4664354D01*
X2624378Y4661103D01*
X2625090Y4657293D01*
X2625090Y4451908D01*
X2624328Y4447997D01*
X2622092Y4444695D01*
X2620518Y4443120D01*
X2614879Y4435094D01*
X2610764Y4426153D01*
X2608224Y4416704D01*
X2607360Y4406900D01*
X2608224Y4397095D01*
X2610764Y4387646D01*
X2614879Y4378706D01*
X2620518Y4370679D01*
X2627477Y4363720D01*
X2635504Y4358081D01*
X2644444Y4353966D01*
X2653893Y4351426D01*
X2663698Y4350562D01*
X2673502Y4351426D01*
X2682951Y4353966D01*
X2691892Y4358081D01*
X2699918Y4363720D01*
X2706878Y4370679D01*
X2712516Y4378706D01*
X2716631Y4387646D01*
X2719171Y4397095D01*
X2720035Y4406900D01*
X2719171Y4416704D01*
X2716631Y4426153D01*
X2712516Y4435094D01*
X2706878Y4443120D01*
X2705303Y4444695D01*
X2703068Y4447997D01*
X2702306Y4451908D01*
X2702306Y4657293D01*
X2703068Y4661103D01*
X2705150Y4664354D01*
X2708300Y4666589D01*
X2722219Y4672838D01*
X2735224Y4680712D01*
X2747162Y4690059D01*
X2757932Y4700828D01*
X2767279Y4712766D01*
X2775153Y4725771D01*
X2781452Y4739690D01*
X2783636Y4742891D01*
X2786888Y4744974D01*
X2790698Y4745685D01*
X2794508Y4744974D01*
X2797759Y4742891D01*
X2799943Y4739690D01*
X2806242Y4725771D01*
X2814116Y4712766D01*
X2823464Y4700828D01*
X2834233Y4690059D01*
X2846171Y4680712D01*
X2859176Y4672838D01*
X2873044Y4666589D01*
X2887573Y4662068D01*
X2902508Y4659325D01*
X2917698Y4658410D01*
X2932887Y4659325D01*
X2947822Y4662068D01*
X2962351Y4666589D01*
X2976219Y4672838D01*
X2989224Y4680712D01*
X3001162Y4690059D01*
X3011932Y4700828D01*
X3021279Y4712766D01*
X3029153Y4725771D01*
X3035452Y4739690D01*
X3037636Y4742891D01*
X3040888Y4744974D01*
X3044698Y4745685D01*
X3048508Y4744974D01*
X3051759Y4742891D01*
X3053943Y4739690D01*
X3060242Y4725771D01*
X3068116Y4712766D01*
X3077464Y4700828D01*
X3088233Y4690059D01*
X3100171Y4680712D01*
X3113176Y4672838D01*
X3127044Y4666589D01*
X3141573Y4662068D01*
X3156508Y4659325D01*
X3171698Y4658410D01*
X3186887Y4659325D01*
X3201822Y4662068D01*
X3216351Y4666589D01*
X3230219Y4672838D01*
X3243224Y4680712D01*
X3255162Y4690059D01*
X3265932Y4700828D01*
X3275279Y4712766D01*
X3283153Y4725771D01*
X3289452Y4739690D01*
X3291636Y4742891D01*
X3294887Y4744974D01*
X3298698Y4745685D01*
X3302508Y4744974D01*
X3305759Y4742891D01*
X3307943Y4739690D01*
X3314242Y4725771D01*
X3322116Y4712766D01*
X3331464Y4700828D01*
X3342233Y4690059D01*
X3354171Y4680712D01*
X3367176Y4672838D01*
X3381095Y4666589D01*
X3384245Y4664354D01*
X3386378Y4661103D01*
X3387090Y4657293D01*
X3387090Y4244898D01*
X3386632Y4241850D01*
X3385261Y4239107D01*
X3380181Y4231894D01*
X3376066Y4222953D01*
X3373526Y4213504D01*
X3372662Y4203700D01*
X3373526Y4193895D01*
X3376066Y4184446D01*
X3380181Y4175506D01*
X3385820Y4167479D01*
X3392779Y4160520D01*
X3400806Y4154881D01*
X3409746Y4150766D01*
X3419195Y4148226D01*
G37*
G36*
X4559300Y5473039D02*
G01*
X4559300Y5575300D01*
X4456887Y5575300D01*
X4457039Y5573471D01*
X4459732Y5559196D01*
X4464253Y5545328D01*
X4470450Y5532170D01*
X4478223Y5519877D01*
X4487519Y5508650D01*
X4498136Y5498693D01*
X4509922Y5490159D01*
X4522673Y5483148D01*
X4536186Y5477764D01*
X4550308Y5474157D01*
G37*
G36*
X4584700Y5473039D02*
G01*
X4593691Y5474157D01*
X4607814Y5477764D01*
X4621326Y5483148D01*
X4634077Y5490159D01*
X4645863Y5498693D01*
X4656480Y5508650D01*
X4665776Y5519877D01*
X4673549Y5532170D01*
X4679746Y5545328D01*
X4684268Y5559196D01*
X4686960Y5573471D01*
X4687112Y5575300D01*
X4584700Y5575300D01*
G37*
G36*
X4818735Y5472328D02*
G01*
X4833264Y5472328D01*
X4847691Y5474157D01*
X4861814Y5477764D01*
X4875326Y5483148D01*
X4888077Y5490159D01*
X4899863Y5498693D01*
X4910480Y5508650D01*
X4919776Y5519877D01*
X4927549Y5532170D01*
X4933746Y5545328D01*
X4938268Y5559196D01*
X4940960Y5573471D01*
X4941874Y5588000D01*
X4940960Y5602528D01*
X4938268Y5616803D01*
X4933746Y5630672D01*
X4927549Y5643829D01*
X4919776Y5656122D01*
X4910480Y5667349D01*
X4899863Y5677306D01*
X4888077Y5685840D01*
X4882184Y5689092D01*
X4879390Y5691378D01*
X4877562Y5694476D01*
X4876901Y5697982D01*
X4876901Y5701792D01*
X4877866Y5706110D01*
X4878933Y5708446D01*
X4881473Y5717895D01*
X4882337Y5727700D01*
X4881473Y5737504D01*
X4878933Y5746953D01*
X4874818Y5755894D01*
X4869180Y5763920D01*
X4862220Y5770880D01*
X4854194Y5776518D01*
X4845253Y5780633D01*
X4835804Y5783173D01*
X4826000Y5784037D01*
X4816195Y5783173D01*
X4806746Y5780633D01*
X4797806Y5776518D01*
X4789779Y5770880D01*
X4782820Y5763920D01*
X4777181Y5755894D01*
X4773066Y5746953D01*
X4770526Y5737504D01*
X4769662Y5727700D01*
X4770526Y5717895D01*
X4773066Y5708446D01*
X4774133Y5706110D01*
X4775098Y5701792D01*
X4775098Y5697982D01*
X4774438Y5694476D01*
X4772609Y5691378D01*
X4769815Y5689092D01*
X4763922Y5685840D01*
X4752136Y5677306D01*
X4741519Y5667349D01*
X4732223Y5656122D01*
X4724450Y5643829D01*
X4718253Y5630672D01*
X4713732Y5616803D01*
X4711039Y5602528D01*
X4710125Y5588000D01*
X4711039Y5573471D01*
X4713732Y5559196D01*
X4718253Y5545328D01*
X4724450Y5532170D01*
X4732223Y5519877D01*
X4741519Y5508650D01*
X4752136Y5498693D01*
X4763922Y5490159D01*
X4776673Y5483148D01*
X4790186Y5477764D01*
X4804308Y5474157D01*
G37*
G36*
X4456887Y5346700D02*
G01*
X4559300Y5346700D01*
X4559300Y5448960D01*
X4550308Y5447842D01*
X4536186Y5444236D01*
X4522673Y5438851D01*
X4509922Y5431840D01*
X4498136Y5423306D01*
X4487519Y5413349D01*
X4478223Y5402122D01*
X4470450Y5389829D01*
X4464253Y5376672D01*
X4459732Y5362803D01*
X4457039Y5348528D01*
G37*
G36*
X4584700Y5346700D02*
G01*
X4687112Y5346700D01*
X4686960Y5348528D01*
X4684268Y5362803D01*
X4679746Y5376672D01*
X4673549Y5389829D01*
X4665776Y5402122D01*
X4656480Y5413349D01*
X4645863Y5423306D01*
X4634077Y5431840D01*
X4621326Y5438851D01*
X4607814Y5444236D01*
X4593691Y5447842D01*
X4584700Y5448960D01*
G37*
G36*
X4584700Y5219039D02*
G01*
X4593691Y5220157D01*
X4607814Y5223764D01*
X4621326Y5229148D01*
X4634077Y5236159D01*
X4645863Y5244693D01*
X4656480Y5254650D01*
X4665776Y5265877D01*
X4673549Y5278170D01*
X4679746Y5291328D01*
X4684268Y5305196D01*
X4686960Y5319471D01*
X4687112Y5321300D01*
X4584700Y5321300D01*
G37*
G36*
X1784096Y4453432D02*
G01*
X1797913Y4454296D01*
X1811477Y4457039D01*
X1824634Y4461459D01*
X1837029Y4467606D01*
X1848561Y4475276D01*
X1858975Y4484420D01*
X1868119Y4494834D01*
X1875789Y4506366D01*
X1881936Y4518761D01*
X1886356Y4531918D01*
X1889099Y4545482D01*
X1889963Y4559300D01*
X1889099Y4573117D01*
X1886356Y4586681D01*
X1881936Y4599838D01*
X1875789Y4612233D01*
X1868119Y4623765D01*
X1858975Y4634179D01*
X1848561Y4643323D01*
X1837029Y4650994D01*
X1824634Y4657140D01*
X1811477Y4661560D01*
X1797913Y4664303D01*
X1784096Y4665167D01*
X1770278Y4664303D01*
X1756714Y4661560D01*
X1743557Y4657140D01*
X1731162Y4650994D01*
X1719630Y4643323D01*
X1709216Y4634179D01*
X1700072Y4623765D01*
X1692402Y4612233D01*
X1686255Y4599838D01*
X1681835Y4586681D01*
X1679092Y4573117D01*
X1678228Y4559300D01*
X1679092Y4545482D01*
X1681835Y4531918D01*
X1686255Y4518761D01*
X1692402Y4506366D01*
X1700072Y4494834D01*
X1709216Y4484420D01*
X1719630Y4475276D01*
X1731162Y4467606D01*
X1743557Y4461459D01*
X1756714Y4457039D01*
X1770278Y4454296D01*
G37*
G36*
X4305300Y4453432D02*
G01*
X4319117Y4454296D01*
X4332681Y4457039D01*
X4345838Y4461459D01*
X4358233Y4467606D01*
X4369765Y4475276D01*
X4380179Y4484420D01*
X4389323Y4494834D01*
X4396994Y4506366D01*
X4403140Y4518761D01*
X4407560Y4531918D01*
X4410303Y4545482D01*
X4411167Y4559300D01*
X4410303Y4573117D01*
X4407560Y4586681D01*
X4403140Y4599838D01*
X4396994Y4612233D01*
X4389323Y4623765D01*
X4380179Y4634179D01*
X4369765Y4643323D01*
X4358233Y4650994D01*
X4345838Y4657140D01*
X4332681Y4661560D01*
X4319117Y4664303D01*
X4305300Y4665167D01*
X4291482Y4664303D01*
X4277918Y4661560D01*
X4264761Y4657140D01*
X4252366Y4650994D01*
X4240834Y4643323D01*
X4230420Y4634179D01*
X4221276Y4623765D01*
X4213606Y4612233D01*
X4207459Y4599838D01*
X4203039Y4586681D01*
X4200296Y4573117D01*
X4199432Y4559300D01*
X4200296Y4545482D01*
X4203039Y4531918D01*
X4207459Y4518761D01*
X4213606Y4506366D01*
X4221276Y4494834D01*
X4230420Y4484420D01*
X4240834Y4475276D01*
X4252366Y4467606D01*
X4264761Y4461459D01*
X4277918Y4457039D01*
X4291482Y4454296D01*
G37*
G36*
X4559300Y5219039D02*
G01*
X4559300Y5321300D01*
X4456887Y5321300D01*
X4457039Y5319471D01*
X4459732Y5305196D01*
X4464253Y5291328D01*
X4470450Y5278170D01*
X4478223Y5265877D01*
X4487519Y5254650D01*
X4498136Y5244693D01*
X4509922Y5236159D01*
X4522673Y5229148D01*
X4536186Y5223764D01*
X4550308Y5220157D01*
G37*
G36*
X4818735Y5218328D02*
G01*
X4833264Y5218328D01*
X4847691Y5220157D01*
X4861814Y5223764D01*
X4875326Y5229148D01*
X4888077Y5236159D01*
X4899863Y5244693D01*
X4910480Y5254650D01*
X4919776Y5265877D01*
X4927549Y5278170D01*
X4933746Y5291328D01*
X4938268Y5305196D01*
X4940960Y5319471D01*
X4941874Y5334000D01*
X4940960Y5348528D01*
X4938268Y5362803D01*
X4933746Y5376672D01*
X4927549Y5389829D01*
X4919776Y5402122D01*
X4910480Y5413349D01*
X4899863Y5423306D01*
X4888077Y5431840D01*
X4875326Y5438851D01*
X4861814Y5444236D01*
X4847691Y5447842D01*
X4833264Y5449671D01*
X4818735Y5449671D01*
X4804308Y5447842D01*
X4790186Y5444236D01*
X4776673Y5438851D01*
X4763922Y5431840D01*
X4752136Y5423306D01*
X4741519Y5413349D01*
X4732223Y5402122D01*
X4724450Y5389829D01*
X4718253Y5376672D01*
X4713732Y5362803D01*
X4711039Y5348528D01*
X4710125Y5334000D01*
X4711039Y5319471D01*
X4713732Y5305196D01*
X4718253Y5291328D01*
X4724450Y5278170D01*
X4732223Y5265877D01*
X4741519Y5254650D01*
X4752136Y5244693D01*
X4763922Y5236159D01*
X4776673Y5229148D01*
X4790186Y5223764D01*
X4804308Y5220157D01*
G37*
G36*
X393700Y5185613D02*
G01*
X409854Y5186629D01*
X432714Y5189982D01*
X455218Y5195265D01*
X477164Y5202428D01*
X498500Y5211368D01*
X518972Y5222087D01*
X538480Y5234432D01*
X556869Y5248402D01*
X574040Y5263896D01*
X589838Y5280710D01*
X604215Y5298846D01*
X617016Y5318099D01*
X628142Y5338318D01*
X637540Y5359450D01*
X645109Y5381244D01*
X650849Y5403646D01*
X654710Y5426405D01*
X656590Y5448300D01*
X393700Y5448300D01*
G37*
G36*
X5473700Y5185613D02*
G01*
X5489854Y5186629D01*
X5512714Y5189982D01*
X5535218Y5195265D01*
X5557164Y5202428D01*
X5578500Y5211368D01*
X5598972Y5222087D01*
X5618480Y5234432D01*
X5636869Y5248402D01*
X5654040Y5263896D01*
X5669838Y5280710D01*
X5684215Y5298846D01*
X5697016Y5318099D01*
X5708142Y5338318D01*
X5717540Y5359450D01*
X5725109Y5381244D01*
X5730849Y5403646D01*
X5734710Y5426405D01*
X5736590Y5448300D01*
X5473700Y5448300D01*
G37*
G36*
X368300Y5185562D02*
G01*
X368300Y5448300D01*
X105664Y5448300D01*
X106070Y5437936D01*
X108966Y5414975D01*
X113792Y5392369D01*
X120446Y5370271D01*
X128981Y5348782D01*
X139242Y5328107D01*
X151180Y5308295D01*
X164795Y5289600D01*
X179882Y5272125D01*
X196392Y5255971D01*
X214172Y5241239D01*
X233171Y5228031D01*
X253187Y5216499D01*
X274066Y5206644D01*
X295757Y5198618D01*
X318008Y5192369D01*
X340715Y5188051D01*
X363677Y5185664D01*
G37*
G36*
X5448300Y5185562D02*
G01*
X5448300Y5448300D01*
X5185664Y5448300D01*
X5186070Y5437936D01*
X5188966Y5414975D01*
X5193792Y5392369D01*
X5200446Y5370271D01*
X5208981Y5348782D01*
X5219242Y5328107D01*
X5231180Y5308295D01*
X5244795Y5289600D01*
X5259882Y5272125D01*
X5276392Y5255971D01*
X5294172Y5241239D01*
X5313172Y5228031D01*
X5333187Y5216499D01*
X5354066Y5206644D01*
X5375757Y5198618D01*
X5398008Y5192369D01*
X5420715Y5188051D01*
X5443677Y5185664D01*
G37*
G36*
X5080000Y5023662D02*
G01*
X5089804Y5024526D01*
X5099253Y5027066D01*
X5108194Y5031181D01*
X5116220Y5036820D01*
X5123180Y5043779D01*
X5128818Y5051806D01*
X5132933Y5060746D01*
X5135473Y5070195D01*
X5136337Y5080000D01*
X5135473Y5089804D01*
X5132933Y5099253D01*
X5131866Y5101590D01*
X5130901Y5105908D01*
X5130901Y5562092D01*
X5131866Y5566410D01*
X5132933Y5568746D01*
X5135473Y5578195D01*
X5136337Y5588000D01*
X5135473Y5597804D01*
X5132933Y5607253D01*
X5128818Y5616194D01*
X5123180Y5624220D01*
X5116220Y5631180D01*
X5108194Y5636818D01*
X5099253Y5640933D01*
X5089804Y5643473D01*
X5080000Y5644337D01*
X5070195Y5643473D01*
X5060746Y5640933D01*
X5051806Y5636818D01*
X5043779Y5631180D01*
X5036820Y5624220D01*
X5031181Y5616194D01*
X5027066Y5607253D01*
X5024526Y5597804D01*
X5023662Y5588000D01*
X5024526Y5578195D01*
X5027066Y5568746D01*
X5028133Y5566410D01*
X5029098Y5562092D01*
X5029098Y5105908D01*
X5028133Y5101590D01*
X5027066Y5099253D01*
X5024526Y5089804D01*
X5023662Y5080000D01*
X5024526Y5070195D01*
X5027066Y5060746D01*
X5031181Y5051806D01*
X5036820Y5043779D01*
X5043779Y5036820D01*
X5051806Y5031181D01*
X5060746Y5027066D01*
X5070195Y5024526D01*
G37*

%LPD*%
D10*
X2739897Y5668010D02*
G01*
X2739897Y5671312D01*
X2736850Y5677662D01*
X2733547Y5680963D01*
X2727197Y5684012D01*
X2714497Y5684012D01*
X2708147Y5680963D01*
X2705100Y5677662D01*
X2701797Y5671312D01*
X2701797Y5664962D01*
X2705100Y5658612D01*
X2711450Y5648960D01*
X2743200Y5617210D01*
X2698750Y5617210D01*
D11*
X2921000Y1143005D02*
G01*
X2921000Y2857500D01*
X2336800Y1143000D02*
G01*
X2336800Y2857500D01*
D12*
X3276600Y3238500D02*
G01*
X3276600Y4406900D01*
X4699000Y1016000D02*
G01*
X4699000Y4406900D01*
X4699000Y5080000D01*
D11*
X2819400Y4343400D02*
G01*
X2819400Y4025900D01*
X1669900Y2730500D02*
G01*
X1669895Y3492500D01*
X3425700Y4784290D02*
G01*
X3425700Y4203700D01*
X2663700Y4784290D02*
G01*
X2663700Y4406900D01*
X1270000Y4406900D02*
G01*
X1270000Y3492500D01*
X2409700Y4784290D02*
G01*
X2409700Y4343400D01*
X1193800Y4343400D02*
G01*
X1193800Y3238500D01*
X3679700Y4784290D02*
G01*
X3679700Y4279900D01*
X1854200Y4279900D02*
G01*
X1854200Y3365500D01*
X3835400Y4025900D02*
G01*
X3835400Y4203700D01*
X1778000Y4203700D02*
G01*
X1778000Y3111500D01*
X1669897Y3492500D02*
G01*
X1669897Y4388002D01*
X1600200Y4457700D01*
X1600200Y4635500D01*
X1676400Y4711700D01*
X1676400Y5080000D01*
X3149600Y3365500D02*
G01*
X3149600Y3784600D01*
X1587500Y3784600D02*
G01*
X1587500Y3492505D01*
X3149600Y2730500D02*
G01*
X3149600Y3365500D01*
X1968500Y1143000D02*
G01*
X1968500Y3340100D01*
X4241800Y3848100D02*
G01*
X4241800Y2159000D01*
X3276600Y3111500D02*
G01*
X3276600Y3238500D01*
X2768600Y3365500D02*
G01*
X2768600Y2984500D01*
X2768600Y3848100D02*
G01*
X2768600Y3365500D01*
D12*
X5080000Y5080000D02*
G01*
X5080000Y5588000D01*
D11*
X4445000Y1143005D02*
G01*
X4445000Y3175000D01*
X1650994Y889005D02*
G01*
X1651000Y1016000D01*
X2413000Y1016000D02*
G01*
X2413000Y889012D01*
X3175000Y1016000D02*
G01*
X3175000Y889005D01*
X3937000Y1016000D02*
G01*
X3937000Y889005D01*
X4699000Y1016000D02*
G01*
X4699000Y889005D01*
X3683000Y1143005D02*
G01*
X3708400Y1168405D01*
X3708400Y3492500D01*
D12*
X4826000Y5588000D02*
G01*
X4826000Y5727700D01*
D13*
G01*
X1651000Y889000D03*
G01*
X1397000Y1143000D03*
G01*
X1143000Y889000D03*
G01*
X2413000Y889000D03*
G01*
X2159000Y1143000D03*
G01*
X1905000Y889000D03*
G01*
X3175000Y889000D03*
G01*
X2921000Y1143000D03*
G01*
X2667000Y889000D03*
G01*
X3937000Y889000D03*
G01*
X3683000Y1143000D03*
G01*
X3429000Y889000D03*
G01*
X4699000Y889000D03*
G01*
X4445000Y1143000D03*
G01*
X4191000Y889000D03*
D14*
G01*
X5461000Y381000D03*
G01*
X381000Y381000D03*
G01*
X381000Y5461000D03*
G01*
X5461000Y5461000D03*
D15*
G01*
X4826000Y5588000D03*
G01*
X4826000Y5334000D03*
G01*
X4572000Y5334000D03*
G01*
X4572000Y5588000D03*
D16*
G01*
X5080000Y3421100D03*
G01*
X5080000Y4021099D03*
G01*
X5080000Y3721100D03*
D17*
G01*
X3933697Y4784293D03*
G01*
X3679697Y4784293D03*
G01*
X3171697Y4784293D03*
G01*
X2917697Y4784293D03*
G01*
X2663697Y4784293D03*
G01*
X2409697Y4784293D03*
G01*
X2155697Y4784293D03*
D16*
G01*
X5075427Y2155139D03*
G01*
X5075427Y2455138D03*
G01*
X5075427Y1855139D03*
D17*
G01*
X3425697Y4784293D03*
D18*
G01*
X5080000Y5588000D03*
G01*
X4826000Y5727700D03*
G01*
X1968500Y3340100D03*
G01*
X2336800Y2857500D03*
G01*
X2921000Y2857500D03*
G01*
X3708400Y3492500D03*
G01*
X4699000Y1016000D03*
G01*
X3937000Y1016000D03*
G01*
X3175000Y1016000D03*
G01*
X2413000Y1016000D03*
G01*
X1651000Y1016000D03*
G01*
X4445000Y3175000D03*
G01*
X2768600Y3848100D03*
G01*
X2768600Y3365500D03*
G01*
X2768600Y2984500D03*
G01*
X3276600Y3111500D03*
G01*
X3276600Y3238500D03*
G01*
X4695697Y5080000D03*
G01*
X5080000Y5080000D03*
G01*
X4241800Y3848100D03*
G01*
X4241800Y2159000D03*
G01*
X4699000Y1855139D03*
G01*
X1968500Y1143000D03*
G01*
X3149600Y2730500D03*
G01*
X3149600Y3365500D03*
G01*
X1587500Y3784600D03*
G01*
X1587500Y3492500D03*
G01*
X3149600Y3784600D03*
G01*
X1669897Y3492500D03*
G01*
X1676400Y5080000D03*
G01*
X4699000Y2730500D03*
G01*
X4699000Y3619500D03*
G01*
X1778000Y4203700D03*
G01*
X1778000Y3111500D03*
G01*
X3835400Y4025900D03*
G01*
X3835400Y4203700D03*
G01*
X3429000Y4203700D03*
G01*
X1854200Y4279900D03*
G01*
X1854200Y3365500D03*
G01*
X3679697Y4279900D03*
G01*
X1193800Y4343400D03*
G01*
X1193800Y3238500D03*
G01*
X2409697Y4343400D03*
G01*
X1270000Y4406900D03*
G01*
X1270000Y3492500D03*
G01*
X2663697Y4406900D03*
G01*
X3771900Y3708400D03*
G01*
X2946400Y3365500D03*
G01*
X2324100Y3708400D03*
G01*
X1669897Y2730500D03*
G01*
X2819400Y4343400D03*
G01*
X2819400Y4025900D03*
G01*
X1917700Y3644900D03*
G01*
X4699000Y4406900D03*
G01*
X3276600Y4406900D03*
G01*
X2336800Y1143000D03*
G01*
X1930400Y3454400D03*
G01*
X1866900Y3251200D03*
M02*
