G04 Layer: TopLayer*
G04 Panelize: , Column: 2, Row: 2, Board Size: 58.42mm x 58.42mm, Panelized Board Size: 118.84mm x 118.84mm*
G04 EasyEDA v6.5.34, 2023-09-06 22:53:46*
G04 8447068ee38c4666810ae06fb5c4ba43,5a6b42c53f6a479593ecc07194224c93,10*
G04 Gerber Generator version 0.2*
G04 Scale: 100 percent, Rotated: No, Reflected: No *
G04 Dimensions in millimeters *
G04 leading zeros omitted , absolute positions ,4 integer and 5 decimal *
%FSLAX45Y45*%
%MOMM*%

%AMMACRO1*21,1,$1,$2,0,0,$3*%
%ADD10C,0.1524*%
%ADD11C,0.2540*%
%ADD12C,0.5000*%
%ADD13O,1.7999964X0.5999988*%
%ADD14R,0.8999X1.0000*%
%ADD15R,1.0000X1.1000*%
%ADD16O,2.2999954X0.5999988*%
%ADD17R,0.8000X0.9000*%
%ADD18R,0.9500X1.1500*%
%ADD19MACRO1,0.864X0.8065X90.0000*%
%ADD20MACRO1,0.864X0.8065X-90.0000*%
%ADD21C,1.0000*%
%ADD22C,5.0000*%
%ADD23C,1.8000*%
%ADD24C,1.5240*%
%ADD25C,2.0000*%
%ADD26C,0.6096*%
%ADD27C,0.0162*%

%LPD*%
G36*
X36068Y25908D02*
G01*
X32156Y26670D01*
X28905Y28905D01*
X26670Y32156D01*
X25908Y36068D01*
X25908Y5805932D01*
X26670Y5809792D01*
X28905Y5813094D01*
X32156Y5815330D01*
X36068Y5816092D01*
X2555240Y5815888D01*
X2559151Y5815076D01*
X2562402Y5812891D01*
X2564638Y5809589D01*
X2565400Y5805728D01*
X2566162Y5809589D01*
X2568397Y5812891D01*
X2571648Y5815076D01*
X2575560Y5815888D01*
X3050540Y5815838D01*
X3054451Y5815076D01*
X3057702Y5812840D01*
X3059938Y5809538D01*
X3060700Y5805678D01*
X3061462Y5809538D01*
X3063697Y5812840D01*
X3066948Y5815076D01*
X3070860Y5815838D01*
X5805932Y5815584D01*
X5809843Y5814822D01*
X5813094Y5812637D01*
X5815330Y5809335D01*
X5816092Y5805424D01*
X5816092Y36068D01*
X5815330Y32156D01*
X5813094Y28905D01*
X5809843Y26670D01*
X5805932Y25908D01*
G37*

%LPC*%
G36*
X4045102Y3467100D02*
G01*
X4098290Y3467100D01*
X4098290Y3498850D01*
X4097578Y3505149D01*
X4095699Y3510635D01*
X4092600Y3515512D01*
X4088485Y3519627D01*
X4083608Y3522675D01*
X4078122Y3524605D01*
X4071823Y3525316D01*
X4045102Y3525316D01*
G37*
G36*
X5448300Y105562D02*
G01*
X5448300Y368300D01*
X5185664Y368300D01*
X5186070Y357936D01*
X5188966Y334975D01*
X5193792Y312369D01*
X5200446Y290271D01*
X5208981Y268782D01*
X5219242Y248107D01*
X5231180Y228295D01*
X5244795Y209600D01*
X5259882Y192125D01*
X5276392Y175971D01*
X5294172Y161239D01*
X5313172Y148031D01*
X5333187Y136499D01*
X5354066Y126644D01*
X5375757Y118618D01*
X5398008Y112369D01*
X5420715Y108051D01*
X5443677Y105664D01*
G37*
G36*
X5473700Y105613D02*
G01*
X5489854Y106629D01*
X5512714Y109982D01*
X5535218Y115265D01*
X5557164Y122428D01*
X5578500Y131368D01*
X5598972Y142087D01*
X5618480Y154432D01*
X5636869Y168402D01*
X5654040Y183896D01*
X5669838Y200710D01*
X5684215Y218846D01*
X5697016Y238099D01*
X5708142Y258317D01*
X5717540Y279450D01*
X5725109Y301244D01*
X5730849Y323646D01*
X5734710Y346405D01*
X5736590Y368300D01*
X5473700Y368300D01*
G37*
G36*
X393700Y105613D02*
G01*
X409854Y106629D01*
X432714Y109982D01*
X455218Y115265D01*
X477164Y122428D01*
X498500Y131368D01*
X518972Y142087D01*
X538480Y154432D01*
X556869Y168402D01*
X574040Y183896D01*
X589838Y200710D01*
X604215Y218846D01*
X617016Y238099D01*
X628142Y258317D01*
X637540Y279450D01*
X645109Y301244D01*
X650849Y323646D01*
X654710Y346405D01*
X656590Y368300D01*
X393700Y368300D01*
G37*
G36*
X5185664Y393700D02*
G01*
X5448300Y393700D01*
X5448300Y656437D01*
X5443677Y656336D01*
X5420715Y653948D01*
X5398008Y649630D01*
X5375757Y643382D01*
X5354066Y635355D01*
X5333187Y625500D01*
X5313172Y613968D01*
X5294172Y600760D01*
X5276392Y586028D01*
X5259882Y569874D01*
X5244795Y552348D01*
X5231180Y533704D01*
X5219242Y513892D01*
X5208981Y493217D01*
X5200446Y471728D01*
X5193792Y449630D01*
X5188966Y427024D01*
X5186070Y404063D01*
G37*
G36*
X105664Y393700D02*
G01*
X368300Y393700D01*
X368300Y656437D01*
X363677Y656336D01*
X340715Y653948D01*
X318008Y649630D01*
X295757Y643382D01*
X274066Y635355D01*
X253187Y625500D01*
X233171Y613968D01*
X214172Y600760D01*
X196392Y586028D01*
X179882Y569874D01*
X164795Y552348D01*
X151180Y533704D01*
X139242Y513892D01*
X128981Y493217D01*
X120446Y471728D01*
X113792Y449630D01*
X108966Y427024D01*
X106070Y404063D01*
G37*
G36*
X5473700Y393700D02*
G01*
X5736590Y393700D01*
X5734710Y415594D01*
X5730849Y438353D01*
X5725109Y460756D01*
X5717540Y482549D01*
X5708142Y503682D01*
X5697016Y523900D01*
X5684215Y543153D01*
X5669838Y561289D01*
X5654040Y578104D01*
X5636869Y593598D01*
X5618480Y607568D01*
X5598972Y619912D01*
X5578500Y630631D01*
X5557164Y639572D01*
X5535218Y646734D01*
X5512714Y652018D01*
X5489854Y655370D01*
X5473700Y656386D01*
G37*
G36*
X393700Y393700D02*
G01*
X656590Y393700D01*
X654710Y415594D01*
X650849Y438353D01*
X645109Y460756D01*
X637540Y482549D01*
X628142Y503682D01*
X617016Y523900D01*
X604215Y543153D01*
X589838Y561289D01*
X574040Y578104D01*
X556869Y593598D01*
X538480Y607568D01*
X518972Y619912D01*
X498500Y630631D01*
X477164Y639572D01*
X455218Y646734D01*
X432714Y652018D01*
X409854Y655370D01*
X393700Y656386D01*
G37*
G36*
X1145895Y813155D02*
G01*
X1157427Y814527D01*
X1168654Y817575D01*
X1179271Y822350D01*
X1188974Y828649D01*
X1197660Y836371D01*
X1205077Y845362D01*
X1211021Y855319D01*
X1215339Y866089D01*
X1217980Y877417D01*
X1218895Y889000D01*
X1217980Y900582D01*
X1215339Y911910D01*
X1211021Y922680D01*
X1205077Y932637D01*
X1197660Y941628D01*
X1188974Y949350D01*
X1179271Y955649D01*
X1168654Y960424D01*
X1157427Y963472D01*
X1145895Y964844D01*
X1134313Y964387D01*
X1122883Y962152D01*
X1111961Y958240D01*
X1101750Y952703D01*
X1092504Y945642D01*
X1084478Y937260D01*
X1077772Y927760D01*
X1072642Y917346D01*
X1069136Y906271D01*
X1067358Y894791D01*
X1067358Y883208D01*
X1069136Y871728D01*
X1072642Y860653D01*
X1077772Y850239D01*
X1084478Y840740D01*
X1092504Y832358D01*
X1101750Y825296D01*
X1111961Y819759D01*
X1122883Y815848D01*
X1134313Y813612D01*
G37*
G36*
X1653895Y813155D02*
G01*
X1665427Y814527D01*
X1676654Y817575D01*
X1687271Y822350D01*
X1696974Y828649D01*
X1705660Y836371D01*
X1713077Y845362D01*
X1719021Y855319D01*
X1723339Y866089D01*
X1725980Y877417D01*
X1726895Y889000D01*
X1725980Y900582D01*
X1723339Y911910D01*
X1719021Y922680D01*
X1713077Y932637D01*
X1705660Y941628D01*
X1696974Y949350D01*
X1687169Y955700D01*
X1684477Y958291D01*
X1682851Y961593D01*
X1682546Y965301D01*
X1683613Y968857D01*
X1685899Y971803D01*
X1689201Y974801D01*
X1692351Y976731D01*
X1696008Y977392D01*
X1869236Y977392D01*
X1873554Y976426D01*
X1877060Y973683D01*
X1879092Y969721D01*
X1879193Y965301D01*
X1877415Y961237D01*
X1874062Y958291D01*
X1863750Y952703D01*
X1854504Y945642D01*
X1846478Y937260D01*
X1839772Y927760D01*
X1834642Y917346D01*
X1831136Y906271D01*
X1829358Y894791D01*
X1829358Y883208D01*
X1831136Y871728D01*
X1834642Y860653D01*
X1839772Y850239D01*
X1846478Y840740D01*
X1854504Y832358D01*
X1863750Y825296D01*
X1873961Y819759D01*
X1884883Y815848D01*
X1896313Y813612D01*
X1907895Y813155D01*
X1919427Y814527D01*
X1930654Y817575D01*
X1941271Y822350D01*
X1950974Y828649D01*
X1959660Y836371D01*
X1967077Y845362D01*
X1973021Y855319D01*
X1977339Y866089D01*
X1979980Y877417D01*
X1980895Y889000D01*
X1979980Y900582D01*
X1977339Y911910D01*
X1973021Y922680D01*
X1967077Y932637D01*
X1959660Y941628D01*
X1950974Y949350D01*
X1941271Y955649D01*
X1936140Y957935D01*
X1932889Y960221D01*
X1930806Y963523D01*
X1930095Y967384D01*
X1930907Y971245D01*
X1933143Y974496D01*
X1936445Y976630D01*
X1940255Y977392D01*
X2367991Y977392D01*
X2371648Y976731D01*
X2374747Y974801D01*
X2378252Y971702D01*
X2380589Y968654D01*
X2381656Y964895D01*
X2381199Y961034D01*
X2379370Y957681D01*
X2376373Y955192D01*
X2371750Y952703D01*
X2362504Y945642D01*
X2354478Y937260D01*
X2347772Y927760D01*
X2342642Y917346D01*
X2339136Y906271D01*
X2337358Y894791D01*
X2337358Y883208D01*
X2339136Y871728D01*
X2342642Y860653D01*
X2347772Y850239D01*
X2354478Y840740D01*
X2362504Y832358D01*
X2371750Y825296D01*
X2381961Y819759D01*
X2392883Y815848D01*
X2404313Y813612D01*
X2415895Y813155D01*
X2427427Y814527D01*
X2438654Y817575D01*
X2449271Y822350D01*
X2458974Y828649D01*
X2467660Y836371D01*
X2475077Y845362D01*
X2481021Y855319D01*
X2485339Y866089D01*
X2487980Y877417D01*
X2488895Y889000D01*
X2487980Y900582D01*
X2485339Y911910D01*
X2481021Y922680D01*
X2475077Y932637D01*
X2467660Y941628D01*
X2458974Y949350D01*
X2449169Y955700D01*
X2446477Y958291D01*
X2444851Y961593D01*
X2444546Y965301D01*
X2445613Y968857D01*
X2447899Y971803D01*
X2451201Y974801D01*
X2454351Y976731D01*
X2458008Y977392D01*
X2631236Y977392D01*
X2635554Y976426D01*
X2639060Y973683D01*
X2641092Y969721D01*
X2641193Y965301D01*
X2639415Y961237D01*
X2636062Y958291D01*
X2625750Y952703D01*
X2616504Y945642D01*
X2608478Y937260D01*
X2601772Y927760D01*
X2596642Y917346D01*
X2593136Y906271D01*
X2591358Y894791D01*
X2591358Y883208D01*
X2593136Y871728D01*
X2596642Y860653D01*
X2601772Y850239D01*
X2608478Y840740D01*
X2616504Y832358D01*
X2625750Y825296D01*
X2635961Y819759D01*
X2646883Y815848D01*
X2658313Y813612D01*
X2669895Y813155D01*
X2681427Y814527D01*
X2692654Y817575D01*
X2703271Y822350D01*
X2712974Y828649D01*
X2721660Y836371D01*
X2729077Y845362D01*
X2735021Y855319D01*
X2739339Y866089D01*
X2741980Y877417D01*
X2742895Y889000D01*
X2741980Y900582D01*
X2739339Y911910D01*
X2735021Y922680D01*
X2729077Y932637D01*
X2721660Y941628D01*
X2712974Y949350D01*
X2703271Y955649D01*
X2698140Y957935D01*
X2694889Y960221D01*
X2692806Y963523D01*
X2692095Y967384D01*
X2692908Y971245D01*
X2695143Y974496D01*
X2698445Y976630D01*
X2702255Y977392D01*
X3129991Y977392D01*
X3133648Y976731D01*
X3136747Y974801D01*
X3140252Y971702D01*
X3142589Y968654D01*
X3143656Y964895D01*
X3143199Y961034D01*
X3141370Y957681D01*
X3138373Y955192D01*
X3133750Y952703D01*
X3124504Y945642D01*
X3116478Y937260D01*
X3109772Y927760D01*
X3104642Y917346D01*
X3101136Y906271D01*
X3099358Y894791D01*
X3099358Y883208D01*
X3101136Y871728D01*
X3104642Y860653D01*
X3109772Y850239D01*
X3116478Y840740D01*
X3124504Y832358D01*
X3133750Y825296D01*
X3143961Y819759D01*
X3154883Y815848D01*
X3166313Y813612D01*
X3177895Y813155D01*
X3189427Y814527D01*
X3200654Y817575D01*
X3211271Y822350D01*
X3220974Y828649D01*
X3229660Y836371D01*
X3237077Y845362D01*
X3243021Y855319D01*
X3247339Y866089D01*
X3249980Y877417D01*
X3250895Y889000D01*
X3249980Y900582D01*
X3247339Y911910D01*
X3243021Y922680D01*
X3237077Y932637D01*
X3229660Y941628D01*
X3220974Y949350D01*
X3211169Y955700D01*
X3208477Y958291D01*
X3206851Y961593D01*
X3206546Y965301D01*
X3207613Y968857D01*
X3209899Y971803D01*
X3213201Y974801D01*
X3216351Y976731D01*
X3220008Y977392D01*
X3393236Y977392D01*
X3397554Y976426D01*
X3401060Y973683D01*
X3403092Y969721D01*
X3403193Y965301D01*
X3401415Y961237D01*
X3398062Y958291D01*
X3387750Y952703D01*
X3378504Y945642D01*
X3370478Y937260D01*
X3363772Y927760D01*
X3358642Y917346D01*
X3355136Y906271D01*
X3353358Y894791D01*
X3353358Y883208D01*
X3355136Y871728D01*
X3358642Y860653D01*
X3363772Y850239D01*
X3370478Y840740D01*
X3378504Y832358D01*
X3387750Y825296D01*
X3397961Y819759D01*
X3408883Y815848D01*
X3420313Y813612D01*
X3431895Y813155D01*
X3443427Y814527D01*
X3454654Y817575D01*
X3465271Y822350D01*
X3474974Y828649D01*
X3483660Y836371D01*
X3491077Y845362D01*
X3497021Y855319D01*
X3501339Y866089D01*
X3503980Y877417D01*
X3504895Y889000D01*
X3503980Y900582D01*
X3501339Y911910D01*
X3497021Y922680D01*
X3491077Y932637D01*
X3483660Y941628D01*
X3474974Y949350D01*
X3465271Y955649D01*
X3460140Y957935D01*
X3456889Y960221D01*
X3454806Y963523D01*
X3454095Y967384D01*
X3454908Y971245D01*
X3457143Y974496D01*
X3460445Y976630D01*
X3464255Y977392D01*
X3891991Y977392D01*
X3895648Y976731D01*
X3898747Y974801D01*
X3902252Y971702D01*
X3904589Y968654D01*
X3905656Y964895D01*
X3905199Y961034D01*
X3903370Y957681D01*
X3900373Y955192D01*
X3895750Y952703D01*
X3886504Y945642D01*
X3878478Y937260D01*
X3871772Y927760D01*
X3866642Y917346D01*
X3863136Y906271D01*
X3861358Y894791D01*
X3861358Y883208D01*
X3863136Y871728D01*
X3866642Y860653D01*
X3871772Y850239D01*
X3878478Y840740D01*
X3886504Y832358D01*
X3895750Y825296D01*
X3905961Y819759D01*
X3916883Y815848D01*
X3928313Y813612D01*
X3939895Y813155D01*
X3951427Y814527D01*
X3962654Y817575D01*
X3973271Y822350D01*
X3982974Y828649D01*
X3991660Y836371D01*
X3999077Y845362D01*
X4005021Y855319D01*
X4009339Y866089D01*
X4011980Y877417D01*
X4012895Y889000D01*
X4011980Y900582D01*
X4009339Y911910D01*
X4005021Y922680D01*
X3999077Y932637D01*
X3991660Y941628D01*
X3982974Y949350D01*
X3973169Y955700D01*
X3970477Y958291D01*
X3968851Y961593D01*
X3968546Y965301D01*
X3969613Y968857D01*
X3971899Y971803D01*
X3975201Y974801D01*
X3978351Y976731D01*
X3982008Y977392D01*
X4155236Y977392D01*
X4159554Y976426D01*
X4163060Y973683D01*
X4165092Y969721D01*
X4165193Y965301D01*
X4163415Y961237D01*
X4160062Y958291D01*
X4149750Y952703D01*
X4140504Y945642D01*
X4132478Y937260D01*
X4125772Y927760D01*
X4120642Y917346D01*
X4117136Y906271D01*
X4116425Y901700D01*
X4178300Y901700D01*
X4178300Y967232D01*
X4179062Y971143D01*
X4181297Y974394D01*
X4184548Y976630D01*
X4188460Y977392D01*
X4193540Y977392D01*
X4197451Y976630D01*
X4200702Y974394D01*
X4202938Y971143D01*
X4203700Y967232D01*
X4203700Y901700D01*
X4265726Y901700D01*
X4263339Y911910D01*
X4259021Y922680D01*
X4253077Y932637D01*
X4245660Y941628D01*
X4236974Y949350D01*
X4227271Y955649D01*
X4222140Y957935D01*
X4218889Y960221D01*
X4216806Y963523D01*
X4216095Y967384D01*
X4216908Y971245D01*
X4219143Y974496D01*
X4222445Y976630D01*
X4226255Y977392D01*
X4653991Y977392D01*
X4657648Y976731D01*
X4660747Y974801D01*
X4664252Y971702D01*
X4666589Y968654D01*
X4667656Y964895D01*
X4667199Y961034D01*
X4665370Y957681D01*
X4662373Y955192D01*
X4657750Y952703D01*
X4648504Y945642D01*
X4640478Y937260D01*
X4633772Y927760D01*
X4628642Y917346D01*
X4625136Y906271D01*
X4623358Y894791D01*
X4623358Y883208D01*
X4625136Y871728D01*
X4628642Y860653D01*
X4633772Y850239D01*
X4640478Y840740D01*
X4648504Y832358D01*
X4657750Y825296D01*
X4667961Y819759D01*
X4678883Y815848D01*
X4690313Y813612D01*
X4701895Y813155D01*
X4713427Y814527D01*
X4724654Y817575D01*
X4735271Y822350D01*
X4744974Y828649D01*
X4753660Y836371D01*
X4761077Y845362D01*
X4767021Y855319D01*
X4771339Y866089D01*
X4773980Y877417D01*
X4774895Y889000D01*
X4773980Y900582D01*
X4771339Y911910D01*
X4767021Y922680D01*
X4761077Y932637D01*
X4753660Y941628D01*
X4744974Y949350D01*
X4735169Y955700D01*
X4732324Y958494D01*
X4730750Y962101D01*
X4730699Y966063D01*
X4732121Y969721D01*
X4742180Y979779D01*
X4747818Y987806D01*
X4751933Y996746D01*
X4754473Y1006195D01*
X4755337Y1016000D01*
X4754473Y1025804D01*
X4751933Y1035253D01*
X4747818Y1044194D01*
X4742180Y1052220D01*
X4735220Y1059180D01*
X4727194Y1064818D01*
X4718253Y1068933D01*
X4708804Y1071473D01*
X4699000Y1072337D01*
X4689195Y1071473D01*
X4679746Y1068933D01*
X4670806Y1064818D01*
X4662779Y1059180D01*
X4661204Y1057605D01*
X4657902Y1055370D01*
X4653991Y1054608D01*
X4480255Y1054608D01*
X4476445Y1055370D01*
X4473143Y1057503D01*
X4470908Y1060754D01*
X4470095Y1064615D01*
X4470806Y1068476D01*
X4472889Y1071778D01*
X4476140Y1074013D01*
X4481271Y1076350D01*
X4490974Y1082649D01*
X4499660Y1090371D01*
X4507077Y1099362D01*
X4513021Y1109319D01*
X4517339Y1120089D01*
X4519980Y1131417D01*
X4520895Y1143000D01*
X4519980Y1154582D01*
X4517339Y1165910D01*
X4513021Y1176680D01*
X4507077Y1186637D01*
X4499660Y1195628D01*
X4490974Y1203350D01*
X4481271Y1209649D01*
X4470654Y1214424D01*
X4459427Y1217472D01*
X4447895Y1218844D01*
X4436313Y1218387D01*
X4424883Y1216152D01*
X4413961Y1212240D01*
X4403750Y1206703D01*
X4394504Y1199642D01*
X4386478Y1191260D01*
X4379772Y1181760D01*
X4374642Y1171346D01*
X4371136Y1160272D01*
X4369358Y1148791D01*
X4369358Y1137208D01*
X4371136Y1125728D01*
X4374642Y1114653D01*
X4379772Y1104239D01*
X4386478Y1094740D01*
X4394504Y1086358D01*
X4403750Y1079296D01*
X4414062Y1073708D01*
X4417415Y1070762D01*
X4419193Y1066698D01*
X4419092Y1062278D01*
X4417060Y1058316D01*
X4413554Y1055573D01*
X4409236Y1054608D01*
X3982008Y1054608D01*
X3978097Y1055370D01*
X3974795Y1057605D01*
X3973220Y1059180D01*
X3965194Y1064818D01*
X3956253Y1068933D01*
X3946804Y1071473D01*
X3937000Y1072337D01*
X3927195Y1071473D01*
X3917746Y1068933D01*
X3908806Y1064818D01*
X3900779Y1059180D01*
X3899204Y1057605D01*
X3895902Y1055370D01*
X3891991Y1054608D01*
X3718255Y1054608D01*
X3714445Y1055370D01*
X3711143Y1057503D01*
X3708908Y1060754D01*
X3708095Y1064615D01*
X3708806Y1068476D01*
X3710889Y1071778D01*
X3714140Y1074013D01*
X3719271Y1076350D01*
X3728974Y1082649D01*
X3737660Y1090371D01*
X3745077Y1099362D01*
X3751021Y1109319D01*
X3755339Y1120089D01*
X3757980Y1131417D01*
X3758895Y1143000D01*
X3757980Y1154582D01*
X3755339Y1165910D01*
X3751021Y1176680D01*
X3745077Y1186637D01*
X3737660Y1195628D01*
X3728974Y1203350D01*
X3719271Y1209649D01*
X3708654Y1214424D01*
X3697427Y1217472D01*
X3685895Y1218844D01*
X3674313Y1218387D01*
X3662883Y1216152D01*
X3651961Y1212240D01*
X3641750Y1206703D01*
X3632504Y1199642D01*
X3624478Y1191260D01*
X3617772Y1181760D01*
X3612642Y1171346D01*
X3609136Y1160272D01*
X3607358Y1148791D01*
X3607358Y1137208D01*
X3609136Y1125728D01*
X3612642Y1114653D01*
X3617772Y1104239D01*
X3624478Y1094740D01*
X3632504Y1086358D01*
X3641750Y1079296D01*
X3652062Y1073708D01*
X3655415Y1070762D01*
X3657193Y1066698D01*
X3657092Y1062278D01*
X3655060Y1058316D01*
X3651554Y1055573D01*
X3647236Y1054608D01*
X3220008Y1054608D01*
X3216097Y1055370D01*
X3212795Y1057605D01*
X3211220Y1059180D01*
X3203194Y1064818D01*
X3194253Y1068933D01*
X3184804Y1071473D01*
X3175000Y1072337D01*
X3165195Y1071473D01*
X3155746Y1068933D01*
X3146806Y1064818D01*
X3138779Y1059180D01*
X3137204Y1057605D01*
X3133902Y1055370D01*
X3129991Y1054608D01*
X2956255Y1054608D01*
X2952445Y1055370D01*
X2949143Y1057503D01*
X2946908Y1060754D01*
X2946095Y1064615D01*
X2946806Y1068476D01*
X2948889Y1071778D01*
X2952140Y1074013D01*
X2957271Y1076350D01*
X2966974Y1082649D01*
X2975660Y1090371D01*
X2983077Y1099362D01*
X2989021Y1109319D01*
X2993339Y1120089D01*
X2995980Y1131417D01*
X2996895Y1143000D01*
X2995980Y1154582D01*
X2993339Y1165910D01*
X2989021Y1176680D01*
X2983077Y1186637D01*
X2975660Y1195628D01*
X2966974Y1203350D01*
X2957271Y1209649D01*
X2946654Y1214424D01*
X2935427Y1217472D01*
X2923895Y1218844D01*
X2912313Y1218387D01*
X2900883Y1216152D01*
X2889961Y1212240D01*
X2879750Y1206703D01*
X2870504Y1199642D01*
X2862478Y1191260D01*
X2855772Y1181760D01*
X2850642Y1171346D01*
X2847136Y1160272D01*
X2845358Y1148791D01*
X2845358Y1137208D01*
X2847136Y1125728D01*
X2850642Y1114653D01*
X2855772Y1104239D01*
X2862478Y1094740D01*
X2870504Y1086358D01*
X2879750Y1079296D01*
X2890062Y1073708D01*
X2893415Y1070762D01*
X2895193Y1066698D01*
X2895092Y1062278D01*
X2893060Y1058316D01*
X2889554Y1055573D01*
X2885236Y1054608D01*
X2458008Y1054608D01*
X2454097Y1055370D01*
X2450795Y1057605D01*
X2449220Y1059180D01*
X2441194Y1064818D01*
X2432253Y1068933D01*
X2422804Y1071473D01*
X2413000Y1072337D01*
X2403195Y1071473D01*
X2393746Y1068933D01*
X2384806Y1064818D01*
X2376779Y1059180D01*
X2375204Y1057605D01*
X2371902Y1055370D01*
X2367991Y1054608D01*
X2194255Y1054608D01*
X2190445Y1055370D01*
X2187143Y1057503D01*
X2184908Y1060754D01*
X2184095Y1064615D01*
X2184806Y1068476D01*
X2186889Y1071778D01*
X2190140Y1074013D01*
X2195271Y1076350D01*
X2204974Y1082649D01*
X2213660Y1090371D01*
X2223363Y1102055D01*
X2226411Y1103782D01*
X2229866Y1104392D01*
X2291791Y1104392D01*
X2295702Y1103630D01*
X2299004Y1101445D01*
X2300579Y1099820D01*
X2308606Y1094181D01*
X2317546Y1090066D01*
X2326995Y1087526D01*
X2336800Y1086662D01*
X2346604Y1087526D01*
X2356053Y1090066D01*
X2364994Y1094181D01*
X2373020Y1099820D01*
X2379980Y1106779D01*
X2385618Y1114806D01*
X2389733Y1123746D01*
X2392273Y1133195D01*
X2393137Y1143000D01*
X2392273Y1152804D01*
X2389733Y1162253D01*
X2385618Y1171194D01*
X2379980Y1179220D01*
X2373020Y1186180D01*
X2364994Y1191818D01*
X2356053Y1195933D01*
X2346604Y1198473D01*
X2336800Y1199337D01*
X2326995Y1198473D01*
X2317546Y1195933D01*
X2308606Y1191818D01*
X2300579Y1186180D01*
X2299004Y1184605D01*
X2295702Y1182370D01*
X2291791Y1181608D01*
X2229815Y1181608D01*
X2226411Y1182217D01*
X2223363Y1183944D01*
X2213660Y1195628D01*
X2204974Y1203350D01*
X2195271Y1209649D01*
X2184654Y1214424D01*
X2173427Y1217472D01*
X2161895Y1218844D01*
X2150313Y1218387D01*
X2138883Y1216152D01*
X2127961Y1212240D01*
X2117750Y1206703D01*
X2108504Y1199642D01*
X2100478Y1191260D01*
X2093772Y1181760D01*
X2088642Y1171346D01*
X2085136Y1160272D01*
X2083358Y1148791D01*
X2083358Y1137208D01*
X2085136Y1125728D01*
X2088642Y1114653D01*
X2093772Y1104239D01*
X2100478Y1094740D01*
X2108504Y1086358D01*
X2117750Y1079296D01*
X2128062Y1073708D01*
X2131415Y1070762D01*
X2133193Y1066698D01*
X2133092Y1062278D01*
X2131060Y1058316D01*
X2127554Y1055573D01*
X2123236Y1054608D01*
X1696008Y1054608D01*
X1692097Y1055370D01*
X1688795Y1057605D01*
X1687220Y1059180D01*
X1679193Y1064818D01*
X1670253Y1068933D01*
X1660804Y1071473D01*
X1651000Y1072337D01*
X1641195Y1071473D01*
X1631746Y1068933D01*
X1622806Y1064818D01*
X1614779Y1059180D01*
X1607820Y1052220D01*
X1602181Y1044194D01*
X1598066Y1035253D01*
X1595526Y1025804D01*
X1594662Y1016000D01*
X1595526Y1006195D01*
X1598066Y996746D01*
X1602181Y987806D01*
X1607820Y979779D01*
X1615338Y972464D01*
X1618132Y969467D01*
X1619554Y965606D01*
X1619351Y961491D01*
X1617472Y957834D01*
X1614373Y955192D01*
X1609750Y952703D01*
X1600504Y945642D01*
X1592478Y937260D01*
X1585772Y927760D01*
X1580642Y917346D01*
X1577136Y906271D01*
X1575358Y894791D01*
X1575358Y883208D01*
X1577136Y871728D01*
X1580642Y860653D01*
X1585772Y850239D01*
X1592478Y840740D01*
X1600504Y832358D01*
X1609750Y825296D01*
X1619961Y819759D01*
X1630883Y815848D01*
X1642313Y813612D01*
G37*
G36*
X3717594Y5664200D02*
G01*
X3775811Y5664200D01*
X3775811Y5727395D01*
X3744061Y5727395D01*
X3737762Y5726684D01*
X3732276Y5724804D01*
X3727399Y5721705D01*
X3723284Y5717590D01*
X3720185Y5712714D01*
X3718306Y5707227D01*
X3717594Y5700928D01*
G37*
G36*
X3801211Y5664200D02*
G01*
X3859377Y5664200D01*
X3859377Y5700928D01*
X3858666Y5707227D01*
X3856786Y5712714D01*
X3853687Y5717590D01*
X3849573Y5721705D01*
X3844696Y5724804D01*
X3839210Y5726684D01*
X3832910Y5727395D01*
X3801211Y5727395D01*
G37*
G36*
X2596438Y5583682D02*
G01*
X2626563Y5583682D01*
X2632862Y5584393D01*
X2641142Y5587593D01*
X2643936Y5588000D01*
X2970784Y5588000D01*
X2971800Y5589016D01*
X2971800Y5713984D01*
X2970784Y5715000D01*
X2639822Y5715000D01*
X2636469Y5715558D01*
X2632862Y5716828D01*
X2626563Y5717540D01*
X2596438Y5717540D01*
X2590139Y5716828D01*
X2586532Y5715558D01*
X2583180Y5715000D01*
X2575560Y5715000D01*
X2571648Y5715762D01*
X2568397Y5717997D01*
X2566162Y5721248D01*
X2565400Y5725160D01*
X2565400Y5589016D01*
X2566416Y5588000D01*
X2579065Y5588000D01*
X2581859Y5587593D01*
X2584653Y5586323D01*
X2590139Y5584393D01*
G37*
G36*
X3744061Y5575604D02*
G01*
X3775811Y5575604D01*
X3775811Y5638800D01*
X3717594Y5638800D01*
X3717594Y5602071D01*
X3718306Y5595721D01*
X3720185Y5590286D01*
X3723284Y5585358D01*
X3727399Y5581294D01*
X3732276Y5578195D01*
X3737762Y5576316D01*
G37*
G36*
X3801211Y5575604D02*
G01*
X3832910Y5575604D01*
X3839210Y5576316D01*
X3844696Y5578195D01*
X3849573Y5581294D01*
X3853687Y5585358D01*
X3856786Y5590286D01*
X3858666Y5595721D01*
X3859377Y5602071D01*
X3859377Y5638800D01*
X3801211Y5638800D01*
G37*
G36*
X393700Y5473700D02*
G01*
X656590Y5473700D01*
X654710Y5495594D01*
X650849Y5518353D01*
X645109Y5540756D01*
X637540Y5562549D01*
X628142Y5583682D01*
X617016Y5603900D01*
X604215Y5623153D01*
X589838Y5641289D01*
X574040Y5658104D01*
X556869Y5673598D01*
X538480Y5687568D01*
X518972Y5699912D01*
X498500Y5710631D01*
X477164Y5719572D01*
X455218Y5726734D01*
X432714Y5732018D01*
X409854Y5735370D01*
X393700Y5736386D01*
G37*
G36*
X5473700Y5473700D02*
G01*
X5736590Y5473700D01*
X5734710Y5495594D01*
X5730849Y5518353D01*
X5725109Y5540756D01*
X5717540Y5562549D01*
X5708142Y5583682D01*
X5697016Y5603900D01*
X5684215Y5623153D01*
X5669838Y5641289D01*
X5654040Y5658104D01*
X5636869Y5673598D01*
X5618480Y5687568D01*
X5598972Y5699912D01*
X5578500Y5710631D01*
X5557164Y5719572D01*
X5535218Y5726734D01*
X5512714Y5732018D01*
X5489854Y5735370D01*
X5473700Y5736386D01*
G37*
G36*
X4203700Y814324D02*
G01*
X4205427Y814527D01*
X4216654Y817575D01*
X4227271Y822350D01*
X4236974Y828649D01*
X4245660Y836371D01*
X4253077Y845362D01*
X4259021Y855319D01*
X4263339Y866089D01*
X4265726Y876300D01*
X4203700Y876300D01*
G37*
G36*
X4178300Y814374D02*
G01*
X4178300Y876300D01*
X4116425Y876300D01*
X4117136Y871728D01*
X4120642Y860653D01*
X4125772Y850239D01*
X4132478Y840740D01*
X4140504Y832358D01*
X4149750Y825296D01*
X4159961Y819759D01*
X4170883Y815848D01*
G37*
G36*
X5185664Y5473700D02*
G01*
X5448300Y5473700D01*
X5448300Y5736437D01*
X5443677Y5736336D01*
X5420715Y5733948D01*
X5398008Y5729630D01*
X5375757Y5723382D01*
X5354066Y5715355D01*
X5333187Y5705500D01*
X5313172Y5693968D01*
X5294172Y5680760D01*
X5276392Y5666028D01*
X5259882Y5649874D01*
X5244795Y5632348D01*
X5231180Y5613704D01*
X5219242Y5593892D01*
X5208981Y5573217D01*
X5200446Y5551728D01*
X5193792Y5529630D01*
X5188966Y5507024D01*
X5186070Y5484063D01*
G37*
G36*
X105664Y5473700D02*
G01*
X368300Y5473700D01*
X368300Y5736437D01*
X363677Y5736336D01*
X340715Y5733948D01*
X318008Y5729630D01*
X295757Y5723382D01*
X274066Y5715355D01*
X253187Y5705500D01*
X233171Y5693968D01*
X214172Y5680760D01*
X196392Y5666028D01*
X179882Y5649874D01*
X164795Y5632348D01*
X151180Y5613704D01*
X139242Y5593892D01*
X128981Y5573217D01*
X120446Y5551728D01*
X113792Y5529630D01*
X108966Y5507024D01*
X106070Y5484063D01*
G37*
G36*
X4584700Y5473039D02*
G01*
X4593691Y5474157D01*
X4607814Y5477764D01*
X4621326Y5483148D01*
X4634077Y5490159D01*
X4645863Y5498693D01*
X4656480Y5508650D01*
X4665776Y5519877D01*
X4673549Y5532170D01*
X4679746Y5545328D01*
X4684268Y5559196D01*
X4686960Y5573471D01*
X4687112Y5575300D01*
X4584700Y5575300D01*
G37*
G36*
X4559300Y5473039D02*
G01*
X4559300Y5575300D01*
X4456887Y5575300D01*
X4457039Y5573471D01*
X4459732Y5559196D01*
X4464253Y5545328D01*
X4470450Y5532170D01*
X4478223Y5519877D01*
X4487519Y5508650D01*
X4498136Y5498693D01*
X4509922Y5490159D01*
X4522673Y5483148D01*
X4536186Y5477764D01*
X4550308Y5474157D01*
G37*
G36*
X4818735Y5472328D02*
G01*
X4833264Y5472328D01*
X4847691Y5474157D01*
X4861814Y5477764D01*
X4875326Y5483148D01*
X4888077Y5490159D01*
X4899863Y5498693D01*
X4910480Y5508650D01*
X4919776Y5519877D01*
X4927701Y5532374D01*
X4929936Y5534914D01*
X4932934Y5536539D01*
X4936286Y5537098D01*
X5054092Y5537098D01*
X5058410Y5536133D01*
X5060746Y5535066D01*
X5070195Y5532526D01*
X5080000Y5531662D01*
X5089804Y5532526D01*
X5099253Y5535066D01*
X5108194Y5539181D01*
X5116220Y5544820D01*
X5123180Y5551779D01*
X5128818Y5559806D01*
X5132933Y5568746D01*
X5135473Y5578195D01*
X5136337Y5588000D01*
X5135473Y5597804D01*
X5132933Y5607253D01*
X5128818Y5616194D01*
X5123180Y5624220D01*
X5116220Y5631180D01*
X5108194Y5636818D01*
X5099253Y5640933D01*
X5089804Y5643473D01*
X5080000Y5644337D01*
X5070195Y5643473D01*
X5060746Y5640933D01*
X5058410Y5639866D01*
X5054092Y5638901D01*
X4936286Y5638901D01*
X4932934Y5639460D01*
X4929936Y5641086D01*
X4927701Y5643626D01*
X4919776Y5656122D01*
X4910480Y5667349D01*
X4899863Y5677306D01*
X4888077Y5685840D01*
X4880762Y5689854D01*
X4877816Y5692292D01*
X4875987Y5695645D01*
X4875530Y5699404D01*
X4876444Y5703062D01*
X4878933Y5708446D01*
X4881473Y5717895D01*
X4882337Y5727700D01*
X4881473Y5737504D01*
X4878933Y5746953D01*
X4874818Y5755894D01*
X4869180Y5763920D01*
X4862220Y5770880D01*
X4854194Y5776518D01*
X4845253Y5780633D01*
X4835804Y5783173D01*
X4826000Y5784037D01*
X4816195Y5783173D01*
X4806746Y5780633D01*
X4804410Y5779566D01*
X4800092Y5778601D01*
X4385513Y5778601D01*
X4380839Y5778398D01*
X4376420Y5777839D01*
X4372102Y5776874D01*
X4367885Y5775553D01*
X4363770Y5773826D01*
X4359808Y5771794D01*
X4356100Y5769406D01*
X4352544Y5766714D01*
X4349140Y5763564D01*
X4320946Y5735370D01*
X4317695Y5733186D01*
X4313783Y5732424D01*
X4259681Y5732424D01*
X4253331Y5731713D01*
X4247896Y5729782D01*
X4242968Y5726684D01*
X4238904Y5722620D01*
X4237685Y5720740D01*
X4234891Y5717794D01*
X4231132Y5716168D01*
X4227068Y5716168D01*
X4223308Y5717794D01*
X4220514Y5720740D01*
X4219295Y5722620D01*
X4215231Y5726684D01*
X4210304Y5729782D01*
X4204868Y5731713D01*
X4198518Y5732424D01*
X4099661Y5732424D01*
X4093362Y5731713D01*
X4087876Y5729782D01*
X4082999Y5726684D01*
X4078884Y5722620D01*
X4075836Y5717692D01*
X4073906Y5712256D01*
X4073194Y5705906D01*
X4073194Y5700268D01*
X4072432Y5696356D01*
X4070197Y5693105D01*
X4066895Y5690870D01*
X4063034Y5690108D01*
X4039565Y5690108D01*
X4035907Y5690768D01*
X4032707Y5692749D01*
X4030472Y5695696D01*
X4029456Y5699302D01*
X4028643Y5707329D01*
X4026763Y5712714D01*
X4023664Y5717590D01*
X4019600Y5721705D01*
X4014673Y5724804D01*
X4009237Y5726684D01*
X4002887Y5727395D01*
X3914038Y5727395D01*
X3907739Y5726684D01*
X3902252Y5724804D01*
X3897376Y5721705D01*
X3893261Y5717590D01*
X3890213Y5712714D01*
X3888282Y5707227D01*
X3887571Y5700928D01*
X3887571Y5602071D01*
X3888282Y5595721D01*
X3890213Y5590286D01*
X3893261Y5585358D01*
X3897376Y5581294D01*
X3902252Y5578195D01*
X3907739Y5576316D01*
X3914038Y5575604D01*
X4002887Y5575604D01*
X4009237Y5576316D01*
X4014673Y5578195D01*
X4019600Y5581294D01*
X4023664Y5585358D01*
X4026763Y5590286D01*
X4028643Y5595670D01*
X4029456Y5603697D01*
X4030472Y5607304D01*
X4032707Y5610250D01*
X4035907Y5612231D01*
X4039565Y5612892D01*
X4063034Y5612892D01*
X4066895Y5612130D01*
X4070197Y5609894D01*
X4072432Y5606643D01*
X4073194Y5602732D01*
X4073194Y5597093D01*
X4073906Y5590743D01*
X4075836Y5585307D01*
X4078884Y5580380D01*
X4082999Y5576316D01*
X4087876Y5573217D01*
X4093362Y5571286D01*
X4099661Y5570575D01*
X4198518Y5570575D01*
X4204868Y5571286D01*
X4210304Y5573217D01*
X4215231Y5576316D01*
X4219295Y5580380D01*
X4220514Y5582259D01*
X4223308Y5585206D01*
X4227068Y5586831D01*
X4231132Y5586831D01*
X4234891Y5585206D01*
X4237685Y5582259D01*
X4238904Y5580380D01*
X4242968Y5576316D01*
X4247896Y5573217D01*
X4253331Y5571286D01*
X4259681Y5570575D01*
X4358538Y5570575D01*
X4364837Y5571286D01*
X4370324Y5573217D01*
X4375200Y5576316D01*
X4379315Y5580380D01*
X4382363Y5585307D01*
X4384294Y5590743D01*
X4385005Y5597093D01*
X4385005Y5651195D01*
X4385767Y5655106D01*
X4387951Y5658408D01*
X4403394Y5673801D01*
X4406696Y5676036D01*
X4410557Y5676798D01*
X4473752Y5676798D01*
X4477512Y5676087D01*
X4480712Y5674055D01*
X4482947Y5670956D01*
X4483912Y5667248D01*
X4483404Y5663488D01*
X4481576Y5660136D01*
X4478223Y5656122D01*
X4470450Y5643829D01*
X4464253Y5630672D01*
X4459732Y5616803D01*
X4457039Y5602528D01*
X4456887Y5600700D01*
X4559300Y5600700D01*
X4559300Y5666638D01*
X4560062Y5670499D01*
X4562297Y5673801D01*
X4565548Y5676036D01*
X4569460Y5676798D01*
X4574540Y5676798D01*
X4578451Y5676036D01*
X4581702Y5673801D01*
X4583938Y5670499D01*
X4584700Y5666638D01*
X4584700Y5600700D01*
X4687112Y5600700D01*
X4686960Y5602528D01*
X4684268Y5616803D01*
X4679746Y5630672D01*
X4673549Y5643829D01*
X4665776Y5656122D01*
X4662424Y5660136D01*
X4660595Y5663488D01*
X4660087Y5667248D01*
X4661052Y5670956D01*
X4663287Y5674055D01*
X4666488Y5676087D01*
X4670247Y5676798D01*
X4727752Y5676798D01*
X4731512Y5676087D01*
X4734712Y5674055D01*
X4736947Y5670956D01*
X4737912Y5667248D01*
X4737404Y5663488D01*
X4735576Y5660136D01*
X4732223Y5656122D01*
X4724450Y5643829D01*
X4718253Y5630672D01*
X4713732Y5616803D01*
X4711039Y5602528D01*
X4710125Y5588000D01*
X4711039Y5573471D01*
X4713732Y5559196D01*
X4718253Y5545328D01*
X4724450Y5532170D01*
X4732223Y5519877D01*
X4741519Y5508650D01*
X4752136Y5498693D01*
X4763922Y5490159D01*
X4776673Y5483148D01*
X4790186Y5477764D01*
X4804308Y5474157D01*
G37*
G36*
X4584700Y5346700D02*
G01*
X4687112Y5346700D01*
X4686960Y5348528D01*
X4684268Y5362803D01*
X4679746Y5376672D01*
X4673549Y5389829D01*
X4665776Y5402122D01*
X4656480Y5413349D01*
X4645863Y5423306D01*
X4634077Y5431840D01*
X4621326Y5438851D01*
X4607814Y5444236D01*
X4593691Y5447842D01*
X4584700Y5448960D01*
G37*
G36*
X4456887Y5346700D02*
G01*
X4559300Y5346700D01*
X4559300Y5448960D01*
X4550308Y5447842D01*
X4536186Y5444236D01*
X4522673Y5438851D01*
X4509922Y5431840D01*
X4498136Y5423306D01*
X4487519Y5413349D01*
X4478223Y5402122D01*
X4470450Y5389829D01*
X4464253Y5376672D01*
X4459732Y5362803D01*
X4457039Y5348528D01*
G37*
G36*
X4584700Y5219039D02*
G01*
X4593691Y5220157D01*
X4607814Y5223764D01*
X4621326Y5229148D01*
X4634077Y5236159D01*
X4645863Y5244693D01*
X4656480Y5254650D01*
X4665776Y5265877D01*
X4673549Y5278170D01*
X4679746Y5291328D01*
X4684268Y5305196D01*
X4686960Y5319471D01*
X4687112Y5321300D01*
X4584700Y5321300D01*
G37*
G36*
X4559300Y5219039D02*
G01*
X4559300Y5321300D01*
X4456887Y5321300D01*
X4457039Y5319471D01*
X4459732Y5305196D01*
X4464253Y5291328D01*
X4470450Y5278170D01*
X4478223Y5265877D01*
X4487519Y5254650D01*
X4498136Y5244693D01*
X4509922Y5236159D01*
X4522673Y5229148D01*
X4536186Y5223764D01*
X4550308Y5220157D01*
G37*
G36*
X4818735Y5218328D02*
G01*
X4833264Y5218328D01*
X4847691Y5220157D01*
X4861814Y5223764D01*
X4875326Y5229148D01*
X4888077Y5236159D01*
X4899863Y5244693D01*
X4910480Y5254650D01*
X4919776Y5265877D01*
X4927549Y5278170D01*
X4933746Y5291328D01*
X4938268Y5305196D01*
X4940960Y5319471D01*
X4941874Y5334000D01*
X4940960Y5348528D01*
X4938268Y5362803D01*
X4933746Y5376672D01*
X4927549Y5389829D01*
X4919776Y5402122D01*
X4910480Y5413349D01*
X4899863Y5423306D01*
X4888077Y5431840D01*
X4875326Y5438851D01*
X4861814Y5444236D01*
X4847691Y5447842D01*
X4833264Y5449671D01*
X4818735Y5449671D01*
X4804308Y5447842D01*
X4790186Y5444236D01*
X4776673Y5438851D01*
X4763922Y5431840D01*
X4752136Y5423306D01*
X4741519Y5413349D01*
X4732223Y5402122D01*
X4724450Y5389829D01*
X4718253Y5376672D01*
X4713732Y5362803D01*
X4711039Y5348528D01*
X4710125Y5334000D01*
X4711039Y5319471D01*
X4713732Y5305196D01*
X4718253Y5291328D01*
X4724450Y5278170D01*
X4732223Y5265877D01*
X4741519Y5254650D01*
X4752136Y5244693D01*
X4763922Y5236159D01*
X4776673Y5229148D01*
X4790186Y5223764D01*
X4804308Y5220157D01*
G37*
G36*
X1399895Y1067155D02*
G01*
X1411427Y1068527D01*
X1422654Y1071575D01*
X1433271Y1076350D01*
X1442974Y1082649D01*
X1451660Y1090371D01*
X1461363Y1102055D01*
X1464411Y1103782D01*
X1467866Y1104392D01*
X1923491Y1104392D01*
X1927402Y1103630D01*
X1930704Y1101445D01*
X1932279Y1099820D01*
X1940306Y1094181D01*
X1949246Y1090066D01*
X1958695Y1087526D01*
X1968500Y1086662D01*
X1978304Y1087526D01*
X1987753Y1090066D01*
X1996693Y1094181D01*
X2004720Y1099820D01*
X2011680Y1106779D01*
X2017318Y1114806D01*
X2021433Y1123746D01*
X2023973Y1133195D01*
X2024837Y1143000D01*
X2023973Y1152804D01*
X2021433Y1162253D01*
X2017318Y1171194D01*
X2011680Y1179220D01*
X2004720Y1186180D01*
X1996693Y1191818D01*
X1987753Y1195933D01*
X1978304Y1198473D01*
X1968500Y1199337D01*
X1958695Y1198473D01*
X1949246Y1195933D01*
X1940306Y1191818D01*
X1932279Y1186180D01*
X1930704Y1184605D01*
X1927402Y1182370D01*
X1923491Y1181608D01*
X1467815Y1181608D01*
X1464411Y1182217D01*
X1461363Y1183944D01*
X1451660Y1195628D01*
X1442974Y1203350D01*
X1433271Y1209649D01*
X1422654Y1214424D01*
X1411427Y1217472D01*
X1399895Y1218844D01*
X1388313Y1218387D01*
X1376883Y1216152D01*
X1365961Y1212240D01*
X1355750Y1206703D01*
X1346504Y1199642D01*
X1338478Y1191260D01*
X1331772Y1181760D01*
X1326642Y1171346D01*
X1323136Y1160272D01*
X1321358Y1148791D01*
X1321358Y1137208D01*
X1323136Y1125728D01*
X1326642Y1114653D01*
X1331772Y1104239D01*
X1338478Y1094740D01*
X1346504Y1086358D01*
X1355750Y1079296D01*
X1365961Y1073759D01*
X1376883Y1069848D01*
X1388313Y1067612D01*
G37*
G36*
X393700Y5185613D02*
G01*
X409854Y5186629D01*
X432714Y5189982D01*
X455218Y5195265D01*
X477164Y5202428D01*
X498500Y5211368D01*
X518972Y5222087D01*
X538480Y5234432D01*
X556869Y5248402D01*
X574040Y5263896D01*
X589838Y5280710D01*
X604215Y5298846D01*
X617016Y5318099D01*
X628142Y5338318D01*
X637540Y5359450D01*
X645109Y5381244D01*
X650849Y5403646D01*
X654710Y5426405D01*
X656590Y5448300D01*
X393700Y5448300D01*
G37*
G36*
X5473700Y5185613D02*
G01*
X5489854Y5186629D01*
X5512714Y5189982D01*
X5535218Y5195265D01*
X5557164Y5202428D01*
X5578500Y5211368D01*
X5598972Y5222087D01*
X5618480Y5234432D01*
X5636869Y5248402D01*
X5654040Y5263896D01*
X5669838Y5280710D01*
X5684215Y5298846D01*
X5697016Y5318099D01*
X5708142Y5338318D01*
X5717540Y5359450D01*
X5725109Y5381244D01*
X5730849Y5403646D01*
X5734710Y5426405D01*
X5736590Y5448300D01*
X5473700Y5448300D01*
G37*
G36*
X5448300Y5185562D02*
G01*
X5448300Y5448300D01*
X5185664Y5448300D01*
X5186070Y5437936D01*
X5188966Y5414975D01*
X5193792Y5392369D01*
X5200446Y5370271D01*
X5208981Y5348782D01*
X5219242Y5328107D01*
X5231180Y5308295D01*
X5244795Y5289600D01*
X5259882Y5272125D01*
X5276392Y5255971D01*
X5294172Y5241239D01*
X5313172Y5228031D01*
X5333187Y5216499D01*
X5354066Y5206644D01*
X5375757Y5198618D01*
X5398008Y5192369D01*
X5420715Y5188051D01*
X5443677Y5185664D01*
G37*
G36*
X368300Y5185562D02*
G01*
X368300Y5448300D01*
X105664Y5448300D01*
X106070Y5437936D01*
X108966Y5414975D01*
X113792Y5392369D01*
X120446Y5370271D01*
X128981Y5348782D01*
X139242Y5328107D01*
X151180Y5308295D01*
X164795Y5289600D01*
X179882Y5272125D01*
X196392Y5255971D01*
X214172Y5241239D01*
X233171Y5228031D01*
X253187Y5216499D01*
X274066Y5206644D01*
X295757Y5198618D01*
X318008Y5192369D01*
X340715Y5188051D01*
X363677Y5185664D01*
G37*
G36*
X5068620Y1753260D02*
G01*
X5082235Y1753260D01*
X5095748Y1755038D01*
X5108905Y1758645D01*
X5121452Y1763979D01*
X5133187Y1770938D01*
X5143906Y1779371D01*
X5153406Y1789175D01*
X5161483Y1800148D01*
X5168036Y1812137D01*
X5172913Y1824837D01*
X5176113Y1838096D01*
X5177434Y1851710D01*
X5176977Y1865325D01*
X5174742Y1878787D01*
X5170678Y1891792D01*
X5164937Y1904187D01*
X5157622Y1915668D01*
X5148834Y1926082D01*
X5138674Y1935225D01*
X5127447Y1942947D01*
X5115306Y1949094D01*
X5102402Y1953564D01*
X5089042Y1956257D01*
X5075428Y1957171D01*
X5061813Y1956257D01*
X5048453Y1953564D01*
X5035550Y1949094D01*
X5023408Y1942947D01*
X5012182Y1935225D01*
X5002022Y1926082D01*
X4993233Y1915668D01*
X4985918Y1904187D01*
X4983784Y1899615D01*
X4981549Y1896516D01*
X4978349Y1894484D01*
X4974590Y1893722D01*
X4744008Y1893722D01*
X4740097Y1894535D01*
X4736795Y1896719D01*
X4735220Y1898294D01*
X4727194Y1903933D01*
X4718253Y1908098D01*
X4708804Y1910638D01*
X4699000Y1911502D01*
X4689195Y1910638D01*
X4679746Y1908098D01*
X4670806Y1903933D01*
X4662779Y1898294D01*
X4655820Y1891385D01*
X4650181Y1883308D01*
X4646066Y1874418D01*
X4643526Y1864918D01*
X4642662Y1855114D01*
X4643526Y1845360D01*
X4646066Y1835861D01*
X4650181Y1826971D01*
X4655820Y1818893D01*
X4662779Y1811985D01*
X4670806Y1806346D01*
X4679746Y1802180D01*
X4689195Y1799640D01*
X4699000Y1798777D01*
X4708804Y1799640D01*
X4718253Y1802180D01*
X4727194Y1806346D01*
X4735220Y1811985D01*
X4736795Y1813560D01*
X4740097Y1815744D01*
X4744008Y1816506D01*
X4974386Y1816506D01*
X4977942Y1815896D01*
X4981041Y1814068D01*
X4983327Y1811274D01*
X4989372Y1800148D01*
X4997450Y1789175D01*
X5006949Y1779371D01*
X5017668Y1770938D01*
X5029403Y1763979D01*
X5041950Y1758645D01*
X5055108Y1755038D01*
G37*
G36*
X3076905Y5181092D02*
G01*
X3583787Y5181092D01*
X3590086Y5181803D01*
X3595573Y5183682D01*
X3600450Y5186781D01*
X3604564Y5190896D01*
X3607612Y5195773D01*
X3609543Y5201208D01*
X3610254Y5207558D01*
X3610254Y5714441D01*
X3609543Y5720740D01*
X3607358Y5726938D01*
X3606800Y5730290D01*
X3606800Y5739384D01*
X3605784Y5740400D01*
X3587648Y5740450D01*
X3583787Y5740908D01*
X3076803Y5740908D01*
X3071774Y5740450D01*
X3067608Y5740908D01*
X3064002Y5743041D01*
X3061563Y5746445D01*
X3060700Y5750560D01*
X3060700Y5739892D01*
X3059938Y5735980D01*
X3057702Y5732678D01*
X3056128Y5731103D01*
X3053080Y5726226D01*
X3051149Y5720740D01*
X3050438Y5714441D01*
X3050438Y5207558D01*
X3051149Y5201208D01*
X3053080Y5195773D01*
X3056128Y5190896D01*
X3060242Y5186781D01*
X3065119Y5183682D01*
X3070606Y5181803D01*
G37*
G36*
X1676400Y5023662D02*
G01*
X1686204Y5024526D01*
X1695653Y5027066D01*
X1704593Y5031181D01*
X1712620Y5036820D01*
X1714195Y5038394D01*
X1717497Y5040630D01*
X1721408Y5041392D01*
X4650740Y5041392D01*
X4654600Y5040630D01*
X4657902Y5038394D01*
X4659477Y5036820D01*
X4667554Y5031181D01*
X4676444Y5027066D01*
X4685944Y5024526D01*
X4695698Y5023662D01*
X4705502Y5024526D01*
X4715002Y5027066D01*
X4717338Y5028133D01*
X4721606Y5029098D01*
X5054092Y5029098D01*
X5058410Y5028133D01*
X5060746Y5027066D01*
X5070195Y5024526D01*
X5080000Y5023662D01*
X5089804Y5024526D01*
X5099253Y5027066D01*
X5108194Y5031181D01*
X5116220Y5036820D01*
X5123180Y5043779D01*
X5128818Y5051806D01*
X5132933Y5060746D01*
X5135473Y5070195D01*
X5136337Y5080000D01*
X5135473Y5089804D01*
X5132933Y5099253D01*
X5128818Y5108194D01*
X5123180Y5116220D01*
X5116220Y5123180D01*
X5108194Y5128818D01*
X5099253Y5132933D01*
X5089804Y5135473D01*
X5080000Y5136337D01*
X5070195Y5135473D01*
X5060746Y5132933D01*
X5058410Y5131866D01*
X5054092Y5130901D01*
X4721606Y5130901D01*
X4717338Y5131866D01*
X4715002Y5132933D01*
X4705502Y5135473D01*
X4695698Y5136337D01*
X4685944Y5135473D01*
X4676444Y5132933D01*
X4667554Y5128818D01*
X4659477Y5123180D01*
X4657902Y5121605D01*
X4654600Y5119370D01*
X4650740Y5118608D01*
X1721408Y5118608D01*
X1717497Y5119370D01*
X1714195Y5121605D01*
X1712620Y5123180D01*
X1704593Y5128818D01*
X1695653Y5132933D01*
X1686204Y5135473D01*
X1676400Y5136337D01*
X1666595Y5135473D01*
X1657146Y5132933D01*
X1648206Y5128818D01*
X1640179Y5123180D01*
X1633220Y5116220D01*
X1627581Y5108194D01*
X1623466Y5099253D01*
X1620926Y5089804D01*
X1620062Y5080000D01*
X1620926Y5070195D01*
X1623466Y5060746D01*
X1627581Y5051806D01*
X1633220Y5043779D01*
X1640179Y5036820D01*
X1648206Y5031181D01*
X1657146Y5027066D01*
X1666595Y5024526D01*
G37*
G36*
X5068620Y2053234D02*
G01*
X5082235Y2053234D01*
X5095748Y2055063D01*
X5108905Y2058670D01*
X5121452Y2064004D01*
X5133187Y2070912D01*
X5143906Y2079396D01*
X5153406Y2089200D01*
X5161483Y2100173D01*
X5168036Y2112111D01*
X5172913Y2124862D01*
X5176113Y2138121D01*
X5177434Y2151684D01*
X5176977Y2165299D01*
X5174742Y2178761D01*
X5170678Y2191766D01*
X5164937Y2204161D01*
X5157622Y2215642D01*
X5148834Y2226056D01*
X5138674Y2235200D01*
X5127447Y2242921D01*
X5115306Y2249068D01*
X5102402Y2253538D01*
X5089042Y2256282D01*
X5075428Y2257196D01*
X5061813Y2256282D01*
X5048453Y2253538D01*
X5035550Y2249068D01*
X5023408Y2242921D01*
X5012182Y2235200D01*
X5002022Y2226056D01*
X4993233Y2215642D01*
X4983378Y2200402D01*
X4980127Y2198319D01*
X4976368Y2197608D01*
X4286808Y2197608D01*
X4282897Y2198370D01*
X4279595Y2200605D01*
X4278020Y2202180D01*
X4269994Y2207818D01*
X4261053Y2211933D01*
X4251604Y2214473D01*
X4241800Y2215337D01*
X4231995Y2214473D01*
X4222546Y2211933D01*
X4213606Y2207818D01*
X4205579Y2202180D01*
X4198620Y2195220D01*
X4192981Y2187194D01*
X4188866Y2178253D01*
X4186326Y2168804D01*
X4185462Y2159000D01*
X4186326Y2149195D01*
X4188866Y2139746D01*
X4192981Y2130806D01*
X4198620Y2122779D01*
X4205579Y2115820D01*
X4213606Y2110181D01*
X4222546Y2106066D01*
X4231995Y2103526D01*
X4241800Y2102662D01*
X4251604Y2103526D01*
X4261053Y2106066D01*
X4269994Y2110181D01*
X4278020Y2115820D01*
X4279595Y2117394D01*
X4282897Y2119630D01*
X4286808Y2120392D01*
X4972659Y2120392D01*
X4976622Y2119579D01*
X4979974Y2117293D01*
X4982159Y2113889D01*
X4982819Y2112111D01*
X4989372Y2100173D01*
X4997450Y2089200D01*
X5006949Y2079396D01*
X5017668Y2070912D01*
X5029403Y2064004D01*
X5041950Y2058670D01*
X5055108Y2055063D01*
G37*
G36*
X2155698Y4658410D02*
G01*
X2170887Y4659325D01*
X2185822Y4662068D01*
X2200351Y4666589D01*
X2214219Y4672838D01*
X2227224Y4680712D01*
X2239162Y4690059D01*
X2249932Y4700828D01*
X2259279Y4712766D01*
X2267153Y4725771D01*
X2273401Y4739690D01*
X2275636Y4742840D01*
X2278888Y4744974D01*
X2282698Y4745685D01*
X2286457Y4744974D01*
X2289708Y4742840D01*
X2291943Y4739690D01*
X2298242Y4725771D01*
X2306116Y4712766D01*
X2315464Y4700828D01*
X2326233Y4690059D01*
X2338171Y4680712D01*
X2351176Y4672838D01*
X2365044Y4666589D01*
X2379573Y4662068D01*
X2394508Y4659325D01*
X2409698Y4658410D01*
X2424887Y4659325D01*
X2439822Y4662068D01*
X2454351Y4666589D01*
X2468219Y4672838D01*
X2481224Y4680712D01*
X2493162Y4690059D01*
X2503932Y4700828D01*
X2513279Y4712766D01*
X2521153Y4725771D01*
X2527452Y4739690D01*
X2529636Y4742891D01*
X2532888Y4744974D01*
X2536698Y4745685D01*
X2540508Y4744974D01*
X2543759Y4742891D01*
X2545943Y4739690D01*
X2552242Y4725771D01*
X2560116Y4712766D01*
X2569464Y4700828D01*
X2580233Y4690059D01*
X2592171Y4680712D01*
X2605176Y4672838D01*
X2619044Y4666589D01*
X2633573Y4662068D01*
X2648508Y4659325D01*
X2663698Y4658410D01*
X2678887Y4659325D01*
X2693822Y4662068D01*
X2708351Y4666589D01*
X2722219Y4672838D01*
X2735224Y4680712D01*
X2747162Y4690059D01*
X2757932Y4700828D01*
X2767279Y4712766D01*
X2775153Y4725771D01*
X2781401Y4739690D01*
X2783636Y4742840D01*
X2786888Y4744974D01*
X2790698Y4745685D01*
X2794457Y4744974D01*
X2797708Y4742840D01*
X2799943Y4739690D01*
X2806242Y4725771D01*
X2814116Y4712766D01*
X2823464Y4700828D01*
X2834233Y4690059D01*
X2846171Y4680712D01*
X2859176Y4672838D01*
X2873044Y4666589D01*
X2887573Y4662068D01*
X2902508Y4659325D01*
X2917698Y4658410D01*
X2932887Y4659325D01*
X2947822Y4662068D01*
X2962351Y4666589D01*
X2976219Y4672838D01*
X2989224Y4680712D01*
X3001162Y4690059D01*
X3011932Y4700828D01*
X3021279Y4712766D01*
X3029153Y4725771D01*
X3035452Y4739690D01*
X3037636Y4742891D01*
X3040888Y4744974D01*
X3044698Y4745685D01*
X3048508Y4744974D01*
X3051759Y4742891D01*
X3053943Y4739690D01*
X3060242Y4725771D01*
X3068116Y4712766D01*
X3077464Y4700828D01*
X3088233Y4690059D01*
X3100171Y4680712D01*
X3113176Y4672838D01*
X3127044Y4666589D01*
X3141573Y4662068D01*
X3156508Y4659325D01*
X3171698Y4658410D01*
X3186887Y4659325D01*
X3201822Y4662068D01*
X3216351Y4666589D01*
X3230219Y4672838D01*
X3243224Y4680712D01*
X3255162Y4690059D01*
X3265932Y4700828D01*
X3275279Y4712766D01*
X3283153Y4725771D01*
X3285337Y4730597D01*
X3287572Y4733747D01*
X3290824Y4735880D01*
X3294583Y4736592D01*
X3302812Y4736592D01*
X3306572Y4735880D01*
X3309823Y4733747D01*
X3312058Y4730597D01*
X3314242Y4725771D01*
X3322116Y4712766D01*
X3331464Y4700828D01*
X3342233Y4690059D01*
X3354171Y4680712D01*
X3367176Y4672838D01*
X3381044Y4666589D01*
X3395573Y4662068D01*
X3410508Y4659325D01*
X3425698Y4658410D01*
X3440887Y4659325D01*
X3455822Y4662068D01*
X3470351Y4666589D01*
X3484219Y4672838D01*
X3497224Y4680712D01*
X3509162Y4690059D01*
X3519932Y4700828D01*
X3529279Y4712766D01*
X3537153Y4725771D01*
X3543452Y4739690D01*
X3545636Y4742891D01*
X3548887Y4744974D01*
X3552698Y4745685D01*
X3556508Y4744974D01*
X3559759Y4742891D01*
X3561943Y4739690D01*
X3568242Y4725771D01*
X3576116Y4712766D01*
X3585464Y4700828D01*
X3596233Y4690059D01*
X3608171Y4680712D01*
X3621176Y4672838D01*
X3635044Y4666589D01*
X3649573Y4662068D01*
X3664508Y4659325D01*
X3679698Y4658410D01*
X3694887Y4659325D01*
X3709822Y4662068D01*
X3724351Y4666589D01*
X3738219Y4672838D01*
X3751224Y4680712D01*
X3763162Y4690059D01*
X3773932Y4700828D01*
X3783279Y4712766D01*
X3791153Y4725771D01*
X3797401Y4739690D01*
X3799636Y4742840D01*
X3802887Y4744974D01*
X3806698Y4745685D01*
X3810457Y4744974D01*
X3813708Y4742840D01*
X3815943Y4739690D01*
X3822242Y4725771D01*
X3830116Y4712766D01*
X3839464Y4700828D01*
X3850233Y4690059D01*
X3862171Y4680712D01*
X3875176Y4672838D01*
X3889044Y4666589D01*
X3903573Y4662068D01*
X3918508Y4659325D01*
X3933698Y4658410D01*
X3948887Y4659325D01*
X3963822Y4662068D01*
X3978351Y4666589D01*
X3992219Y4672838D01*
X4005224Y4680712D01*
X4017162Y4690059D01*
X4027932Y4700828D01*
X4037279Y4712766D01*
X4045153Y4725771D01*
X4051401Y4739640D01*
X4055922Y4754168D01*
X4058665Y4769104D01*
X4059580Y4784293D01*
X4058665Y4799482D01*
X4055922Y4814417D01*
X4051401Y4828946D01*
X4045153Y4842814D01*
X4037279Y4855819D01*
X4027932Y4867757D01*
X4017162Y4878527D01*
X4005224Y4887874D01*
X3992219Y4895748D01*
X3978351Y4901996D01*
X3963822Y4906518D01*
X3948887Y4909261D01*
X3933698Y4910175D01*
X3918508Y4909261D01*
X3903573Y4906518D01*
X3889044Y4901996D01*
X3875176Y4895748D01*
X3862171Y4887874D01*
X3850233Y4878527D01*
X3839464Y4867757D01*
X3830116Y4855819D01*
X3822242Y4842814D01*
X3815994Y4828895D01*
X3813759Y4825746D01*
X3810508Y4823612D01*
X3806698Y4822901D01*
X3802938Y4823612D01*
X3799687Y4825746D01*
X3797452Y4828895D01*
X3791153Y4842814D01*
X3783279Y4855819D01*
X3773932Y4867757D01*
X3763162Y4878527D01*
X3751224Y4887874D01*
X3738219Y4895748D01*
X3724351Y4901996D01*
X3709822Y4906518D01*
X3694887Y4909261D01*
X3679698Y4910175D01*
X3664508Y4909261D01*
X3649573Y4906518D01*
X3635044Y4901996D01*
X3621176Y4895748D01*
X3608171Y4887874D01*
X3596233Y4878527D01*
X3585464Y4867757D01*
X3576116Y4855819D01*
X3568242Y4842814D01*
X3561943Y4828895D01*
X3559759Y4825695D01*
X3556508Y4823612D01*
X3552698Y4822901D01*
X3548887Y4823612D01*
X3545636Y4825695D01*
X3543452Y4828895D01*
X3537153Y4842814D01*
X3529279Y4855819D01*
X3519932Y4867757D01*
X3509162Y4878527D01*
X3497224Y4887874D01*
X3484219Y4895748D01*
X3470351Y4901996D01*
X3455822Y4906518D01*
X3440887Y4909261D01*
X3425698Y4910175D01*
X3410508Y4909261D01*
X3395573Y4906518D01*
X3381044Y4901996D01*
X3367176Y4895748D01*
X3354171Y4887874D01*
X3342233Y4878527D01*
X3331464Y4867757D01*
X3322116Y4855819D01*
X3314242Y4842814D01*
X3307943Y4828895D01*
X3305759Y4825695D01*
X3302508Y4823612D01*
X3298698Y4822901D01*
X3294887Y4823612D01*
X3291636Y4825695D01*
X3289452Y4828895D01*
X3283153Y4842814D01*
X3275279Y4855819D01*
X3265932Y4867757D01*
X3255162Y4878527D01*
X3243224Y4887874D01*
X3230219Y4895748D01*
X3216351Y4901996D01*
X3201822Y4906518D01*
X3186887Y4909261D01*
X3171698Y4910175D01*
X3156508Y4909261D01*
X3141573Y4906518D01*
X3127044Y4901996D01*
X3113176Y4895748D01*
X3100171Y4887874D01*
X3088233Y4878527D01*
X3077464Y4867757D01*
X3068116Y4855819D01*
X3060242Y4842814D01*
X3053943Y4828895D01*
X3051759Y4825695D01*
X3048508Y4823612D01*
X3044698Y4822901D01*
X3040888Y4823612D01*
X3037636Y4825695D01*
X3035452Y4828895D01*
X3029153Y4842814D01*
X3021279Y4855819D01*
X3011932Y4867757D01*
X3001162Y4878527D01*
X2989224Y4887874D01*
X2976219Y4895748D01*
X2962351Y4901996D01*
X2947822Y4906518D01*
X2932887Y4909261D01*
X2917698Y4910175D01*
X2902508Y4909261D01*
X2887573Y4906518D01*
X2873044Y4901996D01*
X2859176Y4895748D01*
X2846171Y4887874D01*
X2834233Y4878527D01*
X2823464Y4867757D01*
X2814116Y4855819D01*
X2806242Y4842814D01*
X2799994Y4828895D01*
X2797759Y4825746D01*
X2794508Y4823612D01*
X2790698Y4822901D01*
X2786938Y4823612D01*
X2783687Y4825746D01*
X2781452Y4828895D01*
X2775153Y4842814D01*
X2767279Y4855819D01*
X2757932Y4867757D01*
X2747162Y4878527D01*
X2735224Y4887874D01*
X2722219Y4895748D01*
X2708351Y4901996D01*
X2693822Y4906518D01*
X2678887Y4909261D01*
X2663698Y4910175D01*
X2648508Y4909261D01*
X2633573Y4906518D01*
X2619044Y4901996D01*
X2605176Y4895748D01*
X2592171Y4887874D01*
X2580233Y4878527D01*
X2569464Y4867757D01*
X2560116Y4855819D01*
X2552242Y4842814D01*
X2545943Y4828895D01*
X2543759Y4825695D01*
X2540508Y4823612D01*
X2536698Y4822901D01*
X2532888Y4823612D01*
X2529636Y4825695D01*
X2527452Y4828895D01*
X2521153Y4842814D01*
X2513279Y4855819D01*
X2503932Y4867757D01*
X2493162Y4878527D01*
X2481224Y4887874D01*
X2468219Y4895748D01*
X2454351Y4901996D01*
X2439822Y4906518D01*
X2424887Y4909261D01*
X2409698Y4910175D01*
X2394508Y4909261D01*
X2379573Y4906518D01*
X2365044Y4901996D01*
X2351176Y4895748D01*
X2338171Y4887874D01*
X2326233Y4878527D01*
X2315464Y4867757D01*
X2306116Y4855819D01*
X2298242Y4842814D01*
X2291994Y4828895D01*
X2289759Y4825746D01*
X2286508Y4823612D01*
X2282698Y4822901D01*
X2278938Y4823612D01*
X2275687Y4825746D01*
X2273452Y4828895D01*
X2267153Y4842814D01*
X2259279Y4855819D01*
X2249932Y4867757D01*
X2239162Y4878527D01*
X2227224Y4887874D01*
X2214219Y4895748D01*
X2200351Y4901996D01*
X2185822Y4906518D01*
X2170887Y4909261D01*
X2155698Y4910175D01*
X2140508Y4909261D01*
X2125573Y4906518D01*
X2111044Y4901996D01*
X2097176Y4895748D01*
X2084171Y4887874D01*
X2072233Y4878527D01*
X2061464Y4867757D01*
X2052116Y4855819D01*
X2044242Y4842814D01*
X2037994Y4828946D01*
X2033473Y4814417D01*
X2030730Y4799482D01*
X2029815Y4784293D01*
X2030730Y4769104D01*
X2033473Y4754168D01*
X2037994Y4739640D01*
X2044242Y4725771D01*
X2052116Y4712766D01*
X2061464Y4700828D01*
X2072233Y4690059D01*
X2084171Y4680712D01*
X2097176Y4672838D01*
X2111044Y4666589D01*
X2125573Y4662068D01*
X2140508Y4659325D01*
G37*
G36*
X3276600Y4350562D02*
G01*
X3286404Y4351426D01*
X3295853Y4353966D01*
X3298190Y4355033D01*
X3302508Y4355998D01*
X3672636Y4355998D01*
X3676954Y4355033D01*
X3679698Y4352950D01*
X3682441Y4355033D01*
X3686759Y4355998D01*
X4673092Y4355998D01*
X4677410Y4355033D01*
X4679746Y4353966D01*
X4689195Y4351426D01*
X4699000Y4350562D01*
X4708804Y4351426D01*
X4718253Y4353966D01*
X4727194Y4358081D01*
X4735220Y4363720D01*
X4742180Y4370679D01*
X4747818Y4378706D01*
X4751933Y4387646D01*
X4754473Y4397095D01*
X4755337Y4406900D01*
X4754473Y4416704D01*
X4751933Y4426153D01*
X4747818Y4435094D01*
X4742180Y4443120D01*
X4735220Y4450080D01*
X4727194Y4455718D01*
X4718253Y4459833D01*
X4708804Y4462373D01*
X4699000Y4463237D01*
X4689195Y4462373D01*
X4679746Y4459833D01*
X4677410Y4458766D01*
X4673092Y4457801D01*
X4376826Y4457801D01*
X4372813Y4458614D01*
X4369460Y4460951D01*
X4367326Y4464405D01*
X4366666Y4468418D01*
X4367631Y4472381D01*
X4370120Y4475581D01*
X4380179Y4484420D01*
X4389323Y4494834D01*
X4396994Y4506366D01*
X4403140Y4518761D01*
X4407560Y4531918D01*
X4410303Y4545482D01*
X4411167Y4559300D01*
X4410303Y4573117D01*
X4407560Y4586681D01*
X4403140Y4599838D01*
X4396994Y4612233D01*
X4389323Y4623765D01*
X4380179Y4634179D01*
X4369765Y4643323D01*
X4358233Y4650994D01*
X4345838Y4657140D01*
X4332681Y4661560D01*
X4319117Y4664303D01*
X4305300Y4665167D01*
X4291482Y4664303D01*
X4277918Y4661560D01*
X4264761Y4657140D01*
X4252366Y4650994D01*
X4240834Y4643323D01*
X4230420Y4634179D01*
X4221276Y4623765D01*
X4213606Y4612233D01*
X4207459Y4599838D01*
X4203039Y4586681D01*
X4200296Y4573117D01*
X4199432Y4559300D01*
X4200296Y4545482D01*
X4203039Y4531918D01*
X4207459Y4518761D01*
X4213606Y4506366D01*
X4221276Y4494834D01*
X4230420Y4484420D01*
X4240479Y4475581D01*
X4242968Y4472381D01*
X4243933Y4468418D01*
X4243273Y4464405D01*
X4241139Y4460951D01*
X4237786Y4458614D01*
X4233773Y4457801D01*
X3302508Y4457801D01*
X3298190Y4458766D01*
X3295853Y4459833D01*
X3286404Y4462373D01*
X3276600Y4463237D01*
X3266795Y4462373D01*
X3257346Y4459833D01*
X3248406Y4455718D01*
X3240379Y4450080D01*
X3233420Y4443120D01*
X3227781Y4435094D01*
X3223666Y4426153D01*
X3221126Y4416704D01*
X3220262Y4406900D01*
X3221126Y4397095D01*
X3223666Y4387646D01*
X3227781Y4378706D01*
X3233420Y4370679D01*
X3240379Y4363720D01*
X3248406Y4358081D01*
X3257346Y4353966D01*
X3266795Y4351426D01*
G37*
G36*
X5062728Y2354021D02*
G01*
X5062728Y2442413D01*
X4974336Y2442413D01*
X4974742Y2438095D01*
X4977942Y2424836D01*
X4982819Y2412136D01*
X4989372Y2400147D01*
X4997450Y2389174D01*
X5006949Y2379370D01*
X5017668Y2370937D01*
X5029403Y2363978D01*
X5041950Y2358644D01*
X5055108Y2355037D01*
G37*
G36*
X5088128Y2354021D02*
G01*
X5095748Y2355037D01*
X5108905Y2358644D01*
X5121452Y2363978D01*
X5133187Y2370937D01*
X5143906Y2379370D01*
X5153406Y2389174D01*
X5161483Y2400147D01*
X5168036Y2412136D01*
X5172913Y2424836D01*
X5176113Y2438095D01*
X5176520Y2442413D01*
X5088128Y2442413D01*
G37*
G36*
X5088128Y2467813D02*
G01*
X5176570Y2467813D01*
X5174742Y2478786D01*
X5170678Y2491790D01*
X5164937Y2504186D01*
X5157622Y2515666D01*
X5148834Y2526080D01*
X5138674Y2535224D01*
X5127447Y2542946D01*
X5115306Y2549093D01*
X5102402Y2553563D01*
X5088128Y2556357D01*
G37*
G36*
X4974285Y2467813D02*
G01*
X5062728Y2467813D01*
X5062728Y2556357D01*
X5048453Y2553563D01*
X5035550Y2549093D01*
X5023408Y2542946D01*
X5012182Y2535224D01*
X5002022Y2526080D01*
X4993233Y2515666D01*
X4985918Y2504186D01*
X4980178Y2491790D01*
X4976114Y2478786D01*
G37*
G36*
X2018538Y2661412D02*
G01*
X2098040Y2661412D01*
X2104339Y2662123D01*
X2109825Y2664002D01*
X2114702Y2667101D01*
X2118817Y2671165D01*
X2121865Y2676093D01*
X2123998Y2682138D01*
X2126132Y2685694D01*
X2129536Y2688132D01*
X2133600Y2688945D01*
X2137664Y2688132D01*
X2141067Y2685694D01*
X2143201Y2682138D01*
X2145334Y2676093D01*
X2148382Y2671165D01*
X2152497Y2667101D01*
X2157374Y2664002D01*
X2162860Y2662123D01*
X2169160Y2661412D01*
X2248662Y2661412D01*
X2255012Y2662123D01*
X2260447Y2664002D01*
X2265375Y2667101D01*
X2269439Y2671165D01*
X2272538Y2676093D01*
X2274468Y2681528D01*
X2275636Y2686405D01*
X2277922Y2689301D01*
X2281072Y2691231D01*
X2284679Y2691892D01*
X2418689Y2691892D01*
X2422601Y2691130D01*
X2425852Y2688894D01*
X2427071Y2687726D01*
X2435047Y2682138D01*
X2443886Y2678023D01*
X2453284Y2675483D01*
X2463444Y2674569D01*
X2632557Y2674569D01*
X2642717Y2675483D01*
X2652115Y2678023D01*
X2660954Y2682138D01*
X2668930Y2687726D01*
X2670149Y2688894D01*
X2673400Y2691130D01*
X2677312Y2691892D01*
X2679192Y2691892D01*
X2687218Y2692704D01*
X2694482Y2694889D01*
X2701137Y2698445D01*
X2707335Y2703576D01*
X2850083Y2846324D01*
X2853639Y2848610D01*
X2857804Y2849270D01*
X2861919Y2848152D01*
X2865170Y2845511D01*
X2867101Y2841752D01*
X2868066Y2838246D01*
X2872181Y2829306D01*
X2877820Y2821279D01*
X2884779Y2814320D01*
X2892806Y2808681D01*
X2901746Y2804566D01*
X2911195Y2802026D01*
X2921000Y2801162D01*
X2930804Y2802026D01*
X2940253Y2804566D01*
X2949194Y2808681D01*
X2957220Y2814320D01*
X2958795Y2815894D01*
X2962097Y2818130D01*
X2966008Y2818892D01*
X3418687Y2818892D01*
X3422599Y2818130D01*
X3425850Y2815894D01*
X3427069Y2814726D01*
X3435045Y2809138D01*
X3443884Y2805023D01*
X3448304Y2803804D01*
X3452215Y2801772D01*
X3454908Y2798318D01*
X3455873Y2794000D01*
X3454908Y2789682D01*
X3452215Y2786227D01*
X3448304Y2784195D01*
X3443884Y2782976D01*
X3435045Y2778861D01*
X3427069Y2773273D01*
X3425850Y2772105D01*
X3422599Y2769870D01*
X3418687Y2769108D01*
X3194608Y2769108D01*
X3190697Y2769870D01*
X3187395Y2772105D01*
X3185820Y2773680D01*
X3177794Y2779318D01*
X3168853Y2783433D01*
X3159404Y2785973D01*
X3149600Y2786837D01*
X3139795Y2785973D01*
X3130346Y2783433D01*
X3121406Y2779318D01*
X3113379Y2773680D01*
X3106420Y2766720D01*
X3100781Y2758694D01*
X3096666Y2749753D01*
X3094126Y2740304D01*
X3093262Y2730500D01*
X3094126Y2720695D01*
X3096666Y2711246D01*
X3100781Y2702306D01*
X3106420Y2694279D01*
X3113379Y2687320D01*
X3121406Y2681681D01*
X3130346Y2677566D01*
X3139795Y2675026D01*
X3149600Y2674162D01*
X3159404Y2675026D01*
X3168853Y2677566D01*
X3177794Y2681681D01*
X3185820Y2687320D01*
X3187395Y2688894D01*
X3190697Y2691130D01*
X3194608Y2691892D01*
X3418687Y2691892D01*
X3422599Y2691130D01*
X3425850Y2688894D01*
X3427069Y2687726D01*
X3435045Y2682138D01*
X3443884Y2678023D01*
X3453282Y2675483D01*
X3463442Y2674569D01*
X3632555Y2674569D01*
X3642715Y2675483D01*
X3652113Y2678023D01*
X3660952Y2682138D01*
X3668928Y2687726D01*
X3670147Y2688894D01*
X3673398Y2691130D01*
X3677310Y2691892D01*
X3811320Y2691892D01*
X3814927Y2691231D01*
X3818077Y2689301D01*
X3820363Y2686405D01*
X3821582Y2681528D01*
X3823462Y2676093D01*
X3826560Y2671216D01*
X3830624Y2667101D01*
X3835552Y2664002D01*
X3840987Y2662123D01*
X3847337Y2661412D01*
X3926840Y2661412D01*
X3933139Y2662123D01*
X3938625Y2664002D01*
X3943502Y2667101D01*
X3947617Y2671216D01*
X3950665Y2676093D01*
X3952798Y2682189D01*
X3954932Y2685745D01*
X3958336Y2688132D01*
X3962400Y2688945D01*
X3966464Y2688132D01*
X3969867Y2685745D01*
X3972001Y2682189D01*
X3974134Y2676093D01*
X3977182Y2671216D01*
X3981297Y2667101D01*
X3986174Y2664002D01*
X3991660Y2662123D01*
X3997960Y2661412D01*
X4077462Y2661412D01*
X4083812Y2662123D01*
X4089247Y2664002D01*
X4094175Y2667101D01*
X4098239Y2671216D01*
X4101337Y2676093D01*
X4103268Y2681528D01*
X4104487Y2686405D01*
X4106722Y2689301D01*
X4109872Y2691231D01*
X4113479Y2691892D01*
X4653991Y2691892D01*
X4657902Y2691130D01*
X4661204Y2688894D01*
X4662779Y2687320D01*
X4670806Y2681681D01*
X4679746Y2677566D01*
X4689195Y2675026D01*
X4699000Y2674162D01*
X4708804Y2675026D01*
X4718253Y2677566D01*
X4727194Y2681681D01*
X4735220Y2687320D01*
X4742180Y2694279D01*
X4747818Y2702306D01*
X4751933Y2711246D01*
X4754473Y2720695D01*
X4755337Y2730500D01*
X4754473Y2740304D01*
X4751933Y2749753D01*
X4747818Y2758694D01*
X4742180Y2766720D01*
X4735220Y2773680D01*
X4727194Y2779318D01*
X4718253Y2783433D01*
X4708804Y2785973D01*
X4699000Y2786837D01*
X4689195Y2785973D01*
X4679746Y2783433D01*
X4670806Y2779318D01*
X4662779Y2773680D01*
X4661204Y2772105D01*
X4657902Y2769870D01*
X4653991Y2769108D01*
X4113479Y2769108D01*
X4109872Y2769768D01*
X4106722Y2771698D01*
X4104487Y2774594D01*
X4103268Y2779471D01*
X4101337Y2784906D01*
X4098239Y2789834D01*
X4094175Y2793898D01*
X4089247Y2796997D01*
X4083812Y2798876D01*
X4077462Y2799588D01*
X3997960Y2799588D01*
X3991660Y2798876D01*
X3986174Y2796997D01*
X3981297Y2793898D01*
X3977182Y2789834D01*
X3974134Y2784906D01*
X3972001Y2778861D01*
X3969867Y2775305D01*
X3966464Y2772867D01*
X3962400Y2772054D01*
X3958336Y2772867D01*
X3954932Y2775305D01*
X3952798Y2778861D01*
X3950665Y2784906D01*
X3947617Y2789834D01*
X3943502Y2793898D01*
X3938625Y2796997D01*
X3933139Y2798876D01*
X3926840Y2799588D01*
X3857955Y2799588D01*
X3853942Y2800451D01*
X3850589Y2802788D01*
X3848404Y2806293D01*
X3847592Y2804464D01*
X3845153Y2801213D01*
X3841699Y2799130D01*
X3835552Y2796997D01*
X3830624Y2793898D01*
X3826560Y2789834D01*
X3823462Y2784906D01*
X3821582Y2779471D01*
X3820363Y2774594D01*
X3818077Y2771698D01*
X3814927Y2769768D01*
X3811320Y2769108D01*
X3677310Y2769108D01*
X3673398Y2769870D01*
X3670147Y2772105D01*
X3668928Y2773273D01*
X3660952Y2778861D01*
X3652113Y2782976D01*
X3647694Y2784195D01*
X3643782Y2786227D01*
X3641090Y2789682D01*
X3640124Y2794000D01*
X3641090Y2798318D01*
X3643782Y2801772D01*
X3647694Y2803804D01*
X3652113Y2805023D01*
X3660952Y2809138D01*
X3668928Y2814726D01*
X3670147Y2815894D01*
X3673398Y2818130D01*
X3677310Y2818892D01*
X3838346Y2818892D01*
X3842308Y2818079D01*
X3845661Y2815793D01*
X3847846Y2812389D01*
X3848049Y2811170D01*
X3848862Y2814320D01*
X3851401Y2817520D01*
X3855008Y2819501D01*
X3862832Y2821889D01*
X3868216Y2824378D01*
X3870655Y2824683D01*
X3931818Y2824683D01*
X3938168Y2825394D01*
X3943604Y2827324D01*
X3948531Y2830372D01*
X3952595Y2834487D01*
X3953814Y2836367D01*
X3956608Y2839313D01*
X3960368Y2840939D01*
X3964432Y2840939D01*
X3968191Y2839313D01*
X3970985Y2836367D01*
X3972204Y2834487D01*
X3976268Y2830372D01*
X3981196Y2827324D01*
X3986631Y2825394D01*
X3992981Y2824683D01*
X4019702Y2824683D01*
X4019702Y2882900D01*
X3968496Y2882900D01*
X3964584Y2883662D01*
X3961282Y2885897D01*
X3959098Y2889148D01*
X3958336Y2893060D01*
X3958336Y2898140D01*
X3959098Y2902051D01*
X3961282Y2905302D01*
X3964584Y2907538D01*
X3968496Y2908300D01*
X4019702Y2908300D01*
X4019702Y2966516D01*
X3992981Y2966516D01*
X3986631Y2965805D01*
X3981196Y2963875D01*
X3976268Y2960827D01*
X3972204Y2956712D01*
X3970985Y2954832D01*
X3968191Y2951886D01*
X3964432Y2950260D01*
X3960368Y2950260D01*
X3956608Y2951886D01*
X3953814Y2954832D01*
X3952595Y2956712D01*
X3948531Y2960827D01*
X3943604Y2963875D01*
X3938168Y2965805D01*
X3931818Y2966516D01*
X3852976Y2966516D01*
X3846677Y2965805D01*
X3841191Y2963875D01*
X3836314Y2960827D01*
X3832199Y2956712D01*
X3829100Y2951835D01*
X3827221Y2946349D01*
X3826510Y2940050D01*
X3826510Y2906268D01*
X3825748Y2902407D01*
X3823512Y2899105D01*
X3820210Y2896870D01*
X3816350Y2896108D01*
X3677310Y2896108D01*
X3673398Y2896870D01*
X3670147Y2899105D01*
X3668928Y2900273D01*
X3660952Y2905861D01*
X3652113Y2909976D01*
X3647694Y2911195D01*
X3643782Y2913227D01*
X3641090Y2916682D01*
X3640124Y2921000D01*
X3641090Y2925318D01*
X3643782Y2928772D01*
X3647694Y2930804D01*
X3652113Y2932023D01*
X3660952Y2936138D01*
X3668928Y2941726D01*
X3675786Y2948584D01*
X3681374Y2956560D01*
X3685489Y2965399D01*
X3688029Y2974797D01*
X3688892Y2984500D01*
X3688029Y2994202D01*
X3685489Y3003600D01*
X3681374Y3012440D01*
X3675786Y3020415D01*
X3668928Y3027273D01*
X3660952Y3032861D01*
X3652113Y3036976D01*
X3647694Y3038195D01*
X3643782Y3040227D01*
X3641090Y3043682D01*
X3640124Y3048000D01*
X3641090Y3052318D01*
X3643782Y3055772D01*
X3647694Y3057804D01*
X3652113Y3059023D01*
X3660952Y3063138D01*
X3668928Y3068726D01*
X3675786Y3075584D01*
X3681374Y3083560D01*
X3685489Y3092399D01*
X3687216Y3098800D01*
X3560724Y3098800D01*
X3560724Y3050590D01*
X3559911Y3046679D01*
X3557727Y3043377D01*
X3554425Y3041192D01*
X3550564Y3040430D01*
X3545484Y3040430D01*
X3541572Y3041192D01*
X3538270Y3043377D01*
X3536086Y3046679D01*
X3535324Y3050590D01*
X3535324Y3098800D01*
X3408781Y3098800D01*
X3410508Y3092399D01*
X3414623Y3083560D01*
X3420211Y3075584D01*
X3427069Y3068726D01*
X3435045Y3063138D01*
X3443884Y3059023D01*
X3448304Y3057804D01*
X3452215Y3055772D01*
X3454908Y3052318D01*
X3455873Y3048000D01*
X3454908Y3043682D01*
X3452215Y3040227D01*
X3448304Y3038195D01*
X3443884Y3036976D01*
X3435045Y3032861D01*
X3427069Y3027273D01*
X3425850Y3026105D01*
X3422599Y3023870D01*
X3418687Y3023108D01*
X2934208Y3023108D01*
X2926181Y3022295D01*
X2918968Y3020110D01*
X2912262Y3016554D01*
X2906064Y3011424D01*
X2674366Y2779725D01*
X2671470Y2777744D01*
X2668066Y2776829D01*
X2664510Y2777134D01*
X2652115Y2782976D01*
X2647696Y2784195D01*
X2643784Y2786227D01*
X2641092Y2789682D01*
X2640126Y2794000D01*
X2641092Y2798318D01*
X2643784Y2801772D01*
X2647696Y2803804D01*
X2652115Y2805023D01*
X2660954Y2809138D01*
X2668930Y2814726D01*
X2675788Y2821584D01*
X2681376Y2829560D01*
X2685491Y2838399D01*
X2688031Y2847797D01*
X2688894Y2857500D01*
X2688031Y2867202D01*
X2685491Y2876600D01*
X2681376Y2885440D01*
X2675788Y2893415D01*
X2668930Y2900273D01*
X2660954Y2905861D01*
X2652115Y2909976D01*
X2647696Y2911195D01*
X2643784Y2913227D01*
X2641092Y2916682D01*
X2640126Y2921000D01*
X2641092Y2925318D01*
X2643784Y2928772D01*
X2647696Y2930804D01*
X2652115Y2932023D01*
X2660954Y2936138D01*
X2668930Y2941726D01*
X2670149Y2942894D01*
X2673400Y2945130D01*
X2677312Y2945892D01*
X2723591Y2945892D01*
X2727502Y2945130D01*
X2730804Y2942894D01*
X2732379Y2941320D01*
X2740406Y2935681D01*
X2749346Y2931566D01*
X2758795Y2929026D01*
X2768600Y2928162D01*
X2778404Y2929026D01*
X2787853Y2931566D01*
X2796794Y2935681D01*
X2804820Y2941320D01*
X2811780Y2948279D01*
X2817418Y2956306D01*
X2821533Y2965246D01*
X2824073Y2974695D01*
X2824937Y2984500D01*
X2824073Y2994304D01*
X2821533Y3003753D01*
X2817418Y3012694D01*
X2811780Y3020720D01*
X2804820Y3027680D01*
X2796794Y3033318D01*
X2787853Y3037433D01*
X2778404Y3039973D01*
X2768600Y3040837D01*
X2758795Y3039973D01*
X2749346Y3037433D01*
X2740406Y3033318D01*
X2732379Y3027680D01*
X2730804Y3026105D01*
X2727502Y3023870D01*
X2723591Y3023108D01*
X2677312Y3023108D01*
X2673400Y3023870D01*
X2670149Y3026105D01*
X2668930Y3027273D01*
X2660954Y3032861D01*
X2652115Y3036976D01*
X2647696Y3038195D01*
X2643784Y3040227D01*
X2641092Y3043682D01*
X2640126Y3048000D01*
X2641092Y3052318D01*
X2643784Y3055772D01*
X2647696Y3057804D01*
X2652115Y3059023D01*
X2660954Y3063138D01*
X2668930Y3068726D01*
X2670149Y3069894D01*
X2673400Y3072130D01*
X2677312Y3072892D01*
X3231591Y3072892D01*
X3235502Y3072130D01*
X3238804Y3069894D01*
X3240379Y3068320D01*
X3248406Y3062681D01*
X3257346Y3058566D01*
X3266795Y3056026D01*
X3276600Y3055162D01*
X3286404Y3056026D01*
X3295853Y3058566D01*
X3304794Y3062681D01*
X3312820Y3068320D01*
X3319779Y3075279D01*
X3325418Y3083306D01*
X3329533Y3092246D01*
X3332073Y3101695D01*
X3332937Y3111500D01*
X3332073Y3121304D01*
X3331464Y3123590D01*
X3331159Y3127298D01*
X3332226Y3130854D01*
X3334512Y3133801D01*
X3337661Y3135731D01*
X3341268Y3136392D01*
X3398824Y3136392D01*
X3402431Y3135731D01*
X3405581Y3133801D01*
X3407867Y3130854D01*
X3408934Y3127298D01*
X3408679Y3124200D01*
X3535324Y3124200D01*
X3535324Y3126232D01*
X3536086Y3130143D01*
X3538270Y3133394D01*
X3541572Y3135630D01*
X3545484Y3136392D01*
X3550564Y3136392D01*
X3554425Y3135630D01*
X3557727Y3133394D01*
X3559911Y3130143D01*
X3560724Y3126232D01*
X3560724Y3124200D01*
X3687318Y3124200D01*
X3687064Y3127298D01*
X3688130Y3130854D01*
X3690416Y3133801D01*
X3693566Y3135731D01*
X3697173Y3136392D01*
X4399991Y3136392D01*
X4403902Y3135630D01*
X4407204Y3133394D01*
X4408779Y3131820D01*
X4416806Y3126181D01*
X4425746Y3122066D01*
X4435195Y3119526D01*
X4445000Y3118662D01*
X4454804Y3119526D01*
X4464253Y3122066D01*
X4473194Y3126181D01*
X4481220Y3131820D01*
X4488180Y3138779D01*
X4493818Y3146806D01*
X4497933Y3155746D01*
X4500473Y3165195D01*
X4501337Y3175000D01*
X4500473Y3184804D01*
X4497933Y3194253D01*
X4493818Y3203194D01*
X4488180Y3211220D01*
X4481220Y3218180D01*
X4473194Y3223818D01*
X4464253Y3227933D01*
X4454804Y3230473D01*
X4445000Y3231337D01*
X4435195Y3230473D01*
X4425746Y3227933D01*
X4416806Y3223818D01*
X4408779Y3218180D01*
X4407204Y3216605D01*
X4403902Y3214370D01*
X4399991Y3213608D01*
X3697173Y3213608D01*
X3693566Y3214268D01*
X3690416Y3216198D01*
X3688130Y3219145D01*
X3687064Y3222701D01*
X3687368Y3226409D01*
X3688029Y3228797D01*
X3688892Y3238500D01*
X3688029Y3248202D01*
X3685489Y3257600D01*
X3681374Y3266440D01*
X3675786Y3274415D01*
X3668928Y3281273D01*
X3660952Y3286861D01*
X3652113Y3290976D01*
X3647694Y3292195D01*
X3643782Y3294227D01*
X3641090Y3297682D01*
X3640124Y3302000D01*
X3641090Y3306318D01*
X3643782Y3309772D01*
X3647694Y3311804D01*
X3652113Y3313023D01*
X3660952Y3317138D01*
X3668928Y3322726D01*
X3675786Y3329584D01*
X3681374Y3337560D01*
X3685489Y3346399D01*
X3688029Y3355797D01*
X3688892Y3365500D01*
X3688029Y3375202D01*
X3685489Y3384600D01*
X3681374Y3393440D01*
X3675786Y3401415D01*
X3668928Y3408273D01*
X3660952Y3413861D01*
X3652113Y3417976D01*
X3647694Y3419195D01*
X3643782Y3421227D01*
X3641090Y3424682D01*
X3640124Y3429000D01*
X3641090Y3433318D01*
X3643782Y3436772D01*
X3647694Y3438804D01*
X3652113Y3440023D01*
X3660952Y3444138D01*
X3664458Y3446576D01*
X3668217Y3448202D01*
X3672332Y3448202D01*
X3676091Y3446576D01*
X3680206Y3443681D01*
X3689146Y3439566D01*
X3698595Y3437026D01*
X3708400Y3436162D01*
X3718204Y3437026D01*
X3727653Y3439566D01*
X3736594Y3443681D01*
X3744620Y3449320D01*
X3746195Y3450894D01*
X3749497Y3453129D01*
X3753408Y3453892D01*
X3816350Y3453892D01*
X3820210Y3453129D01*
X3823512Y3450894D01*
X3825748Y3447643D01*
X3826510Y3443732D01*
X3826510Y3409950D01*
X3827221Y3403650D01*
X3829100Y3398164D01*
X3832199Y3393287D01*
X3836314Y3389172D01*
X3841191Y3386124D01*
X3846677Y3384194D01*
X3852976Y3383483D01*
X3931818Y3383483D01*
X3938168Y3384194D01*
X3943604Y3386124D01*
X3948531Y3389172D01*
X3952595Y3393287D01*
X3953814Y3395167D01*
X3956608Y3398113D01*
X3960368Y3399739D01*
X3964432Y3399739D01*
X3968191Y3398113D01*
X3970985Y3395167D01*
X3972204Y3393287D01*
X3976268Y3389172D01*
X3981196Y3386124D01*
X3986631Y3384194D01*
X3992981Y3383483D01*
X4019702Y3383483D01*
X4019702Y3441700D01*
X3968496Y3441700D01*
X3964584Y3442462D01*
X3961282Y3444697D01*
X3959098Y3447948D01*
X3958336Y3451860D01*
X3958336Y3456940D01*
X3959098Y3460851D01*
X3961282Y3464102D01*
X3964584Y3466337D01*
X3968496Y3467100D01*
X4019702Y3467100D01*
X4019702Y3525316D01*
X3992981Y3525316D01*
X3986631Y3524605D01*
X3981196Y3522675D01*
X3976268Y3519627D01*
X3972204Y3515512D01*
X3970985Y3513632D01*
X3968191Y3510686D01*
X3964432Y3509060D01*
X3960368Y3509060D01*
X3956608Y3510686D01*
X3953814Y3513632D01*
X3952595Y3515512D01*
X3948531Y3519627D01*
X3943604Y3522675D01*
X3938168Y3524605D01*
X3931818Y3525316D01*
X3876852Y3525316D01*
X3874414Y3525621D01*
X3869080Y3528110D01*
X3861155Y3530498D01*
X3857548Y3532479D01*
X3855008Y3535679D01*
X3853992Y3539642D01*
X3854602Y3543706D01*
X3856736Y3547211D01*
X3860088Y3549548D01*
X3864101Y3550412D01*
X3926840Y3550412D01*
X3933139Y3551123D01*
X3938625Y3553002D01*
X3943502Y3556101D01*
X3947617Y3560216D01*
X3950665Y3565093D01*
X3952798Y3571189D01*
X3954932Y3574745D01*
X3958336Y3577132D01*
X3962400Y3577945D01*
X3966464Y3577132D01*
X3969867Y3574745D01*
X3972001Y3571189D01*
X3974134Y3565093D01*
X3977182Y3560216D01*
X3981297Y3556101D01*
X3986174Y3553002D01*
X3991660Y3551123D01*
X3997960Y3550412D01*
X4077462Y3550412D01*
X4083812Y3551123D01*
X4089247Y3553002D01*
X4094175Y3556101D01*
X4098239Y3560216D01*
X4101337Y3565093D01*
X4103268Y3570528D01*
X4104487Y3575405D01*
X4106722Y3578301D01*
X4109872Y3580231D01*
X4113479Y3580892D01*
X4653991Y3580892D01*
X4657902Y3580129D01*
X4661204Y3577945D01*
X4662779Y3576320D01*
X4670806Y3570681D01*
X4679746Y3566566D01*
X4689195Y3564026D01*
X4699000Y3563162D01*
X4708804Y3564026D01*
X4718253Y3566566D01*
X4727194Y3570681D01*
X4735220Y3576320D01*
X4742180Y3583279D01*
X4747818Y3591306D01*
X4751933Y3600246D01*
X4754473Y3609695D01*
X4755337Y3619500D01*
X4754473Y3629304D01*
X4751933Y3638753D01*
X4747818Y3647694D01*
X4742180Y3655720D01*
X4735220Y3662679D01*
X4733290Y3664000D01*
X4730394Y3667099D01*
X4729022Y3671163D01*
X4729429Y3675379D01*
X4731562Y3679088D01*
X4734966Y3681577D01*
X4739132Y3682492D01*
X4978958Y3682492D01*
X4982514Y3681831D01*
X4985613Y3680002D01*
X4987899Y3677208D01*
X4993944Y3666134D01*
X5002022Y3655161D01*
X5011521Y3645357D01*
X5022240Y3636873D01*
X5033975Y3629964D01*
X5046522Y3624630D01*
X5059680Y3621024D01*
X5073192Y3619195D01*
X5086807Y3619195D01*
X5100320Y3621024D01*
X5113477Y3624630D01*
X5126024Y3629964D01*
X5137759Y3636873D01*
X5148478Y3645357D01*
X5157978Y3655161D01*
X5166055Y3666134D01*
X5172608Y3678072D01*
X5177485Y3690823D01*
X5180685Y3704082D01*
X5182006Y3717645D01*
X5181549Y3731260D01*
X5179314Y3744722D01*
X5175250Y3757726D01*
X5169509Y3770122D01*
X5162194Y3781602D01*
X5153406Y3792016D01*
X5143246Y3801160D01*
X5132019Y3808882D01*
X5119878Y3815029D01*
X5106974Y3819499D01*
X5093614Y3822242D01*
X5080000Y3823157D01*
X5066385Y3822242D01*
X5053025Y3819499D01*
X5040122Y3815029D01*
X5027980Y3808882D01*
X5016754Y3801160D01*
X5006594Y3792016D01*
X4997805Y3781602D01*
X4990490Y3770122D01*
X4988356Y3765600D01*
X4986121Y3762501D01*
X4982921Y3760419D01*
X4979162Y3759708D01*
X4208475Y3759708D01*
X4204258Y3760622D01*
X4200804Y3763162D01*
X4198721Y3766921D01*
X4198366Y3771239D01*
X4199839Y3775252D01*
X4202430Y3779367D01*
X4204360Y3784854D01*
X4204766Y3788664D01*
X4205935Y3792321D01*
X4208322Y3795268D01*
X4211675Y3797147D01*
X4215434Y3797655D01*
X4219143Y3796741D01*
X4222546Y3795166D01*
X4231995Y3792626D01*
X4241800Y3791762D01*
X4251604Y3792626D01*
X4261053Y3795166D01*
X4269994Y3799281D01*
X4278020Y3804920D01*
X4284980Y3811879D01*
X4290618Y3819906D01*
X4294733Y3828846D01*
X4297273Y3838295D01*
X4298137Y3848100D01*
X4297273Y3857904D01*
X4294733Y3867353D01*
X4290618Y3876294D01*
X4284980Y3884320D01*
X4278020Y3891279D01*
X4269994Y3896918D01*
X4264050Y3899662D01*
X4260799Y3902100D01*
X4258716Y3905656D01*
X4258208Y3909720D01*
X4259376Y3913632D01*
X4262018Y3916781D01*
X4269486Y3922776D01*
X4331004Y3984294D01*
X4334306Y3986529D01*
X4338218Y3987292D01*
X4395520Y3987292D01*
X4399127Y3986631D01*
X4402277Y3984701D01*
X4404563Y3981805D01*
X4405731Y3976928D01*
X4407662Y3971493D01*
X4410760Y3966565D01*
X4414824Y3962501D01*
X4419752Y3959402D01*
X4425188Y3957523D01*
X4431538Y3956812D01*
X4511040Y3956812D01*
X4517339Y3957523D01*
X4522825Y3959402D01*
X4527702Y3962501D01*
X4531817Y3966565D01*
X4534865Y3971493D01*
X4536998Y3977538D01*
X4539132Y3981094D01*
X4542536Y3983532D01*
X4546600Y3984345D01*
X4550664Y3983532D01*
X4554067Y3981094D01*
X4556201Y3977538D01*
X4558334Y3971493D01*
X4561382Y3966565D01*
X4565497Y3962501D01*
X4570374Y3959402D01*
X4575860Y3957523D01*
X4582160Y3956812D01*
X4661662Y3956812D01*
X4668012Y3957523D01*
X4673447Y3959402D01*
X4678375Y3962501D01*
X4682439Y3966565D01*
X4685538Y3971493D01*
X4688586Y3980942D01*
X4690821Y3983837D01*
X4693970Y3985768D01*
X4697577Y3986428D01*
X4977231Y3986428D01*
X4981194Y3985615D01*
X4984496Y3983329D01*
X4986680Y3979926D01*
X4987391Y3978097D01*
X4993944Y3966108D01*
X5002022Y3955135D01*
X5011521Y3945331D01*
X5022240Y3936898D01*
X5033975Y3929938D01*
X5046522Y3924604D01*
X5059680Y3920998D01*
X5073192Y3919220D01*
X5086807Y3919220D01*
X5100320Y3920998D01*
X5113477Y3924604D01*
X5126024Y3929938D01*
X5137759Y3936898D01*
X5148478Y3945331D01*
X5157978Y3955135D01*
X5166055Y3966108D01*
X5172608Y3978097D01*
X5177485Y3990797D01*
X5180685Y4004056D01*
X5182006Y4017670D01*
X5181549Y4031284D01*
X5179314Y4044746D01*
X5175250Y4057751D01*
X5169509Y4070146D01*
X5162194Y4081627D01*
X5153406Y4092041D01*
X5143246Y4101185D01*
X5132019Y4108907D01*
X5119878Y4115054D01*
X5106974Y4119524D01*
X5093614Y4122216D01*
X5080000Y4123131D01*
X5066385Y4122216D01*
X5053025Y4119524D01*
X5040122Y4115054D01*
X5027980Y4108907D01*
X5016754Y4101185D01*
X5006594Y4092041D01*
X4997805Y4081627D01*
X4990185Y4069537D01*
X4987950Y4066438D01*
X4984750Y4064355D01*
X4980990Y4063644D01*
X4697780Y4063644D01*
X4694174Y4064304D01*
X4691024Y4066235D01*
X4688738Y4069130D01*
X4687671Y4072686D01*
X4687468Y4074871D01*
X4685538Y4080306D01*
X4682439Y4085234D01*
X4678375Y4089298D01*
X4673447Y4092397D01*
X4668012Y4094276D01*
X4661662Y4094987D01*
X4582160Y4094987D01*
X4575860Y4094276D01*
X4570374Y4092397D01*
X4565497Y4089298D01*
X4561382Y4085234D01*
X4558334Y4080306D01*
X4556201Y4074261D01*
X4554067Y4070705D01*
X4550664Y4068267D01*
X4546600Y4067454D01*
X4542536Y4068267D01*
X4539132Y4070705D01*
X4536998Y4074261D01*
X4534865Y4080306D01*
X4531817Y4085234D01*
X4527702Y4089298D01*
X4522825Y4092397D01*
X4517339Y4094276D01*
X4511040Y4094987D01*
X4431538Y4094987D01*
X4425188Y4094276D01*
X4419752Y4092397D01*
X4414824Y4089298D01*
X4410760Y4085234D01*
X4407662Y4080306D01*
X4405731Y4074871D01*
X4404563Y4069994D01*
X4402277Y4067098D01*
X4399127Y4065168D01*
X4395520Y4064508D01*
X4318508Y4064508D01*
X4310481Y4063695D01*
X4303268Y4061510D01*
X4296562Y4057954D01*
X4290364Y4052824D01*
X4228795Y3991305D01*
X4225493Y3989070D01*
X4221581Y3988308D01*
X3895750Y3988308D01*
X3891787Y3989120D01*
X3888435Y3991406D01*
X3886250Y3994810D01*
X3885590Y3998823D01*
X3886555Y4002786D01*
X3888333Y4006646D01*
X3890873Y4016095D01*
X3891737Y4025900D01*
X3890873Y4035704D01*
X3888333Y4045153D01*
X3884218Y4054094D01*
X3878579Y4062120D01*
X3871620Y4069079D01*
X3863594Y4074718D01*
X3854653Y4078833D01*
X3845204Y4081373D01*
X3835400Y4082237D01*
X3825595Y4081373D01*
X3816146Y4078833D01*
X3807206Y4074718D01*
X3801008Y4070350D01*
X3797604Y4068775D01*
X3793896Y4068572D01*
X3790340Y4069740D01*
X3787444Y4072077D01*
X3785565Y4075328D01*
X3783837Y4080306D01*
X3780739Y4085234D01*
X3776675Y4089298D01*
X3771747Y4092397D01*
X3766312Y4094276D01*
X3759962Y4094987D01*
X3680460Y4094987D01*
X3674160Y4094276D01*
X3668674Y4092397D01*
X3663797Y4089298D01*
X3659682Y4085234D01*
X3656634Y4080306D01*
X3654501Y4074261D01*
X3652367Y4070705D01*
X3648964Y4068267D01*
X3644900Y4067454D01*
X3640836Y4068267D01*
X3637432Y4070705D01*
X3635298Y4074261D01*
X3633165Y4080306D01*
X3630117Y4085234D01*
X3626002Y4089298D01*
X3621125Y4092397D01*
X3615639Y4094276D01*
X3609340Y4094987D01*
X3529837Y4094987D01*
X3523487Y4094276D01*
X3518052Y4092397D01*
X3513124Y4089298D01*
X3509060Y4085234D01*
X3505962Y4080306D01*
X3504031Y4074871D01*
X3502863Y4069994D01*
X3500577Y4067098D01*
X3497427Y4065168D01*
X3493820Y4064508D01*
X3468065Y4064508D01*
X3464407Y4065168D01*
X3461207Y4067149D01*
X3458972Y4070096D01*
X3457956Y4073702D01*
X3457143Y4081729D01*
X3455263Y4087114D01*
X3452164Y4091990D01*
X3448100Y4096105D01*
X3443173Y4099204D01*
X3437737Y4101084D01*
X3431387Y4101795D01*
X3342538Y4101795D01*
X3336239Y4101084D01*
X3330752Y4099204D01*
X3325876Y4096105D01*
X3321761Y4091990D01*
X3318713Y4087114D01*
X3316782Y4081627D01*
X3316071Y4075328D01*
X3316071Y3976471D01*
X3316782Y3970121D01*
X3318713Y3964686D01*
X3321761Y3959758D01*
X3325876Y3955694D01*
X3330752Y3952595D01*
X3336239Y3950715D01*
X3342538Y3950004D01*
X3431387Y3950004D01*
X3437737Y3950715D01*
X3443173Y3952595D01*
X3448100Y3955694D01*
X3452164Y3959758D01*
X3455263Y3964686D01*
X3457143Y3970070D01*
X3457956Y3978097D01*
X3458972Y3981704D01*
X3461207Y3984650D01*
X3464407Y3986631D01*
X3468065Y3987292D01*
X3493820Y3987292D01*
X3497427Y3986631D01*
X3500577Y3984701D01*
X3502863Y3981805D01*
X3504031Y3976928D01*
X3505962Y3971493D01*
X3509060Y3966565D01*
X3513124Y3962501D01*
X3518052Y3959402D01*
X3523487Y3957523D01*
X3529837Y3956812D01*
X3609340Y3956812D01*
X3615639Y3957523D01*
X3621125Y3959402D01*
X3626002Y3962501D01*
X3630117Y3966565D01*
X3633165Y3971493D01*
X3635298Y3977538D01*
X3637432Y3981094D01*
X3640836Y3983532D01*
X3644900Y3984345D01*
X3648964Y3983532D01*
X3652367Y3981094D01*
X3654501Y3977538D01*
X3656634Y3971493D01*
X3659682Y3966565D01*
X3663797Y3962501D01*
X3668674Y3959402D01*
X3674160Y3957523D01*
X3680460Y3956812D01*
X3759962Y3956812D01*
X3766312Y3957523D01*
X3771747Y3959402D01*
X3776675Y3962501D01*
X3780739Y3966565D01*
X3783837Y3971493D01*
X3785565Y3976471D01*
X3787444Y3979722D01*
X3790340Y3982059D01*
X3793896Y3983228D01*
X3797604Y3983024D01*
X3801008Y3981450D01*
X3807206Y3977081D01*
X3816146Y3972966D01*
X3825595Y3970426D01*
X3828440Y3970172D01*
X3832148Y3969105D01*
X3835146Y3966768D01*
X3837127Y3963517D01*
X3837736Y3959758D01*
X3836873Y3955999D01*
X3834739Y3952849D01*
X3816400Y3934460D01*
X3813098Y3932275D01*
X3809187Y3931513D01*
X3746195Y3931513D01*
X3739896Y3930802D01*
X3734460Y3928872D01*
X3729532Y3925824D01*
X3725468Y3921709D01*
X3722370Y3916832D01*
X3720439Y3911346D01*
X3719728Y3905046D01*
X3719728Y3896868D01*
X3718966Y3892956D01*
X3716782Y3889705D01*
X3713479Y3887470D01*
X3709568Y3886708D01*
X2813608Y3886708D01*
X2809697Y3887470D01*
X2806395Y3889705D01*
X2804820Y3891279D01*
X2796794Y3896918D01*
X2787853Y3901033D01*
X2778404Y3903573D01*
X2768600Y3904437D01*
X2758795Y3903573D01*
X2749346Y3901033D01*
X2740406Y3896918D01*
X2732379Y3891279D01*
X2725420Y3884320D01*
X2719781Y3876294D01*
X2715666Y3867353D01*
X2713126Y3857904D01*
X2712262Y3848100D01*
X2713126Y3838295D01*
X2713736Y3836009D01*
X2714040Y3832301D01*
X2712974Y3828745D01*
X2710688Y3825798D01*
X2707538Y3823868D01*
X2703931Y3823208D01*
X1632508Y3823208D01*
X1628597Y3823970D01*
X1625295Y3826205D01*
X1623720Y3827779D01*
X1615694Y3833418D01*
X1606753Y3837533D01*
X1597304Y3840073D01*
X1587500Y3840937D01*
X1577695Y3840073D01*
X1568246Y3837533D01*
X1559306Y3833418D01*
X1551279Y3827779D01*
X1544320Y3820820D01*
X1538681Y3812794D01*
X1534566Y3803853D01*
X1532026Y3794404D01*
X1531162Y3784600D01*
X1532026Y3774795D01*
X1532636Y3772509D01*
X1532940Y3768801D01*
X1531874Y3765245D01*
X1529588Y3762298D01*
X1526438Y3760368D01*
X1522831Y3759708D01*
X1118108Y3759708D01*
X1110081Y3758895D01*
X1102868Y3756710D01*
X1096162Y3753154D01*
X1089964Y3748024D01*
X1002995Y3661105D01*
X999693Y3658870D01*
X995781Y3658108D01*
X937310Y3658108D01*
X933399Y3658870D01*
X930148Y3661105D01*
X928928Y3662273D01*
X920953Y3667861D01*
X912114Y3671976D01*
X902716Y3674516D01*
X892556Y3675430D01*
X773430Y3675430D01*
X763320Y3674516D01*
X753872Y3671976D01*
X745083Y3667861D01*
X737108Y3662273D01*
X730199Y3655415D01*
X724611Y3647440D01*
X720496Y3638600D01*
X717956Y3629202D01*
X717143Y3619500D01*
X717956Y3609797D01*
X720496Y3600399D01*
X724611Y3591560D01*
X730199Y3583584D01*
X737108Y3576726D01*
X745083Y3571138D01*
X753872Y3567023D01*
X758342Y3565804D01*
X762203Y3563772D01*
X764895Y3560318D01*
X765860Y3556000D01*
X764895Y3551682D01*
X762203Y3548227D01*
X758342Y3546195D01*
X753872Y3544976D01*
X745083Y3540861D01*
X737108Y3535273D01*
X730199Y3528415D01*
X724611Y3520440D01*
X720496Y3511600D01*
X717956Y3502202D01*
X717143Y3492500D01*
X717956Y3482797D01*
X720496Y3473399D01*
X724611Y3464560D01*
X730199Y3456584D01*
X737108Y3449726D01*
X745083Y3444138D01*
X753872Y3440023D01*
X758342Y3438804D01*
X762203Y3436772D01*
X764895Y3433318D01*
X765860Y3429000D01*
X764895Y3424682D01*
X762203Y3421227D01*
X758342Y3419195D01*
X753872Y3417976D01*
X745083Y3413861D01*
X737108Y3408273D01*
X730199Y3401415D01*
X724611Y3393440D01*
X720496Y3384600D01*
X717956Y3375202D01*
X717143Y3365500D01*
X717956Y3355797D01*
X720496Y3346399D01*
X724611Y3337560D01*
X730199Y3329584D01*
X737108Y3322726D01*
X745083Y3317138D01*
X753872Y3313023D01*
X758342Y3311804D01*
X762203Y3309772D01*
X764895Y3306318D01*
X765860Y3302000D01*
X764895Y3297682D01*
X762203Y3294227D01*
X758342Y3292195D01*
X753872Y3290976D01*
X745083Y3286861D01*
X737108Y3281273D01*
X730199Y3274415D01*
X724611Y3266440D01*
X720496Y3257600D01*
X717956Y3248202D01*
X717143Y3238500D01*
X717956Y3228797D01*
X720496Y3219399D01*
X724611Y3210560D01*
X730199Y3202584D01*
X737108Y3195726D01*
X745083Y3190138D01*
X753872Y3186023D01*
X758342Y3184804D01*
X762203Y3182772D01*
X764895Y3179318D01*
X765860Y3175000D01*
X764895Y3170682D01*
X762203Y3167227D01*
X758342Y3165195D01*
X753872Y3163976D01*
X745083Y3159861D01*
X737108Y3154273D01*
X730199Y3147415D01*
X724611Y3139440D01*
X720496Y3130600D01*
X718769Y3124200D01*
X820318Y3124200D01*
X820318Y3172409D01*
X821080Y3176320D01*
X823264Y3179622D01*
X826566Y3181807D01*
X830478Y3182569D01*
X835558Y3182569D01*
X839419Y3181807D01*
X842721Y3179622D01*
X844905Y3176320D01*
X845718Y3172409D01*
X845718Y3124200D01*
X947216Y3124200D01*
X945489Y3130600D01*
X941374Y3139440D01*
X935786Y3147415D01*
X928928Y3154273D01*
X920953Y3159861D01*
X912114Y3163976D01*
X907694Y3165195D01*
X903782Y3167227D01*
X901090Y3170682D01*
X900176Y3175000D01*
X901090Y3179318D01*
X903782Y3182772D01*
X907694Y3184804D01*
X912114Y3186023D01*
X920953Y3190138D01*
X928928Y3195726D01*
X930148Y3196894D01*
X933450Y3199130D01*
X937310Y3199892D01*
X1148791Y3199892D01*
X1152702Y3199130D01*
X1156004Y3196894D01*
X1157579Y3195320D01*
X1165606Y3189681D01*
X1174546Y3185566D01*
X1183995Y3183026D01*
X1193800Y3182162D01*
X1203604Y3183026D01*
X1213053Y3185566D01*
X1221994Y3189681D01*
X1230020Y3195320D01*
X1236980Y3202279D01*
X1242618Y3210306D01*
X1246733Y3219246D01*
X1249273Y3228695D01*
X1250137Y3238500D01*
X1249273Y3248304D01*
X1246733Y3257753D01*
X1242618Y3266694D01*
X1236980Y3274720D01*
X1230020Y3281679D01*
X1221994Y3287318D01*
X1213053Y3291433D01*
X1203604Y3293973D01*
X1193800Y3294837D01*
X1183995Y3293973D01*
X1174546Y3291433D01*
X1165606Y3287318D01*
X1157579Y3281679D01*
X1156004Y3280105D01*
X1152702Y3277870D01*
X1148791Y3277108D01*
X937310Y3277108D01*
X933399Y3277870D01*
X930148Y3280105D01*
X928928Y3281273D01*
X920953Y3286861D01*
X912114Y3290976D01*
X907694Y3292195D01*
X903782Y3294227D01*
X901090Y3297682D01*
X900176Y3302000D01*
X901090Y3306318D01*
X903782Y3309772D01*
X907694Y3311804D01*
X912114Y3313023D01*
X920953Y3317138D01*
X928928Y3322726D01*
X935786Y3329584D01*
X941374Y3337560D01*
X945489Y3346399D01*
X948029Y3355797D01*
X948893Y3365500D01*
X948029Y3375202D01*
X945489Y3384600D01*
X941374Y3393440D01*
X935786Y3401415D01*
X928928Y3408273D01*
X920953Y3413861D01*
X912114Y3417976D01*
X907694Y3419195D01*
X903782Y3421227D01*
X901090Y3424682D01*
X900176Y3429000D01*
X901090Y3433318D01*
X903782Y3436772D01*
X907694Y3438804D01*
X912114Y3440023D01*
X920953Y3444138D01*
X928928Y3449726D01*
X930148Y3450894D01*
X933450Y3453129D01*
X937310Y3453892D01*
X1224991Y3453892D01*
X1228902Y3453129D01*
X1232204Y3450894D01*
X1233779Y3449320D01*
X1241806Y3443681D01*
X1250746Y3439566D01*
X1260195Y3437026D01*
X1270000Y3436162D01*
X1279804Y3437026D01*
X1289253Y3439566D01*
X1298194Y3443681D01*
X1306220Y3449320D01*
X1313180Y3456279D01*
X1318818Y3464306D01*
X1322578Y3472383D01*
X1324813Y3475482D01*
X1328013Y3477514D01*
X1331772Y3478225D01*
X1335532Y3477514D01*
X1338732Y3475482D01*
X1340967Y3472383D01*
X1344625Y3464560D01*
X1350213Y3456584D01*
X1357071Y3449726D01*
X1365046Y3444138D01*
X1373886Y3440023D01*
X1378305Y3438804D01*
X1382217Y3436772D01*
X1384909Y3433318D01*
X1385824Y3429000D01*
X1384909Y3424682D01*
X1382217Y3421227D01*
X1378305Y3419195D01*
X1373886Y3417976D01*
X1365046Y3413861D01*
X1357071Y3408273D01*
X1350213Y3401415D01*
X1344625Y3393440D01*
X1340510Y3384600D01*
X1337970Y3375202D01*
X1337106Y3365500D01*
X1337970Y3355797D01*
X1340510Y3346399D01*
X1344625Y3337560D01*
X1350213Y3329584D01*
X1357071Y3322726D01*
X1365046Y3317138D01*
X1373886Y3313023D01*
X1378305Y3311804D01*
X1382217Y3309772D01*
X1384909Y3306318D01*
X1385824Y3302000D01*
X1384909Y3297682D01*
X1382217Y3294227D01*
X1378305Y3292195D01*
X1373886Y3290976D01*
X1365046Y3286861D01*
X1357071Y3281273D01*
X1350213Y3274415D01*
X1344625Y3266440D01*
X1340510Y3257600D01*
X1337970Y3248202D01*
X1337106Y3238500D01*
X1337970Y3228797D01*
X1340510Y3219399D01*
X1344625Y3210560D01*
X1350213Y3202584D01*
X1357071Y3195726D01*
X1365046Y3190138D01*
X1373886Y3186023D01*
X1378305Y3184804D01*
X1382217Y3182772D01*
X1384909Y3179318D01*
X1385824Y3175000D01*
X1384909Y3170682D01*
X1382217Y3167227D01*
X1378305Y3165195D01*
X1373886Y3163976D01*
X1365046Y3159861D01*
X1357071Y3154273D01*
X1350213Y3147415D01*
X1344625Y3139440D01*
X1340510Y3130600D01*
X1337970Y3121202D01*
X1337106Y3111500D01*
X1337970Y3101797D01*
X1340510Y3092399D01*
X1344625Y3083560D01*
X1350213Y3075584D01*
X1357071Y3068726D01*
X1365046Y3063138D01*
X1373886Y3059023D01*
X1378305Y3057804D01*
X1382217Y3055772D01*
X1384909Y3052318D01*
X1385824Y3048000D01*
X1384909Y3043682D01*
X1382217Y3040227D01*
X1378305Y3038195D01*
X1373886Y3036976D01*
X1365046Y3032861D01*
X1357071Y3027273D01*
X1350213Y3020415D01*
X1344625Y3012440D01*
X1340510Y3003600D01*
X1338783Y2997200D01*
X1440281Y2997200D01*
X1440281Y3045409D01*
X1441094Y3049320D01*
X1443278Y3052622D01*
X1446580Y3054807D01*
X1450441Y3055569D01*
X1455521Y3055569D01*
X1459433Y3054807D01*
X1462735Y3052622D01*
X1464919Y3049320D01*
X1465681Y3045409D01*
X1465681Y2997200D01*
X1567230Y2997200D01*
X1565503Y3003600D01*
X1561388Y3012440D01*
X1555800Y3020415D01*
X1548892Y3027273D01*
X1540916Y3032861D01*
X1532128Y3036976D01*
X1527657Y3038195D01*
X1523796Y3040227D01*
X1521104Y3043682D01*
X1520139Y3048000D01*
X1521104Y3052318D01*
X1523796Y3055772D01*
X1527657Y3057804D01*
X1532128Y3059023D01*
X1540916Y3063138D01*
X1548892Y3068726D01*
X1550111Y3069894D01*
X1553413Y3072130D01*
X1557324Y3072892D01*
X1732991Y3072892D01*
X1736902Y3072130D01*
X1740204Y3069894D01*
X1741779Y3068320D01*
X1749806Y3062681D01*
X1758746Y3058566D01*
X1768195Y3056026D01*
X1778000Y3055162D01*
X1787804Y3056026D01*
X1797253Y3058566D01*
X1806193Y3062681D01*
X1814220Y3068320D01*
X1821180Y3075279D01*
X1826818Y3083306D01*
X1830933Y3092246D01*
X1833473Y3101695D01*
X1834337Y3111500D01*
X1833473Y3121304D01*
X1830933Y3130753D01*
X1826818Y3139694D01*
X1821180Y3147720D01*
X1814220Y3154680D01*
X1806193Y3160318D01*
X1797253Y3164433D01*
X1787804Y3166973D01*
X1778000Y3167837D01*
X1768195Y3166973D01*
X1758746Y3164433D01*
X1749806Y3160318D01*
X1741779Y3154680D01*
X1740204Y3153105D01*
X1736902Y3150870D01*
X1732991Y3150108D01*
X1557324Y3150108D01*
X1553413Y3150870D01*
X1550111Y3153105D01*
X1548892Y3154273D01*
X1540916Y3159861D01*
X1532128Y3163976D01*
X1527657Y3165195D01*
X1523796Y3167227D01*
X1521104Y3170682D01*
X1520139Y3175000D01*
X1521104Y3179318D01*
X1523796Y3182772D01*
X1527657Y3184804D01*
X1532128Y3186023D01*
X1540916Y3190138D01*
X1548892Y3195726D01*
X1555800Y3202584D01*
X1561388Y3210560D01*
X1565503Y3219399D01*
X1568043Y3228797D01*
X1568856Y3238500D01*
X1568043Y3248202D01*
X1565503Y3257600D01*
X1561388Y3266440D01*
X1555800Y3274415D01*
X1548892Y3281273D01*
X1540916Y3286861D01*
X1532128Y3290976D01*
X1527657Y3292195D01*
X1523796Y3294227D01*
X1521104Y3297682D01*
X1520139Y3302000D01*
X1521104Y3306318D01*
X1523796Y3309772D01*
X1527657Y3311804D01*
X1532128Y3313023D01*
X1540916Y3317138D01*
X1548892Y3322726D01*
X1550111Y3323894D01*
X1553413Y3326129D01*
X1557324Y3326892D01*
X1809191Y3326892D01*
X1813102Y3326129D01*
X1816404Y3323894D01*
X1817979Y3322320D01*
X1826006Y3316681D01*
X1834946Y3312566D01*
X1844395Y3310026D01*
X1854200Y3309162D01*
X1864004Y3310026D01*
X1873453Y3312566D01*
X1882393Y3316681D01*
X1890420Y3322320D01*
X1897481Y3329381D01*
X1901037Y3331667D01*
X1905203Y3332327D01*
X1909267Y3331260D01*
X1912569Y3328619D01*
X1914499Y3324860D01*
X1915566Y3320846D01*
X1919681Y3311906D01*
X1925320Y3303879D01*
X1932279Y3296920D01*
X1940306Y3291281D01*
X1949246Y3287166D01*
X1958695Y3284626D01*
X1968500Y3283762D01*
X1978304Y3284626D01*
X1987753Y3287166D01*
X1996693Y3291281D01*
X2004720Y3296920D01*
X2006295Y3298494D01*
X2009597Y3300729D01*
X2013508Y3301492D01*
X2082292Y3301492D01*
X2090318Y3302304D01*
X2097532Y3304489D01*
X2104237Y3308045D01*
X2110435Y3313176D01*
X2177796Y3380536D01*
X2181098Y3382721D01*
X2185009Y3383483D01*
X2243023Y3383483D01*
X2249322Y3384194D01*
X2254808Y3386124D01*
X2259685Y3389172D01*
X2263800Y3393287D01*
X2266899Y3398164D01*
X2268778Y3403650D01*
X2269134Y3406749D01*
X2270201Y3410305D01*
X2272487Y3413201D01*
X2275586Y3415131D01*
X2279243Y3415792D01*
X2336292Y3415792D01*
X2344318Y3416604D01*
X2351532Y3418789D01*
X2358237Y3422345D01*
X2364435Y3427476D01*
X2387904Y3450894D01*
X2391206Y3453129D01*
X2395118Y3453892D01*
X2418689Y3453892D01*
X2422601Y3453129D01*
X2425852Y3450894D01*
X2427071Y3449726D01*
X2435047Y3444138D01*
X2443886Y3440023D01*
X2448306Y3438804D01*
X2452217Y3436772D01*
X2454910Y3433318D01*
X2455875Y3429000D01*
X2454910Y3424682D01*
X2452217Y3421227D01*
X2448306Y3419195D01*
X2443886Y3417976D01*
X2435047Y3413861D01*
X2427071Y3408273D01*
X2420213Y3401415D01*
X2414625Y3393440D01*
X2410510Y3384600D01*
X2407970Y3375202D01*
X2407107Y3365500D01*
X2407970Y3355797D01*
X2410510Y3346399D01*
X2414625Y3337560D01*
X2420213Y3329584D01*
X2427071Y3322726D01*
X2435047Y3317138D01*
X2443886Y3313023D01*
X2448306Y3311804D01*
X2452217Y3309772D01*
X2454910Y3306318D01*
X2455875Y3302000D01*
X2454910Y3297682D01*
X2452217Y3294227D01*
X2448306Y3292195D01*
X2443886Y3290976D01*
X2435047Y3286861D01*
X2427071Y3281273D01*
X2420213Y3274415D01*
X2414625Y3266440D01*
X2410510Y3257600D01*
X2407970Y3248202D01*
X2407107Y3238500D01*
X2407970Y3228797D01*
X2410510Y3219399D01*
X2414625Y3210560D01*
X2420213Y3202584D01*
X2427071Y3195726D01*
X2435047Y3190138D01*
X2443886Y3186023D01*
X2448306Y3184804D01*
X2452217Y3182772D01*
X2454910Y3179318D01*
X2455875Y3175000D01*
X2454910Y3170682D01*
X2452217Y3167227D01*
X2448306Y3165195D01*
X2443886Y3163976D01*
X2435047Y3159861D01*
X2427071Y3154273D01*
X2420213Y3147415D01*
X2414625Y3139440D01*
X2410510Y3130600D01*
X2407970Y3121202D01*
X2407107Y3111500D01*
X2407970Y3101797D01*
X2410510Y3092399D01*
X2414625Y3083560D01*
X2420213Y3075584D01*
X2427071Y3068726D01*
X2435047Y3063138D01*
X2443886Y3059023D01*
X2448306Y3057804D01*
X2452217Y3055772D01*
X2454910Y3052318D01*
X2455875Y3048000D01*
X2454910Y3043682D01*
X2452217Y3040227D01*
X2448306Y3038195D01*
X2443886Y3036976D01*
X2435047Y3032861D01*
X2427071Y3027273D01*
X2420213Y3020415D01*
X2414625Y3012440D01*
X2410510Y3003600D01*
X2407970Y2994202D01*
X2407107Y2984500D01*
X2407970Y2974797D01*
X2410510Y2965399D01*
X2414625Y2956560D01*
X2420213Y2948584D01*
X2427071Y2941726D01*
X2435047Y2936138D01*
X2443886Y2932023D01*
X2448306Y2930804D01*
X2452217Y2928772D01*
X2454910Y2925318D01*
X2455875Y2921000D01*
X2454910Y2916682D01*
X2452217Y2913227D01*
X2448306Y2911195D01*
X2443886Y2909976D01*
X2435047Y2905861D01*
X2427071Y2900273D01*
X2425852Y2899105D01*
X2422601Y2896870D01*
X2418689Y2896108D01*
X2381808Y2896108D01*
X2377897Y2896870D01*
X2374595Y2899105D01*
X2373020Y2900680D01*
X2364994Y2906318D01*
X2356053Y2910433D01*
X2346604Y2912973D01*
X2338578Y2913684D01*
X2335174Y2914599D01*
X2332278Y2916631D01*
X2326335Y2922524D01*
X2320137Y2927654D01*
X2313432Y2931210D01*
X2306218Y2933395D01*
X2298192Y2934208D01*
X2279243Y2934208D01*
X2275586Y2934868D01*
X2272487Y2936798D01*
X2270201Y2939694D01*
X2269134Y2943250D01*
X2268778Y2946349D01*
X2266899Y2951835D01*
X2263800Y2956712D01*
X2259685Y2960827D01*
X2254808Y2963875D01*
X2249322Y2965805D01*
X2243023Y2966516D01*
X2164181Y2966516D01*
X2157831Y2965805D01*
X2152396Y2963875D01*
X2147468Y2960827D01*
X2143404Y2956712D01*
X2142185Y2954832D01*
X2139391Y2951886D01*
X2135632Y2950260D01*
X2131568Y2950260D01*
X2127808Y2951886D01*
X2125014Y2954832D01*
X2123795Y2956712D01*
X2119731Y2960827D01*
X2114804Y2963875D01*
X2109368Y2965805D01*
X2103018Y2966516D01*
X2076297Y2966516D01*
X2076297Y2908300D01*
X2127504Y2908300D01*
X2131415Y2907538D01*
X2134717Y2905302D01*
X2136902Y2902051D01*
X2137664Y2898140D01*
X2137664Y2893060D01*
X2136902Y2889148D01*
X2134717Y2885897D01*
X2131415Y2883662D01*
X2127504Y2882900D01*
X2076297Y2882900D01*
X2076297Y2824683D01*
X2103018Y2824683D01*
X2109368Y2825394D01*
X2114804Y2827324D01*
X2119731Y2830372D01*
X2123795Y2834487D01*
X2125014Y2836367D01*
X2127808Y2839313D01*
X2131568Y2840939D01*
X2135632Y2840939D01*
X2139391Y2839313D01*
X2142185Y2836367D01*
X2143404Y2834487D01*
X2147468Y2830372D01*
X2152396Y2827324D01*
X2157831Y2825394D01*
X2164181Y2824683D01*
X2243023Y2824683D01*
X2249322Y2825394D01*
X2254808Y2827324D01*
X2259685Y2830372D01*
X2263800Y2834487D01*
X2266391Y2838602D01*
X2269388Y2841701D01*
X2273452Y2843225D01*
X2277770Y2842971D01*
X2281580Y2840939D01*
X2284171Y2837484D01*
X2287981Y2829306D01*
X2293620Y2821279D01*
X2300579Y2814320D01*
X2308606Y2808681D01*
X2317546Y2804566D01*
X2326995Y2802026D01*
X2336800Y2801162D01*
X2346604Y2802026D01*
X2356053Y2804566D01*
X2364994Y2808681D01*
X2373020Y2814320D01*
X2374595Y2815894D01*
X2377897Y2818130D01*
X2381808Y2818892D01*
X2418689Y2818892D01*
X2422601Y2818130D01*
X2425852Y2815894D01*
X2427071Y2814726D01*
X2435047Y2809138D01*
X2443886Y2805023D01*
X2448306Y2803804D01*
X2452217Y2801772D01*
X2454910Y2798318D01*
X2455875Y2794000D01*
X2454910Y2789682D01*
X2452217Y2786227D01*
X2448306Y2784195D01*
X2443886Y2782976D01*
X2435047Y2778861D01*
X2427071Y2773273D01*
X2425852Y2772105D01*
X2422601Y2769870D01*
X2418689Y2769108D01*
X2284679Y2769108D01*
X2281072Y2769768D01*
X2277922Y2771698D01*
X2275636Y2774594D01*
X2274468Y2779471D01*
X2272538Y2784906D01*
X2269439Y2789834D01*
X2265375Y2793898D01*
X2260447Y2796997D01*
X2255012Y2798876D01*
X2248662Y2799588D01*
X2169160Y2799588D01*
X2162860Y2798876D01*
X2157374Y2796997D01*
X2152497Y2793898D01*
X2148382Y2789834D01*
X2145334Y2784906D01*
X2143201Y2778861D01*
X2141067Y2775305D01*
X2137664Y2772867D01*
X2133600Y2772054D01*
X2129536Y2772867D01*
X2126132Y2775305D01*
X2123998Y2778861D01*
X2121865Y2784906D01*
X2118817Y2789834D01*
X2114702Y2793898D01*
X2109825Y2796997D01*
X2104339Y2798876D01*
X2098040Y2799588D01*
X2018538Y2799588D01*
X2012188Y2798876D01*
X2006752Y2796997D01*
X2001824Y2793898D01*
X1997760Y2789834D01*
X1994662Y2784906D01*
X1992731Y2779471D01*
X1991563Y2774594D01*
X1989277Y2771698D01*
X1986127Y2769768D01*
X1982520Y2769108D01*
X1714906Y2769108D01*
X1710994Y2769870D01*
X1707692Y2772105D01*
X1706118Y2773680D01*
X1698091Y2779318D01*
X1689150Y2783433D01*
X1679702Y2785973D01*
X1669897Y2786837D01*
X1660093Y2785973D01*
X1650644Y2783433D01*
X1641703Y2779318D01*
X1633677Y2773680D01*
X1626717Y2766720D01*
X1621078Y2758694D01*
X1616964Y2749753D01*
X1614424Y2740304D01*
X1613560Y2730500D01*
X1614424Y2720695D01*
X1616964Y2711246D01*
X1621078Y2702306D01*
X1626717Y2694279D01*
X1633677Y2687320D01*
X1641703Y2681681D01*
X1650644Y2677566D01*
X1660093Y2675026D01*
X1669897Y2674162D01*
X1679702Y2675026D01*
X1689150Y2677566D01*
X1698091Y2681681D01*
X1706118Y2687320D01*
X1707692Y2688894D01*
X1710994Y2691130D01*
X1714906Y2691892D01*
X1982520Y2691892D01*
X1986127Y2691231D01*
X1989277Y2689301D01*
X1991563Y2686405D01*
X1992731Y2681528D01*
X1994662Y2676093D01*
X1997760Y2671165D01*
X2001824Y2667101D01*
X2006752Y2664002D01*
X2012188Y2662123D01*
G37*
G36*
X1778000Y4147362D02*
G01*
X1787804Y4148226D01*
X1797253Y4150766D01*
X1806193Y4154881D01*
X1814220Y4160520D01*
X1815795Y4162094D01*
X1819097Y4164329D01*
X1823008Y4165092D01*
X3383991Y4165092D01*
X3387902Y4164329D01*
X3391204Y4162094D01*
X3392779Y4160520D01*
X3400806Y4154881D01*
X3409746Y4150766D01*
X3419195Y4148226D01*
X3429000Y4147362D01*
X3438804Y4148226D01*
X3448253Y4150766D01*
X3457194Y4154881D01*
X3465220Y4160520D01*
X3466795Y4162094D01*
X3470097Y4164329D01*
X3474008Y4165092D01*
X3790391Y4165092D01*
X3794302Y4164329D01*
X3797604Y4162094D01*
X3799179Y4160520D01*
X3807206Y4154881D01*
X3816146Y4150766D01*
X3825595Y4148226D01*
X3835400Y4147362D01*
X3845204Y4148226D01*
X3854653Y4150766D01*
X3863594Y4154881D01*
X3871620Y4160520D01*
X3878579Y4167479D01*
X3884218Y4175506D01*
X3888333Y4184446D01*
X3890873Y4193895D01*
X3891737Y4203700D01*
X3890873Y4213504D01*
X3888333Y4222953D01*
X3884218Y4231894D01*
X3878579Y4239920D01*
X3871620Y4246880D01*
X3863594Y4252518D01*
X3854653Y4256633D01*
X3845204Y4259173D01*
X3835400Y4260037D01*
X3825595Y4259173D01*
X3816146Y4256633D01*
X3807206Y4252518D01*
X3799179Y4246880D01*
X3797604Y4245305D01*
X3794302Y4243070D01*
X3790391Y4242308D01*
X3740048Y4242308D01*
X3736086Y4243120D01*
X3732733Y4245406D01*
X3730548Y4248810D01*
X3729888Y4252823D01*
X3730853Y4256786D01*
X3732631Y4260646D01*
X3735171Y4270095D01*
X3736035Y4279900D01*
X3735171Y4289704D01*
X3732631Y4299153D01*
X3728516Y4308094D01*
X3722878Y4316120D01*
X3715918Y4323080D01*
X3707892Y4328718D01*
X3698951Y4332833D01*
X3689502Y4335373D01*
X3685844Y4335729D01*
X3681679Y4337050D01*
X3679698Y4338828D01*
X3677716Y4337050D01*
X3673551Y4335729D01*
X3669893Y4335373D01*
X3660444Y4332833D01*
X3651504Y4328718D01*
X3643477Y4323080D01*
X3641902Y4321505D01*
X3638600Y4319270D01*
X3634689Y4318508D01*
X2884068Y4318508D01*
X2880461Y4319168D01*
X2877312Y4321098D01*
X2875026Y4324045D01*
X2873959Y4327601D01*
X2874264Y4331309D01*
X2874873Y4333595D01*
X2875737Y4343400D01*
X2874873Y4353204D01*
X2872333Y4362653D01*
X2868218Y4371594D01*
X2862580Y4379620D01*
X2855620Y4386580D01*
X2847594Y4392218D01*
X2838653Y4396333D01*
X2829204Y4398873D01*
X2819400Y4399737D01*
X2809595Y4398873D01*
X2800146Y4396333D01*
X2791206Y4392218D01*
X2783179Y4386580D01*
X2781604Y4385005D01*
X2778302Y4382770D01*
X2774391Y4382008D01*
X2728366Y4382008D01*
X2724759Y4382668D01*
X2721610Y4384598D01*
X2719324Y4387545D01*
X2718257Y4391101D01*
X2718562Y4394809D01*
X2719171Y4397095D01*
X2720035Y4406900D01*
X2719171Y4416704D01*
X2716631Y4426153D01*
X2712516Y4435094D01*
X2706878Y4443120D01*
X2699918Y4450080D01*
X2691892Y4455718D01*
X2682951Y4459833D01*
X2673502Y4462373D01*
X2663698Y4463237D01*
X2653893Y4462373D01*
X2644444Y4459833D01*
X2635504Y4455718D01*
X2627477Y4450080D01*
X2625902Y4448505D01*
X2622600Y4446270D01*
X2618689Y4445508D01*
X1835810Y4445508D01*
X1831441Y4446524D01*
X1827885Y4449318D01*
X1825904Y4453382D01*
X1825904Y4457852D01*
X1827834Y4461916D01*
X1831339Y4464761D01*
X1837029Y4467606D01*
X1848561Y4475276D01*
X1858975Y4484420D01*
X1868119Y4494834D01*
X1875789Y4506366D01*
X1881936Y4518761D01*
X1886356Y4531918D01*
X1889099Y4545482D01*
X1889963Y4559300D01*
X1889099Y4573117D01*
X1886356Y4586681D01*
X1881936Y4599838D01*
X1875789Y4612233D01*
X1868119Y4623765D01*
X1858975Y4634179D01*
X1848561Y4643323D01*
X1837029Y4650994D01*
X1824634Y4657140D01*
X1811477Y4661560D01*
X1797913Y4664303D01*
X1784096Y4665167D01*
X1770278Y4664303D01*
X1756714Y4661560D01*
X1743557Y4657140D01*
X1731162Y4650994D01*
X1719630Y4643323D01*
X1709216Y4634179D01*
X1700072Y4623765D01*
X1692402Y4612233D01*
X1686255Y4599838D01*
X1681835Y4586681D01*
X1679092Y4573117D01*
X1678228Y4559300D01*
X1679092Y4545482D01*
X1681835Y4531918D01*
X1686255Y4518761D01*
X1692402Y4506366D01*
X1700072Y4494834D01*
X1709216Y4484420D01*
X1719630Y4475276D01*
X1731162Y4467606D01*
X1736852Y4464761D01*
X1740357Y4461916D01*
X1742287Y4457852D01*
X1742287Y4453382D01*
X1740306Y4449318D01*
X1736750Y4446524D01*
X1732381Y4445508D01*
X1315008Y4445508D01*
X1311097Y4446270D01*
X1307795Y4448505D01*
X1306220Y4450080D01*
X1298194Y4455718D01*
X1289253Y4459833D01*
X1279804Y4462373D01*
X1270000Y4463237D01*
X1260195Y4462373D01*
X1250746Y4459833D01*
X1241806Y4455718D01*
X1233779Y4450080D01*
X1226820Y4443120D01*
X1221181Y4435094D01*
X1217066Y4426153D01*
X1214526Y4416704D01*
X1213764Y4408220D01*
X1212646Y4404410D01*
X1210157Y4401312D01*
X1206703Y4399381D01*
X1202740Y4398975D01*
X1193800Y4399737D01*
X1183995Y4398873D01*
X1174546Y4396333D01*
X1165606Y4392218D01*
X1157579Y4386580D01*
X1150620Y4379620D01*
X1144981Y4371594D01*
X1140866Y4362653D01*
X1138326Y4353204D01*
X1137462Y4343400D01*
X1138326Y4333595D01*
X1140866Y4324146D01*
X1144981Y4315206D01*
X1150620Y4307179D01*
X1157579Y4300220D01*
X1165606Y4294581D01*
X1174546Y4290466D01*
X1183995Y4287926D01*
X1193800Y4287062D01*
X1203604Y4287926D01*
X1213053Y4290466D01*
X1221994Y4294581D01*
X1230020Y4300220D01*
X1231595Y4301794D01*
X1234897Y4304030D01*
X1238808Y4304792D01*
X1789531Y4304792D01*
X1793138Y4304131D01*
X1796288Y4302201D01*
X1798574Y4299254D01*
X1799640Y4295698D01*
X1799336Y4291990D01*
X1798726Y4289704D01*
X1797862Y4279900D01*
X1798675Y4270197D01*
X1798116Y4265828D01*
X1795780Y4262120D01*
X1792071Y4259783D01*
X1787702Y4259224D01*
X1778000Y4260037D01*
X1768195Y4259173D01*
X1758746Y4256633D01*
X1749806Y4252518D01*
X1741779Y4246880D01*
X1734820Y4239920D01*
X1729181Y4231894D01*
X1725066Y4222953D01*
X1722526Y4213504D01*
X1721662Y4203700D01*
X1722526Y4193895D01*
X1725066Y4184446D01*
X1729181Y4175506D01*
X1734820Y4167479D01*
X1741779Y4160520D01*
X1749806Y4154881D01*
X1758746Y4150766D01*
X1768195Y4148226D01*
G37*
G36*
X2130094Y4038600D02*
G01*
X2188311Y4038600D01*
X2188311Y4101795D01*
X2156561Y4101795D01*
X2150262Y4101084D01*
X2144776Y4099204D01*
X2139899Y4096105D01*
X2135784Y4091990D01*
X2132685Y4087114D01*
X2130806Y4081627D01*
X2130094Y4075328D01*
G37*
G36*
X2213711Y4038600D02*
G01*
X2271877Y4038600D01*
X2271877Y4075328D01*
X2271166Y4081627D01*
X2269286Y4087114D01*
X2266188Y4091990D01*
X2262073Y4096105D01*
X2257196Y4099204D01*
X2251710Y4101084D01*
X2245410Y4101795D01*
X2213711Y4101795D01*
G37*
G36*
X3146094Y4038600D02*
G01*
X3204311Y4038600D01*
X3204311Y4101795D01*
X3172561Y4101795D01*
X3166262Y4101084D01*
X3160776Y4099204D01*
X3155899Y4096105D01*
X3151784Y4091990D01*
X3148685Y4087114D01*
X3146806Y4081627D01*
X3146094Y4075328D01*
G37*
G36*
X3229711Y4038600D02*
G01*
X3287877Y4038600D01*
X3287877Y4075328D01*
X3287166Y4081627D01*
X3285286Y4087114D01*
X3282187Y4091990D01*
X3278073Y4096105D01*
X3273196Y4099204D01*
X3267710Y4101084D01*
X3261410Y4101795D01*
X3229711Y4101795D01*
G37*
G36*
X2326538Y3950004D02*
G01*
X2415387Y3950004D01*
X2421737Y3950715D01*
X2427173Y3952595D01*
X2432100Y3955694D01*
X2436164Y3959758D01*
X2439263Y3964686D01*
X2441143Y3970070D01*
X2441956Y3978097D01*
X2442972Y3981704D01*
X2445207Y3984650D01*
X2448407Y3986631D01*
X2452065Y3987292D01*
X2477820Y3987292D01*
X2481427Y3986631D01*
X2484577Y3984701D01*
X2486863Y3981805D01*
X2488031Y3976928D01*
X2489962Y3971493D01*
X2493060Y3966565D01*
X2497124Y3962501D01*
X2502052Y3959402D01*
X2507488Y3957523D01*
X2513838Y3956812D01*
X2593340Y3956812D01*
X2599639Y3957523D01*
X2605125Y3959402D01*
X2610002Y3962501D01*
X2614117Y3966565D01*
X2617165Y3971493D01*
X2619298Y3977538D01*
X2621432Y3981094D01*
X2624836Y3983532D01*
X2628900Y3984345D01*
X2632964Y3983532D01*
X2636367Y3981094D01*
X2638501Y3977538D01*
X2640634Y3971493D01*
X2643682Y3966565D01*
X2647797Y3962501D01*
X2652674Y3959402D01*
X2658160Y3957523D01*
X2664460Y3956812D01*
X2743962Y3956812D01*
X2750312Y3957523D01*
X2755747Y3959402D01*
X2760675Y3962501D01*
X2764739Y3966565D01*
X2767838Y3971493D01*
X2769565Y3976471D01*
X2771444Y3979722D01*
X2774340Y3982059D01*
X2777896Y3983228D01*
X2781604Y3983024D01*
X2785008Y3981450D01*
X2791206Y3977081D01*
X2800146Y3972966D01*
X2809595Y3970426D01*
X2819400Y3969562D01*
X2829204Y3970426D01*
X2838653Y3972966D01*
X2847594Y3977081D01*
X2855620Y3982720D01*
X2862580Y3989679D01*
X2868218Y3997706D01*
X2872333Y4006646D01*
X2874873Y4016095D01*
X2875737Y4025900D01*
X2874873Y4035704D01*
X2872333Y4045153D01*
X2868218Y4054094D01*
X2862580Y4062120D01*
X2855620Y4069079D01*
X2847594Y4074718D01*
X2838653Y4078833D01*
X2829204Y4081373D01*
X2819400Y4082237D01*
X2809595Y4081373D01*
X2800146Y4078833D01*
X2791206Y4074718D01*
X2785008Y4070350D01*
X2781604Y4068775D01*
X2777896Y4068572D01*
X2774340Y4069740D01*
X2771444Y4072077D01*
X2769565Y4075328D01*
X2767838Y4080306D01*
X2764739Y4085234D01*
X2760675Y4089298D01*
X2755747Y4092397D01*
X2750312Y4094276D01*
X2743962Y4094987D01*
X2664460Y4094987D01*
X2658160Y4094276D01*
X2652674Y4092397D01*
X2647797Y4089298D01*
X2643682Y4085234D01*
X2640634Y4080306D01*
X2638501Y4074261D01*
X2636367Y4070705D01*
X2632964Y4068267D01*
X2628900Y4067454D01*
X2624836Y4068267D01*
X2621432Y4070705D01*
X2619298Y4074261D01*
X2617165Y4080306D01*
X2614117Y4085234D01*
X2610002Y4089298D01*
X2605125Y4092397D01*
X2599639Y4094276D01*
X2593340Y4094987D01*
X2513838Y4094987D01*
X2507488Y4094276D01*
X2502052Y4092397D01*
X2497124Y4089298D01*
X2493060Y4085234D01*
X2489962Y4080306D01*
X2488031Y4074871D01*
X2486863Y4069994D01*
X2484577Y4067098D01*
X2481427Y4065168D01*
X2477820Y4064508D01*
X2452065Y4064508D01*
X2448407Y4065168D01*
X2445207Y4067149D01*
X2442972Y4070096D01*
X2441956Y4073702D01*
X2441143Y4081729D01*
X2439263Y4087114D01*
X2436164Y4091990D01*
X2432100Y4096105D01*
X2427173Y4099204D01*
X2421737Y4101084D01*
X2415387Y4101795D01*
X2326538Y4101795D01*
X2320239Y4101084D01*
X2314752Y4099204D01*
X2309876Y4096105D01*
X2305761Y4091990D01*
X2302713Y4087114D01*
X2300782Y4081627D01*
X2300071Y4075328D01*
X2300071Y3976471D01*
X2300782Y3970121D01*
X2302713Y3964686D01*
X2305761Y3959758D01*
X2309876Y3955694D01*
X2314752Y3952595D01*
X2320239Y3950715D01*
G37*
G36*
X2156561Y3950004D02*
G01*
X2188311Y3950004D01*
X2188311Y4013200D01*
X2130094Y4013200D01*
X2130094Y3976471D01*
X2130806Y3970121D01*
X2132685Y3964686D01*
X2135784Y3959758D01*
X2139899Y3955694D01*
X2144776Y3952595D01*
X2150262Y3950715D01*
G37*
G36*
X3172561Y3950004D02*
G01*
X3204311Y3950004D01*
X3204311Y4013200D01*
X3146094Y4013200D01*
X3146094Y3976471D01*
X3146806Y3970121D01*
X3148685Y3964686D01*
X3151784Y3959758D01*
X3155899Y3955694D01*
X3160776Y3952595D01*
X3166262Y3950715D01*
G37*
G36*
X2213711Y3950004D02*
G01*
X2245410Y3950004D01*
X2251710Y3950715D01*
X2257196Y3952595D01*
X2262073Y3955694D01*
X2266188Y3959758D01*
X2269286Y3964686D01*
X2271166Y3970121D01*
X2271877Y3976471D01*
X2271877Y4013200D01*
X2213711Y4013200D01*
G37*
G36*
X3229711Y3950004D02*
G01*
X3261410Y3950004D01*
X3267710Y3950715D01*
X3273196Y3952595D01*
X3278073Y3955694D01*
X3282187Y3959758D01*
X3285286Y3964686D01*
X3287166Y3970121D01*
X3287877Y3976471D01*
X3287877Y4013200D01*
X3229711Y4013200D01*
G37*
G36*
X368300Y105562D02*
G01*
X368300Y368300D01*
X105664Y368300D01*
X106070Y357936D01*
X108966Y334975D01*
X113792Y312369D01*
X120446Y290271D01*
X128981Y268782D01*
X139242Y248107D01*
X151180Y228295D01*
X164795Y209600D01*
X179882Y192125D01*
X196392Y175971D01*
X214172Y161239D01*
X233171Y148031D01*
X253187Y136499D01*
X274066Y126644D01*
X295757Y118618D01*
X318008Y112369D01*
X340715Y108051D01*
X363677Y105664D01*
G37*
G36*
X4045102Y3383483D02*
G01*
X4071823Y3383483D01*
X4078122Y3384194D01*
X4083608Y3386124D01*
X4088485Y3389172D01*
X4092600Y3393287D01*
X4095699Y3398164D01*
X4097578Y3403650D01*
X4098290Y3409950D01*
X4098290Y3441700D01*
X4045102Y3441700D01*
G37*
G36*
X5073192Y3319221D02*
G01*
X5086807Y3319221D01*
X5100320Y3320999D01*
X5113477Y3324606D01*
X5126024Y3329940D01*
X5137759Y3336899D01*
X5148478Y3345332D01*
X5157978Y3355136D01*
X5166055Y3366109D01*
X5172608Y3378098D01*
X5177485Y3390798D01*
X5180685Y3404057D01*
X5182006Y3417671D01*
X5181549Y3431286D01*
X5179314Y3444748D01*
X5175250Y3457752D01*
X5169509Y3470148D01*
X5162194Y3481628D01*
X5153406Y3492042D01*
X5143246Y3501186D01*
X5132019Y3508908D01*
X5119878Y3515055D01*
X5106974Y3519525D01*
X5093614Y3522218D01*
X5080000Y3523132D01*
X5066385Y3522218D01*
X5053025Y3519525D01*
X5040122Y3515055D01*
X5027980Y3508908D01*
X5016754Y3501186D01*
X5006594Y3492042D01*
X4997805Y3481628D01*
X4990490Y3470148D01*
X4984750Y3457752D01*
X4980686Y3444748D01*
X4978450Y3431286D01*
X4977993Y3417671D01*
X4979314Y3404057D01*
X4982514Y3390798D01*
X4987391Y3378098D01*
X4993944Y3366109D01*
X5002022Y3355136D01*
X5011521Y3345332D01*
X5022240Y3336899D01*
X5033975Y3329940D01*
X5046522Y3324606D01*
X5059680Y3320999D01*
G37*
G36*
X4045102Y2908300D02*
G01*
X4098290Y2908300D01*
X4098290Y2940050D01*
X4097578Y2946349D01*
X4095699Y2951835D01*
X4092600Y2956712D01*
X4088485Y2960827D01*
X4083608Y2963875D01*
X4078122Y2965805D01*
X4071823Y2966516D01*
X4045102Y2966516D01*
G37*
G36*
X1997710Y2908300D02*
G01*
X2050897Y2908300D01*
X2050897Y2966516D01*
X2024176Y2966516D01*
X2017877Y2965805D01*
X2012391Y2963875D01*
X2007514Y2960827D01*
X2003399Y2956712D01*
X2000300Y2951835D01*
X1998421Y2946349D01*
X1997710Y2940050D01*
G37*
G36*
X718769Y2870200D02*
G01*
X820318Y2870200D01*
X820318Y2918409D01*
X821080Y2922320D01*
X823264Y2925622D01*
X826566Y2927807D01*
X830478Y2928569D01*
X835558Y2928569D01*
X839419Y2927807D01*
X842721Y2925622D01*
X844905Y2922320D01*
X845718Y2918409D01*
X845718Y2870200D01*
X947216Y2870200D01*
X945489Y2876600D01*
X941374Y2885440D01*
X935786Y2893415D01*
X928928Y2900273D01*
X920953Y2905861D01*
X912114Y2909976D01*
X907694Y2911195D01*
X903782Y2913227D01*
X901090Y2916682D01*
X900176Y2921000D01*
X901090Y2925318D01*
X903782Y2928772D01*
X907694Y2930804D01*
X912114Y2932023D01*
X920953Y2936138D01*
X928928Y2941726D01*
X935786Y2948584D01*
X941374Y2956560D01*
X945489Y2965399D01*
X948029Y2974797D01*
X948893Y2984500D01*
X948029Y2994202D01*
X945489Y3003600D01*
X941374Y3012440D01*
X935786Y3020415D01*
X928928Y3027273D01*
X920953Y3032861D01*
X912114Y3036976D01*
X907694Y3038195D01*
X903782Y3040227D01*
X901090Y3043682D01*
X900176Y3048000D01*
X901090Y3052318D01*
X903782Y3055772D01*
X907694Y3057804D01*
X912114Y3059023D01*
X920953Y3063138D01*
X928928Y3068726D01*
X935786Y3075584D01*
X941374Y3083560D01*
X945489Y3092399D01*
X947216Y3098800D01*
X845718Y3098800D01*
X845718Y3050590D01*
X844905Y3046679D01*
X842721Y3043377D01*
X839419Y3041192D01*
X835558Y3040430D01*
X830478Y3040430D01*
X826566Y3041192D01*
X823264Y3043377D01*
X821080Y3046679D01*
X820318Y3050590D01*
X820318Y3098800D01*
X718769Y3098800D01*
X720496Y3092399D01*
X724611Y3083560D01*
X730199Y3075584D01*
X737108Y3068726D01*
X745083Y3063138D01*
X753872Y3059023D01*
X758342Y3057804D01*
X762203Y3055772D01*
X764895Y3052318D01*
X765860Y3048000D01*
X764895Y3043682D01*
X762203Y3040227D01*
X758342Y3038195D01*
X753872Y3036976D01*
X745083Y3032861D01*
X737108Y3027273D01*
X730199Y3020415D01*
X724611Y3012440D01*
X720496Y3003600D01*
X717956Y2994202D01*
X717143Y2984500D01*
X717956Y2974797D01*
X720496Y2965399D01*
X724611Y2956560D01*
X730199Y2948584D01*
X737108Y2941726D01*
X745083Y2936138D01*
X753872Y2932023D01*
X758342Y2930804D01*
X762203Y2928772D01*
X764895Y2925318D01*
X765860Y2921000D01*
X764895Y2916682D01*
X762203Y2913227D01*
X758342Y2911195D01*
X753872Y2909976D01*
X745083Y2905861D01*
X737108Y2900273D01*
X730199Y2893415D01*
X724611Y2885440D01*
X720496Y2876600D01*
G37*
G36*
X2024176Y2824683D02*
G01*
X2050897Y2824683D01*
X2050897Y2882900D01*
X1997710Y2882900D01*
X1997710Y2851150D01*
X1998421Y2844850D01*
X2000300Y2839364D01*
X2003399Y2834487D01*
X2007514Y2830372D01*
X2012391Y2827324D01*
X2017877Y2825394D01*
G37*
G36*
X4045102Y2824683D02*
G01*
X4071823Y2824683D01*
X4078122Y2825394D01*
X4083608Y2827324D01*
X4088485Y2830372D01*
X4092600Y2834487D01*
X4095699Y2839364D01*
X4097578Y2844850D01*
X4098290Y2851150D01*
X4098290Y2882900D01*
X4045102Y2882900D01*
G37*
G36*
X845718Y2801569D02*
G01*
X892556Y2801569D01*
X902716Y2802483D01*
X912114Y2805023D01*
X920953Y2809138D01*
X928928Y2814726D01*
X935786Y2821584D01*
X941374Y2829560D01*
X945489Y2838399D01*
X947216Y2844800D01*
X845718Y2844800D01*
G37*
G36*
X773430Y2801569D02*
G01*
X820318Y2801569D01*
X820318Y2844800D01*
X718769Y2844800D01*
X720496Y2838399D01*
X724611Y2829560D01*
X730199Y2821584D01*
X737108Y2814726D01*
X745083Y2809138D01*
X753872Y2805023D01*
X763320Y2802483D01*
G37*
G36*
X1393444Y2801569D02*
G01*
X1512570Y2801569D01*
X1522679Y2802483D01*
X1532128Y2805023D01*
X1540916Y2809138D01*
X1548892Y2814726D01*
X1555800Y2821584D01*
X1561388Y2829560D01*
X1565503Y2838399D01*
X1568043Y2847797D01*
X1568856Y2857500D01*
X1568043Y2867202D01*
X1565503Y2876600D01*
X1561388Y2885440D01*
X1555800Y2893415D01*
X1548892Y2900273D01*
X1540916Y2905861D01*
X1532128Y2909976D01*
X1527657Y2911195D01*
X1523796Y2913227D01*
X1521104Y2916682D01*
X1520139Y2921000D01*
X1521104Y2925318D01*
X1523796Y2928772D01*
X1527657Y2930804D01*
X1532128Y2932023D01*
X1540916Y2936138D01*
X1548892Y2941726D01*
X1555800Y2948584D01*
X1561388Y2956560D01*
X1565503Y2965399D01*
X1567230Y2971800D01*
X1465681Y2971800D01*
X1465681Y2923590D01*
X1464919Y2919679D01*
X1462735Y2916377D01*
X1459433Y2914192D01*
X1455521Y2913430D01*
X1450441Y2913430D01*
X1446580Y2914192D01*
X1443278Y2916377D01*
X1441094Y2919679D01*
X1440281Y2923590D01*
X1440281Y2971800D01*
X1338783Y2971800D01*
X1340510Y2965399D01*
X1344625Y2956560D01*
X1350213Y2948584D01*
X1357071Y2941726D01*
X1365046Y2936138D01*
X1373886Y2932023D01*
X1378305Y2930804D01*
X1382217Y2928772D01*
X1384909Y2925318D01*
X1385824Y2921000D01*
X1384909Y2916682D01*
X1382217Y2913227D01*
X1378305Y2911195D01*
X1373886Y2909976D01*
X1365046Y2905861D01*
X1357071Y2900273D01*
X1350213Y2893415D01*
X1344625Y2885440D01*
X1340510Y2876600D01*
X1337970Y2867202D01*
X1337106Y2857500D01*
X1337970Y2847797D01*
X1340510Y2838399D01*
X1344625Y2829560D01*
X1350213Y2821584D01*
X1357071Y2814726D01*
X1365046Y2809138D01*
X1373886Y2805023D01*
X1383284Y2802483D01*
G37*

%LPD*%
G36*
X1807362Y3531108D02*
G01*
X1803450Y3531870D01*
X1800148Y3534105D01*
X1797964Y3537356D01*
X1797202Y3541268D01*
X1797202Y3606800D01*
X1745996Y3606800D01*
X1742084Y3607562D01*
X1738782Y3609797D01*
X1736598Y3613048D01*
X1735836Y3616960D01*
X1735836Y3622040D01*
X1736598Y3625951D01*
X1738782Y3629202D01*
X1742084Y3631437D01*
X1745996Y3632200D01*
X1797202Y3632200D01*
X1797202Y3672332D01*
X1797964Y3676243D01*
X1800148Y3679494D01*
X1803450Y3681729D01*
X1807362Y3682492D01*
X1812442Y3682492D01*
X1816303Y3681729D01*
X1819605Y3679494D01*
X1821840Y3676243D01*
X1822602Y3672332D01*
X1822602Y3632200D01*
X1875789Y3632200D01*
X1875789Y3663950D01*
X1874977Y3671214D01*
X1875383Y3675430D01*
X1877517Y3679088D01*
X1880920Y3681628D01*
X1885086Y3682492D01*
X1983333Y3682492D01*
X1987143Y3681780D01*
X1990394Y3679698D01*
X1992579Y3676548D01*
X1993493Y3672789D01*
X1992426Y3665575D01*
X1991258Y3661816D01*
X1988769Y3658819D01*
X1985264Y3656990D01*
X1979168Y3655110D01*
X1972462Y3651554D01*
X1966264Y3646424D01*
X1893163Y3573322D01*
X1889861Y3571138D01*
X1885950Y3570376D01*
X1882089Y3571138D01*
X1878787Y3573322D01*
X1876552Y3576624D01*
X1875789Y3580536D01*
X1875789Y3606800D01*
X1822602Y3606800D01*
X1822602Y3541268D01*
X1821840Y3537356D01*
X1819605Y3534105D01*
X1816303Y3531870D01*
X1812442Y3531108D01*
G37*

%LPD*%
G36*
X1917496Y3373272D02*
G01*
X1913432Y3374339D01*
X1910130Y3376980D01*
X1908200Y3380740D01*
X1907133Y3384753D01*
X1903018Y3393694D01*
X1897380Y3401720D01*
X1890420Y3408679D01*
X1882393Y3414318D01*
X1873453Y3418433D01*
X1864004Y3420973D01*
X1854200Y3421837D01*
X1844395Y3420973D01*
X1834946Y3418433D01*
X1826006Y3414318D01*
X1817979Y3408679D01*
X1816404Y3407105D01*
X1813102Y3404870D01*
X1809191Y3404108D01*
X1557324Y3404108D01*
X1553413Y3404870D01*
X1550111Y3407105D01*
X1548892Y3408273D01*
X1540916Y3413861D01*
X1532128Y3417976D01*
X1527657Y3419195D01*
X1523796Y3421227D01*
X1521104Y3424682D01*
X1520139Y3429000D01*
X1521104Y3433318D01*
X1523796Y3436772D01*
X1527657Y3438804D01*
X1532128Y3440023D01*
X1540916Y3444138D01*
X1544015Y3446272D01*
X1547774Y3447897D01*
X1551889Y3447897D01*
X1555648Y3446272D01*
X1559306Y3443681D01*
X1568246Y3439566D01*
X1577695Y3437026D01*
X1587500Y3436162D01*
X1597304Y3437026D01*
X1606753Y3439566D01*
X1615694Y3443681D01*
X1622856Y3448761D01*
X1626616Y3450386D01*
X1630730Y3450386D01*
X1634540Y3448761D01*
X1641703Y3443681D01*
X1650644Y3439566D01*
X1660093Y3437026D01*
X1669897Y3436162D01*
X1679702Y3437026D01*
X1689150Y3439566D01*
X1698091Y3443681D01*
X1706118Y3449320D01*
X1707692Y3450894D01*
X1710994Y3453129D01*
X1714906Y3453892D01*
X1866392Y3453892D01*
X1874418Y3454704D01*
X1881632Y3456889D01*
X1888337Y3460445D01*
X1894535Y3465576D01*
X1986280Y3557270D01*
X1989582Y3559505D01*
X1993442Y3560267D01*
X1997354Y3559505D01*
X2000656Y3557270D01*
X2001824Y3556101D01*
X2006752Y3553002D01*
X2012188Y3551123D01*
X2018538Y3550412D01*
X2098040Y3550412D01*
X2104339Y3551123D01*
X2109825Y3553002D01*
X2114702Y3556101D01*
X2118817Y3560165D01*
X2121865Y3565093D01*
X2123998Y3571138D01*
X2126132Y3574694D01*
X2129536Y3577132D01*
X2133600Y3577945D01*
X2137664Y3577132D01*
X2141067Y3574694D01*
X2143201Y3571138D01*
X2145334Y3565093D01*
X2148382Y3560165D01*
X2152497Y3556101D01*
X2157374Y3553002D01*
X2162860Y3551123D01*
X2169160Y3550412D01*
X2248662Y3550412D01*
X2255012Y3551123D01*
X2260447Y3553002D01*
X2265375Y3556101D01*
X2269439Y3560165D01*
X2272538Y3565093D01*
X2274468Y3570528D01*
X2275636Y3575405D01*
X2277922Y3578301D01*
X2281072Y3580231D01*
X2284679Y3580892D01*
X2418689Y3580892D01*
X2422601Y3580129D01*
X2425852Y3577894D01*
X2427071Y3576726D01*
X2435047Y3571138D01*
X2443886Y3567023D01*
X2448306Y3565804D01*
X2452217Y3563772D01*
X2454910Y3560318D01*
X2455875Y3556000D01*
X2454910Y3551682D01*
X2452217Y3548227D01*
X2448306Y3546195D01*
X2443886Y3544976D01*
X2435047Y3540861D01*
X2427071Y3535273D01*
X2425852Y3534105D01*
X2422601Y3531870D01*
X2418689Y3531108D01*
X2375408Y3531108D01*
X2367381Y3530295D01*
X2360168Y3528110D01*
X2353462Y3524554D01*
X2347264Y3519474D01*
X2323795Y3496005D01*
X2320493Y3493770D01*
X2316581Y3493008D01*
X2279243Y3493008D01*
X2275586Y3493668D01*
X2272487Y3495598D01*
X2270201Y3498494D01*
X2269134Y3502050D01*
X2268778Y3505149D01*
X2266899Y3510635D01*
X2263800Y3515512D01*
X2259685Y3519627D01*
X2254808Y3522675D01*
X2249322Y3524605D01*
X2243023Y3525316D01*
X2164181Y3525316D01*
X2157831Y3524605D01*
X2152396Y3522675D01*
X2147468Y3519627D01*
X2143404Y3515512D01*
X2142185Y3513632D01*
X2139391Y3510686D01*
X2135632Y3509060D01*
X2131568Y3509060D01*
X2127808Y3510686D01*
X2125014Y3513632D01*
X2123795Y3515512D01*
X2119731Y3519627D01*
X2114804Y3522675D01*
X2109368Y3524605D01*
X2103018Y3525316D01*
X2076297Y3525316D01*
X2076297Y3467100D01*
X2127504Y3467100D01*
X2131415Y3466337D01*
X2134717Y3464102D01*
X2136902Y3460851D01*
X2137664Y3456940D01*
X2137664Y3453790D01*
X2136902Y3449878D01*
X2134717Y3446627D01*
X2132787Y3444697D01*
X2129485Y3442462D01*
X2125573Y3441700D01*
X2076297Y3441700D01*
X2076297Y3392424D01*
X2075535Y3388512D01*
X2073351Y3385210D01*
X2069795Y3381705D01*
X2066493Y3379470D01*
X2061057Y3378708D01*
X2057196Y3379470D01*
X2053894Y3381705D01*
X2051659Y3384956D01*
X2050897Y3388868D01*
X2050897Y3441700D01*
X1997710Y3441700D01*
X1997710Y3409950D01*
X1998319Y3404565D01*
X1997964Y3400653D01*
X1996186Y3397199D01*
X1993239Y3394608D01*
X1989480Y3393389D01*
X1985568Y3393643D01*
X1978304Y3395573D01*
X1968500Y3396437D01*
X1958695Y3395573D01*
X1949246Y3393033D01*
X1940306Y3388918D01*
X1932279Y3383279D01*
X1925218Y3376218D01*
X1921662Y3373932D01*
G37*

%LPC*%
G36*
X1997710Y3467100D02*
G01*
X2050897Y3467100D01*
X2050897Y3525316D01*
X2024176Y3525316D01*
X2017877Y3524605D01*
X2012391Y3522675D01*
X2007514Y3519627D01*
X2003399Y3515512D01*
X2000300Y3510635D01*
X1998421Y3505149D01*
X1997710Y3498850D01*
G37*

%LPD*%
G36*
X2865018Y3213608D02*
G01*
X2861106Y3214370D01*
X2857804Y3216605D01*
X2808935Y3265424D01*
X2802737Y3270554D01*
X2796032Y3274110D01*
X2788818Y3276295D01*
X2780792Y3277108D01*
X2677312Y3277108D01*
X2673400Y3277870D01*
X2670149Y3280105D01*
X2668930Y3281273D01*
X2660954Y3286861D01*
X2652115Y3290976D01*
X2647696Y3292195D01*
X2643784Y3294227D01*
X2641092Y3297682D01*
X2640126Y3302000D01*
X2641092Y3306318D01*
X2643784Y3309772D01*
X2647696Y3311804D01*
X2652115Y3313023D01*
X2660954Y3317138D01*
X2668930Y3322726D01*
X2670149Y3323894D01*
X2673400Y3326129D01*
X2677312Y3326892D01*
X2723591Y3326892D01*
X2727502Y3326129D01*
X2730804Y3323894D01*
X2732379Y3322320D01*
X2740406Y3316681D01*
X2749346Y3312566D01*
X2758795Y3310026D01*
X2768600Y3309162D01*
X2778404Y3310026D01*
X2787853Y3312566D01*
X2796794Y3316681D01*
X2804820Y3322320D01*
X2811780Y3329279D01*
X2817418Y3337306D01*
X2821533Y3346246D01*
X2824073Y3355695D01*
X2824937Y3365500D01*
X2824073Y3375304D01*
X2821533Y3384753D01*
X2817418Y3393694D01*
X2811780Y3401720D01*
X2804820Y3408679D01*
X2796794Y3414318D01*
X2787853Y3418433D01*
X2778404Y3420973D01*
X2768600Y3421837D01*
X2758795Y3420973D01*
X2749346Y3418433D01*
X2740406Y3414318D01*
X2732379Y3408679D01*
X2730804Y3407105D01*
X2727502Y3404870D01*
X2723591Y3404108D01*
X2677312Y3404108D01*
X2673400Y3404870D01*
X2670149Y3407105D01*
X2668930Y3408273D01*
X2660954Y3413861D01*
X2652115Y3417976D01*
X2647696Y3419195D01*
X2643784Y3421227D01*
X2641092Y3424682D01*
X2640126Y3429000D01*
X2641092Y3433318D01*
X2643784Y3436772D01*
X2647696Y3438804D01*
X2652115Y3440023D01*
X2660954Y3444138D01*
X2668930Y3449726D01*
X2675788Y3456584D01*
X2681376Y3464560D01*
X2685491Y3473399D01*
X2688031Y3482797D01*
X2688894Y3492500D01*
X2688031Y3502202D01*
X2685491Y3511600D01*
X2681376Y3520440D01*
X2675788Y3528415D01*
X2668930Y3535273D01*
X2660954Y3540861D01*
X2652115Y3544976D01*
X2647696Y3546195D01*
X2643784Y3548227D01*
X2641092Y3551682D01*
X2640126Y3556000D01*
X2641092Y3560318D01*
X2643784Y3563772D01*
X2647696Y3565804D01*
X2652115Y3567023D01*
X2660954Y3571138D01*
X2668930Y3576726D01*
X2675788Y3583584D01*
X2681376Y3591560D01*
X2685491Y3600399D01*
X2688031Y3609797D01*
X2688894Y3619500D01*
X2688031Y3629202D01*
X2685491Y3638600D01*
X2681376Y3647440D01*
X2675788Y3655415D01*
X2668930Y3662273D01*
X2660954Y3667861D01*
X2652115Y3671976D01*
X2642717Y3674516D01*
X2632557Y3675430D01*
X2463444Y3675430D01*
X2453284Y3674516D01*
X2443886Y3671976D01*
X2435047Y3667861D01*
X2427071Y3662273D01*
X2425852Y3661105D01*
X2422601Y3658870D01*
X2418689Y3658108D01*
X2284679Y3658108D01*
X2281072Y3658768D01*
X2277922Y3660698D01*
X2275636Y3663594D01*
X2274468Y3668471D01*
X2272538Y3673906D01*
X2269439Y3678834D01*
X2265375Y3682898D01*
X2260447Y3685997D01*
X2255012Y3687876D01*
X2248662Y3688587D01*
X2199081Y3688587D01*
X2195169Y3689400D01*
X2191867Y3691636D01*
X2155088Y3728669D01*
X2152904Y3731971D01*
X2152142Y3735832D01*
X2152904Y3739743D01*
X2155088Y3743045D01*
X2158390Y3745229D01*
X2162302Y3745992D01*
X3104591Y3745992D01*
X3108502Y3745229D01*
X3111804Y3742994D01*
X3113379Y3741420D01*
X3121406Y3735781D01*
X3130346Y3731666D01*
X3139795Y3729126D01*
X3149600Y3728262D01*
X3159404Y3729126D01*
X3168853Y3731666D01*
X3177794Y3735781D01*
X3185820Y3741420D01*
X3192780Y3748379D01*
X3198418Y3756406D01*
X3202533Y3765346D01*
X3205073Y3774795D01*
X3205937Y3784600D01*
X3205073Y3794404D01*
X3204464Y3796690D01*
X3204159Y3800398D01*
X3205226Y3803954D01*
X3207512Y3806901D01*
X3210661Y3808831D01*
X3214268Y3809492D01*
X3709568Y3809492D01*
X3713479Y3808729D01*
X3716782Y3806494D01*
X3718966Y3803243D01*
X3719728Y3799332D01*
X3719728Y3791153D01*
X3720439Y3784854D01*
X3722370Y3779367D01*
X3725468Y3774490D01*
X3729532Y3770376D01*
X3734460Y3767328D01*
X3739896Y3765397D01*
X3746195Y3764686D01*
X3840073Y3764686D01*
X3846423Y3765397D01*
X3851859Y3767328D01*
X3856786Y3770376D01*
X3860850Y3774490D01*
X3863949Y3779367D01*
X3865829Y3784854D01*
X3866540Y3791153D01*
X3866540Y3871264D01*
X3867353Y3875125D01*
X3869537Y3878427D01*
X3899204Y3908094D01*
X3902506Y3910329D01*
X3906418Y3911092D01*
X4048099Y3911092D01*
X4051960Y3910329D01*
X4055262Y3908094D01*
X4057446Y3904843D01*
X4058259Y3900932D01*
X4058259Y3791153D01*
X4058970Y3784854D01*
X4060850Y3779367D01*
X4063441Y3775252D01*
X4064914Y3771239D01*
X4064558Y3766921D01*
X4062476Y3763162D01*
X4059072Y3760622D01*
X4054856Y3759708D01*
X3975608Y3759708D01*
X3967581Y3758895D01*
X3960368Y3756710D01*
X3953662Y3753154D01*
X3947464Y3748024D01*
X3890975Y3691585D01*
X3887673Y3689400D01*
X3883812Y3688587D01*
X3847337Y3688587D01*
X3840987Y3687876D01*
X3835552Y3685997D01*
X3830624Y3682898D01*
X3826560Y3678834D01*
X3823462Y3673906D01*
X3821582Y3668471D01*
X3820363Y3663594D01*
X3818077Y3660698D01*
X3814927Y3658768D01*
X3811320Y3658108D01*
X3677310Y3658108D01*
X3673398Y3658870D01*
X3670147Y3661105D01*
X3668928Y3662273D01*
X3660952Y3667861D01*
X3652113Y3671976D01*
X3642715Y3674516D01*
X3632555Y3675430D01*
X3463442Y3675430D01*
X3453282Y3674516D01*
X3443884Y3671976D01*
X3435045Y3667861D01*
X3427069Y3662273D01*
X3420211Y3655415D01*
X3414623Y3647440D01*
X3410508Y3638600D01*
X3407968Y3629202D01*
X3407105Y3619500D01*
X3407968Y3609797D01*
X3410508Y3600399D01*
X3414623Y3591560D01*
X3420211Y3583584D01*
X3427069Y3576726D01*
X3435045Y3571138D01*
X3443884Y3567023D01*
X3448304Y3565804D01*
X3452215Y3563772D01*
X3454908Y3560318D01*
X3455873Y3556000D01*
X3454908Y3551682D01*
X3452215Y3548227D01*
X3448304Y3546195D01*
X3443884Y3544976D01*
X3435045Y3540861D01*
X3427069Y3535273D01*
X3420211Y3528415D01*
X3414623Y3520440D01*
X3410508Y3511600D01*
X3407968Y3502202D01*
X3407105Y3492500D01*
X3407968Y3482797D01*
X3410508Y3473399D01*
X3414623Y3464560D01*
X3420211Y3456584D01*
X3427069Y3449726D01*
X3435045Y3444138D01*
X3443884Y3440023D01*
X3448304Y3438804D01*
X3452215Y3436772D01*
X3454908Y3433318D01*
X3455873Y3429000D01*
X3454908Y3424682D01*
X3452215Y3421227D01*
X3448304Y3419195D01*
X3443884Y3417976D01*
X3435045Y3413861D01*
X3427069Y3408273D01*
X3425850Y3407105D01*
X3422599Y3404870D01*
X3418687Y3404108D01*
X3194608Y3404108D01*
X3190697Y3404870D01*
X3187395Y3407105D01*
X3185820Y3408679D01*
X3177794Y3414318D01*
X3168853Y3418433D01*
X3159404Y3420973D01*
X3149600Y3421837D01*
X3139795Y3420973D01*
X3130346Y3418433D01*
X3121406Y3414318D01*
X3113379Y3408679D01*
X3106420Y3401720D01*
X3100781Y3393694D01*
X3096666Y3384753D01*
X3094126Y3375304D01*
X3093262Y3365500D01*
X3094126Y3355695D01*
X3096666Y3346246D01*
X3100781Y3337306D01*
X3106420Y3329279D01*
X3113379Y3322320D01*
X3121406Y3316681D01*
X3130346Y3312566D01*
X3139795Y3310026D01*
X3149600Y3309162D01*
X3159404Y3310026D01*
X3168853Y3312566D01*
X3177794Y3316681D01*
X3185820Y3322320D01*
X3187395Y3323894D01*
X3190697Y3326129D01*
X3194608Y3326892D01*
X3418687Y3326892D01*
X3422599Y3326129D01*
X3425850Y3323894D01*
X3427069Y3322726D01*
X3435045Y3317138D01*
X3443884Y3313023D01*
X3448304Y3311804D01*
X3452215Y3309772D01*
X3454908Y3306318D01*
X3455873Y3302000D01*
X3454908Y3297682D01*
X3452215Y3294227D01*
X3448304Y3292195D01*
X3443884Y3290976D01*
X3435045Y3286861D01*
X3427069Y3281273D01*
X3425850Y3280105D01*
X3422599Y3277870D01*
X3418687Y3277108D01*
X3321608Y3277108D01*
X3317697Y3277870D01*
X3314395Y3280105D01*
X3312820Y3281679D01*
X3304794Y3287318D01*
X3295853Y3291433D01*
X3286404Y3293973D01*
X3276600Y3294837D01*
X3266795Y3293973D01*
X3257346Y3291433D01*
X3248406Y3287318D01*
X3240379Y3281679D01*
X3233420Y3274720D01*
X3227781Y3266694D01*
X3223666Y3257753D01*
X3221126Y3248304D01*
X3220262Y3238500D01*
X3221126Y3228695D01*
X3221736Y3226409D01*
X3222040Y3222701D01*
X3220974Y3219145D01*
X3218688Y3216198D01*
X3215538Y3214268D01*
X3211931Y3213608D01*
G37*

%LPD*%
G36*
X3251200Y5715000D02*
G01*
X3251200Y5680151D01*
X3267760Y5680151D01*
X3267760Y5715000D01*
G37*
G36*
X3286150Y5715000D02*
G01*
X3286150Y5696661D01*
X3302762Y5696661D01*
X3302762Y5680151D01*
X3339541Y5680151D01*
X3339541Y5663641D01*
X3321151Y5663641D01*
X3321151Y5680151D01*
X3286150Y5680151D01*
X3286150Y5645302D01*
X3302762Y5645302D01*
X3302762Y5663641D01*
X3321151Y5663641D01*
X3321151Y5645302D01*
X3339541Y5645302D01*
X3339541Y5610453D01*
X3356101Y5610453D01*
X3356101Y5575604D01*
X3339541Y5575604D01*
X3339541Y5610453D01*
X3321151Y5610453D01*
X3321151Y5575604D01*
X3339541Y5575604D01*
X3339541Y5557266D01*
X3286150Y5557266D01*
X3286150Y5592114D01*
X3302762Y5592114D01*
X3302762Y5626963D01*
X3267760Y5626963D01*
X3267760Y5610453D01*
X3286150Y5610453D01*
X3286150Y5592114D01*
X3267760Y5592114D01*
X3267760Y5610453D01*
X3251200Y5610453D01*
X3251200Y5645302D01*
X3267760Y5645302D01*
X3267760Y5663641D01*
X3216249Y5663641D01*
X3216249Y5645302D01*
X3234639Y5645302D01*
X3234639Y5626963D01*
X3216249Y5626963D01*
X3216249Y5610453D01*
X3251200Y5610453D01*
X3251200Y5592114D01*
X3234639Y5592114D01*
X3234639Y5610453D01*
X3216249Y5610453D01*
X3216249Y5592114D01*
X3234639Y5592114D01*
X3234639Y5575604D01*
X3181248Y5575604D01*
X3181248Y5557266D01*
X3197809Y5557266D01*
X3197809Y5540756D01*
X3181248Y5540756D01*
X3181248Y5522417D01*
X3144469Y5522417D01*
X3144469Y5540756D01*
X3127908Y5540756D01*
X3127908Y5557266D01*
X3162858Y5557266D01*
X3162858Y5575604D01*
X3076346Y5575604D01*
X3076346Y5557266D01*
X3109468Y5557266D01*
X3109468Y5540756D01*
X3092907Y5540756D01*
X3092907Y5522417D01*
X3144469Y5522417D01*
X3144469Y5505907D01*
X3181248Y5505907D01*
X3181248Y5522417D01*
X3197809Y5522417D01*
X3197809Y5540756D01*
X3234639Y5540756D01*
X3234639Y5557266D01*
X3251200Y5557266D01*
X3251200Y5575604D01*
X3267760Y5575604D01*
X3267760Y5557266D01*
X3286150Y5557266D01*
X3286150Y5540756D01*
X3302762Y5540756D01*
X3302762Y5522417D01*
X3286150Y5522417D01*
X3286150Y5487568D01*
X3302762Y5487568D01*
X3302762Y5505907D01*
X3321151Y5505907D01*
X3321151Y5522417D01*
X3339541Y5522417D01*
X3339541Y5540756D01*
X3374542Y5540756D01*
X3374542Y5575604D01*
X3391103Y5575604D01*
X3391103Y5557266D01*
X3409492Y5557266D01*
X3409492Y5575604D01*
X3426053Y5575604D01*
X3426053Y5557266D01*
X3409492Y5557266D01*
X3409492Y5522417D01*
X3391103Y5522417D01*
X3391103Y5540756D01*
X3374542Y5540756D01*
X3374542Y5522417D01*
X3356101Y5522417D01*
X3356101Y5505907D01*
X3321151Y5505907D01*
X3321151Y5487568D01*
X3339541Y5487568D01*
X3339541Y5452719D01*
X3356101Y5452719D01*
X3356101Y5469229D01*
X3374542Y5469229D01*
X3374542Y5487568D01*
X3409492Y5487568D01*
X3409492Y5505907D01*
X3426053Y5505907D01*
X3426053Y5469229D01*
X3461054Y5469229D01*
X3461054Y5487568D01*
X3514394Y5487568D01*
X3514394Y5452719D01*
X3461054Y5452719D01*
X3461054Y5434380D01*
X3479444Y5434380D01*
X3479444Y5399532D01*
X3514394Y5399532D01*
X3514394Y5383022D01*
X3549396Y5383022D01*
X3549396Y5364683D01*
X3514394Y5364683D01*
X3514394Y5383022D01*
X3426053Y5383022D01*
X3426053Y5399532D01*
X3444443Y5399532D01*
X3444443Y5452719D01*
X3426053Y5452719D01*
X3426053Y5469229D01*
X3374542Y5469229D01*
X3374542Y5452719D01*
X3356101Y5452719D01*
X3356101Y5434380D01*
X3374542Y5434380D01*
X3374542Y5416042D01*
X3391103Y5416042D01*
X3391103Y5434380D01*
X3426053Y5434380D01*
X3426053Y5416042D01*
X3409492Y5416042D01*
X3409492Y5364683D01*
X3426053Y5364683D01*
X3426053Y5346344D01*
X3549396Y5346344D01*
X3549396Y5329834D01*
X3514394Y5329834D01*
X3514394Y5346344D01*
X3497834Y5346344D01*
X3497834Y5293156D01*
X3444443Y5293156D01*
X3444443Y5346344D01*
X3409492Y5346344D01*
X3409492Y5364683D01*
X3391103Y5364683D01*
X3391103Y5329834D01*
X3409492Y5329834D01*
X3409492Y5311495D01*
X3426053Y5311495D01*
X3426053Y5276646D01*
X3479444Y5276646D01*
X3479444Y5260187D01*
X3461054Y5260187D01*
X3461054Y5276646D01*
X3426053Y5276646D01*
X3426053Y5260187D01*
X3444443Y5260187D01*
X3444443Y5241848D01*
X3426053Y5241848D01*
X3426053Y5225338D01*
X3409492Y5225338D01*
X3409492Y5241848D01*
X3391103Y5241848D01*
X3391103Y5260187D01*
X3374542Y5260187D01*
X3374542Y5276646D01*
X3356101Y5276646D01*
X3356101Y5293156D01*
X3374542Y5293156D01*
X3374542Y5311495D01*
X3391103Y5311495D01*
X3391103Y5329834D01*
X3374542Y5329834D01*
X3374542Y5383022D01*
X3356101Y5383022D01*
X3356101Y5364683D01*
X3321151Y5364683D01*
X3321151Y5383022D01*
X3339541Y5383022D01*
X3339541Y5416042D01*
X3286150Y5416042D01*
X3286150Y5452719D01*
X3302762Y5452719D01*
X3302762Y5469229D01*
X3251200Y5469229D01*
X3251200Y5487568D01*
X3267760Y5487568D01*
X3267760Y5505907D01*
X3234639Y5505907D01*
X3234639Y5522417D01*
X3216249Y5522417D01*
X3216249Y5487568D01*
X3197809Y5487568D01*
X3197809Y5505907D01*
X3162858Y5505907D01*
X3162858Y5487568D01*
X3144469Y5487568D01*
X3144469Y5505907D01*
X3127908Y5505907D01*
X3127908Y5522417D01*
X3092907Y5522417D01*
X3092907Y5487568D01*
X3076346Y5487568D01*
X3076346Y5452719D01*
X3109468Y5452719D01*
X3109468Y5469229D01*
X3092907Y5469229D01*
X3092907Y5487568D01*
X3109468Y5487568D01*
X3109468Y5505907D01*
X3127908Y5505907D01*
X3127908Y5469229D01*
X3162858Y5469229D01*
X3162858Y5487568D01*
X3197809Y5487568D01*
X3197809Y5469229D01*
X3181248Y5469229D01*
X3181248Y5452719D01*
X3197809Y5452719D01*
X3197809Y5469229D01*
X3216249Y5469229D01*
X3216249Y5452719D01*
X3267760Y5452719D01*
X3267760Y5434380D01*
X3251200Y5434380D01*
X3251200Y5452719D01*
X3234639Y5452719D01*
X3234639Y5434380D01*
X3181248Y5434380D01*
X3181248Y5416042D01*
X3197809Y5416042D01*
X3197809Y5399532D01*
X3181248Y5399532D01*
X3181248Y5416042D01*
X3162858Y5416042D01*
X3162858Y5399532D01*
X3181248Y5399532D01*
X3181248Y5383022D01*
X3162858Y5383022D01*
X3162858Y5364683D01*
X3181248Y5364683D01*
X3181248Y5383022D01*
X3234639Y5383022D01*
X3234639Y5416042D01*
X3251200Y5416042D01*
X3251200Y5383022D01*
X3234639Y5383022D01*
X3234639Y5364683D01*
X3181248Y5364683D01*
X3181248Y5346344D01*
X3216249Y5346344D01*
X3216249Y5311495D01*
X3234639Y5311495D01*
X3234639Y5364683D01*
X3267760Y5364683D01*
X3267760Y5416042D01*
X3286150Y5416042D01*
X3286150Y5399532D01*
X3302762Y5399532D01*
X3302762Y5383022D01*
X3286150Y5383022D01*
X3286150Y5346344D01*
X3302762Y5346344D01*
X3302762Y5364683D01*
X3321151Y5364683D01*
X3321151Y5346344D01*
X3356101Y5346344D01*
X3356101Y5329834D01*
X3374542Y5329834D01*
X3374542Y5311495D01*
X3356101Y5311495D01*
X3356101Y5293156D01*
X3339541Y5293156D01*
X3339541Y5311495D01*
X3321151Y5311495D01*
X3321151Y5293156D01*
X3339541Y5293156D01*
X3339541Y5276646D01*
X3286150Y5276646D01*
X3286150Y5311495D01*
X3302762Y5311495D01*
X3302762Y5329834D01*
X3267760Y5329834D01*
X3267760Y5346344D01*
X3251200Y5346344D01*
X3251200Y5329834D01*
X3267760Y5329834D01*
X3267760Y5311495D01*
X3251403Y5311495D01*
X3250285Y5294122D01*
X3216249Y5293055D01*
X3216249Y5276646D01*
X3251200Y5276646D01*
X3251200Y5260187D01*
X3234639Y5260187D01*
X3234639Y5276646D01*
X3216249Y5276646D01*
X3216249Y5207000D01*
X3234639Y5207000D01*
X3234639Y5241848D01*
X3267760Y5241848D01*
X3267760Y5276646D01*
X3286150Y5276646D01*
X3286150Y5260187D01*
X3302762Y5260187D01*
X3302762Y5241848D01*
X3286150Y5241848D01*
X3286150Y5207000D01*
X3302558Y5207000D01*
X3303676Y5224424D01*
X3321151Y5225542D01*
X3321151Y5241848D01*
X3356101Y5241848D01*
X3356101Y5225338D01*
X3321151Y5225338D01*
X3321151Y5207000D01*
X3391103Y5207000D01*
X3391103Y5225338D01*
X3409492Y5225338D01*
X3409492Y5207000D01*
X3479444Y5207000D01*
X3479444Y5225338D01*
X3461054Y5225338D01*
X3461054Y5241848D01*
X3497834Y5241848D01*
X3497834Y5276646D01*
X3514394Y5276646D01*
X3514394Y5311495D01*
X3530955Y5311495D01*
X3530955Y5276646D01*
X3584346Y5276646D01*
X3584346Y5311495D01*
X3549396Y5311495D01*
X3549396Y5329834D01*
X3567785Y5329834D01*
X3567785Y5364683D01*
X3584346Y5364683D01*
X3584346Y5383022D01*
X3567785Y5383022D01*
X3567785Y5399532D01*
X3584346Y5399532D01*
X3584346Y5416042D01*
X3549396Y5416042D01*
X3549396Y5399532D01*
X3530955Y5399532D01*
X3530955Y5416042D01*
X3497834Y5416042D01*
X3497834Y5434380D01*
X3514394Y5434380D01*
X3514394Y5452719D01*
X3549396Y5452719D01*
X3549396Y5434380D01*
X3584346Y5434380D01*
X3584346Y5469229D01*
X3567785Y5469229D01*
X3567785Y5487568D01*
X3549396Y5487568D01*
X3549396Y5469229D01*
X3530955Y5469229D01*
X3530955Y5487568D01*
X3514394Y5487568D01*
X3514394Y5505907D01*
X3530955Y5505907D01*
X3530955Y5522417D01*
X3549396Y5522417D01*
X3549396Y5540756D01*
X3567785Y5540756D01*
X3567785Y5575604D01*
X3549396Y5575604D01*
X3549396Y5540756D01*
X3530955Y5540756D01*
X3530955Y5575604D01*
X3514394Y5575604D01*
X3514394Y5557266D01*
X3497834Y5557266D01*
X3497834Y5575604D01*
X3479444Y5575604D01*
X3479444Y5540756D01*
X3514394Y5540756D01*
X3514394Y5522417D01*
X3497834Y5522417D01*
X3497834Y5540756D01*
X3479444Y5540756D01*
X3479444Y5522417D01*
X3444443Y5522417D01*
X3444443Y5505907D01*
X3426053Y5505907D01*
X3426053Y5540756D01*
X3461054Y5540756D01*
X3461054Y5575604D01*
X3444443Y5575604D01*
X3444443Y5610453D01*
X3426053Y5610453D01*
X3426053Y5592114D01*
X3409492Y5592114D01*
X3409492Y5610453D01*
X3391103Y5610453D01*
X3391103Y5626963D01*
X3409492Y5626963D01*
X3409492Y5645302D01*
X3391103Y5645302D01*
X3391103Y5626963D01*
X3374542Y5626963D01*
X3374542Y5610453D01*
X3391103Y5610453D01*
X3391103Y5592114D01*
X3374542Y5592114D01*
X3374542Y5610453D01*
X3356101Y5610453D01*
X3356101Y5645302D01*
X3374542Y5645302D01*
X3374542Y5663641D01*
X3444443Y5663641D01*
X3444443Y5696661D01*
X3426053Y5696661D01*
X3426053Y5715000D01*
X3409492Y5715000D01*
X3409492Y5696661D01*
X3426053Y5696661D01*
X3426053Y5680151D01*
X3391103Y5680151D01*
X3391103Y5696661D01*
X3374542Y5696661D01*
X3374542Y5663641D01*
X3356101Y5663641D01*
X3356101Y5715000D01*
X3339541Y5715000D01*
X3339541Y5696661D01*
X3321151Y5696661D01*
X3321151Y5715000D01*
G37*
G36*
X3076346Y5713171D02*
G01*
X3076346Y5698490D01*
X3181248Y5698490D01*
X3181248Y5608624D01*
X3092907Y5608624D01*
X3092907Y5698490D01*
X3076346Y5698490D01*
X3076346Y5593943D01*
X3197809Y5593943D01*
X3197809Y5713171D01*
G37*
G36*
X3462883Y5713171D02*
G01*
X3462883Y5698490D01*
X3567785Y5698490D01*
X3567785Y5608624D01*
X3477564Y5608624D01*
X3477564Y5698490D01*
X3462883Y5698490D01*
X3462883Y5593943D01*
X3584346Y5593943D01*
X3584346Y5713171D01*
G37*
G36*
X3216249Y5696661D02*
G01*
X3216249Y5680151D01*
X3234639Y5680151D01*
X3234639Y5696661D01*
G37*
G36*
X3111296Y5680151D02*
G01*
X3111296Y5628792D01*
X3161030Y5628792D01*
X3161030Y5680151D01*
G37*
G36*
X3497834Y5680151D02*
G01*
X3497834Y5628792D01*
X3547516Y5628792D01*
X3547516Y5680151D01*
G37*
G36*
X3426053Y5645302D02*
G01*
X3426053Y5626963D01*
X3444443Y5626963D01*
X3444443Y5645302D01*
G37*
G36*
X3251200Y5557266D02*
G01*
X3251200Y5522417D01*
X3267760Y5522417D01*
X3267760Y5557266D01*
G37*
G36*
X3567785Y5522417D02*
G01*
X3567785Y5505907D01*
X3584346Y5505907D01*
X3584346Y5522417D01*
G37*
G36*
X3144469Y5452719D02*
G01*
X3144469Y5434380D01*
X3162858Y5434380D01*
X3162858Y5452719D01*
G37*
G36*
X3321151Y5452719D02*
G01*
X3321151Y5434380D01*
X3339541Y5434380D01*
X3339541Y5416042D01*
X3356101Y5416042D01*
X3356101Y5399532D01*
X3374542Y5399532D01*
X3374542Y5383022D01*
X3391103Y5383022D01*
X3391103Y5399532D01*
X3374542Y5399532D01*
X3374542Y5416042D01*
X3356101Y5416042D01*
X3356101Y5434380D01*
X3339541Y5434380D01*
X3339541Y5452719D01*
G37*
G36*
X3076346Y5434380D02*
G01*
X3076346Y5346344D01*
X3092907Y5346344D01*
X3092907Y5399532D01*
X3109468Y5399532D01*
X3109468Y5383022D01*
X3127908Y5383022D01*
X3127908Y5364683D01*
X3109468Y5364683D01*
X3109468Y5346344D01*
X3127908Y5346344D01*
X3127908Y5364683D01*
X3144469Y5364683D01*
X3144469Y5416042D01*
X3092907Y5416042D01*
X3092907Y5434380D01*
G37*
G36*
X3461054Y5329834D02*
G01*
X3461054Y5311495D01*
X3479444Y5311495D01*
X3479444Y5329834D01*
G37*
G36*
X3076346Y5328005D02*
G01*
X3076346Y5313375D01*
X3181248Y5313375D01*
X3181248Y5223510D01*
X3092907Y5223510D01*
X3092907Y5313375D01*
X3076346Y5313375D01*
X3076346Y5208828D01*
X3197809Y5208828D01*
X3197809Y5328005D01*
G37*
G36*
X3111296Y5293156D02*
G01*
X3111296Y5243677D01*
X3161030Y5243677D01*
X3161030Y5293156D01*
G37*
G36*
X3374542Y5293156D02*
G01*
X3374542Y5276646D01*
X3391103Y5276646D01*
X3391103Y5260187D01*
X3409492Y5260187D01*
X3409492Y5241848D01*
X3426053Y5241848D01*
X3426053Y5260187D01*
X3409492Y5260187D01*
X3409492Y5293156D01*
G37*
G36*
X3530955Y5260187D02*
G01*
X3530955Y5241848D01*
X3514394Y5241848D01*
X3514394Y5225338D01*
X3497834Y5225338D01*
X3497834Y5207000D01*
X3549396Y5207000D01*
X3549396Y5241848D01*
X3567785Y5241848D01*
X3567785Y5225338D01*
X3584346Y5225338D01*
X3584346Y5241848D01*
X3567785Y5241848D01*
X3567785Y5260187D01*
G37*
D10*
X2603500Y5671312D02*
G01*
X2609850Y5674613D01*
X2619502Y5684012D01*
X2619502Y5617210D01*
D11*
X3708400Y3492500D02*
G01*
X3548001Y3492502D01*
X2159000Y1143005D02*
G01*
X2336800Y1143005D01*
X2336800Y2857500D02*
G01*
X2298700Y2895600D01*
X2203602Y2895600D01*
X2548003Y2857502D02*
G01*
X2336802Y2857502D01*
X2203704Y3454400D02*
G01*
X2197100Y3454400D01*
X2082800Y3340100D01*
X1968500Y3340100D01*
X2548003Y3492502D02*
G01*
X2374902Y3492502D01*
X2336800Y3454400D01*
X2203602Y3454400D01*
X3548001Y2857502D02*
G01*
X3848100Y2857502D01*
X3886197Y2895600D01*
X3892397Y2895600D01*
X3708400Y3492500D02*
G01*
X3854300Y3492500D01*
X3892400Y3454400D01*
X4471161Y4025900D02*
G01*
X4318000Y4025900D01*
X4241800Y3949700D01*
X3886200Y3949700D01*
X3793236Y3856736D01*
X3793236Y3848100D01*
X4635500Y4025038D02*
G01*
X5076068Y4025038D01*
X5080000Y4021099D01*
D12*
X3276600Y4406900D02*
G01*
X4699000Y4406900D01*
D11*
X1676400Y5080000D02*
G01*
X4695708Y5080000D01*
X2553563Y4025900D02*
G01*
X2370988Y4025900D01*
X3569563Y4025900D02*
G01*
X3386988Y4025900D01*
X2819400Y4025900D02*
G01*
X2704236Y4025900D01*
X2409700Y4343400D02*
G01*
X2819400Y4343400D01*
X3429000Y4203700D02*
G01*
X1778000Y4203700D01*
X2058161Y2730500D02*
G01*
X1669795Y2730500D01*
X833000Y3365505D02*
G01*
X833000Y3492505D01*
X1453014Y3365505D02*
G01*
X1453014Y3238505D01*
X2663697Y4406900D02*
G01*
X1270000Y4406900D01*
X1270000Y3492500D02*
G01*
X833000Y3492505D01*
X2663697Y4784293D02*
G01*
X2917697Y4784293D01*
X2409697Y4784293D02*
G01*
X2155697Y4784293D01*
X2409697Y4343400D02*
G01*
X1193800Y4343400D01*
X1193800Y3238500D02*
G01*
X833000Y3238505D01*
X3679697Y4279900D02*
G01*
X1854200Y4279900D01*
X1854200Y3365500D02*
G01*
X1453014Y3365505D01*
X3933697Y4784293D02*
G01*
X3679697Y4784293D01*
X3835400Y4203700D02*
G01*
X3429000Y4203700D01*
X3416300Y4775200D02*
G01*
X3180791Y4775200D01*
X3171697Y4784293D01*
X3720236Y4025900D02*
G01*
X3835400Y4025900D01*
X1778000Y3111500D02*
G01*
X1453014Y3111505D01*
X4037741Y3619505D02*
G01*
X4699000Y3619505D01*
X4037741Y2730505D02*
G01*
X4699000Y2730500D01*
X2058263Y3619500D02*
G01*
X1993900Y3619500D01*
X1866900Y3492500D01*
X1669897Y3492500D01*
X1669897Y3619500D02*
G01*
X1669897Y3492500D01*
X1453014Y3619505D02*
G01*
X1669897Y3619500D01*
X3149600Y3784600D02*
G01*
X1587500Y3784600D01*
X1587500Y3492500D02*
G01*
X1453134Y3492500D01*
X2209038Y3619500D02*
G01*
X2108200Y3721100D01*
X1117600Y3721100D01*
X1016000Y3619500D01*
X833120Y3619500D01*
X3149600Y3365500D02*
G01*
X3548001Y3365502D01*
X3548001Y2730502D02*
G01*
X3149600Y2730502D01*
X2548003Y2730502D02*
G01*
X2679702Y2730502D01*
X2933700Y2984500D01*
X3548001Y2984502D01*
X1396994Y1143005D02*
G01*
X1968500Y1143005D01*
X5075427Y1855139D02*
G01*
X4699000Y1855139D01*
X4241800Y2159000D02*
G01*
X5071567Y2159000D01*
X5075427Y2155139D01*
X4131640Y3848100D02*
G01*
X4241800Y3848100D01*
X3276600Y3238500D02*
G01*
X3548001Y3238500D01*
X2547998Y3111500D02*
G01*
X3276600Y3111500D01*
X2768600Y2984500D02*
G01*
X2547998Y2984500D01*
X3887068Y3619505D02*
G01*
X3887068Y3633068D01*
X3975100Y3721100D01*
X5080000Y3721100D01*
X2768600Y3848100D02*
G01*
X3793157Y3848100D01*
X2768600Y3365500D02*
G01*
X2547998Y3365500D01*
X4445000Y3175000D02*
G01*
X2844800Y3175000D01*
X2781300Y3238500D01*
X2547998Y3238500D01*
X2921000Y2857500D02*
G01*
X3548001Y2857500D01*
X3548001Y2730500D02*
G01*
X3887068Y2730505D01*
X3548001Y3619500D02*
G01*
X3887068Y3619505D01*
X2547998Y3619500D02*
G01*
X2208931Y3619500D01*
X2547998Y2730500D02*
G01*
X2208931Y2730500D01*
D12*
X4695708Y5080000D02*
G01*
X5080000Y5080000D01*
D11*
X1651000Y1016000D02*
G01*
X2413000Y1016000D01*
X2413000Y1016000D02*
G01*
X3175000Y1016000D01*
X3175000Y1016000D02*
G01*
X3937000Y1016000D01*
X3937000Y1016000D02*
G01*
X4699000Y1016000D01*
X4149092Y5651500D02*
G01*
X3958493Y5651500D01*
D12*
X4826000Y5727700D02*
G01*
X4385282Y5727700D01*
X4309082Y5651500D01*
X4826000Y5588000D02*
G01*
X5080000Y5588000D01*
D13*
G01*
X1453006Y2857500D03*
G01*
X1453006Y2984500D03*
G01*
X1453006Y3111500D03*
G01*
X1453006Y3238500D03*
G01*
X1453006Y3365500D03*
G01*
X1453006Y3492500D03*
G01*
X1453006Y3619500D03*
G01*
X832993Y2857500D03*
G01*
X832993Y2984500D03*
G01*
X832993Y3111500D03*
G01*
X832993Y3238500D03*
G01*
X832993Y3365500D03*
G01*
X832993Y3492500D03*
G01*
X832993Y3619500D03*
D14*
G01*
X2200986Y4025900D03*
G01*
X2370988Y4025900D03*
G01*
X3216986Y4025900D03*
G01*
X3386988Y4025900D03*
D15*
G01*
X4149090Y5651500D03*
G01*
X4309084Y5651500D03*
D14*
G01*
X3788486Y5651500D03*
G01*
X3958488Y5651500D03*
D16*
G01*
X3547999Y2730500D03*
G01*
X3547999Y2857500D03*
G01*
X3547999Y2984500D03*
G01*
X3547999Y3111500D03*
G01*
X3547999Y3238500D03*
G01*
X3547999Y3365500D03*
G01*
X3547999Y3492500D03*
G01*
X3547999Y3619500D03*
G01*
X2548000Y2730500D03*
G01*
X2548000Y2857500D03*
G01*
X2548000Y2984500D03*
G01*
X2548000Y3111500D03*
G01*
X2548000Y3238500D03*
G01*
X2548000Y3365500D03*
G01*
X2548000Y3492500D03*
G01*
X2548000Y3619500D03*
D17*
G01*
X3892397Y3454400D03*
G01*
X4032402Y3454400D03*
D18*
G01*
X3793159Y3848100D03*
G01*
X4131640Y3848100D03*
D17*
G01*
X4032402Y2895600D03*
G01*
X3892397Y2895600D03*
G01*
X2063597Y3454400D03*
G01*
X2203602Y3454400D03*
G01*
X2203602Y2895600D03*
G01*
X2063597Y2895600D03*
D19*
G01*
X4621924Y4025900D03*
G01*
X4471275Y4025900D03*
D17*
G01*
X1669897Y3619500D03*
G01*
X1809902Y3619500D03*
D20*
G01*
X2553575Y4025900D03*
G01*
X2704224Y4025900D03*
G01*
X3569575Y4025900D03*
G01*
X3720224Y4025900D03*
G01*
X2058275Y3619500D03*
G01*
X2208924Y3619500D03*
G01*
X2058275Y2730500D03*
G01*
X2208924Y2730500D03*
D19*
G01*
X4037730Y3619505D03*
G01*
X3887080Y3619505D03*
G01*
X4037730Y2730505D03*
G01*
X3887080Y2730505D03*
D21*
G01*
X1651000Y889000D03*
G01*
X1397000Y1143000D03*
G01*
X1143000Y889000D03*
G01*
X2413000Y889000D03*
G01*
X2159000Y1143000D03*
G01*
X1905000Y889000D03*
G01*
X3175000Y889000D03*
G01*
X2921000Y1143000D03*
G01*
X2667000Y889000D03*
G01*
X3937000Y889000D03*
G01*
X3683000Y1143000D03*
G01*
X3429000Y889000D03*
G01*
X4699000Y889000D03*
G01*
X4445000Y1143000D03*
G01*
X4191000Y889000D03*
D22*
G01*
X5461000Y381000D03*
G01*
X381000Y381000D03*
G01*
X381000Y5461000D03*
G01*
X5461000Y5461000D03*
D23*
G01*
X4826000Y5588000D03*
G01*
X4826000Y5334000D03*
G01*
X4572000Y5334000D03*
G01*
X4572000Y5588000D03*
D24*
G01*
X5080000Y3421100D03*
G01*
X5080000Y4021099D03*
G01*
X5080000Y3721100D03*
D25*
G01*
X3933697Y4784293D03*
G01*
X3679697Y4784293D03*
G01*
X3171697Y4784293D03*
G01*
X2917697Y4784293D03*
G01*
X2663697Y4784293D03*
G01*
X2409697Y4784293D03*
G01*
X2155697Y4784293D03*
D24*
G01*
X5075427Y2155139D03*
G01*
X5075427Y2455138D03*
G01*
X5075427Y1855139D03*
D25*
G01*
X3425697Y4784293D03*
D26*
G01*
X5080000Y5588000D03*
G01*
X4826000Y5727700D03*
G01*
X1968500Y3340100D03*
G01*
X2336800Y2857500D03*
G01*
X2921000Y2857500D03*
G01*
X3708400Y3492500D03*
G01*
X4699000Y1016000D03*
G01*
X3937000Y1016000D03*
G01*
X3175000Y1016000D03*
G01*
X2413000Y1016000D03*
G01*
X1651000Y1016000D03*
G01*
X4445000Y3175000D03*
G01*
X2768600Y3848100D03*
G01*
X2768600Y3365500D03*
G01*
X2768600Y2984500D03*
G01*
X3276600Y3111500D03*
G01*
X3276600Y3238500D03*
G01*
X4695697Y5080000D03*
G01*
X5080000Y5080000D03*
G01*
X4241800Y3848100D03*
G01*
X4241800Y2159000D03*
G01*
X4699000Y1855139D03*
G01*
X1968500Y1143000D03*
G01*
X3149600Y2730500D03*
G01*
X3149600Y3365500D03*
G01*
X1587500Y3784600D03*
G01*
X1587500Y3492500D03*
G01*
X3149600Y3784600D03*
G01*
X1669897Y3492500D03*
G01*
X1676400Y5080000D03*
G01*
X4699000Y2730500D03*
G01*
X4699000Y3619500D03*
G01*
X1778000Y4203700D03*
G01*
X1778000Y3111500D03*
G01*
X3835400Y4025900D03*
G01*
X3835400Y4203700D03*
G01*
X3429000Y4203700D03*
G01*
X1854200Y4279900D03*
G01*
X1854200Y3365500D03*
G01*
X3679697Y4279900D03*
G01*
X1193800Y4343400D03*
G01*
X1193800Y3238500D03*
G01*
X2409697Y4343400D03*
G01*
X1270000Y4406900D03*
G01*
X1270000Y3492500D03*
G01*
X2663697Y4406900D03*
G01*
X3771900Y3708400D03*
G01*
X2946400Y3365500D03*
G01*
X2324100Y3708400D03*
G01*
X1669897Y2730500D03*
G01*
X2819400Y4343400D03*
G01*
X2819400Y4025900D03*
G01*
X1917700Y3644900D03*
G01*
X4699000Y4406900D03*
G01*
X3276600Y4406900D03*
G01*
X2336800Y1143000D03*
G01*
X1930400Y3454400D03*
G01*
X1866900Y3251200D03*
M02*
