M48
METRIC,LZ,000.000
;FILE_FORMAT=3:3
;TYPE=PLATED
;Layer: PTH_Through
;EasyEDA v6.5.34, 2023-09-05 23:31:59
;3ff1d21ffa584fb08a1032706516b83c,5a6b42c53f6a479593ecc07194224c93,10
;Gerber Generator version 0.2
;Holesize 1 = 0.305 mm
T01C0.305
;Holesize 2 = 0.800 mm
T02C0.800
;Holesize 3 = 0.901 mm
T03C0.901
;Holesize 4 = 0.915 mm
T04C0.915
;Holesize 5 = 1.000 mm
T05C1.000
;Holesize 6 = 1.101 mm
T06C1.101
;Holesize 7 = 1.301 mm
T07C1.301
;Holesize 8 = 3.000 mm
T08C3.000
%
G05
G90
T01
X055880Y007620
X051054Y007620
X051054Y027940
X051054Y016929
X014986Y027940
X014986Y013429
X014351Y026670
X014351Y010922
X013716Y022860
X013716Y008382
X013081Y021590
X013081Y005842
X014986Y031750
X014986Y034925
X014351Y033020
X014351Y037465
X013716Y036830
X013716Y040005
X013081Y038100
X013081Y042512
X026162Y040640
X026162Y043180
X050800Y034290
X050800Y045720
X051435Y029210
X051435Y040640
X052070Y024130
X052070Y035560
X052705Y019050
X052705Y030480
X029845Y030480
X029845Y009652
X030480Y033020
X030480Y009017
X031115Y035560
X031750Y038100
X031750Y009017
X032385Y040640
X032385Y009652
X035814Y009652
X033274Y009017
X028194Y009017
X025654Y009652
X037719Y020320
X037719Y044450
X037084Y022860
X037084Y046990
X036449Y025400
X036449Y049530
X035814Y027940
X035814Y052070
X038354Y030480
X038354Y016002
X038989Y027940
X038989Y018415
X039624Y025400
X039624Y017780
X040259Y022860
X040259Y017145
X012446Y017780
X012446Y021082
X011811Y017145
X011811Y023622
X040259Y039370
X040259Y035560
X055880Y051181
X042070Y051181
X030480Y051181
X043434Y033020
X030480Y043180
X026162Y050800
X040894Y007620
X024130Y048260
X024130Y007620
X030480Y055880
X022225Y050800
X022225Y055880
X038354Y009652
X049784Y009652
X049784Y052705
X013081Y043815
X013081Y050927
X042070Y053660
X042070Y056515
T02
X034130Y048260
X042070Y048260
X034130Y045720
X042070Y045720
X034130Y043180
X042070Y043180
X034130Y040640
X042070Y040640
X034130Y038100
X042070Y038100
X034130Y035560
X042070Y035560
X034130Y033020
X042070Y033020
X034130Y030480
X042070Y030480
X034130Y027940
X042070Y027940
X034130Y025400
X042070Y025400
X034130Y022860
X042070Y022860
X034130Y020320
X042070Y020320
X020160Y043180
X028100Y043180
X020160Y040640
X028100Y040640
X020160Y038100
X028100Y038100
X020160Y035560
X028100Y035560
X020160Y033020
X028100Y033020
X020160Y030480
X028100Y030480
X020160Y027940
X028100Y027940
X020160Y025400
X028100Y025400
X020160Y022860
X028100Y022860
X020160Y020320
X028100Y020320
T03
X045593Y048260
X045593Y045720
X045593Y043180
X045593Y040640
X045593Y038100
X045593Y035560
X045593Y033020
X045593Y030480
T04
X045593Y027940
X045593Y025400
T05
X020320Y055880
X020320Y053340
X020320Y050800
X020320Y048260
X027940Y048260
X027940Y050800
X027940Y053340
X027940Y055880
T06
X048260Y027940
X048260Y030480
X048260Y033020
X048260Y035560
X048260Y038100
X048260Y040640
X048260Y043180
X048260Y045720
X055880Y027940
X055880Y030480
X055880Y033020
X055880Y035560
X055880Y038100
X055880Y040640
X055880Y043180
X055880Y045720
X055880Y010160
X053340Y010160
X053340Y012700
X055880Y012700
T07
X009561Y034892
X009561Y037432
X009561Y039972
X009561Y042512
X009561Y045052
X009561Y047592
X009561Y050132
X009561Y052672
X009561Y023589
X009561Y021049
X009561Y018509
X009561Y015969
X009561Y013429
X009561Y010889
X009561Y008349
X009561Y005809
X043434Y004445
X040894Y004445
X038354Y004445
X035814Y004445
X033274Y004445
X030734Y004445
X028194Y004445
X025654Y004445
T08
X054610Y003810
X003810Y003810
X003810Y054610
X054610Y054610
M30
