M48
METRIC,LZ,000.000
;FILE_FORMAT=3:3
;TYPE=PLATED
;Layer: PTH_Through_Via
;EasyEDA v6.5.34, 2023-09-05 23:31:59
;3ff1d21ffa584fb08a1032706516b83c,5a6b42c53f6a479593ecc07194224c93,10
;Gerber Generator version 0.2
;Holesize 1 = 0.305 mm
T01C0.305
%
G05
G90
T01
X055880Y007620
X051054Y007620
X051054Y027940
X051054Y016929
X014986Y027940
X014986Y013429
X014351Y026670
X014351Y010922
X013716Y022860
X013716Y008382
X013081Y021590
X013081Y005842
X014986Y031750
X014986Y034925
X014351Y033020
X014351Y037465
X013716Y036830
X013716Y040005
X013081Y038100
X013081Y042512
X026162Y040640
X026162Y043180
X050800Y034290
X050800Y045720
X051435Y029210
X051435Y040640
X052070Y024130
X052070Y035560
X052705Y019050
X052705Y030480
X029845Y030480
X029845Y009652
X030480Y033020
X030480Y009017
X031115Y035560
X031750Y038100
X031750Y009017
X032385Y040640
X032385Y009652
X035814Y009652
X033274Y009017
X028194Y009017
X025654Y009652
X037719Y020320
X037719Y044450
X037084Y022860
X037084Y046990
X036449Y025400
X036449Y049530
X035814Y027940
X035814Y052070
X038354Y030480
X038354Y016002
X038989Y027940
X038989Y018415
X039624Y025400
X039624Y017780
X040259Y022860
X040259Y017145
X012446Y017780
X012446Y021082
X011811Y017145
X011811Y023622
X040259Y039370
X040259Y035560
X055880Y051181
X042070Y051181
X030480Y051181
X043434Y033020
X030480Y043180
X026162Y050800
X040894Y007620
X024130Y048260
X024130Y007620
X030480Y055880
X022225Y050800
X022225Y055880
X038354Y009652
X049784Y009652
X049784Y052705
X013081Y043815
X013081Y050927
X042070Y053660
X042070Y056515
M30
