G04 Layer: BottomLayer*
G04 Panelize: , Column: 2, Row: 2, Board Size: 58.42mm x 58.42mm, Panelized Board Size: 118.84mm x 118.84mm*
G04 EasyEDA v6.5.34, 2023-09-05 23:31:59*
G04 3ff1d21ffa584fb08a1032706516b83c,5a6b42c53f6a479593ecc07194224c93,10*
G04 Gerber Generator version 0.2*
G04 Scale: 100 percent, Rotated: No, Reflected: No *
G04 Dimensions in millimeters *
G04 leading zeros omitted , absolute positions ,4 integer and 5 decimal *
%FSLAX45Y45*%
%MOMM*%

%AMMACRO1*21,1,$1,$2,0,0,$3*%
%ADD10C,0.2540*%
%ADD11C,0.5000*%
%ADD12MACRO1,0.8X0.9X0.0000*%
%ADD13MACRO1,0.8X0.9X90.0000*%
%ADD14R,1.6002X1.6002*%
%ADD15C,1.6002*%
%ADD16O,1.8275046X1.4619985999999998*%
%ADD17C,1.8000*%
%ADD18R,1.5240X1.5240*%
%ADD19C,1.5240*%
%ADD20C,5.0000*%
%ADD21C,2.0000*%
%ADD22C,0.6096*%
%ADD23C,0.0117*%

%LPD*%
G36*
X36068Y25908D02*
G01*
X32156Y26670D01*
X28905Y28905D01*
X26670Y32156D01*
X25908Y36068D01*
X25908Y5805932D01*
X26670Y5809792D01*
X28905Y5813094D01*
X32156Y5815330D01*
X36068Y5816092D01*
X5805932Y5815584D01*
X5809843Y5814822D01*
X5813094Y5812637D01*
X5815330Y5809335D01*
X5816092Y5805424D01*
X5816092Y36068D01*
X5815330Y32156D01*
X5813094Y28905D01*
X5809843Y26670D01*
X5805932Y25908D01*
G37*

%LPC*%
G36*
X2378710Y5600700D02*
G01*
X2431897Y5600700D01*
X2431897Y5658916D01*
X2405176Y5658916D01*
X2398877Y5658205D01*
X2393391Y5656275D01*
X2388514Y5653227D01*
X2384399Y5649112D01*
X2381300Y5644235D01*
X2379421Y5638749D01*
X2378710Y5632450D01*
G37*
G36*
X368300Y105562D02*
G01*
X368300Y368300D01*
X105664Y368300D01*
X106070Y357936D01*
X108966Y334975D01*
X113792Y312369D01*
X120446Y290271D01*
X128981Y268782D01*
X139242Y248107D01*
X151180Y228295D01*
X164795Y209600D01*
X179882Y192125D01*
X196392Y175971D01*
X214172Y161239D01*
X233171Y148031D01*
X253187Y136499D01*
X274066Y126644D01*
X295757Y118618D01*
X318008Y112369D01*
X340715Y108051D01*
X363677Y105664D01*
G37*
G36*
X5473700Y105613D02*
G01*
X5489854Y106629D01*
X5512714Y109982D01*
X5535218Y115265D01*
X5557164Y122428D01*
X5578500Y131368D01*
X5598972Y142087D01*
X5618480Y154432D01*
X5636869Y168402D01*
X5654040Y183896D01*
X5669838Y200710D01*
X5684215Y218846D01*
X5697016Y238099D01*
X5708142Y258317D01*
X5717540Y279450D01*
X5725109Y301244D01*
X5730849Y323646D01*
X5734710Y346405D01*
X5736590Y368300D01*
X5473700Y368300D01*
G37*
G36*
X393700Y105613D02*
G01*
X409854Y106629D01*
X432714Y109982D01*
X455218Y115265D01*
X477164Y122428D01*
X498500Y131368D01*
X518972Y142087D01*
X538480Y154432D01*
X556869Y168402D01*
X574040Y183896D01*
X589838Y200710D01*
X604215Y218846D01*
X617016Y238099D01*
X628142Y258317D01*
X637540Y279450D01*
X645109Y301244D01*
X650849Y323646D01*
X654710Y346405D01*
X656590Y368300D01*
X393700Y368300D01*
G37*
G36*
X2565400Y318617D02*
G01*
X2580589Y319532D01*
X2595524Y322275D01*
X2610053Y326796D01*
X2623921Y333044D01*
X2636926Y340918D01*
X2648864Y350266D01*
X2659634Y361035D01*
X2668981Y372973D01*
X2676855Y385978D01*
X2683154Y399897D01*
X2685338Y403098D01*
X2688590Y405180D01*
X2692400Y405892D01*
X2696210Y405180D01*
X2699461Y403098D01*
X2701645Y399897D01*
X2707944Y385978D01*
X2715818Y372973D01*
X2725166Y361035D01*
X2735935Y350266D01*
X2747873Y340918D01*
X2760878Y333044D01*
X2774746Y326796D01*
X2789275Y322275D01*
X2804210Y319532D01*
X2819400Y318617D01*
X2834589Y319532D01*
X2849524Y322275D01*
X2864053Y326796D01*
X2877921Y333044D01*
X2890926Y340918D01*
X2902864Y350266D01*
X2913634Y361035D01*
X2922981Y372973D01*
X2930855Y385978D01*
X2937154Y399897D01*
X2939338Y403098D01*
X2942590Y405180D01*
X2946400Y405892D01*
X2950210Y405180D01*
X2953461Y403098D01*
X2955645Y399897D01*
X2961944Y385978D01*
X2969818Y372973D01*
X2979166Y361035D01*
X2989935Y350266D01*
X3001873Y340918D01*
X3014878Y333044D01*
X3028746Y326796D01*
X3043275Y322275D01*
X3058210Y319532D01*
X3073400Y318617D01*
X3088589Y319532D01*
X3103524Y322275D01*
X3118053Y326796D01*
X3131921Y333044D01*
X3144926Y340918D01*
X3156864Y350266D01*
X3167634Y361035D01*
X3176981Y372973D01*
X3184855Y385978D01*
X3191154Y399897D01*
X3193338Y403098D01*
X3196590Y405180D01*
X3200400Y405892D01*
X3204210Y405180D01*
X3207461Y403098D01*
X3209645Y399897D01*
X3215944Y385978D01*
X3223818Y372973D01*
X3233166Y361035D01*
X3243935Y350266D01*
X3255873Y340918D01*
X3268878Y333044D01*
X3282746Y326796D01*
X3297275Y322275D01*
X3312210Y319532D01*
X3327400Y318617D01*
X3342589Y319532D01*
X3357524Y322275D01*
X3372053Y326796D01*
X3385921Y333044D01*
X3398926Y340918D01*
X3410864Y350266D01*
X3421634Y361035D01*
X3430981Y372973D01*
X3438855Y385978D01*
X3445154Y399897D01*
X3447338Y403098D01*
X3450590Y405180D01*
X3454400Y405892D01*
X3458210Y405180D01*
X3461461Y403098D01*
X3463645Y399897D01*
X3469944Y385978D01*
X3477818Y372973D01*
X3487165Y361035D01*
X3497935Y350266D01*
X3509873Y340918D01*
X3522878Y333044D01*
X3536746Y326796D01*
X3551275Y322275D01*
X3566210Y319532D01*
X3581400Y318617D01*
X3596589Y319532D01*
X3611524Y322275D01*
X3626053Y326796D01*
X3639921Y333044D01*
X3652926Y340918D01*
X3664864Y350266D01*
X3675634Y361035D01*
X3684981Y372973D01*
X3692855Y385978D01*
X3699154Y399897D01*
X3701338Y403098D01*
X3704590Y405180D01*
X3708400Y405892D01*
X3712210Y405180D01*
X3715461Y403098D01*
X3717645Y399897D01*
X3723944Y385978D01*
X3731818Y372973D01*
X3741165Y361035D01*
X3751935Y350266D01*
X3763873Y340918D01*
X3776878Y333044D01*
X3790746Y326796D01*
X3805275Y322275D01*
X3820210Y319532D01*
X3835400Y318617D01*
X3850589Y319532D01*
X3865524Y322275D01*
X3880053Y326796D01*
X3893921Y333044D01*
X3906926Y340918D01*
X3918864Y350266D01*
X3929634Y361035D01*
X3938981Y372973D01*
X3946855Y385978D01*
X3953154Y399897D01*
X3955338Y403098D01*
X3958590Y405180D01*
X3962400Y405892D01*
X3966210Y405180D01*
X3969461Y403098D01*
X3971645Y399897D01*
X3977944Y385978D01*
X3985818Y372973D01*
X3995165Y361035D01*
X4005935Y350266D01*
X4017873Y340918D01*
X4030878Y333044D01*
X4044746Y326796D01*
X4059275Y322275D01*
X4074210Y319532D01*
X4089400Y318617D01*
X4104589Y319532D01*
X4119524Y322275D01*
X4134053Y326796D01*
X4147921Y333044D01*
X4160926Y340918D01*
X4172864Y350266D01*
X4183634Y361035D01*
X4192981Y372973D01*
X4200855Y385978D01*
X4207154Y399897D01*
X4209338Y403098D01*
X4212590Y405180D01*
X4216400Y405892D01*
X4220210Y405180D01*
X4223461Y403098D01*
X4225645Y399897D01*
X4231944Y385978D01*
X4239818Y372973D01*
X4249166Y361035D01*
X4259935Y350266D01*
X4271873Y340918D01*
X4284878Y333044D01*
X4298746Y326796D01*
X4313275Y322275D01*
X4328210Y319532D01*
X4343400Y318617D01*
X4358589Y319532D01*
X4373524Y322275D01*
X4388053Y326796D01*
X4401921Y333044D01*
X4414926Y340918D01*
X4426864Y350266D01*
X4437634Y361035D01*
X4446981Y372973D01*
X4454855Y385978D01*
X4461103Y399846D01*
X4465624Y414375D01*
X4468368Y429310D01*
X4469282Y444500D01*
X4468368Y459689D01*
X4465624Y474624D01*
X4461103Y489153D01*
X4454855Y503021D01*
X4446981Y516026D01*
X4437634Y527964D01*
X4426864Y538734D01*
X4414926Y548081D01*
X4401921Y555955D01*
X4388002Y562203D01*
X4384852Y564438D01*
X4382719Y567690D01*
X4382008Y571500D01*
X4382008Y3256991D01*
X4382770Y3260902D01*
X4385005Y3264204D01*
X4386580Y3265779D01*
X4392218Y3273806D01*
X4396333Y3282746D01*
X4398873Y3292195D01*
X4399737Y3302000D01*
X4398873Y3311804D01*
X4396333Y3321253D01*
X4392218Y3330194D01*
X4386580Y3338220D01*
X4379620Y3345179D01*
X4371594Y3350818D01*
X4362653Y3354933D01*
X4353204Y3357473D01*
X4343400Y3358337D01*
X4333595Y3357473D01*
X4324146Y3354933D01*
X4320235Y3353155D01*
X4316780Y3352241D01*
X4313224Y3352546D01*
X4310024Y3354120D01*
X4307535Y3356711D01*
X4303826Y3362248D01*
X4295292Y3372002D01*
X4285538Y3380536D01*
X4274769Y3387699D01*
X4263136Y3393440D01*
X4250893Y3397605D01*
X4238193Y3400145D01*
X4224934Y3401009D01*
X4189069Y3401009D01*
X4175810Y3400145D01*
X4163110Y3397605D01*
X4150868Y3393440D01*
X4139234Y3387699D01*
X4128465Y3380536D01*
X4118711Y3372002D01*
X4110177Y3362248D01*
X4103014Y3351479D01*
X4097274Y3339896D01*
X4093108Y3327603D01*
X4090568Y3314903D01*
X4089755Y3302000D01*
X4090568Y3289096D01*
X4093108Y3276396D01*
X4097274Y3264103D01*
X4103014Y3252520D01*
X4110177Y3241751D01*
X4118711Y3231997D01*
X4128465Y3223463D01*
X4139234Y3216300D01*
X4150868Y3210560D01*
X4163110Y3206394D01*
X4175810Y3203854D01*
X4189069Y3202990D01*
X4224934Y3202990D01*
X4238193Y3203854D01*
X4250893Y3206394D01*
X4263136Y3210560D01*
X4274769Y3216300D01*
X4285538Y3223463D01*
X4287926Y3225596D01*
X4291279Y3227527D01*
X4295089Y3228086D01*
X4298848Y3227171D01*
X4301947Y3224936D01*
X4304080Y3221736D01*
X4304792Y3217926D01*
X4304792Y3132074D01*
X4304080Y3128264D01*
X4301947Y3125063D01*
X4298848Y3122828D01*
X4295089Y3121914D01*
X4291279Y3122472D01*
X4287926Y3124403D01*
X4285538Y3126536D01*
X4274769Y3133699D01*
X4263136Y3139440D01*
X4250893Y3143605D01*
X4238193Y3146145D01*
X4224934Y3147009D01*
X4189069Y3147009D01*
X4175810Y3146145D01*
X4163110Y3143605D01*
X4150868Y3139440D01*
X4139234Y3133699D01*
X4128465Y3126536D01*
X4118711Y3118002D01*
X4110177Y3108248D01*
X4103014Y3097479D01*
X4097274Y3085896D01*
X4093108Y3073603D01*
X4090568Y3060903D01*
X4089755Y3048000D01*
X4090568Y3035096D01*
X4093108Y3022396D01*
X4097274Y3010103D01*
X4103014Y2998520D01*
X4110177Y2987751D01*
X4118711Y2977997D01*
X4128465Y2969463D01*
X4139234Y2962300D01*
X4150868Y2956560D01*
X4163110Y2952394D01*
X4175810Y2949854D01*
X4189069Y2948990D01*
X4224934Y2948990D01*
X4238193Y2949854D01*
X4250893Y2952394D01*
X4263136Y2956560D01*
X4274769Y2962300D01*
X4285538Y2969463D01*
X4287926Y2971596D01*
X4291279Y2973527D01*
X4295089Y2974086D01*
X4298848Y2973171D01*
X4301947Y2970936D01*
X4304080Y2967736D01*
X4304792Y2963926D01*
X4304792Y2878074D01*
X4304080Y2874264D01*
X4301947Y2871063D01*
X4298848Y2868828D01*
X4295089Y2867914D01*
X4291279Y2868472D01*
X4287926Y2870403D01*
X4285538Y2872536D01*
X4274769Y2879699D01*
X4263136Y2885440D01*
X4250893Y2889605D01*
X4238193Y2892145D01*
X4224934Y2893009D01*
X4189069Y2893009D01*
X4175810Y2892145D01*
X4163110Y2889605D01*
X4150868Y2885440D01*
X4139234Y2879699D01*
X4128465Y2872536D01*
X4118711Y2864002D01*
X4110177Y2854248D01*
X4103014Y2843479D01*
X4097274Y2831896D01*
X4093108Y2819603D01*
X4090568Y2806903D01*
X4089755Y2794000D01*
X4090568Y2781096D01*
X4093108Y2768396D01*
X4097274Y2756103D01*
X4103014Y2744520D01*
X4110177Y2733751D01*
X4118711Y2723997D01*
X4128465Y2715463D01*
X4139234Y2708300D01*
X4150868Y2702560D01*
X4163110Y2698394D01*
X4175810Y2695854D01*
X4189069Y2694990D01*
X4224934Y2694990D01*
X4238193Y2695854D01*
X4250893Y2698394D01*
X4263136Y2702560D01*
X4274769Y2708300D01*
X4285538Y2715463D01*
X4287926Y2717596D01*
X4291279Y2719527D01*
X4295089Y2720086D01*
X4298848Y2719171D01*
X4301947Y2716936D01*
X4304080Y2713736D01*
X4304792Y2709926D01*
X4304792Y2624074D01*
X4304080Y2620264D01*
X4301947Y2617063D01*
X4298848Y2614828D01*
X4295089Y2613914D01*
X4291279Y2614472D01*
X4287926Y2616454D01*
X4285538Y2618536D01*
X4274769Y2625750D01*
X4263136Y2631440D01*
X4250893Y2635605D01*
X4238193Y2638145D01*
X4224934Y2639009D01*
X4189069Y2639009D01*
X4175810Y2638145D01*
X4163110Y2635605D01*
X4150868Y2631440D01*
X4139234Y2625750D01*
X4128465Y2618536D01*
X4118711Y2610002D01*
X4110177Y2600248D01*
X4103014Y2589479D01*
X4097274Y2577896D01*
X4093108Y2565603D01*
X4090568Y2552903D01*
X4089755Y2540000D01*
X4090568Y2527096D01*
X4093108Y2514396D01*
X4097274Y2502103D01*
X4103014Y2490520D01*
X4110177Y2479751D01*
X4118711Y2469997D01*
X4128465Y2461463D01*
X4139234Y2454300D01*
X4150868Y2448560D01*
X4163110Y2444394D01*
X4175810Y2441854D01*
X4189069Y2440990D01*
X4224934Y2440990D01*
X4238193Y2441854D01*
X4250893Y2444394D01*
X4263136Y2448560D01*
X4274769Y2454300D01*
X4285538Y2461463D01*
X4287926Y2463596D01*
X4291279Y2465527D01*
X4295089Y2466086D01*
X4298848Y2465171D01*
X4301947Y2462987D01*
X4304080Y2459736D01*
X4304792Y2455926D01*
X4304792Y2370074D01*
X4304080Y2366264D01*
X4301947Y2363063D01*
X4298848Y2360828D01*
X4295089Y2359914D01*
X4291279Y2360472D01*
X4287926Y2362454D01*
X4285538Y2364536D01*
X4274769Y2371750D01*
X4263136Y2377440D01*
X4250893Y2381605D01*
X4238193Y2384145D01*
X4224934Y2385009D01*
X4189069Y2385009D01*
X4175810Y2384145D01*
X4163110Y2381605D01*
X4150868Y2377440D01*
X4139234Y2371750D01*
X4128465Y2364536D01*
X4118711Y2356002D01*
X4110177Y2346248D01*
X4103014Y2335479D01*
X4097274Y2323896D01*
X4093972Y2314194D01*
X4091990Y2310739D01*
X4088790Y2308352D01*
X4084929Y2307336D01*
X4080967Y2307894D01*
X4077512Y2309977D01*
X4069079Y2322220D01*
X4062120Y2329180D01*
X4054094Y2334818D01*
X4045153Y2338933D01*
X4035704Y2341473D01*
X4025900Y2342337D01*
X4016095Y2341473D01*
X4013809Y2340864D01*
X4010101Y2340559D01*
X4006545Y2341626D01*
X4003598Y2343912D01*
X4001668Y2347061D01*
X4001008Y2350668D01*
X4001008Y2494991D01*
X4001770Y2498902D01*
X4004005Y2502204D01*
X4005579Y2503779D01*
X4011218Y2511806D01*
X4015333Y2520746D01*
X4017873Y2530195D01*
X4018737Y2540000D01*
X4017873Y2549804D01*
X4015333Y2559253D01*
X4011218Y2568194D01*
X4005579Y2576220D01*
X3998620Y2583180D01*
X3990594Y2588818D01*
X3981653Y2592933D01*
X3972204Y2595473D01*
X3962400Y2596337D01*
X3952595Y2595473D01*
X3950309Y2594864D01*
X3946601Y2594559D01*
X3943045Y2595626D01*
X3940098Y2597912D01*
X3938168Y2601061D01*
X3937508Y2604668D01*
X3937508Y2748991D01*
X3938270Y2752902D01*
X3940505Y2756204D01*
X3942079Y2757779D01*
X3947718Y2765806D01*
X3951833Y2774746D01*
X3954373Y2784195D01*
X3955237Y2794000D01*
X3954373Y2803804D01*
X3951833Y2813253D01*
X3947718Y2822194D01*
X3942079Y2830220D01*
X3935120Y2837180D01*
X3927094Y2842818D01*
X3918153Y2846933D01*
X3908704Y2849473D01*
X3898900Y2850337D01*
X3889095Y2849473D01*
X3886809Y2848864D01*
X3883101Y2848559D01*
X3879545Y2849626D01*
X3876598Y2851912D01*
X3874668Y2855061D01*
X3874008Y2858668D01*
X3874008Y3002991D01*
X3874770Y3006902D01*
X3877005Y3010204D01*
X3878579Y3011779D01*
X3884218Y3019806D01*
X3888333Y3028746D01*
X3890873Y3038195D01*
X3891737Y3048000D01*
X3890873Y3057804D01*
X3888333Y3067253D01*
X3884218Y3076194D01*
X3878579Y3084220D01*
X3871620Y3091180D01*
X3863594Y3096818D01*
X3854653Y3100933D01*
X3845204Y3103473D01*
X3835400Y3104337D01*
X3825595Y3103473D01*
X3823309Y3102864D01*
X3819601Y3102559D01*
X3816045Y3103626D01*
X3813098Y3105912D01*
X3811168Y3109061D01*
X3810508Y3112668D01*
X3810508Y4399991D01*
X3811270Y4403902D01*
X3813505Y4407204D01*
X3815079Y4408779D01*
X3820718Y4416806D01*
X3824833Y4425746D01*
X3827373Y4435195D01*
X3828237Y4445000D01*
X3827373Y4454804D01*
X3824833Y4464253D01*
X3820718Y4473194D01*
X3815079Y4481220D01*
X3808120Y4488180D01*
X3800094Y4493818D01*
X3791153Y4497933D01*
X3781704Y4500473D01*
X3771900Y4501337D01*
X3762095Y4500473D01*
X3759809Y4499864D01*
X3756101Y4499559D01*
X3752545Y4500626D01*
X3749598Y4502912D01*
X3747668Y4506061D01*
X3747008Y4509668D01*
X3747008Y4653991D01*
X3747770Y4657902D01*
X3750005Y4661204D01*
X3751579Y4662779D01*
X3757218Y4670806D01*
X3761333Y4679746D01*
X3763873Y4689195D01*
X3764737Y4699000D01*
X3763873Y4708804D01*
X3761333Y4718253D01*
X3757218Y4727194D01*
X3751579Y4735220D01*
X3744620Y4742180D01*
X3736594Y4747818D01*
X3727653Y4751933D01*
X3718204Y4754473D01*
X3708400Y4755337D01*
X3698595Y4754473D01*
X3696309Y4753864D01*
X3692601Y4753559D01*
X3689045Y4754626D01*
X3686098Y4756912D01*
X3684168Y4760061D01*
X3683508Y4763668D01*
X3683508Y4907991D01*
X3684270Y4911902D01*
X3686505Y4915204D01*
X3688079Y4916779D01*
X3693718Y4924806D01*
X3697833Y4933746D01*
X3700373Y4943195D01*
X3701237Y4953000D01*
X3700373Y4962804D01*
X3697833Y4972253D01*
X3693718Y4981194D01*
X3688079Y4989220D01*
X3681120Y4996180D01*
X3673094Y5001818D01*
X3664153Y5005933D01*
X3654704Y5008473D01*
X3644900Y5009337D01*
X3635095Y5008473D01*
X3632809Y5007864D01*
X3629101Y5007559D01*
X3625545Y5008626D01*
X3622598Y5010912D01*
X3620668Y5014061D01*
X3620008Y5017668D01*
X3620008Y5161991D01*
X3620770Y5165902D01*
X3623005Y5169204D01*
X3624579Y5170779D01*
X3630218Y5178806D01*
X3634333Y5187746D01*
X3636873Y5197195D01*
X3637737Y5207000D01*
X3636873Y5216804D01*
X3634333Y5226253D01*
X3630218Y5235194D01*
X3624579Y5243220D01*
X3617620Y5250180D01*
X3609594Y5255818D01*
X3600653Y5259933D01*
X3591204Y5262473D01*
X3581400Y5263337D01*
X3571595Y5262473D01*
X3562146Y5259933D01*
X3553206Y5255818D01*
X3545179Y5250180D01*
X3538220Y5243220D01*
X3532581Y5235194D01*
X3528466Y5226253D01*
X3525926Y5216804D01*
X3525062Y5207000D01*
X3525926Y5197195D01*
X3528466Y5187746D01*
X3532581Y5178806D01*
X3538220Y5170779D01*
X3539794Y5169204D01*
X3542029Y5165902D01*
X3542792Y5161991D01*
X3542792Y4866284D01*
X3541979Y4862322D01*
X3539693Y4858969D01*
X3536238Y4856835D01*
X3532276Y4856175D01*
X3528314Y4857089D01*
X3525062Y4859528D01*
X3516985Y4875479D01*
X3509822Y4886248D01*
X3501288Y4896002D01*
X3491534Y4904536D01*
X3480765Y4911699D01*
X3469132Y4917440D01*
X3456889Y4921605D01*
X3444189Y4924145D01*
X3430930Y4925009D01*
X3425698Y4925009D01*
X3425698Y4838700D01*
X3532632Y4838700D01*
X3536543Y4837938D01*
X3539794Y4835702D01*
X3542029Y4832400D01*
X3542792Y4828540D01*
X3542792Y4823460D01*
X3542029Y4819548D01*
X3539794Y4816297D01*
X3536543Y4814062D01*
X3532632Y4813300D01*
X3425698Y4813300D01*
X3425698Y4726990D01*
X3430930Y4726990D01*
X3444189Y4727854D01*
X3456889Y4730394D01*
X3469132Y4734560D01*
X3480765Y4740249D01*
X3491534Y4747463D01*
X3501288Y4755997D01*
X3509822Y4765751D01*
X3516985Y4776520D01*
X3525062Y4792472D01*
X3528314Y4794859D01*
X3532276Y4795824D01*
X3536238Y4795164D01*
X3539693Y4792980D01*
X3541979Y4789678D01*
X3542792Y4785664D01*
X3542792Y4612284D01*
X3541979Y4608322D01*
X3539693Y4604969D01*
X3536238Y4602835D01*
X3532276Y4602175D01*
X3528314Y4603089D01*
X3525062Y4605528D01*
X3516985Y4621479D01*
X3509822Y4632248D01*
X3501288Y4642002D01*
X3491534Y4650536D01*
X3480765Y4657699D01*
X3469132Y4663440D01*
X3456889Y4667605D01*
X3444189Y4670145D01*
X3430930Y4671009D01*
X3425698Y4671009D01*
X3425698Y4584700D01*
X3532632Y4584700D01*
X3536543Y4583938D01*
X3539794Y4581702D01*
X3542029Y4578400D01*
X3542792Y4574540D01*
X3542792Y4569460D01*
X3542029Y4565548D01*
X3539794Y4562297D01*
X3536543Y4560062D01*
X3532632Y4559300D01*
X3425698Y4559300D01*
X3425698Y4472990D01*
X3430930Y4472990D01*
X3444189Y4473854D01*
X3456889Y4476394D01*
X3469132Y4480560D01*
X3480765Y4486249D01*
X3491534Y4493463D01*
X3501288Y4501997D01*
X3509822Y4511751D01*
X3516985Y4522520D01*
X3525062Y4538472D01*
X3528314Y4540859D01*
X3532276Y4541824D01*
X3536238Y4541164D01*
X3539693Y4538980D01*
X3541979Y4535678D01*
X3542792Y4531664D01*
X3542792Y4358284D01*
X3541979Y4354322D01*
X3539693Y4350969D01*
X3536238Y4348835D01*
X3532276Y4348175D01*
X3528314Y4349089D01*
X3525062Y4351528D01*
X3516985Y4367479D01*
X3509822Y4378248D01*
X3501288Y4388002D01*
X3491534Y4396536D01*
X3480765Y4403699D01*
X3469132Y4409440D01*
X3456889Y4413605D01*
X3444189Y4416145D01*
X3430930Y4417009D01*
X3425698Y4417009D01*
X3425698Y4330700D01*
X3532632Y4330700D01*
X3536543Y4329938D01*
X3539794Y4327702D01*
X3542029Y4324400D01*
X3542792Y4320540D01*
X3542792Y4315460D01*
X3542029Y4311548D01*
X3539794Y4308297D01*
X3536543Y4306062D01*
X3532632Y4305300D01*
X3425698Y4305300D01*
X3425698Y4218990D01*
X3430930Y4218990D01*
X3444189Y4219854D01*
X3456889Y4222394D01*
X3469132Y4226560D01*
X3480765Y4232249D01*
X3491534Y4239463D01*
X3501288Y4247997D01*
X3509822Y4257751D01*
X3516985Y4268520D01*
X3525062Y4284472D01*
X3528314Y4286859D01*
X3532276Y4287824D01*
X3536238Y4287164D01*
X3539693Y4284980D01*
X3541979Y4281678D01*
X3542792Y4277664D01*
X3542792Y4104284D01*
X3541979Y4100322D01*
X3539693Y4096969D01*
X3536238Y4094835D01*
X3532276Y4094175D01*
X3528314Y4095089D01*
X3525062Y4097528D01*
X3516985Y4113479D01*
X3509822Y4124248D01*
X3501288Y4134002D01*
X3491534Y4142536D01*
X3480765Y4149699D01*
X3469132Y4155440D01*
X3456889Y4159605D01*
X3444189Y4162145D01*
X3430930Y4163009D01*
X3395065Y4163009D01*
X3381806Y4162145D01*
X3369106Y4159605D01*
X3356864Y4155440D01*
X3345230Y4149699D01*
X3334461Y4142536D01*
X3324707Y4134002D01*
X3316173Y4124248D01*
X3309010Y4113479D01*
X3303270Y4101896D01*
X3302304Y4098950D01*
X3299968Y4095191D01*
X3296259Y4092701D01*
X3291890Y4092092D01*
X3287623Y4093413D01*
X3284321Y4096410D01*
X3281679Y4100220D01*
X3274720Y4107179D01*
X3266694Y4112818D01*
X3257753Y4116933D01*
X3248304Y4119473D01*
X3238500Y4120337D01*
X3228695Y4119473D01*
X3219246Y4116933D01*
X3210306Y4112818D01*
X3202279Y4107179D01*
X3195320Y4100220D01*
X3189681Y4092194D01*
X3185566Y4083253D01*
X3183026Y4073804D01*
X3182162Y4064000D01*
X3183026Y4054195D01*
X3185566Y4044746D01*
X3189681Y4035806D01*
X3195320Y4027779D01*
X3196894Y4026204D01*
X3199130Y4022902D01*
X3199892Y4018991D01*
X3199892Y3874668D01*
X3199231Y3871061D01*
X3197301Y3867912D01*
X3194354Y3865626D01*
X3190798Y3864559D01*
X3187090Y3864864D01*
X3184804Y3865473D01*
X3175000Y3866337D01*
X3165195Y3865473D01*
X3155746Y3862933D01*
X3146806Y3858818D01*
X3138779Y3853179D01*
X3131820Y3846220D01*
X3126181Y3838194D01*
X3122066Y3829253D01*
X3119526Y3819804D01*
X3118662Y3810000D01*
X3119526Y3800195D01*
X3122066Y3790746D01*
X3126181Y3781806D01*
X3131820Y3773779D01*
X3133394Y3772204D01*
X3135630Y3768902D01*
X3136392Y3764991D01*
X3136392Y3620668D01*
X3135731Y3617061D01*
X3133801Y3613912D01*
X3130854Y3611626D01*
X3127298Y3610559D01*
X3123590Y3610864D01*
X3121304Y3611473D01*
X3111500Y3612337D01*
X3101695Y3611473D01*
X3092246Y3608933D01*
X3083306Y3604818D01*
X3075279Y3599179D01*
X3068320Y3592220D01*
X3062681Y3584194D01*
X3058566Y3575253D01*
X3056026Y3565804D01*
X3055162Y3556000D01*
X3056026Y3546195D01*
X3058566Y3536746D01*
X3062681Y3527806D01*
X3068320Y3519779D01*
X3069894Y3518204D01*
X3072130Y3514902D01*
X3072892Y3510991D01*
X3072892Y3366668D01*
X3072231Y3363061D01*
X3070301Y3359912D01*
X3067354Y3357626D01*
X3063798Y3356559D01*
X3060090Y3356864D01*
X3057804Y3357473D01*
X3048000Y3358337D01*
X3038195Y3357473D01*
X3028746Y3354933D01*
X3019806Y3350818D01*
X3011779Y3345179D01*
X3004820Y3338220D01*
X2999181Y3330194D01*
X2995066Y3321253D01*
X2992526Y3311804D01*
X2991662Y3302000D01*
X2992526Y3292195D01*
X2995066Y3282746D01*
X2999181Y3273806D01*
X3004820Y3265779D01*
X3006394Y3264204D01*
X3008630Y3260902D01*
X3009392Y3256991D01*
X3009392Y3112668D01*
X3008731Y3109061D01*
X3006801Y3105912D01*
X3003854Y3103626D01*
X3000298Y3102559D01*
X2996590Y3102864D01*
X2994304Y3103473D01*
X2984500Y3104337D01*
X2974695Y3103473D01*
X2965246Y3100933D01*
X2956306Y3096818D01*
X2948279Y3091180D01*
X2941320Y3084220D01*
X2938678Y3080410D01*
X2935376Y3077413D01*
X2931109Y3076092D01*
X2926740Y3076752D01*
X2923032Y3079191D01*
X2920695Y3082950D01*
X2919730Y3085896D01*
X2913989Y3097479D01*
X2906826Y3108248D01*
X2898292Y3118002D01*
X2888538Y3126536D01*
X2877769Y3133699D01*
X2866136Y3139440D01*
X2853893Y3143605D01*
X2841193Y3146145D01*
X2827934Y3147009D01*
X2792069Y3147009D01*
X2778810Y3146145D01*
X2766110Y3143605D01*
X2753868Y3139440D01*
X2742234Y3133699D01*
X2731465Y3126536D01*
X2721711Y3118002D01*
X2713177Y3108248D01*
X2706014Y3097479D01*
X2700274Y3085896D01*
X2696108Y3073603D01*
X2693568Y3060903D01*
X2692755Y3048000D01*
X2693568Y3035096D01*
X2696108Y3022396D01*
X2700274Y3010103D01*
X2706014Y2998520D01*
X2713177Y2987751D01*
X2721711Y2977997D01*
X2731465Y2969463D01*
X2742234Y2962300D01*
X2753868Y2956560D01*
X2766110Y2952394D01*
X2778810Y2949854D01*
X2792069Y2948990D01*
X2827934Y2948990D01*
X2841193Y2949854D01*
X2853893Y2952394D01*
X2866136Y2956560D01*
X2877769Y2962300D01*
X2888538Y2969463D01*
X2898292Y2977997D01*
X2906826Y2987751D01*
X2913989Y2998520D01*
X2919730Y3010103D01*
X2920695Y3013049D01*
X2923032Y3016808D01*
X2926740Y3019247D01*
X2931109Y3019907D01*
X2935376Y3018586D01*
X2938678Y3015589D01*
X2941320Y3011779D01*
X2942894Y3010204D01*
X2945130Y3006902D01*
X2945892Y3002991D01*
X2945892Y2812135D01*
X2945028Y2808020D01*
X2942488Y2804566D01*
X2938830Y2802483D01*
X2934614Y2802077D01*
X2930550Y2803398D01*
X2927451Y2806293D01*
X2925775Y2810154D01*
X2923895Y2819603D01*
X2919730Y2831896D01*
X2913989Y2843479D01*
X2906826Y2854248D01*
X2898292Y2864002D01*
X2888538Y2872536D01*
X2877769Y2879699D01*
X2866136Y2885440D01*
X2853893Y2889605D01*
X2841193Y2892145D01*
X2827934Y2893009D01*
X2792069Y2893009D01*
X2778810Y2892145D01*
X2766110Y2889605D01*
X2753868Y2885440D01*
X2742234Y2879699D01*
X2731465Y2872536D01*
X2721711Y2864002D01*
X2713177Y2854248D01*
X2706014Y2843479D01*
X2700274Y2831896D01*
X2696108Y2819603D01*
X2693568Y2806903D01*
X2692755Y2794000D01*
X2693568Y2781096D01*
X2696108Y2768396D01*
X2700274Y2756103D01*
X2706014Y2744520D01*
X2713177Y2733751D01*
X2721711Y2723997D01*
X2731465Y2715463D01*
X2742234Y2708300D01*
X2753868Y2702560D01*
X2766110Y2698394D01*
X2778810Y2695854D01*
X2792069Y2694990D01*
X2827934Y2694990D01*
X2841193Y2695854D01*
X2853893Y2698394D01*
X2866136Y2702560D01*
X2877769Y2708300D01*
X2888538Y2715463D01*
X2898292Y2723997D01*
X2906826Y2733751D01*
X2913989Y2744520D01*
X2919730Y2756103D01*
X2923895Y2768396D01*
X2925775Y2777845D01*
X2927451Y2781706D01*
X2930550Y2784602D01*
X2934614Y2785922D01*
X2938830Y2785516D01*
X2942488Y2783433D01*
X2945028Y2779979D01*
X2945892Y2775864D01*
X2945892Y2558135D01*
X2945028Y2554020D01*
X2942488Y2550566D01*
X2938830Y2548483D01*
X2934614Y2548077D01*
X2930550Y2549398D01*
X2927451Y2552293D01*
X2925775Y2556154D01*
X2923895Y2565603D01*
X2919730Y2577896D01*
X2913989Y2589479D01*
X2906826Y2600248D01*
X2898292Y2610002D01*
X2888538Y2618536D01*
X2877769Y2625699D01*
X2866136Y2631440D01*
X2853893Y2635605D01*
X2841193Y2638145D01*
X2827934Y2639009D01*
X2792069Y2639009D01*
X2778810Y2638145D01*
X2766110Y2635605D01*
X2753868Y2631440D01*
X2742234Y2625699D01*
X2731465Y2618536D01*
X2721711Y2610002D01*
X2713177Y2600248D01*
X2706014Y2589479D01*
X2700274Y2577896D01*
X2696108Y2565603D01*
X2693568Y2552903D01*
X2692755Y2540000D01*
X2693568Y2527096D01*
X2696108Y2514396D01*
X2700274Y2502103D01*
X2706014Y2490520D01*
X2713177Y2479751D01*
X2721711Y2469997D01*
X2731465Y2461463D01*
X2742234Y2454300D01*
X2753868Y2448560D01*
X2766110Y2444394D01*
X2778810Y2441854D01*
X2792069Y2440990D01*
X2827934Y2440990D01*
X2841193Y2441854D01*
X2853893Y2444394D01*
X2866136Y2448560D01*
X2877769Y2454300D01*
X2888538Y2461463D01*
X2898292Y2469997D01*
X2906826Y2479751D01*
X2913989Y2490520D01*
X2919730Y2502103D01*
X2923895Y2514396D01*
X2925775Y2523845D01*
X2927451Y2527706D01*
X2930550Y2530602D01*
X2934614Y2531922D01*
X2938830Y2531516D01*
X2942488Y2529433D01*
X2945028Y2525979D01*
X2945892Y2521864D01*
X2945892Y2304135D01*
X2945028Y2300020D01*
X2942488Y2296566D01*
X2938830Y2294483D01*
X2934614Y2294077D01*
X2930550Y2295398D01*
X2927451Y2298293D01*
X2925775Y2302154D01*
X2923895Y2311603D01*
X2919730Y2323896D01*
X2913989Y2335479D01*
X2906826Y2346248D01*
X2898292Y2356002D01*
X2888538Y2364536D01*
X2877769Y2371750D01*
X2866136Y2377440D01*
X2853893Y2381605D01*
X2841193Y2384145D01*
X2827934Y2385009D01*
X2792069Y2385009D01*
X2778810Y2384145D01*
X2766110Y2381605D01*
X2753868Y2377440D01*
X2742234Y2371750D01*
X2731465Y2364536D01*
X2721711Y2356002D01*
X2713177Y2346248D01*
X2706014Y2335479D01*
X2700274Y2323896D01*
X2696108Y2311603D01*
X2693568Y2298903D01*
X2692755Y2286000D01*
X2693568Y2273096D01*
X2696108Y2260396D01*
X2700274Y2248103D01*
X2706014Y2236520D01*
X2713177Y2225751D01*
X2721711Y2215997D01*
X2731465Y2207463D01*
X2742234Y2200300D01*
X2753868Y2194560D01*
X2766110Y2190394D01*
X2778810Y2187854D01*
X2792069Y2186990D01*
X2827934Y2186990D01*
X2841193Y2187854D01*
X2853893Y2190394D01*
X2866136Y2194560D01*
X2877769Y2200300D01*
X2888538Y2207463D01*
X2898292Y2215997D01*
X2906826Y2225751D01*
X2913989Y2236520D01*
X2919730Y2248103D01*
X2923895Y2260396D01*
X2925775Y2269845D01*
X2927451Y2273706D01*
X2930550Y2276602D01*
X2934614Y2277922D01*
X2938830Y2277516D01*
X2942488Y2275433D01*
X2945028Y2271979D01*
X2945892Y2267864D01*
X2945892Y2050135D01*
X2945028Y2046020D01*
X2942488Y2042566D01*
X2938830Y2040483D01*
X2934614Y2040077D01*
X2930550Y2041398D01*
X2927451Y2044293D01*
X2925775Y2048154D01*
X2923895Y2057603D01*
X2919730Y2069896D01*
X2913989Y2081479D01*
X2906826Y2092248D01*
X2898292Y2102002D01*
X2888538Y2110536D01*
X2877769Y2117750D01*
X2866136Y2123440D01*
X2853893Y2127605D01*
X2841193Y2130145D01*
X2827934Y2131009D01*
X2792069Y2131009D01*
X2778810Y2130145D01*
X2766110Y2127605D01*
X2753868Y2123440D01*
X2742234Y2117750D01*
X2731465Y2110536D01*
X2721711Y2102002D01*
X2713177Y2092248D01*
X2706014Y2081479D01*
X2700274Y2069896D01*
X2696108Y2057603D01*
X2693568Y2044903D01*
X2692755Y2032000D01*
X2693568Y2019096D01*
X2696108Y2006396D01*
X2700274Y1994103D01*
X2706014Y1982520D01*
X2713177Y1971751D01*
X2721711Y1961997D01*
X2731465Y1953463D01*
X2742234Y1946300D01*
X2753868Y1940560D01*
X2766110Y1936394D01*
X2778810Y1933854D01*
X2792069Y1932990D01*
X2827934Y1932990D01*
X2841193Y1933854D01*
X2853893Y1936394D01*
X2866136Y1940560D01*
X2877769Y1946300D01*
X2888538Y1953463D01*
X2898292Y1961997D01*
X2906826Y1971751D01*
X2913989Y1982520D01*
X2919730Y1994103D01*
X2923895Y2006396D01*
X2925775Y2015845D01*
X2927451Y2019706D01*
X2930550Y2022602D01*
X2934614Y2023922D01*
X2938830Y2023516D01*
X2942488Y2021433D01*
X2945028Y2017979D01*
X2945892Y2013864D01*
X2945892Y1010208D01*
X2945130Y1006297D01*
X2942894Y1002995D01*
X2941320Y1001420D01*
X2935681Y993394D01*
X2931566Y984453D01*
X2929026Y975004D01*
X2928162Y965200D01*
X2929026Y955395D01*
X2931566Y945946D01*
X2935681Y937006D01*
X2941320Y928979D01*
X2948279Y922019D01*
X2956306Y916381D01*
X2965246Y912266D01*
X2974695Y909726D01*
X2982569Y909015D01*
X2985973Y908100D01*
X2988868Y906068D01*
X2990900Y903173D01*
X2991815Y899769D01*
X2992526Y891895D01*
X2995066Y882446D01*
X2999181Y873506D01*
X3004820Y865479D01*
X3011779Y858519D01*
X3019806Y852881D01*
X3028746Y848766D01*
X3038195Y846226D01*
X3048000Y845362D01*
X3057804Y846226D01*
X3060090Y846836D01*
X3063798Y847140D01*
X3067354Y846074D01*
X3070301Y843787D01*
X3072231Y840638D01*
X3072892Y837031D01*
X3072892Y579932D01*
X3072180Y576173D01*
X3070148Y572973D01*
X3067050Y570738D01*
X3063341Y569772D01*
X3058210Y569468D01*
X3043275Y566724D01*
X3028746Y562203D01*
X3014878Y555955D01*
X3001873Y548081D01*
X2989935Y538734D01*
X2979166Y527964D01*
X2969818Y516026D01*
X2961944Y503021D01*
X2955645Y489102D01*
X2953461Y485901D01*
X2950210Y483819D01*
X2946400Y483108D01*
X2942590Y483819D01*
X2939338Y485901D01*
X2937154Y489102D01*
X2930855Y503021D01*
X2922981Y516026D01*
X2913634Y527964D01*
X2902864Y538734D01*
X2890926Y548081D01*
X2877921Y555955D01*
X2864002Y562203D01*
X2860852Y564438D01*
X2858719Y567690D01*
X2858008Y571500D01*
X2858008Y856691D01*
X2858770Y860602D01*
X2861005Y863904D01*
X2862580Y865479D01*
X2868218Y873506D01*
X2872333Y882446D01*
X2874873Y891895D01*
X2875737Y901700D01*
X2874873Y911504D01*
X2872333Y920953D01*
X2868218Y929894D01*
X2862580Y937920D01*
X2855620Y944880D01*
X2847594Y950518D01*
X2838653Y954633D01*
X2829204Y957173D01*
X2819400Y958037D01*
X2809595Y957173D01*
X2800146Y954633D01*
X2791206Y950518D01*
X2783179Y944880D01*
X2776220Y937920D01*
X2770581Y929894D01*
X2766466Y920953D01*
X2763926Y911504D01*
X2763062Y901700D01*
X2763926Y891895D01*
X2766466Y882446D01*
X2770581Y873506D01*
X2776220Y865479D01*
X2777794Y863904D01*
X2780030Y860602D01*
X2780792Y856691D01*
X2780792Y571500D01*
X2780080Y567690D01*
X2777947Y564438D01*
X2774797Y562203D01*
X2760878Y555955D01*
X2747873Y548081D01*
X2735935Y538734D01*
X2725166Y527964D01*
X2715818Y516026D01*
X2707944Y503021D01*
X2701645Y489102D01*
X2699461Y485901D01*
X2696210Y483819D01*
X2692400Y483108D01*
X2688590Y483819D01*
X2685338Y485901D01*
X2683154Y489102D01*
X2676855Y503021D01*
X2668981Y516026D01*
X2659634Y527964D01*
X2648864Y538734D01*
X2636926Y548081D01*
X2623921Y555955D01*
X2610002Y562203D01*
X2606852Y564438D01*
X2604719Y567690D01*
X2604008Y571500D01*
X2604008Y920191D01*
X2604770Y924102D01*
X2607005Y927404D01*
X2608580Y928979D01*
X2614218Y937006D01*
X2618333Y945946D01*
X2620873Y955395D01*
X2621737Y965200D01*
X2620873Y975004D01*
X2618333Y984453D01*
X2614218Y993394D01*
X2608580Y1001420D01*
X2601620Y1008380D01*
X2593594Y1014018D01*
X2584653Y1018133D01*
X2575204Y1020673D01*
X2565400Y1021537D01*
X2555595Y1020673D01*
X2546146Y1018133D01*
X2537206Y1014018D01*
X2529179Y1008380D01*
X2522220Y1001420D01*
X2516581Y993394D01*
X2512466Y984453D01*
X2509926Y975004D01*
X2509062Y965200D01*
X2509926Y955395D01*
X2512466Y945946D01*
X2516581Y937006D01*
X2522220Y928979D01*
X2523794Y927404D01*
X2526030Y924102D01*
X2526792Y920191D01*
X2526792Y571500D01*
X2526080Y567690D01*
X2523947Y564438D01*
X2520797Y562203D01*
X2506878Y555955D01*
X2493873Y548081D01*
X2481935Y538734D01*
X2471166Y527964D01*
X2461818Y516026D01*
X2453944Y503021D01*
X2447696Y489153D01*
X2443175Y474624D01*
X2440432Y459689D01*
X2439517Y444500D01*
X2440432Y429310D01*
X2443175Y414375D01*
X2447696Y399846D01*
X2453944Y385978D01*
X2461818Y372973D01*
X2471166Y361035D01*
X2481935Y350266D01*
X2493873Y340918D01*
X2506878Y333044D01*
X2520746Y326796D01*
X2535275Y322275D01*
X2550210Y319532D01*
G37*
G36*
X105664Y393700D02*
G01*
X368300Y393700D01*
X368300Y656437D01*
X363677Y656336D01*
X340715Y653948D01*
X318008Y649630D01*
X295757Y643382D01*
X274066Y635355D01*
X253187Y625500D01*
X233171Y613968D01*
X214172Y600760D01*
X196392Y586028D01*
X179882Y569874D01*
X164795Y552348D01*
X151180Y533704D01*
X139242Y513892D01*
X128981Y493217D01*
X120446Y471728D01*
X113792Y449630D01*
X108966Y427024D01*
X106070Y404063D01*
G37*
G36*
X5185664Y393700D02*
G01*
X5448300Y393700D01*
X5448300Y656437D01*
X5443677Y656336D01*
X5420715Y653948D01*
X5398008Y649630D01*
X5375757Y643382D01*
X5354066Y635355D01*
X5333187Y625500D01*
X5313172Y613968D01*
X5294172Y600760D01*
X5276392Y586028D01*
X5259882Y569874D01*
X5244795Y552348D01*
X5231180Y533704D01*
X5219242Y513892D01*
X5208981Y493217D01*
X5200446Y471728D01*
X5193792Y449630D01*
X5188966Y427024D01*
X5186070Y404063D01*
G37*
G36*
X5473700Y393700D02*
G01*
X5736590Y393700D01*
X5734710Y415594D01*
X5730849Y438353D01*
X5725109Y460756D01*
X5717540Y482549D01*
X5708142Y503682D01*
X5697016Y523900D01*
X5684215Y543153D01*
X5669838Y561289D01*
X5654040Y578104D01*
X5636869Y593598D01*
X5618480Y607568D01*
X5598972Y619912D01*
X5578500Y630631D01*
X5557164Y639572D01*
X5535218Y646734D01*
X5512714Y652018D01*
X5489854Y655370D01*
X5473700Y656386D01*
G37*
G36*
X393700Y393700D02*
G01*
X656590Y393700D01*
X654710Y415594D01*
X650849Y438353D01*
X645109Y460756D01*
X637540Y482549D01*
X628142Y503682D01*
X617016Y523900D01*
X604215Y543153D01*
X589838Y561289D01*
X574040Y578104D01*
X556869Y593598D01*
X538480Y607568D01*
X518972Y619912D01*
X498500Y630631D01*
X477164Y639572D01*
X455218Y646734D01*
X432714Y652018D01*
X409854Y655370D01*
X393700Y656386D01*
G37*
G36*
X956106Y455015D02*
G01*
X971296Y455930D01*
X986231Y458673D01*
X1000760Y463194D01*
X1014628Y469442D01*
X1027633Y477316D01*
X1039571Y486664D01*
X1050340Y497433D01*
X1059688Y509371D01*
X1067562Y522376D01*
X1073810Y536244D01*
X1078331Y550773D01*
X1081074Y565708D01*
X1081989Y580898D01*
X1081074Y596087D01*
X1078331Y611022D01*
X1073810Y625551D01*
X1067562Y639419D01*
X1059688Y652424D01*
X1050340Y664362D01*
X1039571Y675132D01*
X1027633Y684479D01*
X1014628Y692353D01*
X1000709Y698652D01*
X997508Y700836D01*
X995426Y704088D01*
X994714Y707898D01*
X995426Y711708D01*
X997508Y714959D01*
X1000709Y717143D01*
X1014628Y723442D01*
X1027633Y731316D01*
X1039571Y740664D01*
X1050340Y751433D01*
X1059688Y763371D01*
X1067562Y776376D01*
X1073810Y790244D01*
X1078331Y804773D01*
X1081074Y819708D01*
X1081989Y834898D01*
X1081074Y850087D01*
X1078331Y865022D01*
X1073810Y879551D01*
X1067562Y893419D01*
X1059688Y906424D01*
X1050340Y918362D01*
X1039571Y929132D01*
X1027633Y938479D01*
X1014628Y946353D01*
X1000709Y952652D01*
X997508Y954836D01*
X995426Y958087D01*
X994714Y961898D01*
X995426Y965708D01*
X997508Y968959D01*
X1000709Y971143D01*
X1014628Y977442D01*
X1027633Y985316D01*
X1039571Y994664D01*
X1050340Y1005433D01*
X1059688Y1017371D01*
X1067562Y1030376D01*
X1073810Y1044244D01*
X1078331Y1058773D01*
X1081074Y1073708D01*
X1081989Y1088898D01*
X1081074Y1104087D01*
X1078331Y1119022D01*
X1073810Y1133551D01*
X1067562Y1147419D01*
X1059688Y1160424D01*
X1050340Y1172362D01*
X1039571Y1183132D01*
X1027633Y1192479D01*
X1014628Y1200353D01*
X1000709Y1206652D01*
X997508Y1208836D01*
X995426Y1212088D01*
X994714Y1215898D01*
X995426Y1219708D01*
X997508Y1222959D01*
X1000709Y1225143D01*
X1014628Y1231442D01*
X1027633Y1239316D01*
X1039571Y1248664D01*
X1050340Y1259433D01*
X1059688Y1271371D01*
X1067562Y1284376D01*
X1073810Y1298244D01*
X1078331Y1312773D01*
X1081074Y1327708D01*
X1081989Y1342898D01*
X1081074Y1358087D01*
X1078331Y1373022D01*
X1073810Y1387551D01*
X1067562Y1401419D01*
X1059688Y1414424D01*
X1050340Y1426362D01*
X1039571Y1437132D01*
X1027633Y1446479D01*
X1014628Y1454353D01*
X1000709Y1460652D01*
X997508Y1462836D01*
X995426Y1466088D01*
X994714Y1469898D01*
X995426Y1473708D01*
X997508Y1476959D01*
X1000709Y1479143D01*
X1014628Y1485442D01*
X1027633Y1493316D01*
X1039571Y1502664D01*
X1050340Y1513433D01*
X1059688Y1525371D01*
X1067562Y1538376D01*
X1073810Y1552244D01*
X1078331Y1566773D01*
X1081074Y1581708D01*
X1081989Y1596898D01*
X1081074Y1612087D01*
X1078331Y1627022D01*
X1073810Y1641551D01*
X1067562Y1655419D01*
X1059688Y1668424D01*
X1050340Y1680362D01*
X1039571Y1691132D01*
X1027633Y1700479D01*
X1014628Y1708353D01*
X1000709Y1714652D01*
X997508Y1716836D01*
X995426Y1720088D01*
X994714Y1723898D01*
X995426Y1727707D01*
X997508Y1730959D01*
X1000709Y1733143D01*
X1014628Y1739442D01*
X1027633Y1747316D01*
X1039571Y1756664D01*
X1050340Y1767433D01*
X1059688Y1779371D01*
X1067562Y1792376D01*
X1073810Y1806244D01*
X1078331Y1820773D01*
X1081074Y1835708D01*
X1081989Y1850898D01*
X1081074Y1866087D01*
X1078331Y1881022D01*
X1073810Y1895551D01*
X1067562Y1909419D01*
X1059688Y1922424D01*
X1050340Y1934362D01*
X1039571Y1945132D01*
X1027633Y1954479D01*
X1014628Y1962353D01*
X1000709Y1968652D01*
X997508Y1970836D01*
X995426Y1974088D01*
X994714Y1977898D01*
X995426Y1981707D01*
X997508Y1984959D01*
X1000709Y1987143D01*
X1014628Y1993442D01*
X1027633Y2001316D01*
X1039571Y2010664D01*
X1050340Y2021433D01*
X1059688Y2033371D01*
X1067562Y2046376D01*
X1073810Y2060244D01*
X1078331Y2074773D01*
X1081074Y2089708D01*
X1081989Y2104898D01*
X1081074Y2120087D01*
X1078331Y2135022D01*
X1073810Y2149551D01*
X1067562Y2163419D01*
X1059688Y2176424D01*
X1050340Y2188362D01*
X1039571Y2199132D01*
X1027633Y2208479D01*
X1014628Y2216353D01*
X1000709Y2222652D01*
X997508Y2224836D01*
X995426Y2228088D01*
X994714Y2231898D01*
X995426Y2235708D01*
X997508Y2238959D01*
X1000709Y2241143D01*
X1014628Y2247442D01*
X1027633Y2255316D01*
X1039571Y2264664D01*
X1050340Y2275433D01*
X1059688Y2287371D01*
X1067562Y2300376D01*
X1073810Y2314244D01*
X1078331Y2328773D01*
X1081074Y2343708D01*
X1081989Y2358898D01*
X1081074Y2374087D01*
X1078331Y2389022D01*
X1073810Y2403551D01*
X1067562Y2417419D01*
X1059688Y2430424D01*
X1050340Y2442362D01*
X1039571Y2453132D01*
X1027633Y2462479D01*
X1014628Y2470353D01*
X1000760Y2476601D01*
X986231Y2481122D01*
X971296Y2483866D01*
X956106Y2484780D01*
X940917Y2483866D01*
X925982Y2481122D01*
X911453Y2476601D01*
X897585Y2470353D01*
X884580Y2462479D01*
X872642Y2453132D01*
X861872Y2442362D01*
X852525Y2430424D01*
X844651Y2417419D01*
X838403Y2403551D01*
X833882Y2389022D01*
X831138Y2374087D01*
X830224Y2358898D01*
X831138Y2343708D01*
X833882Y2328773D01*
X838403Y2314244D01*
X844651Y2300376D01*
X852525Y2287371D01*
X861872Y2275433D01*
X872642Y2264664D01*
X884580Y2255316D01*
X897585Y2247442D01*
X911504Y2241143D01*
X914704Y2238959D01*
X916787Y2235708D01*
X917498Y2231898D01*
X916787Y2228088D01*
X914704Y2224836D01*
X911504Y2222652D01*
X897585Y2216353D01*
X884580Y2208479D01*
X872642Y2199132D01*
X861872Y2188362D01*
X852525Y2176424D01*
X844651Y2163419D01*
X838403Y2149551D01*
X833882Y2135022D01*
X831138Y2120087D01*
X830224Y2104898D01*
X831138Y2089708D01*
X833882Y2074773D01*
X838403Y2060244D01*
X844651Y2046376D01*
X852525Y2033371D01*
X861872Y2021433D01*
X872642Y2010664D01*
X884580Y2001316D01*
X897585Y1993442D01*
X911504Y1987143D01*
X914704Y1984959D01*
X916787Y1981707D01*
X917498Y1977898D01*
X916787Y1974088D01*
X914704Y1970836D01*
X911504Y1968652D01*
X897585Y1962353D01*
X884580Y1954479D01*
X872642Y1945132D01*
X861872Y1934362D01*
X852525Y1922424D01*
X844651Y1909419D01*
X838403Y1895551D01*
X833882Y1881022D01*
X831138Y1866087D01*
X830224Y1850898D01*
X831138Y1835708D01*
X833882Y1820773D01*
X838403Y1806244D01*
X844651Y1792376D01*
X852525Y1779371D01*
X861872Y1767433D01*
X872642Y1756664D01*
X884580Y1747316D01*
X897585Y1739442D01*
X911504Y1733143D01*
X914704Y1730959D01*
X916787Y1727707D01*
X917498Y1723898D01*
X916787Y1720088D01*
X914704Y1716836D01*
X911504Y1714652D01*
X897585Y1708353D01*
X884580Y1700479D01*
X872642Y1691132D01*
X861872Y1680362D01*
X852525Y1668424D01*
X844651Y1655419D01*
X838403Y1641551D01*
X833882Y1627022D01*
X831138Y1612087D01*
X830224Y1596898D01*
X831138Y1581708D01*
X833882Y1566773D01*
X838403Y1552244D01*
X844651Y1538376D01*
X852525Y1525371D01*
X861872Y1513433D01*
X872642Y1502664D01*
X884580Y1493316D01*
X897585Y1485442D01*
X911504Y1479143D01*
X914704Y1476959D01*
X916787Y1473708D01*
X917498Y1469898D01*
X916787Y1466088D01*
X914704Y1462836D01*
X911504Y1460652D01*
X897585Y1454353D01*
X884580Y1446479D01*
X872642Y1437132D01*
X861872Y1426362D01*
X852525Y1414424D01*
X844651Y1401419D01*
X838403Y1387551D01*
X833882Y1373022D01*
X831138Y1358087D01*
X830224Y1342898D01*
X831138Y1327708D01*
X833882Y1312773D01*
X838403Y1298244D01*
X844651Y1284376D01*
X852525Y1271371D01*
X861872Y1259433D01*
X872642Y1248664D01*
X884580Y1239316D01*
X897585Y1231442D01*
X911504Y1225143D01*
X914704Y1222959D01*
X916787Y1219708D01*
X917498Y1215898D01*
X916787Y1212088D01*
X914704Y1208836D01*
X911504Y1206652D01*
X897585Y1200353D01*
X884580Y1192479D01*
X872642Y1183132D01*
X861872Y1172362D01*
X852525Y1160424D01*
X844651Y1147419D01*
X838403Y1133551D01*
X833882Y1119022D01*
X831138Y1104087D01*
X830224Y1088898D01*
X831138Y1073708D01*
X833882Y1058773D01*
X838403Y1044244D01*
X844651Y1030376D01*
X852525Y1017371D01*
X861872Y1005433D01*
X872642Y994664D01*
X884580Y985316D01*
X897585Y977442D01*
X911504Y971143D01*
X914704Y968959D01*
X916787Y965708D01*
X917498Y961898D01*
X916787Y958087D01*
X914704Y954836D01*
X911504Y952652D01*
X897585Y946353D01*
X884580Y938479D01*
X872642Y929132D01*
X861872Y918362D01*
X852525Y906424D01*
X844651Y893419D01*
X838403Y879551D01*
X833882Y865022D01*
X831138Y850087D01*
X830224Y834898D01*
X831138Y819708D01*
X833882Y804773D01*
X838403Y790244D01*
X844651Y776376D01*
X852525Y763371D01*
X861872Y751433D01*
X872642Y740664D01*
X884580Y731316D01*
X897585Y723442D01*
X911504Y717143D01*
X914704Y714959D01*
X916787Y711708D01*
X917498Y707898D01*
X916787Y704088D01*
X914704Y700836D01*
X911504Y698652D01*
X897585Y692353D01*
X884580Y684479D01*
X872642Y675132D01*
X861872Y664362D01*
X852525Y652424D01*
X844651Y639419D01*
X838403Y625551D01*
X833882Y611022D01*
X831138Y596087D01*
X830224Y580898D01*
X831138Y565708D01*
X833882Y550773D01*
X838403Y536244D01*
X844651Y522376D01*
X852525Y509371D01*
X861872Y497433D01*
X872642Y486664D01*
X884580Y477316D01*
X897585Y469442D01*
X911453Y463194D01*
X925982Y458673D01*
X940917Y455930D01*
G37*
G36*
X1181100Y5532932D02*
G01*
X1194917Y5533796D01*
X1208481Y5536539D01*
X1221638Y5540959D01*
X1234033Y5547106D01*
X1245565Y5554776D01*
X1255979Y5563920D01*
X1265123Y5574334D01*
X1272794Y5585866D01*
X1278940Y5598261D01*
X1283360Y5611418D01*
X1286103Y5624982D01*
X1286967Y5638800D01*
X1286103Y5652617D01*
X1283360Y5666181D01*
X1278940Y5679338D01*
X1272794Y5691733D01*
X1265123Y5703265D01*
X1255979Y5713679D01*
X1245565Y5722823D01*
X1234033Y5730494D01*
X1221638Y5736640D01*
X1208481Y5741060D01*
X1194917Y5743803D01*
X1181100Y5744667D01*
X1167282Y5743803D01*
X1153718Y5741060D01*
X1140561Y5736640D01*
X1128166Y5730494D01*
X1116634Y5722823D01*
X1106220Y5713679D01*
X1097076Y5703265D01*
X1089406Y5691733D01*
X1083259Y5679338D01*
X1078839Y5666181D01*
X1076096Y5652617D01*
X1075232Y5638800D01*
X1076096Y5624982D01*
X1078839Y5611418D01*
X1083259Y5598261D01*
X1089406Y5585866D01*
X1097076Y5574334D01*
X1106220Y5563920D01*
X1116634Y5554776D01*
X1128166Y5547106D01*
X1140561Y5540959D01*
X1153718Y5536539D01*
X1167282Y5533796D01*
G37*
G36*
X1308100Y527862D02*
G01*
X1317904Y528726D01*
X1327353Y531266D01*
X1336294Y535381D01*
X1344320Y541020D01*
X1351280Y547979D01*
X1356918Y556006D01*
X1361033Y564946D01*
X1363573Y574395D01*
X1364437Y584200D01*
X1363573Y594004D01*
X1361033Y603453D01*
X1356918Y612394D01*
X1351280Y620420D01*
X1349705Y621995D01*
X1347470Y625297D01*
X1346708Y629208D01*
X1346708Y773531D01*
X1347368Y777138D01*
X1349298Y780288D01*
X1352245Y782574D01*
X1355801Y783640D01*
X1359509Y783336D01*
X1361795Y782726D01*
X1371600Y781862D01*
X1381404Y782726D01*
X1390853Y785266D01*
X1399794Y789381D01*
X1407820Y795020D01*
X1414780Y801979D01*
X1420418Y810006D01*
X1424533Y818946D01*
X1427073Y828395D01*
X1427937Y838200D01*
X1427073Y848004D01*
X1424533Y857453D01*
X1420418Y866394D01*
X1414780Y874420D01*
X1413205Y875995D01*
X1410970Y879297D01*
X1410208Y883208D01*
X1410208Y1027531D01*
X1410868Y1031138D01*
X1412798Y1034287D01*
X1415745Y1036574D01*
X1419301Y1037640D01*
X1423009Y1037336D01*
X1425295Y1036726D01*
X1435100Y1035862D01*
X1444904Y1036726D01*
X1454353Y1039266D01*
X1463294Y1043381D01*
X1471320Y1049020D01*
X1478280Y1055979D01*
X1483918Y1064006D01*
X1488033Y1072946D01*
X1490573Y1082395D01*
X1491437Y1092200D01*
X1490573Y1102004D01*
X1488033Y1111453D01*
X1483918Y1120394D01*
X1478280Y1128420D01*
X1476705Y1129995D01*
X1474470Y1133297D01*
X1473708Y1137208D01*
X1473708Y1278229D01*
X1474368Y1281836D01*
X1476298Y1284986D01*
X1479245Y1287272D01*
X1482801Y1288338D01*
X1486509Y1288034D01*
X1488795Y1287424D01*
X1498600Y1286560D01*
X1508404Y1287424D01*
X1517853Y1289964D01*
X1526794Y1294079D01*
X1534820Y1299718D01*
X1541780Y1306677D01*
X1547418Y1314704D01*
X1551533Y1323644D01*
X1554073Y1333093D01*
X1554937Y1342898D01*
X1554073Y1352702D01*
X1551533Y1362151D01*
X1547418Y1371092D01*
X1541780Y1379118D01*
X1540205Y1380693D01*
X1537970Y1383995D01*
X1537208Y1387906D01*
X1537208Y2748991D01*
X1537970Y2752902D01*
X1540205Y2756204D01*
X1541780Y2757779D01*
X1547418Y2765806D01*
X1551533Y2774746D01*
X1554073Y2784195D01*
X1554937Y2794000D01*
X1554073Y2803804D01*
X1551533Y2813253D01*
X1547418Y2822194D01*
X1541780Y2830220D01*
X1534820Y2837180D01*
X1526794Y2842818D01*
X1517853Y2846933D01*
X1508404Y2849473D01*
X1498600Y2850337D01*
X1488795Y2849473D01*
X1479346Y2846933D01*
X1470406Y2842818D01*
X1462379Y2837180D01*
X1455420Y2830220D01*
X1449781Y2822194D01*
X1445666Y2813253D01*
X1443126Y2803804D01*
X1442262Y2794000D01*
X1443126Y2784195D01*
X1445666Y2774746D01*
X1449781Y2765806D01*
X1455420Y2757779D01*
X1456994Y2756204D01*
X1459230Y2752902D01*
X1459992Y2748991D01*
X1459992Y2731668D01*
X1459331Y2728061D01*
X1457401Y2724912D01*
X1454454Y2722626D01*
X1450898Y2721559D01*
X1447190Y2721864D01*
X1444904Y2722473D01*
X1435100Y2723337D01*
X1425295Y2722473D01*
X1415846Y2719933D01*
X1406906Y2715818D01*
X1398879Y2710180D01*
X1391920Y2703220D01*
X1386281Y2695194D01*
X1382166Y2686253D01*
X1379626Y2676804D01*
X1378762Y2667000D01*
X1379626Y2657195D01*
X1382166Y2647746D01*
X1386281Y2638806D01*
X1391920Y2630779D01*
X1393494Y2629204D01*
X1395730Y2625902D01*
X1396492Y2621991D01*
X1396492Y2350668D01*
X1395831Y2347061D01*
X1393901Y2343912D01*
X1390954Y2341626D01*
X1387398Y2340559D01*
X1383690Y2340864D01*
X1381404Y2341473D01*
X1371600Y2342337D01*
X1361795Y2341473D01*
X1352346Y2338933D01*
X1343406Y2334818D01*
X1335379Y2329180D01*
X1328420Y2322220D01*
X1322781Y2314194D01*
X1318666Y2305253D01*
X1316126Y2295804D01*
X1315262Y2286000D01*
X1316126Y2276195D01*
X1318666Y2266746D01*
X1322781Y2257806D01*
X1328420Y2249779D01*
X1329994Y2248204D01*
X1332230Y2244902D01*
X1332992Y2240991D01*
X1332992Y2223668D01*
X1332331Y2220061D01*
X1330401Y2216912D01*
X1327454Y2214626D01*
X1323898Y2213559D01*
X1320190Y2213864D01*
X1317904Y2214473D01*
X1308100Y2215337D01*
X1298295Y2214473D01*
X1288846Y2211933D01*
X1279906Y2207818D01*
X1271879Y2202180D01*
X1264920Y2195220D01*
X1259281Y2187194D01*
X1255166Y2178253D01*
X1253490Y2172055D01*
X1251610Y2168347D01*
X1248511Y2165705D01*
X1244549Y2164537D01*
X1234795Y2163673D01*
X1232509Y2163064D01*
X1228801Y2162759D01*
X1225245Y2163826D01*
X1222298Y2166112D01*
X1220368Y2169261D01*
X1219708Y2172868D01*
X1219708Y2317191D01*
X1220470Y2321102D01*
X1222705Y2324404D01*
X1224280Y2325979D01*
X1229918Y2334006D01*
X1234033Y2342946D01*
X1236573Y2352395D01*
X1237437Y2362200D01*
X1236573Y2372004D01*
X1234033Y2381453D01*
X1229918Y2390394D01*
X1224280Y2398420D01*
X1217320Y2405380D01*
X1209294Y2411018D01*
X1200353Y2415133D01*
X1190904Y2417673D01*
X1181100Y2418537D01*
X1171295Y2417673D01*
X1161846Y2415133D01*
X1152906Y2411018D01*
X1144879Y2405380D01*
X1137920Y2398420D01*
X1132281Y2390394D01*
X1128166Y2381453D01*
X1125626Y2372004D01*
X1124762Y2362200D01*
X1125626Y2352395D01*
X1128166Y2342946D01*
X1132281Y2334006D01*
X1137920Y2325979D01*
X1139494Y2324404D01*
X1141730Y2321102D01*
X1142492Y2317191D01*
X1142492Y1759508D01*
X1141730Y1755597D01*
X1139494Y1752295D01*
X1137920Y1750720D01*
X1132281Y1742693D01*
X1128166Y1733753D01*
X1125626Y1724304D01*
X1124762Y1714500D01*
X1125626Y1704695D01*
X1128166Y1695246D01*
X1132281Y1686306D01*
X1137920Y1678279D01*
X1144879Y1671320D01*
X1152906Y1665681D01*
X1161846Y1661566D01*
X1171295Y1659026D01*
X1181100Y1658162D01*
X1190904Y1659026D01*
X1200353Y1661566D01*
X1209294Y1665681D01*
X1217320Y1671320D01*
X1224280Y1678279D01*
X1229918Y1686306D01*
X1234033Y1695246D01*
X1236573Y1704695D01*
X1237284Y1712569D01*
X1238199Y1715973D01*
X1240231Y1718868D01*
X1243126Y1720900D01*
X1246530Y1721815D01*
X1254404Y1722526D01*
X1256690Y1723136D01*
X1260398Y1723440D01*
X1263954Y1722374D01*
X1266901Y1720088D01*
X1268831Y1716938D01*
X1269492Y1713331D01*
X1269492Y629208D01*
X1268730Y625297D01*
X1266494Y621995D01*
X1264920Y620420D01*
X1259281Y612394D01*
X1255166Y603453D01*
X1252626Y594004D01*
X1251762Y584200D01*
X1252626Y574395D01*
X1255166Y564946D01*
X1259281Y556006D01*
X1264920Y547979D01*
X1271879Y541020D01*
X1279906Y535381D01*
X1288846Y531266D01*
X1298295Y528726D01*
G37*
G36*
X2193798Y563626D02*
G01*
X2207615Y564489D01*
X2221179Y567232D01*
X2234336Y571652D01*
X2246731Y577799D01*
X2258263Y585470D01*
X2268677Y594614D01*
X2277821Y605028D01*
X2285492Y616559D01*
X2291638Y628954D01*
X2296058Y642112D01*
X2298801Y655675D01*
X2299665Y669493D01*
X2298801Y683310D01*
X2296058Y696874D01*
X2291638Y710031D01*
X2285492Y722426D01*
X2277821Y733958D01*
X2268677Y744372D01*
X2258263Y753516D01*
X2246731Y761187D01*
X2234336Y767334D01*
X2221179Y771753D01*
X2207615Y774496D01*
X2193798Y775360D01*
X2179980Y774496D01*
X2166416Y771753D01*
X2153259Y767334D01*
X2140864Y761187D01*
X2129332Y753516D01*
X2118918Y744372D01*
X2109774Y733958D01*
X2102104Y722426D01*
X2095957Y710031D01*
X2091537Y696874D01*
X2088794Y683310D01*
X2087930Y669493D01*
X2088794Y655675D01*
X2091537Y642112D01*
X2095957Y628954D01*
X2102104Y616559D01*
X2109774Y605028D01*
X2118918Y594614D01*
X2129332Y585470D01*
X2140864Y577799D01*
X2153259Y571652D01*
X2166416Y567232D01*
X2179980Y564489D01*
G37*
G36*
X4715002Y563626D02*
G01*
X4728819Y564489D01*
X4742383Y567232D01*
X4755540Y571652D01*
X4767935Y577799D01*
X4779467Y585470D01*
X4789881Y594614D01*
X4799025Y605028D01*
X4806696Y616559D01*
X4812842Y628954D01*
X4817262Y642112D01*
X4820005Y655675D01*
X4820869Y669493D01*
X4820005Y683310D01*
X4817262Y696874D01*
X4812842Y710031D01*
X4806696Y722426D01*
X4799025Y733958D01*
X4789881Y744372D01*
X4779467Y753516D01*
X4767935Y761187D01*
X4755540Y767334D01*
X4742383Y771753D01*
X4728819Y774496D01*
X4715002Y775360D01*
X4701184Y774496D01*
X4687620Y771753D01*
X4674463Y767334D01*
X4662068Y761187D01*
X4650536Y753516D01*
X4640122Y744372D01*
X4630978Y733958D01*
X4623308Y722426D01*
X4617161Y710031D01*
X4612741Y696874D01*
X4609998Y683310D01*
X4609134Y669493D01*
X4609998Y655675D01*
X4612741Y642112D01*
X4617161Y628954D01*
X4623308Y616559D01*
X4630978Y605028D01*
X4640122Y594614D01*
X4650536Y585470D01*
X4662068Y577799D01*
X4674463Y571652D01*
X4687620Y567232D01*
X4701184Y564489D01*
G37*
G36*
X5588000Y705662D02*
G01*
X5597804Y706526D01*
X5607253Y709066D01*
X5616194Y713181D01*
X5624220Y718820D01*
X5631180Y725779D01*
X5636818Y733806D01*
X5640933Y742746D01*
X5643473Y752195D01*
X5644337Y762000D01*
X5643473Y771804D01*
X5640933Y781253D01*
X5639866Y783590D01*
X5638901Y787908D01*
X5638901Y905713D01*
X5639460Y909066D01*
X5641086Y912063D01*
X5643626Y914298D01*
X5656122Y922223D01*
X5667349Y931519D01*
X5677306Y942136D01*
X5685840Y953922D01*
X5692851Y966673D01*
X5698236Y980186D01*
X5701842Y994308D01*
X5703671Y1008735D01*
X5703671Y1023264D01*
X5701842Y1037691D01*
X5698236Y1051814D01*
X5692851Y1065326D01*
X5685840Y1078077D01*
X5677306Y1089863D01*
X5667349Y1100480D01*
X5656122Y1109776D01*
X5643829Y1117549D01*
X5630672Y1123746D01*
X5616803Y1128268D01*
X5602528Y1130960D01*
X5588000Y1131874D01*
X5573471Y1130960D01*
X5559196Y1128268D01*
X5545328Y1123746D01*
X5532170Y1117549D01*
X5519877Y1109776D01*
X5508650Y1100480D01*
X5498693Y1089863D01*
X5490159Y1078077D01*
X5483148Y1065326D01*
X5477764Y1051814D01*
X5474157Y1037691D01*
X5472328Y1023264D01*
X5472328Y1008735D01*
X5474157Y994308D01*
X5477764Y980186D01*
X5483148Y966673D01*
X5490159Y953922D01*
X5498693Y942136D01*
X5508650Y931519D01*
X5519877Y922223D01*
X5532374Y914298D01*
X5534914Y912063D01*
X5536539Y909066D01*
X5537098Y905713D01*
X5537098Y787908D01*
X5536133Y783590D01*
X5535066Y781253D01*
X5532526Y771804D01*
X5531662Y762000D01*
X5532526Y752195D01*
X5535066Y742746D01*
X5539181Y733806D01*
X5544820Y725779D01*
X5551779Y718820D01*
X5559806Y713181D01*
X5568746Y709066D01*
X5578195Y706526D01*
G37*
G36*
X2413000Y705662D02*
G01*
X2422804Y706526D01*
X2432253Y709066D01*
X2441194Y713181D01*
X2449220Y718820D01*
X2456180Y725779D01*
X2461818Y733806D01*
X2465933Y742746D01*
X2468473Y752195D01*
X2469337Y762000D01*
X2468473Y771804D01*
X2465933Y781253D01*
X2461818Y790194D01*
X2456180Y798220D01*
X2454605Y799795D01*
X2452370Y803097D01*
X2451608Y807008D01*
X2451608Y4780991D01*
X2452370Y4784902D01*
X2454605Y4788204D01*
X2456180Y4789779D01*
X2461818Y4797806D01*
X2465933Y4806746D01*
X2468473Y4816195D01*
X2469337Y4826000D01*
X2468473Y4835804D01*
X2465933Y4845253D01*
X2461818Y4854194D01*
X2456180Y4862220D01*
X2449220Y4869180D01*
X2441194Y4874818D01*
X2432253Y4878933D01*
X2422804Y4881473D01*
X2413000Y4882337D01*
X2403195Y4881473D01*
X2393746Y4878933D01*
X2384806Y4874818D01*
X2376779Y4869180D01*
X2369820Y4862220D01*
X2364181Y4854194D01*
X2360066Y4845253D01*
X2357526Y4835804D01*
X2356662Y4826000D01*
X2357526Y4816195D01*
X2360066Y4806746D01*
X2364181Y4797806D01*
X2369820Y4789779D01*
X2371394Y4788204D01*
X2373630Y4784902D01*
X2374392Y4780991D01*
X2374392Y807008D01*
X2373630Y803097D01*
X2371394Y799795D01*
X2369820Y798220D01*
X2364181Y790194D01*
X2360066Y781253D01*
X2357526Y771804D01*
X2356662Y762000D01*
X2357526Y752195D01*
X2360066Y742746D01*
X2364181Y733806D01*
X2369820Y725779D01*
X2376779Y718820D01*
X2384806Y713181D01*
X2393746Y709066D01*
X2403195Y706526D01*
G37*
G36*
X5105400Y705662D02*
G01*
X5115204Y706526D01*
X5124653Y709066D01*
X5133594Y713181D01*
X5141620Y718820D01*
X5148580Y725779D01*
X5154218Y733806D01*
X5158333Y742746D01*
X5160873Y752195D01*
X5161737Y762000D01*
X5160873Y771804D01*
X5158333Y781253D01*
X5157266Y783590D01*
X5156301Y787908D01*
X5156301Y1667002D01*
X5157266Y1671320D01*
X5158333Y1673656D01*
X5160873Y1683105D01*
X5161737Y1692910D01*
X5160873Y1702714D01*
X5158333Y1712163D01*
X5157266Y1714500D01*
X5156301Y1718818D01*
X5156301Y2360472D01*
X5157266Y2364740D01*
X5159959Y2368245D01*
X5163820Y2370277D01*
X5168239Y2370480D01*
X5172303Y2368753D01*
X5178806Y2364181D01*
X5187746Y2360066D01*
X5197195Y2357526D01*
X5207000Y2356662D01*
X5216804Y2357526D01*
X5219090Y2358136D01*
X5222798Y2358440D01*
X5226354Y2357374D01*
X5229301Y2355088D01*
X5231231Y2351938D01*
X5231892Y2348331D01*
X5231892Y1950008D01*
X5231130Y1946097D01*
X5228894Y1942795D01*
X5227320Y1941220D01*
X5221681Y1933193D01*
X5217566Y1924253D01*
X5215026Y1914804D01*
X5214162Y1905000D01*
X5215026Y1895195D01*
X5217566Y1885746D01*
X5221681Y1876806D01*
X5227320Y1868779D01*
X5234279Y1861820D01*
X5242306Y1856181D01*
X5251246Y1852066D01*
X5260695Y1849526D01*
X5270500Y1848662D01*
X5280304Y1849526D01*
X5289753Y1852066D01*
X5298694Y1856181D01*
X5306720Y1861820D01*
X5313680Y1868779D01*
X5319318Y1876806D01*
X5323433Y1885746D01*
X5325973Y1895195D01*
X5326837Y1905000D01*
X5325973Y1914804D01*
X5323433Y1924253D01*
X5319318Y1933193D01*
X5313680Y1941220D01*
X5312105Y1942795D01*
X5309870Y1946097D01*
X5309108Y1950008D01*
X5309108Y3002991D01*
X5309870Y3006902D01*
X5312105Y3010204D01*
X5313680Y3011779D01*
X5319318Y3019806D01*
X5323433Y3028746D01*
X5325973Y3038195D01*
X5326837Y3048000D01*
X5325973Y3057804D01*
X5323433Y3067253D01*
X5319318Y3076194D01*
X5313680Y3084220D01*
X5306720Y3091180D01*
X5298694Y3096818D01*
X5289753Y3100933D01*
X5280304Y3103473D01*
X5270500Y3104337D01*
X5260695Y3103473D01*
X5258409Y3102864D01*
X5254701Y3102559D01*
X5251145Y3103626D01*
X5248198Y3105912D01*
X5246268Y3109061D01*
X5245608Y3112668D01*
X5245608Y3510991D01*
X5246370Y3514902D01*
X5248605Y3518204D01*
X5250180Y3519779D01*
X5255818Y3527806D01*
X5259933Y3536746D01*
X5262473Y3546195D01*
X5263337Y3556000D01*
X5262473Y3565804D01*
X5259933Y3575253D01*
X5255818Y3584194D01*
X5250180Y3592220D01*
X5243220Y3599179D01*
X5235194Y3604818D01*
X5226253Y3608933D01*
X5216804Y3611473D01*
X5207000Y3612337D01*
X5197195Y3611473D01*
X5194909Y3610864D01*
X5191201Y3610559D01*
X5187645Y3611626D01*
X5184698Y3613912D01*
X5182768Y3617061D01*
X5182108Y3620668D01*
X5182108Y4018991D01*
X5182870Y4022902D01*
X5185105Y4026204D01*
X5186680Y4027779D01*
X5192318Y4035806D01*
X5196433Y4044746D01*
X5198973Y4054195D01*
X5199837Y4064000D01*
X5198973Y4073804D01*
X5196433Y4083253D01*
X5192318Y4092194D01*
X5186680Y4100220D01*
X5179720Y4107179D01*
X5171694Y4112818D01*
X5162753Y4116933D01*
X5153304Y4119473D01*
X5143500Y4120337D01*
X5133695Y4119473D01*
X5131409Y4118864D01*
X5127701Y4118559D01*
X5124145Y4119626D01*
X5121198Y4121912D01*
X5119268Y4125061D01*
X5118608Y4128668D01*
X5118608Y4526991D01*
X5119370Y4530902D01*
X5121605Y4534204D01*
X5123180Y4535779D01*
X5128818Y4543806D01*
X5132933Y4552746D01*
X5135473Y4562195D01*
X5136337Y4572000D01*
X5135473Y4581804D01*
X5132933Y4591253D01*
X5128818Y4600194D01*
X5123180Y4608220D01*
X5116220Y4615180D01*
X5108194Y4620818D01*
X5099253Y4624933D01*
X5089804Y4627473D01*
X5080000Y4628337D01*
X5070195Y4627473D01*
X5060746Y4624933D01*
X5051806Y4620818D01*
X5043779Y4615180D01*
X5036820Y4608220D01*
X5035499Y4606290D01*
X5032400Y4603394D01*
X5028336Y4602022D01*
X5024120Y4602429D01*
X5020411Y4604562D01*
X5017922Y4607966D01*
X5017008Y4612132D01*
X5017008Y5225491D01*
X5017770Y5229402D01*
X5020005Y5232704D01*
X5021580Y5234279D01*
X5027218Y5242306D01*
X5031333Y5251246D01*
X5033873Y5260695D01*
X5034737Y5270500D01*
X5033873Y5280304D01*
X5031333Y5289753D01*
X5027218Y5298694D01*
X5021580Y5306720D01*
X5014620Y5313680D01*
X5006594Y5319318D01*
X4997653Y5323433D01*
X4988204Y5325973D01*
X4978400Y5326837D01*
X4968595Y5325973D01*
X4959146Y5323433D01*
X4950206Y5319318D01*
X4942179Y5313680D01*
X4935220Y5306720D01*
X4929581Y5298694D01*
X4925466Y5289753D01*
X4922926Y5280304D01*
X4922062Y5270500D01*
X4922926Y5260695D01*
X4925466Y5251246D01*
X4929581Y5242306D01*
X4935220Y5234279D01*
X4936794Y5232704D01*
X4939030Y5229402D01*
X4939792Y5225491D01*
X4939792Y4643424D01*
X4938928Y4639310D01*
X4936439Y4635855D01*
X4932781Y4633772D01*
X4928565Y4633315D01*
X4924552Y4634636D01*
X4921402Y4637430D01*
X4915306Y4645863D01*
X4905349Y4656480D01*
X4894122Y4665776D01*
X4881829Y4673549D01*
X4868672Y4679746D01*
X4854803Y4684268D01*
X4840528Y4686960D01*
X4826000Y4687874D01*
X4811471Y4686960D01*
X4797196Y4684268D01*
X4783328Y4679746D01*
X4770170Y4673549D01*
X4757877Y4665776D01*
X4746650Y4656480D01*
X4736693Y4645863D01*
X4728159Y4634077D01*
X4721148Y4621326D01*
X4715764Y4607814D01*
X4712157Y4593691D01*
X4710328Y4579264D01*
X4710328Y4564735D01*
X4712157Y4550308D01*
X4715764Y4536186D01*
X4721148Y4522673D01*
X4728159Y4509922D01*
X4736693Y4498136D01*
X4746650Y4487519D01*
X4757877Y4478223D01*
X4770170Y4470450D01*
X4783328Y4464253D01*
X4797196Y4459732D01*
X4811471Y4457039D01*
X4826000Y4456125D01*
X4840528Y4457039D01*
X4854803Y4459732D01*
X4868672Y4464253D01*
X4881829Y4470450D01*
X4894122Y4478223D01*
X4905349Y4487519D01*
X4915306Y4498136D01*
X4921402Y4506569D01*
X4924552Y4509363D01*
X4928565Y4510684D01*
X4932781Y4510227D01*
X4936439Y4508144D01*
X4938928Y4504690D01*
X4939792Y4500575D01*
X4939792Y4389424D01*
X4938928Y4385310D01*
X4936439Y4381855D01*
X4932781Y4379772D01*
X4928565Y4379315D01*
X4924552Y4380636D01*
X4921402Y4383430D01*
X4915306Y4391863D01*
X4905349Y4402480D01*
X4894122Y4411776D01*
X4881829Y4419549D01*
X4868672Y4425746D01*
X4854803Y4430268D01*
X4840528Y4432960D01*
X4826000Y4433874D01*
X4811471Y4432960D01*
X4797196Y4430268D01*
X4783328Y4425746D01*
X4770170Y4419549D01*
X4757877Y4411776D01*
X4746650Y4402480D01*
X4736693Y4391863D01*
X4728159Y4380077D01*
X4721148Y4367326D01*
X4715764Y4353814D01*
X4712157Y4339691D01*
X4710328Y4325264D01*
X4710328Y4310735D01*
X4712157Y4296308D01*
X4715764Y4282186D01*
X4721148Y4268673D01*
X4728159Y4255922D01*
X4736693Y4244136D01*
X4746650Y4233519D01*
X4757877Y4224223D01*
X4770170Y4216450D01*
X4783328Y4210253D01*
X4797196Y4205732D01*
X4811471Y4203039D01*
X4826000Y4202125D01*
X4840528Y4203039D01*
X4854803Y4205732D01*
X4868672Y4210253D01*
X4881829Y4216450D01*
X4894122Y4224223D01*
X4905349Y4233519D01*
X4915306Y4244136D01*
X4921402Y4252569D01*
X4924552Y4255363D01*
X4928565Y4256684D01*
X4932781Y4256227D01*
X4936439Y4254144D01*
X4938928Y4250690D01*
X4939792Y4246575D01*
X4939792Y4135424D01*
X4938928Y4131310D01*
X4936439Y4127855D01*
X4932781Y4125772D01*
X4928565Y4125315D01*
X4924552Y4126636D01*
X4921402Y4129430D01*
X4915306Y4137863D01*
X4905349Y4148480D01*
X4894122Y4157776D01*
X4881829Y4165549D01*
X4868672Y4171746D01*
X4854803Y4176268D01*
X4840528Y4178960D01*
X4826000Y4179874D01*
X4811471Y4178960D01*
X4797196Y4176268D01*
X4783328Y4171746D01*
X4770170Y4165549D01*
X4757877Y4157776D01*
X4746650Y4148480D01*
X4736693Y4137863D01*
X4728159Y4126077D01*
X4721148Y4113326D01*
X4715764Y4099814D01*
X4712157Y4085691D01*
X4710328Y4071264D01*
X4710328Y4056735D01*
X4712157Y4042308D01*
X4715764Y4028186D01*
X4721148Y4014673D01*
X4728159Y4001922D01*
X4736693Y3990136D01*
X4746650Y3979519D01*
X4757877Y3970223D01*
X4770170Y3962450D01*
X4783328Y3956253D01*
X4797196Y3951732D01*
X4811471Y3949039D01*
X4826000Y3948125D01*
X4840528Y3949039D01*
X4854803Y3951732D01*
X4868672Y3956253D01*
X4881829Y3962450D01*
X4894122Y3970223D01*
X4905349Y3979519D01*
X4915306Y3990136D01*
X4921402Y3998569D01*
X4924552Y4001363D01*
X4928565Y4002684D01*
X4932781Y4002227D01*
X4936439Y4000144D01*
X4938928Y3996690D01*
X4939792Y3992575D01*
X4939792Y3881424D01*
X4938928Y3877310D01*
X4936439Y3873855D01*
X4932781Y3871772D01*
X4928565Y3871315D01*
X4924552Y3872636D01*
X4921402Y3875430D01*
X4915306Y3883863D01*
X4905349Y3894480D01*
X4894122Y3903776D01*
X4881829Y3911549D01*
X4868672Y3917746D01*
X4854803Y3922268D01*
X4840528Y3924960D01*
X4826000Y3925874D01*
X4811471Y3924960D01*
X4797196Y3922268D01*
X4783328Y3917746D01*
X4770170Y3911549D01*
X4757877Y3903776D01*
X4746650Y3894480D01*
X4736693Y3883863D01*
X4728159Y3872077D01*
X4721148Y3859326D01*
X4715764Y3845814D01*
X4712157Y3831691D01*
X4710328Y3817264D01*
X4710328Y3802735D01*
X4712157Y3788308D01*
X4715764Y3774186D01*
X4721148Y3760673D01*
X4728159Y3747922D01*
X4736693Y3736136D01*
X4746650Y3725519D01*
X4757877Y3716223D01*
X4770170Y3708450D01*
X4783328Y3702253D01*
X4797196Y3697732D01*
X4811471Y3695039D01*
X4826000Y3694125D01*
X4840528Y3695039D01*
X4854803Y3697732D01*
X4868672Y3702253D01*
X4881829Y3708450D01*
X4894122Y3716223D01*
X4905349Y3725519D01*
X4915306Y3736136D01*
X4921402Y3744569D01*
X4924552Y3747363D01*
X4928565Y3748684D01*
X4932781Y3748227D01*
X4936439Y3746144D01*
X4938928Y3742690D01*
X4939792Y3738575D01*
X4939792Y3627424D01*
X4938928Y3623310D01*
X4936439Y3619855D01*
X4932781Y3617772D01*
X4928565Y3617315D01*
X4924552Y3618636D01*
X4921402Y3621430D01*
X4915306Y3629863D01*
X4905349Y3640480D01*
X4894122Y3649776D01*
X4881829Y3657549D01*
X4868672Y3663746D01*
X4854803Y3668268D01*
X4840528Y3670960D01*
X4826000Y3671874D01*
X4811471Y3670960D01*
X4797196Y3668268D01*
X4783328Y3663746D01*
X4770170Y3657549D01*
X4757877Y3649776D01*
X4746650Y3640480D01*
X4736693Y3629863D01*
X4728159Y3618077D01*
X4721148Y3605326D01*
X4715764Y3591814D01*
X4712157Y3577691D01*
X4710328Y3563264D01*
X4710328Y3548735D01*
X4712157Y3534308D01*
X4715764Y3520186D01*
X4721148Y3506673D01*
X4728159Y3493922D01*
X4736693Y3482136D01*
X4746650Y3471519D01*
X4757877Y3462223D01*
X4770170Y3454450D01*
X4783328Y3448253D01*
X4797196Y3443732D01*
X4811471Y3441039D01*
X4826000Y3440125D01*
X4840528Y3441039D01*
X4854803Y3443732D01*
X4868672Y3448253D01*
X4881829Y3454450D01*
X4894122Y3462223D01*
X4905349Y3471519D01*
X4915306Y3482136D01*
X4921402Y3490569D01*
X4924552Y3493363D01*
X4928565Y3494684D01*
X4932781Y3494227D01*
X4936439Y3492144D01*
X4938928Y3488690D01*
X4939792Y3484575D01*
X4939792Y3373424D01*
X4938928Y3369310D01*
X4936439Y3365855D01*
X4932781Y3363772D01*
X4928565Y3363315D01*
X4924552Y3364636D01*
X4921402Y3367430D01*
X4915306Y3375863D01*
X4905349Y3386480D01*
X4894122Y3395776D01*
X4881829Y3403549D01*
X4868672Y3409746D01*
X4854803Y3414268D01*
X4840528Y3416960D01*
X4826000Y3417874D01*
X4811471Y3416960D01*
X4797196Y3414268D01*
X4783328Y3409746D01*
X4770170Y3403549D01*
X4757877Y3395776D01*
X4746650Y3386480D01*
X4736693Y3375863D01*
X4728159Y3364077D01*
X4721148Y3351326D01*
X4715764Y3337814D01*
X4712157Y3323691D01*
X4710328Y3309264D01*
X4710328Y3294735D01*
X4712157Y3280308D01*
X4715764Y3266186D01*
X4721148Y3252673D01*
X4728159Y3239922D01*
X4736693Y3228136D01*
X4746650Y3217519D01*
X4757877Y3208223D01*
X4770170Y3200450D01*
X4783328Y3194253D01*
X4797196Y3189732D01*
X4811471Y3187039D01*
X4826000Y3186125D01*
X4840528Y3187039D01*
X4854803Y3189732D01*
X4868672Y3194253D01*
X4881829Y3200450D01*
X4894122Y3208223D01*
X4905349Y3217519D01*
X4915306Y3228136D01*
X4921402Y3236569D01*
X4924552Y3239363D01*
X4928565Y3240684D01*
X4932781Y3240227D01*
X4936439Y3238144D01*
X4938928Y3234690D01*
X4939792Y3230575D01*
X4939792Y3119424D01*
X4938928Y3115310D01*
X4936439Y3111855D01*
X4932781Y3109772D01*
X4928565Y3109315D01*
X4924552Y3110636D01*
X4921402Y3113430D01*
X4915306Y3121863D01*
X4905349Y3132480D01*
X4894122Y3141776D01*
X4881829Y3149549D01*
X4868672Y3155746D01*
X4854803Y3160268D01*
X4840528Y3162960D01*
X4826000Y3163874D01*
X4811471Y3162960D01*
X4797196Y3160268D01*
X4783328Y3155746D01*
X4770170Y3149549D01*
X4757877Y3141776D01*
X4746650Y3132480D01*
X4736693Y3121863D01*
X4728159Y3110077D01*
X4721148Y3097326D01*
X4715764Y3083814D01*
X4712157Y3069691D01*
X4710328Y3055264D01*
X4710328Y3040735D01*
X4712157Y3026308D01*
X4715764Y3012186D01*
X4721148Y2998673D01*
X4728159Y2985922D01*
X4736693Y2974136D01*
X4746650Y2963519D01*
X4757877Y2954223D01*
X4770170Y2946450D01*
X4783328Y2940253D01*
X4797196Y2935732D01*
X4811471Y2933039D01*
X4826000Y2932125D01*
X4840528Y2933039D01*
X4854803Y2935732D01*
X4868672Y2940253D01*
X4881829Y2946450D01*
X4894122Y2954223D01*
X4905349Y2963519D01*
X4915306Y2974136D01*
X4921402Y2982569D01*
X4924552Y2985363D01*
X4928565Y2986684D01*
X4932781Y2986227D01*
X4936439Y2984144D01*
X4938928Y2980690D01*
X4939792Y2976575D01*
X4939792Y2865424D01*
X4938928Y2861310D01*
X4936439Y2857855D01*
X4932781Y2855772D01*
X4928565Y2855315D01*
X4924552Y2856636D01*
X4921402Y2859430D01*
X4915306Y2867863D01*
X4905349Y2878480D01*
X4894122Y2887776D01*
X4881829Y2895549D01*
X4868672Y2901746D01*
X4854803Y2906268D01*
X4840528Y2908960D01*
X4826000Y2909874D01*
X4811471Y2908960D01*
X4797196Y2906268D01*
X4783328Y2901746D01*
X4770170Y2895549D01*
X4757877Y2887776D01*
X4746650Y2878480D01*
X4736693Y2867863D01*
X4728159Y2856077D01*
X4721148Y2843326D01*
X4715764Y2829814D01*
X4712157Y2815691D01*
X4710328Y2801264D01*
X4710328Y2786735D01*
X4712157Y2772308D01*
X4715764Y2758186D01*
X4721148Y2744673D01*
X4728159Y2731922D01*
X4736693Y2720136D01*
X4746650Y2709519D01*
X4757877Y2700223D01*
X4770170Y2692450D01*
X4783328Y2686253D01*
X4797196Y2681732D01*
X4811471Y2679039D01*
X4826000Y2678125D01*
X4840528Y2679039D01*
X4854803Y2681732D01*
X4868672Y2686253D01*
X4881829Y2692450D01*
X4894122Y2700223D01*
X4905349Y2709519D01*
X4915306Y2720136D01*
X4921402Y2728569D01*
X4924552Y2731363D01*
X4928565Y2732684D01*
X4932781Y2732227D01*
X4936439Y2730144D01*
X4938928Y2726690D01*
X4939792Y2722575D01*
X4939792Y1010208D01*
X4939030Y1006297D01*
X4936794Y1002995D01*
X4935220Y1001420D01*
X4929581Y993394D01*
X4925466Y984453D01*
X4922926Y975004D01*
X4922062Y965200D01*
X4922926Y955395D01*
X4925466Y945946D01*
X4929581Y937006D01*
X4935220Y928979D01*
X4942179Y922019D01*
X4950206Y916381D01*
X4959146Y912266D01*
X4968595Y909726D01*
X4978400Y908862D01*
X4988204Y909726D01*
X4997653Y912266D01*
X5006594Y916381D01*
X5014620Y922019D01*
X5021580Y928979D01*
X5027218Y937006D01*
X5031333Y945946D01*
X5033873Y955395D01*
X5034229Y959053D01*
X5035550Y963218D01*
X5037328Y965200D01*
X5035550Y967181D01*
X5034229Y971346D01*
X5033873Y975004D01*
X5031333Y984453D01*
X5027218Y993394D01*
X5021580Y1001420D01*
X5020005Y1002995D01*
X5017770Y1006297D01*
X5017008Y1010208D01*
X5017008Y3388868D01*
X5017922Y3393033D01*
X5020411Y3396437D01*
X5024120Y3398570D01*
X5028336Y3398977D01*
X5032400Y3397605D01*
X5035499Y3394710D01*
X5036820Y3392779D01*
X5043779Y3385820D01*
X5051806Y3380181D01*
X5060746Y3376066D01*
X5070195Y3373526D01*
X5080000Y3372662D01*
X5089804Y3373526D01*
X5092090Y3374136D01*
X5095798Y3374440D01*
X5099354Y3373374D01*
X5102301Y3371087D01*
X5104231Y3367938D01*
X5104892Y3364331D01*
X5104892Y2966008D01*
X5104130Y2962097D01*
X5101894Y2958795D01*
X5100320Y2957220D01*
X5094681Y2949194D01*
X5090566Y2940253D01*
X5088026Y2930804D01*
X5087162Y2921000D01*
X5088026Y2911195D01*
X5090566Y2901746D01*
X5094681Y2892806D01*
X5100320Y2884779D01*
X5107279Y2877820D01*
X5115306Y2872181D01*
X5124754Y2867812D01*
X5126837Y2866440D01*
X5131104Y2866186D01*
X5133695Y2865526D01*
X5143500Y2864662D01*
X5153304Y2865526D01*
X5155590Y2866136D01*
X5159298Y2866440D01*
X5162854Y2865374D01*
X5165801Y2863088D01*
X5167731Y2859938D01*
X5168392Y2856331D01*
X5168392Y2834132D01*
X5167477Y2829966D01*
X5164988Y2826562D01*
X5161280Y2824429D01*
X5157063Y2824022D01*
X5152999Y2825394D01*
X5149900Y2828290D01*
X5148580Y2830220D01*
X5141620Y2837180D01*
X5133594Y2842818D01*
X5124145Y2847187D01*
X5122062Y2848559D01*
X5117795Y2848762D01*
X5115204Y2849473D01*
X5105400Y2850337D01*
X5095595Y2849473D01*
X5086146Y2846933D01*
X5077206Y2842818D01*
X5069179Y2837180D01*
X5062220Y2830220D01*
X5056581Y2822194D01*
X5052466Y2813253D01*
X5049926Y2803804D01*
X5049062Y2794000D01*
X5049926Y2784195D01*
X5052466Y2774746D01*
X5053533Y2772410D01*
X5054498Y2768092D01*
X5054498Y1718818D01*
X5053533Y1714500D01*
X5052466Y1712163D01*
X5049926Y1702714D01*
X5049062Y1692910D01*
X5049926Y1683105D01*
X5052466Y1673656D01*
X5053533Y1671320D01*
X5054498Y1667002D01*
X5054498Y972261D01*
X5053533Y967943D01*
X5051450Y965200D01*
X5053533Y962456D01*
X5054498Y958138D01*
X5054498Y787908D01*
X5053533Y783590D01*
X5052466Y781253D01*
X5049926Y771804D01*
X5049062Y762000D01*
X5049926Y752195D01*
X5052466Y742746D01*
X5056581Y733806D01*
X5062220Y725779D01*
X5069179Y718820D01*
X5077206Y713181D01*
X5086146Y709066D01*
X5095595Y706526D01*
G37*
G36*
X5334000Y900125D02*
G01*
X5348528Y901039D01*
X5362803Y903732D01*
X5376672Y908253D01*
X5389829Y914450D01*
X5402122Y922223D01*
X5413349Y931519D01*
X5423306Y942136D01*
X5431840Y953922D01*
X5438851Y966673D01*
X5444236Y980186D01*
X5447842Y994308D01*
X5449671Y1008735D01*
X5449671Y1023264D01*
X5447842Y1037691D01*
X5444236Y1051814D01*
X5438851Y1065326D01*
X5431840Y1078077D01*
X5423306Y1089863D01*
X5413349Y1100480D01*
X5402122Y1109776D01*
X5389829Y1117549D01*
X5376672Y1123746D01*
X5362803Y1128268D01*
X5348528Y1130960D01*
X5334000Y1131874D01*
X5319471Y1130960D01*
X5305196Y1128268D01*
X5291328Y1123746D01*
X5278170Y1117549D01*
X5265877Y1109776D01*
X5254650Y1100480D01*
X5244693Y1089863D01*
X5236159Y1078077D01*
X5229148Y1065326D01*
X5223764Y1051814D01*
X5220157Y1037691D01*
X5218328Y1023264D01*
X5218328Y1008735D01*
X5220157Y994308D01*
X5223764Y980186D01*
X5229148Y966673D01*
X5236159Y953922D01*
X5244693Y942136D01*
X5254650Y931519D01*
X5265877Y922223D01*
X5278170Y914450D01*
X5291328Y908253D01*
X5305196Y903732D01*
X5319471Y901039D01*
G37*
G36*
X5346700Y1154887D02*
G01*
X5348528Y1155039D01*
X5362803Y1157732D01*
X5376672Y1162253D01*
X5389829Y1168450D01*
X5402122Y1176223D01*
X5413349Y1185519D01*
X5423306Y1196136D01*
X5431840Y1207922D01*
X5438851Y1220673D01*
X5444236Y1234186D01*
X5447842Y1248308D01*
X5448960Y1257300D01*
X5346700Y1257300D01*
G37*
G36*
X5321300Y1154887D02*
G01*
X5321300Y1257300D01*
X5219039Y1257300D01*
X5220157Y1248308D01*
X5223764Y1234186D01*
X5229148Y1220673D01*
X5236159Y1207922D01*
X5244693Y1196136D01*
X5254650Y1185519D01*
X5265877Y1176223D01*
X5278170Y1168450D01*
X5291328Y1162253D01*
X5305196Y1157732D01*
X5319471Y1155039D01*
G37*
G36*
X5600700Y1154887D02*
G01*
X5602528Y1155039D01*
X5616803Y1157732D01*
X5630672Y1162253D01*
X5643829Y1168450D01*
X5656122Y1176223D01*
X5667349Y1185519D01*
X5677306Y1196136D01*
X5685840Y1207922D01*
X5692851Y1220673D01*
X5698236Y1234186D01*
X5701842Y1248308D01*
X5702960Y1257300D01*
X5600700Y1257300D01*
G37*
G36*
X5575300Y1154887D02*
G01*
X5575300Y1257300D01*
X5473039Y1257300D01*
X5474157Y1248308D01*
X5477764Y1234186D01*
X5483148Y1220673D01*
X5490159Y1207922D01*
X5498693Y1196136D01*
X5508650Y1185519D01*
X5519877Y1176223D01*
X5532170Y1168450D01*
X5545328Y1162253D01*
X5559196Y1157732D01*
X5573471Y1155039D01*
G37*
G36*
X5346700Y1282700D02*
G01*
X5448960Y1282700D01*
X5447842Y1291691D01*
X5444236Y1305814D01*
X5438851Y1319326D01*
X5431840Y1332077D01*
X5423306Y1343863D01*
X5413349Y1354480D01*
X5402122Y1363776D01*
X5389829Y1371549D01*
X5376672Y1377746D01*
X5362803Y1382268D01*
X5348528Y1384960D01*
X5346700Y1385112D01*
G37*
G36*
X5219039Y1282700D02*
G01*
X5321300Y1282700D01*
X5321300Y1385112D01*
X5319471Y1384960D01*
X5305196Y1382268D01*
X5291328Y1377746D01*
X5278170Y1371549D01*
X5265877Y1363776D01*
X5254650Y1354480D01*
X5244693Y1343863D01*
X5236159Y1332077D01*
X5229148Y1319326D01*
X5223764Y1305814D01*
X5220157Y1291691D01*
G37*
G36*
X5473039Y1282700D02*
G01*
X5575300Y1282700D01*
X5575300Y1385112D01*
X5573471Y1384960D01*
X5559196Y1382268D01*
X5545328Y1377746D01*
X5532170Y1371549D01*
X5519877Y1363776D01*
X5508650Y1354480D01*
X5498693Y1343863D01*
X5490159Y1332077D01*
X5483148Y1319326D01*
X5477764Y1305814D01*
X5474157Y1291691D01*
G37*
G36*
X5600700Y1282700D02*
G01*
X5702960Y1282700D01*
X5701842Y1291691D01*
X5698236Y1305814D01*
X5692851Y1319326D01*
X5685840Y1332077D01*
X5677306Y1343863D01*
X5667349Y1354480D01*
X5656122Y1363776D01*
X5643829Y1371549D01*
X5630672Y1377746D01*
X5616803Y1382268D01*
X5602528Y1384960D01*
X5600700Y1385112D01*
G37*
G36*
X1998065Y1932990D02*
G01*
X2003298Y1932990D01*
X2003298Y2019300D01*
X1899564Y2019300D01*
X1902104Y2006396D01*
X1906270Y1994103D01*
X1912010Y1982520D01*
X1919173Y1971751D01*
X1927707Y1961997D01*
X1937461Y1953463D01*
X1948230Y1946300D01*
X1959864Y1940560D01*
X1972106Y1936394D01*
X1984806Y1933854D01*
G37*
G36*
X2028698Y1932990D02*
G01*
X2033930Y1932990D01*
X2047189Y1933854D01*
X2059889Y1936394D01*
X2072132Y1940560D01*
X2083765Y1946300D01*
X2094534Y1953463D01*
X2104288Y1961997D01*
X2112822Y1971751D01*
X2119985Y1982520D01*
X2125726Y1994103D01*
X2129891Y2006396D01*
X2132431Y2019300D01*
X2028698Y2019300D01*
G37*
G36*
X2405176Y5517083D02*
G01*
X2431897Y5517083D01*
X2431897Y5575300D01*
X2378710Y5575300D01*
X2378710Y5543550D01*
X2379421Y5537250D01*
X2381300Y5531764D01*
X2384399Y5526887D01*
X2388514Y5522772D01*
X2393391Y5519724D01*
X2398877Y5517794D01*
G37*
G36*
X2794000Y5482082D02*
G01*
X2807817Y5482996D01*
X2821432Y5485688D01*
X2834538Y5490159D01*
X2846933Y5496306D01*
X2858465Y5503976D01*
X2868879Y5513120D01*
X2878023Y5523534D01*
X2885694Y5535066D01*
X2891840Y5547461D01*
X2896311Y5560568D01*
X2899003Y5574182D01*
X2899918Y5588000D01*
X2899003Y5601817D01*
X2896311Y5615432D01*
X2891840Y5628538D01*
X2885694Y5640933D01*
X2878023Y5652465D01*
X2868879Y5662879D01*
X2858465Y5672023D01*
X2846933Y5679694D01*
X2834538Y5685840D01*
X2821432Y5690311D01*
X2807817Y5693003D01*
X2794000Y5693918D01*
X2780182Y5693003D01*
X2766568Y5690311D01*
X2753461Y5685840D01*
X2741066Y5679694D01*
X2729534Y5672023D01*
X2719120Y5662879D01*
X2709976Y5652465D01*
X2703931Y5643422D01*
X2701696Y5640984D01*
X2698750Y5639460D01*
X2695498Y5638901D01*
X2656840Y5638901D01*
X2653487Y5639460D01*
X2650490Y5641136D01*
X2648204Y5643676D01*
X2644800Y5649112D01*
X2640685Y5653227D01*
X2635808Y5656275D01*
X2630322Y5658205D01*
X2624023Y5658916D01*
X2545181Y5658916D01*
X2538831Y5658205D01*
X2533396Y5656275D01*
X2528468Y5653227D01*
X2524404Y5649112D01*
X2523185Y5647232D01*
X2520391Y5644286D01*
X2516632Y5642660D01*
X2512568Y5642660D01*
X2508808Y5644286D01*
X2506014Y5647232D01*
X2504795Y5649112D01*
X2500731Y5653227D01*
X2495804Y5656275D01*
X2490368Y5658205D01*
X2484018Y5658916D01*
X2457297Y5658916D01*
X2457297Y5600700D01*
X2508504Y5600700D01*
X2512415Y5599938D01*
X2515717Y5597702D01*
X2517902Y5594451D01*
X2518664Y5590540D01*
X2518664Y5585460D01*
X2517902Y5581548D01*
X2515717Y5578297D01*
X2512415Y5576062D01*
X2508504Y5575300D01*
X2457297Y5575300D01*
X2457297Y5517083D01*
X2484018Y5517083D01*
X2490368Y5517794D01*
X2495804Y5519724D01*
X2500731Y5522772D01*
X2504795Y5526887D01*
X2506014Y5528767D01*
X2508808Y5531713D01*
X2512568Y5533339D01*
X2516632Y5533339D01*
X2520391Y5531713D01*
X2523185Y5528767D01*
X2524404Y5526887D01*
X2528468Y5522772D01*
X2533396Y5519724D01*
X2538831Y5517794D01*
X2545181Y5517083D01*
X2624023Y5517083D01*
X2630322Y5517794D01*
X2635808Y5519724D01*
X2640685Y5522772D01*
X2644800Y5526887D01*
X2648204Y5532323D01*
X2650490Y5534863D01*
X2653487Y5536539D01*
X2656840Y5537098D01*
X2695498Y5537098D01*
X2698750Y5536539D01*
X2701696Y5535015D01*
X2703931Y5532577D01*
X2709976Y5523534D01*
X2719120Y5513120D01*
X2729534Y5503976D01*
X2741066Y5496306D01*
X2753461Y5490159D01*
X2766568Y5485688D01*
X2780182Y5482996D01*
G37*
G36*
X1899564Y2044700D02*
G01*
X2003298Y2044700D01*
X2003298Y2131009D01*
X1998065Y2131009D01*
X1984806Y2130145D01*
X1972106Y2127605D01*
X1959864Y2123440D01*
X1948230Y2117750D01*
X1937461Y2110536D01*
X1927707Y2102002D01*
X1919173Y2092248D01*
X1912010Y2081479D01*
X1906270Y2069896D01*
X1902104Y2057603D01*
G37*
G36*
X2028698Y2044700D02*
G01*
X2132431Y2044700D01*
X2129891Y2057603D01*
X2125726Y2069896D01*
X2119985Y2081479D01*
X2112822Y2092248D01*
X2104288Y2102002D01*
X2094534Y2110536D01*
X2083765Y2117750D01*
X2072132Y2123440D01*
X2059889Y2127605D01*
X2047189Y2130145D01*
X2033930Y2131009D01*
X2028698Y2131009D01*
G37*
G36*
X1952548Y5482082D02*
G01*
X2111451Y5482082D01*
X2117750Y5482793D01*
X2123236Y5484723D01*
X2128113Y5487771D01*
X2132228Y5491886D01*
X2135276Y5496763D01*
X2137206Y5502249D01*
X2137918Y5508548D01*
X2137918Y5667451D01*
X2137206Y5673750D01*
X2135276Y5679236D01*
X2132228Y5684113D01*
X2128113Y5688228D01*
X2123236Y5691276D01*
X2117750Y5693206D01*
X2111451Y5693918D01*
X1952548Y5693918D01*
X1946249Y5693206D01*
X1940763Y5691276D01*
X1935886Y5688228D01*
X1931771Y5684113D01*
X1928723Y5679236D01*
X1926793Y5673750D01*
X1926082Y5667451D01*
X1926082Y5508548D01*
X1926793Y5502249D01*
X1928723Y5496763D01*
X1931771Y5491886D01*
X1935886Y5487771D01*
X1940763Y5484723D01*
X1946249Y5482793D01*
G37*
G36*
X393700Y5473700D02*
G01*
X656590Y5473700D01*
X654710Y5495594D01*
X650849Y5518353D01*
X645109Y5540756D01*
X637540Y5562549D01*
X628142Y5583682D01*
X617016Y5603900D01*
X604215Y5623153D01*
X589838Y5641289D01*
X574040Y5658104D01*
X556869Y5673598D01*
X538480Y5687568D01*
X518972Y5699912D01*
X498500Y5710631D01*
X477164Y5719572D01*
X455218Y5726734D01*
X432714Y5732018D01*
X409854Y5735370D01*
X393700Y5736386D01*
G37*
G36*
X1998065Y2186990D02*
G01*
X2033930Y2186990D01*
X2047189Y2187854D01*
X2059889Y2190394D01*
X2072132Y2194560D01*
X2083765Y2200300D01*
X2094534Y2207463D01*
X2104288Y2215997D01*
X2112822Y2225751D01*
X2119985Y2236520D01*
X2125726Y2248103D01*
X2129891Y2260396D01*
X2132431Y2273096D01*
X2133244Y2286000D01*
X2132431Y2298903D01*
X2129891Y2311603D01*
X2125726Y2323896D01*
X2119985Y2335479D01*
X2112822Y2346248D01*
X2104288Y2356002D01*
X2094534Y2364536D01*
X2083765Y2371750D01*
X2072132Y2377440D01*
X2059889Y2381605D01*
X2047189Y2384145D01*
X2033930Y2385009D01*
X1998065Y2385009D01*
X1984806Y2384145D01*
X1972106Y2381605D01*
X1959864Y2377440D01*
X1948230Y2371750D01*
X1937461Y2364536D01*
X1927707Y2356002D01*
X1919173Y2346248D01*
X1912010Y2335479D01*
X1906270Y2323896D01*
X1902104Y2311603D01*
X1899564Y2298903D01*
X1898751Y2286000D01*
X1899564Y2273096D01*
X1902104Y2260396D01*
X1906270Y2248103D01*
X1912010Y2236520D01*
X1919173Y2225751D01*
X1927707Y2215997D01*
X1937461Y2207463D01*
X1948230Y2200300D01*
X1959864Y2194560D01*
X1972106Y2190394D01*
X1984806Y2187854D01*
G37*
G36*
X4572000Y2438755D02*
G01*
X4586274Y2441549D01*
X4599178Y2446020D01*
X4611319Y2452166D01*
X4622546Y2459888D01*
X4632706Y2469032D01*
X4641494Y2479446D01*
X4648809Y2490927D01*
X4654550Y2503322D01*
X4658614Y2516327D01*
X4660442Y2527300D01*
X4572000Y2527300D01*
G37*
G36*
X4546600Y2438755D02*
G01*
X4546600Y2527300D01*
X4458157Y2527300D01*
X4459986Y2516327D01*
X4464050Y2503322D01*
X4469790Y2490927D01*
X4477105Y2479446D01*
X4485894Y2469032D01*
X4496054Y2459888D01*
X4507280Y2452166D01*
X4519422Y2446020D01*
X4532325Y2441549D01*
G37*
G36*
X1998065Y2440990D02*
G01*
X2033930Y2440990D01*
X2047189Y2441854D01*
X2059889Y2444394D01*
X2072132Y2448560D01*
X2083765Y2454300D01*
X2094534Y2461463D01*
X2104288Y2469997D01*
X2112822Y2479751D01*
X2119985Y2490520D01*
X2125726Y2502103D01*
X2129891Y2514396D01*
X2132431Y2527096D01*
X2133244Y2540000D01*
X2132431Y2552903D01*
X2129891Y2565603D01*
X2125726Y2577896D01*
X2119985Y2589479D01*
X2112822Y2600248D01*
X2104288Y2610002D01*
X2094534Y2618536D01*
X2083765Y2625699D01*
X2072132Y2631440D01*
X2059889Y2635605D01*
X2047189Y2638145D01*
X2033930Y2639009D01*
X1998065Y2639009D01*
X1984806Y2638145D01*
X1972106Y2635605D01*
X1959864Y2631440D01*
X1948230Y2625699D01*
X1937461Y2618536D01*
X1927707Y2610002D01*
X1919173Y2600248D01*
X1912010Y2589479D01*
X1906270Y2577896D01*
X1902104Y2565603D01*
X1899564Y2552903D01*
X1898751Y2540000D01*
X1899564Y2527096D01*
X1902104Y2514396D01*
X1906270Y2502103D01*
X1912010Y2490520D01*
X1919173Y2479751D01*
X1927707Y2469997D01*
X1937461Y2461463D01*
X1948230Y2454300D01*
X1959864Y2448560D01*
X1972106Y2444394D01*
X1984806Y2441854D01*
G37*
G36*
X4572000Y2552700D02*
G01*
X4660392Y2552700D01*
X4659985Y2556967D01*
X4656785Y2570226D01*
X4651908Y2582976D01*
X4645355Y2594914D01*
X4637278Y2605887D01*
X4627778Y2615692D01*
X4617059Y2624175D01*
X4605324Y2631135D01*
X4592777Y2636418D01*
X4579620Y2640025D01*
X4572000Y2641041D01*
G37*
G36*
X4458208Y2552700D02*
G01*
X4546600Y2552700D01*
X4546600Y2641041D01*
X4538980Y2640025D01*
X4525822Y2636418D01*
X4513275Y2631135D01*
X4501540Y2624175D01*
X4490821Y2615692D01*
X4481322Y2605887D01*
X4473244Y2594914D01*
X4466691Y2582976D01*
X4461814Y2570226D01*
X4458614Y2556967D01*
G37*
G36*
X1181100Y2624632D02*
G01*
X1194917Y2625496D01*
X1208481Y2628239D01*
X1221638Y2632659D01*
X1234033Y2638806D01*
X1245565Y2646476D01*
X1255979Y2655620D01*
X1265123Y2666034D01*
X1272794Y2677566D01*
X1278940Y2689961D01*
X1283360Y2703118D01*
X1286103Y2716682D01*
X1286967Y2730500D01*
X1286103Y2744317D01*
X1283360Y2757881D01*
X1278940Y2771038D01*
X1272794Y2783433D01*
X1265123Y2794965D01*
X1255979Y2805379D01*
X1245565Y2814523D01*
X1234033Y2822194D01*
X1221638Y2828340D01*
X1208481Y2832760D01*
X1194917Y2835503D01*
X1181100Y2836367D01*
X1167282Y2835503D01*
X1153718Y2832760D01*
X1140561Y2828340D01*
X1128166Y2822194D01*
X1116634Y2814523D01*
X1106220Y2805379D01*
X1097076Y2794965D01*
X1089406Y2783433D01*
X1083259Y2771038D01*
X1078839Y2757881D01*
X1076096Y2744317D01*
X1075232Y2730500D01*
X1076096Y2716682D01*
X1078839Y2703118D01*
X1083259Y2689961D01*
X1089406Y2677566D01*
X1097076Y2666034D01*
X1106220Y2655620D01*
X1116634Y2646476D01*
X1128166Y2638806D01*
X1140561Y2632659D01*
X1153718Y2628239D01*
X1167282Y2625496D01*
G37*
G36*
X5588000Y2678125D02*
G01*
X5602528Y2679039D01*
X5616803Y2681732D01*
X5630672Y2686253D01*
X5643829Y2692450D01*
X5656122Y2700223D01*
X5667349Y2709519D01*
X5677306Y2720136D01*
X5685840Y2731922D01*
X5692851Y2744673D01*
X5698236Y2758186D01*
X5701842Y2772308D01*
X5703671Y2786735D01*
X5703671Y2801264D01*
X5701842Y2815691D01*
X5698236Y2829814D01*
X5692851Y2843326D01*
X5685840Y2856077D01*
X5677306Y2867863D01*
X5667349Y2878480D01*
X5656122Y2887776D01*
X5643626Y2895701D01*
X5641086Y2897936D01*
X5639460Y2900934D01*
X5638901Y2904286D01*
X5638901Y2937713D01*
X5639460Y2941066D01*
X5641086Y2944063D01*
X5643626Y2946298D01*
X5656122Y2954223D01*
X5667349Y2963519D01*
X5677306Y2974136D01*
X5685840Y2985922D01*
X5692851Y2998673D01*
X5698236Y3012186D01*
X5701842Y3026308D01*
X5703671Y3040735D01*
X5703671Y3055264D01*
X5701842Y3069691D01*
X5698236Y3083814D01*
X5692851Y3097326D01*
X5685840Y3110077D01*
X5677306Y3121863D01*
X5667349Y3132480D01*
X5656122Y3141776D01*
X5643626Y3149701D01*
X5641086Y3151936D01*
X5639460Y3154934D01*
X5638901Y3158286D01*
X5638901Y3191713D01*
X5639460Y3195066D01*
X5641086Y3198063D01*
X5643626Y3200298D01*
X5656122Y3208223D01*
X5667349Y3217519D01*
X5677306Y3228136D01*
X5685840Y3239922D01*
X5692851Y3252673D01*
X5698236Y3266186D01*
X5701842Y3280308D01*
X5703671Y3294735D01*
X5703671Y3309264D01*
X5701842Y3323691D01*
X5698236Y3337814D01*
X5692851Y3351326D01*
X5685840Y3364077D01*
X5677306Y3375863D01*
X5667349Y3386480D01*
X5656122Y3395776D01*
X5643626Y3403701D01*
X5641086Y3405936D01*
X5639460Y3408934D01*
X5638901Y3412286D01*
X5638901Y3445713D01*
X5639460Y3449065D01*
X5641086Y3452063D01*
X5643626Y3454298D01*
X5656122Y3462223D01*
X5667349Y3471519D01*
X5677306Y3482136D01*
X5685840Y3493922D01*
X5692851Y3506673D01*
X5698236Y3520186D01*
X5701842Y3534308D01*
X5703671Y3548735D01*
X5703671Y3563264D01*
X5701842Y3577691D01*
X5698236Y3591814D01*
X5692851Y3605326D01*
X5685840Y3618077D01*
X5677306Y3629863D01*
X5667349Y3640480D01*
X5656122Y3649776D01*
X5643626Y3657701D01*
X5641086Y3659936D01*
X5639460Y3662934D01*
X5638901Y3666286D01*
X5638901Y3699713D01*
X5639460Y3703065D01*
X5641086Y3706063D01*
X5643626Y3708298D01*
X5656122Y3716223D01*
X5667349Y3725519D01*
X5677306Y3736136D01*
X5685840Y3747922D01*
X5692851Y3760673D01*
X5698236Y3774186D01*
X5701842Y3788308D01*
X5703671Y3802735D01*
X5703671Y3817264D01*
X5701842Y3831691D01*
X5698236Y3845814D01*
X5692851Y3859326D01*
X5685840Y3872077D01*
X5677306Y3883863D01*
X5667349Y3894480D01*
X5656122Y3903776D01*
X5643626Y3911701D01*
X5641086Y3913936D01*
X5639460Y3916934D01*
X5638901Y3920286D01*
X5638901Y3953713D01*
X5639460Y3957065D01*
X5641086Y3960063D01*
X5643626Y3962298D01*
X5656122Y3970223D01*
X5667349Y3979519D01*
X5677306Y3990136D01*
X5685840Y4001922D01*
X5692851Y4014673D01*
X5698236Y4028186D01*
X5701842Y4042308D01*
X5703671Y4056735D01*
X5703671Y4071264D01*
X5701842Y4085691D01*
X5698236Y4099814D01*
X5692851Y4113326D01*
X5685840Y4126077D01*
X5677306Y4137863D01*
X5667349Y4148480D01*
X5656122Y4157776D01*
X5643626Y4165701D01*
X5641086Y4167936D01*
X5639460Y4170934D01*
X5638901Y4174286D01*
X5638901Y4207713D01*
X5639460Y4211066D01*
X5641086Y4214063D01*
X5643626Y4216298D01*
X5656122Y4224223D01*
X5667349Y4233519D01*
X5677306Y4244136D01*
X5685840Y4255922D01*
X5692851Y4268673D01*
X5698236Y4282186D01*
X5701842Y4296308D01*
X5703671Y4310735D01*
X5703671Y4325264D01*
X5701842Y4339691D01*
X5698236Y4353814D01*
X5692851Y4367326D01*
X5685840Y4380077D01*
X5677306Y4391863D01*
X5667349Y4402480D01*
X5656122Y4411776D01*
X5643626Y4419701D01*
X5641086Y4421936D01*
X5639460Y4424934D01*
X5638901Y4428286D01*
X5638901Y4461713D01*
X5639460Y4465066D01*
X5641086Y4468063D01*
X5643626Y4470298D01*
X5656122Y4478223D01*
X5667349Y4487519D01*
X5677306Y4498136D01*
X5685840Y4509922D01*
X5692851Y4522673D01*
X5698236Y4536186D01*
X5701842Y4550308D01*
X5703671Y4564735D01*
X5703671Y4579264D01*
X5701842Y4593691D01*
X5698236Y4607814D01*
X5692851Y4621326D01*
X5685840Y4634077D01*
X5677306Y4645863D01*
X5667349Y4656480D01*
X5656122Y4665776D01*
X5643626Y4673701D01*
X5641086Y4675936D01*
X5639460Y4678934D01*
X5638901Y4682286D01*
X5638901Y5092192D01*
X5639866Y5096510D01*
X5640933Y5098846D01*
X5643473Y5108295D01*
X5644337Y5118100D01*
X5643473Y5127904D01*
X5640933Y5137353D01*
X5636818Y5146294D01*
X5631180Y5154320D01*
X5624220Y5161280D01*
X5616194Y5166918D01*
X5607253Y5171033D01*
X5597804Y5173573D01*
X5588000Y5174437D01*
X5578195Y5173573D01*
X5568746Y5171033D01*
X5559806Y5166918D01*
X5551779Y5161280D01*
X5544820Y5154320D01*
X5539181Y5146294D01*
X5535066Y5137353D01*
X5532526Y5127904D01*
X5531662Y5118100D01*
X5532526Y5108295D01*
X5535066Y5098846D01*
X5536133Y5096510D01*
X5537098Y5092192D01*
X5537098Y4682286D01*
X5536539Y4678934D01*
X5534914Y4675936D01*
X5532374Y4673701D01*
X5519877Y4665776D01*
X5508650Y4656480D01*
X5498693Y4645863D01*
X5490159Y4634077D01*
X5483148Y4621326D01*
X5477764Y4607814D01*
X5474157Y4593691D01*
X5472328Y4579264D01*
X5472328Y4564735D01*
X5474157Y4550308D01*
X5477764Y4536186D01*
X5483148Y4522673D01*
X5490159Y4509922D01*
X5498693Y4498136D01*
X5508650Y4487519D01*
X5519877Y4478223D01*
X5532374Y4470298D01*
X5534914Y4468063D01*
X5536539Y4465066D01*
X5537098Y4461713D01*
X5537098Y4428286D01*
X5536539Y4424934D01*
X5534914Y4421936D01*
X5532374Y4419701D01*
X5519877Y4411776D01*
X5508650Y4402480D01*
X5498693Y4391863D01*
X5490159Y4380077D01*
X5483148Y4367326D01*
X5477764Y4353814D01*
X5474157Y4339691D01*
X5472328Y4325264D01*
X5472328Y4310735D01*
X5474157Y4296308D01*
X5477764Y4282186D01*
X5483148Y4268673D01*
X5490159Y4255922D01*
X5498693Y4244136D01*
X5508650Y4233519D01*
X5519877Y4224223D01*
X5532374Y4216298D01*
X5534914Y4214063D01*
X5536539Y4211066D01*
X5537098Y4207713D01*
X5537098Y4174286D01*
X5536539Y4170934D01*
X5534914Y4167936D01*
X5532374Y4165701D01*
X5519877Y4157776D01*
X5508650Y4148480D01*
X5498693Y4137863D01*
X5490159Y4126077D01*
X5483148Y4113326D01*
X5477764Y4099814D01*
X5474157Y4085691D01*
X5472328Y4071264D01*
X5472328Y4056735D01*
X5474157Y4042308D01*
X5477764Y4028186D01*
X5483148Y4014673D01*
X5490159Y4001922D01*
X5498693Y3990136D01*
X5508650Y3979519D01*
X5519877Y3970223D01*
X5532374Y3962298D01*
X5534914Y3960063D01*
X5536539Y3957065D01*
X5537098Y3953713D01*
X5537098Y3920286D01*
X5536539Y3916934D01*
X5534914Y3913936D01*
X5532374Y3911701D01*
X5519877Y3903776D01*
X5508650Y3894480D01*
X5498693Y3883863D01*
X5490159Y3872077D01*
X5483148Y3859326D01*
X5477764Y3845814D01*
X5474157Y3831691D01*
X5472328Y3817264D01*
X5472328Y3802735D01*
X5474157Y3788308D01*
X5477764Y3774186D01*
X5483148Y3760673D01*
X5490159Y3747922D01*
X5498693Y3736136D01*
X5508650Y3725519D01*
X5519877Y3716223D01*
X5532374Y3708298D01*
X5534914Y3706063D01*
X5536539Y3703065D01*
X5537098Y3699713D01*
X5537098Y3666286D01*
X5536539Y3662934D01*
X5534914Y3659936D01*
X5532374Y3657701D01*
X5519877Y3649776D01*
X5508650Y3640480D01*
X5498693Y3629863D01*
X5490159Y3618077D01*
X5483148Y3605326D01*
X5477764Y3591814D01*
X5474157Y3577691D01*
X5472328Y3563264D01*
X5472328Y3548735D01*
X5474157Y3534308D01*
X5477764Y3520186D01*
X5483148Y3506673D01*
X5490159Y3493922D01*
X5498693Y3482136D01*
X5508650Y3471519D01*
X5519877Y3462223D01*
X5532374Y3454298D01*
X5534914Y3452063D01*
X5536539Y3449065D01*
X5537098Y3445713D01*
X5537098Y3412286D01*
X5536539Y3408934D01*
X5534914Y3405936D01*
X5532374Y3403701D01*
X5519877Y3395776D01*
X5508650Y3386480D01*
X5498693Y3375863D01*
X5490159Y3364077D01*
X5483148Y3351326D01*
X5477764Y3337814D01*
X5474157Y3323691D01*
X5472328Y3309264D01*
X5472328Y3294735D01*
X5474157Y3280308D01*
X5477764Y3266186D01*
X5483148Y3252673D01*
X5490159Y3239922D01*
X5498693Y3228136D01*
X5508650Y3217519D01*
X5519877Y3208223D01*
X5532374Y3200298D01*
X5534914Y3198063D01*
X5536539Y3195066D01*
X5537098Y3191713D01*
X5537098Y3158286D01*
X5536539Y3154934D01*
X5534914Y3151936D01*
X5532374Y3149701D01*
X5519877Y3141776D01*
X5508650Y3132480D01*
X5498693Y3121863D01*
X5490159Y3110077D01*
X5483148Y3097326D01*
X5477764Y3083814D01*
X5474157Y3069691D01*
X5472328Y3055264D01*
X5472328Y3040735D01*
X5474157Y3026308D01*
X5477764Y3012186D01*
X5483148Y2998673D01*
X5490159Y2985922D01*
X5498693Y2974136D01*
X5508650Y2963519D01*
X5519877Y2954223D01*
X5532374Y2946298D01*
X5534914Y2944063D01*
X5536539Y2941066D01*
X5537098Y2937713D01*
X5537098Y2904286D01*
X5536539Y2900934D01*
X5534914Y2897936D01*
X5532374Y2895701D01*
X5519877Y2887776D01*
X5508650Y2878480D01*
X5498693Y2867863D01*
X5490159Y2856077D01*
X5483148Y2843326D01*
X5477764Y2829814D01*
X5474157Y2815691D01*
X5472328Y2801264D01*
X5472328Y2786735D01*
X5474157Y2772308D01*
X5477764Y2758186D01*
X5483148Y2744673D01*
X5490159Y2731922D01*
X5498693Y2720136D01*
X5508650Y2709519D01*
X5519877Y2700223D01*
X5532170Y2692450D01*
X5545328Y2686253D01*
X5559196Y2681732D01*
X5573471Y2679039D01*
G37*
G36*
X4559300Y2691892D02*
G01*
X4572914Y2692806D01*
X4586274Y2695549D01*
X4599178Y2700020D01*
X4611319Y2706166D01*
X4622546Y2713888D01*
X4632706Y2723032D01*
X4641494Y2733446D01*
X4648809Y2744927D01*
X4654550Y2757322D01*
X4658614Y2770327D01*
X4660849Y2783789D01*
X4661306Y2797403D01*
X4659985Y2810967D01*
X4656785Y2824226D01*
X4651908Y2836976D01*
X4645355Y2848914D01*
X4637278Y2859887D01*
X4627778Y2869692D01*
X4617059Y2878175D01*
X4605324Y2885135D01*
X4592777Y2890418D01*
X4579620Y2894025D01*
X4566107Y2895854D01*
X4552492Y2895854D01*
X4538980Y2894025D01*
X4525822Y2890418D01*
X4513275Y2885135D01*
X4501540Y2878175D01*
X4490821Y2869692D01*
X4481322Y2859887D01*
X4473244Y2848914D01*
X4466691Y2836976D01*
X4461814Y2824226D01*
X4458614Y2810967D01*
X4457293Y2797403D01*
X4457750Y2783789D01*
X4459986Y2770327D01*
X4464050Y2757322D01*
X4469790Y2744927D01*
X4477105Y2733446D01*
X4485894Y2723032D01*
X4496054Y2713888D01*
X4507280Y2706166D01*
X4519422Y2700020D01*
X4532325Y2695549D01*
X4545685Y2692806D01*
G37*
G36*
X1998065Y2694990D02*
G01*
X2033930Y2694990D01*
X2047189Y2695854D01*
X2059889Y2698394D01*
X2072132Y2702560D01*
X2083765Y2708300D01*
X2094534Y2715463D01*
X2104288Y2723997D01*
X2112822Y2733751D01*
X2119985Y2744520D01*
X2125726Y2756103D01*
X2129891Y2768396D01*
X2132431Y2781096D01*
X2133244Y2794000D01*
X2132431Y2806903D01*
X2129891Y2819603D01*
X2125726Y2831896D01*
X2119985Y2843479D01*
X2112822Y2854248D01*
X2104288Y2864002D01*
X2094534Y2872536D01*
X2083765Y2879699D01*
X2072132Y2885440D01*
X2059889Y2889605D01*
X2047189Y2892145D01*
X2033930Y2893009D01*
X1998065Y2893009D01*
X1984806Y2892145D01*
X1972106Y2889605D01*
X1959864Y2885440D01*
X1948230Y2879699D01*
X1937461Y2872536D01*
X1927707Y2864002D01*
X1919173Y2854248D01*
X1912010Y2843479D01*
X1906270Y2831896D01*
X1902104Y2819603D01*
X1899564Y2806903D01*
X1898751Y2794000D01*
X1899564Y2781096D01*
X1902104Y2768396D01*
X1906270Y2756103D01*
X1912010Y2744520D01*
X1919173Y2733751D01*
X1927707Y2723997D01*
X1937461Y2715463D01*
X1948230Y2708300D01*
X1959864Y2702560D01*
X1972106Y2698394D01*
X1984806Y2695854D01*
G37*
G36*
X4559300Y2945892D02*
G01*
X4572914Y2946806D01*
X4586274Y2949549D01*
X4599178Y2954020D01*
X4611319Y2960166D01*
X4622546Y2967888D01*
X4632706Y2977032D01*
X4641494Y2987446D01*
X4648809Y2998927D01*
X4654550Y3011322D01*
X4658614Y3024327D01*
X4660849Y3037789D01*
X4661306Y3051403D01*
X4659985Y3064967D01*
X4656785Y3078226D01*
X4651908Y3090976D01*
X4645355Y3102914D01*
X4637278Y3113887D01*
X4627778Y3123692D01*
X4617059Y3132175D01*
X4605324Y3139135D01*
X4592777Y3144418D01*
X4579620Y3148025D01*
X4566107Y3149854D01*
X4552492Y3149854D01*
X4538980Y3148025D01*
X4525822Y3144418D01*
X4513275Y3139135D01*
X4501540Y3132175D01*
X4490821Y3123692D01*
X4481322Y3113887D01*
X4473244Y3102914D01*
X4466691Y3090976D01*
X4461814Y3078226D01*
X4458614Y3064967D01*
X4457293Y3051403D01*
X4457750Y3037789D01*
X4459986Y3024327D01*
X4464050Y3011322D01*
X4469790Y2998927D01*
X4477105Y2987446D01*
X4485894Y2977032D01*
X4496054Y2967888D01*
X4507280Y2960166D01*
X4519422Y2954020D01*
X4532325Y2949549D01*
X4545685Y2946806D01*
G37*
G36*
X1998065Y2948990D02*
G01*
X2033930Y2948990D01*
X2047189Y2949854D01*
X2059889Y2952394D01*
X2072132Y2956560D01*
X2083765Y2962300D01*
X2094534Y2969463D01*
X2104288Y2977997D01*
X2112822Y2987751D01*
X2119985Y2998520D01*
X2125726Y3010103D01*
X2129891Y3022396D01*
X2132431Y3035096D01*
X2133244Y3048000D01*
X2132431Y3060903D01*
X2129891Y3073603D01*
X2125726Y3085896D01*
X2119985Y3097479D01*
X2112822Y3108248D01*
X2104288Y3118002D01*
X2094534Y3126536D01*
X2083765Y3133699D01*
X2072132Y3139440D01*
X2059889Y3143605D01*
X2047189Y3146145D01*
X2033930Y3147009D01*
X1998065Y3147009D01*
X1984806Y3146145D01*
X1972106Y3143605D01*
X1959864Y3139440D01*
X1948230Y3133699D01*
X1937461Y3126536D01*
X1927707Y3118002D01*
X1919173Y3108248D01*
X1912010Y3097479D01*
X1906270Y3085896D01*
X1902104Y3073603D01*
X1899564Y3060903D01*
X1898751Y3048000D01*
X1899564Y3035096D01*
X1902104Y3022396D01*
X1906270Y3010103D01*
X1912010Y2998520D01*
X1919173Y2987751D01*
X1927707Y2977997D01*
X1937461Y2969463D01*
X1948230Y2962300D01*
X1959864Y2956560D01*
X1972106Y2952394D01*
X1984806Y2949854D01*
G37*
G36*
X1181100Y3011728D02*
G01*
X1194917Y3012592D01*
X1208481Y3015335D01*
X1221638Y3019755D01*
X1234033Y3025902D01*
X1245565Y3033572D01*
X1255979Y3042716D01*
X1265123Y3053130D01*
X1272794Y3064662D01*
X1278940Y3077057D01*
X1283360Y3090214D01*
X1286103Y3103778D01*
X1286967Y3117596D01*
X1286103Y3131413D01*
X1283360Y3144977D01*
X1278940Y3158134D01*
X1272794Y3170529D01*
X1265123Y3182061D01*
X1255979Y3192475D01*
X1245565Y3201619D01*
X1234033Y3209290D01*
X1221638Y3215436D01*
X1208481Y3219856D01*
X1194917Y3222599D01*
X1181100Y3223463D01*
X1167282Y3222599D01*
X1153718Y3219856D01*
X1140561Y3215436D01*
X1128166Y3209290D01*
X1116634Y3201619D01*
X1106220Y3192475D01*
X1097076Y3182061D01*
X1089406Y3170529D01*
X1083259Y3158134D01*
X1078839Y3144977D01*
X1076096Y3131413D01*
X1075232Y3117596D01*
X1076096Y3103778D01*
X1078839Y3090214D01*
X1083259Y3077057D01*
X1089406Y3064662D01*
X1097076Y3053130D01*
X1106220Y3042716D01*
X1116634Y3033572D01*
X1128166Y3025902D01*
X1140561Y3019755D01*
X1153718Y3015335D01*
X1167282Y3012592D01*
G37*
G36*
X1498600Y3118662D02*
G01*
X1508404Y3119526D01*
X1517853Y3122066D01*
X1526794Y3126181D01*
X1534820Y3131820D01*
X1541780Y3138779D01*
X1547418Y3146806D01*
X1551533Y3155746D01*
X1554073Y3165195D01*
X1554937Y3175000D01*
X1554073Y3184804D01*
X1551533Y3194253D01*
X1547418Y3203194D01*
X1541780Y3211220D01*
X1540205Y3212795D01*
X1537970Y3216097D01*
X1537208Y3220008D01*
X1537208Y3447491D01*
X1537970Y3451402D01*
X1540205Y3454704D01*
X1541780Y3456279D01*
X1547418Y3464306D01*
X1551533Y3473246D01*
X1554073Y3482695D01*
X1554937Y3492500D01*
X1554073Y3502304D01*
X1551533Y3511753D01*
X1547418Y3520694D01*
X1541780Y3528720D01*
X1534820Y3535679D01*
X1526794Y3541318D01*
X1517853Y3545433D01*
X1508404Y3547973D01*
X1498600Y3548837D01*
X1488795Y3547973D01*
X1486509Y3547364D01*
X1482801Y3547059D01*
X1479245Y3548126D01*
X1476298Y3550412D01*
X1474368Y3553561D01*
X1473708Y3557168D01*
X1473708Y3701491D01*
X1474470Y3705402D01*
X1476705Y3708704D01*
X1478280Y3710279D01*
X1483918Y3718306D01*
X1488033Y3727246D01*
X1490573Y3736695D01*
X1491437Y3746500D01*
X1490573Y3756304D01*
X1488033Y3765753D01*
X1483918Y3774694D01*
X1478280Y3782720D01*
X1471320Y3789679D01*
X1463294Y3795318D01*
X1454353Y3799433D01*
X1444904Y3801973D01*
X1435100Y3802837D01*
X1425295Y3801973D01*
X1423009Y3801364D01*
X1419301Y3801059D01*
X1415745Y3802126D01*
X1412798Y3804412D01*
X1410868Y3807561D01*
X1410208Y3811168D01*
X1410208Y3955491D01*
X1410970Y3959402D01*
X1413205Y3962704D01*
X1414780Y3964279D01*
X1420418Y3972306D01*
X1424533Y3981246D01*
X1427073Y3990695D01*
X1427937Y4000500D01*
X1427073Y4010304D01*
X1424533Y4019753D01*
X1420418Y4028694D01*
X1414780Y4036720D01*
X1407820Y4043679D01*
X1399794Y4049318D01*
X1390853Y4053433D01*
X1381404Y4055973D01*
X1371600Y4056837D01*
X1361795Y4055973D01*
X1359509Y4055364D01*
X1355801Y4055059D01*
X1352245Y4056126D01*
X1349298Y4058412D01*
X1347368Y4061561D01*
X1346708Y4065168D01*
X1346708Y4206189D01*
X1347470Y4210100D01*
X1349705Y4213402D01*
X1351280Y4214977D01*
X1356918Y4223004D01*
X1361033Y4231944D01*
X1363573Y4241393D01*
X1364437Y4251198D01*
X1363573Y4261002D01*
X1361033Y4270451D01*
X1356918Y4279392D01*
X1351280Y4287418D01*
X1344320Y4294378D01*
X1336294Y4300016D01*
X1327353Y4304131D01*
X1317904Y4306671D01*
X1308100Y4307535D01*
X1298295Y4306671D01*
X1288846Y4304131D01*
X1279906Y4300016D01*
X1271879Y4294378D01*
X1264920Y4287418D01*
X1259281Y4279392D01*
X1255166Y4270451D01*
X1252626Y4261002D01*
X1251762Y4251198D01*
X1252626Y4241393D01*
X1255166Y4231944D01*
X1259281Y4223004D01*
X1264920Y4214977D01*
X1266494Y4213402D01*
X1268730Y4210100D01*
X1269492Y4206189D01*
X1269492Y3855008D01*
X1268730Y3851097D01*
X1266494Y3847795D01*
X1264920Y3846220D01*
X1259281Y3838194D01*
X1255166Y3829253D01*
X1252626Y3819804D01*
X1251762Y3810000D01*
X1252626Y3800195D01*
X1255166Y3790746D01*
X1259281Y3781806D01*
X1264920Y3773779D01*
X1271879Y3766820D01*
X1279906Y3761181D01*
X1288846Y3757066D01*
X1298295Y3754526D01*
X1308100Y3753662D01*
X1317904Y3754526D01*
X1320190Y3755136D01*
X1323898Y3755440D01*
X1327454Y3754374D01*
X1330401Y3752087D01*
X1332331Y3748938D01*
X1332992Y3745331D01*
X1332992Y3728008D01*
X1332230Y3724097D01*
X1329994Y3720795D01*
X1328420Y3719220D01*
X1322781Y3711194D01*
X1318666Y3702253D01*
X1316126Y3692804D01*
X1315262Y3683000D01*
X1316126Y3673195D01*
X1318666Y3663746D01*
X1322781Y3654806D01*
X1328420Y3646779D01*
X1335379Y3639820D01*
X1343406Y3634181D01*
X1352346Y3630066D01*
X1361795Y3627526D01*
X1371600Y3626662D01*
X1381404Y3627526D01*
X1383690Y3628136D01*
X1387398Y3628440D01*
X1390954Y3627374D01*
X1393901Y3625087D01*
X1395831Y3621938D01*
X1396492Y3618331D01*
X1396492Y3347008D01*
X1395730Y3343097D01*
X1393494Y3339795D01*
X1391920Y3338220D01*
X1386281Y3330194D01*
X1382166Y3321253D01*
X1379626Y3311804D01*
X1378762Y3302000D01*
X1379626Y3292195D01*
X1382166Y3282746D01*
X1386281Y3273806D01*
X1391920Y3265779D01*
X1398879Y3258820D01*
X1406906Y3253181D01*
X1415846Y3249066D01*
X1425295Y3246526D01*
X1435100Y3245662D01*
X1444904Y3246526D01*
X1447190Y3247136D01*
X1450898Y3247440D01*
X1454454Y3246374D01*
X1457401Y3244088D01*
X1459331Y3240938D01*
X1459992Y3237331D01*
X1459992Y3220008D01*
X1459230Y3216097D01*
X1456994Y3212795D01*
X1455420Y3211220D01*
X1449781Y3203194D01*
X1445666Y3194253D01*
X1443126Y3184804D01*
X1442262Y3175000D01*
X1443126Y3165195D01*
X1445666Y3155746D01*
X1449781Y3146806D01*
X1455420Y3138779D01*
X1462379Y3131820D01*
X1470406Y3126181D01*
X1479346Y3122066D01*
X1488795Y3119526D01*
G37*
G36*
X4559300Y3199892D02*
G01*
X4572914Y3200806D01*
X4586274Y3203549D01*
X4599178Y3208020D01*
X4611319Y3214166D01*
X4622546Y3221888D01*
X4632706Y3231032D01*
X4641494Y3241446D01*
X4648809Y3252927D01*
X4654550Y3265322D01*
X4658614Y3278327D01*
X4660849Y3291789D01*
X4661306Y3305403D01*
X4659985Y3318967D01*
X4656785Y3332226D01*
X4651908Y3344976D01*
X4645355Y3356914D01*
X4637278Y3367887D01*
X4627778Y3377692D01*
X4617059Y3386175D01*
X4605324Y3393135D01*
X4592777Y3398418D01*
X4579620Y3402025D01*
X4566107Y3403854D01*
X4552492Y3403854D01*
X4538980Y3402025D01*
X4525822Y3398418D01*
X4513275Y3393135D01*
X4501540Y3386175D01*
X4490821Y3377692D01*
X4481322Y3367887D01*
X4473244Y3356914D01*
X4466691Y3344976D01*
X4461814Y3332226D01*
X4458614Y3318967D01*
X4457293Y3305403D01*
X4457750Y3291789D01*
X4459986Y3278327D01*
X4464050Y3265322D01*
X4469790Y3252927D01*
X4477105Y3241446D01*
X4485894Y3231032D01*
X4496054Y3221888D01*
X4507280Y3214166D01*
X4519422Y3208020D01*
X4532325Y3203549D01*
X4545685Y3200806D01*
G37*
G36*
X1998065Y3202990D02*
G01*
X2033930Y3202990D01*
X2047189Y3203854D01*
X2059889Y3206394D01*
X2072132Y3210560D01*
X2083765Y3216300D01*
X2094534Y3223463D01*
X2104288Y3231997D01*
X2112822Y3241751D01*
X2119985Y3252520D01*
X2125726Y3264103D01*
X2129891Y3276396D01*
X2132431Y3289096D01*
X2133244Y3302000D01*
X2132431Y3314903D01*
X2129891Y3327603D01*
X2125726Y3339896D01*
X2119985Y3351479D01*
X2112822Y3362248D01*
X2104288Y3372002D01*
X2094534Y3380536D01*
X2083765Y3387699D01*
X2072132Y3393440D01*
X2059889Y3397605D01*
X2047189Y3400145D01*
X2033930Y3401009D01*
X1998065Y3401009D01*
X1984806Y3400145D01*
X1972106Y3397605D01*
X1959864Y3393440D01*
X1948230Y3387699D01*
X1937461Y3380536D01*
X1927707Y3372002D01*
X1919173Y3362248D01*
X1912010Y3351479D01*
X1906270Y3339896D01*
X1902104Y3327603D01*
X1899564Y3314903D01*
X1898751Y3302000D01*
X1899564Y3289096D01*
X1902104Y3276396D01*
X1906270Y3264103D01*
X1912010Y3252520D01*
X1919173Y3241751D01*
X1927707Y3231997D01*
X1937461Y3223463D01*
X1948230Y3216300D01*
X1959864Y3210560D01*
X1972106Y3206394D01*
X1984806Y3203854D01*
G37*
G36*
X2792069Y3202990D02*
G01*
X2827934Y3202990D01*
X2841193Y3203854D01*
X2853893Y3206394D01*
X2866136Y3210560D01*
X2877769Y3216300D01*
X2888538Y3223463D01*
X2898292Y3231997D01*
X2906826Y3241751D01*
X2913989Y3252520D01*
X2919730Y3264103D01*
X2923895Y3276396D01*
X2926435Y3289096D01*
X2927248Y3302000D01*
X2926435Y3314903D01*
X2923895Y3327603D01*
X2919730Y3339896D01*
X2913989Y3351479D01*
X2906826Y3362248D01*
X2898292Y3372002D01*
X2888538Y3380536D01*
X2877769Y3387699D01*
X2866136Y3393440D01*
X2853893Y3397605D01*
X2841193Y3400145D01*
X2827934Y3401009D01*
X2792069Y3401009D01*
X2778810Y3400145D01*
X2766110Y3397605D01*
X2753868Y3393440D01*
X2742234Y3387699D01*
X2731465Y3380536D01*
X2721711Y3372002D01*
X2713177Y3362248D01*
X2706014Y3351479D01*
X2700274Y3339896D01*
X2696108Y3327603D01*
X2693568Y3314903D01*
X2692755Y3302000D01*
X2693568Y3289096D01*
X2696108Y3276396D01*
X2700274Y3264103D01*
X2706014Y3252520D01*
X2713177Y3241751D01*
X2721711Y3231997D01*
X2731465Y3223463D01*
X2742234Y3216300D01*
X2753868Y3210560D01*
X2766110Y3206394D01*
X2778810Y3203854D01*
G37*
G36*
X1181100Y103428D02*
G01*
X1194917Y104292D01*
X1208481Y107035D01*
X1221638Y111455D01*
X1234033Y117602D01*
X1245565Y125272D01*
X1255979Y134416D01*
X1265123Y144830D01*
X1272794Y156362D01*
X1278940Y168757D01*
X1283360Y181914D01*
X1286103Y195478D01*
X1286967Y209296D01*
X1286103Y223113D01*
X1283360Y236677D01*
X1278940Y249834D01*
X1272794Y262229D01*
X1265123Y273761D01*
X1255979Y284175D01*
X1245565Y293319D01*
X1234033Y300990D01*
X1221638Y307136D01*
X1208481Y311556D01*
X1194917Y314299D01*
X1181100Y315163D01*
X1167282Y314299D01*
X1153718Y311556D01*
X1140561Y307136D01*
X1128166Y300990D01*
X1116634Y293319D01*
X1106220Y284175D01*
X1097076Y273761D01*
X1089406Y262229D01*
X1083259Y249834D01*
X1078839Y236677D01*
X1076096Y223113D01*
X1075232Y209296D01*
X1076096Y195478D01*
X1078839Y181914D01*
X1083259Y168757D01*
X1089406Y156362D01*
X1097076Y144830D01*
X1106220Y134416D01*
X1116634Y125272D01*
X1128166Y117602D01*
X1140561Y111455D01*
X1153718Y107035D01*
X1167282Y104292D01*
G37*
G36*
X956106Y3363315D02*
G01*
X971245Y3364229D01*
X986231Y3366973D01*
X1000709Y3371494D01*
X1014577Y3377742D01*
X1027582Y3385565D01*
X1039571Y3394964D01*
X1050340Y3405733D01*
X1059688Y3417671D01*
X1067562Y3430676D01*
X1073810Y3444544D01*
X1078331Y3459073D01*
X1081074Y3474008D01*
X1081989Y3489198D01*
X1081074Y3504387D01*
X1078331Y3519322D01*
X1073810Y3533851D01*
X1067562Y3547668D01*
X1059688Y3560724D01*
X1050340Y3572662D01*
X1039571Y3583432D01*
X1027582Y3592779D01*
X1014577Y3600653D01*
X1000658Y3606901D01*
X997508Y3609136D01*
X995426Y3612387D01*
X994664Y3616198D01*
X995426Y3620008D01*
X997508Y3623208D01*
X1000658Y3625443D01*
X1014577Y3631742D01*
X1027582Y3639565D01*
X1039571Y3648964D01*
X1050340Y3659733D01*
X1059688Y3671671D01*
X1067562Y3684676D01*
X1073810Y3698544D01*
X1078331Y3713073D01*
X1081074Y3728008D01*
X1081989Y3743198D01*
X1081074Y3758387D01*
X1078331Y3773322D01*
X1073810Y3787851D01*
X1067562Y3801668D01*
X1059688Y3814724D01*
X1050340Y3826662D01*
X1039571Y3837432D01*
X1027582Y3846779D01*
X1014577Y3854653D01*
X1000658Y3860901D01*
X997508Y3863136D01*
X995426Y3866387D01*
X994664Y3870198D01*
X995426Y3874008D01*
X997508Y3877208D01*
X1000658Y3879443D01*
X1014577Y3885742D01*
X1027582Y3893565D01*
X1039571Y3902964D01*
X1050340Y3913733D01*
X1059688Y3925671D01*
X1067562Y3938676D01*
X1073810Y3952544D01*
X1078331Y3967073D01*
X1081074Y3982008D01*
X1081989Y3997198D01*
X1081074Y4012387D01*
X1078331Y4027322D01*
X1073810Y4041851D01*
X1067562Y4055668D01*
X1059688Y4068724D01*
X1050340Y4080662D01*
X1039571Y4091432D01*
X1027582Y4100779D01*
X1014577Y4108653D01*
X1000658Y4114901D01*
X997508Y4117136D01*
X995426Y4120387D01*
X994664Y4124198D01*
X995426Y4128008D01*
X997508Y4131208D01*
X1000658Y4133443D01*
X1014577Y4139742D01*
X1027582Y4147565D01*
X1039571Y4156964D01*
X1050340Y4167733D01*
X1059688Y4179671D01*
X1067562Y4192676D01*
X1073810Y4206544D01*
X1078331Y4221073D01*
X1081074Y4236008D01*
X1081989Y4251198D01*
X1081074Y4266387D01*
X1078331Y4281322D01*
X1073810Y4295851D01*
X1067562Y4309668D01*
X1059688Y4322724D01*
X1050340Y4334662D01*
X1039571Y4345432D01*
X1027582Y4354779D01*
X1014577Y4362653D01*
X1000658Y4368901D01*
X997508Y4371136D01*
X995426Y4374388D01*
X994664Y4378198D01*
X995426Y4382008D01*
X997508Y4385208D01*
X1000658Y4387443D01*
X1014577Y4393742D01*
X1027582Y4401566D01*
X1039571Y4410964D01*
X1050340Y4421733D01*
X1059688Y4433671D01*
X1067562Y4446676D01*
X1073810Y4460544D01*
X1078331Y4475073D01*
X1081074Y4490008D01*
X1081989Y4505198D01*
X1081074Y4520387D01*
X1078331Y4535322D01*
X1073810Y4549851D01*
X1067562Y4563668D01*
X1059688Y4576724D01*
X1050340Y4588662D01*
X1039571Y4599432D01*
X1027582Y4608779D01*
X1014577Y4616653D01*
X1000658Y4622901D01*
X997508Y4625136D01*
X995426Y4628388D01*
X994664Y4632198D01*
X995426Y4636008D01*
X997508Y4639208D01*
X1000658Y4641443D01*
X1014577Y4647742D01*
X1027582Y4655566D01*
X1039571Y4664964D01*
X1050340Y4675733D01*
X1059688Y4687671D01*
X1067562Y4700676D01*
X1073810Y4714544D01*
X1078331Y4729073D01*
X1081074Y4744008D01*
X1081989Y4759198D01*
X1081074Y4774387D01*
X1078331Y4789322D01*
X1073810Y4803851D01*
X1067562Y4817668D01*
X1059688Y4830724D01*
X1050340Y4842662D01*
X1039571Y4853432D01*
X1027582Y4862779D01*
X1014577Y4870653D01*
X1000658Y4876901D01*
X997508Y4879136D01*
X995426Y4882388D01*
X994664Y4886198D01*
X995426Y4890008D01*
X997508Y4893208D01*
X1000658Y4895443D01*
X1014577Y4901742D01*
X1027582Y4909566D01*
X1039571Y4918964D01*
X1050340Y4929733D01*
X1059688Y4941671D01*
X1067562Y4954676D01*
X1073810Y4968544D01*
X1078331Y4983073D01*
X1081074Y4998008D01*
X1081989Y5013198D01*
X1081074Y5028387D01*
X1078331Y5043322D01*
X1073810Y5057851D01*
X1067562Y5071668D01*
X1059688Y5084724D01*
X1050340Y5096662D01*
X1039571Y5107432D01*
X1027582Y5116779D01*
X1014577Y5124653D01*
X1000658Y5130901D01*
X997508Y5133136D01*
X995426Y5136388D01*
X994664Y5140198D01*
X995426Y5144008D01*
X997508Y5147208D01*
X1000658Y5149443D01*
X1014577Y5155742D01*
X1027582Y5163566D01*
X1039571Y5172964D01*
X1050340Y5183733D01*
X1059688Y5195671D01*
X1067562Y5208676D01*
X1073810Y5222544D01*
X1078331Y5237073D01*
X1081074Y5252008D01*
X1081989Y5267198D01*
X1081074Y5282387D01*
X1078331Y5297322D01*
X1073810Y5311851D01*
X1067562Y5325668D01*
X1059688Y5338724D01*
X1050340Y5350662D01*
X1039571Y5361432D01*
X1027582Y5370779D01*
X1014577Y5378653D01*
X1000709Y5384901D01*
X986231Y5389422D01*
X971245Y5392166D01*
X956106Y5393080D01*
X940917Y5392166D01*
X925982Y5389422D01*
X911453Y5384901D01*
X897585Y5378653D01*
X884580Y5370779D01*
X872591Y5361432D01*
X861872Y5350662D01*
X852474Y5338724D01*
X844600Y5325668D01*
X838403Y5311851D01*
X833882Y5297322D01*
X831138Y5282387D01*
X830224Y5267198D01*
X831138Y5252008D01*
X833882Y5237073D01*
X838403Y5222544D01*
X844600Y5208676D01*
X852474Y5195671D01*
X861872Y5183733D01*
X872591Y5172964D01*
X884580Y5163566D01*
X897585Y5155742D01*
X911504Y5149443D01*
X914653Y5147208D01*
X916787Y5144008D01*
X917498Y5140198D01*
X916787Y5136388D01*
X914653Y5133136D01*
X911504Y5130901D01*
X897585Y5124653D01*
X884580Y5116779D01*
X872591Y5107432D01*
X861872Y5096662D01*
X852474Y5084724D01*
X844600Y5071668D01*
X838403Y5057851D01*
X833882Y5043322D01*
X831138Y5028387D01*
X830224Y5013198D01*
X831138Y4998008D01*
X833882Y4983073D01*
X838403Y4968544D01*
X844600Y4954676D01*
X852474Y4941671D01*
X861872Y4929733D01*
X872591Y4918964D01*
X884580Y4909566D01*
X897585Y4901742D01*
X911504Y4895443D01*
X914653Y4893208D01*
X916787Y4890008D01*
X917498Y4886198D01*
X916787Y4882388D01*
X914653Y4879136D01*
X911504Y4876901D01*
X897585Y4870653D01*
X884580Y4862779D01*
X872591Y4853432D01*
X861872Y4842662D01*
X852474Y4830724D01*
X844600Y4817668D01*
X838403Y4803851D01*
X833882Y4789322D01*
X831138Y4774387D01*
X830224Y4759198D01*
X831138Y4744008D01*
X833882Y4729073D01*
X838403Y4714544D01*
X844600Y4700676D01*
X852474Y4687671D01*
X861872Y4675733D01*
X872591Y4664964D01*
X884580Y4655566D01*
X897585Y4647742D01*
X911504Y4641443D01*
X914653Y4639208D01*
X916787Y4636008D01*
X917498Y4632198D01*
X916787Y4628388D01*
X914653Y4625136D01*
X911504Y4622901D01*
X897585Y4616653D01*
X884580Y4608779D01*
X872591Y4599432D01*
X861872Y4588662D01*
X852474Y4576724D01*
X844600Y4563668D01*
X838403Y4549851D01*
X833882Y4535322D01*
X831138Y4520387D01*
X830224Y4505198D01*
X831138Y4490008D01*
X833882Y4475073D01*
X838403Y4460544D01*
X844600Y4446676D01*
X852474Y4433671D01*
X861872Y4421733D01*
X872591Y4410964D01*
X884580Y4401566D01*
X897585Y4393742D01*
X911504Y4387443D01*
X914653Y4385208D01*
X916787Y4382008D01*
X917498Y4378198D01*
X916787Y4374388D01*
X914653Y4371136D01*
X911504Y4368901D01*
X897585Y4362653D01*
X884580Y4354779D01*
X872591Y4345432D01*
X861872Y4334662D01*
X852474Y4322724D01*
X844600Y4309668D01*
X838403Y4295851D01*
X833882Y4281322D01*
X831138Y4266387D01*
X830224Y4251198D01*
X831138Y4236008D01*
X833882Y4221073D01*
X838403Y4206544D01*
X844600Y4192676D01*
X852474Y4179671D01*
X861872Y4167733D01*
X872591Y4156964D01*
X884580Y4147565D01*
X897585Y4139742D01*
X911504Y4133443D01*
X914653Y4131208D01*
X916787Y4128008D01*
X917498Y4124198D01*
X916787Y4120387D01*
X914653Y4117136D01*
X911504Y4114901D01*
X897585Y4108653D01*
X884580Y4100779D01*
X872591Y4091432D01*
X861872Y4080662D01*
X852474Y4068724D01*
X844600Y4055668D01*
X838403Y4041851D01*
X833882Y4027322D01*
X831138Y4012387D01*
X830224Y3997198D01*
X831138Y3982008D01*
X833882Y3967073D01*
X838403Y3952544D01*
X844600Y3938676D01*
X852474Y3925671D01*
X861872Y3913733D01*
X872591Y3902964D01*
X884580Y3893565D01*
X897585Y3885742D01*
X911504Y3879443D01*
X914653Y3877208D01*
X916787Y3874008D01*
X917498Y3870198D01*
X916787Y3866387D01*
X914653Y3863136D01*
X911504Y3860901D01*
X897585Y3854653D01*
X884580Y3846779D01*
X872591Y3837432D01*
X861872Y3826662D01*
X852474Y3814724D01*
X844600Y3801668D01*
X838403Y3787851D01*
X833882Y3773322D01*
X831138Y3758387D01*
X830224Y3743198D01*
X831138Y3728008D01*
X833882Y3713073D01*
X838403Y3698544D01*
X844600Y3684676D01*
X852474Y3671671D01*
X861872Y3659733D01*
X872591Y3648964D01*
X884580Y3639565D01*
X897585Y3631742D01*
X911504Y3625443D01*
X914653Y3623208D01*
X916787Y3620008D01*
X917498Y3616198D01*
X916787Y3612387D01*
X914653Y3609136D01*
X911504Y3606901D01*
X897585Y3600653D01*
X884580Y3592779D01*
X872591Y3583432D01*
X861872Y3572662D01*
X852474Y3560724D01*
X844600Y3547668D01*
X838403Y3533851D01*
X833882Y3519322D01*
X831138Y3504387D01*
X830224Y3489198D01*
X831138Y3474008D01*
X833882Y3459073D01*
X838403Y3444544D01*
X844600Y3430676D01*
X852474Y3417671D01*
X861872Y3405733D01*
X872591Y3394964D01*
X884580Y3385565D01*
X897585Y3377742D01*
X911453Y3371494D01*
X925982Y3366973D01*
X940917Y3364229D01*
G37*
G36*
X4559300Y3453892D02*
G01*
X4572914Y3454806D01*
X4586274Y3457549D01*
X4599178Y3462020D01*
X4611319Y3468166D01*
X4622546Y3475888D01*
X4632706Y3485032D01*
X4641494Y3495446D01*
X4648809Y3506927D01*
X4654550Y3519322D01*
X4658614Y3532327D01*
X4660849Y3545789D01*
X4661306Y3559403D01*
X4659985Y3572967D01*
X4656785Y3586226D01*
X4651908Y3598976D01*
X4645355Y3610914D01*
X4637278Y3621887D01*
X4627778Y3631692D01*
X4617059Y3640175D01*
X4605324Y3647135D01*
X4592777Y3652418D01*
X4579620Y3656025D01*
X4566107Y3657854D01*
X4552492Y3657854D01*
X4538980Y3656025D01*
X4525822Y3652418D01*
X4513275Y3647135D01*
X4501540Y3640175D01*
X4490821Y3631692D01*
X4481322Y3621887D01*
X4473244Y3610914D01*
X4466691Y3598976D01*
X4461814Y3586226D01*
X4458614Y3572967D01*
X4457293Y3559403D01*
X4457750Y3545789D01*
X4459986Y3532327D01*
X4464050Y3519322D01*
X4469790Y3506927D01*
X4477105Y3495446D01*
X4485894Y3485032D01*
X4496054Y3475888D01*
X4507280Y3468166D01*
X4519422Y3462020D01*
X4532325Y3457549D01*
X4545685Y3454806D01*
G37*
G36*
X1998065Y3456990D02*
G01*
X2033930Y3456990D01*
X2047189Y3457854D01*
X2059889Y3460394D01*
X2072132Y3464560D01*
X2083765Y3470300D01*
X2094534Y3477463D01*
X2104288Y3485997D01*
X2112822Y3495751D01*
X2119985Y3506520D01*
X2125726Y3518103D01*
X2129891Y3530396D01*
X2132431Y3543096D01*
X2133244Y3556000D01*
X2132431Y3568903D01*
X2129891Y3581603D01*
X2125726Y3593896D01*
X2119985Y3605479D01*
X2112822Y3616248D01*
X2104288Y3626002D01*
X2094534Y3634536D01*
X2083765Y3641699D01*
X2072132Y3647440D01*
X2059889Y3651605D01*
X2047189Y3654145D01*
X2033930Y3655009D01*
X1998065Y3655009D01*
X1984806Y3654145D01*
X1972106Y3651605D01*
X1959864Y3647440D01*
X1948230Y3641699D01*
X1937461Y3634536D01*
X1927707Y3626002D01*
X1919173Y3616248D01*
X1912010Y3605479D01*
X1906270Y3593896D01*
X1902104Y3581603D01*
X1899564Y3568903D01*
X1898751Y3556000D01*
X1899564Y3543096D01*
X1902104Y3530396D01*
X1906270Y3518103D01*
X1912010Y3506520D01*
X1919173Y3495751D01*
X1927707Y3485997D01*
X1937461Y3477463D01*
X1948230Y3470300D01*
X1959864Y3464560D01*
X1972106Y3460394D01*
X1984806Y3457854D01*
G37*
G36*
X2792069Y3456990D02*
G01*
X2827934Y3456990D01*
X2841193Y3457854D01*
X2853893Y3460394D01*
X2866136Y3464560D01*
X2877769Y3470300D01*
X2888538Y3477463D01*
X2898292Y3485997D01*
X2906826Y3495751D01*
X2913989Y3506520D01*
X2919730Y3518103D01*
X2923895Y3530396D01*
X2926435Y3543096D01*
X2927248Y3556000D01*
X2926435Y3568903D01*
X2923895Y3581603D01*
X2919730Y3593896D01*
X2913989Y3605479D01*
X2906826Y3616248D01*
X2898292Y3626002D01*
X2888538Y3634536D01*
X2877769Y3641699D01*
X2866136Y3647440D01*
X2853893Y3651605D01*
X2841193Y3654145D01*
X2827934Y3655009D01*
X2792069Y3655009D01*
X2778810Y3654145D01*
X2766110Y3651605D01*
X2753868Y3647440D01*
X2742234Y3641699D01*
X2731465Y3634536D01*
X2721711Y3626002D01*
X2713177Y3616248D01*
X2706014Y3605479D01*
X2700274Y3593896D01*
X2696108Y3581603D01*
X2693568Y3568903D01*
X2692755Y3556000D01*
X2693568Y3543096D01*
X2696108Y3530396D01*
X2700274Y3518103D01*
X2706014Y3506520D01*
X2713177Y3495751D01*
X2721711Y3485997D01*
X2731465Y3477463D01*
X2742234Y3470300D01*
X2753868Y3464560D01*
X2766110Y3460394D01*
X2778810Y3457854D01*
G37*
G36*
X4189069Y3456990D02*
G01*
X4224934Y3456990D01*
X4238193Y3457854D01*
X4250893Y3460394D01*
X4263136Y3464560D01*
X4274769Y3470300D01*
X4285538Y3477463D01*
X4295292Y3485997D01*
X4303826Y3495751D01*
X4310989Y3506520D01*
X4316730Y3518103D01*
X4320895Y3530396D01*
X4323435Y3543096D01*
X4324248Y3556000D01*
X4323435Y3568903D01*
X4320895Y3581603D01*
X4316730Y3593896D01*
X4310989Y3605479D01*
X4303826Y3616248D01*
X4295292Y3626002D01*
X4285538Y3634536D01*
X4274769Y3641699D01*
X4263136Y3647440D01*
X4250893Y3651605D01*
X4238193Y3654145D01*
X4224934Y3655009D01*
X4189069Y3655009D01*
X4175810Y3654145D01*
X4163110Y3651605D01*
X4150868Y3647440D01*
X4139234Y3641699D01*
X4128465Y3634536D01*
X4118711Y3626002D01*
X4110177Y3616248D01*
X4103014Y3605479D01*
X4097274Y3593896D01*
X4093972Y3584194D01*
X4091990Y3580739D01*
X4088790Y3578351D01*
X4084929Y3577336D01*
X4080967Y3577894D01*
X4077512Y3579977D01*
X4069079Y3592220D01*
X4067505Y3593795D01*
X4065270Y3597097D01*
X4064508Y3601008D01*
X4064508Y3891991D01*
X4065270Y3895902D01*
X4067505Y3899204D01*
X4069079Y3900779D01*
X4074718Y3908806D01*
X4078833Y3917746D01*
X4081373Y3927195D01*
X4082237Y3937000D01*
X4081373Y3946804D01*
X4078833Y3956253D01*
X4074718Y3965194D01*
X4069079Y3973220D01*
X4062120Y3980179D01*
X4054094Y3985818D01*
X4045153Y3989933D01*
X4035704Y3992473D01*
X4025900Y3993337D01*
X4016095Y3992473D01*
X4006646Y3989933D01*
X3997706Y3985818D01*
X3989679Y3980179D01*
X3982720Y3973220D01*
X3977081Y3965194D01*
X3972966Y3956253D01*
X3970426Y3946804D01*
X3969562Y3937000D01*
X3970426Y3927195D01*
X3972966Y3917746D01*
X3977081Y3908806D01*
X3982720Y3900779D01*
X3984294Y3899204D01*
X3986529Y3895902D01*
X3987292Y3891991D01*
X3987292Y3601008D01*
X3986529Y3597097D01*
X3984294Y3593795D01*
X3982720Y3592220D01*
X3977081Y3584194D01*
X3972966Y3575253D01*
X3970426Y3565804D01*
X3969562Y3556000D01*
X3970426Y3546195D01*
X3972966Y3536746D01*
X3977081Y3527806D01*
X3982720Y3519779D01*
X3989679Y3512820D01*
X3997706Y3507181D01*
X4006646Y3503066D01*
X4016095Y3500526D01*
X4025900Y3499662D01*
X4035704Y3500526D01*
X4045153Y3503066D01*
X4054094Y3507181D01*
X4062120Y3512820D01*
X4069079Y3519779D01*
X4077512Y3532022D01*
X4080967Y3534105D01*
X4084929Y3534664D01*
X4088790Y3533648D01*
X4091990Y3531260D01*
X4093972Y3527806D01*
X4097274Y3518103D01*
X4103014Y3506520D01*
X4110177Y3495751D01*
X4118711Y3485997D01*
X4128465Y3477463D01*
X4139234Y3470300D01*
X4150868Y3464560D01*
X4163110Y3460394D01*
X4175810Y3457854D01*
G37*
G36*
X4559300Y3707892D02*
G01*
X4572914Y3708806D01*
X4586274Y3711549D01*
X4599178Y3716020D01*
X4611319Y3722166D01*
X4622546Y3729888D01*
X4632706Y3739032D01*
X4641494Y3749446D01*
X4648809Y3760927D01*
X4654550Y3773322D01*
X4658614Y3786327D01*
X4660849Y3799789D01*
X4661306Y3813403D01*
X4659985Y3826967D01*
X4656785Y3840226D01*
X4651908Y3852976D01*
X4645355Y3864914D01*
X4637278Y3875887D01*
X4627778Y3885692D01*
X4617059Y3894175D01*
X4605324Y3901135D01*
X4592777Y3906418D01*
X4579620Y3910025D01*
X4566107Y3911854D01*
X4552492Y3911854D01*
X4538980Y3910025D01*
X4525822Y3906418D01*
X4513275Y3901135D01*
X4501540Y3894175D01*
X4490821Y3885692D01*
X4481322Y3875887D01*
X4473244Y3864914D01*
X4466691Y3852976D01*
X4461814Y3840226D01*
X4458614Y3826967D01*
X4457293Y3813403D01*
X4457750Y3799789D01*
X4459986Y3786327D01*
X4464050Y3773322D01*
X4469790Y3760927D01*
X4477105Y3749446D01*
X4485894Y3739032D01*
X4496054Y3729888D01*
X4507280Y3722166D01*
X4519422Y3716020D01*
X4532325Y3711549D01*
X4545685Y3708806D01*
G37*
G36*
X1998065Y3710990D02*
G01*
X2033930Y3710990D01*
X2047189Y3711854D01*
X2059889Y3714394D01*
X2072132Y3718560D01*
X2083765Y3724249D01*
X2094534Y3731463D01*
X2104288Y3739997D01*
X2112822Y3749751D01*
X2119985Y3760520D01*
X2125726Y3772103D01*
X2129891Y3784396D01*
X2132431Y3797096D01*
X2133244Y3810000D01*
X2132431Y3822903D01*
X2129891Y3835603D01*
X2125726Y3847896D01*
X2119985Y3859479D01*
X2112822Y3870248D01*
X2104288Y3880002D01*
X2094534Y3888536D01*
X2083765Y3895699D01*
X2072132Y3901440D01*
X2059889Y3905605D01*
X2047189Y3908145D01*
X2033930Y3909009D01*
X1998065Y3909009D01*
X1984806Y3908145D01*
X1972106Y3905605D01*
X1959864Y3901440D01*
X1948230Y3895699D01*
X1937461Y3888536D01*
X1927707Y3880002D01*
X1919173Y3870248D01*
X1912010Y3859479D01*
X1906270Y3847896D01*
X1902104Y3835603D01*
X1899564Y3822903D01*
X1898751Y3810000D01*
X1899564Y3797096D01*
X1902104Y3784396D01*
X1906270Y3772103D01*
X1912010Y3760520D01*
X1919173Y3749751D01*
X1927707Y3739997D01*
X1937461Y3731463D01*
X1948230Y3724249D01*
X1959864Y3718560D01*
X1972106Y3714394D01*
X1984806Y3711854D01*
G37*
G36*
X4189069Y3710990D02*
G01*
X4224934Y3710990D01*
X4238193Y3711854D01*
X4250893Y3714394D01*
X4263136Y3718560D01*
X4274769Y3724300D01*
X4285538Y3731463D01*
X4295292Y3739997D01*
X4303826Y3749751D01*
X4310989Y3760520D01*
X4316730Y3772103D01*
X4320895Y3784396D01*
X4323435Y3797096D01*
X4324248Y3810000D01*
X4323435Y3822903D01*
X4320895Y3835603D01*
X4316730Y3847896D01*
X4310989Y3859479D01*
X4303826Y3870248D01*
X4295292Y3880002D01*
X4285538Y3888536D01*
X4274769Y3895699D01*
X4263136Y3901440D01*
X4250893Y3905605D01*
X4238193Y3908145D01*
X4224934Y3909009D01*
X4189069Y3909009D01*
X4175810Y3908145D01*
X4163110Y3905605D01*
X4150868Y3901440D01*
X4139234Y3895699D01*
X4128465Y3888536D01*
X4118711Y3880002D01*
X4110177Y3870248D01*
X4103014Y3859479D01*
X4097274Y3847896D01*
X4093108Y3835603D01*
X4090568Y3822903D01*
X4089755Y3810000D01*
X4090568Y3797096D01*
X4093108Y3784396D01*
X4097274Y3772103D01*
X4103014Y3760520D01*
X4110177Y3749751D01*
X4118711Y3739997D01*
X4128465Y3731463D01*
X4139234Y3724300D01*
X4150868Y3718560D01*
X4163110Y3714394D01*
X4175810Y3711854D01*
G37*
G36*
X2792069Y3710990D02*
G01*
X2827934Y3710990D01*
X2841193Y3711854D01*
X2853893Y3714394D01*
X2866136Y3718560D01*
X2877769Y3724249D01*
X2888538Y3731463D01*
X2898292Y3739997D01*
X2906826Y3749751D01*
X2913989Y3760520D01*
X2919730Y3772103D01*
X2923895Y3784396D01*
X2926435Y3797096D01*
X2927248Y3810000D01*
X2926435Y3822903D01*
X2923895Y3835603D01*
X2919730Y3847896D01*
X2913989Y3859479D01*
X2906826Y3870248D01*
X2898292Y3880002D01*
X2888538Y3888536D01*
X2877769Y3895699D01*
X2866136Y3901440D01*
X2853893Y3905605D01*
X2841193Y3908145D01*
X2827934Y3909009D01*
X2792069Y3909009D01*
X2778810Y3908145D01*
X2766110Y3905605D01*
X2753868Y3901440D01*
X2742234Y3895699D01*
X2731465Y3888536D01*
X2721711Y3880002D01*
X2713177Y3870248D01*
X2706014Y3859479D01*
X2700274Y3847896D01*
X2696108Y3835603D01*
X2693568Y3822903D01*
X2692755Y3810000D01*
X2693568Y3797096D01*
X2696108Y3784396D01*
X2700274Y3772103D01*
X2706014Y3760520D01*
X2713177Y3749751D01*
X2721711Y3739997D01*
X2731465Y3731463D01*
X2742234Y3724249D01*
X2753868Y3718560D01*
X2766110Y3714394D01*
X2778810Y3711854D01*
G37*
G36*
X4559300Y3961892D02*
G01*
X4572914Y3962806D01*
X4586274Y3965549D01*
X4599178Y3970020D01*
X4611319Y3976166D01*
X4622546Y3983888D01*
X4632706Y3993032D01*
X4641494Y4003446D01*
X4648809Y4014927D01*
X4654550Y4027322D01*
X4658614Y4040327D01*
X4660849Y4053789D01*
X4661306Y4067403D01*
X4659985Y4080967D01*
X4656785Y4094226D01*
X4651908Y4106976D01*
X4645355Y4118914D01*
X4637278Y4129887D01*
X4627778Y4139692D01*
X4617059Y4148175D01*
X4605324Y4155135D01*
X4592777Y4160418D01*
X4579620Y4164025D01*
X4566107Y4165854D01*
X4552492Y4165854D01*
X4538980Y4164025D01*
X4525822Y4160418D01*
X4513275Y4155135D01*
X4501540Y4148175D01*
X4490821Y4139692D01*
X4481322Y4129887D01*
X4473244Y4118914D01*
X4466691Y4106976D01*
X4461814Y4094226D01*
X4458614Y4080967D01*
X4457293Y4067403D01*
X4457750Y4053789D01*
X4459986Y4040327D01*
X4464050Y4027322D01*
X4469790Y4014927D01*
X4477105Y4003446D01*
X4485894Y3993032D01*
X4496054Y3983888D01*
X4507280Y3976166D01*
X4519422Y3970020D01*
X4532325Y3965549D01*
X4545685Y3962806D01*
G37*
G36*
X5448300Y105562D02*
G01*
X5448300Y368300D01*
X5185664Y368300D01*
X5186070Y357936D01*
X5188966Y334975D01*
X5193792Y312369D01*
X5200446Y290271D01*
X5208981Y268782D01*
X5219242Y248107D01*
X5231180Y228295D01*
X5244795Y209600D01*
X5259882Y192125D01*
X5276392Y175971D01*
X5294172Y161239D01*
X5313172Y148031D01*
X5333187Y136499D01*
X5354066Y126644D01*
X5375757Y118618D01*
X5398008Y112369D01*
X5420715Y108051D01*
X5443677Y105664D01*
G37*
G36*
X4189069Y3964990D02*
G01*
X4194301Y3964990D01*
X4194301Y4051300D01*
X4090568Y4051300D01*
X4093108Y4038396D01*
X4097274Y4026103D01*
X4103014Y4014520D01*
X4110177Y4003751D01*
X4118711Y3993997D01*
X4128465Y3985463D01*
X4139234Y3978249D01*
X4150868Y3972560D01*
X4163110Y3968394D01*
X4175810Y3965854D01*
G37*
G36*
X2792069Y3964990D02*
G01*
X2827934Y3964990D01*
X2841193Y3965854D01*
X2853893Y3968394D01*
X2866136Y3972560D01*
X2877769Y3978249D01*
X2888538Y3985463D01*
X2898292Y3993997D01*
X2906826Y4003751D01*
X2913989Y4014520D01*
X2919730Y4026103D01*
X2923895Y4038396D01*
X2926435Y4051096D01*
X2927248Y4064000D01*
X2926435Y4076903D01*
X2923895Y4089603D01*
X2919730Y4101896D01*
X2913989Y4113479D01*
X2906826Y4124248D01*
X2898292Y4134002D01*
X2888538Y4142536D01*
X2877769Y4149699D01*
X2866136Y4155440D01*
X2853893Y4159605D01*
X2841193Y4162145D01*
X2827934Y4163009D01*
X2792069Y4163009D01*
X2778810Y4162145D01*
X2766110Y4159605D01*
X2753868Y4155440D01*
X2742234Y4149699D01*
X2731465Y4142536D01*
X2721711Y4134002D01*
X2713177Y4124248D01*
X2706014Y4113479D01*
X2700274Y4101896D01*
X2696108Y4089603D01*
X2693568Y4076903D01*
X2692755Y4064609D01*
X2693568Y4051096D01*
X2696108Y4038396D01*
X2700274Y4026103D01*
X2706014Y4014520D01*
X2713177Y4003751D01*
X2721711Y3993997D01*
X2731465Y3985463D01*
X2742234Y3978249D01*
X2753868Y3972560D01*
X2766110Y3968394D01*
X2778810Y3965854D01*
G37*
G36*
X1998065Y3964990D02*
G01*
X2033930Y3964990D01*
X2047189Y3965854D01*
X2059889Y3968394D01*
X2072132Y3972560D01*
X2083765Y3978249D01*
X2094534Y3985463D01*
X2104288Y3993997D01*
X2112822Y4003751D01*
X2119985Y4014520D01*
X2125726Y4026103D01*
X2129891Y4038396D01*
X2132431Y4051096D01*
X2133244Y4064000D01*
X2132431Y4076903D01*
X2129891Y4089603D01*
X2125726Y4101896D01*
X2119985Y4113479D01*
X2112822Y4124248D01*
X2104288Y4134002D01*
X2094534Y4142536D01*
X2083765Y4149699D01*
X2072132Y4155440D01*
X2059889Y4159605D01*
X2047189Y4162145D01*
X2033930Y4163009D01*
X1998065Y4163009D01*
X1984806Y4162145D01*
X1972106Y4159605D01*
X1959864Y4155440D01*
X1948230Y4149699D01*
X1937461Y4142536D01*
X1927707Y4134002D01*
X1919173Y4124248D01*
X1912010Y4113479D01*
X1906270Y4101896D01*
X1902104Y4089603D01*
X1899564Y4076903D01*
X1898751Y4064000D01*
X1899564Y4051096D01*
X1902104Y4038396D01*
X1906270Y4026103D01*
X1912010Y4014520D01*
X1919173Y4003751D01*
X1927707Y3993997D01*
X1937461Y3985463D01*
X1948230Y3978249D01*
X1959864Y3972560D01*
X1972106Y3968394D01*
X1984806Y3965854D01*
G37*
G36*
X3003550Y3978910D02*
G01*
X3035300Y3978910D01*
X3035300Y4032097D01*
X2977083Y4032097D01*
X2977083Y4005376D01*
X2977794Y3999077D01*
X2979724Y3993591D01*
X2982772Y3988714D01*
X2986887Y3984599D01*
X2991764Y3981500D01*
X2997250Y3979621D01*
G37*
G36*
X3060700Y3978910D02*
G01*
X3092450Y3978910D01*
X3098749Y3979621D01*
X3104235Y3981500D01*
X3109112Y3984599D01*
X3113227Y3988714D01*
X3116275Y3993591D01*
X3118205Y3999077D01*
X3118916Y4005376D01*
X3118916Y4032097D01*
X3060700Y4032097D01*
G37*
G36*
X2616200Y4007662D02*
G01*
X2626004Y4008526D01*
X2635453Y4011066D01*
X2644394Y4015181D01*
X2652420Y4020820D01*
X2659380Y4027779D01*
X2665018Y4035806D01*
X2669133Y4044746D01*
X2671673Y4054195D01*
X2672638Y4064000D01*
X2671673Y4073804D01*
X2669133Y4083253D01*
X2665018Y4092194D01*
X2659380Y4100220D01*
X2657805Y4101795D01*
X2655570Y4105097D01*
X2654808Y4109008D01*
X2654808Y4272991D01*
X2655570Y4276902D01*
X2657805Y4280204D01*
X2659380Y4281779D01*
X2665018Y4289806D01*
X2669133Y4298746D01*
X2671673Y4308195D01*
X2672638Y4318000D01*
X2671673Y4327804D01*
X2669133Y4337253D01*
X2665018Y4346194D01*
X2659380Y4354220D01*
X2657805Y4355795D01*
X2655570Y4359097D01*
X2654808Y4363008D01*
X2654808Y5034991D01*
X2655570Y5038902D01*
X2657805Y5042204D01*
X2659380Y5043779D01*
X2665018Y5051806D01*
X2669133Y5060746D01*
X2669895Y5063490D01*
X2671978Y5067503D01*
X2675636Y5070144D01*
X2680055Y5071008D01*
X2684373Y5069890D01*
X2687828Y5066944D01*
X2689656Y5062829D01*
X2691688Y5052568D01*
X2696159Y5039461D01*
X2702306Y5027066D01*
X2709976Y5015534D01*
X2719120Y5005120D01*
X2729534Y4995976D01*
X2741066Y4988306D01*
X2753461Y4982159D01*
X2766568Y4977688D01*
X2780182Y4974996D01*
X2794000Y4974082D01*
X2807817Y4974996D01*
X2821432Y4977688D01*
X2834538Y4982159D01*
X2846933Y4988306D01*
X2858465Y4995976D01*
X2868879Y5005120D01*
X2878023Y5015534D01*
X2885694Y5027066D01*
X2891840Y5039461D01*
X2896311Y5052568D01*
X2899003Y5066182D01*
X2899918Y5080000D01*
X2899003Y5093817D01*
X2896311Y5107432D01*
X2891840Y5120538D01*
X2885694Y5132933D01*
X2878023Y5144465D01*
X2868879Y5154879D01*
X2858465Y5164023D01*
X2846933Y5171694D01*
X2834538Y5177840D01*
X2821432Y5182311D01*
X2807817Y5185003D01*
X2794000Y5185918D01*
X2780182Y5185003D01*
X2766568Y5182311D01*
X2753461Y5177840D01*
X2741066Y5171694D01*
X2729534Y5164023D01*
X2719120Y5154879D01*
X2709976Y5144465D01*
X2702306Y5132933D01*
X2696159Y5120538D01*
X2691688Y5107432D01*
X2689656Y5097170D01*
X2687828Y5093055D01*
X2684373Y5090109D01*
X2680055Y5088991D01*
X2675636Y5089855D01*
X2671978Y5092496D01*
X2669895Y5096510D01*
X2669133Y5099253D01*
X2665018Y5108194D01*
X2659380Y5116220D01*
X2652420Y5123180D01*
X2644394Y5128818D01*
X2635453Y5132933D01*
X2626004Y5135473D01*
X2616200Y5136337D01*
X2606395Y5135473D01*
X2596946Y5132933D01*
X2588006Y5128818D01*
X2579979Y5123180D01*
X2573020Y5116220D01*
X2567381Y5108194D01*
X2563266Y5099253D01*
X2560726Y5089804D01*
X2559862Y5080000D01*
X2560726Y5070195D01*
X2563266Y5060746D01*
X2567381Y5051806D01*
X2573020Y5043779D01*
X2574594Y5042204D01*
X2576830Y5038902D01*
X2577592Y5034991D01*
X2577592Y4363008D01*
X2576830Y4359097D01*
X2574594Y4355795D01*
X2573020Y4354220D01*
X2567381Y4346194D01*
X2563266Y4337253D01*
X2560726Y4327804D01*
X2559862Y4318000D01*
X2560726Y4308195D01*
X2563266Y4298746D01*
X2567381Y4289806D01*
X2573020Y4281779D01*
X2574594Y4280204D01*
X2576830Y4276902D01*
X2577592Y4272991D01*
X2577592Y4109008D01*
X2576830Y4105097D01*
X2574594Y4101795D01*
X2573020Y4100220D01*
X2567381Y4092194D01*
X2563266Y4083253D01*
X2560726Y4073804D01*
X2559862Y4064000D01*
X2560726Y4054195D01*
X2563266Y4044746D01*
X2567381Y4035806D01*
X2573020Y4027779D01*
X2579979Y4020820D01*
X2588006Y4015181D01*
X2596946Y4011066D01*
X2606395Y4008526D01*
G37*
G36*
X2977083Y4057497D02*
G01*
X3035300Y4057497D01*
X3035300Y4108704D01*
X3036062Y4112615D01*
X3038297Y4115917D01*
X3041548Y4118101D01*
X3045460Y4118864D01*
X3050540Y4118864D01*
X3054451Y4118101D01*
X3057702Y4115917D01*
X3059938Y4112615D01*
X3060700Y4108704D01*
X3060700Y4057497D01*
X3118916Y4057497D01*
X3118916Y4084218D01*
X3118205Y4090568D01*
X3116275Y4096004D01*
X3113227Y4100931D01*
X3109112Y4104995D01*
X3107232Y4106214D01*
X3104286Y4109008D01*
X3102660Y4112768D01*
X3102660Y4116832D01*
X3104286Y4120591D01*
X3107232Y4123385D01*
X3109112Y4124604D01*
X3113227Y4128668D01*
X3116275Y4133596D01*
X3118205Y4139031D01*
X3118916Y4145381D01*
X3118916Y4224223D01*
X3118205Y4230522D01*
X3116275Y4236008D01*
X3113227Y4240885D01*
X3109112Y4245000D01*
X3103676Y4248404D01*
X3101136Y4250690D01*
X3099460Y4253687D01*
X3098901Y4257040D01*
X3098901Y4292092D01*
X3099866Y4296410D01*
X3100933Y4298746D01*
X3103473Y4308195D01*
X3104337Y4318000D01*
X3103473Y4327804D01*
X3100933Y4337253D01*
X3099866Y4339590D01*
X3098901Y4343908D01*
X3098901Y5092192D01*
X3099866Y5096510D01*
X3100933Y5098846D01*
X3103473Y5108295D01*
X3104337Y5118100D01*
X3103473Y5127904D01*
X3100933Y5137353D01*
X3099866Y5139690D01*
X3098901Y5144008D01*
X3098901Y5562092D01*
X3099866Y5566410D01*
X3100933Y5568746D01*
X3103473Y5578195D01*
X3104337Y5588000D01*
X3103473Y5597804D01*
X3100933Y5607253D01*
X3096818Y5616194D01*
X3091180Y5624220D01*
X3084220Y5631180D01*
X3076194Y5636818D01*
X3067253Y5640933D01*
X3057804Y5643473D01*
X3048000Y5644337D01*
X3038195Y5643473D01*
X3028746Y5640933D01*
X3019806Y5636818D01*
X3011779Y5631180D01*
X3004820Y5624220D01*
X2999181Y5616194D01*
X2995066Y5607253D01*
X2992526Y5597804D01*
X2991662Y5588000D01*
X2992526Y5578195D01*
X2995066Y5568746D01*
X2996133Y5566410D01*
X2997098Y5562092D01*
X2997098Y5144008D01*
X2996133Y5139690D01*
X2995066Y5137353D01*
X2992526Y5127904D01*
X2991662Y5118100D01*
X2992526Y5108295D01*
X2995066Y5098846D01*
X2996133Y5096510D01*
X2997098Y5092192D01*
X2997098Y4343908D01*
X2996133Y4339590D01*
X2995066Y4337253D01*
X2992526Y4327804D01*
X2991662Y4318000D01*
X2992526Y4308195D01*
X2995066Y4298746D01*
X2996133Y4296410D01*
X2997098Y4292092D01*
X2997098Y4257040D01*
X2996539Y4253687D01*
X2994863Y4250690D01*
X2992323Y4248404D01*
X2986887Y4245000D01*
X2982772Y4240885D01*
X2979724Y4236008D01*
X2977794Y4230522D01*
X2977083Y4224223D01*
X2977083Y4145381D01*
X2977794Y4139031D01*
X2979724Y4133596D01*
X2982772Y4128668D01*
X2986887Y4124604D01*
X2988767Y4123385D01*
X2991713Y4120591D01*
X2993339Y4116832D01*
X2993339Y4112768D01*
X2991713Y4109008D01*
X2988767Y4106214D01*
X2986887Y4104995D01*
X2982772Y4100931D01*
X2979724Y4096004D01*
X2977794Y4090568D01*
X2977083Y4084218D01*
G37*
G36*
X4219702Y4076700D02*
G01*
X4323435Y4076700D01*
X4320895Y4089603D01*
X4316730Y4101896D01*
X4310989Y4113479D01*
X4303826Y4124248D01*
X4295292Y4134002D01*
X4285538Y4142536D01*
X4274769Y4149699D01*
X4263136Y4155440D01*
X4250893Y4159605D01*
X4238193Y4162145D01*
X4224934Y4163009D01*
X4219702Y4163009D01*
G37*
G36*
X4090568Y4076700D02*
G01*
X4194301Y4076700D01*
X4194301Y4163009D01*
X4189069Y4163009D01*
X4175810Y4162145D01*
X4163110Y4159605D01*
X4150868Y4155440D01*
X4139234Y4149699D01*
X4128465Y4142536D01*
X4118711Y4134002D01*
X4110177Y4124248D01*
X4103014Y4113479D01*
X4097274Y4101896D01*
X4093108Y4089603D01*
G37*
G36*
X4559300Y4215892D02*
G01*
X4572914Y4216806D01*
X4586274Y4219549D01*
X4599178Y4224020D01*
X4611319Y4230166D01*
X4622546Y4237888D01*
X4632706Y4247032D01*
X4641494Y4257446D01*
X4648809Y4268927D01*
X4654550Y4281322D01*
X4658614Y4294327D01*
X4660849Y4307789D01*
X4661306Y4321403D01*
X4659985Y4334967D01*
X4656785Y4348226D01*
X4651908Y4360976D01*
X4645355Y4372914D01*
X4637278Y4383887D01*
X4627778Y4393692D01*
X4617059Y4402175D01*
X4605324Y4409135D01*
X4592777Y4414418D01*
X4579620Y4418025D01*
X4566107Y4419854D01*
X4552492Y4419854D01*
X4538980Y4418025D01*
X4525822Y4414418D01*
X4513275Y4409135D01*
X4501540Y4402175D01*
X4490821Y4393692D01*
X4481322Y4383887D01*
X4473244Y4372914D01*
X4466691Y4360976D01*
X4461814Y4348226D01*
X4458614Y4334967D01*
X4457293Y4321403D01*
X4457750Y4307789D01*
X4459986Y4294327D01*
X4464050Y4281322D01*
X4469790Y4268927D01*
X4477105Y4257446D01*
X4485894Y4247032D01*
X4496054Y4237888D01*
X4507280Y4230166D01*
X4519422Y4224020D01*
X4532325Y4219549D01*
X4545685Y4216806D01*
G37*
G36*
X4219702Y4218990D02*
G01*
X4224934Y4218990D01*
X4238193Y4219854D01*
X4250893Y4222394D01*
X4263136Y4226560D01*
X4274769Y4232249D01*
X4285538Y4239463D01*
X4295292Y4247997D01*
X4303826Y4257751D01*
X4310989Y4268520D01*
X4316730Y4280103D01*
X4320895Y4292396D01*
X4323435Y4305300D01*
X4219702Y4305300D01*
G37*
G36*
X3395065Y4218990D02*
G01*
X3400298Y4218990D01*
X3400298Y4305300D01*
X3296564Y4305300D01*
X3299104Y4292396D01*
X3303270Y4280103D01*
X3309010Y4268520D01*
X3316173Y4257751D01*
X3324707Y4247997D01*
X3334461Y4239463D01*
X3345230Y4232249D01*
X3356864Y4226560D01*
X3369106Y4222394D01*
X3381806Y4219854D01*
G37*
G36*
X4189069Y4218990D02*
G01*
X4194301Y4218990D01*
X4194301Y4305300D01*
X4090568Y4305300D01*
X4093108Y4292396D01*
X4097274Y4280103D01*
X4103014Y4268520D01*
X4110177Y4257751D01*
X4118711Y4247997D01*
X4128465Y4239463D01*
X4139234Y4232249D01*
X4150868Y4226560D01*
X4163110Y4222394D01*
X4175810Y4219854D01*
G37*
G36*
X2792069Y4218990D02*
G01*
X2827934Y4218990D01*
X2841193Y4219854D01*
X2853893Y4222394D01*
X2866136Y4226560D01*
X2877769Y4232249D01*
X2888538Y4239463D01*
X2898292Y4247997D01*
X2906826Y4257751D01*
X2913989Y4268520D01*
X2919730Y4280103D01*
X2923895Y4292396D01*
X2926435Y4305096D01*
X2927248Y4318000D01*
X2926435Y4330903D01*
X2923895Y4343603D01*
X2919730Y4355896D01*
X2913989Y4367479D01*
X2906826Y4378248D01*
X2898292Y4388002D01*
X2888538Y4396536D01*
X2877769Y4403699D01*
X2866136Y4409440D01*
X2853893Y4413605D01*
X2841193Y4416145D01*
X2827934Y4417009D01*
X2792069Y4417009D01*
X2778810Y4416145D01*
X2766110Y4413605D01*
X2753868Y4409440D01*
X2742234Y4403699D01*
X2731465Y4396536D01*
X2721711Y4388002D01*
X2713177Y4378248D01*
X2706014Y4367479D01*
X2700274Y4355896D01*
X2696108Y4343603D01*
X2693568Y4330903D01*
X2692755Y4318609D01*
X2693568Y4305096D01*
X2696108Y4292396D01*
X2700274Y4280103D01*
X2706014Y4268520D01*
X2713177Y4257751D01*
X2721711Y4247997D01*
X2731465Y4239463D01*
X2742234Y4232249D01*
X2753868Y4226560D01*
X2766110Y4222394D01*
X2778810Y4219854D01*
G37*
G36*
X1998065Y4218990D02*
G01*
X2033930Y4218990D01*
X2047189Y4219854D01*
X2059889Y4222394D01*
X2072132Y4226560D01*
X2083765Y4232249D01*
X2094534Y4239463D01*
X2104288Y4247997D01*
X2112822Y4257751D01*
X2119985Y4268520D01*
X2125726Y4280103D01*
X2129891Y4292396D01*
X2132431Y4305096D01*
X2133244Y4318000D01*
X2132431Y4330903D01*
X2129891Y4343603D01*
X2125726Y4355896D01*
X2119985Y4367479D01*
X2112822Y4378248D01*
X2104288Y4388002D01*
X2094534Y4396536D01*
X2083765Y4403699D01*
X2072132Y4409440D01*
X2059889Y4413605D01*
X2047189Y4416145D01*
X2033930Y4417009D01*
X1998065Y4417009D01*
X1984806Y4416145D01*
X1972106Y4413605D01*
X1959864Y4409440D01*
X1948230Y4403699D01*
X1937461Y4396536D01*
X1927707Y4388002D01*
X1919173Y4378248D01*
X1912010Y4367479D01*
X1906270Y4355896D01*
X1902104Y4343603D01*
X1899564Y4330903D01*
X1898751Y4318000D01*
X1899564Y4305096D01*
X1902104Y4292396D01*
X1906270Y4280103D01*
X1912010Y4268520D01*
X1919173Y4257751D01*
X1927707Y4247997D01*
X1937461Y4239463D01*
X1948230Y4232249D01*
X1959864Y4226560D01*
X1972106Y4222394D01*
X1984806Y4219854D01*
G37*
G36*
X4219702Y4330700D02*
G01*
X4323435Y4330700D01*
X4320895Y4343603D01*
X4316730Y4355896D01*
X4310989Y4367479D01*
X4303826Y4378248D01*
X4295292Y4388002D01*
X4285538Y4396536D01*
X4274769Y4403699D01*
X4263136Y4409440D01*
X4250893Y4413605D01*
X4238193Y4416145D01*
X4224934Y4417009D01*
X4219702Y4417009D01*
G37*
G36*
X4090568Y4330700D02*
G01*
X4194301Y4330700D01*
X4194301Y4417009D01*
X4189069Y4417009D01*
X4175810Y4416145D01*
X4163110Y4413605D01*
X4150868Y4409440D01*
X4139234Y4403699D01*
X4128465Y4396536D01*
X4118711Y4388002D01*
X4110177Y4378248D01*
X4103014Y4367479D01*
X4097274Y4355896D01*
X4093108Y4343603D01*
G37*
G36*
X3296564Y4330700D02*
G01*
X3400298Y4330700D01*
X3400298Y4417009D01*
X3395065Y4417009D01*
X3381806Y4416145D01*
X3369106Y4413605D01*
X3356864Y4409440D01*
X3345230Y4403699D01*
X3334461Y4396536D01*
X3324707Y4388002D01*
X3316173Y4378248D01*
X3309010Y4367479D01*
X3303270Y4355896D01*
X3299104Y4343603D01*
G37*
G36*
X4559300Y4469892D02*
G01*
X4572914Y4470806D01*
X4586274Y4473549D01*
X4599178Y4478020D01*
X4611319Y4484166D01*
X4622546Y4491888D01*
X4632706Y4501032D01*
X4641494Y4511446D01*
X4648809Y4522927D01*
X4654550Y4535322D01*
X4658614Y4548327D01*
X4660849Y4561789D01*
X4661306Y4575403D01*
X4659985Y4588967D01*
X4656785Y4602226D01*
X4651908Y4614976D01*
X4645355Y4626914D01*
X4637278Y4637887D01*
X4627778Y4647692D01*
X4617059Y4656175D01*
X4605324Y4663135D01*
X4592777Y4668418D01*
X4579620Y4672025D01*
X4566107Y4673854D01*
X4552492Y4673854D01*
X4538980Y4672025D01*
X4525822Y4668418D01*
X4513275Y4663135D01*
X4501540Y4656175D01*
X4490821Y4647692D01*
X4481322Y4637887D01*
X4473244Y4626914D01*
X4466691Y4614976D01*
X4461814Y4602226D01*
X4458614Y4588967D01*
X4457293Y4575403D01*
X4457750Y4561789D01*
X4459986Y4548327D01*
X4464050Y4535322D01*
X4469790Y4522927D01*
X4477105Y4511446D01*
X4485894Y4501032D01*
X4496054Y4491888D01*
X4507280Y4484166D01*
X4519422Y4478020D01*
X4532325Y4473549D01*
X4545685Y4470806D01*
G37*
G36*
X4219702Y4472990D02*
G01*
X4224934Y4472990D01*
X4238193Y4473854D01*
X4250893Y4476394D01*
X4263136Y4480560D01*
X4274769Y4486249D01*
X4285538Y4493463D01*
X4295292Y4501997D01*
X4303826Y4511751D01*
X4310989Y4522520D01*
X4316730Y4534103D01*
X4320895Y4546396D01*
X4323435Y4559300D01*
X4219702Y4559300D01*
G37*
G36*
X4189069Y4472990D02*
G01*
X4194301Y4472990D01*
X4194301Y4559300D01*
X4090568Y4559300D01*
X4093108Y4546396D01*
X4097274Y4534103D01*
X4103014Y4522520D01*
X4110177Y4511751D01*
X4118711Y4501997D01*
X4128465Y4493463D01*
X4139234Y4486249D01*
X4150868Y4480560D01*
X4163110Y4476394D01*
X4175810Y4473854D01*
G37*
G36*
X3395065Y4472990D02*
G01*
X3400298Y4472990D01*
X3400298Y4559300D01*
X3296564Y4559300D01*
X3299104Y4546396D01*
X3303270Y4534103D01*
X3309010Y4522520D01*
X3316173Y4511751D01*
X3324707Y4501997D01*
X3334461Y4493463D01*
X3345230Y4486249D01*
X3356864Y4480560D01*
X3369106Y4476394D01*
X3381806Y4473854D01*
G37*
G36*
X3296564Y4584700D02*
G01*
X3400298Y4584700D01*
X3400298Y4671009D01*
X3395065Y4671009D01*
X3381806Y4670145D01*
X3369106Y4667605D01*
X3356864Y4663440D01*
X3345230Y4657699D01*
X3334461Y4650536D01*
X3324707Y4642002D01*
X3316173Y4632248D01*
X3309010Y4621479D01*
X3303270Y4609896D01*
X3299104Y4597603D01*
G37*
G36*
X4219702Y4584700D02*
G01*
X4323435Y4584700D01*
X4320895Y4597603D01*
X4316730Y4609896D01*
X4310989Y4621479D01*
X4303826Y4632248D01*
X4295292Y4642002D01*
X4285538Y4650536D01*
X4274769Y4657699D01*
X4263136Y4663440D01*
X4250893Y4667605D01*
X4238193Y4670145D01*
X4224934Y4671009D01*
X4219702Y4671009D01*
G37*
G36*
X4090568Y4584700D02*
G01*
X4194301Y4584700D01*
X4194301Y4671009D01*
X4189069Y4671009D01*
X4175810Y4670145D01*
X4163110Y4667605D01*
X4150868Y4663440D01*
X4139234Y4657699D01*
X4128465Y4650536D01*
X4118711Y4642002D01*
X4110177Y4632248D01*
X4103014Y4621479D01*
X4097274Y4609896D01*
X4093108Y4597603D01*
G37*
G36*
X2794000Y4720082D02*
G01*
X2807817Y4720996D01*
X2821432Y4723688D01*
X2834538Y4728159D01*
X2846933Y4734306D01*
X2858465Y4741976D01*
X2868879Y4751120D01*
X2878023Y4761534D01*
X2885694Y4773066D01*
X2891840Y4785461D01*
X2896311Y4798568D01*
X2899003Y4812182D01*
X2899918Y4826000D01*
X2899003Y4839817D01*
X2896311Y4853432D01*
X2891840Y4866538D01*
X2885694Y4878933D01*
X2878023Y4890465D01*
X2868879Y4900879D01*
X2858465Y4910023D01*
X2846933Y4917694D01*
X2834538Y4923840D01*
X2821432Y4928311D01*
X2807817Y4931003D01*
X2794000Y4931918D01*
X2780182Y4931003D01*
X2766568Y4928311D01*
X2753461Y4923840D01*
X2741066Y4917694D01*
X2729534Y4910023D01*
X2719120Y4900879D01*
X2709976Y4890465D01*
X2702306Y4878933D01*
X2696159Y4866538D01*
X2691688Y4853432D01*
X2688996Y4839817D01*
X2688082Y4826000D01*
X2688996Y4812182D01*
X2691688Y4798568D01*
X2696159Y4785461D01*
X2702306Y4773066D01*
X2709976Y4761534D01*
X2719120Y4751120D01*
X2729534Y4741976D01*
X2741066Y4734306D01*
X2753461Y4728159D01*
X2766568Y4723688D01*
X2780182Y4720996D01*
G37*
G36*
X2044700Y4720945D02*
G01*
X2045817Y4720996D01*
X2059432Y4723688D01*
X2072538Y4728159D01*
X2084933Y4734306D01*
X2096465Y4741976D01*
X2106879Y4751120D01*
X2116023Y4761534D01*
X2123694Y4773066D01*
X2129840Y4785461D01*
X2134311Y4798568D01*
X2137003Y4812182D01*
X2137054Y4813300D01*
X2044700Y4813300D01*
G37*
G36*
X2019300Y4720945D02*
G01*
X2019300Y4813300D01*
X1926945Y4813300D01*
X1926996Y4812182D01*
X1929688Y4798568D01*
X1934159Y4785461D01*
X1940306Y4773066D01*
X1947976Y4761534D01*
X1957120Y4751120D01*
X1967534Y4741976D01*
X1979066Y4734306D01*
X1991461Y4728159D01*
X2004568Y4723688D01*
X2018182Y4720996D01*
G37*
G36*
X4483658Y4723892D02*
G01*
X4546600Y4723892D01*
X4546600Y4813300D01*
X4457192Y4813300D01*
X4457192Y4750358D01*
X4457903Y4744059D01*
X4459833Y4738573D01*
X4462881Y4733696D01*
X4466996Y4729581D01*
X4471873Y4726533D01*
X4477359Y4724603D01*
G37*
G36*
X4572000Y4723892D02*
G01*
X4634941Y4723892D01*
X4641240Y4724603D01*
X4646726Y4726533D01*
X4651603Y4729581D01*
X4655718Y4733696D01*
X4658766Y4738573D01*
X4660696Y4744059D01*
X4661408Y4750358D01*
X4661408Y4813300D01*
X4572000Y4813300D01*
G37*
G36*
X3395065Y4726990D02*
G01*
X3400298Y4726990D01*
X3400298Y4813300D01*
X3296564Y4813300D01*
X3299104Y4800396D01*
X3303270Y4788103D01*
X3309010Y4776520D01*
X3316173Y4765751D01*
X3324707Y4755997D01*
X3334461Y4747463D01*
X3345230Y4740249D01*
X3356864Y4734560D01*
X3369106Y4730394D01*
X3381806Y4727854D01*
G37*
G36*
X4189069Y4726990D02*
G01*
X4224934Y4726990D01*
X4238193Y4727854D01*
X4250893Y4730394D01*
X4263136Y4734560D01*
X4274769Y4740249D01*
X4285538Y4747463D01*
X4295292Y4755997D01*
X4303826Y4765751D01*
X4310989Y4776520D01*
X4316730Y4788103D01*
X4320895Y4800396D01*
X4323435Y4813096D01*
X4324248Y4826000D01*
X4323435Y4838903D01*
X4320895Y4851603D01*
X4316730Y4863896D01*
X4310989Y4875479D01*
X4303826Y4886248D01*
X4295292Y4896002D01*
X4285538Y4904536D01*
X4274769Y4911699D01*
X4263593Y4917236D01*
X4260596Y4919472D01*
X4258614Y4922672D01*
X4257903Y4926330D01*
X4257903Y5092192D01*
X4258868Y5096459D01*
X4259935Y5098846D01*
X4262475Y5108295D01*
X4263339Y5118100D01*
X4262475Y5127904D01*
X4259935Y5137353D01*
X4255820Y5146294D01*
X4250182Y5154320D01*
X4248607Y5155895D01*
X4246372Y5159197D01*
X4245610Y5163108D01*
X4245610Y5320995D01*
X4246372Y5324906D01*
X4248607Y5328208D01*
X4250182Y5329783D01*
X4255820Y5337810D01*
X4259935Y5346750D01*
X4262475Y5356199D01*
X4263339Y5366004D01*
X4262475Y5375808D01*
X4259935Y5385257D01*
X4255820Y5394198D01*
X4250182Y5402224D01*
X4248607Y5403799D01*
X4246372Y5407101D01*
X4245610Y5411012D01*
X4245610Y5606491D01*
X4246372Y5610402D01*
X4248607Y5613704D01*
X4250182Y5615279D01*
X4255820Y5623306D01*
X4259935Y5632246D01*
X4262475Y5641695D01*
X4263339Y5651500D01*
X4262475Y5661304D01*
X4259935Y5670753D01*
X4255820Y5679694D01*
X4250182Y5687720D01*
X4243222Y5694680D01*
X4235196Y5700318D01*
X4226255Y5704433D01*
X4216806Y5706973D01*
X4207002Y5707837D01*
X4197197Y5706973D01*
X4187748Y5704433D01*
X4178808Y5700318D01*
X4170781Y5694680D01*
X4163822Y5687720D01*
X4158183Y5679694D01*
X4154068Y5670753D01*
X4151528Y5661304D01*
X4150664Y5651500D01*
X4151528Y5641695D01*
X4154068Y5632246D01*
X4158183Y5623306D01*
X4163822Y5615279D01*
X4165396Y5613704D01*
X4167632Y5610402D01*
X4168394Y5606491D01*
X4168394Y5411012D01*
X4167632Y5407101D01*
X4165396Y5403799D01*
X4163822Y5402224D01*
X4158183Y5394198D01*
X4154068Y5385257D01*
X4151528Y5375808D01*
X4150664Y5366004D01*
X4151528Y5356199D01*
X4154068Y5346750D01*
X4158183Y5337810D01*
X4163822Y5329783D01*
X4165396Y5328208D01*
X4167632Y5324906D01*
X4168394Y5320995D01*
X4168394Y5163108D01*
X4167632Y5159197D01*
X4165396Y5155895D01*
X4163822Y5154320D01*
X4158183Y5146294D01*
X4154068Y5137353D01*
X4151528Y5127904D01*
X4150664Y5118100D01*
X4151528Y5108295D01*
X4154068Y5098846D01*
X4155135Y5096510D01*
X4156100Y5092192D01*
X4156100Y4926330D01*
X4155389Y4922672D01*
X4153408Y4919472D01*
X4150410Y4917236D01*
X4139234Y4911699D01*
X4128465Y4904536D01*
X4118711Y4896002D01*
X4110177Y4886248D01*
X4106976Y4881422D01*
X4104690Y4878984D01*
X4101795Y4877460D01*
X4098493Y4876901D01*
X4066540Y4876901D01*
X4063187Y4877460D01*
X4060190Y4879136D01*
X4057904Y4881676D01*
X4054500Y4887112D01*
X4050385Y4891227D01*
X4045508Y4894275D01*
X4040022Y4896205D01*
X4033723Y4896916D01*
X3954881Y4896916D01*
X3948531Y4896205D01*
X3943096Y4894275D01*
X3938168Y4891227D01*
X3934104Y4887112D01*
X3932885Y4885232D01*
X3930091Y4882286D01*
X3926332Y4880660D01*
X3922268Y4880660D01*
X3918508Y4882286D01*
X3915714Y4885232D01*
X3914495Y4887112D01*
X3910431Y4891227D01*
X3905504Y4894275D01*
X3900068Y4896205D01*
X3893718Y4896916D01*
X3866997Y4896916D01*
X3866997Y4838700D01*
X3918204Y4838700D01*
X3922115Y4837938D01*
X3925417Y4835702D01*
X3927601Y4832451D01*
X3928364Y4828540D01*
X3928364Y4823460D01*
X3927601Y4819548D01*
X3925417Y4816297D01*
X3922115Y4814062D01*
X3918204Y4813300D01*
X3866997Y4813300D01*
X3866997Y4755083D01*
X3893718Y4755083D01*
X3900068Y4755794D01*
X3905504Y4757724D01*
X3910431Y4760772D01*
X3914495Y4764887D01*
X3915714Y4766767D01*
X3918508Y4769713D01*
X3922268Y4771339D01*
X3926332Y4771339D01*
X3930091Y4769713D01*
X3932885Y4766767D01*
X3934104Y4764887D01*
X3938168Y4760772D01*
X3943096Y4757724D01*
X3948531Y4755794D01*
X3954881Y4755083D01*
X4033723Y4755083D01*
X4040022Y4755794D01*
X4045508Y4757724D01*
X4050385Y4760772D01*
X4054500Y4764887D01*
X4057904Y4770323D01*
X4060190Y4772863D01*
X4063187Y4774539D01*
X4066540Y4775098D01*
X4098493Y4775098D01*
X4101795Y4774539D01*
X4104690Y4773015D01*
X4106976Y4770577D01*
X4110177Y4765751D01*
X4118711Y4755997D01*
X4128465Y4747463D01*
X4139234Y4740249D01*
X4150868Y4734560D01*
X4163110Y4730394D01*
X4175810Y4727854D01*
G37*
G36*
X3814876Y4755083D02*
G01*
X3841597Y4755083D01*
X3841597Y4813300D01*
X3788410Y4813300D01*
X3788410Y4781550D01*
X3789121Y4775250D01*
X3791000Y4769764D01*
X3794099Y4764887D01*
X3798214Y4760772D01*
X3803091Y4757724D01*
X3808577Y4755794D01*
G37*
G36*
X3788410Y4838700D02*
G01*
X3841597Y4838700D01*
X3841597Y4896916D01*
X3814876Y4896916D01*
X3808577Y4896205D01*
X3803091Y4894275D01*
X3798214Y4891227D01*
X3794099Y4887112D01*
X3791000Y4882235D01*
X3789121Y4876749D01*
X3788410Y4870450D01*
G37*
G36*
X4457192Y4838700D02*
G01*
X4546600Y4838700D01*
X4546600Y4928108D01*
X4483658Y4928108D01*
X4477359Y4927396D01*
X4471873Y4925466D01*
X4466996Y4922418D01*
X4462881Y4918303D01*
X4459833Y4913426D01*
X4457903Y4907940D01*
X4457192Y4901641D01*
G37*
G36*
X4572000Y4838700D02*
G01*
X4661408Y4838700D01*
X4661408Y4901641D01*
X4660696Y4907940D01*
X4658766Y4913426D01*
X4655718Y4918303D01*
X4651603Y4922418D01*
X4646726Y4925466D01*
X4641240Y4927396D01*
X4634941Y4928108D01*
X4572000Y4928108D01*
G37*
G36*
X1926945Y4838700D02*
G01*
X2019300Y4838700D01*
X2019300Y4931054D01*
X2018182Y4931003D01*
X2004568Y4928311D01*
X1991461Y4923840D01*
X1979066Y4917694D01*
X1967534Y4910023D01*
X1957120Y4900879D01*
X1947976Y4890465D01*
X1940306Y4878933D01*
X1934159Y4866538D01*
X1929688Y4853432D01*
X1926996Y4839817D01*
G37*
G36*
X2044700Y4838700D02*
G01*
X2137054Y4838700D01*
X2137003Y4839817D01*
X2134311Y4853432D01*
X2129840Y4866538D01*
X2123694Y4878933D01*
X2116023Y4890465D01*
X2106879Y4900879D01*
X2096465Y4910023D01*
X2084933Y4917694D01*
X2072538Y4923840D01*
X2059432Y4928311D01*
X2045817Y4931003D01*
X2044700Y4931054D01*
G37*
G36*
X3296564Y4838700D02*
G01*
X3400298Y4838700D01*
X3400298Y4925009D01*
X3395065Y4925009D01*
X3381806Y4924145D01*
X3369106Y4921605D01*
X3356864Y4917440D01*
X3345230Y4911699D01*
X3334461Y4904536D01*
X3324707Y4896002D01*
X3316173Y4886248D01*
X3309010Y4875479D01*
X3303270Y4863896D01*
X3299104Y4851603D01*
G37*
G36*
X2032000Y4974082D02*
G01*
X2045817Y4974996D01*
X2059432Y4977688D01*
X2072538Y4982159D01*
X2084933Y4988306D01*
X2096465Y4995976D01*
X2106879Y5005120D01*
X2116023Y5015534D01*
X2123694Y5027066D01*
X2129840Y5039461D01*
X2134311Y5052568D01*
X2137003Y5066182D01*
X2137918Y5080000D01*
X2137003Y5093817D01*
X2134311Y5107432D01*
X2129840Y5120538D01*
X2123694Y5132933D01*
X2116023Y5144465D01*
X2106879Y5154879D01*
X2096465Y5164023D01*
X2084933Y5171694D01*
X2072538Y5177840D01*
X2059432Y5182311D01*
X2045817Y5185003D01*
X2032000Y5185918D01*
X2018182Y5185003D01*
X2004568Y5182311D01*
X1991461Y5177840D01*
X1979066Y5171694D01*
X1967534Y5164023D01*
X1957120Y5154879D01*
X1947976Y5144465D01*
X1940306Y5132933D01*
X1934159Y5120538D01*
X1929688Y5107432D01*
X1926996Y5093817D01*
X1926082Y5080000D01*
X1926996Y5066182D01*
X1929688Y5052568D01*
X1934159Y5039461D01*
X1940306Y5027066D01*
X1947976Y5015534D01*
X1957120Y5005120D01*
X1967534Y4995976D01*
X1979066Y4988306D01*
X1991461Y4982159D01*
X2004568Y4977688D01*
X2018182Y4974996D01*
G37*
G36*
X2222500Y5023662D02*
G01*
X2232304Y5024526D01*
X2241753Y5027066D01*
X2250694Y5031181D01*
X2258720Y5036820D01*
X2265680Y5043779D01*
X2271318Y5051806D01*
X2275433Y5060746D01*
X2277973Y5070195D01*
X2278837Y5080000D01*
X2277973Y5089804D01*
X2275433Y5099253D01*
X2271318Y5108194D01*
X2265680Y5116220D01*
X2264105Y5117795D01*
X2261870Y5121097D01*
X2261108Y5125008D01*
X2261108Y5542991D01*
X2261870Y5546902D01*
X2264105Y5550204D01*
X2265680Y5551779D01*
X2271318Y5559806D01*
X2275433Y5568746D01*
X2277973Y5578195D01*
X2278837Y5588000D01*
X2277973Y5597804D01*
X2275433Y5607253D01*
X2271318Y5616194D01*
X2265680Y5624220D01*
X2258720Y5631180D01*
X2250694Y5636818D01*
X2241753Y5640933D01*
X2232304Y5643473D01*
X2222500Y5644337D01*
X2212695Y5643473D01*
X2203246Y5640933D01*
X2194306Y5636818D01*
X2186279Y5631180D01*
X2179320Y5624220D01*
X2173681Y5616194D01*
X2169566Y5607253D01*
X2167026Y5597804D01*
X2166162Y5588000D01*
X2167026Y5578195D01*
X2169566Y5568746D01*
X2173681Y5559806D01*
X2179320Y5551779D01*
X2180894Y5550204D01*
X2183130Y5546902D01*
X2183892Y5542991D01*
X2183892Y5125008D01*
X2183130Y5121097D01*
X2180894Y5117795D01*
X2179320Y5116220D01*
X2173681Y5108194D01*
X2169566Y5099253D01*
X2167026Y5089804D01*
X2166162Y5080000D01*
X2167026Y5070195D01*
X2169566Y5060746D01*
X2173681Y5051806D01*
X2179320Y5043779D01*
X2186279Y5036820D01*
X2194306Y5031181D01*
X2203246Y5027066D01*
X2212695Y5024526D01*
G37*
G36*
X5448300Y5185562D02*
G01*
X5448300Y5448300D01*
X5185664Y5448300D01*
X5186070Y5437936D01*
X5188966Y5414975D01*
X5193792Y5392369D01*
X5200446Y5370271D01*
X5208981Y5348782D01*
X5219242Y5328107D01*
X5231180Y5308295D01*
X5244795Y5289600D01*
X5259882Y5272125D01*
X5276392Y5255971D01*
X5294172Y5241239D01*
X5313172Y5228031D01*
X5333187Y5216499D01*
X5354066Y5206644D01*
X5375757Y5198618D01*
X5398008Y5192369D01*
X5420715Y5188051D01*
X5443677Y5185664D01*
G37*
G36*
X368300Y5185562D02*
G01*
X368300Y5448300D01*
X105664Y5448300D01*
X106070Y5437936D01*
X108966Y5414975D01*
X113792Y5392369D01*
X120446Y5370271D01*
X128981Y5348782D01*
X139242Y5328107D01*
X151180Y5308295D01*
X164795Y5289600D01*
X179882Y5272125D01*
X196392Y5255971D01*
X214172Y5241239D01*
X233171Y5228031D01*
X253187Y5216499D01*
X274066Y5206644D01*
X295757Y5198618D01*
X318008Y5192369D01*
X340715Y5188051D01*
X363677Y5185664D01*
G37*
G36*
X5473700Y5185613D02*
G01*
X5489854Y5186629D01*
X5512714Y5189982D01*
X5535218Y5195265D01*
X5557164Y5202428D01*
X5578500Y5211368D01*
X5598972Y5222087D01*
X5618480Y5234432D01*
X5636869Y5248402D01*
X5654040Y5263896D01*
X5669838Y5280710D01*
X5684215Y5298846D01*
X5697016Y5318099D01*
X5708142Y5338318D01*
X5717540Y5359450D01*
X5725109Y5381244D01*
X5730849Y5403646D01*
X5734710Y5426405D01*
X5736590Y5448300D01*
X5473700Y5448300D01*
G37*
G36*
X393700Y5185613D02*
G01*
X409854Y5186629D01*
X432714Y5189982D01*
X455218Y5195265D01*
X477164Y5202428D01*
X498500Y5211368D01*
X518972Y5222087D01*
X538480Y5234432D01*
X556869Y5248402D01*
X574040Y5263896D01*
X589838Y5280710D01*
X604215Y5298846D01*
X617016Y5318099D01*
X628142Y5338318D01*
X637540Y5359450D01*
X645109Y5381244D01*
X650849Y5403646D01*
X654710Y5426405D01*
X656590Y5448300D01*
X393700Y5448300D01*
G37*
G36*
X2019300Y5228945D02*
G01*
X2019300Y5321300D01*
X1926945Y5321300D01*
X1926996Y5320182D01*
X1929688Y5306568D01*
X1934159Y5293461D01*
X1940306Y5281066D01*
X1947976Y5269534D01*
X1957120Y5259120D01*
X1967534Y5249976D01*
X1979066Y5242306D01*
X1991461Y5236159D01*
X2004568Y5231688D01*
X2018182Y5228996D01*
G37*
G36*
X2806700Y5228945D02*
G01*
X2807817Y5228996D01*
X2821432Y5231688D01*
X2834538Y5236159D01*
X2846933Y5242306D01*
X2858465Y5249976D01*
X2868879Y5259120D01*
X2878023Y5269534D01*
X2885694Y5281066D01*
X2891840Y5293461D01*
X2896311Y5306568D01*
X2899003Y5320182D01*
X2899054Y5321300D01*
X2806700Y5321300D01*
G37*
G36*
X2044700Y5228945D02*
G01*
X2045817Y5228996D01*
X2059432Y5231688D01*
X2072538Y5236159D01*
X2084933Y5242306D01*
X2096465Y5249976D01*
X2106879Y5259120D01*
X2116023Y5269534D01*
X2123694Y5281066D01*
X2129840Y5293461D01*
X2134311Y5306568D01*
X2137003Y5320182D01*
X2137054Y5321300D01*
X2044700Y5321300D01*
G37*
G36*
X2781300Y5228945D02*
G01*
X2781300Y5321300D01*
X2688945Y5321300D01*
X2688996Y5320182D01*
X2691688Y5306568D01*
X2696159Y5293461D01*
X2702306Y5281066D01*
X2709976Y5269534D01*
X2719120Y5259120D01*
X2729534Y5249976D01*
X2741066Y5242306D01*
X2753461Y5236159D01*
X2766568Y5231688D01*
X2780182Y5228996D01*
G37*
G36*
X1926945Y5346700D02*
G01*
X2019300Y5346700D01*
X2019300Y5439054D01*
X2018182Y5439003D01*
X2004568Y5436311D01*
X1991461Y5431840D01*
X1979066Y5425694D01*
X1967534Y5418023D01*
X1957120Y5408879D01*
X1947976Y5398465D01*
X1940306Y5386933D01*
X1934159Y5374538D01*
X1929688Y5361432D01*
X1926996Y5347817D01*
G37*
G36*
X2688945Y5346700D02*
G01*
X2781300Y5346700D01*
X2781300Y5439054D01*
X2780182Y5439003D01*
X2766568Y5436311D01*
X2753461Y5431840D01*
X2741066Y5425694D01*
X2729534Y5418023D01*
X2719120Y5408879D01*
X2709976Y5398465D01*
X2702306Y5386933D01*
X2696159Y5374538D01*
X2691688Y5361432D01*
X2688996Y5347817D01*
G37*
G36*
X2806700Y5346700D02*
G01*
X2899054Y5346700D01*
X2899003Y5347817D01*
X2896311Y5361432D01*
X2891840Y5374538D01*
X2885694Y5386933D01*
X2878023Y5398465D01*
X2868879Y5408879D01*
X2858465Y5418023D01*
X2846933Y5425694D01*
X2834538Y5431840D01*
X2821432Y5436311D01*
X2807817Y5439003D01*
X2806700Y5439054D01*
G37*
G36*
X2044700Y5346700D02*
G01*
X2137054Y5346700D01*
X2137003Y5347817D01*
X2134311Y5361432D01*
X2129840Y5374538D01*
X2123694Y5386933D01*
X2116023Y5398465D01*
X2106879Y5408879D01*
X2096465Y5418023D01*
X2084933Y5425694D01*
X2072538Y5431840D01*
X2059432Y5436311D01*
X2045817Y5439003D01*
X2044700Y5439054D01*
G37*
G36*
X5185664Y5473700D02*
G01*
X5448300Y5473700D01*
X5448300Y5736437D01*
X5443677Y5736336D01*
X5420715Y5733948D01*
X5398008Y5729630D01*
X5375757Y5723382D01*
X5354066Y5715355D01*
X5333187Y5705500D01*
X5313172Y5693968D01*
X5294172Y5680760D01*
X5276392Y5666028D01*
X5259882Y5649874D01*
X5244795Y5632348D01*
X5231180Y5613704D01*
X5219242Y5593892D01*
X5208981Y5573217D01*
X5200446Y5551728D01*
X5193792Y5529630D01*
X5188966Y5507024D01*
X5186070Y5484063D01*
G37*
G36*
X105664Y5473700D02*
G01*
X368300Y5473700D01*
X368300Y5736437D01*
X363677Y5736336D01*
X340715Y5733948D01*
X318008Y5729630D01*
X295757Y5723382D01*
X274066Y5715355D01*
X253187Y5705500D01*
X233171Y5693968D01*
X214172Y5680760D01*
X196392Y5666028D01*
X179882Y5649874D01*
X164795Y5632348D01*
X151180Y5613704D01*
X139242Y5593892D01*
X128981Y5573217D01*
X120446Y5551728D01*
X113792Y5529630D01*
X108966Y5507024D01*
X106070Y5484063D01*
G37*
G36*
X5473700Y5473700D02*
G01*
X5736590Y5473700D01*
X5734710Y5495594D01*
X5730849Y5518353D01*
X5725109Y5540756D01*
X5717540Y5562549D01*
X5708142Y5583682D01*
X5697016Y5603900D01*
X5684215Y5623153D01*
X5669838Y5641289D01*
X5654040Y5658104D01*
X5636869Y5673598D01*
X5618480Y5687568D01*
X5598972Y5699912D01*
X5578500Y5710631D01*
X5557164Y5719572D01*
X5535218Y5726734D01*
X5512714Y5732018D01*
X5489854Y5735370D01*
X5473700Y5736386D01*
G37*
G36*
X4219702Y3964990D02*
G01*
X4224934Y3964990D01*
X4238193Y3965854D01*
X4250893Y3968394D01*
X4263136Y3972560D01*
X4274769Y3978249D01*
X4285538Y3985463D01*
X4295292Y3993997D01*
X4303826Y4003751D01*
X4310989Y4014520D01*
X4316730Y4026103D01*
X4320895Y4038396D01*
X4323435Y4051300D01*
X4219702Y4051300D01*
G37*

%LPD*%
G36*
X3454400Y483108D02*
G01*
X3450590Y483819D01*
X3447338Y485901D01*
X3445154Y489102D01*
X3438855Y503021D01*
X3430981Y516026D01*
X3421634Y527964D01*
X3410864Y538734D01*
X3398926Y548081D01*
X3385921Y555955D01*
X3372002Y562203D01*
X3368852Y564438D01*
X3366719Y567690D01*
X3366008Y571500D01*
X3366008Y856691D01*
X3366770Y860602D01*
X3369005Y863904D01*
X3370579Y865479D01*
X3376218Y873506D01*
X3380333Y882446D01*
X3382873Y891895D01*
X3383737Y901700D01*
X3382873Y911504D01*
X3380333Y920953D01*
X3376218Y929894D01*
X3370579Y937920D01*
X3363620Y944880D01*
X3355594Y950518D01*
X3346653Y954633D01*
X3337204Y957173D01*
X3327400Y958037D01*
X3317595Y957173D01*
X3307587Y954532D01*
X3303727Y954227D01*
X3300069Y955446D01*
X3297072Y957935D01*
X3295243Y961339D01*
X3293973Y975004D01*
X3291433Y984453D01*
X3287318Y993394D01*
X3281679Y1001420D01*
X3280105Y1002995D01*
X3277870Y1006297D01*
X3277108Y1010208D01*
X3277108Y2013864D01*
X3277971Y2017979D01*
X3280968Y2021687D01*
X3280105Y2022297D01*
X3277870Y2025599D01*
X3277108Y2029460D01*
X3277108Y2034539D01*
X3277870Y2038451D01*
X3280511Y2042566D01*
X3277971Y2046020D01*
X3277108Y2050135D01*
X3277108Y2267864D01*
X3277971Y2271979D01*
X3280511Y2275433D01*
X3284169Y2277516D01*
X3288385Y2277922D01*
X3292449Y2276602D01*
X3295548Y2273706D01*
X3297224Y2269845D01*
X3299104Y2260396D01*
X3303270Y2248103D01*
X3309010Y2236520D01*
X3316173Y2225751D01*
X3324707Y2215997D01*
X3334461Y2207463D01*
X3345230Y2200300D01*
X3356864Y2194560D01*
X3369106Y2190394D01*
X3381806Y2187854D01*
X3395065Y2186990D01*
X3430930Y2186990D01*
X3444189Y2187854D01*
X3456889Y2190394D01*
X3469132Y2194560D01*
X3480765Y2200300D01*
X3491534Y2207463D01*
X3501288Y2215997D01*
X3509822Y2225751D01*
X3516985Y2236520D01*
X3522726Y2248103D01*
X3526891Y2260396D01*
X3529431Y2273096D01*
X3530244Y2286000D01*
X3529431Y2298903D01*
X3526891Y2311603D01*
X3522726Y2323896D01*
X3516985Y2335479D01*
X3509822Y2346248D01*
X3501288Y2356002D01*
X3491534Y2364536D01*
X3480765Y2371750D01*
X3469132Y2377440D01*
X3456889Y2381605D01*
X3444189Y2384145D01*
X3430930Y2385009D01*
X3395065Y2385009D01*
X3381806Y2384145D01*
X3369106Y2381605D01*
X3356864Y2377440D01*
X3345230Y2371750D01*
X3334461Y2364536D01*
X3324707Y2356002D01*
X3316173Y2346248D01*
X3309010Y2335479D01*
X3303270Y2323896D01*
X3299104Y2311603D01*
X3297224Y2302154D01*
X3295548Y2298293D01*
X3292449Y2295398D01*
X3288385Y2294077D01*
X3284169Y2294483D01*
X3280511Y2296566D01*
X3277971Y2300020D01*
X3277108Y2304135D01*
X3277108Y2521864D01*
X3277971Y2525979D01*
X3280511Y2529433D01*
X3284169Y2531516D01*
X3288385Y2531922D01*
X3292449Y2530602D01*
X3295548Y2527706D01*
X3297224Y2523845D01*
X3299104Y2514396D01*
X3303270Y2502103D01*
X3309010Y2490520D01*
X3316173Y2479751D01*
X3324707Y2469997D01*
X3334461Y2461463D01*
X3345230Y2454300D01*
X3356864Y2448560D01*
X3369106Y2444394D01*
X3381806Y2441854D01*
X3395065Y2440990D01*
X3430930Y2440990D01*
X3444189Y2441854D01*
X3456889Y2444394D01*
X3469132Y2448560D01*
X3480765Y2454300D01*
X3491534Y2461463D01*
X3501288Y2469997D01*
X3509822Y2479751D01*
X3516985Y2490520D01*
X3522726Y2502103D01*
X3526891Y2514396D01*
X3529431Y2527096D01*
X3530244Y2540000D01*
X3529431Y2552903D01*
X3526891Y2565603D01*
X3522726Y2577896D01*
X3516985Y2589479D01*
X3509822Y2600248D01*
X3501288Y2610002D01*
X3491534Y2618536D01*
X3480765Y2625750D01*
X3469132Y2631440D01*
X3456889Y2635605D01*
X3444189Y2638145D01*
X3430930Y2639009D01*
X3395065Y2639009D01*
X3381806Y2638145D01*
X3369106Y2635605D01*
X3356864Y2631440D01*
X3345230Y2625750D01*
X3334461Y2618536D01*
X3324707Y2610002D01*
X3316173Y2600248D01*
X3309010Y2589479D01*
X3303270Y2577896D01*
X3299104Y2565603D01*
X3297224Y2556154D01*
X3295548Y2552293D01*
X3292449Y2549398D01*
X3288385Y2548077D01*
X3284169Y2548483D01*
X3280511Y2550566D01*
X3277971Y2554020D01*
X3277108Y2558135D01*
X3277108Y2775864D01*
X3277971Y2779979D01*
X3280511Y2783433D01*
X3284169Y2785516D01*
X3288385Y2785922D01*
X3292449Y2784602D01*
X3295548Y2781706D01*
X3297224Y2777845D01*
X3299104Y2768396D01*
X3303270Y2756103D01*
X3309010Y2744520D01*
X3316173Y2733751D01*
X3324707Y2723997D01*
X3334461Y2715463D01*
X3345230Y2708300D01*
X3356864Y2702560D01*
X3369106Y2698394D01*
X3381806Y2695854D01*
X3395065Y2694990D01*
X3430930Y2694990D01*
X3444189Y2695854D01*
X3456889Y2698394D01*
X3469132Y2702560D01*
X3480765Y2708300D01*
X3491534Y2715463D01*
X3501288Y2723997D01*
X3509822Y2733751D01*
X3516985Y2744520D01*
X3522116Y2754884D01*
X3524453Y2757932D01*
X3527704Y2759964D01*
X3531514Y2760573D01*
X3535273Y2759760D01*
X3538423Y2757576D01*
X3545179Y2750820D01*
X3553206Y2745181D01*
X3562146Y2741066D01*
X3571595Y2738526D01*
X3581400Y2737662D01*
X3591204Y2738526D01*
X3593490Y2739136D01*
X3597198Y2739440D01*
X3600754Y2738374D01*
X3603701Y2736088D01*
X3605631Y2732938D01*
X3606292Y2729331D01*
X3606292Y2585008D01*
X3605529Y2581097D01*
X3603294Y2577795D01*
X3601720Y2576220D01*
X3596081Y2568194D01*
X3591966Y2559253D01*
X3589426Y2549804D01*
X3588562Y2540000D01*
X3589426Y2530195D01*
X3591966Y2520746D01*
X3596081Y2511806D01*
X3601720Y2503779D01*
X3608679Y2496820D01*
X3616706Y2491181D01*
X3625646Y2487066D01*
X3635095Y2484526D01*
X3644900Y2483662D01*
X3654704Y2484526D01*
X3656990Y2485136D01*
X3660698Y2485440D01*
X3664254Y2484374D01*
X3667201Y2482088D01*
X3669131Y2478938D01*
X3669792Y2475331D01*
X3669792Y2331008D01*
X3669029Y2327097D01*
X3666794Y2323795D01*
X3665220Y2322220D01*
X3659581Y2314194D01*
X3655466Y2305253D01*
X3652926Y2295804D01*
X3652062Y2286000D01*
X3652926Y2276195D01*
X3655466Y2266746D01*
X3659581Y2257806D01*
X3665220Y2249779D01*
X3672179Y2242820D01*
X3680206Y2237181D01*
X3689146Y2233066D01*
X3698595Y2230526D01*
X3708400Y2229662D01*
X3718204Y2230526D01*
X3720490Y2231136D01*
X3724198Y2231440D01*
X3727754Y2230374D01*
X3730701Y2228088D01*
X3732631Y2224938D01*
X3733292Y2221331D01*
X3733292Y2077008D01*
X3732529Y2073097D01*
X3730294Y2069795D01*
X3728720Y2068220D01*
X3723081Y2060193D01*
X3718966Y2051253D01*
X3716426Y2041804D01*
X3715562Y2032000D01*
X3716426Y2022195D01*
X3718966Y2012746D01*
X3723081Y2003806D01*
X3728720Y1995779D01*
X3735679Y1988820D01*
X3743706Y1983181D01*
X3752646Y1979066D01*
X3762095Y1976526D01*
X3771900Y1975662D01*
X3781704Y1976526D01*
X3783990Y1977136D01*
X3787698Y1977440D01*
X3791254Y1976374D01*
X3794201Y1974088D01*
X3796131Y1970938D01*
X3796792Y1967331D01*
X3796792Y1645208D01*
X3796029Y1641297D01*
X3793794Y1637995D01*
X3792220Y1636420D01*
X3786581Y1628394D01*
X3782466Y1619453D01*
X3779926Y1610004D01*
X3779062Y1600200D01*
X3779926Y1590395D01*
X3782466Y1580946D01*
X3786581Y1572006D01*
X3792220Y1563979D01*
X3799179Y1557020D01*
X3807206Y1551381D01*
X3816146Y1547266D01*
X3825595Y1544726D01*
X3835400Y1543862D01*
X3845204Y1544726D01*
X3854653Y1547266D01*
X3863594Y1551381D01*
X3871620Y1557020D01*
X3878579Y1563979D01*
X3884218Y1572006D01*
X3888333Y1580946D01*
X3890873Y1590395D01*
X3891737Y1600200D01*
X3890873Y1610004D01*
X3888333Y1619453D01*
X3884218Y1628394D01*
X3878579Y1636420D01*
X3877005Y1637995D01*
X3874770Y1641297D01*
X3874008Y1645208D01*
X3874008Y1776831D01*
X3874668Y1780438D01*
X3876598Y1783588D01*
X3879545Y1785874D01*
X3883101Y1786940D01*
X3886809Y1786636D01*
X3889095Y1786026D01*
X3896969Y1785315D01*
X3900373Y1784400D01*
X3903268Y1782368D01*
X3905300Y1779473D01*
X3906215Y1776069D01*
X3906926Y1768195D01*
X3909466Y1758746D01*
X3913581Y1749806D01*
X3919220Y1741779D01*
X3926179Y1734820D01*
X3934206Y1729181D01*
X3943146Y1725066D01*
X3952595Y1722526D01*
X3960469Y1721815D01*
X3963873Y1720900D01*
X3966768Y1718868D01*
X3968800Y1715973D01*
X3969715Y1712569D01*
X3970426Y1704695D01*
X3972966Y1695246D01*
X3977081Y1686306D01*
X3982720Y1678279D01*
X3989679Y1671320D01*
X3997706Y1665681D01*
X4006646Y1661566D01*
X4016095Y1659026D01*
X4025900Y1658162D01*
X4035704Y1659026D01*
X4045153Y1661566D01*
X4054094Y1665681D01*
X4062120Y1671320D01*
X4069079Y1678279D01*
X4074718Y1686306D01*
X4078833Y1695246D01*
X4081373Y1704695D01*
X4082237Y1714500D01*
X4081373Y1724304D01*
X4078833Y1733753D01*
X4074718Y1742693D01*
X4069079Y1750720D01*
X4067505Y1752295D01*
X4065270Y1755597D01*
X4064508Y1759508D01*
X4064508Y2240991D01*
X4065270Y2244902D01*
X4067505Y2248204D01*
X4069079Y2249779D01*
X4077512Y2262022D01*
X4080967Y2264105D01*
X4084929Y2264664D01*
X4088790Y2263648D01*
X4091990Y2261260D01*
X4093972Y2257806D01*
X4097274Y2248103D01*
X4103014Y2236520D01*
X4110177Y2225751D01*
X4118711Y2215997D01*
X4128465Y2207463D01*
X4139234Y2200300D01*
X4150868Y2194560D01*
X4163110Y2190394D01*
X4175810Y2187854D01*
X4189069Y2186990D01*
X4224934Y2186990D01*
X4238193Y2187854D01*
X4250893Y2190394D01*
X4263136Y2194560D01*
X4274769Y2200300D01*
X4285538Y2207463D01*
X4287926Y2209596D01*
X4291279Y2211527D01*
X4295089Y2212086D01*
X4298848Y2211171D01*
X4301947Y2208987D01*
X4304080Y2205736D01*
X4304792Y2201926D01*
X4304792Y2116074D01*
X4304080Y2112264D01*
X4301947Y2109063D01*
X4298848Y2106828D01*
X4295089Y2105914D01*
X4291279Y2106472D01*
X4287926Y2108454D01*
X4285538Y2110536D01*
X4274769Y2117750D01*
X4263136Y2123440D01*
X4250893Y2127605D01*
X4238193Y2130145D01*
X4224934Y2131009D01*
X4189069Y2131009D01*
X4175810Y2130145D01*
X4163110Y2127605D01*
X4150868Y2123440D01*
X4139234Y2117750D01*
X4128465Y2110536D01*
X4118711Y2102002D01*
X4110177Y2092248D01*
X4103014Y2081479D01*
X4097274Y2069896D01*
X4093108Y2057603D01*
X4090568Y2044903D01*
X4089755Y2032000D01*
X4090568Y2019096D01*
X4093108Y2006396D01*
X4097274Y1994103D01*
X4103014Y1982520D01*
X4110177Y1971751D01*
X4118711Y1961997D01*
X4128465Y1953463D01*
X4139234Y1946300D01*
X4150868Y1940560D01*
X4163110Y1936394D01*
X4175810Y1933854D01*
X4189069Y1932990D01*
X4224934Y1932990D01*
X4238193Y1933854D01*
X4250893Y1936394D01*
X4263136Y1940560D01*
X4274769Y1946300D01*
X4285538Y1953463D01*
X4287926Y1955596D01*
X4291279Y1957527D01*
X4295089Y1958086D01*
X4298848Y1957171D01*
X4301947Y1954987D01*
X4304080Y1951736D01*
X4304792Y1947925D01*
X4304792Y571500D01*
X4304080Y567690D01*
X4301947Y564438D01*
X4298797Y562203D01*
X4284878Y555955D01*
X4271873Y548081D01*
X4259935Y538734D01*
X4249166Y527964D01*
X4239818Y516026D01*
X4231944Y503021D01*
X4225645Y489102D01*
X4223461Y485901D01*
X4220210Y483819D01*
X4216400Y483108D01*
X4212590Y483819D01*
X4209338Y485901D01*
X4207154Y489102D01*
X4200855Y503021D01*
X4192981Y516026D01*
X4183634Y527964D01*
X4172864Y538734D01*
X4160926Y548081D01*
X4147921Y555955D01*
X4134002Y562203D01*
X4130852Y564438D01*
X4128719Y567690D01*
X4128008Y571500D01*
X4128008Y716991D01*
X4128770Y720902D01*
X4131005Y724204D01*
X4132579Y725779D01*
X4138218Y733806D01*
X4142333Y742746D01*
X4144873Y752195D01*
X4145737Y762000D01*
X4144873Y771804D01*
X4142333Y781253D01*
X4138218Y790194D01*
X4132579Y798220D01*
X4125620Y805180D01*
X4117594Y810818D01*
X4108653Y814933D01*
X4099204Y817473D01*
X4089400Y818337D01*
X4079595Y817473D01*
X4070146Y814933D01*
X4061206Y810818D01*
X4053179Y805180D01*
X4046220Y798220D01*
X4040581Y790194D01*
X4036466Y781253D01*
X4033926Y771804D01*
X4033062Y762000D01*
X4033926Y752195D01*
X4036466Y742746D01*
X4040581Y733806D01*
X4046220Y725779D01*
X4047794Y724204D01*
X4050029Y720902D01*
X4050792Y716991D01*
X4050792Y571500D01*
X4050080Y567690D01*
X4047947Y564438D01*
X4044797Y562203D01*
X4030878Y555955D01*
X4017873Y548081D01*
X4005935Y538734D01*
X3995165Y527964D01*
X3985818Y516026D01*
X3977944Y503021D01*
X3971645Y489102D01*
X3969461Y485901D01*
X3966210Y483819D01*
X3962400Y483108D01*
X3958590Y483819D01*
X3955338Y485901D01*
X3953154Y489102D01*
X3946855Y503021D01*
X3938981Y516026D01*
X3929634Y527964D01*
X3918864Y538734D01*
X3906926Y548081D01*
X3893921Y555955D01*
X3880002Y562203D01*
X3876852Y564438D01*
X3874719Y567690D01*
X3874008Y571500D01*
X3874008Y920191D01*
X3874770Y924102D01*
X3877005Y927404D01*
X3878579Y928979D01*
X3884218Y937006D01*
X3888333Y945946D01*
X3890873Y955395D01*
X3891737Y965200D01*
X3890873Y975004D01*
X3888333Y984453D01*
X3884218Y993394D01*
X3878579Y1001420D01*
X3871620Y1008380D01*
X3863594Y1014018D01*
X3854653Y1018133D01*
X3845204Y1020673D01*
X3835400Y1021537D01*
X3825595Y1020673D01*
X3816146Y1018133D01*
X3807206Y1014018D01*
X3799179Y1008380D01*
X3792220Y1001420D01*
X3786581Y993394D01*
X3782466Y984453D01*
X3779926Y975004D01*
X3779062Y965200D01*
X3779926Y955395D01*
X3782466Y945946D01*
X3786581Y937006D01*
X3792220Y928979D01*
X3793794Y927404D01*
X3796029Y924102D01*
X3796792Y920191D01*
X3796792Y571500D01*
X3796080Y567690D01*
X3793947Y564438D01*
X3790797Y562203D01*
X3776878Y555955D01*
X3763873Y548081D01*
X3751935Y538734D01*
X3741165Y527964D01*
X3731818Y516026D01*
X3723944Y503021D01*
X3717645Y489102D01*
X3715461Y485901D01*
X3712210Y483819D01*
X3708400Y483108D01*
X3704590Y483819D01*
X3701338Y485901D01*
X3699154Y489102D01*
X3692855Y503021D01*
X3684981Y516026D01*
X3675634Y527964D01*
X3664864Y538734D01*
X3652926Y548081D01*
X3639921Y555955D01*
X3626002Y562203D01*
X3622852Y564438D01*
X3620719Y567690D01*
X3620008Y571500D01*
X3620008Y920191D01*
X3620770Y924102D01*
X3623005Y927404D01*
X3624579Y928979D01*
X3630218Y937006D01*
X3634333Y945946D01*
X3636873Y955395D01*
X3637737Y965200D01*
X3636873Y975004D01*
X3634333Y984453D01*
X3630218Y993394D01*
X3624579Y1001420D01*
X3617620Y1008380D01*
X3609594Y1014018D01*
X3600653Y1018133D01*
X3591204Y1020673D01*
X3581400Y1021537D01*
X3571595Y1020673D01*
X3562146Y1018133D01*
X3553206Y1014018D01*
X3545179Y1008380D01*
X3538220Y1001420D01*
X3532581Y993394D01*
X3528466Y984453D01*
X3525926Y975004D01*
X3525062Y965200D01*
X3525926Y955395D01*
X3528466Y945946D01*
X3532581Y937006D01*
X3538220Y928979D01*
X3539794Y927404D01*
X3542029Y924102D01*
X3542792Y920191D01*
X3542792Y571500D01*
X3542080Y567690D01*
X3539947Y564438D01*
X3536797Y562203D01*
X3522878Y555955D01*
X3509873Y548081D01*
X3497935Y538734D01*
X3487165Y527964D01*
X3477818Y516026D01*
X3469944Y503021D01*
X3463645Y489102D01*
X3461461Y485901D01*
X3458210Y483819D01*
G37*

%LPC*%
G36*
X3295751Y2044700D02*
G01*
X3400298Y2044700D01*
X3400298Y2131009D01*
X3395065Y2131009D01*
X3381806Y2130145D01*
X3369106Y2127605D01*
X3356864Y2123440D01*
X3345230Y2117750D01*
X3334461Y2110536D01*
X3324707Y2102002D01*
X3316173Y2092248D01*
X3309010Y2081479D01*
X3303270Y2069896D01*
X3299104Y2057603D01*
X3297224Y2048154D01*
G37*
G36*
X3425698Y2044700D02*
G01*
X3529431Y2044700D01*
X3526891Y2057603D01*
X3522726Y2069896D01*
X3516985Y2081479D01*
X3509822Y2092248D01*
X3501288Y2102002D01*
X3491534Y2110536D01*
X3480765Y2117750D01*
X3469132Y2123440D01*
X3456889Y2127605D01*
X3444189Y2130145D01*
X3430930Y2131009D01*
X3425698Y2131009D01*
G37*
G36*
X3395065Y1932990D02*
G01*
X3400298Y1932990D01*
X3400298Y2019300D01*
X3295751Y2019300D01*
X3297224Y2015845D01*
X3299104Y2006396D01*
X3303270Y1994103D01*
X3309010Y1982520D01*
X3316173Y1971751D01*
X3324707Y1961997D01*
X3334461Y1953463D01*
X3345230Y1946300D01*
X3356864Y1940560D01*
X3369106Y1936394D01*
X3381806Y1933854D01*
G37*
G36*
X3425698Y1932990D02*
G01*
X3430930Y1932990D01*
X3444189Y1933854D01*
X3456889Y1936394D01*
X3469132Y1940560D01*
X3480765Y1946300D01*
X3491534Y1953463D01*
X3501288Y1961997D01*
X3509822Y1971751D01*
X3516985Y1982520D01*
X3522726Y1994103D01*
X3526891Y2006396D01*
X3529431Y2019300D01*
X3425698Y2019300D01*
G37*

%LPD*%
D10*
X3835400Y444500D02*
G01*
X3835400Y965200D01*
D11*
X5105400Y762000D02*
G01*
X5105400Y1270000D01*
X5105400Y1692910D01*
D10*
X4206999Y5651500D02*
G01*
X4206999Y5366004D01*
X4206999Y5118100D02*
G01*
X4206999Y5366004D01*
X4978400Y965200D02*
G01*
X4978400Y5270500D01*
X2222500Y5080000D02*
G01*
X2222500Y5588000D01*
D11*
X3048000Y5118100D02*
G01*
X3048000Y5588000D01*
D10*
X2413000Y4826000D02*
G01*
X2413000Y762000D01*
X4089400Y762000D02*
G01*
X4089400Y444500D01*
X2616200Y4318000D02*
G01*
X2616200Y5080000D01*
D11*
X3048000Y5118100D02*
G01*
X3048000Y4318000D01*
D10*
X4343400Y3302000D02*
G01*
X4343400Y444500D01*
D11*
X4206999Y4826000D02*
G01*
X4206999Y5118100D01*
X5588000Y5118100D02*
G01*
X5588000Y4572000D01*
D10*
X4025900Y3937000D02*
G01*
X4025900Y3556000D01*
X1181100Y1714500D02*
G01*
X1181100Y2362200D01*
X1244600Y1778000D02*
G01*
X1244600Y2108200D01*
X4025900Y2286000D02*
G01*
X4025900Y1714500D01*
X3962400Y2540000D02*
G01*
X3962400Y1778000D01*
X3898900Y2794000D02*
G01*
X3898900Y1841500D01*
X3835400Y3048000D02*
G01*
X3835400Y1600200D01*
X3581400Y2794000D02*
G01*
X3581400Y5207000D01*
X3644900Y2540000D02*
G01*
X3644900Y4953000D01*
X3708400Y2286000D02*
G01*
X3708400Y4699000D01*
X3771900Y2032000D02*
G01*
X3771900Y4445000D01*
X2565400Y965200D02*
G01*
X2565400Y444500D01*
X2819400Y901700D02*
G01*
X2819400Y444500D01*
X3111500Y3556000D02*
G01*
X3111500Y482600D01*
X3327400Y901700D02*
G01*
X3327400Y444500D01*
X3581400Y965200D02*
G01*
X3581400Y444500D01*
X3238500Y4064000D02*
G01*
X3238500Y965200D01*
X3175000Y3810000D02*
G01*
X3175000Y901700D01*
X3048000Y3302000D02*
G01*
X3048000Y901700D01*
X2984500Y3048000D02*
G01*
X2984500Y965200D01*
X5270500Y1905000D02*
G01*
X5270500Y3048000D01*
X5207000Y2413000D02*
G01*
X5207000Y3556000D01*
X5143500Y2921000D02*
G01*
X5143500Y4064000D01*
X5080000Y3429000D02*
G01*
X5080000Y4572000D01*
X2616200Y4064000D02*
G01*
X2616200Y4318000D01*
X1308100Y3810000D02*
G01*
X1308100Y4251200D01*
X1371600Y3683000D02*
G01*
X1371600Y4000500D01*
X1435100Y3302000D02*
G01*
X1435100Y3746500D01*
X1498600Y3175000D02*
G01*
X1498600Y3492500D01*
X1308100Y2159000D02*
G01*
X1308100Y584200D01*
X1371600Y2286000D02*
G01*
X1371600Y838200D01*
X1435100Y2667000D02*
G01*
X1435100Y1092200D01*
X1498600Y2794000D02*
G01*
X1498600Y1342900D01*
D11*
X5105400Y1692910D02*
G01*
X5105400Y2794000D01*
X5588000Y4318000D02*
G01*
X5588000Y4572000D01*
X5588000Y4064000D02*
G01*
X5588000Y4318000D01*
X5588000Y3810000D02*
G01*
X5588000Y4064000D01*
X5588000Y3556000D02*
G01*
X5588000Y3810000D01*
X5588000Y3302000D02*
G01*
X5588000Y3556000D01*
X5588000Y3048000D02*
G01*
X5588000Y3302000D01*
X5588000Y2794000D02*
G01*
X5588000Y3048000D01*
X5588000Y1016000D02*
G01*
X5588000Y762012D01*
X2794000Y5588000D02*
G01*
X2584602Y5588000D01*
X3048000Y4184802D02*
G01*
X3048000Y4318000D01*
X4207002Y4826000D02*
G01*
X3994302Y4826000D01*
D12*
G01*
X2584601Y5588000D03*
G01*
X2444601Y5588000D03*
D13*
G01*
X3048000Y4184801D03*
G01*
X3048000Y4044801D03*
D12*
G01*
X3994301Y4826000D03*
G01*
X3854301Y4826000D03*
D14*
G01*
X2032000Y5588000D03*
D15*
G01*
X2032000Y5334000D03*
G01*
X2032000Y5080000D03*
G01*
X2032000Y4826000D03*
G01*
X2794000Y4826000D03*
G01*
X2794000Y5080000D03*
G01*
X2794000Y5334000D03*
G01*
X2794000Y5588000D03*
D16*
G01*
X3412997Y4826000D03*
G01*
X4207002Y4826000D03*
G01*
X3412997Y4572000D03*
G01*
X4207002Y4572000D03*
G01*
X3412997Y4318000D03*
G01*
X4207002Y4318000D03*
G01*
X3412997Y4064000D03*
G01*
X4207002Y4064000D03*
G01*
X3412997Y3810000D03*
G01*
X4207002Y3810000D03*
G01*
X3412997Y3556000D03*
G01*
X4207002Y3556000D03*
G01*
X3412997Y3302000D03*
G01*
X4207002Y3302000D03*
G01*
X3412997Y3048000D03*
G01*
X4207002Y3048000D03*
G01*
X3412997Y2794000D03*
G01*
X4207002Y2794000D03*
G01*
X3412997Y2540000D03*
G01*
X4207002Y2540000D03*
G01*
X3412997Y2286000D03*
G01*
X4207002Y2286000D03*
G01*
X3412997Y2032000D03*
G01*
X4207002Y2032000D03*
G01*
X2015997Y4318000D03*
G01*
X2810002Y4318000D03*
G01*
X2015997Y4064000D03*
G01*
X2810002Y4064000D03*
G01*
X2015997Y3810000D03*
G01*
X2810002Y3810000D03*
G01*
X2015997Y3556000D03*
G01*
X2810002Y3556000D03*
G01*
X2015997Y3302000D03*
G01*
X2810002Y3302000D03*
G01*
X2015997Y3048000D03*
G01*
X2810002Y3048000D03*
G01*
X2015997Y2794000D03*
G01*
X2810002Y2794000D03*
G01*
X2015997Y2540000D03*
G01*
X2810002Y2540000D03*
G01*
X2015997Y2286000D03*
G01*
X2810002Y2286000D03*
G01*
X2015997Y2032000D03*
G01*
X2810002Y2032000D03*
D17*
G01*
X4826000Y2794000D03*
G01*
X4826000Y3048000D03*
G01*
X4826000Y3302000D03*
G01*
X4826000Y3556000D03*
G01*
X4826000Y3810000D03*
G01*
X4826000Y4064000D03*
G01*
X4826000Y4318000D03*
G01*
X4826000Y4572000D03*
G01*
X5588000Y2794000D03*
G01*
X5588000Y3048000D03*
G01*
X5588000Y3302000D03*
G01*
X5588000Y3556000D03*
G01*
X5588000Y3810000D03*
G01*
X5588000Y4064000D03*
G01*
X5588000Y4318000D03*
G01*
X5588000Y4572000D03*
D18*
G01*
X4559300Y4826000D03*
D19*
G01*
X4559300Y4572000D03*
G01*
X4559300Y4318000D03*
G01*
X4559300Y4064000D03*
G01*
X4559300Y3810000D03*
G01*
X4559300Y3556000D03*
G01*
X4559300Y3302000D03*
G01*
X4559300Y3048000D03*
G01*
X4559300Y2794000D03*
G01*
X4559300Y2540000D03*
D20*
G01*
X5461000Y381000D03*
G01*
X381000Y381000D03*
G01*
X381000Y5461000D03*
G01*
X5461000Y5461000D03*
D21*
G01*
X956081Y3489197D03*
G01*
X956081Y3743197D03*
G01*
X956081Y3997197D03*
G01*
X956081Y4251197D03*
G01*
X956081Y4505197D03*
G01*
X956081Y4759197D03*
G01*
X956081Y5013197D03*
G01*
X956081Y5267197D03*
G01*
X956106Y2358897D03*
G01*
X956106Y2104897D03*
G01*
X956106Y1850897D03*
G01*
X956106Y1596897D03*
G01*
X956106Y1342897D03*
G01*
X956106Y1088897D03*
G01*
X956106Y834897D03*
G01*
X956106Y580897D03*
D17*
G01*
X5588000Y1016000D03*
G01*
X5334000Y1016000D03*
G01*
X5334000Y1270000D03*
G01*
X5588000Y1270000D03*
D21*
G01*
X4343400Y444500D03*
G01*
X4089400Y444500D03*
G01*
X3835400Y444500D03*
G01*
X3581400Y444500D03*
G01*
X3327400Y444500D03*
G01*
X3073400Y444500D03*
G01*
X2819400Y444500D03*
G01*
X2565400Y444500D03*
D22*
G01*
X5588000Y762000D03*
G01*
X5105400Y762000D03*
G01*
X5105400Y2794000D03*
G01*
X5105400Y1692910D03*
G01*
X1498600Y2794000D03*
G01*
X1498600Y1342897D03*
G01*
X1435100Y2667000D03*
G01*
X1435100Y1092200D03*
G01*
X1371600Y2286000D03*
G01*
X1371600Y838200D03*
G01*
X1308100Y2159000D03*
G01*
X1308100Y584200D03*
G01*
X1498600Y3175000D03*
G01*
X1498600Y3492500D03*
G01*
X1435100Y3302000D03*
G01*
X1435100Y3746500D03*
G01*
X1371600Y3683000D03*
G01*
X1371600Y4000500D03*
G01*
X1308100Y3810000D03*
G01*
X1308100Y4251197D03*
G01*
X2616200Y4064000D03*
G01*
X2616200Y4318000D03*
G01*
X5080000Y3429000D03*
G01*
X5080000Y4572000D03*
G01*
X5143500Y2921000D03*
G01*
X5143500Y4064000D03*
G01*
X5207000Y2413000D03*
G01*
X5207000Y3556000D03*
G01*
X5270500Y1905000D03*
G01*
X5270500Y3048000D03*
G01*
X2984500Y3048000D03*
G01*
X2984500Y965200D03*
G01*
X3048000Y3302000D03*
G01*
X3048000Y901700D03*
G01*
X3111500Y3556000D03*
G01*
X3175000Y3810000D03*
G01*
X3175000Y901700D03*
G01*
X3238500Y4064000D03*
G01*
X3238500Y965200D03*
G01*
X3581400Y965200D03*
G01*
X3327400Y901700D03*
G01*
X2819400Y901700D03*
G01*
X2565400Y965200D03*
G01*
X3771900Y2032000D03*
G01*
X3771900Y4445000D03*
G01*
X3708400Y2286000D03*
G01*
X3708400Y4699000D03*
G01*
X3644900Y2540000D03*
G01*
X3644900Y4953000D03*
G01*
X3581400Y2794000D03*
G01*
X3581400Y5207000D03*
G01*
X3835400Y3048000D03*
G01*
X3835400Y1600200D03*
G01*
X3898900Y2794000D03*
G01*
X3898900Y1841500D03*
G01*
X3962400Y2540000D03*
G01*
X3962400Y1778000D03*
G01*
X4025900Y2286000D03*
G01*
X4025900Y1714500D03*
G01*
X1244600Y1778000D03*
G01*
X1244600Y2108200D03*
G01*
X1181100Y1714500D03*
G01*
X1181100Y2362200D03*
G01*
X4025900Y3937000D03*
G01*
X4025900Y3556000D03*
G01*
X5588000Y5118100D03*
G01*
X4207002Y5118100D03*
G01*
X3048000Y5118100D03*
G01*
X4343400Y3302000D03*
G01*
X3048000Y4318000D03*
G01*
X2616200Y5080000D03*
G01*
X4089400Y762000D03*
G01*
X2413000Y4826000D03*
G01*
X2413000Y762000D03*
G01*
X3048000Y5588000D03*
G01*
X2222500Y5080000D03*
G01*
X2222500Y5588000D03*
G01*
X3835400Y965200D03*
G01*
X4978400Y965200D03*
G01*
X4978400Y5270500D03*
G01*
X1308100Y4381500D03*
G01*
X1308100Y5092700D03*
G01*
X4207002Y5366004D03*
G01*
X4207002Y5651500D03*
M02*
