<?xml version="1.0" encoding="UTF-8"?>
<!DOCTYPE svg PUBLIC "-//W3C//DTD SVG 1.1//EN" "http://www.w3.org/Graphics/SVG/1.1/DTD/svg11.dtd">
<svg version="1.1" xmlns="http://www.w3.org/2000/svg" xmlns:xlink="http://www.w3.org/1999/xlink" x="0" y="0" width="328" height="508.476" viewBox="0, 0, 328, 508.476">
  <g id="Layer_1" transform="translate(1, 1)">
    <g id="Layer_1">
      <path d="M20,31.476 L304,31.476 L304,484.476 L20,484.476 z M19.846,31.181" fill="#39733E"/>
      <path d="M20.5,31.976 L304.5,31.976 L304.5,484.976 L20.5,484.976 z M20.346,31.681" fill-opacity="0" stroke="#000000" stroke-width="1" stroke-linecap="round" stroke-linejoin="round"/>
      <path d="M29,456.476 L295,456.476 L295,506.476 L29,506.476 z M28.35,456.378" fill="#FFFFFF"/>
      <path d="M29.5,456.976 L295.5,456.976 L295.5,506.976 L29.5,506.976 z M28.85,456.878" fill-opacity="0" stroke="#000000" stroke-width="1" stroke-linecap="round" stroke-linejoin="round"/>
      <text transform="matrix(1, 0, -0, 1, 161.579, 481.513)">
        <tspan x="-51.342" y="3.5" font-family="HelveticaNeue" font-size="12" fill="#000000">VME P1 Connecto</tspan>
        <tspan x="47.346" y="3.5" font-family="HelveticaNeue" font-size="12" kerning="0" fill="#000000">r</tspan>
      </text>
      <path d="M31,42.476 L153,42.476 L153,198.476 L31,198.476 z M31.185,42.52" fill="#FFFFFF"/>
      <path d="M31.5,42.976 L153.5,42.976 L153.5,198.976 L31.5,198.976 z M31.685,43.02" fill-opacity="0" stroke="#000000" stroke-width="1" stroke-linecap="round" stroke-linejoin="round"/>
      <text transform="matrix(1, 0, -0, 1, 91.854, 113.636)">
        <tspan x="-34.404" y="3.5" font-family="HelveticaNeue" font-size="12" fill="#000000">Data T</tspan>
        <tspan x="0.936" y="3.5" font-family="HelveticaNeue" font-size="12" kerning="-0.552" fill="#000000">T</tspan>
        <tspan x="6.168" y="3.5" font-family="HelveticaNeue" font-size="12" fill="#000000">AM </tspan>
        <tspan x="27.732" y="3.5" font-family="HelveticaNeue" font-size="12" kerning="0" fill="#000000">1</tspan>
      </text>
      <text transform="matrix(1, 0, -0, 1, 91.854, 127.972)">
        <tspan x="-24.504" y="3.5" font-family="HelveticaNeue" font-size="12" fill="#000000">(T</tspan>
        <tspan x="-14.508" y="3.5" font-family="HelveticaNeue" font-size="12" kerning="-0.552" fill="#000000">T</tspan>
        <tspan x="-9.276" y="3.5" font-family="HelveticaNeue" font-size="12" fill="#000000">AM/D</tspan>
        <tspan x="21.396" y="3.5" font-family="HelveticaNeue" font-size="12" kerning="0" fill="#000000">)</tspan>
      </text>
      <path d="M51,51.476 L133,51.476 L133,61.476 L51,61.476 z M51.028,51.024" fill="#FFFFFF"/>
      <path d="M51.5,51.976 L133.5,51.976 L133.5,61.976 L51.5,61.976 z M51.528,51.524" fill-opacity="0" stroke="#000000" stroke-width="1" stroke-linecap="round" stroke-linejoin="round"/>
      <text transform="matrix(1, 0, -0, 1, 92.13, 56.412)">
        <tspan x="-16.448" y="2.5" font-family="HelveticaNeue" font-size="8" fill="#000000">Data Bu</tspan>
        <tspan x="12.448" y="2.5" font-family="HelveticaNeue" font-size="8" kerning="0" fill="#000000">s</tspan>
      </text>
      <path d="M146.16,52.269 C147.821,53.93 147.821,56.622 146.16,58.282 C144.5,59.943 141.807,59.943 140.147,58.282 C138.486,56.622 138.486,53.93 140.147,52.269 C141.807,50.609 144.5,50.609 146.16,52.269" fill="#FFFFFF"/>
      <path d="M146.66,52.769 C148.321,54.43 148.321,57.122 146.66,58.782 C145,60.443 142.307,60.443 140.647,58.782 C138.986,57.122 138.986,54.43 140.647,52.769 C142.307,51.109 145,51.109 146.66,52.769" fill-opacity="0" stroke="#000000" stroke-width="1" stroke-linecap="round" stroke-linejoin="round"/>
      <path d="M44.113,52.269 C45.773,53.93 45.773,56.622 44.113,58.282 C42.452,59.943 39.76,59.943 38.1,58.282 C36.439,56.622 36.439,53.93 38.1,52.269 C39.76,50.609 42.452,50.609 44.113,52.269" fill="#FFFFFF"/>
      <path d="M44.613,52.769 C46.273,54.43 46.273,57.122 44.613,58.782 C42.952,60.443 40.26,60.443 38.6,58.782 C36.939,57.122 36.939,54.43 38.6,52.769 C40.26,51.109 42.952,51.109 44.613,52.769" fill-opacity="0" stroke="#000000" stroke-width="1" stroke-linecap="round" stroke-linejoin="round"/>
      <path d="M51,181.476 L133,181.476 L133,191.476 L51,191.476 z M51.028,181.417" fill="#FFFFFF"/>
      <path d="M51.5,181.976 L133.5,181.976 L133.5,191.976 L51.5,191.976 z M51.528,181.917" fill-opacity="0" stroke="#000000" stroke-width="1" stroke-linecap="round" stroke-linejoin="round"/>
      <text transform="matrix(1, 0, -0, 1, 92.094, 186.805)">
        <tspan x="-23.152" y="2.5" font-family="HelveticaNeue" font-size="8" fill="#000000">P</tspan>
        <tspan x="-17.968" y="2.5" font-family="HelveticaNeue" font-size="8" kerning="-0.072" fill="#000000">r</tspan>
        <tspan x="-15.52" y="2.5" font-family="HelveticaNeue" font-size="8" fill="#000000">ocessing </tspan>
        <tspan x="18.704" y="2.5" font-family="HelveticaNeue" font-size="8" kerning="0" fill="#000000">1</tspan>
      </text>
      <path d="M146.16,182.663 C147.821,184.323 147.821,187.015 146.16,188.676 C144.5,190.336 141.807,190.336 140.147,188.676 C138.486,187.015 138.486,184.323 140.147,182.663 C141.807,181.002 144.5,181.002 146.16,182.663" fill="#FFFFFF"/>
      <path d="M146.66,183.163 C148.321,184.823 148.321,187.515 146.66,189.176 C145,190.836 142.307,190.836 140.647,189.176 C138.986,187.515 138.986,184.823 140.647,183.163 C142.307,181.502 145,181.502 146.66,183.163" fill-opacity="0" stroke="#000000" stroke-width="1" stroke-linecap="round" stroke-linejoin="round"/>
      <path d="M44.113,182.663 C45.773,184.323 45.773,187.015 44.113,188.676 C42.452,190.336 39.76,190.336 38.1,188.676 C36.439,187.015 36.439,184.323 38.1,182.663 C39.76,181.002 42.452,181.002 44.113,182.663" fill="#FFFFFF"/>
      <path d="M44.613,183.163 C46.273,184.823 46.273,187.515 44.613,189.176 C42.952,190.836 40.26,190.836 38.6,189.176 C36.939,187.515 36.939,184.823 38.6,183.163 C40.26,181.502 42.952,181.502 44.613,183.163" fill-opacity="0" stroke="#000000" stroke-width="1" stroke-linecap="round" stroke-linejoin="round"/>
      <path d="M170,42.476 L292,42.476 L292,198.476 L170,198.476 z M170.083,42.52" fill="#FFFFFF"/>
      <path d="M170.5,42.976 L292.5,42.976 L292.5,198.976 L170.5,198.976 z M170.583,43.02" fill-opacity="0" stroke="#000000" stroke-width="1" stroke-linecap="round" stroke-linejoin="round"/>
      <text transform="matrix(1, 0, -0, 1, 230.751, 113.636)">
        <tspan x="-34.404" y="3.5" font-family="HelveticaNeue" font-size="12" fill="#000000">Data T</tspan>
        <tspan x="0.936" y="3.5" font-family="HelveticaNeue" font-size="12" kerning="-0.552" fill="#000000">T</tspan>
        <tspan x="6.168" y="3.5" font-family="HelveticaNeue" font-size="12" fill="#000000">AM </tspan>
        <tspan x="27.732" y="3.5" font-family="HelveticaNeue" font-size="12" kerning="0" fill="#000000">2</tspan>
      </text>
      <text transform="matrix(1, 0, -0, 1, 230.751, 127.972)">
        <tspan x="-24.504" y="3.5" font-family="HelveticaNeue" font-size="12" fill="#000000">(T</tspan>
        <tspan x="-14.508" y="3.5" font-family="HelveticaNeue" font-size="12" kerning="-0.552" fill="#000000">T</tspan>
        <tspan x="-9.276" y="3.5" font-family="HelveticaNeue" font-size="12" fill="#000000">AM/D</tspan>
        <tspan x="21.396" y="3.5" font-family="HelveticaNeue" font-size="12" kerning="0" fill="#000000">)</tspan>
      </text>
      <path d="M190,51.476 L272,51.476 L272,61.476 L190,61.476 z M189.925,51.024" fill="#FFFFFF"/>
      <path d="M190.5,51.976 L272.5,51.976 L272.5,61.976 L190.5,61.976 z M190.425,51.524" fill-opacity="0" stroke="#000000" stroke-width="1" stroke-linecap="round" stroke-linejoin="round"/>
      <text transform="matrix(1, 0, -0, 1, 231.027, 56.412)">
        <tspan x="-16.448" y="2.5" font-family="HelveticaNeue" font-size="8" fill="#000000">Data Bu</tspan>
        <tspan x="12.448" y="2.5" font-family="HelveticaNeue" font-size="8" kerning="0" fill="#000000">s</tspan>
      </text>
      <path d="M285.058,52.269 C286.718,53.93 286.718,56.622 285.058,58.282 C283.397,59.943 280.705,59.943 279.045,58.282 C277.384,56.622 277.384,53.93 279.045,52.269 C280.705,50.609 283.397,50.609 285.058,52.269" fill="#FFFFFF"/>
      <path d="M285.558,52.769 C287.218,54.43 287.218,57.122 285.558,58.782 C283.897,60.443 281.205,60.443 279.545,58.782 C277.884,57.122 277.884,54.43 279.545,52.769 C281.205,51.109 283.897,51.109 285.558,52.769" fill-opacity="0" stroke="#000000" stroke-width="1" stroke-linecap="round" stroke-linejoin="round"/>
      <path d="M183.01,52.269 C184.671,53.93 184.671,56.622 183.01,58.282 C181.35,59.943 178.658,59.943 176.997,58.282 C175.337,56.622 175.337,53.93 176.997,52.269 C178.658,50.609 181.35,50.609 183.01,52.269" fill="#FFFFFF"/>
      <path d="M183.51,52.769 C185.171,54.43 185.171,57.122 183.51,58.782 C181.85,60.443 179.158,60.443 177.497,58.782 C175.837,57.122 175.837,54.43 177.497,52.769 C179.158,51.109 181.85,51.109 183.51,52.769" fill-opacity="0" stroke="#000000" stroke-width="1" stroke-linecap="round" stroke-linejoin="round"/>
      <path d="M190,181.476 L272,181.476 L272,191.476 L190,191.476 z M189.925,181.417" fill="#FFFFFF"/>
      <path d="M190.5,181.976 L272.5,181.976 L272.5,191.976 L190.5,191.976 z M190.425,181.917" fill-opacity="0" stroke="#000000" stroke-width="1" stroke-linecap="round" stroke-linejoin="round"/>
      <text transform="matrix(1, 0, -0, 1, 230.992, 186.805)">
        <tspan x="-23.152" y="2.5" font-family="HelveticaNeue" font-size="8" fill="#000000">P</tspan>
        <tspan x="-17.968" y="2.5" font-family="HelveticaNeue" font-size="8" kerning="-0.072" fill="#000000">r</tspan>
        <tspan x="-15.52" y="2.5" font-family="HelveticaNeue" font-size="8" fill="#000000">ocessing </tspan>
        <tspan x="18.704" y="2.5" font-family="HelveticaNeue" font-size="8" kerning="0" fill="#000000">2</tspan>
      </text>
      <path d="M285.058,182.663 C286.718,184.323 286.718,187.015 285.058,188.676 C283.397,190.336 280.705,190.336 279.045,188.676 C277.384,187.015 277.384,184.323 279.045,182.663 C280.705,181.002 283.397,181.002 285.058,182.663" fill="#FFFFFF"/>
      <path d="M285.558,183.163 C287.218,184.823 287.218,187.515 285.558,189.176 C283.897,190.836 281.205,190.836 279.545,189.176 C277.884,187.515 277.884,184.823 279.545,183.163 C281.205,181.502 283.897,181.502 285.558,183.163" fill-opacity="0" stroke="#000000" stroke-width="1" stroke-linecap="round" stroke-linejoin="round"/>
      <path d="M183.01,182.663 C184.671,184.323 184.671,187.015 183.01,188.676 C181.35,190.336 178.658,190.336 176.997,188.676 C175.337,187.015 175.337,184.323 176.997,182.663 C178.658,181.002 181.35,181.002 183.01,182.663" fill="#FFFFFF"/>
      <path d="M183.51,183.163 C185.171,184.823 185.171,187.515 183.51,189.176 C181.85,190.836 179.158,190.836 177.497,189.176 C175.837,187.515 175.837,184.823 177.497,183.163 C179.158,181.502 181.85,181.502 183.51,183.163" fill-opacity="0" stroke="#000000" stroke-width="1" stroke-linecap="round" stroke-linejoin="round"/>
      <path d="M170,210.476 L292,210.476 L292,365.476 L170,365.476 z M170.083,209.764" fill="#FFFFFF"/>
      <path d="M170.5,210.976 L292.5,210.976 L292.5,365.976 L170.5,365.976 z M170.583,210.264" fill-opacity="0" stroke="#000000" stroke-width="1" stroke-linecap="round" stroke-linejoin="round"/>
      <text transform="matrix(1, 0, -0, 1, 230.697, 280.88)">
        <tspan x="-46.566" y="3.5" font-family="HelveticaNeue" font-size="12" fill="#000000">P</tspan>
        <tspan x="-38.79" y="3.5" font-family="HelveticaNeue" font-size="12" kerning="-0.108" fill="#000000">r</tspan>
        <tspan x="-35.118" y="3.5" font-family="HelveticaNeue" font-size="12" fill="#000000">ocessing T</tspan>
        <tspan x="23.106" y="3.5" font-family="HelveticaNeue" font-size="12" kerning="-0.552" fill="#000000">T</tspan>
        <tspan x="28.338" y="3.5" font-family="HelveticaNeue" font-size="12" fill="#000000">A</tspan>
        <tspan x="36.114" y="3.5" font-family="HelveticaNeue" font-size="12" kerning="0" fill="#000000">M</tspan>
      </text>
      <text transform="matrix(1, 0, -0, 1, 230.751, 295.216)">
        <tspan x="-24.168" y="3.5" font-family="HelveticaNeue" font-size="12" fill="#000000">(T</tspan>
        <tspan x="-14.172" y="3.5" font-family="HelveticaNeue" font-size="12" kerning="-0.552" fill="#000000">T</tspan>
        <tspan x="-8.94" y="3.5" font-family="HelveticaNeue" font-size="12" fill="#000000">AM/P</tspan>
        <tspan x="21.06" y="3.5" font-family="HelveticaNeue" font-size="12" kerning="0" fill="#000000">)</tspan>
      </text>
      <path d="M190,218.476 L272,218.476 L272,228.476 L190,228.476 z M189.925,218.268" fill="#FFFFFF"/>
      <path d="M190.5,218.976 L272.5,218.976 L272.5,228.976 L190.5,228.976 z M190.425,218.768" fill-opacity="0" stroke="#000000" stroke-width="1" stroke-linecap="round" stroke-linejoin="round"/>
      <text transform="matrix(1, 0, -0, 1, 230.992, 223.656)">
        <tspan x="-23.152" y="2.5" font-family="HelveticaNeue" font-size="8" fill="#000000">P</tspan>
        <tspan x="-17.968" y="2.5" font-family="HelveticaNeue" font-size="8" kerning="-0.072" fill="#000000">r</tspan>
        <tspan x="-15.52" y="2.5" font-family="HelveticaNeue" font-size="8" fill="#000000">ocessing </tspan>
        <tspan x="18.704" y="2.5" font-family="HelveticaNeue" font-size="8" kerning="0" fill="#000000">2</tspan>
      </text>
      <path d="M285.058,219.513 C286.718,221.174 286.718,223.866 285.058,225.526 C283.397,227.187 280.705,227.187 279.045,225.526 C277.384,223.866 277.384,221.174 279.045,219.513 C280.705,217.853 283.397,217.853 285.058,219.513" fill="#FFFFFF"/>
      <path d="M285.558,220.013 C287.218,221.674 287.218,224.366 285.558,226.026 C283.897,227.687 281.205,227.687 279.545,226.026 C277.884,224.366 277.884,221.674 279.545,220.013 C281.205,218.353 283.897,218.353 285.558,220.013" fill-opacity="0" stroke="#000000" stroke-width="1" stroke-linecap="round" stroke-linejoin="round"/>
      <path d="M183.01,219.513 C184.671,221.174 184.671,223.866 183.01,225.526 C181.35,227.187 178.658,227.187 176.997,225.526 C175.337,223.866 175.337,221.174 176.997,219.513 C178.658,217.853 181.35,217.853 183.01,219.513" fill="#FFFFFF"/>
      <path d="M183.51,220.013 C185.171,221.674 185.171,224.366 183.51,226.026 C181.85,227.687 179.158,227.687 177.497,226.026 C175.837,224.366 175.837,221.674 177.497,220.013 C179.158,218.353 181.85,218.353 183.51,220.013" fill-opacity="0" stroke="#000000" stroke-width="1" stroke-linecap="round" stroke-linejoin="round"/>
      <path d="M190,348.476 L272,348.476 L272,358.476 L190,358.476 z M189.925,348.661" fill="#FFFFFF"/>
      <path d="M190.5,348.976 L272.5,348.976 L272.5,358.976 L190.5,358.976 z M190.425,349.161" fill-opacity="0" stroke="#000000" stroke-width="1" stroke-linecap="round" stroke-linejoin="round"/>
      <text transform="matrix(1, 0, -0, 1, 230.992, 354.049)">
        <tspan x="-23.152" y="2.5" font-family="HelveticaNeue" font-size="8" fill="#000000">P</tspan>
        <tspan x="-17.968" y="2.5" font-family="HelveticaNeue" font-size="8" kerning="-0.072" fill="#000000">r</tspan>
        <tspan x="-15.52" y="2.5" font-family="HelveticaNeue" font-size="8" fill="#000000">ocessing </tspan>
        <tspan x="18.704" y="2.5" font-family="HelveticaNeue" font-size="8" kerning="0" fill="#000000">3</tspan>
      </text>
      <path d="M285.058,349.907 C286.718,351.567 286.718,354.259 285.058,355.92 C283.397,357.581 280.705,357.581 279.045,355.92 C277.384,354.259 277.384,351.567 279.045,349.907 C280.705,348.246 283.397,348.246 285.058,349.907" fill="#FFFFFF"/>
      <path d="M285.558,350.407 C287.218,352.067 287.218,354.759 285.558,356.42 C283.897,358.081 281.205,358.081 279.545,356.42 C277.884,354.759 277.884,352.067 279.545,350.407 C281.205,348.746 283.897,348.746 285.558,350.407" fill-opacity="0" stroke="#000000" stroke-width="1" stroke-linecap="round" stroke-linejoin="round"/>
      <path d="M183.01,349.907 C184.671,351.567 184.671,354.259 183.01,355.92 C181.35,357.581 178.658,357.581 176.997,355.92 C175.337,354.259 175.337,351.567 176.997,349.907 C178.658,348.246 181.35,348.246 183.01,349.907" fill="#FFFFFF"/>
      <path d="M183.51,350.407 C185.171,352.067 185.171,354.759 183.51,356.42 C181.85,358.081 179.158,358.081 177.497,356.42 C175.837,354.759 175.837,352.067 177.497,350.407 C179.158,348.746 181.85,348.746 183.51,350.407" fill-opacity="0" stroke="#000000" stroke-width="1" stroke-linecap="round" stroke-linejoin="round"/>
      <path d="M170,377.476 L292,377.476 L292,433.476 L170,433.476 z M170.083,377.008" fill="#FFFFFF"/>
      <path d="M170.5,377.976 L292.5,377.976 L292.5,433.976 L170.5,433.976 z M170.583,377.508" fill-opacity="0" stroke="#000000" stroke-width="1" stroke-linecap="round" stroke-linejoin="round"/>
      <text transform="matrix(1, 0, -0, 1, 230.697, 405.518)">
        <tspan x="-43.908" y="3.5" font-family="HelveticaNeue" font-size="12" fill="#000000">Add</tspan>
        <tspan x="-21.9" y="3.5" font-family="HelveticaNeue" font-size="12" kerning="-0.108" fill="#000000">r</tspan>
        <tspan x="-18.228" y="3.5" font-family="HelveticaNeue" font-size="12" fill="#000000">ess T</tspan>
        <tspan x="10.44" y="3.5" font-family="HelveticaNeue" font-size="12" kerning="-0.552" fill="#000000">T</tspan>
        <tspan x="15.672" y="3.5" font-family="HelveticaNeue" font-size="12" fill="#000000">AM </tspan>
        <tspan x="37.236" y="3.5" font-family="HelveticaNeue" font-size="12" kerning="0" fill="#000000">2</tspan>
      </text>
      <text transform="matrix(1, 0, -0, 1, 230.751, 419.854)">
        <tspan x="-24.168" y="3.5" font-family="HelveticaNeue" font-size="12" fill="#000000">(T</tspan>
        <tspan x="-14.172" y="3.5" font-family="HelveticaNeue" font-size="12" kerning="-0.552" fill="#000000">T</tspan>
        <tspan x="-8.94" y="3.5" font-family="HelveticaNeue" font-size="12" fill="#000000">AM/A</tspan>
        <tspan x="21.06" y="3.5" font-family="HelveticaNeue" font-size="12" kerning="0" fill="#000000">)</tspan>
      </text>
      <path d="M190,385.476 L272,385.476 L272,395.476 L190,395.476 z M189.925,385.512" fill="#FFFFFF"/>
      <path d="M190.5,385.976 L272.5,385.976 L272.5,395.976 L190.5,395.976 z M190.425,386.012" fill-opacity="0" stroke="#000000" stroke-width="1" stroke-linecap="round" stroke-linejoin="round"/>
      <text transform="matrix(1, 0, -0, 1, 230.992, 390.9)">
        <tspan x="-22.784" y="2.5" font-family="HelveticaNeue" font-size="8" fill="#000000">Add</tspan>
        <tspan x="-8.112" y="2.5" font-family="HelveticaNeue" font-size="8" kerning="-0.072" fill="#000000">r</tspan>
        <tspan x="-5.664" y="2.5" font-family="HelveticaNeue" font-size="8" fill="#000000">ess Bu</tspan>
        <tspan x="18.784" y="2.5" font-family="HelveticaNeue" font-size="8" kerning="0" fill="#000000">s</tspan>
      </text>
      <path d="M285.058,386.757 C286.718,388.418 286.718,391.11 285.058,392.77 C283.397,394.431 280.705,394.431 279.045,392.77 C277.384,391.11 277.384,388.418 279.045,386.757 C280.705,385.097 283.397,385.097 285.058,386.757" fill="#FFFFFF"/>
      <path d="M285.558,387.257 C287.218,388.918 287.218,391.61 285.558,393.27 C283.897,394.931 281.205,394.931 279.545,393.27 C277.884,391.61 277.884,388.918 279.545,387.257 C281.205,385.597 283.897,385.597 285.558,387.257" fill-opacity="0" stroke="#000000" stroke-width="1" stroke-linecap="round" stroke-linejoin="round"/>
      <path d="M183.01,386.757 C184.671,388.418 184.671,391.11 183.01,392.77 C181.35,394.431 178.658,394.431 176.997,392.77 C175.337,391.11 175.337,388.418 176.997,386.757 C178.658,385.097 181.35,385.097 183.01,386.757" fill="#FFFFFF"/>
      <path d="M183.51,387.257 C185.171,388.918 185.171,391.61 183.51,393.27 C181.85,394.931 179.158,394.931 177.497,393.27 C175.837,391.61 175.837,388.918 177.497,387.257 C179.158,385.597 181.85,385.597 183.51,387.257" fill-opacity="0" stroke="#000000" stroke-width="1" stroke-linecap="round" stroke-linejoin="round"/>
      <path d="M51,218.476 L133,218.476 L133,228.476 L51,228.476 z M51.028,218.268" fill="#FFFFFF"/>
      <path d="M51.5,218.976 L133.5,218.976 L133.5,228.976 L51.5,228.976 z M51.528,218.768" fill-opacity="0" stroke="#000000" stroke-width="1" stroke-linecap="round" stroke-linejoin="round"/>
      <text transform="matrix(1, 0, -0, 1, 92.13, 223.656)">
        <tspan x="-16.448" y="2.5" font-family="HelveticaNeue" font-size="8" fill="#000000">Data Bu</tspan>
        <tspan x="12.448" y="2.5" font-family="HelveticaNeue" font-size="8" kerning="0" fill="#000000">s</tspan>
      </text>
      <path d="M146.16,219.513 C147.821,221.174 147.821,223.866 146.16,225.526 C144.5,227.187 141.807,227.187 140.147,225.526 C138.486,223.866 138.486,221.174 140.147,219.513 C141.807,217.853 144.5,217.853 146.16,219.513" fill="#FFFFFF"/>
      <path d="M146.66,220.013 C148.321,221.674 148.321,224.366 146.66,226.026 C145,227.687 142.307,227.687 140.647,226.026 C138.986,224.366 138.986,221.674 140.647,220.013 C142.307,218.353 145,218.353 146.66,220.013" fill-opacity="0" stroke="#000000" stroke-width="1" stroke-linecap="round" stroke-linejoin="round"/>
      <path d="M44.113,219.513 C45.773,221.174 45.773,223.866 44.113,225.526 C42.452,227.187 39.76,227.187 38.1,225.526 C36.439,223.866 36.439,221.174 38.1,219.513 C39.76,217.853 42.452,217.853 44.113,219.513" fill="#FFFFFF"/>
      <path d="M44.613,220.013 C46.273,221.674 46.273,224.366 44.613,226.026 C42.952,227.687 40.26,227.687 38.6,226.026 C36.939,224.366 36.939,221.674 38.6,220.013 C40.26,218.353 42.952,218.353 44.613,220.013" fill-opacity="0" stroke="#000000" stroke-width="1" stroke-linecap="round" stroke-linejoin="round"/>
      <path d="M51,348.476 L133,348.476 L133,358.476 L51,358.476 z M51.028,348.661" fill="#FFFFFF"/>
      <path d="M51.5,348.976 L133.5,348.976 L133.5,358.976 L51.5,358.976 z M51.528,349.161" fill-opacity="0" stroke="#000000" stroke-width="1" stroke-linecap="round" stroke-linejoin="round"/>
      <text transform="matrix(1, 0, -0, 1, 92.094, 354.049)">
        <tspan x="-23.152" y="2.5" font-family="HelveticaNeue" font-size="8" fill="#000000">P</tspan>
        <tspan x="-17.968" y="2.5" font-family="HelveticaNeue" font-size="8" kerning="-0.072" fill="#000000">r</tspan>
        <tspan x="-15.52" y="2.5" font-family="HelveticaNeue" font-size="8" fill="#000000">ocessing </tspan>
        <tspan x="18.704" y="2.5" font-family="HelveticaNeue" font-size="8" kerning="0" fill="#000000">3</tspan>
      </text>
      <path d="M146.16,349.907 C147.821,351.567 147.821,354.259 146.16,355.92 C144.5,357.581 141.807,357.581 140.147,355.92 C138.486,354.259 138.486,351.567 140.147,349.907 C141.807,348.246 144.5,348.246 146.16,349.907" fill="#FFFFFF"/>
      <path d="M146.66,350.407 C148.321,352.067 148.321,354.759 146.66,356.42 C145,358.081 142.307,358.081 140.647,356.42 C138.986,354.759 138.986,352.067 140.647,350.407 C142.307,348.746 145,348.746 146.66,350.407" fill-opacity="0" stroke="#000000" stroke-width="1" stroke-linecap="round" stroke-linejoin="round"/>
      <path d="M44.113,349.907 C45.773,351.567 45.773,354.259 44.113,355.92 C42.452,357.581 39.76,357.581 38.1,355.92 C36.439,354.259 36.439,351.567 38.1,349.907 C39.76,348.246 42.452,348.246 44.113,349.907" fill="#FFFFFF"/>
      <path d="M44.613,350.407 C46.273,352.067 46.273,354.759 44.613,356.42 C42.952,358.081 40.26,358.081 38.6,356.42 C36.939,354.759 36.939,352.067 38.6,350.407 C40.26,348.746 42.952,348.746 44.613,350.407" fill-opacity="0" stroke="#000000" stroke-width="1" stroke-linecap="round" stroke-linejoin="round"/>
      <path d="M190,235.476 L272,235.476 L272,245.476 L190,245.476 z M189.925,235.276" fill="#FFFFFF"/>
      <path d="M190.5,235.976 L272.5,235.976 L272.5,245.976 L190.5,245.976 z M190.425,235.776" fill-opacity="0" stroke="#000000" stroke-width="1" stroke-linecap="round" stroke-linejoin="round"/>
      <text transform="matrix(1, 0, -0, 1, 230.992, 240.664)">
        <tspan x="-23.152" y="2.5" font-family="HelveticaNeue" font-size="8" fill="#000000">P</tspan>
        <tspan x="-17.968" y="2.5" font-family="HelveticaNeue" font-size="8" kerning="-0.072" fill="#000000">r</tspan>
        <tspan x="-15.52" y="2.5" font-family="HelveticaNeue" font-size="8" fill="#000000">ocessing </tspan>
        <tspan x="18.704" y="2.5" font-family="HelveticaNeue" font-size="8" kerning="0" fill="#000000">1</tspan>
      </text>
      <path d="M31,377.476 L153,377.476 L153,433.476 L31,433.476 z M31.185,377.008" fill="#FFFFFF"/>
      <path d="M31.5,377.976 L153.5,377.976 L153.5,433.976 L31.5,433.976 z M31.685,377.508" fill-opacity="0" stroke="#000000" stroke-width="1" stroke-linecap="round" stroke-linejoin="round"/>
      <text transform="matrix(1, 0, -0, 1, 91.8, 405.518)">
        <tspan x="-43.908" y="3.5" font-family="HelveticaNeue" font-size="12" fill="#000000">Add</tspan>
        <tspan x="-21.9" y="3.5" font-family="HelveticaNeue" font-size="12" kerning="-0.108" fill="#000000">r</tspan>
        <tspan x="-18.228" y="3.5" font-family="HelveticaNeue" font-size="12" fill="#000000">ess T</tspan>
        <tspan x="10.44" y="3.5" font-family="HelveticaNeue" font-size="12" kerning="-0.552" fill="#000000">T</tspan>
        <tspan x="15.672" y="3.5" font-family="HelveticaNeue" font-size="12" fill="#000000">AM </tspan>
        <tspan x="37.236" y="3.5" font-family="HelveticaNeue" font-size="12" kerning="0" fill="#000000">1</tspan>
      </text>
      <text transform="matrix(1, 0, -0, 1, 91.854, 419.854)">
        <tspan x="-24.168" y="3.5" font-family="HelveticaNeue" font-size="12" fill="#000000">(T</tspan>
        <tspan x="-14.172" y="3.5" font-family="HelveticaNeue" font-size="12" kerning="-0.552" fill="#000000">T</tspan>
        <tspan x="-8.94" y="3.5" font-family="HelveticaNeue" font-size="12" fill="#000000">AM/A</tspan>
        <tspan x="21.06" y="3.5" font-family="HelveticaNeue" font-size="12" kerning="0" fill="#000000">)</tspan>
      </text>
      <path d="M51,385.476 L133,385.476 L133,395.476 L51,395.476 z M51.028,385.512" fill="#FFFFFF"/>
      <path d="M51.5,385.976 L133.5,385.976 L133.5,395.976 L51.5,395.976 z M51.528,386.012" fill-opacity="0" stroke="#000000" stroke-width="1" stroke-linecap="round" stroke-linejoin="round"/>
      <text transform="matrix(1, 0, -0, 1, 92.094, 390.9)">
        <tspan x="-22.784" y="2.5" font-family="HelveticaNeue" font-size="8" fill="#000000">Add</tspan>
        <tspan x="-8.112" y="2.5" font-family="HelveticaNeue" font-size="8" kerning="-0.072" fill="#000000">r</tspan>
        <tspan x="-5.664" y="2.5" font-family="HelveticaNeue" font-size="8" fill="#000000">ess Bu</tspan>
        <tspan x="18.784" y="2.5" font-family="HelveticaNeue" font-size="8" kerning="0" fill="#000000">s</tspan>
      </text>
      <path d="M146.16,386.757 C147.821,388.418 147.821,391.11 146.16,392.77 C144.5,394.431 141.807,394.431 140.147,392.77 C138.486,391.11 138.486,388.418 140.147,386.757 C141.807,385.097 144.5,385.097 146.16,386.757" fill="#FFFFFF"/>
      <path d="M146.66,387.257 C148.321,388.918 148.321,391.61 146.66,393.27 C145,394.931 142.307,394.931 140.647,393.27 C138.986,391.61 138.986,388.918 140.647,387.257 C142.307,385.597 145,385.597 146.66,387.257" fill-opacity="0" stroke="#000000" stroke-width="1" stroke-linecap="round" stroke-linejoin="round"/>
      <path d="M44.113,386.757 C45.773,388.418 45.773,391.11 44.113,392.77 C42.452,394.431 39.76,394.431 38.1,392.77 C36.439,391.11 36.439,388.418 38.1,386.757 C39.76,385.097 42.452,385.097 44.113,386.757" fill="#FFFFFF"/>
      <path d="M44.613,387.257 C46.273,388.918 46.273,391.61 44.613,393.27 C42.952,394.931 40.26,394.931 38.6,393.27 C36.939,391.61 36.939,388.918 38.6,387.257 C40.26,385.597 42.952,385.597 44.613,387.257" fill-opacity="0" stroke="#000000" stroke-width="1" stroke-linecap="round" stroke-linejoin="round"/>
      <path d="M31,210.476 L153,210.476 L153,365.476 L31,365.476 z M31.185,209.764" fill="#FFFFFF"/>
      <path d="M31.5,210.976 L153.5,210.976 L153.5,365.976 L31.5,365.976 z M31.685,210.264" fill-opacity="0" stroke="#000000" stroke-width="1" stroke-linecap="round" stroke-linejoin="round"/>
      <text transform="matrix(1, 0, -0, 1, 91.854, 280.88)">
        <tspan x="-34.404" y="3.5" font-family="HelveticaNeue" font-size="12" fill="#000000">Data T</tspan>
        <tspan x="0.936" y="3.5" font-family="HelveticaNeue" font-size="12" kerning="-0.552" fill="#000000">T</tspan>
        <tspan x="6.168" y="3.5" font-family="HelveticaNeue" font-size="12" fill="#000000">AM </tspan>
        <tspan x="27.732" y="3.5" font-family="HelveticaNeue" font-size="12" kerning="0" fill="#000000">3</tspan>
      </text>
      <text transform="matrix(1, 0, -0, 1, 91.854, 295.216)">
        <tspan x="-24.504" y="3.5" font-family="HelveticaNeue" font-size="12" fill="#000000">(T</tspan>
        <tspan x="-14.508" y="3.5" font-family="HelveticaNeue" font-size="12" kerning="-0.552" fill="#000000">T</tspan>
        <tspan x="-9.276" y="3.5" font-family="HelveticaNeue" font-size="12" fill="#000000">AM/D</tspan>
        <tspan x="21.396" y="3.5" font-family="HelveticaNeue" font-size="12" kerning="0" fill="#000000">)</tspan>
      </text>
      <path d="M51,218.476 L133,218.476 L133,228.476 L51,228.476 z M51.028,218.268" fill="#FFFFFF"/>
      <path d="M51.5,218.976 L133.5,218.976 L133.5,228.976 L51.5,228.976 z M51.528,218.768" fill-opacity="0" stroke="#000000" stroke-width="1" stroke-linecap="round" stroke-linejoin="round"/>
      <text transform="matrix(1, 0, -0, 1, 92.13, 223.656)">
        <tspan x="-16.448" y="2.5" font-family="HelveticaNeue" font-size="8" fill="#000000">Data Bu</tspan>
        <tspan x="12.448" y="2.5" font-family="HelveticaNeue" font-size="8" kerning="0" fill="#000000">s</tspan>
      </text>
      <path d="M146.16,219.513 C147.821,221.174 147.821,223.866 146.16,225.526 C144.5,227.187 141.807,227.187 140.147,225.526 C138.486,223.866 138.486,221.174 140.147,219.513 C141.807,217.853 144.5,217.853 146.16,219.513" fill="#FFFFFF"/>
      <path d="M146.66,220.013 C148.321,221.674 148.321,224.366 146.66,226.026 C145,227.687 142.307,227.687 140.647,226.026 C138.986,224.366 138.986,221.674 140.647,220.013 C142.307,218.353 145,218.353 146.66,220.013" fill-opacity="0" stroke="#000000" stroke-width="1" stroke-linecap="round" stroke-linejoin="round"/>
      <path d="M44.113,219.513 C45.773,221.174 45.773,223.866 44.113,225.526 C42.452,227.187 39.76,227.187 38.1,225.526 C36.439,223.866 36.439,221.174 38.1,219.513 C39.76,217.853 42.452,217.853 44.113,219.513" fill="#FFFFFF"/>
      <path d="M44.613,220.013 C46.273,221.674 46.273,224.366 44.613,226.026 C42.952,227.687 40.26,227.687 38.6,226.026 C36.939,224.366 36.939,221.674 38.6,220.013 C40.26,218.353 42.952,218.353 44.613,220.013" fill-opacity="0" stroke="#000000" stroke-width="1" stroke-linecap="round" stroke-linejoin="round"/>
      <path d="M51,348.476 L133,348.476 L133,358.476 L51,358.476 z M51.028,348.661" fill="#FFFFFF"/>
      <path d="M51.5,348.976 L133.5,348.976 L133.5,358.976 L51.5,358.976 z M51.528,349.161" fill-opacity="0" stroke="#000000" stroke-width="1" stroke-linecap="round" stroke-linejoin="round"/>
      <text transform="matrix(1, 0, -0, 1, 92.094, 354.049)">
        <tspan x="-23.152" y="2.5" font-family="HelveticaNeue" font-size="8" fill="#000000">P</tspan>
        <tspan x="-17.968" y="2.5" font-family="HelveticaNeue" font-size="8" kerning="-0.072" fill="#000000">r</tspan>
        <tspan x="-15.52" y="2.5" font-family="HelveticaNeue" font-size="8" fill="#000000">ocessing </tspan>
        <tspan x="18.704" y="2.5" font-family="HelveticaNeue" font-size="8" kerning="0" fill="#000000">3</tspan>
      </text>
      <path d="M146.16,349.907 C147.821,351.567 147.821,354.259 146.16,355.92 C144.5,357.581 141.807,357.581 140.147,355.92 C138.486,354.259 138.486,351.567 140.147,349.907 C141.807,348.246 144.5,348.246 146.16,349.907" fill="#FFFFFF"/>
      <path d="M146.66,350.407 C148.321,352.067 148.321,354.759 146.66,356.42 C145,358.081 142.307,358.081 140.647,356.42 C138.986,354.759 138.986,352.067 140.647,350.407 C142.307,348.746 145,348.746 146.66,350.407" fill-opacity="0" stroke="#000000" stroke-width="1" stroke-linecap="round" stroke-linejoin="round"/>
      <path d="M44.113,349.907 C45.773,351.567 45.773,354.259 44.113,355.92 C42.452,357.581 39.76,357.581 38.1,355.92 C36.439,354.259 36.439,351.567 38.1,349.907 C39.76,348.246 42.452,348.246 44.113,349.907" fill="#FFFFFF"/>
      <path d="M44.613,350.407 C46.273,352.067 46.273,354.759 44.613,356.42 C42.952,358.081 40.26,358.081 38.6,356.42 C36.939,354.759 36.939,352.067 38.6,350.407 C40.26,348.746 42.952,348.746 44.613,350.407" fill-opacity="0" stroke="#000000" stroke-width="1" stroke-linecap="round" stroke-linejoin="round"/>
      <path d="M0,25.476 L326,25.476 L326,28.476 L0,28.476 z M0.004,25.512" fill="#FFFFFF"/>
      <path d="M0.5,25.976 L326.5,25.976 L326.5,28.976 L0.5,28.976 z M0.504,26.011" fill-opacity="0" stroke="#000000" stroke-width="1" stroke-linecap="round" stroke-linejoin="round"/>
      <path d="M14,0.476 L34,0.476 L34,25.476 L14,25.476 z M14.177,0" fill="#FFFFFF"/>
      <path d="M14.5,0.976 L34.5,0.976 L34.5,25.976 L14.5,25.976 z M14.677,0.5" fill-opacity="0" stroke="#000000" stroke-width="1" stroke-linecap="round" stroke-linejoin="round"/>
    </g>
  </g>
</svg>
